<svg width="27" height="19" viewBox="0 0 27 19" fill="none" xmlns="http://www.w3.org/2000/svg">
<path d="M12.0234 0H15.1348L16.1895 0.158203L17.2441 0.474609L18.1406 0.896484L18.9316 1.42383L19.5117 1.89844L20.0918 2.47852L20.6191 3.16406L21.3574 4.37695L22.043 5.48438L22.2012 5.74805V5.85352L22.4648 5.95898L23.5195 6.64453L25.0488 7.64648L26.4199 8.54297L26.8418 8.91211L27 9.22852V9.9668L26.7363 10.3887L26.4199 10.6523L26.0508 10.7578H25.6816L25.1543 10.5469L24.3633 10.0195L22.9922 9.12305L21.6211 8.22656L20.6719 7.59375L20.3027 7.17188L19.4062 5.69531L18.6152 4.42969L18.1406 3.84961L18.0879 3.79688L18.0352 11.707L18.5098 11.8652L19.9336 12.5508L21.4102 13.2363L23.3086 14.1328L23.9414 14.4492L24.4688 14.9766L24.7324 15.5566L24.7852 15.8203V16.3477L24.5742 17.0332L24.2578 17.4551L23.8359 17.8242L23.2559 18.0352H12.0234L11.707 17.877L11.4434 17.6133L11.2324 17.1914V16.6113L11.4434 16.1895L11.8125 15.873L12.0762 15.7676L21.1465 15.7148L19.248 14.8184L17.7715 14.1328L16.2949 13.4473L15.9258 13.1309L15.7148 12.6035V2.42578L15.1875 2.37305H11.9707L11.2852 2.47852V12.6035L11.0742 13.1309L10.7051 13.4473L8.80664 14.3438L7.33008 15.0293L5.85352 15.7148L8.17383 15.7676L8.5957 15.9785L8.91211 16.3477L9.01758 16.6113V17.1914L8.75391 17.7188L8.38477 17.9824L8.22656 18.0352H3.74414L3.16406 17.8242L2.63672 17.3496L2.37305 16.9277L2.21484 16.3477V15.7676L2.42578 15.1348L2.79492 14.6602L3.2168 14.3438L4.69336 13.6582L6.69727 12.709L8.49023 11.8652L8.96484 11.707L8.91211 4.00781L8.54297 4.42969L7.80469 5.74805L7.11914 6.96094L6.5918 7.91016L6.16992 8.2793L5.27344 8.85938L3.90234 9.75586L2.53125 10.6523L1.63477 11.2324L1.47656 11.2852H0.791016L0.369141 11.0742L0.0527344 10.6523L0 10.4941V9.80859L0.158203 9.49219L0.421875 9.22852L0.949219 8.85938L2.00391 8.17383L3.375 7.27734L4.74609 6.38086L5.43164 5.11523L6.11719 3.90234L6.5918 3.11133L7.17188 2.37305L7.80469 1.74023L8.5957 1.16016L9.43945 0.685547L10.2305 0.369141L11.2324 0.105469L12.0234 0Z" fill="#4C6589"/>
</svg>
