<svg width="173" height="173" viewBox="0 0 173 173" fill="none" xmlns="http://www.w3.org/2000/svg">
<path d="M84.8315 0.0599322C90.7086 -0.684702 102.512 5.68393 106.959 9.47622C108.986 11.4898 110.616 13.9668 112.384 16.2089C118.639 24.0919 119.988 36.711 116.049 45.8663C114.912 48.5089 114.123 50.2483 113.257 53.0557C112.065 56.9226 108.374 61.4788 105.075 63.8747C101.064 66.7885 95.6384 70.3232 90.6219 71.2781C89.1532 71.5202 83.2849 71.2965 81.658 71.0878C74.8485 70.3377 70.8409 69.0385 64.9991 65.3616C63.5239 64.4331 61.7985 63.4844 60.4501 62.4484C58.3088 60.8031 59.3317 59.7828 59.795 57.6599C59.8265 57.5157 59.7359 56.654 59.7117 56.4257C56.5644 56.4039 56.4254 58.6575 54.4419 54.7177C49.8418 45.524 48.7584 34.7356 49.5964 24.5997C50.2162 21.9262 51.9381 19.0527 53.1208 16.6198C56.5982 9.46634 64.5177 3.47988 72.1125 1.45872C75.7068 0.502188 81.1372 0.415119 84.8315 0.0599322ZM55.7252 36.6985L55.5531 37.6279C59.1787 40.0128 62.8723 42.5112 66.5949 44.7295C68.146 45.6538 70.2299 46.4942 71.875 47.3227C75.7562 49.2774 79.1017 51.0287 83.6062 50.9382C87.481 50.4395 88.9884 49.9107 92.6745 48.6902C100.869 45.9766 107.417 42.4969 113.116 35.9362C112.143 34.7669 110.36 32.4501 109.223 31.6282C107.056 30.062 104.08 28.44 101.696 27.202C98.882 25.7403 95.6657 23.9275 92.7244 22.8478C91.0014 22.204 89.2012 21.7849 87.3708 21.6009C86.8304 21.551 85.8861 21.4848 85.3503 21.5241C82.7821 21.7231 81.0995 22.143 78.6091 22.6482C77.2973 22.9144 75.9296 22.9853 74.5515 23.292C69.5383 24.4081 66.404 27.5829 62.682 30.8161C60.4719 32.736 57.8837 34.7302 55.7252 36.6985Z" fill="#4C6589"/>
<path d="M83.9321 24.914C84.1681 24.883 84.4063 24.8619 84.6435 24.8507C90.3953 24.5994 95.6519 28.7371 95.7668 34.6065C95.8299 37.8531 94.9043 41.3136 92.6842 43.7619C90.6034 46.0553 87.3062 46.3757 84.411 46.4401C83.7158 46.453 83.0844 46.3581 82.4189 46.2542C77.2749 45.451 72.9445 42.4907 72.4549 36.9798C72.0912 34.009 72.9027 31.4943 74.7944 29.1638C77.3262 26.0446 80.1026 25.2895 83.9321 24.914Z" fill="#4C6589"/>
<path d="M21.6751 89.7722C24.8845 89.5587 26.375 91.6175 28.7446 93.1766C34.255 96.8013 39.6953 100.516 45.2584 104.065C47.3136 105.375 49.3078 106.817 51.4625 107.963C52.4518 108.484 53.8147 108.848 54.8933 109.17C54.9485 109.126 55.2272 108.658 55.2838 108.566C52.3878 106.209 49.9753 104.78 46.8316 102.767L36.8164 96.34L33.017 93.9025C31.2702 92.7793 30.7287 92.7934 29.9101 90.7888C31.454 89.8684 32.6807 89.6103 34.4481 90.1382C36.1082 90.6341 37.4133 91.9153 38.8322 92.8565C42.1417 95.0502 45.1981 97.6044 48.4078 99.9346C50.8346 101.691 53.336 103.342 55.905 104.883C58.487 106.453 59.5429 107.385 62.5912 107.805L63.043 107.111C61.6639 105.895 60.1528 104.55 58.6472 103.515C53.1632 99.7473 46.3309 96.8625 41.6112 92.1893C42.6366 91.8947 43.5769 91.6134 44.6432 91.4858C46.3905 91.2693 48.1642 91.4529 49.8301 92.0225C52.8335 93.0288 55.656 94.8929 58.4789 96.2299C65.6892 99.6428 72.7437 103.348 80.1361 106.357C83.4293 107.698 85.9163 108.439 89.4734 108.852C92.298 109.18 94.9183 109.184 97.7109 109.304C102.197 109.499 106.909 110.946 110.662 113.418C113.162 115.064 115.272 117.184 117.45 119.26C120.241 121.933 123.015 124.623 125.771 127.331C132.731 134.133 139.544 140.983 147.432 146.708C149.748 148.388 151.406 150.864 151.786 153.738C152.4 158.39 149.311 161.449 146.48 164.623C144.23 167.127 142.29 170.242 139.718 172.388C139.209 172.813 137.626 172.923 136.928 173C135.493 172.149 134.107 170.581 132.586 169.658C131.13 168.774 130.096 169.095 128.847 168.536C127.877 168.101 126.568 165.439 125.912 164.404C125.406 163.61 124.868 162.835 124.302 162.082C121.575 158.459 118.343 155.391 115.476 151.905C115.199 151.568 114.747 150.483 114.491 150.012C111.584 149.321 111.707 148.048 110.104 145.979C109.466 145.156 107.683 144.177 106.834 143.44C104.877 141.735 103.164 139.818 100.675 138.861C97.7382 137.653 94.6829 137.506 91.5533 137.69C88.4716 137.871 87.098 138.955 84.2536 137.6C84.778 137.533 85.3072 137.489 85.8335 137.44C85.6254 137.103 85.036 135.998 84.5624 136.232C81.7495 137.623 80.4999 138.447 77.5796 136.397C77.6291 136.826 77.6819 137.255 77.738 137.685C73.6933 136.448 69.4438 135.064 65.3579 134.019C63.0862 133.439 61.7891 133.689 59.1417 132.779C56.4558 131.854 54.7526 130.969 52.2217 129.824C49.6541 128.636 47.0207 127.595 44.3345 126.706C42.6865 126.168 41.0162 125.703 39.328 125.311C37.7495 124.952 35.8704 124.758 34.3985 124.106C33.6835 123.789 33.3628 122.77 33.1501 122.082C33.2418 121.891 33.3382 121.702 33.4391 121.515C34.9012 118.848 38.2967 119.148 40.8329 119.117L46.7495 119.026C47.6244 119.015 49.8429 118.948 50.5785 119.119C52.7651 119.63 55.3186 120.167 57.4459 120.798C60.2136 121.619 61.4237 122.434 64.4328 122.554C69.3744 122.872 72.8677 119.223 77.6172 118.667C79.6201 118.394 81.7547 118.424 83.7599 118.666C85.1377 118.832 86.4323 119.213 87.8531 118.851C88.1214 118.783 88.1864 118.666 88.3012 118.449C88.1939 117.409 85.7026 116.768 84.842 116.509C81.1765 115.356 76.3957 115.073 72.9841 117.138C69.87 119.025 68.3545 120.154 64.4709 120.001C61.5404 119.885 59.3242 119.053 56.5234 118.297C54.363 117.725 52.1931 117.191 50.0145 116.694C48.029 116.242 46.703 116.183 44.6879 116.025C43.6409 115.942 41.9808 115.225 40.9747 114.822C34.295 112.147 28.5226 107.238 22.7608 103.003C21.1143 101.649 19.1135 100.572 17.7124 98.9574C17.0647 98.3595 16.5943 96.227 17.5944 95.7215C19.2805 94.8703 22.5251 95.7845 24.1259 96.5471C25.7302 97.3116 26.0843 98.9592 27.3579 99.8565C28.1979 100.449 29.2654 100.826 30.1368 101.397C31.8866 102.567 33.6475 103.72 35.4191 104.858C36.6006 105.603 37.875 106.327 39.0331 107.084C40.2794 107.9 41.3524 108.918 42.6995 109.665C43.206 110.152 45.5496 110.606 45.894 110.907C47.6349 112.424 48.6802 112.804 51.0055 113.3C45.6015 109.37 40.1596 105.494 34.6803 101.671C32.8811 100.404 22.2627 93.1936 21.5662 92.1229C21.3196 91.7438 21.0714 90.8908 21.1835 90.4402C21.2646 90.1145 21.3949 89.9463 21.6751 89.7722Z" fill="#4C6589"/>
<path d="M116.951 61.5518C118.183 62.4336 119.542 63.5701 120.741 64.5207L126.668 69.1856L145.474 83.9053L161.559 96.4376C163.807 98.1793 166.022 99.9644 168.201 101.79C172.98 105.743 172.637 104.723 172.625 110.831C172.618 113.606 172.598 116.379 172.564 119.153L172.485 126.862C172.482 128.292 172.717 132.805 171.939 133.894C171.257 134.247 170.983 133.508 170.663 132.99C168.621 129.996 166.729 126.814 164.643 123.792C161.376 119.056 157.941 114.541 154.536 109.914C151.504 105.796 148.635 101.772 145.458 97.7538C139.866 90.7329 133.869 84.0448 127.497 77.7239C124.929 75.2303 122.256 72.8488 119.482 70.586C117.844 69.2424 116.19 67.9397 114.569 66.5558C112.884 65.1181 114.016 64.3703 115.254 63.1673C115.811 62.6271 116.399 62.1049 116.951 61.5518Z" fill="#4C6589"/>
<path d="M104.278 72.6135C105.583 72.4418 108.665 77.6418 109.375 78.7277C116.952 90.3314 126.214 100.736 134.66 111.707C139.431 117.906 144.031 124.195 148.719 130.453C150.698 133.061 152.695 135.655 154.711 138.235C155.757 139.578 157.577 141.755 158.294 143.146C158.033 143.201 157.771 143.249 157.508 143.289C156.37 143.46 155.8 143.27 154.929 142.621C153.856 141.529 154.143 141.113 152.421 140.336C150.569 141.066 150.009 140.799 148.483 139.494C147.564 138.708 146.634 137.884 145.719 137.092C143.04 134.8 140.381 132.484 137.741 130.146C135.232 127.893 132.739 125.622 130.262 123.333C126.841 120.191 122.532 116.14 119.761 112.435C118.069 110.174 116.164 105.773 114.87 103.221L107.271 88.4712L102.614 79.3313C102.044 78.1941 100.631 75.5488 100.37 74.4095C101.415 73.7021 103.099 72.9823 104.278 72.6135Z" fill="#4C6589"/>
<path d="M123.783 50.3047C124.337 50.399 124.862 50.6223 125.382 50.8321C130.227 52.7885 135.01 54.8822 139.787 56.9935C141.669 57.8247 143.921 58.0799 145.942 58.4716C147.478 58.7809 149.002 59.142 150.512 59.5542C156.464 61.1825 162.228 63.4404 168.174 65.0798C168.593 65.1955 169.974 65.1657 170.509 65.2188C172.291 65.396 172.423 66.3247 172.598 67.8593C172.651 69.5975 172.536 71.4382 172.528 73.2195L172.524 79.5268C172.523 81.4542 172.635 83.3321 172.228 85.2126L171.535 84.7474C162.341 78.6379 153.313 72.2603 144.046 66.2555C139.609 63.3811 134.873 60.9604 130.429 58.102C129.268 57.3544 128.132 56.3149 126.986 55.5091C125.605 54.5385 124.129 53.6121 122.867 52.4982C122.67 52.3194 122.2 51.3914 122.052 51.1078C122.702 50.7611 123.092 50.5411 123.783 50.3047Z" fill="#4C6589"/>
<path d="M43.2974 46.8887C43.4916 46.9325 43.5565 47.0043 43.6659 47.1716C45.0613 49.3076 44.6114 49.9793 42.6016 51.1107C37.3664 54.0577 31.8744 56.4142 26.5018 59.0811C21.484 61.5723 16.568 64.2632 11.7652 67.1472C8.89809 68.8728 5.9848 70.6775 3.30992 72.6908C2.52929 73.2785 1.73766 73.8269 0.926434 74.3698L0.00853717 75.0146C0.0364065 71.3542 0.0395134 67.6936 0.0178582 64.0332C0.022001 62.4268 -0.14804 58.7049 0.483068 57.3596C1.55952 55.0645 6.12876 56.23 8.18431 55.6846C9.44182 55.351 10.9742 54.9124 12.247 54.5092C15.4466 53.8083 18.5325 53.1037 21.6974 52.2908C24.7148 51.5304 28.0079 51.4706 31.0111 50.7965C35.0841 49.8822 39.4011 48.367 43.2974 46.8887Z" fill="#4C6589"/>
<path d="M160.184 39.0505C163.905 38.8446 168.516 39.0067 172.293 39.046C172.324 39.4188 172.403 39.7885 172.451 40.1636C172.875 43.5217 172.655 46.9538 172.775 50.3327C172.805 51.1735 172.894 52.5698 172.395 53.2366C172.13 53.3614 171.805 53.3472 171.531 53.2534C170.088 52.7599 168.739 51.97 167.308 51.4266C162.726 49.6859 157.907 48.7602 153.099 47.8938C150.165 47.3648 147.232 46.8035 144.276 46.4057C138.393 45.3816 132.273 44.9481 126.355 44.1157C126.026 44.0692 125.605 43.8507 125.353 43.6397C124.522 42.9436 124.481 40.016 125.93 39.9982C127.214 39.9948 128.569 40.0025 129.876 39.985C133.267 39.9717 136.659 39.9178 140.05 39.8233C146.77 39.6598 153.468 39.21 160.184 39.0505Z" fill="#4C6589"/>
<path d="M47.0264 58.1167C47.3727 58.0774 47.7996 58.0293 48.118 58.1905C49.2729 58.7752 50.355 60.6082 50.7676 61.7663C50.1961 63.2401 47.0666 66.0237 45.7836 67.2558L39.0937 73.6152C37.0251 75.5797 34.9128 77.7077 32.7804 79.5875C31.2305 80.9536 28.7284 80.6166 26.8081 80.3624C27.6015 80.0984 28.3892 79.8178 29.1706 79.5208C27.3056 79.135 26.9321 79.2041 25.9603 80.8542C25.5403 81.035 25.1165 81.1329 24.6748 81.252C23.7795 80.7813 23.2105 80.4746 22.2564 80.1448C20.4555 79.6446 19.228 79.6916 17.4439 79.4434C16.5844 79.3238 15.0035 78.4735 14.0693 78.1416C17.2548 75.8144 21.4771 73.4166 24.892 71.4717C28.9809 69.1587 33.057 66.8233 37.1203 64.4656C39.0952 63.2992 41.0391 62.0808 42.9496 60.8115C44.088 60.0457 45.8774 58.7325 47.0264 58.1167Z" fill="#4C6589"/>
<path d="M0.376894 31.2139C3.40005 31.971 6.57602 33.3046 9.69456 33.8322C10.652 33.9943 12.122 33.8024 13.1423 33.8177C14.6797 33.8408 16.2085 33.8956 17.7452 33.9624L40.271 35.1413C40.8609 35.5123 41.1186 35.729 41.6507 36.1893C40.3478 37.8396 39.6432 37.8288 37.6344 38.0832C36.5873 38.2158 35.4785 38.3684 34.4266 38.5087C32.2117 38.7232 29.7541 39.0994 27.4975 39.3484C20.8758 40.0765 14.2476 40.7436 7.61368 41.3498L8.88136 39.4369C4.73477 39.661 4.56388 39.5912 1.62207 42.3854C0.0783356 38.6693 -0.0666606 35.1176 0.376894 31.2139Z" fill="#4C6589"/>
<path d="M88.6023 77.9096C89.8678 77.7055 90.6897 77.7704 91.0042 79.1473C91.5691 81.6118 92.0399 84.0954 92.5624 86.5704L95.7514 101.551L95.1949 102.365C94.2261 102.061 93.1819 101.779 92.2009 101.496C90.4346 101.007 85.323 100.009 85.1516 97.8707C85.001 95.9915 85.7636 93.7489 85.8681 91.7203C86.0244 88.6852 85.7796 85.8905 85.291 82.8869C84.6705 78.5671 84.3513 78.5245 88.6023 77.9096Z" fill="#4C6589"/>
<path d="M56.6266 68.7353C57.9864 68.6961 59.48 69.8688 60.2605 70.9155C60.4849 71.2165 60.6239 71.7289 60.7324 72.0934C60.3162 73.6426 59.313 75.2611 58.5363 76.6957C57.593 78.426 56.665 80.1645 55.7524 81.911C54.7736 83.7962 53.5871 87.0819 51.8802 88.293C50.5517 89.2357 48.2656 88.5043 46.7665 88.1483C45.1461 87.8668 43.4963 87.5362 41.8779 87.2792C42.9177 85.6958 44.5697 84.3824 45.8839 83.0306C49.8279 78.9736 52.8259 74.124 55.8918 69.4019C56.08 69.1121 56.3396 68.9195 56.6266 68.7353Z" fill="#4C6589"/>
<path d="M69.2282 75.7345C70.1359 75.6802 71.223 76.0755 71.9965 76.414C73.5434 77.0909 75.3018 77.0535 74.9849 79.1605C74.2616 83.9708 73.6771 88.8244 72.7684 93.6003C72.6908 94.0079 71.8873 94.297 71.5596 94.4335C71.1367 94.2772 70.6567 94.055 70.2374 93.8742C68.8622 93.2914 64.6472 91.5097 63.8291 90.4947C63.5287 89.6428 64.9644 85.916 65.3055 84.9133C66.1109 82.559 66.8998 80.1991 67.672 77.8337C68.0482 76.7089 68.1556 76.2699 69.2282 75.7345Z" fill="#4C6589"/>
<path d="M158.822 144.155C158.867 144.15 159.134 144.173 159.141 144.179C160.834 146.038 165.171 151.519 166.502 153.024C165.163 153.027 164.793 153.014 163.509 152.654C161.834 152.057 160.519 150.735 159.412 149.388C158.156 147.861 156.643 146.736 155.23 145.372C156.437 144.993 157.634 144.587 158.822 144.155Z" fill="#4C6589"/>
<path d="M168.927 157.569C171.633 157.68 172.715 159.402 172.158 161.961C172.042 162.493 172.1 163.269 171.697 163.658C171.351 163.618 171.471 163.644 171.161 163.415L167.294 157.889C167.994 157.673 168.193 157.643 168.927 157.569Z" fill="#4C6589"/>
</svg>
