<svg width="16" height="16" viewBox="0 0 16 16" fill="none" xmlns="http://www.w3.org/2000/svg">
<circle cx="8" cy="8" r="8" fill="#4C6589"/>
<path d="M4.46776 6.3225C4.46776 6.22528 4.48915 6.15917 4.53192 6.12417C4.5747 6.08917 4.62915 6.07167 4.69526 6.07167C4.8197 6.07167 4.91109 6.1125 4.96942 6.19417C5.02776 6.27194 5.05887 6.39833 5.06276 6.57333V6.62H5.06859C5.16192 6.46444 5.27859 6.33417 5.41859 6.22917C5.56248 6.12417 5.75498 6.07167 5.99609 6.07167C6.1672 6.07167 6.32859 6.10861 6.48026 6.1825C6.63192 6.2525 6.75442 6.38278 6.84776 6.57333C6.94498 6.76389 6.99359 7.03611 6.99359 7.39C6.99359 7.93444 6.86915 8.33889 6.62026 8.60333C6.37137 8.86778 6.03303 9 5.60526 9C5.41081 9 5.23387 8.96306 5.07442 8.88917V9.86917C5.07442 10.0442 5.04331 10.1569 4.98109 10.2075C4.92276 10.2581 4.82942 10.2833 4.70109 10.2833C4.60776 10.2833 4.54553 10.2581 4.51442 10.2075C4.48331 10.1608 4.46776 10.0947 4.46776 10.0092V6.3225ZM6.36359 7.43667C6.36359 7.17222 6.33637 6.97 6.28192 6.83C6.22748 6.69 6.15553 6.59472 6.06609 6.54417C5.97665 6.48972 5.87553 6.4625 5.76276 6.4625C5.65776 6.4625 5.55081 6.49556 5.44192 6.56167C5.33692 6.62778 5.24748 6.71333 5.17359 6.81833C5.10359 6.91944 5.06859 7.02833 5.06859 7.145V8.41083C5.06859 8.48861 5.11331 8.56833 5.20276 8.65C5.29609 8.72778 5.43026 8.76667 5.60526 8.76667C5.75692 8.76667 5.88915 8.72583 6.00192 8.64417C6.1147 8.5625 6.2022 8.42444 6.26442 8.23C6.33053 8.03556 6.36359 7.77111 6.36359 7.43667ZM8.52429 8.60333C8.52429 8.77833 8.49318 8.88917 8.43096 8.93583C8.37263 8.97861 8.27929 9 8.15096 9C8.05763 9 7.9954 8.97667 7.96429 8.93C7.93318 8.87944 7.91763 8.81139 7.91763 8.72583V6.34583C7.91763 6.25639 7.93318 6.18833 7.96429 6.14167C7.9954 6.095 8.05763 6.07167 8.15096 6.07167C8.39985 6.07167 8.52429 6.20194 8.52429 6.4625V8.60333ZM7.84763 5.33083C7.84763 5.22972 7.88263 5.14417 7.95263 5.07417C8.02652 5.00417 8.11207 4.96917 8.20929 4.96917C8.3104 4.96917 8.39596 5.00417 8.46596 5.07417C8.53596 5.14417 8.57096 5.22972 8.57096 5.33083C8.57096 5.42806 8.53596 5.51361 8.46596 5.5875C8.39596 5.6575 8.3104 5.6925 8.20929 5.6925C8.11207 5.6925 8.02652 5.6575 7.95263 5.5875C7.88263 5.51361 7.84763 5.42806 7.84763 5.33083ZM11.6009 8.265C11.6398 8.22222 11.6884 8.20083 11.7467 8.20083C11.7778 8.20083 11.807 8.2125 11.8342 8.23583C11.8653 8.25528 11.8809 8.28444 11.8809 8.32333C11.8809 8.39333 11.8556 8.45944 11.805 8.52167C11.6962 8.65389 11.5581 8.76667 11.3909 8.86C11.2275 8.95333 11.0137 9 10.7492 9C10.4264 9 10.1678 8.93778 9.97338 8.81333C9.77893 8.685 9.63893 8.51 9.55338 8.28833C9.47171 8.06667 9.43088 7.81778 9.43088 7.54167C9.43088 7.18 9.4931 6.89222 9.61754 6.67833C9.74199 6.46444 9.90726 6.31083 10.1134 6.2175C10.3234 6.12028 10.5567 6.07167 10.8134 6.07167C11.07 6.07167 11.2975 6.13 11.4959 6.24667C11.5775 6.29722 11.6514 6.35944 11.7175 6.43333C11.7837 6.50722 11.8167 6.59472 11.8167 6.69583C11.8167 6.76972 11.7895 6.82611 11.735 6.865C11.6806 6.90389 11.6262 6.92333 11.5717 6.92333C11.4823 6.92333 11.4142 6.90194 11.3675 6.85917C11.3209 6.8125 11.2839 6.75222 11.2567 6.67833C11.2256 6.585 11.177 6.49944 11.1109 6.42167C11.0487 6.34389 10.9456 6.305 10.8017 6.305C10.6384 6.305 10.5023 6.34194 10.3934 6.41583C10.2845 6.48972 10.2009 6.61806 10.1425 6.80083C10.0881 6.97972 10.0609 7.22667 10.0609 7.54167C10.0609 7.92278 10.1153 8.21833 10.2242 8.42833C10.3331 8.63833 10.5295 8.74333 10.8134 8.74333C10.9728 8.74333 11.1012 8.71611 11.1984 8.66167C11.2956 8.60333 11.3753 8.53722 11.4375 8.46333C11.4998 8.38556 11.5542 8.31944 11.6009 8.265Z" fill="white"/>
</svg>
