<svg width="21" height="21" viewBox="0 0 21 21" fill="none" xmlns="http://www.w3.org/2000/svg">
<path d="M7.3418 0H8.4082L9.06445 0.164062L9.76172 0.492188L10.1719 0.820312L10.459 1.06641L10.623 0.984375L11.1152 0.574219L11.8125 0.205078L12.3457 0.0410156L12.5918 0H13.6582L14.3145 0.164062L14.7656 0.369141L15.1758 0.615234L15.709 1.06641L16.0371 1.47656L16.3652 2.05078L16.5703 2.66602L17.2266 2.91211L17.7598 3.19922L18.293 3.65039L18.7441 4.22461L19.0723 4.88086L19.2363 5.49609L19.3184 6.15234L19.6465 6.43945L20.0566 6.84961L20.3438 7.25977L20.5898 7.66992L20.8359 8.28516L21 9.02344V10.2129L20.8359 10.9512L20.5898 11.5664L20.4668 11.7715L20.5488 12.0176L20.7949 12.5508L20.959 13.166L21 13.4121V14.6016L20.8359 15.3398L20.5488 16.0371L20.1797 16.6113L19.8105 17.0215L19.6055 17.2266L19.2363 17.5547L19.0312 17.6367L18.9082 18.0469L18.5801 18.7031L18.2109 19.2363L17.7598 19.7285L17.2676 20.1387L16.7344 20.4668L16.2012 20.7129L15.5449 20.918L15.0527 21H13.8223L13.166 20.877L12.3867 20.5898L11.7305 20.2207L11.3203 19.8926L10.9102 19.5234L10.541 19.0723L10.418 19.1133L10.0898 19.5234L9.80273 19.8105L9.26953 20.2207L8.61328 20.5898L7.83398 20.877L7.17773 21H5.90625L5.16797 20.8359L4.51172 20.5898L3.89648 20.2617L3.32227 19.8105L2.87109 19.3594L2.46094 18.7852L2.13281 18.1699L1.96875 17.7188V17.6367L1.76367 17.5547L1.27148 17.1035L0.943359 16.7754L0.574219 16.2422L0.287109 15.668L0.0820312 15.0527L0 14.6016V13.4121L0.164062 12.6738L0.410156 12.0586L0.533203 11.8535L0.451172 11.6074L0.205078 11.0742L0.0410156 10.459L0 10.2129V9.02344L0.164062 8.28516L0.410156 7.66992L0.738281 7.13672L1.06641 6.72656L1.59961 6.19336L1.68164 6.15234L1.80469 5.29102L2.00977 4.67578L2.25586 4.22461L2.70703 3.65039L3.07617 3.32227L3.52734 3.03516L3.9375 2.83008L4.42969 2.66602L4.63477 2.05078L4.96289 1.47656L5.41406 0.943359L5.98828 0.492188L6.68555 0.164062L7.3418 0ZM7.75195 1.76367L7.21875 1.88672L6.76758 2.17383L6.48047 2.46094L6.19336 3.03516L6.15234 3.24023V4.38867H5.12695L4.59375 4.51172L4.14258 4.79883L3.85547 5.08594L3.56836 5.66016L3.52734 5.86523V6.35742L3.65039 7.0957L3.44531 7.17773L2.87109 7.50586L2.37891 7.95703L2.0918 8.36719L1.8457 8.94141L1.76367 9.39258V9.88477L1.92773 10.541L2.21484 11.0742L2.66602 11.6484L2.78906 11.8535L2.33789 12.3867L2.05078 12.8379L1.8457 13.3301L1.76367 13.7812V14.2324L1.88672 14.8066L2.21484 15.4629L2.58398 15.873L2.91211 16.1602L3.48633 16.4883L3.69141 17.2266L4.01953 17.8828L4.4707 18.416L4.96289 18.7852L5.53711 19.0723L5.98828 19.1953L6.27539 19.2363H6.93164L7.58789 19.0723L8.24414 18.7441L8.6543 18.416L9.02344 18.0059L9.35156 17.4316L9.51562 16.9805L9.59766 16.5703V3.24023L9.47461 2.83008L9.22852 2.41992L8.94141 2.13281L8.53125 1.88672L7.99805 1.76367H7.75195ZM12.9199 1.76367L12.3867 1.92773L12.0176 2.17383L11.6895 2.50195L11.4844 2.91211L11.4023 3.19922V16.5703L11.5664 17.2266L11.8945 17.8828L12.3047 18.375L12.7148 18.7031L13.3301 19.0312L13.9453 19.1953L14.5605 19.2363L15.1348 19.1543L15.627 18.9902L16.1602 18.7031L16.5703 18.375L16.9395 17.9238L17.1855 17.5137L17.4316 16.7754L17.4727 16.4473L17.7188 16.3652L18.293 15.9961L18.7031 15.5859L19.0312 15.0117L19.1953 14.5195L19.2363 14.2324V13.7812L19.1133 13.207L18.7852 12.5508L18.252 11.8945L18.293 11.6895L18.7852 11.0742L19.1133 10.418L19.2363 9.84375V9.39258L19.1133 8.81836L18.7852 8.16211L18.334 7.66992L18.0059 7.42383L17.4316 7.0957H17.3496L17.4727 6.31641V5.82422L17.3086 5.33203L17.0625 5.00391L16.7754 4.7168L16.2832 4.4707L15.9551 4.38867H14.8477V3.19922L14.6836 2.70703L14.4375 2.37891L14.1504 2.0918L13.6582 1.8457L13.3301 1.76367H12.9199Z" fill="#26767D"/>
</svg>
