<svg width="21" height="21" viewBox="0 0 21 21" fill="none" xmlns="http://www.w3.org/2000/svg">
<path d="M10.5078 8.54249e-05C10.5494 0.000173499 10.591 0.000261574 10.6339 0.000352317C11.2309 0.00238221 11.8166 0.0126356 12.403 0.135457C12.4428 0.143576 12.4827 0.151696 12.5237 0.160061C14.1199 0.493949 15.609 1.13252 16.8984 2.13794C16.9345 2.16544 16.9706 2.19294 17.0079 2.22127C17.6449 2.7158 18.2425 3.30013 18.7374 3.93608C18.7691 3.97528 18.8008 4.01447 18.8335 4.05485C20.2447 5.82893 21.003 8.08195 20.998 10.341C20.9978 10.4612 20.9988 10.5813 20.9998 10.7014C21.0016 11.2479 20.9524 11.7749 20.8625 12.3138C20.8509 12.3835 20.8509 12.3835 20.8392 12.4546C20.5521 14.053 19.858 15.5725 18.86 16.85C18.8289 16.8898 18.7979 16.9295 18.766 16.9704C18.2619 17.5989 17.6979 18.1936 17.0618 18.689C17.0236 18.7203 16.9853 18.7515 16.9459 18.7837C15.6401 19.8294 14.0395 20.5041 12.403 20.8141C12.3699 20.8208 12.3368 20.8275 12.3028 20.8344C11.0751 21.0743 9.65934 21.0296 8.43891 20.7733C8.37667 20.7605 8.37667 20.7605 8.31317 20.7474C6.79522 20.4249 5.37043 19.7668 4.14788 18.8117C4.10816 18.7806 4.06843 18.7496 4.02751 18.7176C3.39899 18.2136 2.80427 17.6496 2.30886 17.0135C2.262 16.9561 2.262 16.9561 2.2142 16.8976C1.16854 15.5918 0.493839 13.9912 0.183782 12.3547C0.177092 12.3216 0.170401 12.2885 0.163508 12.2544C-0.0600178 11.1107 -0.0550762 9.73534 0.183782 8.59491C0.191901 8.55508 0.200021 8.51524 0.208386 8.47419C0.629138 6.46277 1.54605 4.68793 2.96273 3.20048C2.98604 3.176 3.00934 3.15153 3.03335 3.12631C3.3603 2.78546 3.69608 2.47303 4.07562 2.19168C4.14949 2.13674 4.22253 2.08082 4.29554 2.02476C4.63912 1.76365 4.99642 1.53716 5.37277 1.32629C5.4489 1.28351 5.52443 1.23981 5.59993 1.19592C7.09568 0.355407 8.80616 -0.00639408 10.5078 8.54249e-05ZM6.43643 2.79181C6.38928 2.81688 6.34213 2.84196 6.29355 2.8678C4.24717 3.99203 2.77449 5.92925 2.12334 8.15751C1.9964 8.61185 1.91449 9.06671 1.85933 9.53485C1.85127 9.59839 1.85127 9.59839 1.84304 9.6632C1.67521 11.2508 2.00009 12.8961 2.71753 14.3163C2.73111 14.3437 2.74469 14.3711 2.75868 14.3994C3.7755 16.4444 5.62467 18.0138 7.78248 18.7452C9.98064 19.4602 12.3477 19.2873 14.4244 18.272C16.4746 17.2233 18.0651 15.3828 18.7961 13.2001C19.4928 11.0361 19.3578 8.67035 18.3287 6.6333C18.3151 6.60588 18.3015 6.57846 18.2876 6.55021C17.2693 4.50229 15.4389 2.96885 13.2923 2.2167C12.7074 2.0203 12.1159 1.88702 11.5039 1.811C11.4634 1.80563 11.4229 1.80026 11.3812 1.79472C9.69191 1.61276 7.92439 1.98158 6.43643 2.79181Z" fill="#A16124"/>
<path d="M11.126 4.53871C11.3009 4.71369 11.4133 4.92057 11.4273 5.17052C11.4272 5.22002 11.4272 5.22002 11.4272 5.27052C11.4272 5.30857 11.4273 5.34662 11.4273 5.38582C11.4271 5.44799 11.4271 5.44799 11.4269 5.51142C11.4269 5.55529 11.4269 5.59916 11.4269 5.64435C11.4269 5.78941 11.4265 5.93447 11.4262 6.07952C11.4262 6.18008 11.4261 6.28063 11.4261 6.38118C11.4259 6.64589 11.4255 6.9106 11.425 7.1753C11.4246 7.4454 11.4244 7.71549 11.4242 7.98558C11.4238 8.51558 11.4231 9.04557 11.4222 9.57556C11.4556 9.5752 11.489 9.57484 11.5234 9.57446C11.8396 9.57117 12.1558 9.56869 12.4721 9.56709C12.6346 9.56624 12.7971 9.56509 12.9597 9.56323C13.1168 9.56144 13.2739 9.56047 13.4311 9.56005C13.4907 9.55975 13.5504 9.55917 13.61 9.55828C13.9795 9.553 14.3583 9.54805 14.6479 9.81056C14.8697 10.049 14.915 10.2769 14.9087 10.5969C14.8833 10.8411 14.7894 10.9886 14.6201 11.1617C14.3444 11.3472 14.1036 11.3919 13.7795 11.3896C13.7246 11.3899 13.7246 11.3899 13.6686 11.3902C13.5486 11.3908 13.4286 11.3904 13.3085 11.39C13.2245 11.3901 13.1406 11.3902 13.0566 11.3903C12.881 11.3905 12.7054 11.3903 12.5298 11.3897C12.3053 11.389 12.0808 11.3894 11.8562 11.3901C11.683 11.3906 11.5097 11.3904 11.3364 11.3901C11.2537 11.39 11.1709 11.3901 11.0881 11.3904C10.9722 11.3907 10.8564 11.3903 10.7405 11.3896C10.7067 11.3898 10.6728 11.3901 10.6379 11.3903C10.3288 11.387 10.0535 11.3127 9.82843 11.0876C9.67385 10.8641 9.61916 10.6781 9.61835 10.4096C9.61812 10.3631 9.61789 10.3166 9.61764 10.2687C9.61758 10.1924 9.61758 10.1924 9.61751 10.1145C9.6173 10.0608 9.6171 10.0071 9.61689 9.95178C9.61636 9.80452 9.61609 9.65726 9.61591 9.50999C9.61579 9.4179 9.61562 9.32581 9.61544 9.23372C9.61488 8.94534 9.61449 8.65697 9.61433 8.36859C9.61415 8.03616 9.61343 7.70375 9.61224 7.37132C9.61136 7.11407 9.61095 6.85682 9.61089 6.59957C9.61085 6.44607 9.61061 6.29257 9.60988 6.13907C9.6092 5.99456 9.60912 5.85006 9.60948 5.70556C9.60952 5.62763 9.60896 5.5497 9.60838 5.47177C9.61011 5.11498 9.64569 4.8134 9.91016 4.54893C10.3121 4.27098 10.7197 4.28021 11.126 4.53871Z" fill="#A16124"/>
</svg>
