<svg width="212" height="173" viewBox="0 0 212 173" fill="none" xmlns="http://www.w3.org/2000/svg">
<path d="M105.251 30.9968C105.444 30.9671 106.024 30.9624 106.242 30.9551C106.747 31.7994 107.441 33.3369 107.887 34.2624L110.83 40.3705L120.427 60.2417C125.754 55.1167 131.353 50.1806 136.684 45.0667C137.412 45.3312 138.137 45.6044 138.859 45.8864L138.858 77.774C145.426 74.8963 152.164 72.2409 158.749 69.3863C158.922 70.9129 159.099 72.1979 159.078 73.7566C159 79.9397 156.671 85.9148 153.229 90.9807C148.271 98.2439 141.126 103.737 132.832 106.664C130.58 107.438 128.804 107.814 126.476 108.259C128.214 108.735 130.241 109.447 131.974 110.009L141.833 113.204C132.312 124.617 115.311 120.32 105.224 112.089C104.628 112.594 103.784 113.177 103.141 113.649C101.891 114.59 100.559 115.381 99.2331 116.199C88.2948 122.94 77.6767 121.482 68.1126 113.096C73.3933 111.701 79.0013 109.982 84.2862 108.473C84.331 107.765 84.3418 106.988 84.3657 106.273C79.9566 106.226 75.5039 105.802 71.3298 104.296C67.9675 103.085 64.905 101.222 62.4641 98.5926C56.7632 92.4497 52.4982 78.6247 48.7427 70.6579L50.9636 69.0538L70.6021 77.3776L70.5825 45.9419L72.7469 44.833C78.4171 49.6487 84.3118 55.0938 89.8969 60.0741C91.2591 57.022 93.097 53.5143 94.5901 50.4564L104.024 31.1175C104.345 31.0648 104.909 31.0297 105.251 30.9968ZM105.557 70.3804L107.165 70.3691C107.52 71.8076 107.807 73.3373 108.079 74.798C109.124 80.4229 110.362 86.0423 111.355 91.6744C115.133 88.6613 117.579 85.7997 118.112 80.7118C119.043 71.8194 113.873 62.1791 109.476 54.7966C108.309 52.8372 106.414 49.7911 105.049 48.0423C98.0544 58.4417 82.512 81.8032 99.0842 90.9855C100.568 84.2836 102.075 76.9001 103.728 70.277C104.326 70.3086 104.964 70.3319 105.557 70.3804ZM144.276 81.9934C143.094 82.1391 141.692 82.3253 140.597 82.8047C132.77 86.2316 130.553 94.5496 123.15 98.962C124.191 99.0536 125.366 99.1723 126.401 99.1691C137.21 99.2464 145.497 93.0134 147.36 82.1688C146.497 82.0031 145.151 81.8182 144.276 81.9934ZM61.5963 81.6769C65.4461 91.8066 73.1679 101.451 85.2895 99.5363C85.7195 99.4677 86.2011 99.3718 86.6193 99.2508L86.7716 99.1244C86.2273 98.573 85.5725 98.173 84.9737 97.6554C83.9204 96.7302 82.9156 95.7516 81.9632 94.724C76.0683 88.3981 71.4782 81.0105 61.5963 81.6769ZM131.378 58.2718C128.373 62.6509 124.575 66.8637 123.318 72.0601C121.854 78.1156 120.945 84.2248 120.041 90.3805C119.991 90.7244 119.542 93.3912 119.572 93.5143C119.912 93.5775 119.879 93.511 120.27 93.3236C133.074 87.1118 133.714 70.4221 131.378 58.2718ZM90.8247 93.8445L91.002 93.7693C90.9353 92.6253 89.915 89.7457 89.5518 88.5393C88.123 83.7945 86.5516 79.0708 85.9999 74.1184C85.7486 71.8639 85.8295 69.5768 85.0566 67.4136C84.4306 65.5962 83.1801 63.7922 81.7273 62.5508C80.8942 61.8391 78.4757 59.904 77.5401 59.4281C75.8428 72.3245 77.6354 87.5468 90.8247 93.8445Z" fill="#4C6589"/>
<path d="M173.188 15.6325C176.582 15.3521 183.205 16.8049 186.183 18.5678C190.451 21.0953 194.869 24.9852 196.761 29.6472C199.558 36.5442 195.029 43.8418 192.695 50.1872C191.943 52.2325 191.081 54.2358 191.662 56.4424C190.827 55.4276 189.47 54.084 188.534 53.1037L188.274 54.4615C189.511 56.4426 190.754 59.003 192.275 60.7324C193.162 61.7429 195.081 62.9209 196.23 63.8191C198.483 65.593 200.543 67.5977 202.378 69.8007C210.551 79.6642 212.135 92.2709 211.261 104.62C211.071 105.865 211.294 107.589 211.053 108.784C209.219 117.926 203.919 126.526 196.768 132.481C195.086 133.882 192.314 134.926 190.354 135.826C188.752 136.562 186.951 137.305 185.266 137.708C183.992 137.779 182.4 137.251 181.196 136.914C176.057 135.479 171.055 133.444 165.836 132.334C165.62 132.288 165.481 132.272 165.324 132.402C166.159 133.616 175.139 138.058 177.238 139.84L177.36 139.946C164.443 142.969 147.133 139.561 137.159 130.543C137.78 125.765 140.788 122.863 145.001 120.911C148.428 119.3 152.132 117.945 155.571 116.349C157.352 115.501 160.624 114.1 161.787 112.54C162.088 112.137 162.8 107.021 162.921 106.291C164.054 99.5582 165.313 92.8469 166.698 86.1613C167.256 83.5234 168.256 78.4262 169.419 76.1705C170.306 74.4508 173.885 70.7067 175.433 69.7098C178.199 67.9276 183.64 65.9498 184.894 62.5781C186.058 58.3537 180.795 55.2899 178.29 52.7149C177.24 51.6367 175.055 48.8661 175.55 47.1345C176.053 45.7911 178.171 46.8719 178.757 46.4008C181.486 44.2053 180.279 39.9089 177.242 38.8944C174.061 39.298 174.142 40.6805 172.122 42.4933C167.689 39.3613 163.135 35.888 158.745 32.6509C158.591 33.3688 158.45 34.0893 158.322 34.8119C157.502 39.5428 156.541 49.6344 159.518 53.6983C161.664 56.6242 165.253 57.5843 168.766 57.3635C170.798 57.2359 172.152 56.7038 174.21 57.0534C175.871 58.2249 175.289 60.375 175.409 62.1409C175.501 63.495 175.55 64.8025 175.85 66.1369C173.909 67.2955 172.524 68.5161 170.872 70.0132C171.1 68.9836 171.191 67.9286 171.144 66.8751C170.961 61.9444 166.006 63.4942 162.962 62.4948C155.404 59.8887 153.582 50.7568 153.387 43.7024C153.388 41.649 153.269 39.5532 153.439 37.5058C154.089 29.6811 153.44 21.18 163.667 20.8926C163.989 14.454 168.632 16.0328 173.034 15.6466L173.188 15.6325Z" fill="#4C6589"/>
<path d="M36.257 15.6326C37.2308 15.485 38.5909 15.6875 39.6092 15.7077C41.7845 15.7509 44.4906 15.3686 46.2939 16.851C47.5129 17.8532 47.6872 19.4305 47.8247 20.8892C53.0879 20.9021 56.2848 23.6304 57.1737 28.7407C57.5421 30.8588 57.7636 32.8469 57.873 35.0483C58.2296 42.2247 58.7097 50.9072 54.793 57.2677C52.9707 59.9455 50.792 62.3046 47.4012 62.7393C45.5149 62.9811 42.0032 62.8749 40.8452 64.7262C40.0359 66.0199 40.3088 68.5727 40.6031 70.0228C38.9026 68.3823 37.6325 67.3974 35.6402 66.1378C36.2689 63.4933 35.6609 60.0177 36.5659 57.7215C37.1554 56.2256 41.668 57.3374 43.1718 57.3899C49.1925 57.6002 53.5321 54.1954 53.7761 47.9993C54.0981 42.7333 53.9534 37.8688 52.7235 32.6635L39.3867 42.4894C37.8826 41.2096 36.6176 38.4756 34.0796 39.0095C30.969 39.6638 30.1902 44.9222 32.9139 46.5755C33.6631 46.4682 34.4481 46.2836 35.1779 46.5697C35.5168 46.7025 35.7871 46.9286 35.9141 47.2766C36.4712 48.8028 34.3372 51.5214 33.3623 52.5499C31.2216 54.8084 28.2368 56.539 26.8503 59.4346C24.2628 64.8382 32.8697 67.5133 36.1005 69.7846C38.2549 71.2992 40.5485 73.7041 41.9282 75.967C44.1091 79.544 47.5559 100.421 48.3861 105.287C48.6592 106.888 49.1263 111.161 49.6326 112.413C50.5252 114.62 62.0867 119.019 64.8634 120.187C69.7664 122.357 73.584 124.785 74.3111 130.577C73.3643 131.447 72.0995 132.396 71.0231 133.115C60.0221 140.458 46.958 142.453 34.095 139.949C35.2284 138.946 36.5206 138.316 37.7778 137.546C40.4519 135.908 44.0315 134.231 46.4314 132.27C44.4643 132.368 41.1232 133.524 39.1775 134.13C35.6973 135.215 32.216 136.426 28.687 137.361C28.1631 137.499 26.7339 137.825 26.1883 137.683C22.854 136.819 18.9046 134.853 15.8463 133.268C14.8577 132.754 12.7513 130.746 11.9931 129.988C6.498 124.522 2.59655 117.661 0.708052 110.145C0.240332 108.21 0.264911 105.372 0.141514 103.305C-0.600793 90.8652 1.42114 78.417 9.93917 68.8119C11.5566 66.9814 13.3382 65.3026 15.2615 63.7966C16.3384 62.9589 18.3209 61.7258 19.1651 60.7656C20.6954 59.0251 21.9745 56.4699 23.2288 54.4336L22.9047 53.092C22.5928 53.4732 20.2162 56.0799 19.9445 56.1659C20.5685 52.6234 16.968 46.3023 15.786 42.845C14.8619 40.395 14.1192 38.0037 13.8648 35.3591C13.1128 27.5382 20.6521 20.7086 27.1245 17.6165C28.8964 16.77 34.2297 15.7888 36.257 15.6326Z" fill="#4C6589"/>
<path d="M94.457 126.51C94.9714 126.58 95.5252 126.758 95.8786 127.159C96.284 127.618 99.2675 138.907 99.5622 140.331C99.6497 140.753 99.8041 141.508 99.6862 141.912C99.5809 142.274 99.293 142.677 98.9477 142.843C97.8655 143.362 96.3406 142.026 95.3243 141.691C94.8783 141.544 94.39 141.499 93.9722 141.748C93.6142 141.961 93.3952 142.301 93.319 142.705C93.1345 143.684 93.3574 144.844 93.3737 145.844C93.4016 147.565 93.2324 151.991 92.8087 153.573C92.6663 154.104 92.3579 154.622 91.8505 154.875C90.2817 155.654 90.0986 153.827 88.9479 153.549C88.5044 153.441 87.9594 153.526 87.5836 153.788C87.2952 153.989 87.1154 154.27 87.0205 154.606C86.7305 155.632 86.791 156.991 86.7222 158.064L86.1556 167.228C86.0673 168.654 86.0777 170.164 85.8102 171.567C85.5375 172.997 84.6689 173.186 83.4475 172.791C77.1339 170.758 78.1948 163.914 76.1587 158.979C75.6178 157.668 74.629 157.012 73.3002 157.77C72.0521 158.48 70.8716 159.284 69.668 160.068L62.0485 165.031C60.6579 165.936 59.2145 166.917 57.7787 167.742C57.0756 168.146 56.7624 168.212 56.018 167.984C55.3332 167.495 55.2694 167.281 54.9544 166.526C55.5125 164.616 59.0102 157.984 58.7755 156.617C58.7198 156.291 58.5432 156 58.2567 155.829C57.203 155.2 55.4855 155.872 54.3783 156.122C48.027 157.556 41.4584 154.476 36.2104 151.149C41.7819 148.629 46.1431 149.364 51.9066 149.135C54.545 149.031 58.4408 148.551 61.008 148.033C63.5154 147.526 67.1126 146.088 69.4794 145.092C75.3119 142.608 80.7319 139.25 85.5531 135.134C88.5446 132.557 90.9903 129.919 93.6088 126.983C93.769 126.803 94.2273 126.607 94.457 126.51Z" fill="#4C6589"/>
<path d="M115.826 126.525C117.265 126.803 118.354 128.599 119.336 129.679C127.359 138.5 137.944 144.965 149.476 148.021C152.007 148.691 155.591 148.771 158.248 149.106C160.576 149.399 163.231 149.051 165.586 149.177C168.911 149.321 171.29 150.006 174.361 151.134C168.282 155.048 161.629 157.791 154.467 155.723C153.628 155.48 152.667 155.311 152.051 156.081C151.296 157.118 152.157 158.311 152.538 159.303C153.439 161.658 154.92 163.996 155.406 166.472C155.507 166.981 155.181 167.404 154.869 167.756C154.563 167.939 153.929 168.241 153.604 168.125C152.483 167.722 150.904 166.587 149.913 165.941L141.509 160.479C140.586 159.876 137.986 158.112 137.132 157.692C133.605 155.961 133.269 164.232 132.597 166.215C132.264 167.531 131.789 168.76 131.03 169.887C129.942 171.502 128.318 172.52 126.441 172.969C125.759 173.15 124.851 172.503 124.739 171.828C124.478 170.261 124.485 168.555 124.376 166.963L123.565 154.502C122.916 153.532 121.512 153.084 121.088 153.847C120.369 155.138 118.139 155.559 117.781 153.877C117.314 151.68 117.239 148.25 117.158 145.873C117.124 144.893 117.387 143.558 117.185 142.559C116.274 139.802 113.309 143.639 111.657 142.789C111.019 142.497 110.606 141.79 110.786 141.078C111.38 138.726 112.027 136.362 112.676 134.022C113.298 131.776 113.786 129.443 114.575 127.263C114.713 126.88 115.5 126.625 115.826 126.525Z" fill="#4C6589"/>
<path d="M102.047 0.0507801C104.8 -0.127069 110.649 0.200731 113.421 0.440696C126.192 1.54637 139.667 4.31435 150.356 11.7437C149.549 13.2317 148.754 14.7253 147.969 16.2242C146.326 15.2294 143.547 13.9636 141.799 13.1624C132.139 8.73551 121.575 5.46132 110.91 4.93355C109.466 4.86217 107.554 4.76639 106.155 4.86098C104.782 4.91557 103.489 4.90991 102.115 4.8673C87.3818 4.41058 72.7963 9.46924 59.9436 16.1889L57.5181 11.7578C69.4703 3.01645 87.5852 0.534742 102.047 0.0507801Z" fill="#4C6589"/>
</svg>
