<svg width="27" height="27" viewBox="0 0 27 27" fill="none" xmlns="http://www.w3.org/2000/svg">
<path d="M12.0234 8.96484H15.1348L16.1895 9.12305L17.2441 9.43945L18.1406 9.86133L18.9316 10.3887L19.5117 10.8633L20.0918 11.4434L20.6191 12.1289L21.3574 13.3418L22.043 14.4492L22.2012 14.7129V14.8184L22.4648 14.9238L23.5195 15.6094L25.0488 16.6113L26.4199 17.5078L26.8418 17.877L27 18.1934V18.9316L26.7363 19.3535L26.4199 19.6172L26.0508 19.7227H25.6816L25.1543 19.5117L24.3633 18.9844L22.9922 18.0879L21.6211 17.1914L20.6719 16.5586L20.3027 16.1367L19.4062 14.6602L18.6152 13.3945L18.1406 12.8145L18.0879 12.7617L18.0352 20.6719L18.5098 20.8301L19.9336 21.5156L21.4102 22.2012L23.3086 23.0977L23.9414 23.4141L24.4688 23.9414L24.7324 24.5215L24.7852 24.7852V25.3125L24.5742 25.998L24.2578 26.4199L23.8359 26.7891L23.2559 27H12.0234L11.707 26.8418L11.4434 26.5781L11.2324 26.1562V25.5762L11.4434 25.1543L11.8125 24.8379L12.0762 24.7324L21.1465 24.6797L19.248 23.7832L17.7715 23.0977L16.2949 22.4121L15.9258 22.0957L15.7148 21.5684V11.3906L15.1875 11.3379H11.9707L11.2852 11.4434V21.5684L11.0742 22.0957L10.7051 22.4121L8.80664 23.3086L7.33008 23.9941L5.85352 24.6797L8.17383 24.7324L8.5957 24.9434L8.91211 25.3125L9.01758 25.5762V26.1562L8.75391 26.6836L8.38477 26.9473L8.22656 27H3.74414L3.16406 26.7891L2.63672 26.3145L2.37305 25.8926L2.21484 25.3125V24.7324L2.42578 24.0996L2.79492 23.625L3.2168 23.3086L4.69336 22.623L6.69727 21.6738L8.49023 20.8301L8.96484 20.6719L8.91211 12.9727L8.54297 13.3945L7.80469 14.7129L7.11914 15.9258L6.5918 16.875L6.16992 17.2441L5.27344 17.8242L3.90234 18.7207L2.53125 19.6172L1.63477 20.1973L1.47656 20.25H0.791016L0.369141 20.0391L0.0527344 19.6172L0 19.459V18.7734L0.158203 18.457L0.421875 18.1934L0.949219 17.8242L2.00391 17.1387L3.375 16.2422L4.74609 15.3457L5.43164 14.0801L6.11719 12.8672L6.5918 12.0762L7.17188 11.3379L7.80469 10.7051L8.5957 10.125L9.43945 9.65039L10.2305 9.33398L11.2324 9.07031L12.0234 8.96484Z" fill="#4C6589"/>
<path d="M12.8672 0H14.1328L14.9766 0.263672L15.5566 0.632812L15.9258 0.949219L16.4004 1.58203L16.6641 2.16211L16.8223 2.79492V3.95508L16.6113 4.74609L16.2949 5.32617L15.8203 5.90625L15.2402 6.32812L14.7129 6.5918L14.1328 6.75H12.8672L12.0234 6.48633L11.3906 6.11719L10.916 5.69531L10.4941 5.11523L10.2305 4.58789L10.0723 4.00781L10.0195 3.16406L10.1777 2.32031L10.3887 1.79297L10.7578 1.26562L11.127 0.84375L11.8125 0.369141L12.4453 0.105469L12.8672 0Z" fill="#4C6589"/>
</svg>
