<svg width="15" height="15" viewBox="0 0 15 15" fill="none" xmlns="http://www.w3.org/2000/svg">
<path d="M6.90016 0H8.08579L8.09927 0.00400531C8.42047 0.0965354 8.82788 0.0655147 9.17704 0.183621C9.55154 0.310297 9.93364 0.388421 10.3069 0.538672C11.8948 1.1903 13.2169 2.35779 14.06 3.85285C14.1361 3.98647 14.1902 4.13101 14.2607 4.26464C14.5563 4.82429 14.7138 5.4397 14.8685 6.04939C14.9366 6.31801 14.9219 6.70897 15 6.95578V8.0575L14.9962 8.07114C14.9197 8.34894 14.9257 8.82216 14.8292 9.13177C14.7126 9.52059 14.6116 9.91403 14.4671 10.2938C14.4133 10.4352 14.3212 10.5773 14.2678 10.7143C14.1564 10.9999 14.0108 11.2086 13.8552 11.464C13.196 12.5496 12.2471 13.4157 11.1551 14.0544C11.0271 14.1293 10.8808 14.1838 10.753 14.2519C10.3526 14.4657 9.93865 14.6064 9.50182 14.7263C9.33628 14.7716 9.16668 14.8356 8.99695 14.8689C8.81439 14.9124 8.25354 14.9448 8.11393 15H6.90579C6.68576 14.916 6.23063 14.9309 5.97642 14.859C5.52408 14.7312 5.04016 14.6124 4.60779 14.4256C4.37951 14.3269 4.15638 14.207 3.92995 14.1037C3.79456 14.042 3.63858 13.9256 3.50945 13.8458C2.29923 13.0946 1.33329 12.008 0.729059 10.7181C0.584219 10.4133 0.474564 10.1982 0.383651 9.86301C0.295339 9.57115 0.211741 9.28232 0.135461 8.98734C0.070105 8.73461 0.0829678 8.33945 0 8.11128V6.87641C0.0703774 6.71537 0.0904998 6.18823 0.146813 5.965C0.334229 5.22209 0.560262 4.5394 0.930458 3.86514C1.76598 2.37015 3.08139 1.20073 4.66393 0.546016C5.0186 0.401234 5.45665 0.294086 5.82712 0.178459C6.02682 0.116128 6.33375 0.087988 6.54483 0.0562111C6.64863 0.0405846 6.78985 0.0333612 6.88775 0.00386529L6.90016 0ZM7.89005 13.7359C11.3303 13.5195 13.9452 10.5577 13.7338 7.1171C13.5222 3.67652 10.5641 1.05732 7.12323 1.26389C3.67534 1.47088 1.04962 4.43631 1.26158 7.88391C1.47354 11.3315 4.44276 13.953 7.89005 13.7359Z" fill="#4C6589"/>
<path d="M4.36987 8.7511C4.72759 8.77418 4.79368 8.93918 5.05927 9.11759C5.18666 9.20315 5.47203 9.39475 5.60201 9.46372C6.10514 9.72506 6.6498 9.89704 7.21177 9.97201C8.11174 10.0836 9.20091 9.62896 9.93359 9.12412C10.0304 9.05322 10.1172 8.96805 10.2118 8.89423C10.6629 8.54188 11.3305 8.87967 11.2423 9.47025C11.1961 9.78019 10.9496 9.92187 10.7183 10.0943C10.5997 10.1761 10.4859 10.2678 10.3635 10.3447C9.57869 10.8417 8.68798 11.1473 7.76332 11.2366C6.54702 11.3464 4.92185 10.6762 4.00942 9.8925C3.85563 9.76038 3.766 9.6318 3.74971 9.42339C3.73742 9.25257 3.79349 9.08388 3.90558 8.95441C4.03526 8.80616 4.18348 8.76399 4.36987 8.7511Z" fill="#4C6589"/>
<path d="M4.93464 5.00138C4.32707 5.04596 3.85421 5.46514 3.76544 6.04411C3.75657 6.10198 3.75153 6.16145 3.75058 6.2223C3.7528 6.34343 3.77794 6.46895 3.81979 6.58816C3.8904 6.78931 4.00857 6.97253 4.14444 7.0865C4.45885 7.35023 4.66944 7.44623 5.05711 7.43439L5.06787 7.43398C5.67543 7.38939 6.14829 6.97021 6.23707 6.39125C6.24594 6.33338 6.25098 6.27391 6.25192 6.21305C6.24971 6.09192 6.22457 5.96641 6.18272 5.84719C6.11211 5.64604 5.99394 5.46283 5.85807 5.34885C5.54366 5.08512 5.33307 4.98913 4.94539 5.00097L4.93464 5.00138Z" fill="#4C6589"/>
<path d="M8.74872 6.23545C8.75031 6.15526 8.76112 6.07192 8.77913 5.99005C8.82535 5.77994 8.91902 5.57951 9.02606 5.46684C9.33353 5.14316 9.51196 5.03236 9.94425 5.00035C10.3377 4.99373 10.535 5.08034 10.8508 5.34053C11.0781 5.52781 11.2574 5.90124 11.2541 6.23541C11.2574 6.56963 11.0782 6.94315 10.8508 7.13046C10.535 7.39065 10.3377 7.47727 9.94425 7.47064C9.51196 7.43863 9.33354 7.32783 9.02606 7.00415C8.91903 6.89148 8.82537 6.69107 8.77914 6.48097C8.76112 6.39906 8.7503 6.31568 8.74872 6.23545Z" fill="#4C6589"/>
</svg>
