<svg width="20" height="20" viewBox="0 0 20 20" fill="none" xmlns="http://www.w3.org/2000/svg">
<path d="M9.99269 5.9277e-05C10.0311 8.04888e-05 10.0696 0.000101701 10.1092 0.000123555C10.7477 0.00173701 11.3625 0.0397477 11.9893 0.170707C12.0289 0.178858 12.0686 0.18701 12.1094 0.195409C13.5618 0.504045 14.9124 1.13476 16.0848 2.04295C16.1199 2.0697 16.1549 2.09645 16.191 2.12401C16.7976 2.59702 17.3685 3.15153 17.84 3.75918C17.8698 3.79563 17.8996 3.83208 17.9302 3.86964C18.985 5.18642 19.6558 6.81623 19.9073 8.4788C19.9142 8.52266 19.9211 8.56653 19.9283 8.61173C19.9927 9.06239 19.9992 9.50871 19.9975 9.96343C19.9974 10.0217 19.9974 10.0217 19.9973 10.0812C19.9955 10.6472 19.9777 11.1984 19.8683 11.7552C19.862 11.7902 19.8557 11.8251 19.8493 11.8611C19.5416 13.562 18.7736 15.1666 17.645 16.4748C17.6203 16.5039 17.5955 16.533 17.57 16.5629C17.1094 17.0897 16.612 17.5839 16.0458 17.996C16.0009 18.0295 15.9561 18.0629 15.9113 18.0963C15.5917 18.3319 15.2596 18.541 14.9147 18.7371C14.89 18.7514 14.8654 18.7656 14.84 18.7802C13.8247 19.3613 12.6773 19.7375 11.5212 19.9073C11.4743 19.9142 11.4274 19.9211 11.3791 19.9282C10.9221 19.9907 10.4681 20.0009 10.0073 19.9999C9.96883 19.9999 9.93033 19.9999 9.89068 19.9998C7.35713 19.9924 4.92268 19.0142 3.0961 17.255C3.07038 17.2303 3.04466 17.2056 3.01816 17.1802C2.64807 16.8236 2.30717 16.4609 2.00395 16.0458C1.97049 16.0009 1.93702 15.956 1.90355 15.9111C1.66803 15.5916 1.45902 15.2595 1.26286 14.9146C1.24864 14.89 1.23442 14.8654 1.21978 14.84C0.63742 13.8225 0.267686 12.6783 0.0927032 11.5212C0.0823707 11.4555 0.0823707 11.4555 0.0718294 11.3885C0.00720173 10.9356 -0.000859714 10.4863 6.60773e-05 10.0293C8.72891e-05 9.98978 0.000108501 9.9503 0.000130356 9.90963C0.0017197 9.26471 0.0377501 8.64376 0.170713 8.01074C0.178865 7.97113 0.187017 7.93153 0.195415 7.89073C0.537798 6.27935 1.279 4.77251 2.355 3.52515C2.37974 3.49609 2.40448 3.46702 2.42996 3.43708C2.89066 2.91032 3.388 2.41607 3.95421 2.00395C3.99906 1.97054 4.04391 1.93712 4.08875 1.90369C4.40827 1.66808 4.74042 1.45904 5.08536 1.26285C5.11 1.24863 5.13465 1.23442 5.16004 1.21977C6.17529 0.638671 7.32275 0.26245 8.4788 0.0926964C8.52571 0.0858081 8.57261 0.0789197 8.62093 0.0718226C9.07793 0.00925889 9.53191 -0.000901553 9.99269 5.9277e-05ZM6.17322 2.62721C6.09871 2.66745 6.02365 2.70648 5.9485 2.7455C5.33669 3.06962 4.78045 3.48931 4.28686 3.97397C4.22574 4.03368 4.16365 4.09223 4.10139 4.15075C3.41216 4.80779 2.86589 5.62489 2.47202 6.48954C2.4589 6.51818 2.44578 6.54683 2.43227 6.57635C1.51232 8.60982 1.45484 10.8853 2.23406 12.9765C2.34754 13.2694 2.47772 13.5507 2.62722 13.8268C2.66746 13.9013 2.70649 13.9764 2.74551 14.0515C3.08818 14.6985 3.53716 15.268 4.04936 15.7887C4.10424 15.8447 4.15818 15.9015 4.21201 15.9585C4.46802 16.225 4.75058 16.4498 5.04635 16.6699C5.08557 16.6991 5.12479 16.7284 5.1652 16.7586C6.42911 17.6656 8.00483 18.2655 9.57095 18.3081C9.59997 18.3091 9.629 18.3101 9.6589 18.3111C11.9536 18.3828 14.0911 17.5446 15.7627 15.9823C17.3291 14.4866 18.2534 12.3805 18.3153 10.2173C18.3537 8.03006 17.5624 5.89077 16.0437 4.30693C16.0246 4.28723 16.0055 4.26754 15.9858 4.24726C15.9295 4.18898 15.8741 4.12994 15.8188 4.07076C15.1747 3.39281 14.3588 2.85845 13.5105 2.47201C13.4818 2.45889 13.4532 2.44578 13.4237 2.43226C11.1315 1.39529 8.40235 1.42007 6.17322 2.62721Z" fill="#4C6589"/>
<path d="M12.0719 4.84435C12.1359 4.89805 12.1993 4.9525 12.262 5.00769C12.3066 5.04668 12.3066 5.04668 12.3521 5.08646C12.9662 5.66011 13.3222 6.49535 13.3604 7.32788C13.3894 8.3245 13.0342 9.1983 12.3522 9.92477C12.1497 10.1225 11.9111 10.2723 11.677 10.4294C11.2794 10.7035 10.9953 11.0328 10.8969 11.5215C10.8924 11.6054 10.8899 11.6893 10.8886 11.7732C10.8875 11.8224 10.8864 11.8715 10.8853 11.9221C10.8833 12.025 10.8815 12.1279 10.8801 12.2308C10.8722 12.5525 10.8653 12.8167 10.6506 13.072C10.4087 13.2745 10.2443 13.368 9.92767 13.3633C9.69936 13.3401 9.49855 13.2436 9.33665 13.0817C8.98894 12.579 9.08739 11.7544 9.18551 11.1778C9.38782 10.3005 9.85579 9.53875 10.6159 9.03024C10.6886 8.98514 10.7614 8.94014 10.8342 8.89525C11.1988 8.66186 11.4563 8.33963 11.5805 7.92027C11.6687 7.42165 11.5939 6.98453 11.3186 6.55814C11.0578 6.20858 10.7017 5.98854 10.2728 5.9048C9.76384 5.87147 9.36012 5.94884 8.9466 6.25585C8.5773 6.58994 8.41494 7.03421 8.36884 7.52108C8.33204 7.80561 8.28075 8.00714 8.05085 8.18858C7.82449 8.33823 7.62073 8.38991 7.34739 8.36213C7.12692 8.30691 6.92805 8.21594 6.79522 8.02388C6.54159 7.59994 6.63509 7.10348 6.74262 6.64373C6.87981 6.11539 7.14492 5.64925 7.50341 5.24172C7.52941 5.212 7.5554 5.18229 7.58218 5.15167C8.73376 3.91891 10.7584 3.82431 12.0719 4.84435Z" fill="#4C6589"/>
<path d="M10.5756 14.3194C10.767 14.5108 10.8504 14.7156 10.8682 14.9825C10.8643 15.2421 10.7694 15.4713 10.5854 15.6553C10.3465 15.8205 10.134 15.8798 9.84428 15.8504C9.62381 15.7951 9.42494 15.7042 9.29211 15.5121C9.14692 15.2694 9.09308 15.0323 9.16291 14.7535C9.26458 14.4612 9.41462 14.31 9.68826 14.1731C9.99672 14.0537 10.3102 14.1505 10.5756 14.3194Z" fill="#4C6589"/>
</svg>
