<svg width="27" height="27" viewBox="0 0 27 27" fill="none" xmlns="http://www.w3.org/2000/svg">
<path d="M5.61215 0.00726111C5.68336 0.00704076 5.75458 0.00675208 5.82579 0.00640215C6.01902 0.00564948 6.21223 0.00586219 6.40545 0.00625303C6.61481 0.00650399 6.82416 0.00584196 7.03352 0.00530472C7.44271 0.00440349 7.8519 0.00435514 8.2611 0.00463169C8.59399 0.00484514 8.92689 0.0047676 9.25978 0.00448705C9.30731 0.00444765 9.35484 0.00440826 9.40382 0.00436768C9.50041 0.00428706 9.59699 0.0042061 9.69358 0.00412478C10.5977 0.00340362 11.5018 0.00368772 12.4059 0.00429242C13.2312 0.004815 14.0566 0.0041342 14.8819 0.0028748C15.7314 0.00158845 16.5808 0.00108597 17.4303 0.00143543C17.9064 0.00161867 18.3825 0.00150548 18.8586 0.000580088C19.2639 -0.000198003 19.6693 -0.000224037 20.0746 0.000689086C20.281 0.00113449 20.4873 0.00125634 20.6937 0.000444261C22.3041 -0.00543111 23.699 0.214088 24.974 1.29086C25.0167 1.32655 25.0595 1.36223 25.1035 1.399C26.1363 2.29198 26.7772 3.52346 26.974 4.8699C26.9787 4.97177 26.9809 5.07376 26.9811 5.17573C26.9818 5.5569 26.9824 5.76932 26.9832 6.35219C26.9835 6.56187 26.984 6.77156 26.9844 6.98124C26.9855 7.48758 26.986 7.99392 26.9865 8.50027C26.9867 8.73903 26.987 8.97779 26.9872 9.21655C26.9881 10.0108 26.9889 10.8051 26.9893 11.5994C26.9894 11.8055 26.9895 12.0115 26.9896 12.2175C26.9901 13.2011 26.9914 14.0295 26.9931 14.858C26.9949 15.7096 26.9958 16.5612 26.996 17.4128C26.9961 17.8905 26.9966 18.3682 26.9979 18.8459C26.9991 19.2529 26.9995 19.66 26.999 20.067C26.9988 20.4817 26.9999 20.6891 27.0088 22.5944C26.6007 24.0929 25.2592 25.4852 24.3736 26.3376C23.0711 26.9806 21.826 26.9828 21.826 26.9828C21.578 26.9835 21.4448 26.9835 21.2324 26.9841C21.0381 26.9846 20.8438 26.9848 20.6495 26.985C20.4398 26.9852 20.2302 26.9857 20.0205 26.9861C19.5141 26.9872 19.0078 26.9877 18.5015 26.9882C18.2627 26.9884 18.0239 26.9887 17.7852 26.989C16.9909 26.9899 16.1966 26.9906 15.4023 26.991C15.1963 26.9911 14.9902 26.9912 14.7842 26.9913C14.6291 26.9914 13.8006 26.9918 12.9722 26.9931C12.1437 26.9949 11.2922 26.9966 10.4406 26.9975C9.58897 26.9977 9.11126 26.9978 8.63356 26.9983C8.15586 26.9996 7.7488 27.0008 7.34174 27.0012C6.93468 27.0007 6.72733 27.0005 6.52 27.0005C6.31265 27.0016 4.40731 27.0105 2.90886 26.6025C1.51654 25.2609 0.664132 24.3753 0.018888 21.8277C0.018536 21.7374 0.0181772 21.6453 0.0181869 21.5797C0.0182065 21.4465 0.0180327 21.3757 0.0176202 21.2341C0.0170945 21.0398 0.0168972 20.8455 0.0167573 20.6512C0.0165514 20.4416 0.0160475 20.2319 0.0155884 20.0222C0.0145493 19.5158 0.0140184 19.0095 0.01355 18.5032C0.0133191 18.2644 0.0130365 18.0256 0.012761 17.7869C0.0118656 16.9926 0.0111028 16.1983 0.0107215 15.404C0.010621 15.198 0.01052 14.992 0.0104171 14.7859C0.00990362 13.8023 0.00857082 12.9739 0.00686009 12.1455C0.00511597 11.2939 0.00417127 10.4423 0.00400341 9.59068C0.00388976 9.11298 0.00343389 8.63528 0.00208436 8.15757C0.00093703 7.75051 0.000520407 7.34346 0.00102987 6.93639C0.0012677 6.72904 0.00117734 6.52171 0.000147647 6.31437C-0.00840599 4.48886 0.352518 2.95407 1.651 1.5935C2.74181 0.555046 4.11263 -0.000124354 5.61215 0.00726111ZM3.10437 3.44326C2.30272 4.47546 2.25714 5.50345 2.26165 6.76469C2.26213 6.96389 2.26139 7.16308 2.26081 7.36228C2.25988 7.75142 2.26008 8.14054 2.26069 8.52968C2.26117 8.84621 2.26123 9.16275 2.261 9.47928C2.26083 9.70819 2.26077 9.80008 2.2607 9.89197C2.2601 10.7516 2.26078 11.6113 2.26192 12.471C2.26286 13.207 2.26269 13.9431 2.26172 14.6792C2.2606 15.536 2.26016 16.3928 2.2608 17.2496C2.26103 17.6142 2.2611 17.6606 2.26128 17.9764C2.25988 18.9933 2.26005 19.3787 2.26117 19.7641C2.26172 19.9603 2.26194 20.1565 2.26124 20.3528C2.25702 21.6439 2.33526 22.7885 3.2892 23.7652C4.34609 24.6788 5.42313 24.7449 6.76297 24.7401C6.96217 24.7396 7.16137 24.7403 7.36057 24.7409C7.7497 24.7418 8.13883 24.7416 8.52797 24.741C8.8445 24.7406 9.16103 24.7405 9.47757 24.7407C9.61459 24.7408 9.70648 24.7409 9.79837 24.741C9.89026 24.741 10.7499 24.7416 11.6096 24.7409C12.4693 24.7398 13.2053 24.7389 13.9414 24.739C14.6775 24.74 15.5343 24.7411 16.391 24.7416C17.2478 24.7409 17.5224 24.7407 17.6589 24.7406C17.9747 24.7404 18.2905 24.7407 18.6063 24.7412C18.9916 24.7418 19.377 24.7417 19.7623 24.7406C19.9586 24.74 20.1548 24.7398 20.3511 24.7405C21.6454 24.7447 22.7859 24.6695 23.7634 23.7125C24.4753 22.8922 24.7187 22.0646 24.7186 20.9998C24.7197 20.6139 24.72 20.2455 24.7202 20.0467C24.7207 19.8478 24.7212 19.6489 24.7222 19.1689C24.7228 18.6889 24.7232 18.2089 24.7235 17.9825C24.724 17.5297 24.7249 16.7767 24.7257 16.0236C24.7261 15.2705 24.7262 15.0753 24.7263 14.88C24.7264 14.6848 24.7264 14.5377 24.7269 13.7523C24.7282 12.9668 24.7299 12.1814 24.7317 11.3739C24.7326 10.5664 24.7328 9.75898 24.7329 9.30605C24.7334 8.85312 24.7347 8.40019 24.7358 8.01434C24.7363 7.62849 24.7358 7.24263 24.7355 7.04606C24.7356 6.84951 24.7366 6.65294 24.743 5.3572C24.669 4.21697 23.7108 3.23828 22.6565 2.32338C21.5751 2.25857 20.237 2.26336 20.237 2.26336C19.6394 2.26253 19.2503 2.26159 18.8612 2.26179C18.472 2.2624 18.1555 2.26288 17.839 2.26294C17.5224 2.26271 17.3854 2.26261 17.2935 2.26255C17.1097 2.26241 16.2501 2.26181 15.3904 2.2625C14.5308 2.26363 13.7947 2.26457 13.0586 2.26441C12.3225 2.26344 11.4657 2.26231 10.609 2.26187C9.75216 2.26251 9.5691 2.26265 9.47757 2.26271C9.34113 2.26281 9.02533 2.26299 8.70954 2.26269C8.39375 2.26219 8.00838 2.2616 7.62303 2.26177C7.23767 2.26288 7.04141 2.26343 6.84518 2.26366C6.64893 2.26296 5.2973 2.25853 4.05391 2.349C3.10437 3.44326 3.10437 3.44326 3.10437 3.44326Z" fill="#4C6589"/>
<path d="M6.64153 10.1194C6.87361 10.1185 6.95685 10.1187 7.13235 10.1178C7.3271 10.117 7.52185 10.117 7.7166 10.117C7.85596 10.1166 7.99531 10.1161 8.13467 10.1156C8.51376 10.1144 8.89285 10.114 9.27194 10.1138C9.50869 10.1136 9.74543 10.1132 9.98218 10.1129C10.6378 10.1118 11.2934 10.111 11.949 10.1108C12.1611 10.1108 12.4592 10.1107 12.5873 10.1107C13.2721 10.1105 13.9569 10.1091 14.6418 10.1071C15.345 10.1051 16.0483 10.1041 16.7515 10.1041C17.1463 10.104 17.5411 10.1036 17.9359 10.1021C18.2721 10.1008 18.6083 10.1004 18.9445 10.1012C19.1159 10.1015 19.2874 10.1014 19.4588 10.1003C19.831 10.0998 20.0171 10.1007 20.1805 10.0986C20.5704 10.1032 20.8234 10.2034 21.107 10.4722C21.3364 10.7257 21.4226 10.9919 21.4115 11.3326C21.3591 11.7082 21.2109 11.9942 20.9152 12.2302C20.6109 12.4175 20.3373 12.4114 19.9888 12.4104C19.6214 12.4118 19.4282 12.4117 19.2351 12.4116C18.9584 12.4123 18.6214 12.4135 18.4832 12.4135C18.1462 12.4135 17.8092 12.4139 17.5353 12.4139C17.2613 12.4139 16.9874 12.4142 16.9874 12.4145C16.2105 12.4154 15.4336 12.4159 14.6567 12.4158C14.5298 12.4158 14.446 12.4158 14.4028 12.4158C13.7234 12.4158 13.044 12.4168 12.3646 12.4183C11.6669 12.4198 10.9691 12.4205 10.2713 12.4204C9.87962 12.4204 9.48795 12.4207 9.09628 12.4218C8.76279 12.4227 8.4293 12.423 8.0958 12.4223C7.58558 12.4228 7.40099 12.4236 7.21645 12.4232C7.03187 12.4223 6.86981 12.424 6.45823 12.42C6.17533 12.3314 5.8784 12.041 5.66805 11.7285C5.5418 11.4115 5.60537 11.0279 5.7179 10.6347C5.92914 10.3869 6.28004 10.1827 6.64153 10.1194Z" fill="#4C6589"/>
<path d="M10.2518 14.5929C10.531 14.5915 10.6776 14.5916 10.8242 14.5917C10.9293 14.5914 11.0345 14.591 11.1396 14.5906C11.4252 14.5897 11.7107 14.5895 11.9963 14.5894C12.2348 14.5893 12.4732 14.5889 12.7116 14.5885C13.2743 14.5877 13.8369 14.5874 14.3995 14.5875C14.9797 14.5876 15.5599 14.5865 16.1401 14.5848C16.6384 14.5834 17.1367 14.5829 17.6349 14.5829C17.9325 14.5829 18.23 14.5826 18.5275 14.5815C18.8075 14.5805 19.0873 14.5805 19.3672 14.5813C19.5725 14.5811 19.6751 14.5805 19.9557 14.5802C20.2183 14.5793 20.5864 14.584 20.8586 14.7051C21.1216 14.9623 21.3319 15.2748 21.4582 15.5919C21.3946 15.9755 21.2808 16.3732 21.0697 16.5967C20.7317 16.8206 20.5473 16.8929 20.171 16.8847C19.889 16.8863 19.7408 16.8863 19.5926 16.8864C19.4864 16.8868 19.3803 16.8872 19.2741 16.8877C18.9855 16.8888 18.6969 16.8893 18.4083 16.8896C18.2279 16.8898 18.0476 16.8901 17.8673 16.8905C17.2382 16.8918 16.6091 16.8924 15.98 16.8926C15.3937 16.8928 14.8073 16.8944 14.221 16.8966C13.7176 16.8984 13.2142 16.8992 12.7107 16.8993C12.4101 16.8993 12.1094 16.8998 11.8088 16.9013C11.5259 16.9027 11.243 16.9028 10.9602 16.9019C10.6490 16.903 10.5072 16.9041 10.3654 16.9035C10.2236 16.9026 9.75549 16.8994 9.51032 16.7659C9.26105 16.5311 9.03251 16.2768 8.94589 16.0117C8.95699 15.6708 9.00942 15.2951 9.15762 15.0091C9.45331 14.7731 9.7147 14.6123 10.2518 14.5929Z" fill="#4C6589"/>
<path d="M13.5833 19.0734C13.6432 19.0731 13.7031 19.0728 13.7648 19.0725C13.8959 19.0724 14.0325 19.072 14.173 19.0715C14.3626 19.0708 14.5523 19.0705 14.742 19.0702C14.8606 19.0701 14.9792 19.0699 15.0978 19.0696C15.4692 19.0689 15.8406 19.0684 16.212 19.0682C16.6401 19.068 17.0683 19.067 17.4964 19.0655C17.8277 19.0644 18.159 19.0639 18.4903 19.0638C18.688 19.0637 18.8857 19.0634 19.0834 19.0625C19.4556 19.0615 19.6417 19.062 19.9428 19.0605C20.3562 19.0625 20.6851 19.0847 21.013 19.3604C21.286 19.6865 21.413 19.9088 21.4059 20.336C21.3718 20.6769 21.2362 20.9135 20.9735 21.1335C20.6876 21.3435 20.503 21.403 20.1529 21.404C19.9059 21.405 19.7728 21.4051 19.5632 21.4059C19.3736 21.4066 19.1839 21.4069 18.9942 21.4072C18.8756 21.4073 18.757 21.4075 18.6384 21.4078C18.267 21.4085 17.8956 21.409 17.5242 21.4092C17.0961 21.4094 16.668 21.4104 16.2398 21.4119C15.9085 21.413 15.5772 21.4136 15.2459 21.4136C15.0482 21.4137 14.8505 21.414 14.6528 21.4149C14.4667 21.4158 14.2806 21.4159 14.0945 21.4155C13.7934 21.4169 13.3801 21.4149 13.0511 21.3927C12.7233 21.117 12.4502 20.7909 12.3232 20.5686C12.3304 20.1415 12.3644 19.8005 12.5 19.5639C12.7627 19.3439 13.0486 19.1339 13.5833 19.0734Z" fill="#4C6589"/>
<path d="M17.0231 5.59834C17.253 5.59678 17.4927 5.59613 17.7437 5.59522C17.919 5.59467 18.0944 5.59436 18.2698 5.59418C18.4937 5.59389 18.7176 5.59262 18.9416 5.59112C19.1144 5.59014 19.2873 5.58987 19.4601 5.58979C19.7076 5.58852 20.6503 5.58115 21.0133 5.88643C21.2864 6.21259 21.4134 6.43484 21.4062 6.86199C21.3722 7.20296 21.2366 7.43958 20.9739 7.65951C20.6608 7.8895 20.4669 7.92905 20.0824 7.93115C19.9724 7.93195 19.7327 7.93307 19.6128 7.93336C19.5292 7.93367 19.4455 7.93397 19.3619 7.93427C19.1865 7.93483 19.0111 7.93513 18.8357 7.93532C18.6118 7.93561 18.3879 7.93687 18.1639 7.93837C17.9911 7.93935 17.8182 7.93962 17.6454 7.9397C17.3979 7.94098 16.4552 7.94834 16.0922 7.64306C15.8191 7.31691 15.6921 7.09466 15.6993 6.6675C15.7333 6.32653 15.8689 6.08992 16.1316 5.86999C16.4447 5.63999 16.6386 5.60045 17.0231 5.59834Z" fill="#4C6589"/>
</svg>