<svg width="25" height="15" viewBox="0 0 25 15" fill="none" xmlns="http://www.w3.org/2000/svg">
<g transform="scale(-1,1) translate(-25,0)">
<path d="M0.292893 6.65691C-0.0976311 7.04743 -0.0976311 7.6806 0.292893 8.07112L6.65685 14.4351C7.04738 14.8256 7.68054 14.8256 8.07107 14.4351C8.46159 14.0446 8.46159 13.4114 8.07107 13.0209L2.41421 7.36401L8.07107 1.70716C8.46159 1.31664 8.46159 0.68347 8.07107 0.292946C7.68054 -0.0975785 7.04738 -0.0975785 6.65685 0.292946L0.292893 6.65691ZM24 8.36401C24.5523 8.36401 25 7.9163 25 7.36401C25 6.81173 24.5523 6.36401 24 6.36401V8.36401ZM1 8.36401H24V6.36401H1V8.36401Z" fill="#4C6589"/>
</g>
</svg>
