<svg width="27" height="27" viewBox="0 0 27 27" fill="none" xmlns="http://www.w3.org/2000/svg">
<path d="M17.1121 1.30614C17.4851 1.62589 17.8262 1.98192 18.1734 2.329C18.2614 2.4166 18.3495 2.50418 18.4375 2.59174C18.6752 2.82832 18.9126 3.06523 19.1499 3.30225C19.2984 3.45058 19.447 3.59885 19.5956 3.74709C20.0082 4.15865 20.4207 4.5703 20.8329 4.9823C20.8592 5.00857 20.8854 5.03484 20.9125 5.0619C20.9658 5.11514 21.019 5.16837 21.0723 5.22161C21.0987 5.24803 21.1251 5.27445 21.1524 5.30168C21.1788 5.32813 21.2053 5.35458 21.2326 5.38184C21.6615 5.81062 22.0911 6.23879 22.521 6.66668C22.9637 7.10744 23.406 7.5487 23.8478 7.99045C24.0953 8.2379 24.343 8.48513 24.5912 8.73184C24.8246 8.96389 25.0574 9.19658 25.2897 9.42975C25.3748 9.51486 25.46 9.59975 25.5455 9.68439C26.2997 10.4316 26.9687 11.2128 26.9757 12.3318C26.9757 12.4014 26.9757 12.4014 26.9758 12.4723C26.976 12.522 26.9762 12.5717 26.9765 12.6229C26.9772 12.7894 26.9775 12.956 26.9778 13.1226C26.9783 13.2421 26.9787 13.3615 26.9791 13.4809C26.9805 13.8734 26.9813 14.2658 26.9821 14.6582C26.9824 14.7935 26.9826 14.9288 26.9829 15.0641C26.9841 15.6271 26.9851 16.1902 26.9856 16.7532C26.9858 16.8992 26.9859 17.0452 26.9861 17.1912C26.9861 17.2275 26.9862 17.2638 26.9862 17.3012C26.9869 17.8879 26.9886 18.4746 26.9908 19.0613C26.9931 19.6647 26.9943 20.2682 26.9946 20.8717C26.9948 21.2101 26.9954 21.5484 26.9971 21.8868C26.9987 22.2056 26.999 22.5243 26.9984 22.8431C26.9984 22.9595 26.9988 23.076 26.9998 23.1924C27.0084 24.3339 26.7957 25.2029 25.9914 26.0602C25.2286 26.795 24.3961 26.9892 23.3719 26.987C23.2835 26.9872 23.1952 26.9875 23.1068 26.9877C22.8645 26.9884 22.6221 26.9884 22.3798 26.9883C22.1182 26.9882 21.8567 26.9888 21.5951 26.9893C21.0829 26.9902 20.5706 26.9905 20.0583 26.9905C19.6418 26.9906 19.2252 26.9908 18.8087 26.9911C17.6273 26.9921 16.4458 26.9925 15.2644 26.9925C15.1689 26.9925 15.1689 26.9925 15.0714 26.9925C15.0077 26.9925 14.9439 26.9924 14.8782 26.9924C13.8453 26.9924 12.8125 26.9934 11.7796 26.9949C10.7185 26.9964 9.65744 26.9971 8.59638 26.997C8.00088 26.997 7.40538 26.9973 6.80988 26.9984C6.30278 26.9994 5.79569 26.9996 5.28859 26.9989C5.03004 26.9986 4.7715 26.9985 4.51295 26.9995C4.27587 27.0003 4.03881 27.0001 3.80173 26.9992C3.71634 26.9991 3.63096 26.9992 3.54558 26.9998C2.55157 27.0062 1.73758 26.7444 0.997655 26.054C0.291855 25.356 0.0107889 24.4976 7.43378e-05 23.5223C-0.000265466 23.3577 0.00065497 23.1932 0.00160903 23.0286C0.0013382 22.9089 0.000955615 22.7892 0.000469248 22.6696C-0.000498705 22.3469 0.000171018 22.0242 0.0012093 21.7015C0.00207607 21.3626 0.00160819 21.0236 0.00134094 20.6847C0.00110369 20.1158 0.00192811 19.5469 0.00340699 18.978C0.00492427 18.3943 0.00529601 17.8106 0.00448577 17.2269C0.00350711 16.521 0.00360342 15.815 0.00460296 15.109C0.00496304 14.8404 0.00491083 14.5717 0.00452109 14.303C0.00411609 13.9864 0.00476268 13.6697 0.00619705 13.353C0.00655719 13.2373 0.00656655 13.1216 0.00618581 13.0058C0.00176714 11.4869 0.531837 10.6406 1.58192 9.58382C1.69992 9.46536 1.81805 9.34703 1.93618 9.2287C2.0217 9.14285 2.10721 9.05699 2.19271 8.97112C2.47186 8.69087 2.75129 8.41089 3.03073 8.13092C3.12733 8.03411 3.22392 7.9373 3.32052 7.84048C3.72241 7.43771 4.12435 7.035 4.52649 6.63247C4.63042 6.52845 4.73435 6.42442 4.83827 6.32039C4.8641 6.29454 4.88992 6.26869 4.91653 6.24205C5.33497 5.82318 5.75295 5.40386 6.17076 4.98435C6.60116 4.55221 7.03197 4.12047 7.46315 3.6891C7.70466 3.44747 7.94599 3.20568 8.18689 2.96344C8.41354 2.73557 8.64069 2.5082 8.86823 2.2812C8.95125 2.1982 9.0341 2.11502 9.11675 2.03165C9.67786 1.4659 10.2395 0.957864 10.9631 0.605576C10.9977 0.588547 11.0323 0.571518 11.068 0.553974C11.4611 0.367818 11.8697 0.247582 12.2914 0.145297C12.3686 0.12587 12.3686 0.12587 12.4473 0.10605C14.0762 -0.232812 15.8427 0.259844 17.1121 1.30614ZM12.3966 2.51244C12.3652 2.52546 12.3337 2.53848 12.3014 2.5519C12.1929 2.59806 12.0859 2.64677 11.979 2.69656C11.9464 2.71113 11.9138 2.72571 11.8802 2.74073C11.1898 3.08327 10.6226 3.80435 10.0828 4.34269C10.0001 4.42494 9.91742 4.50718 9.83474 4.58941C9.56574 4.85704 9.29702 5.12494 9.02833 5.39288C8.93538 5.48554 8.84244 5.57821 8.74949 5.67087C8.36308 6.05614 7.97675 6.44149 7.59061 6.82703C7.49097 6.92652 7.39134 7.026 7.2917 7.12548C7.26694 7.1502 7.24218 7.17492 7.21667 7.20038C6.81454 7.60185 6.41186 8.00277 6.00897 8.40348C5.59402 8.81619 5.17959 9.22941 4.76561 9.64309C4.53367 9.87484 4.30152 10.1064 4.06882 10.3374C3.85028 10.5543 3.63238 10.7719 3.41494 10.9899C3.33519 11.0697 3.25521 11.1492 3.17498 11.2285C3.06528 11.3371 2.95643 11.4463 2.84774 11.5559C2.81604 11.5868 2.78433 11.6178 2.75167 11.6497C2.43822 11.9691 2.27475 12.3075 2.26861 12.7579C2.26908 12.8004 2.26955 12.8428 2.27003 12.8866C2.2697 12.933 2.26937 12.9795 2.26904 13.0273C2.2682 13.1816 2.26886 13.3359 2.26952 13.4903C2.26924 13.6014 2.26886 13.7126 2.2684 13.8238C2.26745 14.1248 2.26782 14.4259 2.26849 14.7269C2.26902 15.0425 2.26852 15.358 2.26819 15.6735C2.26781 16.2034 2.26831 16.7333 2.26932 17.2632C2.27046 17.8751 2.27009 18.487 2.26893 19.0989C2.26798 19.625 2.26784 20.151 2.26839 20.6771C2.26872 20.991 2.26877 21.3049 2.26807 21.6188C2.26746 21.914 2.26789 22.2092 2.2691 22.5044C2.26938 22.6125 2.2693 22.7206 2.26884 22.8287C2.23863 23.665 2.23863 23.665 2.59767 24.3907C2.90796 24.6888 3.24365 24.7266 3.6566 24.723C3.70231 24.723 3.74802 24.723 3.79511 24.723C3.9454 24.7229 4.09567 24.7221 4.24595 24.7213C4.35046 24.7211 4.45497 24.7209 4.55949 24.7208C4.83397 24.7204 5.10845 24.7194 5.38293 24.7182C5.66326 24.7172 5.94358 24.7167 6.22391 24.7162C6.77351 24.715 7.3231 24.7132 7.8727 24.711C7.87316 24.6189 7.87316 24.6189 7.87363 24.525C7.87666 23.9431 7.88049 23.3612 7.8851 22.7793C7.88744 22.4803 7.88951 22.1812 7.89092 21.8822C7.8923 21.5929 7.89443 21.3037 7.89706 21.0145C7.89793 20.9047 7.89854 20.795 7.89887 20.6853C7.90383 19.1923 8.23387 17.8102 9.24038 16.6627C9.27205 16.6235 9.30372 16.5843 9.33634 16.544C10.0526 15.682 11.0734 15.1731 12.1336 14.8742C12.1797 14.8608 12.2258 14.8474 12.2733 14.8335C13.6495 14.4992 15.1938 14.8029 16.4059 15.4972C17.7241 16.3436 18.6071 17.5528 18.972 19.0825C18.9809 19.1171 18.9897 19.1518 18.9988 19.1875C19.1172 19.7246 19.0959 20.2752 19.099 20.8223C19.1 20.9347 19.101 21.0471 19.1021 21.1595C19.1048 21.4536 19.1068 21.7477 19.1088 22.0418C19.1109 22.3426 19.1136 22.6434 19.1162 22.9442C19.1213 23.5331 19.1258 24.1221 19.1298 24.711C19.732 24.7159 20.3343 24.7196 20.9365 24.7219C21.2162 24.723 21.4959 24.7245 21.7755 24.7269C22.0457 24.7292 22.3158 24.7304 22.5859 24.731C22.6888 24.7314 22.7916 24.7321 22.8944 24.7333C23.0389 24.7348 23.1834 24.735 23.328 24.7349C23.3911 24.736 23.3911 24.736 23.4555 24.7372C23.8396 24.7344 24.1567 24.6233 24.4362 24.3559C24.6664 24.0037 24.7292 23.699 24.7261 23.2877C24.7264 23.2416 24.7267 23.1954 24.727 23.1478C24.7278 22.9941 24.7274 22.8403 24.727 22.6865C24.7273 22.5759 24.7277 22.4653 24.7281 22.3546C24.729 22.0548 24.729 21.7549 24.7287 21.4551C24.7285 21.2045 24.7288 20.9539 24.7292 20.7033C24.7299 20.1119 24.7298 19.5206 24.7292 18.9293C24.7286 18.3198 24.7294 17.7104 24.7308 17.101C24.7319 16.5771 24.7323 16.0533 24.732 15.5295C24.7318 15.2169 24.7319 14.9043 24.7328 14.5917C24.7336 14.2977 24.7334 14.0037 24.7324 13.7096C24.7322 13.602 24.7324 13.4943 24.733 13.3866C24.7337 13.2391 24.733 13.0917 24.7321 12.9442C24.7326 12.9021 24.7331 12.8599 24.7336 12.8164C24.7268 12.2807 24.5148 11.8997 24.1384 11.5321C24.1026 11.4959 24.0667 11.4596 24.0298 11.4222C23.9104 11.3018 23.7899 11.1826 23.6694 11.0633C23.5832 10.9768 23.497 10.8903 23.4109 10.8037C23.1775 10.5693 22.9431 10.3359 22.7085 10.1027C22.4877 9.8829 22.2675 9.66244 22.0472 9.44201C21.6107 9.00509 21.1733 8.56896 20.7355 8.13325C20.3116 7.71137 19.8884 7.28886 19.4658 6.86568C19.0048 6.404 18.5434 5.94264 18.0814 5.48187C17.8372 5.23829 17.5931 4.9946 17.3494 4.75057C17.12 4.52103 16.8902 4.29202 16.6599 4.06341C16.5757 3.97969 16.4917 3.89578 16.4079 3.81169C15.9031 3.30541 15.4298 2.84471 14.7539 2.57491C14.7054 2.55504 14.6569 2.53517 14.6069 2.5147C13.9226 2.27834 13.0746 2.22858 12.3966 2.51244ZM11.1341 17.9778C11.0967 18.014 11.0594 18.0502 11.0209 18.0875C10.1436 18.9934 10.1259 20.1743 10.1295 21.3565C10.1296 21.4426 10.1296 21.5287 10.1297 21.6149C10.1299 21.9313 10.1307 22.2477 10.1314 22.5641C10.1324 23.2726 10.1335 23.9811 10.1346 24.711C12.3566 24.711 14.5786 24.711 16.8679 24.711C16.87 24.008 16.8722 23.3049 16.8744 22.5806C16.8754 22.3603 16.8764 22.14 16.8773 21.9131C16.8777 21.712 16.8777 21.712 16.8779 21.5109C16.8781 21.4228 16.8784 21.3347 16.879 21.2466C16.8863 19.994 16.7635 18.888 15.8552 17.9384C15.1506 17.2663 14.3129 16.9545 13.3393 16.9638C12.4763 17.0248 11.7426 17.3621 11.1341 17.9778Z" fill="#4C6589"/>
</svg>
