<svg width="38" height="38" viewBox="0 0 38 38" fill="none" xmlns="http://www.w3.org/2000/svg">
<circle cx="19" cy="19" r="18.5" stroke="#627A9C"/>
<path d="M16.512 21.592C16.7827 21.592 16.974 21.6573 17.086 21.788C17.198 21.9093 17.254 22.1333 17.254 22.46V23.146C17.4127 23.2113 17.5667 23.2533 17.716 23.272C17.8747 23.2813 18.024 23.286 18.164 23.286C18.4813 23.286 18.794 23.1787 19.102 22.964C19.4193 22.74 19.6853 22.3667 19.9 21.844C20.1147 21.3213 20.222 20.6073 20.222 19.702V19.114C19.998 19.5713 19.69 19.8933 19.298 20.08C18.906 20.2573 18.5187 20.346 18.136 20.346C17.576 20.346 17.1047 20.2153 16.722 19.954C16.3393 19.6833 16.05 19.3193 15.854 18.862C15.658 18.4047 15.56 17.882 15.56 17.294C15.56 16.6127 15.6907 16.034 15.952 15.558C16.2227 15.0727 16.5867 14.704 17.044 14.452C17.5107 14.2 18.038 14.074 18.626 14.074C19.2887 14.074 19.8207 14.1907 20.222 14.424C20.6327 14.6573 20.9453 14.9747 21.16 15.376C21.3747 15.7773 21.5193 16.2393 21.594 16.762C21.678 17.2753 21.72 17.8167 21.72 18.386C21.72 19.506 21.622 20.4347 21.426 21.172C21.23 21.9 20.964 22.4693 20.628 22.88C20.292 23.2907 19.914 23.58 19.494 23.748C19.074 23.916 18.6353 24 18.178 24C17.8233 24 17.5107 23.972 17.24 23.916C16.9787 23.8507 16.7267 23.776 16.484 23.692C16.3533 23.6453 16.2227 23.5753 16.092 23.482C15.9707 23.3793 15.91 23.2113 15.91 22.978V22.264C15.91 21.816 16.1107 21.592 16.512 21.592ZM18.542 19.45C18.962 19.45 19.326 19.2587 19.634 18.876C19.9513 18.4933 20.11 17.9427 20.11 17.224C20.11 16.9813 20.0913 16.72 20.054 16.44C20.0167 16.16 19.9467 15.894 19.844 15.642C19.7507 15.39 19.606 15.1847 19.41 15.026C19.2233 14.8673 18.976 14.788 18.668 14.788C18.2107 14.788 17.8327 14.984 17.534 15.376C17.2353 15.7587 17.086 16.4027 17.086 17.308C17.086 18.0733 17.2167 18.624 17.478 18.96C17.7487 19.2867 18.1033 19.45 18.542 19.45Z" fill="#627A9C"/>
</svg>
