<svg width="40" height="40" viewBox="0 0 40 40" fill="none" xmlns="http://www.w3.org/2000/svg">
<circle cx="20" cy="20" r="20" fill="#627A9C"/>
<path d="M12.6837 12.0096C12.7493 12.0095 12.8148 12.0093 12.8803 12.0091C13.0601 12.0086 13.2399 12.0086 13.4196 12.0087C13.6136 12.0087 13.8076 12.0083 14.0017 12.0079C14.3816 12.0073 14.7616 12.0071 15.1416 12.007C15.4505 12.007 15.7595 12.0068 16.0684 12.0066C16.9446 12.0059 17.8208 12.0055 18.697 12.0056C18.7678 12.0056 18.7678 12.0056 18.8401 12.0056C18.911 12.0056 18.911 12.0056 18.9834 12.0056C19.7495 12.0056 20.5156 12.0049 21.2818 12.0038C22.0687 12.0027 22.8557 12.0021 23.6427 12.0022C24.0844 12.0022 24.5261 12.002 24.9678 12.0012C25.3438 12.0005 25.7199 12.0003 26.096 12.0008C26.2878 12.0011 26.4796 12.0011 26.6714 12.0004C26.8472 11.9998 27.023 11.9999 27.1988 12.0006C27.2622 12.0007 27.3255 12.0006 27.3889 12.0001C28.1142 11.9955 28.7455 12.2066 29.2807 12.7092C29.7222 13.1467 29.9937 13.7506 30 14.3708C29.9953 15.1669 29.8044 15.7876 29.2378 16.3607C29.0128 16.5791 28.7811 16.7842 28.5367 16.9806C28.3001 17.1718 28.0806 17.3798 27.8593 17.5883C27.7375 17.703 27.6133 17.8143 27.4865 17.9235C27.3959 18.0021 27.3069 18.0824 27.2179 18.1628C27.0768 18.2901 26.9345 18.4159 26.7913 18.5407C26.6987 18.622 26.6072 18.7044 26.5158 18.7869C26.3747 18.9142 26.2325 19.0399 26.0892 19.1647C25.9967 19.246 25.9052 19.3284 25.8137 19.4109C25.6725 19.5383 25.5302 19.6642 25.3867 19.789C25.2965 19.8684 25.2078 19.9492 25.119 20.0301C24.9889 20.1477 24.8564 20.2597 24.7192 20.3689C24.5202 20.5303 24.3314 20.7013 24.1439 20.8759C24.1159 20.9017 24.0879 20.9275 24.0591 20.954C23.8341 21.1655 23.6214 21.3919 23.5003 21.6803C23.4884 21.7078 23.4765 21.7353 23.4642 21.7637C23.3938 21.9648 23.3898 22.1606 23.3901 22.3718C23.39 22.4048 23.3899 22.4377 23.3898 22.4717C23.3895 22.5821 23.3894 22.6925 23.3894 22.8029C23.3892 22.8821 23.389 22.9613 23.3888 23.0405C23.3883 23.2111 23.388 23.3817 23.3877 23.5522C23.3873 23.8222 23.3865 24.0922 23.3857 24.3622C23.3833 25.1299 23.3811 25.8976 23.3799 26.6653C23.3791 27.0893 23.378 27.5133 23.3764 27.9373C23.3756 28.1616 23.375 28.3858 23.3749 28.61C23.3748 28.8211 23.3742 29.0323 23.3732 29.2434C23.3729 29.3206 23.3728 29.3978 23.3729 29.4751C23.374 30.2111 23.2781 30.8407 22.7459 31.3942C22.2456 31.8745 21.7351 32.0105 21.0586 31.9994C20.316 31.9715 19.76 31.4525 19.199 31.0196C18.9984 30.8651 18.7951 30.7148 18.5908 30.5654C18.3414 30.3826 18.0943 30.1984 17.857 29.9999C17.8277 29.9763 17.7984 29.9527 17.7682 29.9283C17.1346 29.3977 16.7543 28.6114 16.656 27.7971C16.6382 27.5821 16.6419 27.3661 16.6417 27.1504C16.6415 27.0953 16.6413 27.0402 16.6411 26.985C16.6407 26.8668 16.6404 26.7486 16.6401 26.6304C16.6397 26.4432 16.6389 26.2559 16.638 26.0687C16.6356 25.5365 16.6335 25.0042 16.6322 24.472C16.6315 24.1777 16.6304 23.8833 16.6288 23.589C16.628 23.4335 16.6274 23.278 16.6273 23.1226C16.6272 22.9763 16.6266 22.83 16.6256 22.6837C16.6251 22.6049 16.6253 22.5262 16.6255 22.4475C16.6203 21.874 16.457 21.4492 16.0482 21.0417C15.9018 20.8993 15.7511 20.7621 15.5959 20.6294C15.5031 20.5497 15.4125 20.4679 15.3218 20.386C15.1141 20.1988 14.9049 20.0138 14.6918 19.8329C14.4351 19.6147 14.1829 19.3931 13.9364 19.1635C13.8016 19.0381 13.6651 18.9154 13.5259 18.795C13.4345 18.7153 13.3446 18.6341 13.2546 18.5529C13.1383 18.448 13.0216 18.3437 12.9035 18.2408C12.7516 18.1085 12.6021 17.9736 12.4526 17.8386C12.3694 17.764 12.2857 17.6902 12.2015 17.6168C12.0834 17.514 11.9667 17.4097 11.8504 17.3048C11.6413 17.1163 11.4312 16.9293 11.215 16.749C10.844 16.4386 10.5105 16.1372 10.2757 15.7082C10.2631 15.6854 10.2505 15.6626 10.2376 15.6391C10.0533 15.2818 9.99613 14.9197 10.0002 14.521C10.0005 14.48 10.0008 14.4389 10.0012 14.3965C10.0079 14.0849 10.0423 13.8272 10.1733 13.5411C10.201 13.4785 10.201 13.4785 10.2293 13.4147C10.5446 12.7707 11.0636 12.3475 11.7334 12.0981C12.0443 11.9947 12.3599 12.0089 12.6837 12.0096ZM11.8894 13.9701C11.7378 14.1807 11.6842 14.3728 11.6944 14.6332C11.7605 14.9634 11.9855 15.168 12.2316 15.3777C12.3248 15.4577 12.4155 15.5401 12.5062 15.6228C12.6379 15.7419 12.7722 15.8557 12.9108 15.9666C13.1474 16.1578 13.367 16.3657 13.5882 16.5743C13.71 16.689 13.8343 16.8003 13.9611 16.9095C14.0517 16.9881 14.1406 17.0684 14.2297 17.1488C14.3459 17.2537 14.4626 17.358 14.5807 17.4608C14.7326 17.5931 14.8821 17.7281 15.0317 17.863C15.1148 17.9376 15.1985 18.0115 15.2828 18.0848C15.4008 18.1877 15.5175 18.2919 15.6338 18.3969C15.8414 18.584 16.0507 18.769 16.2638 18.9499C16.5215 19.169 16.775 19.3911 17.0218 19.6223C17.125 19.7188 17.2292 19.8111 17.3402 19.8984C17.9288 20.4012 18.2628 21.2491 18.325 22.0045C18.3307 22.1867 18.3306 22.3688 18.3306 22.551C18.3307 22.606 18.3308 22.6609 18.331 22.7159C18.3313 22.8337 18.3315 22.9515 18.3316 23.0694C18.3319 23.2561 18.3325 23.4429 18.3332 23.6297C18.3335 23.6938 18.3337 23.758 18.334 23.8221C18.3341 23.8542 18.3342 23.8863 18.3343 23.9194C18.336 24.3538 18.3373 24.7881 18.3378 25.2225C18.3381 25.5161 18.339 25.8097 18.3405 26.1033C18.3412 26.2584 18.3417 26.4134 18.3415 26.5684C18.3413 26.7144 18.3419 26.8604 18.343 27.0064C18.3434 27.0847 18.343 27.163 18.3426 27.2413C18.348 27.777 18.4739 28.1905 18.8478 28.5753C19.1452 28.8647 19.4842 29.1056 19.8187 29.3497C19.9943 29.4781 20.1685 29.608 20.3409 29.7406C20.3775 29.7688 20.4142 29.797 20.4519 29.826C20.5228 29.8807 20.5935 29.9355 20.6641 29.9905C20.9563 30.2279 20.9563 30.2279 21.3113 30.3144C21.475 30.2638 21.5572 30.185 21.6403 30.0389C21.659 29.9216 21.6664 29.8268 21.6645 29.71C21.6647 29.6774 21.665 29.6448 21.6652 29.6113C21.6658 29.5024 21.665 29.3936 21.6642 29.2847C21.6643 29.2065 21.6646 29.1284 21.6649 29.0502C21.6654 28.8819 21.6652 28.7136 21.6646 28.5453C21.6637 28.2787 21.6641 28.0122 21.6648 27.7456C21.6657 27.2753 21.6655 26.8051 21.665 26.3348C21.6643 25.6283 21.6645 24.9218 21.6658 24.2152C21.6662 23.9508 21.6661 23.6863 21.6654 23.4218C21.6651 23.2564 21.6652 23.0911 21.6655 22.9257C21.6656 22.8496 21.6654 22.7735 21.665 22.6974C21.66 21.669 21.88 20.7074 22.6084 19.9425C22.7104 19.8429 22.8148 19.7477 22.9237 19.6557C23.0177 19.576 23.1091 19.4937 23.2005 19.4109C23.3416 19.2836 23.4838 19.1579 23.6271 19.0331C23.7196 18.9518 23.8111 18.8694 23.9026 18.7869C24.0436 18.6596 24.1859 18.5338 24.3292 18.409C24.4217 18.3277 24.5132 18.2454 24.6046 18.1628C24.7457 18.0355 24.8879 17.9098 25.0312 17.785C25.1237 17.7037 25.2152 17.6213 25.3067 17.5388C25.5143 17.3516 25.7236 17.1667 25.9367 16.9858C26.1934 16.7676 26.4455 16.5459 26.6921 16.3164C26.8268 16.1909 26.9633 16.0682 27.1025 15.9478C27.1939 15.8681 27.2839 15.787 27.3739 15.7057C27.4936 15.5978 27.6135 15.4903 27.7347 15.384C27.7596 15.362 27.7845 15.3401 27.8102 15.3175C27.8548 15.2795 27.9003 15.2424 27.9467 15.2066C28.1641 15.0392 28.269 14.8637 28.3075 14.5966C28.3231 14.353 28.2537 14.1826 28.1247 13.9799C27.8986 13.7538 27.664 13.6923 27.352 13.692C27.3262 13.6919 27.3005 13.6918 27.2739 13.6918C27.1872 13.6915 27.1005 13.6916 27.0138 13.6917C26.9511 13.6916 26.8884 13.6914 26.8258 13.6913C26.6533 13.691 26.4808 13.6909 26.3084 13.6909C26.1224 13.6908 25.9365 13.6905 25.7506 13.6903C25.344 13.6897 24.9374 13.6895 24.5307 13.6893C24.2769 13.6892 24.023 13.689 23.7692 13.6889C23.0666 13.6884 22.3639 13.688 21.6613 13.6879C21.6163 13.6879 21.5713 13.6878 21.525 13.6878C21.4574 13.6878 21.4574 13.6878 21.3884 13.6878C21.297 13.6878 21.2056 13.6878 21.1143 13.6878C21.0463 13.6877 21.0463 13.6877 20.9769 13.6877C20.2424 13.6876 19.5079 13.6869 18.7734 13.686C18.0196 13.6851 17.2657 13.6846 16.5119 13.6845C16.0885 13.6845 15.6652 13.6843 15.2418 13.6836C14.8813 13.683 14.5209 13.6828 14.1604 13.6831C13.9764 13.6832 13.7925 13.6832 13.6086 13.6827C13.4402 13.6822 13.2717 13.6822 13.1033 13.6827C13.0424 13.6828 12.9815 13.6826 12.9206 13.6823C12.3572 13.6789 12.3572 13.6789 11.8894 13.9701Z" fill="white"/>
</svg>
