<svg width="38" height="38" viewBox="0 0 38 38" fill="none" xmlns="http://www.w3.org/2000/svg">
<circle cx="19" cy="19" r="18.5" stroke="#627A9C"/>
<path d="M20.138 18.68C20.7447 18.8107 21.188 19.1047 21.468 19.562C21.7573 20.0193 21.902 20.5233 21.902 21.074C21.902 22.0073 21.6127 22.7307 21.034 23.244C20.4553 23.748 19.6807 24 18.71 24C17.7487 24 16.974 23.748 16.386 23.244C15.8073 22.7307 15.518 22.0073 15.518 21.074C15.518 20.5233 15.6627 20.0287 15.952 19.59C16.2413 19.1513 16.6847 18.848 17.282 18.68V18.568C16.8433 18.456 16.4653 18.218 16.148 17.854C15.84 17.49 15.686 17.056 15.686 16.552C15.686 16.1693 15.7747 15.7867 15.952 15.404C16.1387 15.0213 16.4513 14.704 16.89 14.452C17.338 14.2 17.9447 14.074 18.71 14.074C19.4847 14.074 20.0913 14.2 20.53 14.452C20.9687 14.704 21.2767 15.0213 21.454 15.404C21.6407 15.7773 21.734 16.1553 21.734 16.538C21.734 17.042 21.5753 17.4807 21.258 17.854C20.95 18.2273 20.5767 18.4653 20.138 18.568V18.68ZM18.71 18.302C19.1113 18.302 19.466 18.1667 19.774 17.896C20.082 17.616 20.236 17.154 20.236 16.51C20.236 16.062 20.152 15.712 19.984 15.46C19.8253 15.208 19.6293 15.0353 19.396 14.942C19.1627 14.8393 18.934 14.788 18.71 14.788C18.4953 14.788 18.2667 14.8393 18.024 14.942C17.7907 15.0353 17.59 15.208 17.422 15.46C17.2633 15.712 17.184 16.062 17.184 16.51C17.184 17.154 17.338 17.616 17.646 17.896C17.954 18.1667 18.3087 18.302 18.71 18.302ZM17.072 21.102C17.072 21.858 17.2353 22.4133 17.562 22.768C17.898 23.1133 18.2807 23.286 18.71 23.286C19.1487 23.286 19.5313 23.1133 19.858 22.768C20.1847 22.4227 20.348 21.8673 20.348 21.102C20.348 20.5607 20.264 20.136 20.096 19.828C19.9373 19.52 19.732 19.3007 19.48 19.17C19.228 19.0393 18.9713 18.974 18.71 18.974C18.4487 18.974 18.192 19.0393 17.94 19.17C17.688 19.3007 17.478 19.52 17.31 19.828C17.1513 20.136 17.072 20.5607 17.072 21.102Z" fill="#627A9C"/>
</svg>
