<svg width="29" height="26" viewBox="0 0 29 26" fill="none" xmlns="http://www.w3.org/2000/svg">
<path fill-rule="evenodd" clip-rule="evenodd" d="M12.1385 1.16403C13.0347 -0.388015 15.2755 -0.388002 16.1717 1.16403L27.9949 21.6425C28.8623 23.1459 27.8381 25.0142 26.1444 25.1298L25.9783 25.1347H2.33185C0.539731 25.1346 -0.580683 23.1946 0.315248 21.6425L12.1385 1.16403ZM15.0623 1.80465C14.659 1.1062 13.6511 1.1062 13.2479 1.80465L1.42462 22.2832C1.02168 22.9815 1.52554 23.8543 2.33185 23.8545H25.9783C26.7842 23.854 27.288 22.9813 26.8856 22.2832L15.0623 1.80465ZM14.2967 18.9541C14.9533 18.9542 15.486 19.4869 15.4861 20.1435C15.4861 20.8003 14.9534 21.3328 14.2967 21.333C13.6399 21.333 13.1072 20.8003 13.1072 20.1435C13.1074 19.4868 13.64 18.9541 14.2967 18.9541ZM14.2059 7.99996C15.0828 7.99996 15.7858 8.72613 15.7567 9.6025L15.5252 16.5283C15.5029 17.1984 14.9534 17.7304 14.283 17.7304C13.6233 17.7304 13.0786 17.2152 13.0418 16.5566L12.657 9.63668C12.6079 8.74774 13.3155 8.00001 14.2059 7.99996Z" fill="#FBC088"/>
</svg>
