<svg width="20" height="20" viewBox="0 0 20 20" fill="none" xmlns="http://www.w3.org/2000/svg">
<path d="M12.3567 7.55483C12.9694 8.13003 13.322 8.95858 13.3722 9.79212C13.3848 10.7336 13.0988 11.5564 12.47 12.2665C12.4485 12.2913 12.427 12.316 12.4048 12.3416C11.8406 12.9492 10.9922 13.2799 10.176 13.3225C9.29309 13.3465 8.42515 13.0686 7.76967 12.4658C7.07379 11.8013 6.68741 10.9732 6.66386 10.0039C6.67835 9.11923 6.98282 8.34149 7.57038 7.67802C7.59189 7.65325 7.61339 7.62849 7.63555 7.60298C8.90278 6.23827 11.0363 6.39519 12.3567 7.55483ZM8.76369 8.89562C8.44626 9.29577 8.34424 9.74183 8.38698 10.2445C8.47534 10.681 8.71333 11.0825 9.08692 11.3333C9.51197 11.5798 9.92769 11.6793 10.4177 11.5801C10.8456 11.4515 11.2099 11.2008 11.4357 10.8115C11.6631 10.3759 11.7368 9.93647 11.5926 9.45703C11.4142 8.98582 11.1095 8.6675 10.6575 8.4571C9.98772 8.16706 9.25226 8.36851 8.76369 8.89562Z" fill="#627A9C"/>
<path d="M17.0476 0.676846C17.763 1.23354 18.2166 2.0232 18.3308 2.92203C18.4073 3.82036 18.2097 4.70335 17.6313 5.41421C17.5463 5.51009 17.4588 5.60263 17.3696 5.69461C17.3486 5.71842 17.3277 5.74223 17.3061 5.76676C16.8273 6.29252 16.0305 6.62566 15.3313 6.67313C14.3911 6.71546 13.5276 6.50495 12.8102 5.86959C12.7485 5.8115 12.6869 5.75319 12.6255 5.69461C12.6016 5.67361 12.5777 5.6526 12.5531 5.63096C11.9643 5.09358 11.7006 4.26206 11.6425 3.48815C11.6188 2.5559 11.9329 1.73678 12.5405 1.03563C13.7419 -0.225071 15.6618 -0.322691 17.0476 0.676846ZM13.7168 2.28969C13.4086 2.72386 13.2932 3.16976 13.3824 3.70278C13.507 4.16915 13.8007 4.55488 14.2162 4.79781C14.6194 5.00242 15.0295 5.03482 15.4642 4.9169C15.8795 4.77646 16.2453 4.49686 16.4562 4.1088C16.6532 3.68888 16.7057 3.25341 16.5676 2.80249C16.4902 2.59722 16.3877 2.43561 16.2419 2.27268C16.1974 2.22215 16.1974 2.22215 16.152 2.1706C15.8043 1.86335 15.3796 1.65075 14.9038 1.67466C14.4458 1.74167 14.0131 1.9248 13.7168 2.28969Z" fill="#627A9C"/>
<path d="M7.09285 0.676846C7.80832 1.23354 8.26194 2.0232 8.37608 2.92203C8.45262 3.82036 8.25503 4.70335 7.67659 5.41421C7.59157 5.51009 7.50408 5.60263 7.41487 5.69461C7.39392 5.71842 7.37297 5.74223 7.35138 5.76676C6.87254 6.29252 6.07575 6.62566 5.37662 6.67313C4.43641 6.71546 3.57287 6.50495 2.85554 5.86959C2.79374 5.8115 2.73216 5.75319 2.67083 5.69461C2.64692 5.67361 2.62301 5.6526 2.59837 5.63096C2.00955 5.09358 1.74592 4.26206 1.68775 3.48815C1.6641 2.5559 1.97823 1.73678 2.58577 1.03563C3.78722 -0.225071 5.70704 -0.322691 7.09285 0.676846ZM3.76206 2.28969C3.45393 2.72386 3.33852 3.16976 3.42773 3.70278C3.55224 4.16915 3.84596 4.55488 4.26149 4.79781C4.66471 5.00242 5.07475 5.03482 5.50948 4.9169C5.92474 4.77646 6.29059 4.49686 6.50152 4.1088C6.6985 3.68888 6.75094 3.25341 6.61286 2.80249C6.5355 2.59722 6.43296 2.43561 6.28719 2.27268C6.24268 2.22215 6.24268 2.22215 6.19727 2.1706C5.84959 1.86335 5.42489 1.65075 4.94913 1.67466C4.4911 1.74167 4.05837 1.9248 3.76206 2.28969Z" fill="#627A9C"/>
<path d="M13.4392 15.4227C14.3171 16.2151 14.9242 17.4015 15.0042 18.5873C15.0097 18.7016 15.0124 18.8157 15.0145 18.9302C15.0172 18.9879 15.0172 18.9879 15.0199 19.0468C15.0243 19.3349 14.9568 19.5162 14.7642 19.7322C14.5085 19.954 14.2324 19.9485 13.9087 19.9266C13.6742 19.847 13.5163 19.6933 13.3999 19.4764C13.3124 19.2966 13.2977 19.13 13.2866 18.9326C13.2243 18.168 12.9794 17.5115 12.47 16.9324C12.4448 16.8999 12.4196 16.8674 12.3937 16.834C11.9375 16.2816 11.1158 15.9141 10.409 15.8436C9.40913 15.7885 8.52655 16.0433 7.76026 16.7076C7.13477 17.2933 6.82418 18.0866 6.75622 18.9277C6.72992 19.2452 6.6956 19.5293 6.45136 19.758C6.19262 19.9538 5.93873 19.9522 5.6261 19.9266C5.39001 19.8668 5.26281 19.7287 5.1256 19.5339C4.87287 19.1081 5.04196 18.3507 5.14945 17.8948C5.46908 16.6487 6.23298 15.5304 7.33783 14.8505C9.32768 13.6769 11.7035 13.8999 13.4392 15.4227Z" fill="#627A9C"/>
<path d="M16.7995 7.77833C17.469 8.05399 18.0185 8.42324 18.5362 8.92222C18.5641 8.94768 18.592 8.97315 18.6208 8.99938C18.8653 9.22876 19.0508 9.5001 19.2361 9.7777C19.2606 9.81404 19.2851 9.85038 19.3104 9.88783C19.765 10.6117 19.9816 11.4668 19.9968 12.315C19.9979 12.352 19.9989 12.3891 20 12.4272C19.9984 12.7109 19.9194 12.8974 19.7244 13.1033C19.537 13.2727 19.3404 13.3365 19.0888 13.3283C18.8112 13.2896 18.5999 13.1801 18.4256 12.9616C18.2964 12.7518 18.2873 12.5552 18.2713 12.315C18.2054 11.5271 17.9428 10.8378 17.4085 10.2443C17.3855 10.2178 17.3626 10.1912 17.3389 10.1638C16.7558 9.53113 15.8931 9.2334 15.0543 9.18892C14.765 9.16971 14.5533 9.09785 14.3438 8.89305C14.1884 8.66215 14.0951 8.42792 14.1421 8.14451C14.2252 7.85425 14.3811 7.67068 14.6405 7.52026C15.2398 7.26048 16.2197 7.55078 16.7995 7.77833Z" fill="#627A9C"/>
<path d="M4.89702 7.4612C4.95257 7.45962 4.95257 7.45962 5.00925 7.45801C5.29293 7.45962 5.47947 7.53864 5.68538 7.73361C5.85477 7.92099 5.91852 8.11755 5.91032 8.36924C5.87158 8.64677 5.7621 8.85806 5.54364 9.03242C5.33235 9.16244 5.13173 9.17216 4.88973 9.18918C4.01232 9.26428 3.21667 9.61882 2.60064 10.2591C2.08209 10.8755 1.81336 11.6039 1.77095 12.4037C1.75174 12.693 1.67988 12.9047 1.47508 13.1142C1.24418 13.2696 1.00995 13.3629 0.726537 13.3159C0.436284 13.2328 0.252709 13.0769 0.102288 12.8175C-0.157489 12.2182 0.132807 11.2383 0.360361 10.6585C0.636024 9.98903 1.00527 9.43949 1.50425 8.92184C1.52971 8.89392 1.55518 8.866 1.58141 8.83723C1.81079 8.59266 2.08213 8.4072 2.35973 8.2219C2.39607 8.19739 2.43241 8.17287 2.46986 8.14762C3.19372 7.693 4.04883 7.47639 4.89702 7.4612Z" fill="#627A9C"/>
</svg>
