<svg width="52" height="52" viewBox="0 0 52 52" fill="none" xmlns="http://www.w3.org/2000/svg">
<path d="M25.9839 0.000154138C26.0839 0.000209294 26.1839 0.000264452 26.2869 0.000321281C27.9472 0.00451673 29.5458 0.103356 31.1756 0.443888C31.2787 0.465084 31.3819 0.486281 31.4881 0.50812C35.2646 1.31067 38.7766 2.95071 41.8252 5.31228C41.9164 5.38183 42.0075 5.45139 42.1014 5.52305C43.6788 6.75301 45.1632 8.19491 46.3893 9.77497C46.4667 9.86976 46.5441 9.96455 46.6239 10.0622C49.3666 13.4862 51.1109 17.7242 51.7649 22.0474C51.7828 22.1614 51.8008 22.2755 51.8194 22.393C51.9869 23.5649 52.0039 24.7255 51.9994 25.9079C51.9991 26.0594 51.9991 26.0594 51.9988 26.214C51.9943 27.6859 51.9479 29.119 51.6634 30.5671C51.6471 30.6579 51.6308 30.7487 51.614 30.8423C50.8138 35.2651 48.8168 39.4375 45.8822 42.8395C45.8179 42.915 45.7536 42.9906 45.6873 43.0685C44.4894 44.4382 43.1961 45.7234 41.7238 46.795C41.6072 46.8819 41.4906 46.9688 41.374 47.0557C40.5431 47.6684 39.6794 48.2119 38.7825 48.7221C38.7184 48.7591 38.6543 48.796 38.5883 48.8341C35.9483 50.3451 32.9646 51.3234 29.9585 51.7648C29.8366 51.7828 29.7146 51.8007 29.589 51.8191C28.4006 51.9818 27.2201 52.0083 26.022 52.0057C25.9219 52.0056 25.8218 52.0055 25.7187 52.0055C19.1307 51.9862 12.8004 49.4425 8.05077 44.868C7.98389 44.8038 7.91702 44.7397 7.84811 44.6737C6.88577 43.7462 5.99933 42.8032 5.21087 41.7238C5.12384 41.607 5.03681 41.4903 4.94978 41.3736C4.33736 40.5428 3.79387 39.6793 3.2838 38.7825C3.24683 38.7184 3.20987 38.6543 3.17178 38.5883C1.65748 35.9426 0.696063 32.9672 0.241056 29.9585C0.214188 29.7877 0.214188 29.7877 0.186778 29.6135C0.0187266 28.4357 -0.00223551 27.2675 0.000171821 26.079C0.000226977 25.9764 0.000282135 25.8737 0.000338963 25.768C0.00447172 24.091 0.0981615 22.4763 0.443905 20.8303C0.465102 20.7273 0.486299 20.6243 0.508138 20.5182C1.39843 16.3282 3.32578 12.4099 6.12369 9.16642C6.18802 9.09085 6.25235 9.01528 6.31862 8.93742C7.51656 7.56768 8.80979 6.28249 10.2821 5.21085C10.3987 5.12398 10.5154 5.03709 10.6319 4.95016C11.4628 4.33749 12.3265 3.79394 13.2234 3.28378C13.2875 3.24681 13.3516 3.20985 13.4176 3.17176C16.0576 1.66073 19.0413 0.682448 22.0474 0.241038C22.1693 0.223126 22.2913 0.205214 22.417 0.18676C23.6053 0.0240758 24.7858 -0.0023443 25.9839 0.000154138ZM16.0522 6.83152C15.8585 6.93617 15.6633 7.03765 15.4679 7.13911C13.877 7.98191 12.4306 9.07324 11.1471 10.3335C10.9882 10.4888 10.8267 10.641 10.6648 10.7932C8.87263 12.5017 7.45216 14.6264 6.42797 16.8747C6.39386 16.9492 6.35975 17.0237 6.32461 17.1004C3.93248 22.3881 3.78301 28.305 5.80922 33.7428C6.10428 34.5043 6.44279 35.2358 6.83154 35.9537C6.93619 36.1474 7.03767 36.3426 7.13913 36.538C8.03017 38.2203 9.19766 39.7012 10.5295 41.0553C10.6722 41.2008 10.8125 41.3486 10.9525 41.4968C11.6182 42.1897 12.3529 42.7743 13.122 43.3466C13.224 43.4227 13.326 43.4988 13.431 43.5772C16.7176 45.9356 20.8149 47.4956 24.8873 47.6064C24.9628 47.609 25.0382 47.6117 25.116 47.6143C31.0829 47.8006 36.6411 45.6213 40.9876 41.5587C45.0607 37.6695 47.4643 32.193 47.6251 26.5679C47.7251 20.8805 45.6675 15.3177 41.7183 11.1993C41.6686 11.1481 41.619 11.0969 41.5678 11.0441C41.4214 10.8926 41.2774 10.7391 41.1335 10.5852C39.4586 8.82231 37.3371 7.43282 35.1312 6.42795C35.0567 6.39384 34.9822 6.35974 34.9055 6.32459C28.9452 3.62817 21.8486 3.69261 16.0522 6.83152Z" fill="#4C6589"/>
<path d="M31.3906 12.5959C31.5571 12.7355 31.7219 12.8771 31.8851 13.0206C32.001 13.122 32.001 13.122 32.1192 13.2255C33.716 14.7171 34.6417 16.889 34.7412 19.0538C34.8166 21.6453 33.8929 23.9175 32.1196 25.8065C31.593 26.3207 30.9725 26.7103 30.3637 27.1187C29.3299 27.8314 28.5911 28.6877 28.3352 29.9586C28.3237 30.1766 28.3171 30.3948 28.3138 30.6131C28.3109 30.7408 28.308 30.8686 28.3051 31.0002C28.2998 31.2677 28.2953 31.5353 28.2916 31.8028C28.2711 32.6393 28.2531 33.3264 27.6949 33.9902C27.0659 34.5168 26.6384 34.76 25.815 34.7477C25.2213 34.6874 24.6992 34.4365 24.2782 34.0156C23.374 32.7082 23.63 30.5641 23.8852 29.0648C24.4112 26.7835 25.6281 24.8027 27.6046 23.4805C27.7937 23.3632 27.9829 23.2462 28.1723 23.1294C29.1203 22.5226 29.79 21.6847 30.1129 20.5942C30.3423 19.2977 30.1477 18.161 29.4318 17.0523C28.7537 16.1433 27.8278 15.5711 26.7124 15.3534C25.389 15.2667 24.3392 15.4679 23.2639 16.2662C22.3037 17.135 21.8815 18.2902 21.7616 19.5562C21.6659 20.2961 21.5325 20.8201 20.9347 21.2919C20.3461 21.681 19.8163 21.8154 19.1055 21.7432C18.5322 21.5996 18.0151 21.363 17.6697 20.8636C17.0102 19.7613 17.2533 18.4703 17.5329 17.2748C17.8897 15.901 18.579 14.6889 19.5112 13.6292C19.5788 13.5519 19.6464 13.4746 19.7161 13.395C22.7105 10.1895 27.9751 9.9435 31.3906 12.5959Z" fill="#4C6589"/>
<path d="M27.4985 37.2355C27.9962 37.7332 28.2129 38.2656 28.2591 38.9597C28.2491 39.6348 28.0024 40.2307 27.5238 40.7093C26.9027 41.1389 26.3501 41.293 25.5967 41.2164C25.0235 41.0728 24.5063 40.8363 24.161 40.3369C23.7834 39.7059 23.6434 39.0891 23.825 38.3642C24.0894 37.6042 24.4795 37.2109 25.191 36.8551C25.9931 36.5447 26.8083 36.7963 27.4985 37.2355Z" fill="#4C6589"/>
</svg>
