<svg width="198" height="198" viewBox="0 0 198 198" fill="none" xmlns="http://www.w3.org/2000/svg">
<circle cx="99" cy="99" r="99" fill="#76DDE6" fill-opacity="0.3"/>
<g transform="translate(44.316,29.307)">
  <g transform="translate(0,23.56)">
    <path d="M82.669 0.444819C83.8674 1.04403 84.8108 1.69503 85.4284 2.89767C86.07 5.57495 85.1717 7.50677 84.1253 9.96878C83.9687 10.3488 83.8126 10.7291 83.657 11.1096C83.3599 11.8337 83.0608 12.557 82.7594 13.2793C82.2935 14.4091 81.8611 15.5469 81.4425 16.695C81.9282 16.1138 82.4136 15.5325 82.8989 14.9511C83.0349 14.7885 83.1708 14.6259 83.3109 14.4583C83.4453 14.2972 83.5797 14.1362 83.7181 13.9702C83.9194 13.7299 83.9194 13.7299 84.1247 13.4847C84.4767 13.0546 84.8122 12.6111 85.1458 12.1665C85.962 11.2192 86.5282 10.9192 87.7651 10.7772C90.7016 10.765 90.7016 10.765 91.8671 11.7893C93.1122 13.2072 93.5347 14.0676 93.502 15.932C93.1836 18.3184 91.3286 20.1736 89.8383 21.9468C88.6147 23.4211 87.4836 24.9638 86.3482 26.5064C86.1999 26.7079 86.0515 26.9095 85.8987 27.1172C84.9222 28.4451 83.9482 29.7747 82.9756 31.1055C83.2977 30.9762 83.6198 30.847 83.9517 30.7138C89.8552 28.3888 89.8552 28.3888 92.5642 29.5652C93.6997 30.2383 94.2193 31.1101 94.6266 32.3319C94.6997 33.0277 94.6997 33.0277 94.7224 33.8074C94.7339 34.0624 94.7453 34.3173 94.7571 34.5799C94.4276 36.6451 92.7522 37.9035 91.2348 39.173C91.0301 39.3473 90.8254 39.5215 90.6145 39.7011C89.1831 40.9155 87.734 42.108 86.2764 43.2907C85.284 44.1008 84.3005 44.9209 83.3205 45.7459C83.1562 45.8833 82.992 46.0207 82.8227 46.1623C80.0418 48.4379 80.0418 48.4379 78.6831 51.6481C78.5964 53.4368 78.7839 54.6558 79.4616 56.343C79.5846 56.6552 79.5846 56.6552 79.7102 56.9737C79.8865 57.4203 80.0645 57.8663 80.244 58.3117C80.6243 59.2599 80.9908 60.2132 81.3582 61.1665C81.8302 62.3897 82.3075 63.6107 82.7839 64.8322C82.9824 65.3416 83.1808 65.851 83.3792 66.3604C83.8575 67.5886 84.3363 68.8166 84.8152 70.0445C85.025 69.9148 85.2347 69.7851 85.4509 69.6515C85.7264 69.4832 86.002 69.3148 86.2859 69.1414C86.559 68.9738 86.832 68.8062 87.1133 68.6335C87.8813 68.2048 87.8813 68.2048 88.8777 67.9366C91.2637 68.6957 92.7408 72.5378 93.9559 74.5669C94.1842 74.9459 94.4127 75.3249 94.6413 75.7037C95.1158 76.4902 95.5896 77.2769 96.0629 78.064C97.0736 79.7433 98.0916 81.4181 99.1095 83.0929C99.5453 83.8101 99.9809 84.5273 100.416 85.2446C100.735 85.769 101.053 86.2933 101.372 86.8177C101.77 87.4734 102.168 88.1291 102.566 88.7849C102.935 89.393 103.305 90.001 103.674 90.609C104.026 91.1874 104.377 91.766 104.727 92.345C105.612 93.8022 106.509 95.2485 107.43 96.6833C107.616 96.9758 107.802 97.2683 107.994 97.5697C108.347 98.1242 108.704 98.6766 109.065 99.2265C110.56 101.58 110.56 101.58 110.264 103.158C109.65 103.771 109.65 103.771 108.623 103.929C107.504 103.771 107.504 103.771 106.807 103C106.584 102.623 106.37 102.241 106.163 101.855C105.9 101.403 105.638 100.952 105.375 100.5C105.229 100.244 105.083 99.987 104.932 99.7226C104.065 98.2186 103.152 96.7421 102.246 95.2608C101.678 94.3287 101.112 93.3944 100.547 92.4603C99.2015 90.2395 97.852 88.0213 96.5012 85.8038C95.5958 84.3173 94.6912 82.8302 93.7882 81.3422C93.5982 81.0293 93.4082 80.7164 93.2124 80.394C92.8536 79.8033 92.4951 79.2124 92.137 78.6213C91.0848 76.8895 90.0042 75.1805 88.8932 73.4857C88.4945 72.8039 88.4945 72.8039 88.4945 72.1907C83.9526 74.983 79.4134 77.7794 74.8816 80.5881C74.0347 81.1129 73.1874 81.6372 72.3401 82.1614C72.0516 82.34 71.763 82.5186 71.4656 82.7025C70.9178 83.0415 70.3701 83.3804 69.8223 83.7192C69.573 83.8735 69.3237 84.0278 69.0669 84.1867C68.8287 84.3337 68.5905 84.4808 68.3451 84.6322C67.8736 84.9259 67.4043 85.223 66.937 85.5233C66.7174 85.664 66.4977 85.8047 66.2715 85.9497C66.0778 86.0754 65.884 86.2011 65.6844 86.3306C65.1924 86.6012 65.1924 86.6012 64.5792 86.6012C66.0008 89.1834 67.4564 91.7295 69.0385 94.2168C70.8523 97.091 72.5606 100.03 74.2874 102.957C74.4131 103.17 74.5387 103.383 74.6682 103.602C74.9078 104.007 75.1469 104.413 75.3856 104.819C75.8907 105.727 75.8907 105.727 76.5368 106.531C76.5943 107.585 76.5943 107.585 76.5368 108.677C75.9236 109.29 75.9236 109.29 75.0302 109.408C74.084 109.29 74.084 109.29 73.5204 108.765C73.3645 108.518 73.2086 108.27 73.048 108.016C72.8677 107.734 72.6874 107.453 72.5017 107.163C72.2225 106.698 72.2225 106.698 71.9377 106.224C71.6509 105.75 71.6509 105.75 71.3582 105.266C70.8416 104.397 70.3325 103.524 69.828 102.647C69.2659 101.671 68.699 100.698 68.1315 99.7254C68.0158 99.5271 67.9001 99.3288 67.7809 99.1245C66.3633 96.7025 64.8876 94.3168 63.4073 91.9327C60.2871 86.9055 60.2871 86.9055 60.5933 85.3748C61.6389 84.2975 62.9761 83.658 64.2726 82.9219C62.693 79.6692 61.0122 76.4725 59.3094 73.283C59.2029 73.0835 59.0965 72.8839 58.9868 72.6784C57.8034 70.4614 56.6127 68.2492 55.381 66.0586C55.2094 66.3937 55.0379 66.7289 54.8612 67.0742C52.4608 71.7209 49.8463 76.2393 47.1349 80.711C47.0047 80.9259 46.8745 81.1408 46.7404 81.3623C46.5036 81.7514 46.2655 82.1397 46.0258 82.527C45.4401 83.4249 45.4401 83.4249 45.263 84.455C45.8841 84.9028 46.5274 85.3024 47.1793 85.7042C47.7158 86.2946 47.7158 86.2946 47.9122 87.2695C47.6387 88.9007 46.8468 89.7838 45.7995 91.0279C45.4007 91.5202 45.0023 92.0128 44.6042 92.5058C44.404 92.7509 44.2037 92.9961 43.9973 93.2487C43.1778 94.264 42.3983 95.3066 41.622 96.3551C40.1912 98.2749 38.7442 100.182 37.2912 102.085C35.833 103.995 34.3801 105.909 32.9412 107.834C31.6273 109.59 30.3048 111.34 28.9745 113.084C28.8037 113.309 28.6329 113.534 28.4569 113.765C28.2187 114.077 28.2187 114.077 27.9756 114.395C27.8353 114.579 27.6949 114.762 27.5503 114.952C26.6975 116.015 26.6975 116.015 25.7288 116.156C24.4525 116.003 23.6913 115.461 22.6891 114.713C22.2539 114.402 21.8183 114.091 21.3824 113.78C21.1372 113.604 20.892 113.428 20.6394 113.247C19.1905 112.221 17.7168 111.231 16.2457 110.237C15.3187 109.611 14.3929 108.983 13.4669 108.355C13.2816 108.229 13.0962 108.103 12.9052 107.974C11.6257 107.106 10.3471 106.237 9.06903 105.368C8.80968 105.191 8.80968 105.191 8.54508 105.011C7.72876 104.456 6.91255 103.9 6.09646 103.344C5.80357 103.145 5.51068 102.945 5.20891 102.74C4.93249 102.55 4.65607 102.359 4.37128 102.163C3.83975 101.809 3.29807 101.469 2.74692 101.145C1.59413 100.457 0.931513 100.048 0.340332 98.82C0.593623 96.928 1.64486 95.6183 2.72132 94.0748C2.9602 93.7227 3.19843 93.3702 3.43604 93.0173C3.93711 92.2742 4.44092 91.5331 4.94661 90.7931C6.05121 89.1718 7.11963 87.527 8.19032 85.8833C8.7925 84.9597 9.39737 84.0379 10.002 83.116C10.2519 82.7348 10.5018 82.3537 10.7516 81.9725C11.0132 81.5736 11.2747 81.1746 11.5363 80.7757C11.6754 80.5634 11.8146 80.3512 11.9579 80.1325C12.8318 78.7997 13.7057 77.467 14.5799 76.1344C14.8592 75.7086 15.1385 75.2827 15.4178 74.8569C15.5505 74.6544 15.6833 74.452 15.8201 74.2434C15.9492 74.0464 16.0784 73.8494 16.2114 73.6465C16.5794 73.0861 16.9485 72.5265 17.3177 71.967C17.7269 71.3428 18.1318 70.7157 18.5299 70.0844C18.7686 69.7095 18.7686 69.7095 19.0122 69.3271C19.1435 69.1164 19.2747 68.9058 19.41 68.6888C19.8146 68.2048 19.8146 68.2048 20.9069 67.8024C22.1669 67.917 22.5886 68.2696 23.4939 69.1247C23.7974 69.2258 24.101 69.327 24.4137 69.4313C24.4363 69.1129 24.4363 69.1129 24.4592 68.7881C24.5954 67.0062 24.7804 65.2418 25.0269 63.4716C26.4477 53.0171 25.7679 43.1054 19.3547 34.3632C18.4996 33.2633 17.6082 32.2134 16.6719 31.1821C14.1167 28.3509 14.1167 28.3509 13.8358 26.3147C14.0539 24.8426 14.4489 23.8724 15.5413 22.8463C16.941 22.34 18.0771 22.4733 19.508 22.8271C20.1147 23.1202 20.7115 23.4345 21.2974 23.7673C21.5955 23.9351 21.8937 24.1029 22.2009 24.2758C22.4252 24.4048 22.6496 24.5338 22.8807 24.6667C22.7507 24.4381 22.6206 24.2094 22.4867 23.9739C22.0025 23.1167 21.5231 22.2571 21.0467 21.3956C20.8404 21.0246 20.6322 20.6547 20.4222 20.2859C18.2382 16.4464 18.2382 16.4464 18.5882 14.2421C18.948 13.0463 19.6115 12.2458 20.6195 11.5018C22.3855 10.9458 23.9805 10.8569 25.6976 11.5976C26.5106 12.3564 27.0601 13.0739 27.687 13.9858C27.8784 14.2631 28.0698 14.5404 28.267 14.8261C28.4844 15.1441 28.4844 15.1441 28.7062 15.4685C28.6319 15.2601 28.5576 15.0516 28.4811 14.8368C28.1428 13.88 27.8113 12.9209 27.4798 11.9617C27.3043 11.47 27.3043 11.47 27.1253 10.9682C26.3422 8.68195 25.7717 6.69421 26.6175 4.33489C27.5409 2.96562 28.6494 2.12549 30.2393 1.67124C31.9159 1.516 33.059 1.77288 34.5317 2.59106C35.7478 3.86835 36.4301 5.09101 37.0193 6.7566C37.0988 6.97177 37.1783 7.18694 37.2602 7.40863C37.5104 8.08832 37.7554 8.76975 38.0002 9.45138C38.1702 9.91581 38.3404 10.3801 38.511 10.8443C38.926 11.9755 39.3363 13.1083 39.744 14.2421C39.7387 13.9031 39.7334 13.5641 39.7279 13.2148C39.7236 12.7668 39.7194 12.3187 39.7153 11.8707C39.7115 11.6476 39.7076 11.4246 39.7036 11.1948C39.6916 9.42529 39.7786 8.50126 40.9705 7.19016C42.2725 6.23669 43.6351 5.73523 45.257 5.8248C46.709 6.15059 47.9063 6.94057 48.8018 8.11876C49.4051 9.34813 49.4801 10.474 49.5841 11.8273C49.6079 12.0981 49.6317 12.3689 49.6562 12.6479C49.7288 13.4856 49.7959 14.3237 49.8621 15.1619C49.9028 15.6521 49.9437 16.1423 49.9847 16.6324C50.1043 18.0852 50.2148 19.5387 50.3244 20.9922C50.3647 21.5197 50.405 22.0471 50.4455 22.5745C50.5499 23.9394 50.6535 25.3043 50.757 26.6692C50.8633 28.0714 50.9706 29.4734 51.0777 30.8755C51.2865 33.6094 51.4944 36.3433 51.7017 39.0772C52.5404 38.0452 53.2643 37.0203 53.9438 35.877C54.9711 34.2364 56.0667 32.9089 57.8338 32.0253C59.9144 31.7801 61.4246 31.9148 63.1515 33.1331C64.1263 33.9493 64.6905 34.4238 64.8394 35.7314C64.9664 37.3416 64.5972 38.6621 64.0953 40.1803C64.0086 40.4564 63.9219 40.7324 63.8326 41.0169C63.55 41.9115 63.2599 42.8034 62.9695 43.6955C62.7731 44.313 62.577 44.9306 62.3814 45.5483C61.4725 48.4018 60.5329 51.2437 59.5453 54.071C59.4656 54.2995 59.3859 54.5281 59.3038 54.7636C58.9345 55.8192 58.5598 56.8725 58.1755 57.9228C57.9785 58.4735 57.9785 58.4735 57.7775 59.0354C57.662 59.3506 57.5464 59.6658 57.4273 59.9905C57.0429 61.5822 57.6059 62.6446 58.3668 64.0357C58.6276 64.5161 58.6276 64.5161 58.8937 65.0063C59.0815 65.3472 59.2692 65.6882 59.4627 66.0394C59.7555 66.5766 60.0483 67.1138 60.341 67.6509C60.6395 68.1977 60.9389 68.744 61.2385 69.2901C61.7776 70.2742 62.3133 71.2601 62.8473 72.247C64.4023 75.1173 65.9743 77.9709 67.6452 80.7757C67.8872 80.6259 67.8872 80.6259 68.1341 80.4731C68.6255 80.1688 69.117 79.8646 69.6084 79.5604C70.1824 79.2051 70.7564 78.8497 71.3304 78.4943C72.8575 77.5488 74.385 76.6036 75.9128 75.6592C76.2038 75.4792 76.4949 75.2993 76.7947 75.1139C77.3559 74.7669 77.9171 74.42 78.4785 74.0732C78.8608 73.8368 78.8608 73.8368 79.2508 73.5956C79.5867 73.388 79.5867 73.388 79.9294 73.1762C80.4393 72.8563 80.9417 72.5246 81.4425 72.1907C81.2622 71.1824 81.0193 70.2717 80.6372 69.322C80.4852 68.9411 80.4852 68.9411 80.3301 68.5525C80.2205 68.2817 80.111 68.0108 79.9981 67.7318C79.8285 67.307 79.8285 67.307 79.6555 66.8736C79.1733 65.6661 78.6881 64.4599 78.2031 63.2535C77.8486 62.3705 77.4957 61.4868 77.1429 60.6031C76.9804 60.2015 76.9804 60.2015 76.8147 59.7918C75.3459 56.1122 74.2993 52.9036 75.605 49.0048C76.95 45.9256 79.8069 43.7215 82.3552 41.669C83.3404 40.8696 84.309 40.0529 85.2751 39.2305C86.8391 37.9008 88.4195 36.594 90.0131 35.2997C90.6009 34.8346 90.6009 34.8346 90.9473 34.4781C90.9598 33.9673 90.9604 33.4559 90.9473 32.9451C88.9954 32.2428 86.8363 33.513 85.0538 34.3024C84.0617 34.772 83.0768 35.2539 82.0941 35.7429C81.431 36.0705 80.7675 36.3971 80.1035 36.7226C79.8154 36.8657 79.5274 37.0088 79.2306 37.1563C76.814 38.2538 76.814 38.2538 75.6553 37.8508C75.0038 37.2376 75.0038 37.2376 74.8541 36.4292C75.0684 34.9527 75.8179 34.1364 76.7476 33.0026C77.1174 32.536 77.4871 32.0693 77.8567 31.6025C78.0463 31.3661 78.2359 31.1297 78.4313 30.8861C79.2794 29.8222 80.1018 28.7393 80.9251 27.6561C81.2532 27.2269 81.5814 26.7977 81.9096 26.3686C83.1284 24.7738 84.3457 23.1778 85.5626 21.5815C85.7656 21.3152 85.9687 21.0489 86.1779 20.7746C86.5641 20.2678 86.9496 19.7604 87.3342 19.2525C87.6959 18.7778 88.0614 18.3059 88.4307 17.8371C88.6822 17.5142 88.6822 17.5142 88.9388 17.1848C89.0873 16.9971 89.2358 16.8094 89.3888 16.616C89.8829 15.8212 89.8567 15.1475 89.7209 14.2421C88.7913 14.2588 88.1176 14.3398 87.4052 14.9697C86.9006 15.5544 86.4299 16.1549 85.965 16.7716C85.7911 16.9939 85.6172 17.2162 85.438 17.4453C84.9188 18.1113 84.4064 18.7821 83.8954 19.4544C83.6289 19.8011 83.3623 20.1477 83.0953 20.494C82.6064 21.1299 82.1185 21.7667 81.6318 22.4043C80.6808 23.6401 79.7027 24.8538 78.7214 26.0656C78.4694 26.378 78.4694 26.378 78.2124 26.6968C76.4291 28.8896 76.4291 28.8896 75.617 29.5724C74.6397 29.5341 74.6397 29.5341 73.7774 29.2658C73.1004 27.9119 73.3937 26.4437 73.8297 25.0638C73.9942 24.6708 74.1635 24.2798 74.3367 23.8906C74.4738 23.5679 74.4738 23.5679 74.6137 23.2387C74.8103 22.7772 75.0089 22.3165 75.2093 21.8567C75.5251 21.1319 75.8353 20.405 76.144 19.6772C76.5705 18.6724 76.9987 17.6684 77.4283 16.665C78.3348 14.5448 79.2263 12.4186 80.1036 10.2862C80.3657 9.65202 80.632 9.01966 80.8984 8.38724C81.0577 8.00109 81.2167 7.61484 81.3755 7.22849C81.5148 6.89412 81.6541 6.55975 81.7976 6.21525C82.0588 5.34017 82.1511 4.94134 81.7491 4.1241C80.8759 3.72926 80.8759 3.72926 80.1953 4.03697C79.518 4.48714 79.3332 4.77828 79.0154 5.51805C78.8674 5.85436 78.8674 5.85436 78.7165 6.19747C78.6138 6.44206 78.511 6.68665 78.4052 6.93865C78.2943 7.19386 78.1834 7.44907 78.0691 7.71201C77.7079 8.54573 77.3523 9.38176 76.9967 10.2179C76.7498 10.79 76.5024 11.3619 76.2547 11.9337C75.2266 14.3117 74.2121 16.6956 73.2026 19.0816C72.9447 19.6911 72.6862 20.3004 72.4276 20.9097C72.1205 21.6356 71.8158 22.3624 71.5137 23.0904C71.379 23.4106 71.2442 23.7308 71.1053 24.0607C70.9911 24.3355 70.8769 24.6104 70.7593 24.8935C70.4002 25.5954 70.1173 26.0363 69.4849 26.5064C68.3734 26.4489 68.3734 26.4489 67.3386 26.1998C65.8857 23.2939 67.8467 16.9802 68.2776 13.878C68.4074 12.9375 68.5367 11.9968 68.6651 11.0561C68.7444 10.4755 68.8245 9.89508 68.9057 9.31476C68.9415 9.05346 68.9773 8.79217 69.0143 8.52295C69.046 8.29444 69.0778 8.06593 69.1105 7.83049C69.1998 7.09421 69.1998 7.09421 69.1783 5.96373C68.8747 5.86255 68.5712 5.76137 68.2585 5.65713C68.0561 5.75831 67.8537 5.85949 67.6452 5.96373C67.3696 6.77758 67.3696 6.77758 67.1448 7.78526C67.0505 8.17513 66.9563 8.565 66.8593 8.96669C66.7851 9.28122 66.7851 9.28122 66.7094 9.6021C66.5545 10.2573 66.3962 10.9116 66.2368 11.5657C65.7842 13.426 65.3374 15.2877 64.8943 17.1502C64.6232 18.2887 64.3476 19.426 64.0691 20.5627C63.964 20.9962 63.8605 21.4302 63.759 21.8646C63.6167 22.4726 63.4682 23.0792 63.3194 23.6857C63.2368 24.0313 63.1542 24.3769 63.0691 24.733C62.6989 25.6917 62.4055 26.0168 61.5131 26.5064C60.7274 26.5447 60.7274 26.5447 59.9801 26.1998C59.257 24.7431 58.8469 23.3346 58.5009 21.7408C58.4546 21.529 58.4083 21.3171 58.3605 21.0989C58.264 20.6552 58.1684 20.2112 58.0739 19.7671C57.9292 19.0884 57.7809 18.4105 57.632 17.7327C56.914 14.4171 56.914 14.4171 56.914 13.0157C56.6105 13.0157 56.3069 13.0157 55.9942 13.0157C56.0035 13.2526 56.0128 13.4895 56.0223 13.7335C56.1884 18.06 56.3355 22.3875 56.3774 26.7172C56.3872 27.2216 56.3872 27.2216 56.3972 27.7362C56.3993 28.2011 56.3993 28.2011 56.4014 28.6754C56.4043 28.946 56.4071 29.2166 56.4101 29.4954C56.3008 30.1856 56.3008 30.1856 55.9041 30.7435C55.381 31.1055 55.381 31.1055 54.2695 31.048C53.928 30.9658 53.5866 30.8836 53.2347 30.7989C52.79 29.9093 52.8601 29.108 52.8311 28.1149C52.8215 27.7999 52.8215 27.7999 52.8116 27.4786C52.7911 26.7905 52.7731 26.1023 52.7557 25.4141C52.7496 25.1805 52.7435 24.947 52.7372 24.7064C52.7006 23.2814 52.6679 21.8565 52.6369 20.4314C52.6225 19.8033 52.6056 19.1753 52.5886 18.5473C52.561 17.4955 52.5418 16.4439 52.5257 15.3919C52.5166 15.0826 52.5075 14.7733 52.4981 14.4546C52.4837 12.6985 52.6124 11.6152 53.8479 10.2562C55.0741 9.41777 56.3994 9.43916 57.8338 9.64301C59.0984 10.2868 59.7505 10.798 60.2867 12.0959C60.4196 12.654 60.5338 13.2169 60.6316 13.7822C60.683 14.0699 60.7344 14.3577 60.7873 14.6541C60.8999 15.4685 60.8999 15.4685 60.8999 16.695C61.1023 16.695 61.3046 16.695 61.5131 16.695C61.5528 16.1614 61.5528 16.1614 61.5934 15.617C61.8165 13.6207 62.3227 11.6914 62.8234 9.75065C62.9891 9.10454 63.1486 8.45708 63.3078 7.80936C63.4138 7.39367 63.5202 6.97807 63.627 6.56257C63.7214 6.18997 63.8158 5.81736 63.913 5.43346C64.3661 4.16986 64.9648 3.25745 66.0859 2.50243C67.7763 1.9263 69.5721 2.04025 71.1712 2.78269C72.0966 3.66186 72.4892 4.11531 72.8575 5.35052C72.8522 6.69236 72.7109 8.00523 72.5509 9.3364C72.4946 9.83899 72.4388 10.3416 72.3833 10.8443C72.3569 11.0819 72.3305 11.3195 72.3033 11.5643C72.2839 11.7397 72.2644 11.9151 72.2443 12.0959C72.3587 11.8252 72.473 11.5546 72.5908 11.2758C73.018 10.2662 73.4485 9.25802 73.8799 8.25018C74.0657 7.8149 74.2507 7.37924 74.4347 6.94321C74.7004 6.31431 74.9692 5.68681 75.2385 5.05948C75.3194 4.8662 75.4003 4.67291 75.4836 4.47377C76.1423 2.95282 76.8802 1.77236 78.2423 0.808914C79.7368 0.292652 81.1042 0.232927 82.669 0.444819ZM29.626 5.96373C29.7989 7.98256 30.3137 9.73914 30.9818 11.6467C31.0866 11.9522 31.1914 12.2577 31.2994 12.5724C31.6337 13.545 31.9712 14.5163 32.3088 15.4877C32.531 16.1318 32.753 16.7759 32.9748 17.4202C33.083 17.7344 33.1912 18.0485 33.3027 18.3723C33.5173 18.9952 33.7317 19.6182 33.946 20.2413C34.4049 21.5746 34.8656 22.9069 35.3384 24.2354C35.48 24.6407 35.6215 25.0459 35.763 25.4512C35.8824 25.7869 36.0019 26.1227 36.125 26.4686C36.4009 27.5411 36.4365 28.4693 36.3714 29.5724C36.0648 29.879 36.0648 29.879 35.2008 29.9901C34.2251 29.879 34.2251 29.879 33.5884 29.2625C33.4025 28.9806 33.2166 28.6987 33.0251 28.4083C32.8171 28.0994 32.6091 27.7905 32.3948 27.4723C32.0866 26.9942 32.0866 26.9942 31.7723 26.5064C31.5819 26.2208 31.3915 25.9352 31.1953 25.641C30.6266 24.7842 30.068 23.9215 29.5111 23.057C29.1107 22.441 28.7103 21.825 28.3098 21.209C27.6164 20.14 26.9259 19.0692 26.2378 17.9968C25.9684 17.582 25.699 17.1672 25.4294 16.7524C25.3112 16.5656 25.1931 16.3788 25.0714 16.1862C24.4508 15.2375 23.9664 14.6269 22.8807 14.2421C22.5772 14.4445 22.2736 14.6468 21.9609 14.8553C22.1468 16.2478 22.7159 17.362 23.3753 18.5813C23.5437 18.898 23.5437 18.898 23.7155 19.2211C23.956 19.6729 24.1975 20.1241 24.4398 20.5748C24.8182 21.2788 25.1941 21.9841 25.5694 22.6897C26.6824 24.7781 27.8062 26.8596 28.9601 28.9257C29.13 29.2308 29.2998 29.536 29.4748 29.8504C29.7834 30.402 30.0951 30.9521 30.4103 31.5C31.3309 33.1423 31.7723 34.4177 31.7723 36.3178C30.9483 36.4136 30.9483 36.4136 29.9326 36.3178C28.8147 35.3041 27.8337 34.1649 26.8283 33.0409C24.2018 30.1602 21.5232 27.6132 17.975 25.8932C17.7726 25.8932 17.5703 25.8932 17.3618 25.8932C17.7733 27.1108 18.2857 27.8356 19.1823 28.7484C26.2634 36.4216 29.2561 45.5873 29.0128 55.9406C28.9592 57.1754 28.8769 58.4066 28.7829 59.639C28.7572 59.9777 28.7316 60.3164 28.7052 60.6653C28.3941 64.4344 27.8064 68.1574 27.1732 71.8841C30.7845 74.5097 34.4218 77.0948 38.0853 79.6472C39.3549 80.5325 40.6225 81.4207 41.8903 82.3087C42.7145 81.5657 43.2167 80.7639 43.7659 79.8032C43.95 79.4828 44.1341 79.1625 44.3238 78.8324C44.5199 78.4872 44.716 78.142 44.918 77.7863C45.1239 77.425 45.3297 77.0637 45.5357 76.7025C45.8515 76.1483 46.1672 75.594 46.4822 75.0393C47.1399 73.8826 47.8105 72.7344 48.4907 71.5907C53.7321 62.7097 61.5131 46.5818 61.5131 36.0112C60.5483 35.4394 59.8717 35.2852 58.7537 35.3979C56.6175 36.9589 55.3551 39.8442 54.0587 42.105C53.7304 42.6732 53.4013 43.2409 53.0712 43.8081C52.7751 44.3174 52.4813 44.8279 52.1876 45.3386C51.7017 46.1292 51.7017 46.1292 51.0885 46.7424C50.322 46.819 50.322 46.819 49.5555 46.7424C48.8122 45.9991 48.8439 45.751 48.7699 44.7271C48.7358 44.2842 48.7358 44.2842 48.701 43.8323C48.6789 43.5072 48.6567 43.1821 48.6339 42.8472C48.6084 42.5056 48.5829 42.1641 48.5566 41.8122C48.5013 41.0686 48.4473 40.325 48.3945 39.5812C48.3107 38.4047 48.2232 37.2284 48.1347 36.0522C47.9154 33.1298 47.7012 30.207 47.4894 27.284C47.3106 24.8167 47.1286 22.3496 46.9421 19.8829C46.8839 19.1029 46.8273 18.3229 46.7723 17.5427C46.6954 16.4517 46.6136 15.3611 46.5308 14.2705C46.4985 13.7856 46.4985 13.7856 46.4655 13.291C46.2989 11.1719 46.2989 11.1719 45.263 9.3364C44.3521 9.44135 44.3521 9.44135 43.4233 9.64301C42.5222 11.4453 43.1591 14.2944 43.3179 16.2638C43.3486 16.6649 43.3486 16.6649 43.3798 17.0741C43.4443 17.9188 43.5103 18.7632 43.5766 19.6077C43.6642 20.7223 43.7502 21.8369 43.8353 22.9516C43.8554 23.2012 43.8756 23.4507 43.8963 23.7078C44.0301 25.4627 44.0529 27.1992 44.0365 28.9592C43.1259 28.9592 42.2153 28.9592 41.2771 28.9592C41.0986 28.3387 41.0986 28.3387 40.9165 27.7056C40.279 25.5834 39.5233 23.5045 38.7679 21.4222C38.6925 21.2138 38.6171 21.0054 38.5394 20.7907C38.1413 19.6912 37.7423 18.5921 37.3423 17.4933C36.9312 16.363 36.5236 15.2314 36.1168 14.0996C35.8012 13.2237 35.4831 12.3488 35.1642 11.4742C35.0128 11.0574 34.8623 10.6402 34.7129 10.2226C34.5038 9.63923 34.2906 9.05733 34.0773 8.4755C33.9575 8.145 33.8377 7.8145 33.7143 7.47399C33.2731 6.50635 32.8278 5.8001 32.0789 5.04391C30.7702 5.04391 30.5646 5.15924 29.626 5.96373Z" fill="#76DDE6"/>
  </g>
  <g transform="translate(0.068,64.058)">
    <path d="M4.48584 0.450195C6.44009 -0.0151002 8.47527 0.0381636 10.271 0.994141L10.6274 1.19824L10.6401 1.20508L10.6509 1.21582C11.5534 2.02063 12.2341 2.80418 12.7124 3.69727C13.1912 4.59131 13.4626 5.58594 13.561 6.80566L13.562 6.81543L13.561 6.8252C13.4993 8.53007 13.1326 9.95458 11.9497 11.2578L11.9448 11.2637L11.939 11.2686C11.0201 12.106 10.194 12.6969 9.27783 13.0684C8.36044 13.4403 7.36365 13.5874 6.10889 13.5557H6.10107L6.09326 13.5547C4.23523 13.3305 2.94367 12.4826 1.71826 11.127L1.71045 11.1172C0.997769 10.1992 0.562974 9.32018 0.343262 8.37891C0.123982 7.43923 0.12154 6.44668 0.259277 5.30469L0.26123 5.29102L0.265137 5.27832C0.931206 3.01688 2.47612 1.60535 4.44092 0.467773L4.4624 0.455078L4.48584 0.450195ZM7.73291 3.95312C7.04693 3.89405 6.51806 3.90661 6.02881 4.0332C5.53883 4.16001 5.07539 4.40367 4.52881 4.82617C3.86881 5.74797 3.84081 6.57604 3.95752 7.73535C4.33363 8.5592 4.63574 9.0426 5.34814 9.56348C6.22173 9.83537 6.81246 9.88776 7.72314 9.76367C8.58939 9.2198 9.31151 8.62258 9.76709 7.72559C9.88666 6.8418 9.92202 6.24783 9.47021 5.51367C8.92973 4.85436 8.46421 4.32554 7.73291 3.95312Z" fill="#76DDE6" stroke="#76DDE6" stroke-width="0.330325"/>
  </g>
  <g transform="translate(94.062,60.39)">
    <path d="M13.4482 0.166016C13.8953 0.203267 14.1601 0.223565 14.3838 0.324219C14.5529 0.400406 14.6949 0.520995 14.8809 0.702148L15.084 0.904297L15.1279 0.947266L15.1318 1.00879C15.2997 3.35116 14.8685 5.51685 14.4004 7.77734L14.4014 7.77832C14.2994 8.30022 14.2993 8.3008 14.1953 8.83301V8.83496C13.937 10.1093 13.8037 10.7678 13.6465 11.1904C13.4814 11.634 13.2843 11.8289 12.9375 12.1758L12.8936 12.2197L12.832 12.2236C10.9832 12.351 9.37674 12.0738 7.60645 11.625V11.624C7.37482 11.5683 7.14294 11.5135 6.9043 11.4561H6.90332C6.06349 11.2506 5.63419 11.1453 5.32715 11.0469C5.08544 10.9694 4.919 10.8929 4.69141 10.7812C4.6816 10.9338 4.67218 11.0875 4.66211 11.2441V11.2451C4.47876 13.7773 4.38536 15.0627 4.2207 15.8604C4.13723 16.2645 4.03433 16.5518 3.88867 16.8164C3.74513 17.0771 3.56266 17.3117 3.33301 17.6074L3.31934 17.624L3.30176 17.6377C3.06056 17.8205 2.90356 17.9433 2.67383 17.9873C2.56233 18.0086 2.43979 18.0107 2.29004 18.0029C2.14024 17.9951 1.95252 17.9769 1.70996 17.9531L1.69824 17.9521L1.68652 17.9492C1.402 17.8797 1.11736 17.8099 0.824219 17.7383L0.749023 17.7197L0.714844 17.6514C-0.241636 15.7182 0.265921 13.9319 0.624023 11.9902C0.679997 11.6587 0.736275 11.3269 0.793945 10.9854V10.9844C1.04352 9.56253 1.17051 8.83656 1.31543 8.34277C1.46413 7.83615 1.63419 7.56802 1.9502 7.06543L1.97949 7.01758L2.03223 6.99805C2.94843 6.65568 3.87308 6.66009 4.78125 6.80078C5.68336 6.94056 6.59307 7.22011 7.45703 7.43359H7.45605C7.76917 7.50802 8.08266 7.58249 8.40527 7.65918C9.11238 7.8277 9.81862 7.99916 10.5244 8.17285C10.5364 8.01865 10.5492 7.86353 10.5615 7.70508V7.7041C10.6998 6.04665 10.878 4.43729 11.2607 2.80469C11.3362 2.47237 11.4125 2.14023 11.4902 1.79785L11.4922 1.78516H11.4932C11.6678 1.21787 11.8217 0.821469 12.1123 0.566406C12.407 0.307804 12.8152 0.21649 13.4209 0.166016L13.4346 0.165039L13.4482 0.166016Z" fill="#76DDE6" stroke="#76DDE6" stroke-width="0.330325"/>
  </g>
  <g transform="translate(58.395,2.691)">
    <path d="M8.32715 0.170898C8.78506 0.236314 9.05108 0.271769 9.26855 0.375C9.49003 0.480154 9.6559 0.652218 9.93555 0.936523L9.96094 0.961914L9.97363 0.996094C10.5402 2.55414 9.9408 3.68637 9.41699 5.10547L9.08789 6.04004C8.76377 6.9523 8.4332 7.86196 8.10059 8.77051C7.74945 9.73603 7.40549 10.7041 7.06055 11.6729C6.68028 12.7383 6.29598 13.8027 5.91113 14.8662C5.71918 15.3971 5.52836 15.9285 5.33789 16.46C5.06702 17.2134 4.79069 17.9648 4.51465 18.7158L4.51562 18.7168C4.43433 18.9449 4.35329 19.1732 4.26953 19.4082L4.26855 19.4102C4.06255 19.9638 3.90679 20.3813 3.66992 20.7432C3.42929 21.1108 3.10991 21.4144 2.58887 21.7617L2.54004 21.7939L2.48145 21.7881C1.63921 21.7039 1.19275 21.66 0.90625 21.5781C0.593729 21.4888 0.456603 21.3502 0.234375 21.1279L0.19043 21.083L0.186523 21.0205C0.100924 19.5156 0.263327 18.3542 0.777344 16.9414C0.904161 16.5878 1.03145 16.2344 1.16211 15.8701V15.8682C1.30095 15.4924 1.43996 15.1167 1.58301 14.7295C1.72606 14.3357 1.86917 13.9419 2.01172 13.5479C2.31025 12.725 2.61146 11.9024 2.91406 11.0811C3.30163 10.0289 3.68485 8.97463 4.06641 7.91992C4.3607 7.10735 4.65648 6.29495 4.95312 5.4834C5.16394 4.9062 5.37415 4.32875 5.58398 3.75098V3.75C5.77725 3.22648 5.77749 3.22634 5.97461 2.69238L6.31738 1.75879L6.32031 1.75L6.48438 1.38965C6.64527 1.05694 6.80425 0.80627 7.02344 0.621094C7.31945 0.371098 7.704 0.256612 8.2793 0.170898L8.30371 0.166992L8.32715 0.170898Z" fill="#76DDE6" stroke="#76DDE6" stroke-width="0.330325"/>
  </g>
  <g transform="translate(36.033,7.313)">
    <path d="M2.16895 0.168945C2.63104 0.223492 2.89726 0.252985 3.1123 0.34375C3.2781 0.413767 3.41056 0.519307 3.58105 0.674805L3.7666 0.847656L3.78223 0.862305L3.79395 0.879883C3.94807 1.12624 4.10196 1.37316 4.26074 1.62695L4.80469 2.47656L4.80664 2.47949C4.99652 2.79046 5.18623 3.10154 5.38184 3.42188C5.59124 3.74996 5.80086 4.078 6.0166 4.41602V4.41699C6.5765 5.29616 7.12066 6.18344 7.6582 7.0752C7.88061 7.4418 8.1057 7.80727 8.33301 8.1709C8.66832 8.70762 8.99594 9.24867 9.32129 9.79004L9.9082 10.748L9.91504 10.7598L9.91992 10.7734C10.1597 11.3736 10.2519 11.8676 10.2461 12.3701C10.2402 12.8679 10.1383 13.3679 10.0029 13.9717L9.97754 14.083L9.86523 14.0986L7.71875 14.4053L7.625 14.4189L7.56543 14.3438C6.00235 12.3568 4.66912 10.2574 3.36523 8.10645V8.10547C3.01047 7.52147 2.65206 6.93958 2.29297 6.35742L2.29199 6.35645C2.06366 5.98161 1.83529 5.60658 1.60742 5.23145V5.23047C1.40264 4.89489 1.19732 4.55962 0.986328 4.21387L0.981445 4.2041C0.525445 3.33448 0.264487 2.67584 0.172852 1.68652L0.167969 1.64258L0.186523 1.60254C0.417452 1.09993 0.60831 0.763069 0.902344 0.543945C1.19702 0.324402 1.57404 0.238404 2.12891 0.168945L2.14941 0.166992L2.16895 0.168945Z" fill="#76DDE6" stroke="#76DDE6" stroke-width="0.330325"/>
  </g>
  <g transform="translate(1.615,28.798)">
    <path d="M2.12695 0.451172C3.58464 0.0462593 4.85976 0.0356129 6.24316 0.650391L6.2627 0.65918L6.2793 0.672852C6.82102 1.10623 7.21207 1.47608 7.51172 1.91504C7.7369 2.24493 7.90659 2.60838 8.05371 3.05762L8.19434 3.53809L8.19922 3.55566L8.2002 3.57422C8.2273 4.37383 8.14059 5.0707 7.90527 5.71777C7.66984 6.36496 7.28828 6.95459 6.7373 7.54492L6.71777 7.56641L6.69043 7.58008C5.68539 8.0825 4.89489 8.21046 3.78613 8.24805L3.75684 8.25L3.72852 8.24023C2.51519 7.83579 1.40283 7.43583 0.583008 6.34277L0.566406 6.32129L0.558594 6.2959C0.16951 5.12865 0.0779732 4.05987 0.245117 2.84863L0.248047 2.82031L0.261719 2.79492C0.760605 1.83281 1.20153 1.16235 2.06934 0.480469L2.09473 0.459961L2.12695 0.451172Z" fill="#76DDE6" stroke="#76DDE6" stroke-width="0.330325"/>
  </g>
  <g transform="translate(49.483,0)">
    <path d="M0.635742 0.578125C1.40927 0.139849 2.02955 0.1264 2.80566 0.197266L3.14844 0.231445L3.20703 0.238281L3.24805 0.279297C3.69918 0.73044 3.90071 1.12895 3.99316 1.57715C4.08158 2.00587 4.06939 2.49091 4.10352 3.07324L4.1416 3.69629V3.69727C4.18173 4.35691 4.21878 5.01658 4.25488 5.67578H4.25391C4.28038 6.11494 4.30799 6.55404 4.33496 6.99316V6.99414C4.48876 9.56761 4.56671 10.8698 4.53223 11.6406C4.51481 12.0296 4.46834 12.2951 4.38379 12.5264C4.29993 12.7555 4.18046 12.943 4.03711 13.1699L4.0293 13.1826L4.01953 13.1934C3.86776 13.3578 3.71594 13.523 3.55957 13.6924L3.50293 13.7529L3.41992 13.7441C2.69776 13.6654 1.97774 13.562 1.2627 13.4365L1.18164 13.4219L1.14355 13.3477C0.693079 12.4467 0.718019 11.6202 0.65625 10.6748L0.575195 9.45215L0.535156 8.8125L0.410156 6.90137C0.236954 4.24322 0.149035 2.90059 0.166992 2.12012C0.176052 1.72739 0.212345 1.46466 0.282227 1.24219C0.351939 1.02033 0.453307 0.846908 0.574219 0.638672L0.59668 0.599609L0.635742 0.578125Z" fill="#76DDE6" stroke="#76DDE6" stroke-width="0.330325"/>
  </g>
  <g transform="translate(93.149,20.165)">
    <path d="M2.61035 0.301758C3.20636 0.130554 3.84779 0.128449 4.56445 0.24707L4.87695 0.305664L4.90625 0.311523L4.93262 0.328125C5.74638 0.847559 6.2828 1.22786 6.74023 2.06055L6.83105 2.2334L6.84473 2.25977L6.84766 2.29004C6.91765 2.98997 6.97555 3.59748 6.90137 4.17578C6.82616 4.76179 6.61605 5.31349 6.16309 5.91309L6.15332 5.92578L6.1416 5.93652C5.64488 6.37925 5.27688 6.6771 4.8584 6.85449C4.43612 7.03345 3.97657 7.08469 3.30664 7.07129L3.28711 7.07031L3.26758 7.06543C2.55724 6.8728 2.03765 6.70141 1.5957 6.41113C1.15037 6.11863 0.79595 5.71372 0.392578 5.07812L0.37793 5.05566L0.371094 5.0293C0.197281 4.33394 0.129088 3.80994 0.183594 3.29102C0.238032 2.77292 0.413733 2.2727 0.707031 1.625L0.716797 1.60352L0.733398 1.58496C1.32007 0.912084 1.92694 0.498092 2.61035 0.301758Z" fill="#76DDE6" stroke="#76DDE6" stroke-width="0.330325"/>
  </g>
</g>
</svg>