<svg width="198" height="198" viewBox="0 0 198 198" fill="none" xmlns="http://www.w3.org/2000/svg">
<circle cx="99" cy="99" r="99" fill="#FBC088" fill-opacity="0.3"/>
<path d="M59.4912 52.3018H136.451C136.969 52.4934 137.726 52.5347 138.282 52.654C139 52.8078 139.699 52.9798 140.399 53.2043C145.05 54.7446 148.899 58.0699 151.099 62.4486C151.806 63.8383 152.321 65.3174 152.63 66.8455C152.741 67.4078 152.891 68.5806 153.039 69.0412V127.357C152.878 127.846 152.801 128.536 152.71 129.054C152.584 129.787 152.408 130.509 152.182 131.217C150.717 135.788 147.534 139.611 143.304 141.879C140.783 143.229 137.912 144.006 135.052 144.058C130.582 144.138 126.074 143.962 121.608 144.1C121.154 144.361 120.619 144.846 120.206 145.188L117.952 147.056L109.133 154.345L105.783 157.115C104.457 158.213 103.126 159.455 101.547 160.138C99.7396 160.901 97.7326 161.054 95.8303 160.576C94.846 160.336 93.9094 159.931 93.0601 159.379C91.9249 158.648 90.0283 156.931 88.9433 156.019L79.2537 147.865L76.5062 145.547C75.9818 145.104 75.2712 144.47 74.7185 144.101C73.6539 144.033 72.335 144.063 71.2505 144.063L64.4854 144.065C63.1141 144.065 61.364 144.115 60.0225 144.009C55.1197 143.622 50.7442 141.44 47.4861 137.741C45.5091 135.494 44.1172 132.793 43.4339 129.878C43.3337 129.446 43.0947 127.778 42.9624 127.541V68.7597C43.1221 68.4636 43.3161 66.9415 43.4306 66.4733C43.7508 65.1217 44.2231 63.8106 44.8384 62.5652C47.0073 58.1198 50.8859 54.7437 55.588 53.2084C56.2992 52.9816 56.9903 52.8066 57.721 52.653C58.2515 52.5416 59.0001 52.486 59.4912 52.3018ZM97.9277 151.539C99.1876 150.599 100.67 149.282 101.922 148.266L112.9 139.278C114.133 138.275 117.011 135.739 118.259 135.172C119.638 134.715 121.382 134.856 122.868 134.858L130.446 134.859C134.28 134.859 137.738 135.315 140.796 132.492C141.701 131.657 142.348 130.859 142.902 129.747C143.449 128.644 143.768 127.442 143.838 126.212C143.901 125.255 143.868 123.981 143.868 123L143.866 117.513L143.865 100.543V80.5549L143.868 74.052C143.868 71.9923 144.028 69.6566 143.364 67.702C142.562 65.3537 140.846 63.428 138.607 62.3598C136.355 61.2732 133.916 61.5042 131.486 61.5045L124.702 61.506L103.958 61.5064L75.732 61.5059H66.4526C64.8267 61.506 63.0115 61.4667 61.4004 61.5196C58.7624 61.5685 56.5376 62.3709 54.6806 64.3117C53.3977 65.6475 52.5553 67.3445 52.2668 69.174C52.1074 70.2293 52.1346 71.2484 52.134 72.309L52.1348 75.8413L52.1354 88.1699L52.1356 112.821L52.134 121.151C52.1338 125.465 51.5751 129.096 55.048 132.373C56.192 133.446 57.5933 134.207 59.1168 134.581C60.7294 134.972 63.745 134.859 65.4912 134.859L73.7081 134.855C74.9293 134.855 77.273 134.714 78.3065 135.283C79.6656 136.031 81.2816 137.572 82.4899 138.587L92.9989 147.432L96.1692 150.109C96.6075 150.479 97.4767 151.246 97.9277 151.539Z" fill="#FBC088"/>
<path d="M97.4912 93.6028C101.277 93.3246 104.572 96.1664 104.854 99.952C105.135 103.738 102.296 107.035 98.5108 107.32C94.7206 107.605 91.4181 104.762 91.1364 100.972C90.8547 97.1814 93.7007 93.8813 97.4912 93.6028Z" fill="#FBC088"/>
<path d="M74.5455 93.6027C78.3363 93.3179 81.639 96.1625 81.9194 99.9535C82.1997 103.745 79.3512 107.044 75.5598 107.32C71.7747 107.595 68.482 104.753 68.2021 100.968C67.9223 97.1831 70.7611 93.887 74.5455 93.6027Z" fill="#FBC088"/>
<path d="M120.427 93.6026C124.208 93.3259 127.5 96.1626 127.785 99.9437C128.07 103.725 125.241 107.023 121.46 107.316C117.668 107.611 114.357 104.771 114.072 100.978C113.786 97.1849 116.633 93.8803 120.427 93.6026Z" fill="#FBC088"/>
</svg>
