<svg width="38" height="38" viewBox="0 0 38 38" fill="none" xmlns="http://www.w3.org/2000/svg">
<circle cx="19" cy="19" r="18.5" stroke="#627A9C"/>
<path d="M20.908 16.482C20.6467 16.482 20.4553 16.4167 20.334 16.286C20.222 16.1553 20.166 15.9313 20.166 15.614V14.928C20.0167 14.8627 19.8673 14.8253 19.718 14.816C19.578 14.7973 19.438 14.788 19.298 14.788C19.0647 14.788 18.822 14.844 18.57 14.956C18.3273 15.068 18.1033 15.2593 17.898 15.53C17.6927 15.7913 17.5247 16.1553 17.394 16.622C17.2633 17.0887 17.198 17.672 17.198 18.372V18.96C17.422 18.4933 17.7347 18.1713 18.136 17.994C18.5373 17.8167 18.9247 17.728 19.298 17.728C20.1473 17.728 20.7867 18.008 21.216 18.568C21.6453 19.128 21.86 19.8513 21.86 20.738C21.86 21.7553 21.5847 22.5533 21.034 23.132C20.4927 23.7107 19.7787 24 18.892 24C18.2293 24 17.688 23.8787 17.268 23.636C16.8573 23.384 16.5353 23.048 16.302 22.628C16.078 22.208 15.9193 21.7367 15.826 21.214C15.742 20.682 15.7 20.1407 15.7 19.59C15.7 18.442 15.798 17.5087 15.994 16.79C16.19 16.062 16.456 15.502 16.792 15.11C17.128 14.718 17.506 14.4473 17.926 14.298C18.346 14.1487 18.7847 14.074 19.242 14.074C19.5967 14.074 19.9093 14.1067 20.18 14.172C20.4507 14.228 20.7027 14.298 20.936 14.382C21.0667 14.4287 21.1927 14.5033 21.314 14.606C21.4447 14.6993 21.51 14.8627 21.51 15.096V15.81C21.51 16.258 21.3093 16.482 20.908 16.482ZM18.892 18.624C18.472 18.624 18.1033 18.8153 17.786 19.198C17.4687 19.5807 17.31 20.1313 17.31 20.85C17.31 21.0927 17.3333 21.354 17.38 21.634C17.4267 21.914 17.506 22.18 17.618 22.432C17.73 22.684 17.884 22.8893 18.08 23.048C18.2853 23.2067 18.542 23.286 18.85 23.286C19.3073 23.286 19.6667 23.0853 19.928 22.684C20.1987 22.2827 20.334 21.6293 20.334 20.724C20.334 19.9493 20.2033 19.408 19.942 19.1C19.6807 18.7827 19.3307 18.624 18.892 18.624Z" fill="#627A9C"/>
</svg>
