<svg width="15" height="15" viewBox="0 0 15 15" fill="none" xmlns="http://www.w3.org/2000/svg">
<path d="M7.50557 6.10503e-05C7.53528 0.000123994 7.565 0.000186938 7.59561 0.000251789C8.02206 0.00170248 8.44043 0.00903023 8.8593 0.0968067C8.88776 0.102609 8.91622 0.108412 8.94554 0.11439C10.0857 0.353009 11.1493 0.809377 12.0703 1.52791C12.0961 1.54757 12.1219 1.56722 12.1485 1.58747C12.6035 1.94089 13.0305 2.35849 13.3839 2.81299C13.4066 2.841 13.4292 2.86901 13.4526 2.89787C14.4606 4.16574 15.0022 5.7759 14.9986 7.3904C14.9985 7.47626 14.9992 7.56208 15 7.64793C15.0013 8.03851 14.9661 8.41516 14.9018 8.80027C14.8936 8.85008 14.8936 8.85008 14.8852 8.9009C14.6801 10.0432 14.1844 11.1292 13.4715 12.0422C13.4493 12.0705 13.4272 12.0989 13.4043 12.1282C13.0443 12.5774 12.6414 13.0024 12.1871 13.3564C12.1598 13.3788 12.1324 13.4011 12.1043 13.4241C11.1716 14.1714 10.0283 14.6536 8.8593 14.8752C8.83568 14.8799 8.81205 14.8847 8.78771 14.8897C7.91077 15.0611 6.89952 15.0292 6.02777 14.846C5.98332 14.8368 5.98332 14.8368 5.93796 14.8275C4.8537 14.597 3.83598 14.1266 2.96272 13.4441C2.93434 13.4219 2.90597 13.3997 2.87674 13.3769C2.42779 13.0166 2.00298 12.6136 1.64912 12.159C1.61565 12.118 1.61565 12.118 1.5815 12.0762C0.834595 11.1429 0.352659 9.99903 0.131187 8.82947C0.126408 8.80584 0.121629 8.7822 0.116706 8.75784C-0.0429576 7.94046 -0.0394278 6.95752 0.131187 6.1425C0.136987 6.11403 0.142786 6.08556 0.148762 6.05622C0.449302 4.61873 1.10425 3.35031 2.11618 2.28728C2.13282 2.26978 2.14947 2.25229 2.16662 2.23427C2.40016 1.99068 2.64 1.76739 2.9111 1.56632C2.96387 1.52706 3.01604 1.48709 3.06819 1.44703C3.31361 1.26042 3.56883 1.09856 3.83765 0.947852C3.89203 0.917279 3.94598 0.886053 3.99991 0.854686C5.06831 0.253998 6.2901 -0.00456964 7.50557 6.10503e-05ZM4.59741 1.99521C4.56374 2.01313 4.53006 2.03105 4.49536 2.04952C3.03364 2.85297 1.98171 4.23744 1.5166 5.8299C1.42593 6.1546 1.36742 6.47968 1.32802 6.81424C1.32226 6.85965 1.32226 6.85965 1.31639 6.90597C1.1965 8.0406 1.42857 9.21643 1.94103 10.2314C1.95073 10.251 1.96043 10.2706 1.97042 10.2908C2.69673 11.7523 4.01758 12.8739 5.55889 13.3966C7.12903 13.9076 8.81978 13.784 10.3032 13.0584C11.7676 12.3089 12.9037 10.9936 13.4259 9.43368C13.9235 7.88713 13.8271 6.19641 13.092 4.7406C13.0823 4.721 13.0726 4.70141 13.0626 4.68122C12.3353 3.21764 11.0278 2.12174 9.49455 1.5842C9.07672 1.44384 8.6542 1.34859 8.2171 1.29426C8.18816 1.29042 8.15923 1.28658 8.12941 1.28263C6.92279 1.15259 5.66026 1.41617 4.59741 1.99521Z" fill="#4C6589"/>
<path d="M7.94727 3.24363C8.07226 3.36868 8.15256 3.51654 8.1625 3.69516C8.16246 3.73054 8.16246 3.73054 8.16242 3.76663C8.16246 3.79382 8.1625 3.82102 8.16254 3.84903C8.16238 3.89346 8.16238 3.89346 8.16222 3.93879C8.16222 3.97015 8.16223 4.0015 8.16223 4.0338C8.16221 4.13747 8.16199 4.24113 8.16176 4.3448C8.1617 4.41666 8.16166 4.48852 8.16163 4.56039C8.16152 4.74956 8.16123 4.93874 8.16091 5.12792C8.16061 5.32094 8.16048 5.51397 8.16033 5.707C8.16002 6.08577 8.15953 6.46453 8.15891 6.8433C8.18276 6.84304 8.20661 6.84278 8.23119 6.84252C8.45706 6.84017 8.68292 6.83839 8.9088 6.83725C9.02489 6.83664 9.14098 6.83582 9.25708 6.83449C9.36932 6.83321 9.48155 6.83252 9.59379 6.83222C9.63641 6.832 9.67902 6.83159 9.72164 6.83095C9.98555 6.82718 10.2561 6.82364 10.463 7.01125C10.6214 7.18168 10.6538 7.34452 10.6493 7.57323C10.6311 7.74775 10.564 7.85314 10.4431 7.97687C10.2462 8.10946 10.0742 8.14141 9.84269 8.13972C9.80349 8.13995 9.80349 8.13995 9.76349 8.14018C9.67774 8.14056 9.592 8.14031 9.50625 8.14002C9.44628 8.14007 9.38631 8.14016 9.32634 8.14027C9.2009 8.1404 9.07548 8.14021 8.95004 8.1398C8.78966 8.1393 8.62929 8.13959 8.4689 8.14011C8.34514 8.14043 8.22138 8.14033 8.09762 8.1401C8.0385 8.14004 7.97938 8.14012 7.92026 8.14032C7.83748 8.14054 7.75473 8.1402 7.67195 8.13972C7.64777 8.13989 7.62359 8.14007 7.59868 8.14025C7.37788 8.13786 7.18124 8.0848 7.02046 7.92393C6.91004 7.7642 6.87098 7.63122 6.8704 7.43939C6.87024 7.40615 6.87007 7.37291 6.8699 7.33865C6.86985 7.28412 6.86985 7.28412 6.8698 7.22849C6.86965 7.19011 6.86951 7.15172 6.86936 7.11218C6.86898 7.00693 6.86879 6.90169 6.86866 6.79644C6.86857 6.73063 6.86845 6.66481 6.86832 6.599C6.86792 6.39291 6.86764 6.18681 6.86753 5.98072C6.8674 5.74315 6.86689 5.50558 6.86604 5.26801C6.86541 5.08416 6.86511 4.90031 6.86507 4.71646C6.86504 4.60676 6.86487 4.49706 6.86435 4.38736C6.86387 4.28408 6.86381 4.18081 6.86406 4.07754C6.8641 4.02184 6.8637 3.96615 6.86328 3.91046C6.86452 3.65547 6.88993 3.43995 7.07884 3.25093C7.36591 3.05229 7.65712 3.05889 7.94727 3.24363Z" fill="#4C6589"/>
</svg>
