<svg width="38" height="38" viewBox="0 0 38 38" fill="none" xmlns="http://www.w3.org/2000/svg">
<circle cx="19" cy="19" r="18.5" stroke="#627A9C"/>
<path d="M17.492 15.32L17.268 18.218C17.576 17.9193 17.9027 17.7373 18.248 17.672C18.5933 17.5973 18.8687 17.56 19.074 17.56C19.578 17.56 20.026 17.6533 20.418 17.84C20.8193 18.0267 21.132 18.3393 21.356 18.778C21.58 19.2167 21.692 19.814 21.692 20.57C21.692 20.9433 21.636 21.3307 21.524 21.732C21.412 22.1333 21.23 22.5067 20.978 22.852C20.726 23.1973 20.39 23.4773 19.97 23.692C19.5593 23.8973 19.0507 24 18.444 24C18.0427 24 17.646 23.9627 17.254 23.888C16.8713 23.804 16.4887 23.65 16.106 23.426C15.9847 23.3513 15.9007 23.258 15.854 23.146C15.8073 23.0247 15.784 22.88 15.784 22.712V22.082C15.784 21.6153 15.9847 21.382 16.386 21.382C16.6567 21.382 16.848 21.452 16.96 21.592C17.072 21.7227 17.128 21.956 17.128 22.292V23.09C17.3147 23.174 17.4967 23.23 17.674 23.258C17.8513 23.2767 18.0847 23.286 18.374 23.286C18.8687 23.286 19.284 23.062 19.62 22.614C19.956 22.1567 20.124 21.5033 20.124 20.654C20.124 20.0567 20.04 19.5993 19.872 19.282C19.7133 18.9647 19.508 18.75 19.256 18.638C19.0133 18.5167 18.7707 18.456 18.528 18.456C18.2293 18.456 17.954 18.526 17.702 18.666C17.45 18.7967 17.254 18.974 17.114 19.198C17.0393 19.31 16.9507 19.3847 16.848 19.422C16.7547 19.4593 16.652 19.478 16.54 19.478C16.4187 19.478 16.3207 19.4453 16.246 19.38C16.1807 19.3147 16.148 19.2027 16.148 19.044L16.47 14.48C16.4793 14.2093 16.6427 14.074 16.96 14.074H21.062C21.286 14.074 21.4213 14.1393 21.468 14.27C21.5147 14.4007 21.538 14.5173 21.538 14.62C21.538 14.76 21.4913 14.914 21.398 15.082C21.3047 15.2407 21.1413 15.32 20.908 15.32H17.492Z" fill="#627A9C"/>
</svg>
