<svg width="15" height="15" viewBox="0 0 15 15" fill="none" xmlns="http://www.w3.org/2000/svg">
<path d="M7.07684 0H7.92364C8.03343 0.0336152 8.23873 0.0301929 8.36038 0.0459207C8.73245 0.0940452 9.09083 0.16089 9.4536 0.258004C11.3792 0.783545 13.0181 2.05059 14.0116 3.78177C14.4489 4.54437 14.7479 5.37838 14.8946 6.24519C14.9234 6.41195 14.9457 6.57978 14.9614 6.74828C14.9681 6.8179 14.9813 7.04511 15 7.10034V7.60042C14.953 7.72786 14.9325 7.81633 14.837 7.91887C14.7207 8.04346 14.5726 8.1186 14.4015 8.12534C14.2355 8.13215 14.0737 8.07232 13.9521 7.95916C13.7054 7.73042 13.7536 7.48323 13.7399 7.1736C13.6532 5.5268 12.9182 3.98123 11.6957 2.87454C10.4665 1.75592 8.84115 1.17499 7.18137 1.261C5.68616 1.33987 4.26868 1.95179 3.18582 2.98586C3.02292 3.1409 2.86864 3.30477 2.72369 3.47671C2.65028 3.5638 2.57727 3.66624 2.503 3.74759C2.64655 3.75607 2.85354 3.75004 3.00172 3.74996L3.93406 3.74948C4.20535 3.74941 4.53086 3.70669 4.75545 3.87966C4.88744 3.98082 4.97335 4.13071 4.99392 4.29574C5.01489 4.46125 4.9688 4.62827 4.86594 4.75961C4.63867 5.04976 4.3398 5.00461 4.01238 5.0046L3.24419 5.00428L2.31124 5.00475C2.11461 5.00486 1.8359 5.01522 1.6487 4.97972C1.43921 4.94126 1.24313 4.84956 1.0793 4.71346C0.825571 4.50519 0.664734 4.20484 0.632028 3.87821C0.617349 3.72048 0.624229 3.47227 0.624187 3.30836L0.6243 2.33625L0.624147 1.59842C0.624147 1.32212 0.58604 1.066 0.776418 0.840059C0.882011 0.716583 1.03231 0.640088 1.19428 0.627393C1.36276 0.613886 1.52973 0.667638 1.65868 0.776895C1.75074 0.856091 1.81697 0.961047 1.84883 1.07824C1.88635 1.21567 1.87595 1.42394 1.87583 1.57118L1.87533 2.17711C1.87526 2.3032 1.87211 2.44459 1.88087 2.56878C1.965 2.44152 2.22928 2.18577 2.34505 2.0745C3.30447 1.15993 4.48827 0.514797 5.77687 0.204279C6.0685 0.134657 6.36386 0.0816607 6.66152 0.0455495C6.76524 0.0321464 6.98852 0.0302377 7.07684 0Z" fill="#4C6589"/>
<path d="M0 7.38291C0.0257966 7.33625 0.042499 7.27736 0.0653816 7.22692C0.136047 7.07118 0.262258 6.95897 0.425335 6.90702C0.587506 6.85432 0.76407 6.86916 0.915169 6.9482C1.06199 7.02359 1.17202 7.15522 1.22019 7.31308C1.26372 7.45864 1.2545 7.76904 1.26617 7.94006C1.2855 8.21179 1.32228 8.48205 1.37628 8.74917C1.74855 10.5558 2.89728 12.1069 4.51682 12.9898C5.96182 13.7775 7.66004 13.9605 9.23972 13.4988C10.2525 13.2013 11.1739 12.6532 11.9186 11.905C12.0408 11.7849 12.1575 11.6593 12.2681 11.5285C12.3229 11.4634 12.4454 11.3037 12.4998 11.255C11.9606 11.2367 11.4079 11.2636 10.8673 11.2532C10.5894 11.2478 10.377 11.2765 10.1672 11.0523C10.0533 10.9305 9.99324 10.7679 10.0006 10.6014C10.0077 10.433 10.0811 10.2743 10.2045 10.1597C10.2921 10.0806 10.4005 10.0286 10.5169 10.0097C10.6053 9.99472 10.791 9.99926 10.888 9.99941L11.5066 9.99956L12.5717 9.99963C12.7709 9.99941 12.9716 9.9967 13.1698 10.0019C13.7147 10.0161 14.2096 10.416 14.3369 10.9459C14.3896 11.1653 14.3751 11.4371 14.3752 11.6649L14.3753 12.4193L14.3752 13.286C14.3752 13.4484 14.3801 13.6398 14.3708 13.7986C14.3597 13.9613 14.2841 14.1128 14.1606 14.2195C13.8924 14.4544 13.5151 14.4224 13.2775 14.1612C13.0937 13.9592 13.1243 13.7115 13.1249 13.4579L13.1257 12.8077C13.1258 12.7004 13.1305 12.5423 13.1221 12.4384C12.0481 13.6317 10.7268 14.4421 9.15776 14.8131C8.93313 14.8663 8.72754 14.9011 8.50115 14.9362C8.39832 14.9522 7.99482 14.9758 7.93015 15.0003H7.07219C7.01974 14.9816 6.79937 14.967 6.73106 14.9607C6.57336 14.9461 6.44213 14.929 6.2857 14.9028C5.52522 14.7782 4.78861 14.5366 4.10202 14.1867C2.23066 13.2295 0.843062 11.5356 0.273177 9.51242C0.185048 9.19543 0.117807 8.87295 0.0718869 8.54716C0.0581234 8.44756 0.0468199 8.34765 0.0379867 8.24753C0.0317416 8.17627 0.0234112 8.00144 0 7.93786V7.38291Z" fill="#4C6589"/>
</svg>
