<svg width="21" height="21" viewBox="0 0 21 21" fill="none" xmlns="http://www.w3.org/2000/svg">
<path d="M4.9859 6.95969C5.07327 6.95953 5.16063 6.95935 5.24799 6.95916C5.42989 6.95885 5.61178 6.95886 5.79368 6.95908C6.02624 6.95932 6.2588 6.95862 6.49136 6.95767C6.67128 6.95707 6.85119 6.95703 7.0311 6.95716C7.11687 6.95714 7.20263 6.95693 7.28839 6.95651C7.40817 6.95601 7.52791 6.95629 7.64769 6.95676C7.68267 6.95645 7.71766 6.95613 7.75371 6.95581C8.0666 6.95854 8.34357 7.03033 8.57179 7.25855C8.74537 7.50954 8.80684 7.73204 8.77647 8.03633C8.70828 8.32789 8.56394 8.48404 8.32362 8.66061C8.16924 8.75258 8.04886 8.77818 7.87094 8.77883C7.83767 8.77905 7.8044 8.77928 7.77012 8.77951C7.73397 8.77955 7.69781 8.77959 7.66057 8.77964C7.60302 8.77995 7.60302 8.77995 7.54431 8.78027C7.461 8.7807 7.37769 8.78106 7.29437 8.78133C7.16216 8.78182 7.02995 8.78261 6.89774 8.78351C6.52182 8.78603 6.14589 8.78824 5.76996 8.78961C5.53991 8.79047 5.30987 8.79192 5.07982 8.79373C4.99248 8.79431 4.90514 8.79467 4.81779 8.7948C3.9628 8.79621 3.19762 8.92422 2.55557 9.53377C2.00124 10.0973 1.80432 10.8229 1.80613 11.5911C1.80592 11.6377 1.80571 11.6844 1.80549 11.7325C1.80493 11.8856 1.80496 12.0388 1.80506 12.192C1.8049 12.2992 1.80472 12.4065 1.80452 12.5137C1.80419 12.7382 1.80422 12.9627 1.80445 13.1872C1.80469 13.4453 1.80419 13.7033 1.80332 13.9614C1.8025 14.2113 1.80239 14.4611 1.80253 14.711C1.80251 14.8165 1.8023 14.9221 1.80188 15.0277C1.78914 15.9876 1.78914 15.9876 2.08857 16.8887C2.10274 16.9161 2.11692 16.9434 2.13152 16.9716C2.45092 17.5633 2.97806 17.9742 3.60991 18.1857C4.02416 18.3077 4.4373 18.3173 4.86671 18.3167C4.91678 18.3168 4.96685 18.3169 5.01843 18.317C5.15634 18.3172 5.29425 18.3172 5.43216 18.3172C5.58131 18.3172 5.73047 18.3174 5.87962 18.3176C6.17146 18.3179 6.4633 18.3181 6.75514 18.3181C6.99253 18.3181 7.22992 18.3182 7.46731 18.3183C8.14137 18.3187 8.81543 18.3189 9.48949 18.3188C9.54392 18.3188 9.54392 18.3188 9.59946 18.3188C9.63579 18.3188 9.67212 18.3188 9.70956 18.3188C10.2981 18.3188 10.8867 18.3192 11.4752 18.3198C12.0805 18.3204 12.6858 18.3206 13.2911 18.3206C13.6305 18.3206 13.97 18.3207 14.3094 18.3211C14.5984 18.3215 14.8875 18.3216 15.1765 18.3213C15.3238 18.3212 15.471 18.3212 15.6182 18.3216C16.6763 18.324 17.623 18.3157 18.445 17.5514C18.9887 16.9818 19.1795 16.278 19.1814 15.5086C19.1817 15.4621 19.182 15.4156 19.1822 15.3677C19.1831 15.2142 19.1835 15.0608 19.1839 14.9073C19.1841 14.8547 19.1843 14.802 19.1844 14.7477C19.1852 14.4975 19.1858 14.2473 19.1861 13.9971C19.1865 13.7101 19.1876 13.4231 19.1893 13.136C19.1907 12.886 19.1912 12.636 19.1913 12.386C19.1915 12.2804 19.192 12.1748 19.1928 12.0692C19.1992 11.1196 19.1036 10.3825 18.5083 9.60725C18.3157 9.34344 18.3265 9.09384 18.3555 8.77318C18.4229 8.53941 18.6103 8.37516 18.8058 8.24101C19.0321 8.13275 19.2701 8.12295 19.5124 8.18153C20.0659 8.38632 20.3767 9.03095 20.6172 9.53049C20.872 10.1045 20.9876 10.6606 20.9879 11.2857C20.9883 11.3391 20.9886 11.3925 20.9889 11.4475C20.9898 11.5929 20.9902 11.7383 20.9904 11.8838C20.9906 11.9751 20.9908 12.0664 20.9911 12.1578C20.9921 12.4778 20.9926 12.7978 20.9928 13.1179C20.9929 13.4138 20.9942 13.7098 20.9959 14.0057C20.9973 14.2616 20.9979 14.5174 20.998 14.7733C20.998 14.9253 20.9983 15.0773 20.9995 15.2293C21.006 16.1203 20.9529 16.9395 20.5251 17.7381C20.5062 17.7766 20.4873 17.815 20.4678 17.8546C20.3184 18.1485 20.1251 18.3893 19.911 18.6387C19.879 18.6809 19.8469 18.7232 19.8138 18.7667C19.1309 19.5146 18.0926 20.0188 17.0865 20.1124C16.91 20.1186 16.7336 20.1185 16.5571 20.1184C16.4769 20.1187 16.4769 20.1187 16.395 20.1189C16.2469 20.1193 16.0989 20.1195 15.9508 20.1196C15.7909 20.1197 15.6311 20.1201 15.4712 20.1205C15.0852 20.1213 14.6992 20.1217 14.3133 20.1221C14.1312 20.1222 13.9491 20.1225 13.767 20.1227C13.1612 20.1234 12.5553 20.124 11.9494 20.1243C11.7923 20.1243 11.6352 20.1244 11.4781 20.1245C11.4391 20.1245 11.4 20.1245 11.3598 20.1246C10.7283 20.1249 10.0967 20.1259 9.46513 20.1273C8.81565 20.1286 8.16617 20.1294 7.5167 20.1295C7.15247 20.1296 6.78826 20.1299 6.42404 20.131C6.11365 20.1319 5.80326 20.1322 5.49287 20.1318C5.33483 20.1316 5.17679 20.1317 5.01875 20.1325C3.67998 20.1389 2.60623 19.9401 1.53082 19.089C1.49037 19.0582 1.49037 19.0582 1.44911 19.0267C1.22379 18.8466 1.05113 18.6205 0.875843 18.3931C0.850408 18.3601 0.824974 18.3272 0.798768 18.2932C0.260568 17.5607 0.00310265 16.7004 0.00494584 15.7985C0.00473662 15.7452 0.0045274 15.6918 0.00431184 15.6368C0.00376759 15.4915 0.0037396 15.3462 0.00384367 15.2008C0.00388775 15.0789 0.00368679 14.9569 0.00349138 14.835C0.00303848 14.5469 0.00301854 14.2587 0.00326683 13.9706C0.00351364 13.6749 0.0030108 13.3792 0.00213812 13.0835C0.00141308 12.8283 0.00117192 12.5731 0.00130454 12.3179C0.00137818 12.1661 0.0012769 12.0143 0.000702399 11.8625C8.40806e-05 11.6928 0.000476132 11.523 0.000948192 11.3533C0.000635288 11.3041 0.000322385 11.2549 0 11.2042C0.00719894 10.0234 0.546766 8.95388 1.37488 8.13128C1.85608 7.6749 2.47286 7.33585 3.10429 7.14342C3.13011 7.13543 3.15594 7.12745 3.18254 7.11922C3.77206 6.95271 4.37903 6.95922 4.9859 6.95969Z" fill="#26767D"/>
<path d="M18.3474 5.38047e-05C18.3871 0.000284669 18.4268 0.000515533 18.4677 0.000753392C19.1921 0.0130097 19.769 0.29284 20.2867 0.795745C20.8498 1.393 20.9956 2.08668 20.9864 2.87724C20.9777 3.16159 20.9276 3.39471 20.8112 3.65614C20.7964 3.69186 20.7815 3.72759 20.7663 3.7644C20.5456 4.2514 20.1464 4.61973 19.7737 4.99207C19.7233 5.04267 19.673 5.09329 19.6227 5.14392C19.487 5.28037 19.351 5.41656 19.2149 5.55268C19.1296 5.63802 19.0444 5.72341 18.9592 5.80882C18.6612 6.10757 18.363 6.40611 18.0646 6.70444C17.7877 6.98129 17.5113 7.2586 17.235 7.53612C16.9968 7.77543 16.7582 8.01443 16.5194 8.25318C16.3773 8.39531 16.2353 8.53756 16.0936 8.68014C15.9601 8.81437 15.8263 8.9482 15.6922 9.08174C15.6434 9.1304 15.5948 9.1792 15.5463 9.22816C15.0699 9.70918 14.5794 10.1 13.934 10.3287C13.8734 10.3512 13.8734 10.3512 13.8116 10.3742C13.3257 10.5283 12.8355 10.5187 12.3297 10.516C12.1756 10.5155 12.0216 10.5169 11.8676 10.5184C11.7688 10.5185 11.6701 10.5184 11.5713 10.5182C11.5257 10.5187 11.4801 10.5193 11.4331 10.5198C11.15 10.5165 10.9591 10.4738 10.741 10.2878C10.5703 10.1036 10.4855 9.95575 10.4835 9.70381C10.4829 9.66073 10.4824 9.61764 10.4819 9.57326C10.4818 9.52678 10.4817 9.4803 10.4816 9.43242C10.4813 9.38413 10.481 9.33585 10.4808 9.2861C10.4804 9.18366 10.4802 9.08122 10.4802 8.97878C10.48 8.82388 10.4785 8.66904 10.477 8.51416C10.4746 8.0038 10.4775 7.5355 10.6591 7.05382C10.6684 7.02857 10.6778 7.00332 10.6875 6.97731C10.9707 6.21839 11.5363 5.67941 12.0975 5.11693C12.1464 5.06774 12.1954 5.01853 12.2443 4.96932C12.4034 4.80932 12.5628 4.64952 12.7222 4.48973C12.7774 4.43436 12.8326 4.37899 12.8878 4.32362C13.147 4.06361 13.4064 3.8037 13.6658 3.54391C13.9641 3.24522 14.262 2.94619 14.5597 2.64687C14.7908 2.41458 15.0221 2.18261 15.2537 1.95087C15.3917 1.81285 15.5294 1.6747 15.6669 1.53622C15.7962 1.40599 15.9258 1.27616 16.0558 1.14661C16.1031 1.09928 16.1504 1.05181 16.1974 1.00419C16.8055 0.38921 17.4677 -0.00529944 18.3474 5.38047e-05ZM17.0094 2.74307C16.9621 2.79006 16.9149 2.83704 16.8676 2.88401C16.7141 3.03672 16.5607 3.18963 16.4074 3.34257C16.3542 3.39554 16.3011 3.44851 16.248 3.50148C15.9985 3.7502 15.7491 3.99901 15.4998 4.24795C15.2131 4.53419 14.9262 4.8201 14.6389 5.10572C14.416 5.32741 14.1933 5.54943 13.971 5.77168C13.8385 5.90404 13.7059 6.03627 13.573 6.16816C13.448 6.29216 13.3235 6.41654 13.1992 6.54123C13.1538 6.58668 13.1082 6.632 13.0625 6.67716C12.5876 7.14653 12.2522 7.63269 12.2446 8.3217C12.2457 8.45872 12.2497 8.59529 12.2556 8.73219C13.074 8.7581 13.5746 8.60275 14.1796 8.03628C14.3437 7.87774 14.5054 7.71687 14.6669 7.55558C14.7142 7.5084 14.7616 7.46122 14.809 7.41405C14.9365 7.28712 15.0638 7.16006 15.1911 7.03296C15.2708 6.9534 15.3505 6.87386 15.4302 6.79433C15.6801 6.54502 15.9299 6.29562 16.1795 6.0461C16.4669 5.75888 16.7546 5.47192 17.0425 5.1852C17.2658 4.96281 17.4888 4.74018 17.7117 4.51737C17.8445 4.38458 17.9775 4.2519 18.1106 4.11946C18.2357 3.99507 18.3605 3.87039 18.485 3.74548C18.5306 3.69981 18.5764 3.65425 18.6222 3.6088C19.0582 3.18305 19.0582 3.18305 19.2188 2.61196C19.2087 2.36293 19.1035 2.15314 18.9281 1.97777C18.1337 1.40574 17.5429 2.21084 17.0094 2.74307Z" fill="#26767D"/>
<path d="M6.56163 12.5038C6.83677 12.7473 6.9983 13.0413 7.02647 13.4067C7.04152 13.8294 6.97223 14.1258 6.70426 14.4556C6.4712 14.7022 6.17283 14.8543 5.83406 14.8823C5.4137 14.892 5.08851 14.8034 4.75757 14.5381C4.48617 14.2655 4.35938 13.9265 4.34277 13.5473C4.35469 13.14 4.51139 12.8366 4.79355 12.5506C5.30233 12.0853 6.01503 12.1142 6.56163 12.5038Z" fill="#26767D"/>
<path d="M10.8335 12.4471C11.1306 12.6901 11.3496 12.9655 11.3963 13.3579C11.4319 13.7921 11.3103 14.1707 11.0279 14.5041C10.7509 14.7718 10.4522 14.8765 10.0711 14.8904C9.66515 14.8786 9.3552 14.7564 9.06077 14.4752C8.75787 14.1181 8.70092 13.7306 8.73552 13.276C8.8234 12.9079 9.02515 12.6038 9.34444 12.401C9.82147 12.1386 10.3791 12.1234 10.8335 12.4471Z" fill="#26767D"/>
</svg>
