<svg width="254" height="173" viewBox="0 0 254 173" fill="none" xmlns="http://www.w3.org/2000/svg">
<path d="M70.8205 7.44238C73.9019 7.74613 74.847 10.1211 76.9459 12.1671C81.2419 16.3549 86.7292 16.7338 92.3659 15.9951C94.1173 15.7826 95.7992 15.4323 97.5681 15.388C102.735 15.2582 101.769 19.9478 101.634 23.5067C101.588 25.15 101.568 26.7938 101.573 28.4377C101.574 31.5078 101.851 34.5527 101.807 37.6198C101.781 39.4844 100.838 41.1717 98.8258 41.3555C95.8744 41.625 92.8565 41.5283 89.8849 41.602L81.979 41.8425C80.5007 41.8776 78.9837 41.9676 77.5098 41.8216C67.5068 40.8309 72.8458 27.0306 70.3471 24.1932C69.7912 23.5619 69.021 23.4002 68.2193 23.3665C67.5736 23.3394 66.9097 23.3999 66.3287 23.7052C64.2935 24.774 64.9013 27.7121 62.6448 28.7231C61.8408 29.0833 60.6641 29.0202 59.7926 29.0485C57.0819 29.1367 51.5939 28.9228 49.6022 30.8433C48.4736 31.9313 48.4158 34.2422 48.3744 35.714C48.2129 41.439 48.5364 47.2657 48.7133 52.9925C48.9512 62.2046 49.302 71.4135 49.766 80.6169C50.1089 87.235 50.6395 93.907 50.8807 100.531C51.2027 111.323 51.3406 122.121 51.2941 132.918C51.3011 138.273 51.2367 143.66 51.3693 149.007C51.4538 152.408 51.523 155.831 55.7553 156.017C60.1512 156.212 64.5315 155.96 68.9258 155.84L86.4718 155.356L120.36 154.481L145.579 153.84C149.12 153.736 152.668 153.777 156.216 153.543C159.78 153.267 161.236 152.707 161.45 148.89C161.667 145.021 161.323 141.253 161.301 137.412C161.236 128.649 161.1 119.887 160.891 111.126C160.788 107.206 160.64 103.296 160.472 99.3714C160.355 96.6019 160.903 93.9332 164.258 93.8209C168.004 93.6954 171.779 94.2412 175.536 94.2111C178.778 94.1849 181.902 93.5769 185.119 93.4409C190.15 93.2943 193.703 96.5751 195.813 100.84C198.366 105.998 200.81 111.181 203.297 116.358C207.367 124.925 211.608 133.41 216.016 141.808C217.063 143.804 221.983 151.867 221.897 153.426C221.878 153.777 221.762 154.078 221.489 154.308C220.875 154.826 219.698 154.828 218.932 154.869C216.59 154.995 214.201 154.708 211.85 154.718C201.925 154.702 192.001 154.477 182.085 154.045C179.96 153.868 176.917 153.65 175.026 154.736C171.567 156.722 174.207 161.655 172.074 164.211C170.427 166.184 165.548 165.866 163.174 165.952L154.712 166.277C144.23 166.631 134.146 167.062 123.642 167.098C119.882 167.11 116.122 167.089 112.363 167.039C109.462 166.995 106.974 166.795 104.053 167.043C98.1941 167.525 92.5165 169.277 86.7403 170.28C83.4819 170.845 80.233 171.979 77.3919 169.657C80.1197 168.865 83.5016 168.155 86.308 167.46C83.8302 167.415 60.2037 167.313 59.8093 167.553C59.538 169.474 61.8966 170.437 61.9409 172.036C61.8078 172.333 61.7799 172.422 61.5007 172.586C58.9817 174.061 45.2302 171.168 41.9788 170.585C40.1077 170.251 38.1394 170.097 36.2997 169.634C35.1879 169.354 34.0745 168.992 33.4837 167.926C33.1553 167.333 33.0401 166.643 33.2105 165.986C33.7731 165.305 35.2367 165.168 36.2592 164.827C36.5629 164.51 36.8657 164.053 37.1266 163.689C30.0314 159.464 20.0251 158.265 12.1558 155.764C7.69038 154.345 5.20415 153.224 1.21904 150.812C2.81527 150.54 4.59144 150.291 6.21167 150.318C13.1546 150.43 17.4787 152.004 24.1944 149.479C22.2771 147.569 17.7498 144.215 15.5632 142.562C9.85597 138.247 4.95086 134.559 0 129.32C2.16681 130.021 4.16055 130.611 6.32067 131.389C11.2155 133.154 17.5365 135.934 22.6798 136.484C22.0575 135.082 20.5815 133.046 19.6401 131.827C17.1154 128.56 15.6325 126.523 14.3528 122.582C21.4865 127.226 30.4492 132.503 33.9447 140.62C36.0822 145.583 33.6897 148.493 40.0963 150.911C40.0247 144.933 40.2296 138.909 40.1653 132.903C39.7904 113.551 39.2726 94.202 38.612 74.8576C38.3866 68.084 38.0455 61.3146 37.5885 54.5527C36.9923 46.5136 36.2701 38.7214 36.3349 30.734C36.4551 15.8813 50.4543 18.3409 60.7982 17.2387C68.5451 16.4132 64.906 8.28849 70.8205 7.44238ZM173.295 104.991C174.8 108.34 177.469 107.588 180.592 107.912C181.468 108.003 182.973 107.893 183.5 108.831C184.628 113.363 175.183 110.208 174.473 112.816C172.941 118.437 184.447 112.45 183.325 118.509C183.236 118.997 182.583 119.516 182.157 119.684C178.764 120.927 176.84 119.269 173.885 121.913C174.854 122.379 175.854 122.855 176.93 123C179.386 123.329 185.46 122.112 186.523 125.175C186.716 125.731 186.755 126.617 186.456 127.142C186.147 127.687 185.57 127.951 184.982 128.087C182.407 128.685 178.836 128.11 176.406 128.679C175.896 128.797 175.37 128.993 175.067 129.448C174.841 129.787 174.794 130.265 174.886 130.657C174.969 131.009 175.13 131.275 175.45 131.454C178.506 133.158 190.565 130.126 191.992 134.089C192.278 134.883 192.541 136.082 192.124 136.857C191.877 137.317 191.503 137.515 191.011 137.637C190.84 137.679 190.674 137.702 190.497 137.717C186.028 138.104 181.464 138.036 177.005 138.436C175.174 138.601 174.822 140.212 174.997 141.732C175.137 143.238 176.355 144.191 177.816 144.233C179.936 144.389 182.031 144.322 184.147 144.368L194.663 144.525C197.345 144.574 200.218 144.901 202.851 144.424C203.829 144.248 204.084 143.074 203.77 142.217C202.974 140.056 201.902 138.02 200.895 135.948L195.961 125.74L189.576 112.412C188.52 110.211 187.27 107.313 185.982 105.317C184.644 103.241 179.252 101.886 176.955 102.221C174.965 102.518 174.064 103.102 173.295 104.991ZM85.6367 30.0717C87.5409 29.4036 90.9651 28.5676 90.1784 25.7751C89.9337 24.9068 88.4492 24.754 87.6911 24.7027C86.1468 24.8243 84.3987 24.9191 83.402 26.2545C81.6217 28.6395 83.5416 29.703 85.6367 30.0717Z" fill="#4C6589"/>
<path d="M174.069 1.85678C178.561 1.41431 180.163 2.58634 182.901 6.08236C185.939 9.96161 184.729 9.85981 180.715 10.154C179.066 10.2905 177.418 10.4388 175.771 10.5991C169.733 11.1767 163.652 11.9507 157.587 12.1079C153.957 12.2019 150.33 12.0159 146.702 11.9379C139.243 11.7777 131.7 11.7793 124.263 12.4237C122.666 12.562 121.016 12.6395 119.433 12.8868C118.789 12.9875 117.751 13.2618 117.395 13.8472C116.919 14.6295 118.418 22.9713 118.587 24.5179C119.338 31.4076 119.556 38.4423 119.595 45.3707C119.63 51.7373 119.6 58.1252 119.922 64.4854C120.043 66.8814 120.025 69.4949 120.69 71.814C123.193 80.5394 134.327 75.1404 139.942 78.3837C142.922 80.1046 143.876 85.8711 144.715 88.9726C150.771 75.8812 160.381 77.5667 172.667 77.3534C176.826 77.2812 181.012 77.042 185.159 76.6888C187.384 76.4992 189.652 76.4085 191.857 76.0519C196.433 75.2692 199.062 71.3845 199.093 66.8968C199.107 64.7525 199.023 62.6362 198.982 60.4951L198.753 47.5438C198.704 44.5837 198.703 41.623 198.749 38.6629C198.782 36.7951 198.934 34.0321 198.834 32.3034C198.522 26.9949 196.649 22.6846 198.035 17.2406C198.248 16.0994 198.417 14.9148 199.102 13.9425C200.704 11.6667 205.242 12.8014 205.939 15.3217C206.757 18.2722 206.561 21.8713 206.9 24.9992C206.876 26.2843 207.076 28.3371 207.147 29.7154C207.31 32.9589 207.439 36.2041 207.532 39.4504C207.771 51.3551 207.396 62.9339 205.693 74.7392C204.153 85.4136 193.138 85.1221 184.697 85.5653C179.831 85.8305 174.961 86.0054 170.09 86.0901C166.991 86.1463 161.951 85.9254 159.315 87.3661C155.137 89.6505 151.171 95.7778 147.752 99.2614C144.963 102.103 143.448 103.825 140.305 106.204C139.249 102.795 138.271 99.3521 137.242 95.9342C136.541 93.6107 136.205 90.6373 135.105 88.5258C133.986 86.3753 130.265 86.2658 128.202 85.9567C120.279 84.8175 113.396 83.5494 111.686 74.4039C110.636 68.7845 110.713 63.9072 110.595 58.2295C110.43 49.2943 110.409 40.3571 110.532 31.4211C110.562 26.6894 110.662 21.6531 110.528 16.9624C110.161 4.13035 118.939 3.78049 128.624 3.41951C132.34 3.27083 136.056 3.14144 139.772 3.0312L174.069 1.85678Z" fill="#4C6589"/>
<path d="M176.198 23.7648C178.098 23.6437 184.379 26.2616 183.652 29.0062C183.157 30.4238 182.029 31.8195 181.146 33.0073C174.559 41.8742 167.783 50.6125 161.749 59.8736C160.635 61.5049 159.652 63.3391 158.504 64.9366C155.586 68.9977 152.037 67.082 149.512 63.7756C147.928 61.702 146.434 59.5714 144.939 57.4247C143.668 55.695 142.556 54.1802 141.125 52.5758C140.099 51.4268 138.266 50.1469 137.563 48.9296C138.812 45.7859 142.56 40.418 145.392 38.6499C150.329 40.7719 150.358 45.5157 153.811 48.4036C155.668 49.9559 159.383 43.4552 160.47 42.0427C164.888 36.3055 169.556 30.5037 174.2 24.9338C174.704 24.3294 175.485 24.0192 176.198 23.7648Z" fill="#4C6589"/>
<path d="M95.5064 101.684C97.4051 101.537 98.5307 102.016 99.5996 103.621C101.13 105.92 99.2138 108.112 97.9127 109.883C93.8598 115.406 89.1395 120.408 83.8591 124.774C82.9277 125.554 81.3463 126.887 80.3225 127.426C77.0122 129.167 73.5765 123.107 71.3989 121.453C70.4988 120.769 70.3122 120.665 69.1734 120.288C69.0468 121.807 68.3702 127.095 69.8236 127.974C72.8435 129.801 77.9242 129.122 81.3825 129.132C83.064 129.136 84.7509 129.149 86.4164 128.998C88.5218 128.803 89.6349 127.825 90.0629 125.765C90.2788 124.702 90.2289 123.541 90.9018 122.637C91.3909 121.98 92.5858 122.002 93.0747 122.579C93.9961 123.665 94.3128 126.044 94.3884 127.418C94.4687 128.875 93.9648 130.484 92.926 131.509C90.7777 133.627 87.579 133.419 84.8016 133.559C83.1036 133.645 81.4393 133.733 79.7531 133.732C76.5579 133.897 68.8995 134.709 66.2622 133.54C65.0892 133.02 64.231 132.112 63.7791 130.91C63.5081 130.19 63.3842 129.398 63.3599 128.631C63.2698 125.778 63.5968 122.895 63.5674 120.029C63.5453 117.863 63.4665 115.662 63.3846 113.495C63.3373 112.246 63.224 110.979 63.2966 109.73C63.3501 108.808 63.5 107.888 63.8945 107.045C64.419 105.925 65.3018 105.184 66.4643 104.784C67.1443 104.549 67.8714 104.433 68.5874 104.385C70.6402 104.246 72.7349 104.385 74.7945 104.339C77.3059 104.283 79.9496 104.006 82.4501 104.236C82.9935 104.286 83.5557 104.415 84.0411 104.669C84.5893 104.956 84.9262 105.585 85.0781 106.172C85.1613 106.482 85.1147 106.812 84.949 107.087C83.794 109.012 73.8348 108.485 71.4778 109.292C70.8601 109.504 69.7523 109.761 69.5064 110.419C68.8032 112.301 69.4362 112.609 71.1459 113.084C72.6095 113.753 73.6861 114.772 75.17 115.39C81.1779 117.894 84.7064 112.059 87.7807 107.997C89.0042 106.414 93.7157 102.414 95.5064 101.684Z" fill="#4C6589"/>
<path d="M94.5959 64.0164C96.4062 63.798 97.7868 64.6446 98.6102 66.2125C99.9723 68.8061 97.7968 70.5161 96.3168 72.2129C94.6407 74.1239 92.9489 76.0209 91.2413 77.9037C88.1105 81.3621 84.862 84.8828 81.5839 88.2141C81.2876 88.5152 80.3248 89.2802 79.9242 89.4222C76.3649 90.6835 74.5366 85.6144 72.474 83.6635C71.2154 82.4732 70.7573 82.1395 69.2217 81.5329C69.0573 83.3115 67.6453 89.1521 69.5117 90.4865C71.9627 91.9766 75.1512 91.4501 77.8763 91.5741C81.4871 91.7384 85.5543 93.0229 88.2168 89.7993C89.1517 88.6673 89.392 86.1894 90.6444 85.7095C91.2329 85.7551 91.8188 86.1036 92.2165 86.5121C94.5861 88.6142 93.5353 94.0891 90.6457 95.2665C87.4139 96.5833 81.1594 96.2911 77.5489 96.3187C73.9673 96.2983 70.1541 96.5234 66.6036 96.2174C64.1949 96.0098 62.3931 93.8153 62.3099 91.4279C62.2023 88.3407 62.3862 85.1363 62.3871 81.9972C62.3961 79.9564 62.3678 77.9157 62.3021 75.8759C62.2482 74.0397 62.1077 72.1594 62.3421 70.3311C62.4375 69.5876 62.8024 68.7845 63.2651 68.192C64.1574 67.049 65.4868 66.683 66.8719 66.5216C70.1398 66.1412 73.672 66.4325 76.9615 66.4302C78.9341 66.4288 81.1073 66.1612 83.0554 66.4139C83.6143 66.4865 84.1916 66.6642 84.6283 67.0327C85.0028 67.3487 85.1448 67.7069 85.1742 68.1903C85.2166 68.8871 85.1078 69.4346 84.6141 69.9545C82.9775 71.6783 74.8618 71.131 72.2325 71.3069C71.1321 71.3805 69.7618 71.5516 69.0255 72.477C68.5129 73.1212 68.3928 74.2362 68.4883 75.0362C68.5302 75.3874 68.696 75.6462 68.9772 75.8595C69.5628 76.3038 70.5813 76.0298 71.2575 75.9481C72.3638 76.5498 73.407 77.2872 74.6219 77.7117C80.1266 79.6347 83.1962 74.7435 86.3084 71.3004C88.1223 69.2938 92.2387 65.1158 94.5959 64.0164Z" fill="#4C6589"/>
<path d="M237.537 35.4873C237.818 35.8014 238.971 39.0714 239.263 39.786C240.426 42.6444 241.615 45.1337 243.655 47.483C246.003 50.1849 250.039 52.0936 253.618 52.2818C248.379 55.7401 242.389 58.2094 238.624 63.5868C237.5 65.1925 237.24 67.6018 235.034 66.443C234.698 66.0211 234.232 65.0195 233.962 64.4879C230.639 57.9504 223.443 54.6092 218.652 49.3947C229.05 48.9753 232.548 43.4481 237.537 35.4873Z" fill="#4C6589"/>
<path d="M215.652 104.675C216.32 105.119 219.648 108.67 220.485 109.544C229.146 118.583 234.58 125.695 238.21 137.711C235.997 139.214 233.985 139.475 231.403 140.013C230.216 140.309 229.035 140.622 227.855 140.951C226.373 140.492 226.124 140.144 225.403 138.78C221.165 130.784 217.148 122.651 212.867 114.68C215.134 113.492 217.253 115.361 218.31 114.607C218.209 113.885 217.676 112.085 217.456 111.274L215.652 104.675Z" fill="#4C6589"/>
<path d="M18.1002 85.9004C19.2636 87.0289 21.4312 91.9074 23.0533 93.5792C25.45 96.0493 27.4402 96.7362 30.8633 96.9817C27.0743 99.6848 22.3777 101.846 19.6167 105.758C18.9063 106.764 18.7282 108.012 17.1902 108.04C15.8279 107.186 15.2982 104.791 13.5393 103.265C10.4363 100.573 7.21334 98.9185 4.13818 96.1664C5.52187 96.0043 6.88641 95.7073 8.21236 95.2799C13.3359 93.6005 15.7815 90.4469 18.1002 85.9004Z" fill="#4C6589"/>
<path d="M225.437 75.7227C229.065 80.4442 229.661 84.0571 236.522 85.2749C232.403 89.2525 228.88 89.9524 226.182 95.5432C225.77 95.4569 223.988 93.4345 223.606 92.9913C220.986 89.954 219.091 87.8836 215.298 86.2751C220.9 83.3361 222.294 80.9138 225.437 75.7227Z" fill="#4C6589"/>
<path d="M122.793 121.156C124.999 120.994 136.751 121.35 138.32 122.556C138.834 122.951 139.205 123.54 139.247 124.196C139.285 124.793 138.926 125.63 138.504 126.053C138.084 126.474 137.52 126.622 136.95 126.703C135.554 126.903 134.064 126.783 132.655 126.751L124.403 126.513C123.638 126.499 121.369 126.491 120.542 126.345C118.919 126.057 109.667 126.448 108.797 125.586C106.431 122.88 111.419 121.54 113.09 121.437C116.401 121.231 119.502 121.334 122.793 121.156Z" fill="#4C6589"/>
<path d="M123.505 110.302C125.665 110.129 135.978 109.91 137.171 111.009C137.496 111.309 137.669 111.74 137.691 112.177C137.713 112.637 137.58 113.079 137.264 113.421C136.937 113.777 136.525 113.966 136.055 114.053C134.995 114.25 133.738 114.084 132.658 114.095C129.48 114.141 126.303 114.171 123.126 114.185C117.312 114.188 113.824 113.749 108.378 111.975C113.493 110.926 118.302 110.486 123.505 110.302Z" fill="#4C6589"/>
<path d="M186.128 0.0203081C189.912 -0.0416424 197.599 -0.269148 198.402 4.96859C198.529 5.80844 196.424 7.11425 195.758 7.59465C191.665 10.201 189.065 7.11578 186.063 4.77968C183.967 3.14865 182.906 1.01379 186.128 0.0203081Z" fill="#4C6589"/>
<path d="M126.494 100.571C127.564 100.369 130.084 100.575 130.532 101.829C131.342 104.097 130.48 105.874 127.855 105.692C125.391 105.52 123.983 104.886 121.599 105.75C120.072 105.423 118.742 105.508 117.185 105.526C115.84 105.702 112.753 105.917 112.515 104.032C111.918 99.3106 119.053 101.399 121.675 101.169C123.304 101.026 124.885 100.786 126.494 100.571Z" fill="#4C6589"/>
<path d="M114.608 87.4247C116.316 87.3956 119.142 87.087 120.278 88.7908C120.508 89.1353 120.812 89.7201 120.732 90.1389C119.644 91.1286 113.726 90.8091 112.069 90.7896C110.806 90.6651 106.884 90.6483 106.32 90.1484C103.168 87.356 113.661 87.4669 114.608 87.4247Z" fill="#4C6589"/>
</svg>
