<svg width="46" height="46" viewBox="0 0 46 46" fill="none" xmlns="http://www.w3.org/2000/svg">
<circle cx="23" cy="23" r="22" stroke="#4C6589" stroke-width="2"/>
<path d="M21.0234 16.9648H24.1348L25.1895 17.123L26.2441 17.4395L27.1406 17.8613L27.9316 18.3887L28.5117 18.8633L29.0918 19.4434L29.6191 20.1289L30.3574 21.3418L31.043 22.4492L31.2012 22.7129V22.8184L31.4648 22.9238L32.5195 23.6094L34.0488 24.6113L35.4199 25.5078L35.8418 25.877L36 26.1934V26.9316L35.7363 27.3535L35.4199 27.6172L35.0508 27.7227H34.6816L34.1543 27.5117L33.3633 26.9844L31.9922 26.0879L30.6211 25.1914L29.6719 24.5586L29.3027 24.1367L28.4062 22.6602L27.6152 21.3945L27.1406 20.8145L27.0879 20.7617L27.0352 28.6719L27.5098 28.8301L28.9336 29.5156L30.4102 30.2012L32.3086 31.0977L32.9414 31.4141L33.4688 31.9414L33.7324 32.5215L33.7852 32.7852V33.3125L33.5742 33.998L33.2578 34.4199L32.8359 34.7891L32.2559 35H21.0234L20.707 34.8418L20.4434 34.5781L20.2324 34.1562V33.5762L20.4434 33.1543L20.8125 32.8379L21.0762 32.7324L30.1465 32.6797L28.248 31.7832L26.7715 31.0977L25.2949 30.4121L24.9258 30.0957L24.7148 29.5684V19.3906L24.1875 19.3379H20.9707L20.2852 19.4434V29.5684L20.0742 30.0957L19.7051 30.4121L17.8066 31.3086L16.3301 31.9941L14.8535 32.6797L17.1738 32.7324L17.5957 32.9434L17.9121 33.3125L18.0176 33.5762V34.1562L17.7539 34.6836L17.3848 34.9473L17.2266 35H12.7441L12.1641 34.7891L11.6367 34.3145L11.373 33.8926L11.2148 33.3125V32.7324L11.4258 32.0996L11.7949 31.625L12.2168 31.3086L13.6934 30.623L15.6973 29.6738L17.4902 28.8301L17.9648 28.6719L17.9121 20.9727L17.543 21.3945L16.8047 22.7129L16.1191 23.9258L15.5918 24.875L15.1699 25.2441L14.2734 25.8242L12.9023 26.7207L11.5312 27.6172L10.6348 28.1973L10.4766 28.25H9.79102L9.36914 28.0391L9.05273 27.6172L9 27.459V26.7734L9.1582 26.457L9.42188 26.1934L9.94922 25.8242L11.0039 25.1387L12.375 24.2422L13.7461 23.3457L14.4316 22.0801L15.1172 20.8672L15.5918 20.0762L16.1719 19.3379L16.8047 18.7051L17.5957 18.125L18.4395 17.6504L19.2305 17.334L20.2324 17.0703L21.0234 16.9648Z" fill="#4C6589"/>
<path d="M21.8672 8H23.1328L23.9766 8.26367L24.5566 8.63281L24.9258 8.94922L25.4004 9.58203L25.6641 10.1621L25.8223 10.7949V11.9551L25.6113 12.7461L25.2949 13.3262L24.8203 13.9062L24.2402 14.3281L23.7129 14.5918L23.1328 14.75H21.8672L21.0234 14.4863L20.3906 14.1172L19.916 13.6953L19.4941 13.1152L19.2305 12.5879L19.0723 12.0078L19.0195 11.1641L19.1777 10.3203L19.3887 9.79297L19.7578 9.26562L20.127 8.84375L20.8125 8.36914L21.4453 8.10547L21.8672 8Z" fill="#4C6589"/>
</svg>
