<svg width="37" height="40" viewBox="0 0 37 40" fill="none" xmlns="http://www.w3.org/2000/svg">
<path d="M15.0409 0.890094C14.6849 1.17246 14.3654 1.49315 14.0425 1.81215C13.6325 2.18492 13.2066 2.54062 12.7855 2.90088C12.4924 3.1519 12.2006 3.40443 11.9096 3.65795C11.4631 4.04691 11.0119 4.42769 10.5516 4.80043C10.2877 5.01951 10.0356 5.25063 9.78218 5.48177C9.58449 5.65753 9.38159 5.82429 9.17562 5.99022C8.78013 6.31037 8.40664 6.64955 8.03388 6.99542C7.86791 7.14855 7.70049 7.29817 7.52931 7.44534C6.76758 8.1089 6.0414 8.81164 5.32623 9.52478C5.26932 9.58136 5.21241 9.63795 5.15378 9.69625C4.79883 10.0524 4.46117 10.4188 4.1359 10.8022C4.075 10.8739 4.075 10.8739 4.01287 10.947C3.41217 11.6609 2.8643 12.3932 2.36959 13.1842C2.33784 13.2341 2.30609 13.2841 2.27338 13.3356C1.2314 14.9852 0.560135 16.7986 0.219315 18.7165C0.193031 18.8635 0.193031 18.8635 0.166218 19.0134C-0.503796 23.6029 0.890163 28.4434 3.63253 32.1377C4.76939 33.6347 6.12125 35.0121 7.6685 36.0819C7.74494 36.1356 7.74494 36.1356 7.82292 36.1903C10.2892 37.9054 13.0705 38.9164 16.0392 39.3091C16.0964 39.3171 16.1536 39.325 16.2125 39.3332C16.884 39.414 17.5622 39.4047 18.2375 39.4052C18.3374 39.4053 18.3374 39.4053 18.4393 39.4053C19.5223 39.404 20.5781 39.3543 21.6453 39.1555C21.7147 39.1427 21.7841 39.1299 21.8556 39.1168C25.1572 38.4852 28.1253 36.9751 30.6013 34.7109C30.7667 34.5608 30.9353 34.4159 31.1056 34.2715C31.4134 34.0021 31.6732 33.7053 31.9359 33.3926C32.0295 33.2861 32.0295 33.2861 32.1249 33.1774C34.504 30.4546 35.984 26.993 36.3901 23.4037C36.3973 23.3411 36.4046 23.2785 36.412 23.214C36.4766 22.593 36.4855 21.972 36.4861 21.3482C36.4862 21.2927 36.4862 21.2372 36.4863 21.18C36.485 19.7397 36.3196 18.3379 35.9293 16.9493C35.9152 16.8976 35.9012 16.846 35.8867 16.7928C35.2867 14.648 34.1296 12.6671 32.6271 11.0327C32.5896 10.9914 32.5521 10.9501 32.5134 10.9075C31.8306 10.163 31.1374 9.63507 30.0943 9.54699C29.113 9.52592 28.3152 9.67568 27.5586 10.3412C27.5164 10.3782 27.4742 10.4151 27.4307 10.4532C27.0339 10.825 26.7853 11.2445 26.5266 11.7195C26.4851 11.794 26.4436 11.8685 26.4008 11.9453C26.2995 12.1273 26.1991 12.3098 26.0995 12.4926C26.0741 12.4926 26.0488 12.4926 26.0227 12.4926C26.0119 12.4449 26.0012 12.3972 25.9901 12.348C25.1812 8.78694 23.8109 2.85496 20.5453 0.7004C18.8216 -0.28653 16.6842 -0.236855 15.0409 0.890094ZM19.1111 3.96362C19.2343 4.14466 19.3474 4.32208 19.4566 4.51109C19.4889 4.56664 19.5212 4.6222 19.5544 4.67944C20.3574 6.09295 21.0171 7.5838 21.5685 9.11177C21.5945 9.18304 21.6205 9.2543 21.6473 9.32773C22.1607 10.7509 22.5098 12.2089 22.8602 13.6786C22.8798 13.7595 22.8994 13.8404 22.9197 13.9238C22.9365 13.9941 22.9534 14.0644 22.9708 14.1369C23.1823 14.8807 23.5903 15.463 24.2597 15.8576C25.1018 16.2897 25.9547 16.3855 26.8887 16.2106C28.2875 15.7548 28.9872 14.3516 29.6237 13.1236C29.6518 13.0675 29.6799 13.0114 29.7089 12.9537C30.0368 13.2128 30.3113 13.4821 30.568 13.8133C30.6038 13.8594 30.6396 13.9055 30.6765 13.9531C31.7396 15.3533 32.4221 16.8658 32.8575 18.5629C32.8783 18.6426 32.8783 18.6426 32.8996 18.7239C33.7543 22.1754 32.6985 26.1069 30.9376 29.0897C29.9644 30.6458 28.7001 32.038 27.2514 33.1621C27.2007 33.1367 27.15 33.1114 27.0978 33.0853C27.1238 33.0081 27.1497 32.9309 27.1764 32.8514C28.1257 29.97 27.5207 27.0853 26.2531 24.4026C26.2078 24.3064 26.2078 24.3064 26.1617 24.2083C25.194 22.1844 23.8345 20.3135 22.3674 18.6238C22.2582 18.4968 22.1511 18.368 22.0488 18.2354C21.3474 17.3446 20.1432 16.7794 19.0343 16.6419C17.4141 16.5346 16.0281 16.8617 14.7577 17.9331C14.4724 18.2041 14.2307 18.5019 13.9916 18.8139C13.8746 18.9656 13.7556 19.1155 13.6364 19.2655C11.0287 22.5603 8.45907 26.6713 8.91771 31.0525C8.97099 31.4264 9.04795 31.7942 9.12762 32.1632C9.15864 32.3312 9.18912 32.4992 9.21881 32.6675C9.23957 32.7811 9.26036 32.8948 9.28121 33.0084C6.13596 30.7669 4.23365 27.2862 3.56323 23.5297C3.32981 21.9638 3.28059 20.1826 3.67512 18.6397C3.68956 18.5806 3.70401 18.5214 3.71888 18.4605C4.21009 16.4993 5.20269 14.7851 6.51656 13.261C6.58211 13.1815 6.6475 13.1019 6.71275 13.0221C7.17669 12.4608 7.67237 11.937 8.18687 11.4217C8.24769 11.3608 8.30851 11.2999 8.37117 11.2371C8.69542 10.9158 9.02621 10.6065 9.37199 10.3085C9.57189 10.1352 9.76444 9.95487 9.95797 9.7745C10.317 9.4422 10.6883 9.13024 11.0694 8.82333C11.2861 8.64396 11.4934 8.45712 11.7003 8.26655C12.036 7.95768 12.3821 7.66722 12.7367 7.38051C13.1056 7.07721 13.4642 6.76226 13.8242 6.44855C14.1082 6.2011 14.3944 5.95626 14.6809 5.71168C15.1146 5.34094 15.5396 4.9614 15.9624 4.57832C16.8422 3.72889 16.8422 3.72889 17.9543 3.3249C18.4638 3.37691 18.7749 3.59244 19.1111 3.96362ZM19.6486 20.4838C19.9071 20.7785 20.1413 21.0876 20.3747 21.4023C20.4982 21.5659 20.6253 21.726 20.7538 21.8858C21.3967 22.6884 21.9656 23.518 22.4901 24.4026C22.5245 24.4604 22.559 24.5182 22.5945 24.5778C23.7458 26.5294 24.7776 28.9019 24.266 31.215C23.9969 32.2072 23.475 33.0884 22.7973 33.8536C22.7575 33.8998 22.7177 33.946 22.6767 33.9935C21.5842 35.1744 19.9045 36.0112 18.3026 36.0891C16.5719 36.0424 14.9763 35.2803 13.7724 34.0516C12.6526 32.8604 12.1468 31.3893 12.1631 29.7759C12.2167 28.1736 12.8401 26.7203 13.5818 25.3246C13.6111 25.2689 13.6404 25.2132 13.6706 25.1559C15.2647 22.107 15.2647 22.107 17.7287 19.9459C18.4565 19.7499 19.0997 19.9972 19.6486 20.4838Z" fill="#D4863C"/>
</svg>
