<svg width="24" height="24" viewBox="0 0 24 24" fill="none" xmlns="http://www.w3.org/2000/svg">
<path fill-rule="evenodd" clip-rule="evenodd" d="M21.4393 0.43934C22.0251 -0.146447 22.9746 -0.146447 23.5604 0.43934C24.1461 1.02514 24.1462 1.97469 23.5604 2.56043L14.121 11.9999L23.5604 21.4393C24.1461 22.0251 24.1462 22.9747 23.5604 23.5604C22.9747 24.1462 22.0251 24.1461 21.4393 23.5604L11.9999 14.121L2.56043 23.5604C1.97468 24.1462 1.02514 24.1461 0.43934 23.5604C-0.146447 22.9746 -0.146446 22.0251 0.43934 21.4393L9.87879 11.9999L0.43934 2.56043C-0.146447 1.97465 -0.146447 1.02513 0.43934 0.43934C1.02513 -0.146447 1.97465 -0.146447 2.56043 0.43934L11.9999 9.87879L21.4393 0.43934Z" fill="#627A9C"/>
</svg>
