<svg width="93" height="87" viewBox="0 0 93 87" fill="none" xmlns="http://www.w3.org/2000/svg">
<path d="M41.0644 5.88209C43.1522 7.69189 44.9663 9.70889 46.3327 12.1289C46.3327 12.2489 46.3327 12.3688 46.3327 12.4924C46.4524 12.4924 46.572 12.4924 46.6953 12.4924C46.7678 12.2935 46.7678 12.2935 46.8419 12.0906C48.8853 7.29495 54.1449 3.60971 58.8244 1.69104C64.9246 -0.698284 71.3618 -0.546579 77.3648 2.08857C79.5915 3.10384 81.646 4.33648 83.4942 5.95024C83.6468 6.0833 83.7993 6.21636 83.9566 6.35345C84.4124 6.7584 84.8607 7.17023 85.3069 7.58577C85.4277 7.69494 85.5485 7.8041 85.673 7.91657C87.5742 9.70995 88.9981 12.0074 90.2013 14.3096C90.3112 14.5179 90.421 14.7261 90.5342 14.9407C92.3938 18.6133 93.0016 22.536 92.9998 26.6102C92.9999 26.8578 92.9999 26.8578 93 27.1105C92.9931 29.8391 92.7793 32.3944 92.0141 35.0264C91.9626 35.2066 91.9111 35.3868 91.8581 35.5725C90.3045 40.8718 87.7349 45.7769 84.5818 50.2914C84.4066 50.5457 84.2315 50.8001 84.0564 51.0545C82.8993 52.7257 81.6875 54.3425 80.4125 55.9249C80.2769 56.094 80.1414 56.2631 80.0018 56.4374C78.4371 58.3727 76.8188 60.261 75.1289 62.0874C74.8089 62.4337 74.4917 62.7819 74.176 63.1322C72.899 64.5474 71.5715 65.9063 70.2234 67.2533C69.8625 67.6142 69.5025 67.976 69.1426 68.338C67.1164 70.3703 67.1164 70.3703 66.0403 71.286C65.4759 71.771 64.943 72.2901 64.4036 72.8027C63.4567 73.6962 62.493 74.5421 61.477 75.3561C61.0069 75.7404 60.5578 76.141 60.1096 76.5508C59.1715 77.4057 58.195 78.2053 57.2092 79.0041C56.9861 79.1878 56.763 79.3716 56.5401 79.5556C54.8644 80.9356 53.1534 82.2568 51.4084 83.5472C51.1073 83.7706 50.8061 83.9939 50.5049 84.2173C48.8749 85.4246 48.8749 85.4246 48.3415 85.8116C48.0941 85.9951 47.851 86.1846 47.6131 86.3804C47.2851 86.6429 47.2851 86.6429 46.6953 87C45.848 86.8796 45.1306 86.1764 44.4633 85.6598C44.204 85.4617 43.9445 85.2636 43.6851 85.0656C43.553 84.9643 43.4209 84.8629 43.2848 84.7585C42.7852 84.3769 42.2816 84.0007 41.7778 83.6247C39.1075 81.6298 36.5118 79.5473 33.9758 77.3833C33.3628 76.8612 32.7417 76.3511 32.1139 75.8466C31.205 75.1059 30.3478 74.3176 29.4961 73.5123C28.8339 72.8864 28.1575 72.2807 27.4709 71.6817C25.3911 69.8565 23.4421 67.8878 21.4867 65.9312C21.3137 65.7585 21.3137 65.7585 21.1373 65.5823C18.902 63.3487 18.902 63.3487 17.9457 62.2214C17.5503 61.7559 17.1325 61.3129 16.7169 60.8655C15.9525 60.0352 15.2245 59.1839 14.5182 58.3029C14.1769 57.8799 13.8322 57.4614 13.483 57.045C10.6507 53.6581 8.13924 50.0489 5.90931 46.2377C5.74793 45.9652 5.58104 45.696 5.41337 45.4274C3.44327 42.2186 2.0384 38.6406 1.0139 35.0264C0.964773 34.857 0.915643 34.6877 0.865024 34.5132C0.146462 31.9275 0.0193122 29.3685 0.00555918 26.7011C0.00393805 26.546 0.00231693 26.391 0.000646687 26.2313C-0.0494458 19.0866 2.81308 12.6896 7.72109 7.58577C7.82835 7.46888 7.9356 7.35199 8.04611 7.23155C16.7894 -2.05286 31.6029 -2.10801 41.0644 5.88209Z" fill="#76DDE6"/>
</svg>
