<svg width="20" height="21" viewBox="0 0 20 21" fill="none" xmlns="http://www.w3.org/2000/svg">
<path d="M9.19596 0H10.3424C10.4633 0.0424287 10.7247 0.0453269 10.8635 0.0653898C11.2479 0.119492 11.6282 0.199683 12.0017 0.305408C14.1564 0.918379 15.9646 2.39077 17.0023 4.37737C17.53 5.38542 17.7744 6.48743 18.0777 7.58141L19.0068 10.9319L19.6439 13.2307C19.7338 13.5556 19.9215 14.1658 19.969 14.4734C20.0301 14.8671 20.0007 15.2696 19.8832 15.6502C19.6739 16.3242 19.203 16.886 18.5761 17.2094C18.3054 17.3501 18.0122 17.4422 17.7097 17.4816C17.4743 17.5136 17.2504 17.5067 17.0136 17.5066L16.1814 17.5063L14.8771 17.5062C14.711 17.5064 14.5038 17.5163 14.3451 17.5115C14.2836 17.7611 14.2375 17.9441 14.1462 18.1842C13.7965 19.1024 13.1485 19.8764 12.3063 20.3816C11.9133 20.6173 11.4865 20.7915 11.0407 20.8984C10.9376 20.9231 10.5503 20.9707 10.4982 21H9.64287C9.56072 20.9674 9.2332 20.9313 9.118 20.9045C8.72496 20.8133 8.37032 20.684 8.01411 20.4958C7.10493 20.0141 6.39445 19.2272 6.0075 18.2734C5.94075 18.1063 5.88342 17.9357 5.8358 17.7623C5.81718 17.6957 5.80602 17.5153 5.72916 17.5116C5.48538 17.4999 5.23771 17.5067 4.99294 17.5061L3.33116 17.5065C2.99593 17.5066 2.56498 17.5223 2.24225 17.4729C1.96163 17.4322 1.68961 17.3455 1.43707 17.2164C0.814351 16.9009 0.342865 16.3502 0.126839 15.686C0.0176828 15.3478 -0.0216348 14.991 0.0112743 14.6372C0.045911 14.2923 0.19763 13.6921 0.277129 13.3342L0.780556 11.0665L1.50558 7.80042C1.64133 7.18833 1.79026 6.42477 1.96276 5.83587C2.10618 5.34855 2.29543 4.87593 2.52797 4.42434C3.54726 2.43306 5.34133 0.949936 7.48786 0.32407C7.85744 0.216952 8.23378 0.134717 8.61434 0.0779142C8.74959 0.0569893 9.09043 0.0398093 9.19596 0ZM10.3221 15.7496L15.3168 15.7494L16.7295 15.7495C17.176 15.7499 17.6619 15.8294 17.9909 15.4907C18.1444 15.3327 18.2509 15.1239 18.2466 14.8915C18.215 14.5368 18.0444 14.0233 17.9463 13.6705L17.4023 11.7072L16.3619 7.95457L16.0649 6.88238C15.9312 6.39999 15.8313 6.02555 15.6278 5.56354C15.2992 4.81942 14.8311 4.14521 14.2489 3.57742C13.0415 2.39213 11.4119 1.7373 9.72069 1.75787L9.69344 1.75828C7.97205 1.77583 6.33089 2.48905 5.14297 3.73581C4.56497 4.34043 4.11207 5.05338 3.8103 5.83371C3.62143 6.32127 3.53867 6.71419 3.4265 7.22033L3.18397 8.31286L2.33337 12.1441L1.94028 13.9126C1.87565 14.2021 1.76553 14.6131 1.74957 14.9007C1.73855 15.0993 1.8707 15.37 2.01584 15.5036C2.14772 15.625 2.31984 15.7217 2.50366 15.7374C2.77289 15.7604 3.07382 15.75 3.34667 15.7497L4.91188 15.7495L10.3221 15.7496ZM11.8365 18.5364C12.0952 18.2975 12.4358 17.8433 12.5124 17.5021C12.1898 17.5166 11.7925 17.506 11.4616 17.5061H9.48707L8.23663 17.5062C8.07708 17.5063 7.74479 17.5169 7.60304 17.5011C7.83316 18.1582 8.31667 18.6958 8.94561 18.9937C9.56513 19.2899 10.2769 19.3271 10.9239 19.0972C11.2641 18.9766 11.5751 18.7855 11.8365 18.5364Z" fill="white"/>
</svg>
