<svg width="18" height="17" viewBox="0 0 18 17" fill="none" xmlns="http://www.w3.org/2000/svg">
<path d="M2.95446 0.00463429C3.00544 0.00449381 3.05642 0.00430966 3.10741 0.00408608C3.24633 0.00360371 3.38524 0.00374211 3.52416 0.00399091C3.67445 0.00415058 3.82473 0.003729 3.97502 0.00338568C4.26899 0.00280951 4.56296 0.00277984 4.85693 0.00295614C5.09601 0.00309218 5.33509 0.00304309 5.57417 0.00286382C5.60826 0.00283868 5.64236 0.00281354 5.67749 0.00278763C5.74676 0.00273619 5.81603 0.00268451 5.88531 0.00263261C6.53422 0.00217199 7.18313 0.00235392 7.83204 0.00273961C8.42488 0.00307316 9.01772 0.00263863 9.61056 0.00183484C10.2202 0.00101455 10.8298 0.000693001 11.4395 0.000916201C11.7814 0.0010333 12.1233 0.0009599 12.4652 0.000370302C12.7562 -0.000125437 13.0473 -0.000144017 13.3384 0.000439867C13.4867 0.000724833 13.635 0.000800156 13.7833 0.000283613C13.9194 -0.000184575 14.0555 -1.7669e-05 14.1917 0.000627566C14.2406 0.000752956 14.2895 0.000658402 14.3383 0.000304695C14.7798 -0.0026584 15.2218 0.0652845 15.6147 0.277993C15.6368 0.289584 15.659 0.301175 15.6818 0.313118C16.375 0.685312 16.8609 1.26161 17.1182 2.00229C17.2488 2.45054 17.2355 2.89787 17.234 3.36141C17.2341 3.45427 17.2344 3.54714 17.2347 3.64C17.2353 3.86492 17.2352 4.08983 17.2348 4.31474C17.2345 4.49772 17.2344 4.6807 17.2346 4.86368C17.2346 4.88983 17.2346 4.91599 17.2346 4.94294C17.2347 4.99609 17.2347 5.04925 17.2348 5.1024C17.2352 5.59949 17.2347 6.09658 17.234 6.59368C17.2334 7.01915 17.2335 7.44462 17.2341 7.87009C17.2348 8.36554 17.2351 8.861 17.2347 9.35645C17.2347 9.40939 17.2346 9.46234 17.2346 9.51529C17.2346 9.54133 17.2345 9.56737 17.2345 9.5942C17.2344 9.77672 17.2346 9.95924 17.2349 10.1418C17.2353 10.3645 17.2352 10.5873 17.2345 10.8101C17.2341 10.9235 17.234 11.0369 17.2344 11.1503C17.2361 11.7124 17.2317 12.2495 16.9584 12.7573C16.9469 12.7793 16.9355 12.8013 16.9236 12.824C16.5721 13.4787 15.9965 13.9967 15.2857 14.2321C15.0078 14.3144 14.7495 14.3666 14.4585 14.3623C14.4117 14.3618 14.3649 14.3613 14.3182 14.3608C14.2937 14.3604 14.2692 14.3601 14.244 14.3598C14.0852 14.358 13.9264 14.3582 13.7676 14.3581C13.6288 14.3578 13.49 14.3569 13.3512 14.3545C13.2161 14.3523 13.0811 14.3519 12.9459 14.3527C12.8949 14.3527 12.8439 14.352 12.7929 14.3506C12.4644 14.3423 12.2564 14.3979 12.0137 14.6262C11.9673 14.6719 11.9214 14.7181 11.8755 14.7644C11.8336 14.7992 11.7912 14.8332 11.7477 14.866C11.5183 15.0417 11.2977 15.2247 11.0804 15.4151C10.94 15.5379 10.7968 15.656 10.6502 15.7714C10.5475 15.8537 10.4473 15.9387 10.3471 16.0241C10.1651 16.1789 9.98065 16.3299 9.79284 16.4776C9.7571 16.5064 9.72136 16.5352 9.68563 16.5641C9.48805 16.7218 9.29736 16.8684 9.05382 16.9479C9.03455 16.9542 9.01528 16.9606 8.99543 16.9672C8.53731 17.0534 8.11856 16.9701 7.7343 16.7133C7.61268 16.6231 7.50221 16.5239 7.39156 16.4208C7.30699 16.3432 7.21995 16.2705 7.1307 16.1984C6.98576 16.0811 6.84358 15.9611 6.7024 15.8393C6.56385 15.7199 6.42453 15.6019 6.28251 15.4866C6.11987 15.3546 5.96095 15.2187 5.8023 15.0819C5.65313 14.9536 5.50174 14.8284 5.3485 14.705C5.25796 14.63 5.25796 14.63 5.20949 14.5722C5.0665 14.4161 4.95236 14.3776 4.74161 14.3667C4.64244 14.3652 4.54345 14.3666 4.44428 14.3681C4.39089 14.3681 4.3375 14.3679 4.28412 14.3676C4.14386 14.3671 4.00365 14.3679 3.8634 14.3691C3.63986 14.3708 3.41632 14.3707 3.19277 14.3702C3.11554 14.3702 3.03833 14.371 2.9611 14.3718C2.15637 14.3761 1.45006 14.1171 0.863091 13.5607C0.347153 13.0448 0.0102448 12.3786 0.00402245 11.64C0.00422434 11.6047 0.0044262 11.5693 0.0046342 11.5329C0.00445329 11.4941 0.0042724 11.4553 0.00408601 11.4153C0.00360923 11.2865 0.00384423 11.1578 0.00408422 11.029C0.00394756 10.9361 0.00366182 10.8433 0.00338559 10.7504C0.00281041 10.5252 0.00277955 10.2999 0.00295605 10.0747C0.00309229 9.89139 0.00304284 9.70812 0.00286379 9.52485C0.00283865 9.49868 0.00281332 9.47251 0.00278742 9.44555C0.00273597 9.39237 0.00268452 9.33919 0.00263262 9.28601C0.00217237 8.78825 0.00235355 8.29048 0.00273949 7.79272C0.00307299 7.33835 0.00263864 6.88399 0.00183481 6.42963C0.00101373 5.96196 0.000693026 5.49429 0.000916033 5.02662C0.00103296 4.76451 0.000960885 4.5024 0.000370147 4.24029C-0.000126581 4.01715 -0.000142756 3.79401 0.000439857 3.57086C0.000724034 3.45724 0.000728009 3.34364 0.000283523 3.23002C-0.00175391 2.66586 0.00236031 2.12863 0.277993 1.61956C0.289584 1.59743 0.301175 1.57529 0.313118 1.55248C0.6767 0.875255 1.26073 0.351451 1.99957 0.118432C2.3201 0.0263941 2.62241 0.00312763 2.95446 0.00463429ZM1.96597 1.79802C1.94497 1.81486 1.92397 1.83171 1.90233 1.84906C1.64237 2.08184 1.48194 2.4412 1.45587 2.78783C1.45337 2.88322 1.45298 2.9784 1.45334 3.07382C1.45321 3.11025 1.45309 3.14668 1.45295 3.18422C1.45261 3.30593 1.45274 3.42763 1.45287 3.54934C1.45273 3.63676 1.45255 3.72418 1.45235 3.8116C1.45193 4.0242 1.45186 4.2368 1.45194 4.4494C1.452 4.62231 1.45194 4.79522 1.4518 4.96814C1.45178 4.99278 1.45176 5.01743 1.45174 5.04282C1.4517 5.0929 1.45166 5.14297 1.45162 5.19305C1.45125 5.66234 1.45133 6.13164 1.45153 6.60093C1.4517 7.02965 1.45133 7.45837 1.45069 7.8871C1.45004 8.32789 1.44976 8.76868 1.44989 9.20947C1.44995 9.45671 1.44987 9.70394 1.44939 9.95118C1.44895 10.1838 1.44903 10.4164 1.44947 10.649C1.44955 10.7342 1.44946 10.8194 1.44918 10.9046C1.44883 11.0212 1.4491 11.1378 1.44953 11.2545C1.44928 11.2879 1.44903 11.3213 1.44878 11.3557C1.45213 11.796 1.57027 12.1612 1.86756 12.4899C2.29625 12.9001 2.82278 12.9266 3.38638 12.9261C3.47059 12.9261 3.55478 12.9265 3.63899 12.9271C3.87809 12.9286 4.11718 12.9294 4.35628 12.9297C4.50334 12.9298 4.65038 12.9306 4.79743 12.9319C4.85308 12.9322 4.90874 12.9323 4.9644 12.9321C5.34153 12.9309 5.60372 12.9503 5.8899 13.2255C6.00388 13.332 6.11914 13.434 6.24052 13.532C6.38386 13.6481 6.5248 13.7665 6.66461 13.8868C6.94854 14.131 7.23267 14.3749 7.5233 14.6111C7.68544 14.7431 7.84425 14.8786 8.00264 15.0151C8.19445 15.1801 8.38864 15.3421 8.58354 15.5034C8.72719 15.4113 8.85782 15.3111 8.98664 15.199C9.13972 15.0675 9.29529 14.9405 9.45482 14.8169C9.63974 14.6734 9.81826 14.5238 9.99521 14.3706C10.1332 14.2513 10.2738 14.1359 10.4169 14.0228C10.5056 13.9524 10.5933 13.8809 10.6809 13.8091C10.7118 13.7839 10.7427 13.7586 10.7745 13.7325C10.8357 13.6822 10.8969 13.6318 10.9579 13.5814C11.1268 13.4421 11.2974 13.3051 11.4703 13.1709C11.4886 13.1566 11.5069 13.1423 11.5257 13.1276C11.7107 12.985 11.815 12.9421 12.0516 12.9408C12.0758 12.9406 12.1001 12.9404 12.1251 12.9401C12.1777 12.9397 12.2304 12.9394 12.283 12.9392C12.3667 12.9389 12.4503 12.9382 12.534 12.9374C12.712 12.9358 12.89 12.9347 13.068 12.9337C13.2735 12.9325 13.479 12.931 13.6845 12.9291C13.7663 12.9284 13.8481 12.9281 13.9298 12.9279C14.4748 12.9242 14.9641 12.8683 15.3776 12.4772C15.6314 12.1995 15.776 11.8601 15.7766 11.4818C15.7767 11.4507 15.7768 11.4196 15.777 11.3876C15.7769 11.3368 15.7769 11.3368 15.7769 11.2849C15.777 11.2487 15.7771 11.2125 15.7772 11.1752C15.7775 11.0537 15.7775 10.9321 15.7776 10.8106C15.7777 10.7235 15.7779 10.6364 15.7781 10.5493C15.7785 10.3126 15.7787 10.0758 15.7789 9.83909C15.779 9.69115 15.7791 9.54321 15.7793 9.39527C15.7797 8.98535 15.78 8.57544 15.7801 8.16552C15.7801 8.13929 15.7802 8.11307 15.7802 8.08605C15.7802 8.05976 15.7802 8.03347 15.7802 8.00639C15.7802 7.95313 15.7802 7.89986 15.7802 7.8466C15.7802 7.82017 15.7802 7.79375 15.7802 7.76653C15.7804 7.33878 15.781 6.91103 15.7818 6.48327C15.7825 6.0437 15.783 5.60413 15.783 5.16456C15.783 4.91792 15.7832 4.67128 15.7838 4.42465C15.7844 4.19252 15.7845 3.9604 15.7842 3.72827C15.7841 3.64323 15.7843 3.55819 15.7846 3.47316C15.7851 3.35672 15.7849 3.24031 15.7845 3.12387C15.7848 3.09053 15.785 3.05718 15.7853 3.02282C15.7823 2.58388 15.6652 2.21486 15.3655 1.88908C14.969 1.51436 14.5414 1.45182 14.0146 1.45312C13.9661 1.45299 13.9175 1.45284 13.8689 1.45266C13.736 1.45225 13.6031 1.45225 13.4702 1.45233C13.3266 1.45235 13.183 1.45197 13.0394 1.45166C12.7584 1.4511 12.4773 1.45091 12.1962 1.45088C11.9677 1.45084 11.7391 1.45071 11.5106 1.45049C10.8621 1.4499 10.2137 1.44959 9.56519 1.44964C9.53026 1.44965 9.49532 1.44965 9.45933 1.44965C9.40687 1.44965 9.40687 1.44965 9.35334 1.44966C8.7866 1.44969 8.21986 1.44904 7.65312 1.4481C7.0707 1.44713 6.48828 1.44667 5.90587 1.44672C5.57908 1.44675 5.2523 1.44656 4.92551 1.44584C4.64727 1.44523 4.36903 1.44508 4.09079 1.44554C3.94895 1.44576 3.80713 1.44576 3.66529 1.44518C3.53519 1.44465 3.40512 1.44475 3.27502 1.44533C3.22821 1.44543 3.18139 1.44531 3.13458 1.44494C2.69881 1.44167 2.31022 1.5187 1.96597 1.79802Z" fill="#D66674"/>
<path d="M8.40267 4.09142C8.48676 4.15303 8.5479 4.1946 8.65015 4.21686C8.73768 4.17279 8.73768 4.17279 8.82021 4.09929C9.20226 3.80305 9.67304 3.59983 10.1618 3.57862C10.2128 3.57602 10.2128 3.57602 10.2648 3.57337C11.009 3.55341 11.6507 3.81655 12.1895 4.32459C12.4544 4.60518 12.6436 4.9331 12.7819 5.29179C12.7958 5.32769 12.8097 5.36359 12.824 5.40057C13.0792 6.18545 12.9104 7.01437 12.5533 7.73392C12.3372 8.15026 12.0748 8.52698 11.7742 8.88611C11.7487 8.91724 11.7232 8.94838 11.6969 8.98047C11.4763 9.24778 11.2411 9.49684 10.9952 9.74099C10.9342 9.80167 10.8735 9.8627 10.8129 9.92377C10.5837 10.1532 10.3491 10.3643 10.0946 10.5657C10.058 10.5967 10.0215 10.6279 9.98542 10.6595C9.77304 10.8444 9.55369 11.0183 9.32828 11.1871C9.3018 11.2073 9.27532 11.2274 9.24804 11.2482C9.01491 11.4205 8.78046 11.5489 8.48219 11.5063C8.27264 11.4411 8.12061 11.3493 7.94892 11.2144C7.92544 11.1964 7.90196 11.1783 7.87776 11.1597C7.81022 11.1076 7.74306 11.0551 7.67599 11.0024C7.64494 10.9782 7.6139 10.9541 7.58191 10.9292C7.0583 10.5161 6.56673 10.0688 6.09508 9.59783C6.07747 9.58025 6.05986 9.56268 6.04172 9.54457C5.7809 9.28341 5.53999 9.01819 5.32457 8.71815C5.29408 8.67838 5.26346 8.63871 5.23272 8.59913C4.70926 7.91824 4.29377 7.11458 4.30213 6.23866C4.30243 6.20037 4.30273 6.16207 4.30304 6.12261C4.31795 5.39528 4.63691 4.71605 5.16081 4.21056C6.05719 3.42964 7.46024 3.33395 8.40267 4.09142ZM6.06359 5.39257C5.84805 5.68183 5.71153 6.03616 5.76126 6.40032C5.87781 6.99035 6.19793 7.45139 6.56747 7.91195C6.59002 7.9404 6.59002 7.9404 6.61303 7.96944C6.83948 8.25279 7.09243 8.51008 7.34847 8.76643C7.36432 8.78232 7.38017 8.79821 7.3965 8.81458C7.58458 9.0026 7.77593 9.18391 7.97832 9.35639C8.00194 9.37706 8.02557 9.39774 8.04991 9.41904C8.12282 9.48275 8.1964 9.54559 8.27014 9.60833C8.30707 9.6408 8.30707 9.6408 8.34474 9.67393C8.36875 9.6942 8.39276 9.71447 8.4175 9.73534C8.43884 9.75373 8.46017 9.77211 8.48215 9.79105C8.5494 9.83432 8.5494 9.83432 8.63519 9.82032C8.75461 9.78072 8.83719 9.70335 8.92938 9.62092C8.95834 9.5957 8.95834 9.5957 8.98788 9.56996C9.0435 9.52143 9.09877 9.47252 9.15403 9.42357C9.20091 9.38297 9.24779 9.34238 9.29469 9.3018C9.33739 9.26402 9.38008 9.22623 9.42276 9.18843C9.44536 9.16894 9.46797 9.14946 9.49125 9.12938C9.92466 8.7496 10.3534 8.34042 10.6992 7.87835C10.7294 7.83951 10.7595 7.80067 10.7897 7.76183C11.1299 7.31759 11.5162 6.7588 11.4825 6.172C11.4311 5.81407 11.3074 5.49455 11.0226 5.2603C10.7572 5.07309 10.5207 5.01968 10.1954 5.05665C9.87365 5.13539 9.63188 5.26787 9.45779 5.55187C9.3405 5.80578 9.34342 6.05194 9.3395 6.32704C9.33257 6.57244 9.30512 6.77123 9.14143 6.96508C8.95031 7.12434 8.80417 7.18433 8.55449 7.18015C8.33724 7.15846 8.1854 7.07208 8.0455 6.9042C7.93967 6.74923 7.90773 6.62587 7.90523 6.44008C7.90477 5.88142 7.90477 5.88142 7.66129 5.39467C7.61869 5.36037 7.61869 5.36037 7.57522 5.32539C7.55166 5.30252 7.5281 5.27966 7.50383 5.2561C7.04731 4.94844 6.43827 4.96554 6.06359 5.39257Z" fill="#D66674"/>
</svg>
