<svg width="28" height="34" viewBox="0 0 28 34" fill="none" xmlns="http://www.w3.org/2000/svg">
<mask id="path-1-inside-1_541_2953" fill="white">
<path d="M18.859 23.9466C18.859 25.0511 17.9525 25.969 16.8758 25.7223C15.2613 25.3524 13.7684 24.5349 12.5785 23.3448C10.9127 21.6789 9.97696 19.4195 9.97696 17.0636C9.97696 14.7077 10.9127 12.4483 12.5785 10.7824C13.7684 9.59233 15.2613 8.7748 16.8758 8.40489C17.9525 8.15821 18.859 9.07609 18.859 10.1807V17.0636V23.9466Z"/>
</mask>
<path d="M18.859 23.9466C18.859 25.0511 17.9525 25.969 16.8758 25.7223C15.2613 25.3524 13.7684 24.5349 12.5785 23.3448C10.9127 21.6789 9.97696 19.4195 9.97696 17.0636C9.97696 14.7077 10.9127 12.4483 12.5785 10.7824C13.7684 9.59233 15.2613 8.7748 16.8758 8.40489C17.9525 8.15821 18.859 9.07609 18.859 10.1807V17.0636V23.9466Z" fill="#4C6589" stroke="#4C6589" stroke-width="6" mask="url(#path-1-inside-1_541_2953)"/>
<mask id="path-2-inside-2_541_2953" fill="white">
<path fill-rule="evenodd" clip-rule="evenodd" d="M18.4916 16.7631C18.3925 16.6147 18.1259 16.5194 17.8164 16.5217C17.3679 16.525 17.2418 16.6488 17.2452 17.0823C17.2485 17.5175 17.3592 17.712 17.6349 17.7672C18.1439 17.869 18.547 17.5886 18.5453 17.1342C18.5447 16.9734 18.5205 16.8065 18.4916 16.7631ZM16.7082 14.5446C16.6039 14.448 16.4556 14.3689 16.3787 14.3689C16.1925 14.3689 15.8313 14.5871 15.7872 14.7262C15.7678 14.7874 15.7794 15.2613 15.8133 15.7792C15.8482 16.3146 15.8469 17.3192 15.8104 18.1076L15.7461 19.4943L15.9318 19.6556C16.4815 20.1333 17.058 19.5622 16.7933 18.8021C16.6384 18.3573 16.6361 15.9317 16.7903 15.5627C16.9633 15.1485 16.9313 14.7515 16.7082 14.5446ZM14.9681 12.9297C14.7462 12.7078 14.4796 12.6621 14.1465 12.7887C14.0185 12.8373 13.9432 12.943 13.8866 13.1531C13.7937 13.4981 13.8444 13.8067 14.0494 14.1441C14.1927 14.3799 14.1949 14.4474 14.1474 17.1512C14.1051 19.5556 14.0836 19.9339 13.9826 20.0455C13.8546 20.1869 13.7728 20.783 13.8429 21.0625C13.9097 21.3284 14.0839 21.4656 14.355 21.4656C14.9345 21.4656 15.1526 21.1655 15.068 20.4843C15.0395 20.2552 15.0075 18.7927 14.9967 17.2342C14.9812 14.9687 14.9972 14.3435 15.0764 14.1159C15.1308 13.9593 15.1759 13.6755 15.1765 13.4852C15.1774 13.1976 15.1422 13.1039 14.9681 12.9297ZM14.9482 11.4442C14.8197 11.3156 14.4991 11.3404 14.3644 11.4893C14.2256 11.6426 14.2088 11.9376 14.3318 12.0606C14.4611 12.19 14.9382 12.1701 14.9907 12.0333C15.0624 11.8464 15.04 11.536 14.9482 11.4442ZM14.8765 22.1251C14.7365 21.985 14.3334 22.0188 14.2483 22.1777C14.1487 22.3638 14.1544 22.6359 14.2601 22.7416C14.3658 22.8472 14.6378 22.853 14.8239 22.7534C14.9828 22.6683 15.0166 22.2652 14.8765 22.1251ZM14.8431 10.044C14.7638 9.96475 14.4237 9.9902 14.3318 10.0822C14.2845 10.1295 14.2458 10.2521 14.2458 10.3546C14.2458 10.5799 14.3655 10.713 14.5683 10.713C14.6511 10.713 14.7575 10.6743 14.8048 10.627C14.8963 10.5355 14.9233 10.1241 14.8431 10.044ZM14.7744 23.6532C14.7036 23.5825 14.5698 23.5452 14.4339 23.5585C14.2299 23.5784 14.2099 23.6027 14.2099 23.8312C14.2099 24.0629 14.2281 24.0838 14.4475 24.1049C14.8374 24.1423 15.0162 23.8951 14.7744 23.6532ZM14.6055 1.23785C14.5358 1.00688 14.449 0.891616 14.0425 0.489684C13.6669 0.118431 13.3563 0.00158626 12.7405 9.23822e-06C12.1057 -0.00171115 11.6862 0.243663 11.3557 0.809968C11.0081 1.40552 11.0031 1.42638 10.7657 3.23433C10.7321 3.49095 10.6531 3.60314 10.2103 4.02364C8.73903 5.42105 8.36825 6.0951 8.36825 7.37287C8.36825 8.3158 8.79752 8.91823 9.48806 8.9444C9.95862 8.96217 10.0834 8.78547 10.1052 8.07064C10.1453 6.75559 10.1206 6.68305 9.6436 6.71237C9.49745 6.72133 9.35603 6.70685 9.32929 6.68018C9.26314 6.61395 9.8215 5.70263 10.1731 5.3032C10.3303 5.12449 10.5214 4.97826 10.5975 4.97826C10.7314 4.97826 10.7347 5.02987 10.6954 6.50154C10.6476 8.28963 10.5548 9.13959 10.3867 9.32719C10.3212 9.40024 10.0586 9.7016 9.80301 9.99686C9.54741 10.2922 9.13175 10.7596 8.87923 11.0356C8.62679 11.3116 8.28754 11.7093 8.12541 11.9195C7.2632 13.0373 7.22142 13.1042 7.22142 13.3652C7.22142 13.7762 7.42598 13.8935 7.80107 13.6978C8.03846 13.5738 8.12419 13.6352 8.47046 14.1766C8.69825 14.5327 8.72326 14.6104 8.64356 14.7138C8.59224 14.7804 8.37226 15.0488 8.15465 15.3104C7.93704 15.572 7.67499 15.8943 7.57242 16.0268C7.40519 16.2426 7.37294 16.257 7.26191 16.1649C7.06616 16.0023 6.70749 15.237 6.7558 15.0848C6.77938 15.0105 6.85837 14.9307 6.93127 14.9076C7.18457 14.8272 7.18766 14.27 6.93521 14.1898C6.72003 14.1215 6.19034 14.2798 6.04849 14.4549C5.93703 14.5923 5.9204 14.7066 5.94822 15.1418C5.97717 15.5932 6.03072 15.7593 6.34409 16.3699L6.70656 17.0759L6.34552 17.6338C6.03502 18.1137 5.97947 18.2544 5.94857 18.6397C5.90442 19.1899 5.94979 19.3843 6.18848 19.668C6.33427 19.8413 6.43096 19.8886 6.64004 19.8886C6.78634 19.8886 6.94474 19.8498 6.99205 19.8025C7.14372 19.6509 7.09404 19.2831 6.89887 19.1134C6.80031 19.0277 6.71968 18.9242 6.71968 18.8834C6.71968 18.7616 7.12953 17.9874 7.24457 17.8919C7.33294 17.8186 7.40018 17.856 7.63936 18.1113C7.79791 18.2805 8.0052 18.5319 8.09996 18.6699C8.19472 18.8079 8.35943 19.0479 8.46601 19.2033C8.57267 19.3586 8.64363 19.528 8.6237 19.5798C8.60385 19.6316 8.4562 19.8481 8.2955 20.0609C8.00528 20.4453 8.00205 20.4471 7.79677 20.3448C7.35789 20.1258 7.04502 20.4169 7.21016 20.8907C7.28449 21.1039 7.60668 21.577 7.77254 21.7165C7.81949 21.7559 7.99961 21.9817 8.17293 22.2183C8.34624 22.4548 8.79774 23.0032 9.17626 23.4369C9.55479 23.8706 9.98557 24.3647 10.1336 24.5349C10.3571 24.792 10.4119 24.9193 10.4573 25.2876C10.5143 25.7505 10.551 28.9838 10.4999 29.0351C10.4338 29.101 9.9541 28.6505 9.73162 28.3136C9.60066 28.1152 9.43387 27.8656 9.36098 27.7588C9.141 27.4365 9.18386 27.3437 9.55271 27.3437C9.84042 27.3437 9.88551 27.3215 9.95231 27.1466C9.99467 27.0357 10.0174 26.5938 10.0043 26.137C9.98385 25.424 9.96349 25.3116 9.83763 25.2174C9.64417 25.0726 9.02854 25.1236 8.77279 25.3055C8.26898 25.6639 8.10319 26.5444 8.35334 27.5336C8.54178 28.2788 8.85952 28.7723 9.73097 29.6734C10.1122 30.0677 10.4623 30.4621 10.5089 30.55C10.5555 30.6378 10.6263 31.0572 10.6662 31.4819C10.7521 32.3947 10.8126 32.6364 11.0747 33.1136C11.2181 33.3747 11.3776 33.5359 11.6654 33.7104C12.0415 33.9385 12.086 33.9482 12.633 33.9209C13.2845 33.8883 13.5721 33.7684 13.9434 33.3747C14.3463 32.9474 14.4229 32.7462 14.424 32.1107C14.4252 31.4035 14.2745 31.1161 13.7541 30.8328C13.333 30.6035 12.9806 30.5889 12.5968 30.7848C12.2366 30.9686 12.1428 31.1505 12.1844 31.5843C12.2291 32.0495 12.3893 32.2182 12.7861 32.2182C13.0661 32.2182 13.1004 32.1991 13.1394 32.0211C13.2267 31.6224 13.2338 31.6148 13.3871 31.7536C13.6608 32.0014 13.4901 32.626 13.0741 32.8986C12.4624 33.2995 11.7868 32.9319 11.5851 32.0884C11.5503 31.943 11.4891 30.9369 11.4491 29.8527C11.271 25.0297 11.2622 24.896 11.0989 24.5219C11.0151 24.33 10.8826 24.0832 10.8043 23.9732C10.726 23.8632 10.6619 23.7582 10.6619 23.7399C10.6619 23.7215 10.8104 23.6897 10.9918 23.6692C11.1733 23.6488 11.3749 23.5789 11.4398 23.5138C11.6008 23.3524 11.5864 22.6591 11.4182 22.4732C11.3099 22.3536 11.3026 22.204 11.3481 21.0507L11.399 19.7618L11.2173 19.6427C10.8944 19.4312 10.6465 19.575 10.4844 20.0678C10.4411 20.1993 10.42 20.1904 10.2286 19.9602C10.1138 19.8222 10.0011 19.6537 9.97826 19.5858C9.94937 19.4999 10.2023 19.1304 10.8089 18.3729C11.8657 17.0529 11.8627 17.0714 11.1533 16.1618C10.9027 15.8405 10.6073 15.4588 10.4967 15.3137C10.3861 15.1686 10.2167 14.976 10.1204 14.8857C10.024 14.7954 9.94529 14.6825 9.94543 14.6348C9.94572 14.5322 10.4384 13.9388 10.5233 13.9388C10.5555 13.9388 10.6087 14.0759 10.6416 14.2434C10.6972 14.5265 10.7192 14.5494 10.9505 14.5668C11.4116 14.6014 11.4145 14.5922 11.4145 13.0958C11.4145 11.9312 11.4317 11.7199 11.54 11.5547C11.8917 11.0178 11.4461 10.2235 10.9081 10.428C10.807 10.4665 10.7099 10.4979 10.6924 10.4979C10.646 10.4979 10.821 10.2055 10.9665 10.04C11.0356 9.96159 11.092 9.85923 11.092 9.81256C11.092 9.76582 11.1531 9.58647 11.2278 9.41386C11.3744 9.07522 11.47 7.68949 11.5636 4.54815C11.6311 2.28093 11.8216 1.44265 12.3738 0.981867C12.5235 0.856993 13.0033 0.869968 13.2312 1.00502C13.6799 1.27097 13.9457 1.91326 13.7261 2.20078C13.6064 2.35749 13.4307 2.38795 13.4178 2.25426C13.4122 2.19512 13.4026 2.09104 13.3965 2.02294C13.3906 1.95484 13.3048 1.84616 13.206 1.78143C12.972 1.6281 12.697 1.73355 12.4718 2.06301C12.2228 2.42723 12.273 2.77153 12.6265 3.12451C13.1629 3.66013 14.428 3.2187 14.607 2.43347C14.6859 2.08781 14.6851 1.5015 14.6055 1.23785ZM14.5596 6.85803C14.4838 6.6862 13.9726 6.48362 13.6148 6.48362C13.069 6.48362 12.6764 6.72362 12.4382 7.20283L12.2434 7.59473L12.2321 9.88862C12.226 11.1503 12.2007 12.763 12.1761 13.4725L12.1313 14.7624L11.8639 14.8882C11.579 15.0221 11.4737 15.2415 11.5493 15.5431C11.6308 15.8677 12.3113 15.8564 12.6178 15.5254C12.9746 15.1402 12.9817 15.0665 13.0237 11.3223C13.0534 8.67042 13.0855 7.77064 13.1543 7.65014C13.2465 7.48885 13.4556 7.34383 13.5959 7.34383C13.6946 7.34383 13.699 8.39415 13.6007 8.45494C13.5612 8.47931 13.529 8.64139 13.529 8.81508C13.529 9.17916 13.6721 9.30246 14.052 9.26568C14.4294 9.2292 14.5626 8.86389 14.5832 7.80978C14.5925 7.33666 14.5819 6.90835 14.5596 6.85803ZM14.3928 26.0042C14.3381 25.0258 14.2564 24.8877 13.7526 24.921C13.475 24.9393 13.4243 24.9677 13.3816 25.1286C13.3537 25.2339 13.3745 25.4365 13.4295 25.5945C13.5599 25.9691 13.5629 26.7702 13.434 26.7702C13.3049 26.7702 13.0536 26.4921 12.9604 26.2459C12.9101 26.1131 12.8835 24.8496 12.8828 22.5541C12.882 19.9064 12.8602 19.0215 12.7922 18.8871C12.6594 18.6247 12.2587 18.3832 11.9558 18.3832C11.6268 18.3832 11.5215 18.4873 11.5243 18.8097C11.5271 19.119 11.648 19.2929 11.8832 19.3261L12.0596 19.3509L12.0596 22.9351L12.0596 26.5193L12.2428 26.8753C12.5927 27.5556 13.4834 27.8476 14.0813 27.478C14.3148 27.3337 14.4748 27.0783 14.4492 26.891C14.4428 26.8443 14.4174 26.4452 14.3928 26.0042ZM13.6731 4.71317C13.5206 4.34407 12.8357 4.23202 12.4153 4.50751C12.2612 4.60844 12.2388 4.67611 12.2388 5.04048C12.2388 5.5432 12.3663 5.69474 12.8333 5.74743C13.1262 5.7804 13.5326 5.65245 13.6237 5.49847C13.7004 5.36872 13.7327 4.85725 13.6731 4.71317ZM13.6781 16.6919C13.6111 16.5362 13.2019 16.3044 12.9938 16.3044C12.8381 16.3044 12.5841 16.4414 12.4741 16.5848C12.3634 16.729 12.3567 17.3171 12.4632 17.5506C12.6325 17.9223 13.2136 17.9663 13.5283 17.6312C13.7053 17.4428 13.7853 16.9413 13.6781 16.6919ZM13.3316 28.5588C13.1407 28.3451 13.078 28.3197 12.7403 28.3197C12.4173 28.3197 12.3382 28.3482 12.1932 28.5167C12.072 28.6576 12.0238 28.8013 12.0238 29.0213C12.0238 29.5365 12.4116 29.822 12.9485 29.7022C13.2795 29.6283 13.4606 29.428 13.5066 29.0848C13.5397 28.8385 13.5149 28.7638 13.3316 28.5588ZM10.5058 17.3327C10.42 17.4571 10.2002 17.7201 10.0172 17.9172C9.8344 18.1144 9.62675 18.3644 9.55587 18.4728C9.4849 18.5812 9.37416 18.6683 9.30973 18.6663C9.24529 18.6644 8.95062 18.3562 8.65496 17.9813C7.83433 16.9411 7.88357 17.0643 8.16253 16.7468C8.29542 16.5956 8.59131 16.2245 8.82017 15.9221C9.04896 15.6198 9.26378 15.3725 9.2974 15.3725C9.42864 15.3725 10.6342 16.8585 10.6552 17.046C10.6589 17.0793 10.5917 17.2084 10.5058 17.3327ZM10.496 11.6908L10.4827 12.6126L9.94027 13.1682C9.64195 13.4737 9.36363 13.7237 9.3217 13.7237C9.21604 13.7237 8.65496 12.9675 8.65496 12.8251C8.65496 12.712 9.22902 11.9736 9.76753 11.394C9.91404 11.2363 10.0875 11.0427 10.153 10.9639C10.2185 10.885 10.345 10.7578 10.4343 10.6812C10.5598 10.5733 10.5866 10.5675 10.5528 10.6554C10.5289 10.7178 10.5033 11.1837 10.496 11.6908ZM10.3868 23.0731L10.3394 23.426L10.1243 23.1745C10.0061 23.0362 9.82867 22.8293 9.73011 22.7146C8.92396 21.7769 8.58328 21.3599 8.58328 21.3108C8.58328 21.2192 9.05828 20.5018 9.19296 20.39C9.30234 20.2992 9.34341 20.3192 9.57658 20.5763C10.002 21.0456 10.3006 21.4018 10.3738 21.5272C10.4513 21.6598 10.4586 22.5391 10.3868 23.0731ZM9.75692 2.24673C9.69277 2.19354 9.51193 2.14996 9.35502 2.14996C8.85952 2.14996 8.63954 2.60659 8.9469 2.99727C9.13304 3.23397 9.51666 3.25626 9.73011 3.04279C9.90966 2.86322 9.92572 2.38688 9.75692 2.24673ZM9.6532 16.7083C9.48225 16.4909 9.202 16.4598 8.95765 16.631C8.83945 16.7137 8.79831 16.8145 8.79831 17.0212C8.79831 17.2279 8.83945 17.3286 8.95765 17.4114C9.1835 17.5696 9.48419 17.5501 9.65564 17.3661C9.84207 17.166 9.84121 16.9473 9.6532 16.7083ZM9.63801 30.9727C9.58733 30.9034 9.41366 30.829 9.2521 30.8073C8.76347 30.7417 8.5182 31.1227 8.73817 31.6055C8.81035 31.764 8.8664 31.7881 9.16308 31.7881C9.37818 31.7881 9.54655 31.7464 9.61751 31.6755C9.75355 31.5394 9.76502 31.1465 9.63801 30.9727ZM7.76752 9.02332C7.4573 8.35709 6.8044 7.99673 6.06598 8.08419C5.38921 8.16433 5.00279 8.5234 4.94488 9.1259C4.89535 9.64167 5.12995 10.1171 5.46504 10.18C5.83898 10.2502 6.13916 10.1569 6.18991 9.95457C6.25026 9.71414 6.16547 9.42267 6.03516 9.42267C5.88621 9.42267 5.82443 9.22884 5.93202 9.09916C6.14698 8.8401 6.7148 9.06325 6.93399 9.493C7.11354 9.84496 7.11311 9.89708 6.92639 10.3962C6.78254 10.7807 6.11752 11.6872 5.61391 12.1853C5.49278 12.3052 5.28592 12.5374 5.15418 12.7016C5.02251 12.8657 4.85005 13.0741 4.77106 13.1647C4.51295 13.4606 4.43454 13.6928 4.4225 14.196C4.41605 14.4685 4.36394 14.9059 4.30681 15.1679C4.21506 15.5883 4.21557 15.6747 4.31075 15.9027C4.4111 16.1428 4.44035 16.1609 4.72698 16.1599C5.28635 16.1579 5.36297 15.9913 5.2875 14.9412C5.25409 14.4765 5.26047 14.1349 5.3042 14.0463C5.39293 13.8666 5.85783 13.2973 6.29943 12.8277C7.48031 11.5718 7.93876 10.7457 7.93747 9.87572C7.93697 9.51343 7.89296 9.29271 7.76752 9.02332ZM7.67728 23.1573C7.53206 22.7546 7.02258 22.0155 6.45705 21.387C6.18754 21.0874 5.81389 20.6565 5.6266 20.4293L5.28613 20.0164L5.28613 19.1002C5.28613 18.3339 5.26564 18.1589 5.1607 18.0305C4.99405 17.8266 4.56134 17.7563 4.40917 17.9085C4.2547 18.063 4.1836 18.5407 4.27233 18.8281C4.31247 18.958 4.37426 19.3776 4.40967 19.7606L4.47403 20.4571L4.87772 20.9792C5.09977 21.2665 5.40412 21.6305 5.55406 21.7882C6.48637 22.769 6.87493 23.4117 6.92102 24.0492C6.94768 24.4179 6.93091 24.4783 6.74319 24.6885C6.5007 24.9599 5.95847 25.0761 5.80386 24.8899C5.73426 24.806 5.7511 24.7686 5.89281 24.6928C6.11092 24.5761 6.1874 24.2594 6.06125 23.9951C5.98176 23.8284 5.9141 23.7916 5.65269 23.7728C5.39358 23.7543 5.30491 23.7834 5.14034 23.9411C4.87507 24.1952 4.74985 24.6891 4.86173 25.0397C4.95663 25.3371 5.23159 25.6606 5.5155 25.8089C5.76272 25.938 6.51038 25.9395 6.8168 25.8115C7.20579 25.6489 7.5583 25.2884 7.6813 24.9274C7.82107 24.5171 7.81884 23.5499 7.67728 23.1573ZM5.74394 16.5296C5.65441 16.4018 5.58675 16.375 5.44375 16.4109C5.34219 16.4364 5.22141 16.5089 5.17525 16.5719C5.081 16.7009 5.12035 17.2918 5.23259 17.4334C5.32305 17.5474 5.66086 17.5496 5.77354 17.437C5.89883 17.3117 5.87969 16.7234 5.74394 16.5296ZM3.90542 16.5539C3.7683 16.3945 3.66638 16.3474 3.45844 16.3474C3.06737 16.3474 2.8947 16.5814 2.93979 17.0504C2.9795 17.4634 3.11382 17.5947 3.49679 17.5947C3.82113 17.5947 3.99466 17.4192 4.04555 17.0397C4.07594 16.8129 4.04956 16.7215 3.90542 16.5539ZM3.65656 14.9424C3.59312 14.7778 3.3444 14.5839 3.19653 14.5839C2.95899 14.5839 2.77744 14.843 2.77744 15.1821C2.77744 15.5515 2.93477 15.7309 3.25875 15.7309C3.43751 15.7309 3.49915 15.6859 3.59355 15.4871C3.71383 15.2337 3.72644 15.124 3.65656 14.9424ZM3.5547 18.4007C3.43321 18.2792 2.95799 18.2878 2.8537 18.4134C2.8064 18.4705 2.77887 18.6677 2.7912 18.8609C2.81012 19.1569 2.84152 19.2199 3.01039 19.3005C3.17309 19.3782 3.24191 19.3782 3.40461 19.3005C3.57542 19.219 3.60452 19.1585 3.6228 18.8481C3.63556 18.6314 3.6086 18.4546 3.5547 18.4007ZM2.33139 16.5593C2.11149 16.4052 1.68178 16.4157 1.5342 16.5788C1.3907 16.7374 1.37895 17.1588 1.51291 17.3421C1.65161 17.5317 2.23771 17.5288 2.38221 17.3378C2.54778 17.119 2.5199 16.6913 2.33139 16.5593ZM0.591288 16.6205C0.306945 16.5492 0.0612362 16.6436 0.0110615 16.8436C-0.049577 17.0851 0.148755 17.3796 0.372029 17.3796C0.701958 17.3796 0.77048 17.3107 0.77048 16.979C0.77048 16.7043 0.748261 16.6599 0.591288 16.6205Z"/>
</mask>
<path fill-rule="evenodd" clip-rule="evenodd" d="M18.4916 16.7631C18.3925 16.6147 18.1259 16.5194 17.8164 16.5217C17.3679 16.525 17.2418 16.6488 17.2452 17.0823C17.2485 17.5175 17.3592 17.712 17.6349 17.7672C18.1439 17.869 18.547 17.5886 18.5453 17.1342C18.5447 16.9734 18.5205 16.8065 18.4916 16.7631ZM16.7082 14.5446C16.6039 14.448 16.4556 14.3689 16.3787 14.3689C16.1925 14.3689 15.8313 14.5871 15.7872 14.7262C15.7678 14.7874 15.7794 15.2613 15.8133 15.7792C15.8482 16.3146 15.8469 17.3192 15.8104 18.1076L15.7461 19.4943L15.9318 19.6556C16.4815 20.1333 17.058 19.5622 16.7933 18.8021C16.6384 18.3573 16.6361 15.9317 16.7903 15.5627C16.9633 15.1485 16.9313 14.7515 16.7082 14.5446ZM14.9681 12.9297C14.7462 12.7078 14.4796 12.6621 14.1465 12.7887C14.0185 12.8373 13.9432 12.943 13.8866 13.1531C13.7937 13.4981 13.8444 13.8067 14.0494 14.1441C14.1927 14.3799 14.1949 14.4474 14.1474 17.1512C14.1051 19.5556 14.0836 19.9339 13.9826 20.0455C13.8546 20.1869 13.7728 20.783 13.8429 21.0625C13.9097 21.3284 14.0839 21.4656 14.355 21.4656C14.9345 21.4656 15.1526 21.1655 15.068 20.4843C15.0395 20.2552 15.0075 18.7927 14.9967 17.2342C14.9812 14.9687 14.9972 14.3435 15.0764 14.1159C15.1308 13.9593 15.1759 13.6755 15.1765 13.4852C15.1774 13.1976 15.1422 13.1039 14.9681 12.9297ZM14.9482 11.4442C14.8197 11.3156 14.4991 11.3404 14.3644 11.4893C14.2256 11.6426 14.2088 11.9376 14.3318 12.0606C14.4611 12.19 14.9382 12.1701 14.9907 12.0333C15.0624 11.8464 15.04 11.536 14.9482 11.4442ZM14.8765 22.1251C14.7365 21.985 14.3334 22.0188 14.2483 22.1777C14.1487 22.3638 14.1544 22.6359 14.2601 22.7416C14.3658 22.8472 14.6378 22.853 14.8239 22.7534C14.9828 22.6683 15.0166 22.2652 14.8765 22.1251ZM14.8431 10.044C14.7638 9.96475 14.4237 9.9902 14.3318 10.0822C14.2845 10.1295 14.2458 10.2521 14.2458 10.3546C14.2458 10.5799 14.3655 10.713 14.5683 10.713C14.6511 10.713 14.7575 10.6743 14.8048 10.627C14.8963 10.5355 14.9233 10.1241 14.8431 10.044ZM14.7744 23.6532C14.7036 23.5825 14.5698 23.5452 14.4339 23.5585C14.2299 23.5784 14.2099 23.6027 14.2099 23.8312C14.2099 24.0629 14.2281 24.0838 14.4475 24.1049C14.8374 24.1423 15.0162 23.8951 14.7744 23.6532ZM14.6055 1.23785C14.5358 1.00688 14.449 0.891616 14.0425 0.489684C13.6669 0.118431 13.3563 0.00158626 12.7405 9.23822e-06C12.1057 -0.00171115 11.6862 0.243663 11.3557 0.809968C11.0081 1.40552 11.0031 1.42638 10.7657 3.23433C10.7321 3.49095 10.6531 3.60314 10.2103 4.02364C8.73903 5.42105 8.36825 6.0951 8.36825 7.37287C8.36825 8.3158 8.79752 8.91823 9.48806 8.9444C9.95862 8.96217 10.0834 8.78547 10.1052 8.07064C10.1453 6.75559 10.1206 6.68305 9.6436 6.71237C9.49745 6.72133 9.35603 6.70685 9.32929 6.68018C9.26314 6.61395 9.8215 5.70263 10.1731 5.3032C10.3303 5.12449 10.5214 4.97826 10.5975 4.97826C10.7314 4.97826 10.7347 5.02987 10.6954 6.50154C10.6476 8.28963 10.5548 9.13959 10.3867 9.32719C10.3212 9.40024 10.0586 9.7016 9.80301 9.99686C9.54741 10.2922 9.13175 10.7596 8.87923 11.0356C8.62679 11.3116 8.28754 11.7093 8.12541 11.9195C7.2632 13.0373 7.22142 13.1042 7.22142 13.3652C7.22142 13.7762 7.42598 13.8935 7.80107 13.6978C8.03846 13.5738 8.12419 13.6352 8.47046 14.1766C8.69825 14.5327 8.72326 14.6104 8.64356 14.7138C8.59224 14.7804 8.37226 15.0488 8.15465 15.3104C7.93704 15.572 7.67499 15.8943 7.57242 16.0268C7.40519 16.2426 7.37294 16.257 7.26191 16.1649C7.06616 16.0023 6.70749 15.237 6.7558 15.0848C6.77938 15.0105 6.85837 14.9307 6.93127 14.9076C7.18457 14.8272 7.18766 14.27 6.93521 14.1898C6.72003 14.1215 6.19034 14.2798 6.04849 14.4549C5.93703 14.5923 5.9204 14.7066 5.94822 15.1418C5.97717 15.5932 6.03072 15.7593 6.34409 16.3699L6.70656 17.0759L6.34552 17.6338C6.03502 18.1137 5.97947 18.2544 5.94857 18.6397C5.90442 19.1899 5.94979 19.3843 6.18848 19.668C6.33427 19.8413 6.43096 19.8886 6.64004 19.8886C6.78634 19.8886 6.94474 19.8498 6.99205 19.8025C7.14372 19.6509 7.09404 19.2831 6.89887 19.1134C6.80031 19.0277 6.71968 18.9242 6.71968 18.8834C6.71968 18.7616 7.12953 17.9874 7.24457 17.8919C7.33294 17.8186 7.40018 17.856 7.63936 18.1113C7.79791 18.2805 8.0052 18.5319 8.09996 18.6699C8.19472 18.8079 8.35943 19.0479 8.46601 19.2033C8.57267 19.3586 8.64363 19.528 8.6237 19.5798C8.60385 19.6316 8.4562 19.8481 8.2955 20.0609C8.00528 20.4453 8.00205 20.4471 7.79677 20.3448C7.35789 20.1258 7.04502 20.4169 7.21016 20.8907C7.28449 21.1039 7.60668 21.577 7.77254 21.7165C7.81949 21.7559 7.99961 21.9817 8.17293 22.2183C8.34624 22.4548 8.79774 23.0032 9.17626 23.4369C9.55479 23.8706 9.98557 24.3647 10.1336 24.5349C10.3571 24.792 10.4119 24.9193 10.4573 25.2876C10.5143 25.7505 10.551 28.9838 10.4999 29.0351C10.4338 29.101 9.9541 28.6505 9.73162 28.3136C9.60066 28.1152 9.43387 27.8656 9.36098 27.7588C9.141 27.4365 9.18386 27.3437 9.55271 27.3437C9.84042 27.3437 9.88551 27.3215 9.95231 27.1466C9.99467 27.0357 10.0174 26.5938 10.0043 26.137C9.98385 25.424 9.96349 25.3116 9.83763 25.2174C9.64417 25.0726 9.02854 25.1236 8.77279 25.3055C8.26898 25.6639 8.10319 26.5444 8.35334 27.5336C8.54178 28.2788 8.85952 28.7723 9.73097 29.6734C10.1122 30.0677 10.4623 30.4621 10.5089 30.55C10.5555 30.6378 10.6263 31.0572 10.6662 31.4819C10.7521 32.3947 10.8126 32.6364 11.0747 33.1136C11.2181 33.3747 11.3776 33.5359 11.6654 33.7104C12.0415 33.9385 12.086 33.9482 12.633 33.9209C13.2845 33.8883 13.5721 33.7684 13.9434 33.3747C14.3463 32.9474 14.4229 32.7462 14.424 32.1107C14.4252 31.4035 14.2745 31.1161 13.7541 30.8328C13.333 30.6035 12.9806 30.5889 12.5968 30.7848C12.2366 30.9686 12.1428 31.1505 12.1844 31.5843C12.2291 32.0495 12.3893 32.2182 12.7861 32.2182C13.0661 32.2182 13.1004 32.1991 13.1394 32.0211C13.2267 31.6224 13.2338 31.6148 13.3871 31.7536C13.6608 32.0014 13.4901 32.626 13.0741 32.8986C12.4624 33.2995 11.7868 32.9319 11.5851 32.0884C11.5503 31.943 11.4891 30.9369 11.4491 29.8527C11.271 25.0297 11.2622 24.896 11.0989 24.5219C11.0151 24.33 10.8826 24.0832 10.8043 23.9732C10.726 23.8632 10.6619 23.7582 10.6619 23.7399C10.6619 23.7215 10.8104 23.6897 10.9918 23.6692C11.1733 23.6488 11.3749 23.5789 11.4398 23.5138C11.6008 23.3524 11.5864 22.6591 11.4182 22.4732C11.3099 22.3536 11.3026 22.204 11.3481 21.0507L11.399 19.7618L11.2173 19.6427C10.8944 19.4312 10.6465 19.575 10.4844 20.0678C10.4411 20.1993 10.42 20.1904 10.2286 19.9602C10.1138 19.8222 10.0011 19.6537 9.97826 19.5858C9.94937 19.4999 10.2023 19.1304 10.8089 18.3729C11.8657 17.0529 11.8627 17.0714 11.1533 16.1618C10.9027 15.8405 10.6073 15.4588 10.4967 15.3137C10.3861 15.1686 10.2167 14.976 10.1204 14.8857C10.024 14.7954 9.94529 14.6825 9.94543 14.6348C9.94572 14.5322 10.4384 13.9388 10.5233 13.9388C10.5555 13.9388 10.6087 14.0759 10.6416 14.2434C10.6972 14.5265 10.7192 14.5494 10.9505 14.5668C11.4116 14.6014 11.4145 14.5922 11.4145 13.0958C11.4145 11.9312 11.4317 11.7199 11.54 11.5547C11.8917 11.0178 11.4461 10.2235 10.9081 10.428C10.807 10.4665 10.7099 10.4979 10.6924 10.4979C10.646 10.4979 10.821 10.2055 10.9665 10.04C11.0356 9.96159 11.092 9.85923 11.092 9.81256C11.092 9.76582 11.1531 9.58647 11.2278 9.41386C11.3744 9.07522 11.47 7.68949 11.5636 4.54815C11.6311 2.28093 11.8216 1.44265 12.3738 0.981867C12.5235 0.856993 13.0033 0.869968 13.2312 1.00502C13.6799 1.27097 13.9457 1.91326 13.7261 2.20078C13.6064 2.35749 13.4307 2.38795 13.4178 2.25426C13.4122 2.19512 13.4026 2.09104 13.3965 2.02294C13.3906 1.95484 13.3048 1.84616 13.206 1.78143C12.972 1.6281 12.697 1.73355 12.4718 2.06301C12.2228 2.42723 12.273 2.77153 12.6265 3.12451C13.1629 3.66013 14.428 3.2187 14.607 2.43347C14.6859 2.08781 14.6851 1.5015 14.6055 1.23785ZM14.5596 6.85803C14.4838 6.6862 13.9726 6.48362 13.6148 6.48362C13.069 6.48362 12.6764 6.72362 12.4382 7.20283L12.2434 7.59473L12.2321 9.88862C12.226 11.1503 12.2007 12.763 12.1761 13.4725L12.1313 14.7624L11.8639 14.8882C11.579 15.0221 11.4737 15.2415 11.5493 15.5431C11.6308 15.8677 12.3113 15.8564 12.6178 15.5254C12.9746 15.1402 12.9817 15.0665 13.0237 11.3223C13.0534 8.67042 13.0855 7.77064 13.1543 7.65014C13.2465 7.48885 13.4556 7.34383 13.5959 7.34383C13.6946 7.34383 13.699 8.39415 13.6007 8.45494C13.5612 8.47931 13.529 8.64139 13.529 8.81508C13.529 9.17916 13.6721 9.30246 14.052 9.26568C14.4294 9.2292 14.5626 8.86389 14.5832 7.80978C14.5925 7.33666 14.5819 6.90835 14.5596 6.85803ZM14.3928 26.0042C14.3381 25.0258 14.2564 24.8877 13.7526 24.921C13.475 24.9393 13.4243 24.9677 13.3816 25.1286C13.3537 25.2339 13.3745 25.4365 13.4295 25.5945C13.5599 25.9691 13.5629 26.7702 13.434 26.7702C13.3049 26.7702 13.0536 26.4921 12.9604 26.2459C12.9101 26.1131 12.8835 24.8496 12.8828 22.5541C12.882 19.9064 12.8602 19.0215 12.7922 18.8871C12.6594 18.6247 12.2587 18.3832 11.9558 18.3832C11.6268 18.3832 11.5215 18.4873 11.5243 18.8097C11.5271 19.119 11.648 19.2929 11.8832 19.3261L12.0596 19.3509L12.0596 22.9351L12.0596 26.5193L12.2428 26.8753C12.5927 27.5556 13.4834 27.8476 14.0813 27.478C14.3148 27.3337 14.4748 27.0783 14.4492 26.891C14.4428 26.8443 14.4174 26.4452 14.3928 26.0042ZM13.6731 4.71317C13.5206 4.34407 12.8357 4.23202 12.4153 4.50751C12.2612 4.60844 12.2388 4.67611 12.2388 5.04048C12.2388 5.5432 12.3663 5.69474 12.8333 5.74743C13.1262 5.7804 13.5326 5.65245 13.6237 5.49847C13.7004 5.36872 13.7327 4.85725 13.6731 4.71317ZM13.6781 16.6919C13.6111 16.5362 13.2019 16.3044 12.9938 16.3044C12.8381 16.3044 12.5841 16.4414 12.4741 16.5848C12.3634 16.729 12.3567 17.3171 12.4632 17.5506C12.6325 17.9223 13.2136 17.9663 13.5283 17.6312C13.7053 17.4428 13.7853 16.9413 13.6781 16.6919ZM13.3316 28.5588C13.1407 28.3451 13.078 28.3197 12.7403 28.3197C12.4173 28.3197 12.3382 28.3482 12.1932 28.5167C12.072 28.6576 12.0238 28.8013 12.0238 29.0213C12.0238 29.5365 12.4116 29.822 12.9485 29.7022C13.2795 29.6283 13.4606 29.428 13.5066 29.0848C13.5397 28.8385 13.5149 28.7638 13.3316 28.5588ZM10.5058 17.3327C10.42 17.4571 10.2002 17.7201 10.0172 17.9172C9.8344 18.1144 9.62675 18.3644 9.55587 18.4728C9.4849 18.5812 9.37416 18.6683 9.30973 18.6663C9.24529 18.6644 8.95062 18.3562 8.65496 17.9813C7.83433 16.9411 7.88357 17.0643 8.16253 16.7468C8.29542 16.5956 8.59131 16.2245 8.82017 15.9221C9.04896 15.6198 9.26378 15.3725 9.2974 15.3725C9.42864 15.3725 10.6342 16.8585 10.6552 17.046C10.6589 17.0793 10.5917 17.2084 10.5058 17.3327ZM10.496 11.6908L10.4827 12.6126L9.94027 13.1682C9.64195 13.4737 9.36363 13.7237 9.3217 13.7237C9.21604 13.7237 8.65496 12.9675 8.65496 12.8251C8.65496 12.712 9.22902 11.9736 9.76753 11.394C9.91404 11.2363 10.0875 11.0427 10.153 10.9639C10.2185 10.885 10.345 10.7578 10.4343 10.6812C10.5598 10.5733 10.5866 10.5675 10.5528 10.6554C10.5289 10.7178 10.5033 11.1837 10.496 11.6908ZM10.3868 23.0731L10.3394 23.426L10.1243 23.1745C10.0061 23.0362 9.82867 22.8293 9.73011 22.7146C8.92396 21.7769 8.58328 21.3599 8.58328 21.3108C8.58328 21.2192 9.05828 20.5018 9.19296 20.39C9.30234 20.2992 9.34341 20.3192 9.57658 20.5763C10.002 21.0456 10.3006 21.4018 10.3738 21.5272C10.4513 21.6598 10.4586 22.5391 10.3868 23.0731ZM9.75692 2.24673C9.69277 2.19354 9.51193 2.14996 9.35502 2.14996C8.85952 2.14996 8.63954 2.60659 8.9469 2.99727C9.13304 3.23397 9.51666 3.25626 9.73011 3.04279C9.90966 2.86322 9.92572 2.38688 9.75692 2.24673ZM9.6532 16.7083C9.48225 16.4909 9.202 16.4598 8.95765 16.631C8.83945 16.7137 8.79831 16.8145 8.79831 17.0212C8.79831 17.2279 8.83945 17.3286 8.95765 17.4114C9.1835 17.5696 9.48419 17.5501 9.65564 17.3661C9.84207 17.166 9.84121 16.9473 9.6532 16.7083ZM9.63801 30.9727C9.58733 30.9034 9.41366 30.829 9.2521 30.8073C8.76347 30.7417 8.5182 31.1227 8.73817 31.6055C8.81035 31.764 8.8664 31.7881 9.16308 31.7881C9.37818 31.7881 9.54655 31.7464 9.61751 31.6755C9.75355 31.5394 9.76502 31.1465 9.63801 30.9727ZM7.76752 9.02332C7.4573 8.35709 6.8044 7.99673 6.06598 8.08419C5.38921 8.16433 5.00279 8.5234 4.94488 9.1259C4.89535 9.64167 5.12995 10.1171 5.46504 10.18C5.83898 10.2502 6.13916 10.1569 6.18991 9.95457C6.25026 9.71414 6.16547 9.42267 6.03516 9.42267C5.88621 9.42267 5.82443 9.22884 5.93202 9.09916C6.14698 8.8401 6.7148 9.06325 6.93399 9.493C7.11354 9.84496 7.11311 9.89708 6.92639 10.3962C6.78254 10.7807 6.11752 11.6872 5.61391 12.1853C5.49278 12.3052 5.28592 12.5374 5.15418 12.7016C5.02251 12.8657 4.85005 13.0741 4.77106 13.1647C4.51295 13.4606 4.43454 13.6928 4.4225 14.196C4.41605 14.4685 4.36394 14.9059 4.30681 15.1679C4.21506 15.5883 4.21557 15.6747 4.31075 15.9027C4.4111 16.1428 4.44035 16.1609 4.72698 16.1599C5.28635 16.1579 5.36297 15.9913 5.2875 14.9412C5.25409 14.4765 5.26047 14.1349 5.3042 14.0463C5.39293 13.8666 5.85783 13.2973 6.29943 12.8277C7.48031 11.5718 7.93876 10.7457 7.93747 9.87572C7.93697 9.51343 7.89296 9.29271 7.76752 9.02332ZM7.67728 23.1573C7.53206 22.7546 7.02258 22.0155 6.45705 21.387C6.18754 21.0874 5.81389 20.6565 5.6266 20.4293L5.28613 20.0164L5.28613 19.1002C5.28613 18.3339 5.26564 18.1589 5.1607 18.0305C4.99405 17.8266 4.56134 17.7563 4.40917 17.9085C4.2547 18.063 4.1836 18.5407 4.27233 18.8281C4.31247 18.958 4.37426 19.3776 4.40967 19.7606L4.47403 20.4571L4.87772 20.9792C5.09977 21.2665 5.40412 21.6305 5.55406 21.7882C6.48637 22.769 6.87493 23.4117 6.92102 24.0492C6.94768 24.4179 6.93091 24.4783 6.74319 24.6885C6.5007 24.9599 5.95847 25.0761 5.80386 24.8899C5.73426 24.806 5.7511 24.7686 5.89281 24.6928C6.11092 24.5761 6.1874 24.2594 6.06125 23.9951C5.98176 23.8284 5.9141 23.7916 5.65269 23.7728C5.39358 23.7543 5.30491 23.7834 5.14034 23.9411C4.87507 24.1952 4.74985 24.6891 4.86173 25.0397C4.95663 25.3371 5.23159 25.6606 5.5155 25.8089C5.76272 25.938 6.51038 25.9395 6.8168 25.8115C7.20579 25.6489 7.5583 25.2884 7.6813 24.9274C7.82107 24.5171 7.81884 23.5499 7.67728 23.1573ZM5.74394 16.5296C5.65441 16.4018 5.58675 16.375 5.44375 16.4109C5.34219 16.4364 5.22141 16.5089 5.17525 16.5719C5.081 16.7009 5.12035 17.2918 5.23259 17.4334C5.32305 17.5474 5.66086 17.5496 5.77354 17.437C5.89883 17.3117 5.87969 16.7234 5.74394 16.5296ZM3.90542 16.5539C3.7683 16.3945 3.66638 16.3474 3.45844 16.3474C3.06737 16.3474 2.8947 16.5814 2.93979 17.0504C2.9795 17.4634 3.11382 17.5947 3.49679 17.5947C3.82113 17.5947 3.99466 17.4192 4.04555 17.0397C4.07594 16.8129 4.04956 16.7215 3.90542 16.5539ZM3.65656 14.9424C3.59312 14.7778 3.3444 14.5839 3.19653 14.5839C2.95899 14.5839 2.77744 14.843 2.77744 15.1821C2.77744 15.5515 2.93477 15.7309 3.25875 15.7309C3.43751 15.7309 3.49915 15.6859 3.59355 15.4871C3.71383 15.2337 3.72644 15.124 3.65656 14.9424ZM3.5547 18.4007C3.43321 18.2792 2.95799 18.2878 2.8537 18.4134C2.8064 18.4705 2.77887 18.6677 2.7912 18.8609C2.81012 19.1569 2.84152 19.2199 3.01039 19.3005C3.17309 19.3782 3.24191 19.3782 3.40461 19.3005C3.57542 19.219 3.60452 19.1585 3.6228 18.8481C3.63556 18.6314 3.6086 18.4546 3.5547 18.4007ZM2.33139 16.5593C2.11149 16.4052 1.68178 16.4157 1.5342 16.5788C1.3907 16.7374 1.37895 17.1588 1.51291 17.3421C1.65161 17.5317 2.23771 17.5288 2.38221 17.3378C2.54778 17.119 2.5199 16.6913 2.33139 16.5593ZM0.591288 16.6205C0.306945 16.5492 0.0612362 16.6436 0.0110615 16.8436C-0.049577 17.0851 0.148755 17.3796 0.372029 17.3796C0.701958 17.3796 0.77048 17.3107 0.77048 16.979C0.77048 16.7043 0.748261 16.6599 0.591288 16.6205Z" fill="#4C6589" stroke="#4C6589" stroke-width="2" mask="url(#path-2-inside-2_541_2953)"/>
</svg>
