<svg width="27" height="27" viewBox="0 0 27 27" fill="none" xmlns="http://www.w3.org/2000/svg">
<path d="M26.9945 5.61215C26.9947 5.68337 26.995 5.75458 26.9953 5.82579C26.9961 6.01902 26.9959 6.21223 26.9955 6.40545C26.9952 6.61481 26.9959 6.82416 26.9964 7.03352C26.9973 7.44271 26.9974 7.8519 26.9971 8.2611C26.9969 8.59399 26.9969 8.92689 26.9972 9.25978C26.9973 9.30731 26.9973 9.35485 26.9973 9.40382C26.9974 9.50041 26.9975 9.59699 26.9976 9.69358C26.9983 10.5977 26.998 11.5018 26.9974 12.4059C26.9969 13.2312 26.9976 14.0566 26.9988 14.8819C27.0001 15.7314 27.0006 16.5808 27.0003 17.4303C27.0001 17.9064 27.0002 18.3825 27.0011 18.8586C27.0019 19.2639 27.0019 19.6693 27.001 20.0746C27.0006 20.281 27.0005 20.4873 27.0013 20.6937C27.0071 22.3041 26.7876 23.699 25.7109 24.974C25.6752 25.0167 25.6395 25.0595 25.6027 25.1035C24.7097 26.1363 23.4783 26.7772 22.1318 26.974C22.0299 26.9787 21.928 26.9809 21.826 26.9811C21.7658 26.9814 21.7056 26.9816 21.6436 26.9818C21.5452 26.9818 21.5452 26.9818 21.4448 26.9818C21.374 26.982 21.3032 26.9822 21.2324 26.9824C21.0381 26.9829 20.8438 26.9831 20.6495 26.9832C20.4398 26.9835 20.2302 26.984 20.0205 26.9844C19.5141 26.9855 19.0078 26.986 18.5014 26.9865C18.2627 26.9867 18.0239 26.987 17.7852 26.9872C16.9909 26.9881 16.1966 26.9889 15.4023 26.9893C15.1963 26.9894 14.9902 26.9895 14.7842 26.9896C14.733 26.9896 14.6818 26.9896 14.6291 26.9897C13.8006 26.9901 12.9722 26.9914 12.1437 26.9931C11.2921 26.9949 10.4406 26.9958 9.58896 26.996C9.11126 26.9961 8.63356 26.9966 8.15585 26.9979C7.74879 26.9991 7.34174 26.9995 6.93468 26.999C6.72733 26.9987 6.51999 26.9988 6.31265 26.9999C4.4073 27.0088 2.90886 26.6007 1.51653 25.2592C0.664129 24.3736 0.0211489 23.0711 0.0188868 21.826C0.0186503 21.7658 0.0184176 21.7056 0.0181754 21.6436C0.0181849 21.578 0.0181944 21.5124 0.018204 21.4448C0.0180304 21.374 0.017834 21.3032 0.0176165 21.2324C0.017092 21.0381 0.0168956 20.8438 0.0167563 20.6495C0.0165504 20.4398 0.0160449 20.2302 0.0155872 20.0205C0.0145477 19.5141 0.0140155 19.0078 0.0135464 18.5015C0.0133156 18.2627 0.0130352 18.0239 0.0127606 17.7852C0.0118641 16.9909 0.0111012 16.1966 0.0107198 15.4023C0.0106187 15.1963 0.0105176 14.9902 0.0104147 14.7842C0.0103899 14.733 0.0103632 14.6818 0.0103384 14.6291C0.00990162 13.8006 0.00857033 12.9722 0.00685948 12.1437C0.00511429 11.2922 0.00417019 10.4406 0.00400238 9.58897C0.00388987 9.11126 0.00343212 8.63356 0.00208174 8.15586C0.000935442 7.7488 0.000519658 7.34174 0.00102894 6.93468C0.00126546 6.72733 0.00117391 6.52 0.000145863 6.31265C-0.00878426 4.40731 0.399257 2.90886 1.74084 1.51654C2.62644 0.664132 3.92892 0.0211505 5.17401 0.0188882C5.26428 0.0185362 5.26428 0.0185365 5.35638 0.0181774C5.42198 0.0181871 5.48759 0.0181968 5.55518 0.0182068C5.62599 0.018033 5.69679 0.017837 5.7676 0.0176205C5.96189 0.0170947 6.15618 0.0168974 6.35047 0.0167576C6.56016 0.0165517 6.76984 0.0160478 6.97953 0.0155887C7.48587 0.0145496 7.99221 0.0140188 8.49855 0.0135504C8.73731 0.0133195 8.97607 0.0130369 9.21483 0.0127614C10.0091 0.011866 10.8034 0.0111033 11.5977 0.010722C11.8037 0.0106215 12.0098 0.0105206 12.2158 0.0104176C12.267 0.0103922 12.3182 0.0103668 12.3709 0.0103405C13.1994 0.0099042 14.0278 0.00857144 14.8563 0.00686074C15.7079 0.00511666 16.5594 0.00417199 17.411 0.00400417C17.8887 0.00389054 18.3664 0.00343469 18.8441 0.00208518C19.2512 0.000937872 19.6583 0.000521267 20.0653 0.00103075C20.2727 0.00126859 20.48 0.00117824 20.6873 0.000148551C22.5129 -0.008405 24.0477 0.352519 25.4082 1.651C26.4467 2.74181 27.0018 4.11263 26.9945 5.61215ZM23.5585 3.10437C22.5263 2.30272 21.4983 2.25714 20.237 2.26165C20.0378 2.26213 19.8386 2.26139 19.6394 2.26081C19.2503 2.25988 18.8612 2.26008 18.472 2.26069C18.1555 2.26117 17.839 2.26123 17.5224 2.261C17.4772 2.26097 17.432 2.26094 17.3854 2.2609C17.2935 2.26083 17.2016 2.26077 17.1097 2.2607C16.2501 2.2601 15.3904 2.26079 14.5308 2.26192C13.7947 2.26286 13.0586 2.2627 12.3225 2.26173C11.4657 2.2606 10.609 2.26016 9.75216 2.2608C9.66063 2.26087 9.56909 2.26093 9.47756 2.261C9.43254 2.26103 9.38752 2.26106 9.34113 2.2611C9.02533 2.26128 8.70954 2.26097 8.39374 2.26048C8.00838 2.25988 7.62303 2.26005 7.23766 2.26117C7.04141 2.26172 6.84518 2.26194 6.64892 2.26124C5.35783 2.25702 4.21325 2.33526 3.23656 3.2892C2.32293 4.34609 2.25685 5.42313 2.26165 6.76297C2.26213 6.96217 2.26139 7.16137 2.26081 7.36057C2.25988 7.7497 2.26007 8.13883 2.26069 8.52797C2.26116 8.8445 2.26123 9.16103 2.261 9.47757C2.26096 9.52279 2.26093 9.568 2.2609 9.61459C2.26083 9.70648 2.26076 9.79837 2.2607 9.89026C2.2601 10.7499 2.26078 11.6096 2.26192 12.4693C2.26286 13.2053 2.26269 13.9414 2.26172 14.6775C2.26059 15.5343 2.26015 16.391 2.2608 17.2478C2.26086 17.3394 2.26093 17.4309 2.261 17.5224C2.26103 17.5675 2.26106 17.6125 2.26109 17.6589C2.26127 17.9747 2.26097 18.2905 2.26047 18.6063C2.25988 18.9916 2.26005 19.377 2.26116 19.7623C2.26172 19.9586 2.26194 20.1548 2.26124 20.3511C2.257 21.6454 2.33221 22.7859 3.2892 23.7634C4.10954 24.4753 4.93709 24.7187 6.00195 24.7186C6.10179 24.7189 6.10179 24.7189 6.20366 24.7192C6.38783 24.7197 6.572 24.7199 6.75617 24.72C6.95506 24.7202 7.15394 24.7207 7.35282 24.7212C7.83283 24.7222 8.31285 24.7228 8.79286 24.7232C9.01923 24.7235 9.24561 24.7237 9.47198 24.724C10.2251 24.7249 10.9781 24.7257 11.7312 24.7261C11.9265 24.7262 12.1217 24.7263 12.3169 24.7264C12.3655 24.7264 12.414 24.7264 12.464 24.7264C13.2494 24.7269 14.0349 24.7282 14.8203 24.7299C15.6278 24.7317 16.4353 24.7326 17.2427 24.7328C17.6957 24.7329 18.1486 24.7334 18.6015 24.7347C18.9874 24.7358 19.3732 24.7363 19.7591 24.7358C19.9557 24.7355 20.1522 24.7356 20.3488 24.7366C21.6445 24.743 22.7847 24.669 23.7634 23.7108C24.6783 22.6565 24.7431 21.5751 24.7384 20.237C24.7379 20.0378 24.7386 19.8386 24.7392 19.6394C24.7401 19.2503 24.7399 18.8612 24.7393 18.472C24.7388 18.1555 24.7388 17.839 24.739 17.5224C24.7391 17.4546 24.7391 17.4546 24.7391 17.3854C24.7392 17.2935 24.7392 17.2016 24.7393 17.1097C24.7399 16.2501 24.7392 15.3904 24.7381 14.5308C24.7371 13.7947 24.7373 13.0586 24.7383 12.3225C24.7394 11.4657 24.7398 10.609 24.7392 9.75216C24.7391 9.66063 24.7391 9.5691 24.739 9.47757C24.739 9.43254 24.7389 9.38752 24.7389 9.34113C24.7387 9.02534 24.739 8.70954 24.7395 8.39375C24.7401 8.00838 24.7399 7.62303 24.7388 7.23767C24.7383 7.04141 24.7381 6.84518 24.7388 6.64893C24.7432 5.2973 24.6527 4.05391 23.5585 3.10437Z" fill="#4C6589"/>
<path d="M16.8823 6.64153C16.8827 6.69119 16.8831 6.74086 16.8834 6.79202C16.8832 6.87361 16.8832 6.87361 16.8831 6.95685C16.8835 7.04372 16.8835 7.04372 16.8839 7.13235C16.8847 7.3271 16.8847 7.52185 16.8847 7.7166C16.8852 7.85596 16.8856 7.99531 16.8861 8.13467C16.8873 8.51376 16.8877 8.89285 16.888 9.27194C16.8881 9.50869 16.8885 9.74544 16.8889 9.98218C16.8899 10.6378 16.8908 11.2934 16.8909 11.949C16.8909 12.0119 16.8909 12.0119 16.8909 12.0761C16.891 12.1611 16.891 12.2462 16.891 12.3312C16.891 12.3946 16.891 12.3946 16.891 12.4592C16.891 12.5014 16.891 12.5437 16.891 12.5873C16.8912 13.2721 16.8927 13.9569 16.8946 14.6418C16.8966 15.345 16.8976 16.0483 16.8977 16.7515C16.8977 17.1463 16.8981 17.5411 16.8997 17.9359C16.901 18.2721 16.9013 18.6083 16.9005 18.9445C16.9002 19.1159 16.9004 19.2874 16.9014 19.4588C16.9025 19.6449 16.9019 19.831 16.901 20.0171C16.9017 20.071 16.9024 20.1249 16.9031 20.1805C16.8985 20.5704 16.7983 20.8234 16.5295 21.107C16.276 21.3364 16.0098 21.4226 15.6692 21.4115C15.2935 21.3591 15.0075 21.2109 14.7715 20.9152C14.5842 20.6109 14.5903 20.3373 14.5913 19.9888C14.591 19.9025 14.591 19.9025 14.5906 19.8145C14.5899 19.6214 14.59 19.4282 14.5901 19.2351C14.5898 19.0968 14.5894 18.9584 14.589 18.8201C14.5882 18.4832 14.5879 18.1462 14.5878 17.8092C14.5878 17.5353 14.5876 17.2613 14.5872 16.9874C14.5863 16.2105 14.5858 15.4336 14.5859 14.6567C14.5859 14.6149 14.5859 14.573 14.5859 14.5298C14.5859 14.4879 14.5859 14.446 14.5859 14.4028C14.586 13.7234 14.5849 13.044 14.5835 12.3646C14.5819 11.6669 14.5812 10.9691 14.5813 10.2713C14.5813 9.87962 14.5811 9.48796 14.5799 9.09628C14.579 8.76279 14.5787 8.4293 14.5795 8.0958C14.5798 7.92572 14.5797 7.75566 14.5789 7.58558C14.5781 7.40099 14.5786 7.21645 14.5794 7.03187C14.5786 6.95165 14.5786 6.95165 14.5777 6.86981C14.5817 6.45824 14.6704 6.17533 14.9607 5.87841C15.2732 5.66805 15.5903 5.5418 15.9739 5.60537C16.3671 5.71791 16.6148 5.92914 16.8191 6.28004C16.8752 6.41001 16.882 6.50038 16.8823 6.64153Z" fill="#4C6589"/>
<path d="M12.4088 10.2518C12.4091 10.3175 12.4091 10.3175 12.4095 10.3844C12.4102 10.531 12.4101 10.6776 12.41 10.8242C12.4103 10.9293 12.4107 11.0345 12.4111 11.1396C12.412 11.4252 12.4122 11.7107 12.4123 11.9963C12.4124 12.2348 12.4128 12.4732 12.4132 12.7116C12.414 13.2743 12.4143 13.8369 12.4142 14.3995C12.4141 14.9797 12.4153 15.5599 12.4169 16.1401C12.4183 16.6384 12.4189 17.1367 12.4188 17.6349C12.4188 17.9325 12.4191 18.23 12.4202 18.5275C12.4212 18.8075 12.4212 19.0873 12.4204 19.3672C12.4203 19.4698 12.4206 19.5725 12.4212 19.6751C12.422 19.8154 12.4215 19.9557 12.4207 20.096C12.4215 20.1566 12.4215 20.1566 12.4224 20.2183C12.4177 20.5864 12.2966 20.8586 12.0394 21.1216C11.7269 21.332 11.4099 21.4582 11.0262 21.3946C10.6286 21.2808 10.4051 21.0697 10.1811 20.7317C10.1088 20.5473 10.1165 20.3662 10.1171 20.171C10.1168 20.1269 10.1165 20.0827 10.1162 20.0372C10.1154 19.889 10.1154 19.7408 10.1154 19.5926C10.115 19.4864 10.1145 19.3803 10.114 19.2741C10.1129 18.9855 10.1124 18.6969 10.1121 18.4083C10.112 18.2279 10.1116 18.0476 10.1112 17.8673C10.11 17.2382 10.1093 16.6091 10.1091 15.98C10.1089 15.3937 10.1073 14.8073 10.1051 14.221C10.1033 13.7176 10.1025 13.2142 10.1024 12.7107C10.1024 12.4101 10.1019 12.1094 10.1004 11.8088C10.0991 11.5259 10.0989 11.243 10.0998 10.9602C10.0999 10.8564 10.0995 10.7527 10.0987 10.649C10.0976 10.5072 10.0982 10.3654 10.0991 10.2236C10.0984 10.1828 10.0977 10.1419 10.097 10.0999C10.1023 9.75549 10.2358 9.51033 10.4706 9.26105C10.7249 9.03251 10.99 8.94589 11.3309 8.95699C11.7066 9.00943 11.9926 9.15762 12.2286 9.45331C12.3894 9.7147 12.41 9.9501 12.4088 10.2518Z" fill="#4C6589"/>
<path d="M7.92833 13.5833C7.92863 13.6432 7.92893 13.7031 7.92924 13.7648C7.9293 13.8304 7.92936 13.8959 7.92942 13.9634C7.92968 14.0325 7.92994 14.1017 7.93021 14.173C7.9309 14.3626 7.93124 14.5523 7.93147 14.742C7.93163 14.8606 7.93185 14.9792 7.93208 15.0978C7.9328 15.4692 7.93331 15.8406 7.93351 16.212C7.93375 16.6401 7.93467 17.0683 7.9362 17.4964C7.93734 17.8277 7.93787 18.159 7.93794 18.4903C7.93799 18.688 7.9383 18.8857 7.93924 19.0834C7.94011 19.2695 7.94022 19.4556 7.93976 19.6418C7.9397 19.7421 7.94042 19.8425 7.94117 19.9428C7.93917 20.3562 7.917 20.6851 7.64133 21.013C7.31517 21.286 7.09292 21.413 6.66576 21.4059C6.3248 21.3718 6.08818 21.2362 5.86825 20.9735C5.6582 20.6876 5.59875 20.503 5.59769 20.1529C5.59724 20.0631 5.59724 20.0631 5.59678 19.9714C5.59672 19.9059 5.59667 19.8403 5.5966 19.7728C5.59634 19.7037 5.59608 19.6345 5.59581 19.5632C5.59512 19.3736 5.59478 19.1839 5.59455 18.9942C5.5944 18.8756 5.59418 18.757 5.59394 18.6384C5.59322 18.267 5.59272 17.8956 5.59251 17.5242C5.59228 17.0961 5.59135 16.668 5.58983 16.2398C5.58869 15.9085 5.58816 15.5772 5.58809 15.2459C5.58803 15.0482 5.58773 14.8505 5.58678 14.6528C5.58591 14.4667 5.5858 14.2806 5.58626 14.0945C5.58632 13.9941 5.5856 13.8937 5.58486 13.7934C5.58686 13.3801 5.60902 13.0511 5.8847 12.7233C6.21085 12.4502 6.4331 12.3232 6.86026 12.3304C7.20122 12.3644 7.43784 12.5 7.65777 12.7627C7.86783 13.0486 7.92728 13.2332 7.92833 13.5833Z" fill="#4C6589"/>
<path d="M21.4034 17.0233C21.4037 17.0596 21.404 17.0959 21.4042 17.1333C21.405 17.2532 21.4054 17.3731 21.4056 17.4929C21.406 17.5766 21.4063 17.6602 21.4066 17.7439C21.4071 17.9193 21.4074 18.0947 21.4076 18.27C21.4079 18.494 21.4092 18.7179 21.4107 18.9418C21.4116 19.1147 21.4119 19.2875 21.412 19.4604C21.4121 19.5429 21.4126 19.6254 21.4133 19.7079C21.4206 20.6506 21.4206 20.6506 21.1153 21.0136C20.7892 21.2866 20.5669 21.4136 20.1398 21.4065C19.7988 21.3725 19.5622 21.2368 19.3423 20.9741C19.1123 20.6611 19.0727 20.4672 19.0706 20.0827C19.0704 20.0464 19.0701 20.0101 19.0698 19.9726C19.0691 19.8528 19.0687 19.7329 19.0684 19.6131C19.0681 19.5294 19.0678 19.4458 19.0675 19.3621C19.067 19.1867 19.0666 19.0113 19.0665 18.836C19.0662 18.612 19.0649 18.3881 19.0634 18.1642C19.0624 17.9913 19.0622 17.8185 19.0621 17.6456C19.0619 17.5631 19.0615 17.4806 19.0608 17.3981C19.0534 16.4554 19.0534 16.4554 19.3587 16.0924C19.6849 15.8193 19.9071 15.6923 20.3343 15.6995C20.6752 15.7335 20.9119 15.8692 21.1318 16.1319C21.3618 16.4449 21.4013 16.6388 21.4034 17.0233Z" fill="#4C6589"/>
</svg>
