<svg width="41" height="41" viewBox="0 0 41 41" fill="none" xmlns="http://www.w3.org/2000/svg">
<circle cx="20.5" cy="20.5" r="20.5" fill="#91A2BA"/>
<path d="M19.7139 9.42969H21.2856L22.2679 9.62615L23.0537 9.92083L23.7413 10.2646L24.3798 10.7067L24.871 11.1487L25.4112 11.689L25.8532 12.3275L26.197 12.9168L26.4917 13.6535L26.7373 14.5867L26.7864 14.9305V16.5022L26.59 17.4845L26.197 18.5159L25.8041 19.2035L25.313 19.842L24.5271 20.6278L23.8887 21.0699L23.2993 21.4137L22.2679 21.8066L21.2856 22.003H19.7139L18.7316 21.8066L17.9458 21.5119L17.2582 21.1681L16.5706 20.6769L16.0794 20.2349L15.6374 19.7929L15.1463 19.1053L14.8024 18.5159L14.4095 17.4845L14.2131 16.5022V14.9305L14.4095 13.9482L14.7533 13.0151L15.1954 12.2292L15.6865 11.5907L16.4723 10.8049L17.2582 10.2646L18.044 9.87172L18.9281 9.57703L19.7139 9.42969ZM20.1559 11.5416L19.3701 11.689L18.7316 11.9345L18.1914 12.2292L17.7002 12.6221L17.2582 13.0642L16.8161 13.7518L16.5706 14.292L16.3741 14.9796L16.325 15.3726V16.0602L16.4723 16.846L16.7179 17.4845L17.0126 18.0248L17.4055 18.5159L17.8476 18.9579L18.5352 19.4L19.0754 19.6455L19.763 19.842L20.1559 19.8911H20.8436L21.6294 19.7438L22.2679 19.4982L22.8081 19.2035L23.2993 18.8106L23.7413 18.3686L24.1833 17.6809L24.4289 17.1407L24.6254 16.404L24.6745 16.0602V15.3726L24.5271 14.5867L24.2816 13.9482L23.9869 13.408L23.594 12.9168L23.1519 12.4748L22.4643 12.0328L21.9241 11.7872L21.1874 11.5907L20.8436 11.5416H20.1559Z" fill="white"/>
<path d="M19.9598 24.0664H21.0403L22.2681 24.2138L23.2504 24.4593L24.2327 24.8031L25.215 25.2943L26.0991 25.8836L26.5902 26.2766L27.1796 26.8168L27.6216 27.2589L28.1619 27.9465L28.6531 28.6832L29.1442 29.6164L29.5371 30.6478L29.7827 31.5809L29.93 32.5632V33.8893L29.6353 34.3314L29.3407 34.5278L29.1933 34.5769H28.5548L28.2601 34.4296L28.0146 34.184L27.8181 33.7911L27.7199 32.5632L27.5234 31.6301L27.2287 30.746L26.8358 29.9602L26.4429 29.3217L26.05 28.8305L25.6079 28.3394L25.0677 27.8482L24.3801 27.3571L23.3487 26.8168L22.3173 26.473L21.5805 26.3257L21.1876 26.2766H19.8124L18.9284 26.4239L18.0443 26.6695L17.2585 27.0133L16.4726 27.4553L15.8341 27.9465L15.343 28.3885L14.8027 28.9779L14.3607 29.6164L13.9187 30.4022L13.624 31.1389L13.4275 31.7774L13.2802 32.5632L13.1819 33.7911L12.9364 34.2823L12.5926 34.5278L12.4452 34.5769H11.8067L11.4138 34.3805L11.1191 33.9876L11.07 33.8402V32.5632L11.2665 31.3845L11.5612 30.3531L12.0032 29.3217L12.4943 28.4376L13.0346 27.7009L13.5749 27.0624L14.2133 26.4239L14.9009 25.8836L15.6377 25.3925L16.7673 24.8031L18.0934 24.3611L19.0266 24.1646L19.9598 24.0664Z" fill="white"/>
</svg>
