<svg width="38" height="38" viewBox="0 0 38 38" fill="none" xmlns="http://www.w3.org/2000/svg">
<circle cx="19" cy="19" r="18.5" stroke="#627A9C"/>
<path d="M15.56 14.592C15.56 14.3773 15.63 14.2373 15.77 14.172C15.9193 14.1067 16.1293 14.074 16.4 14.074H21.258C21.454 14.074 21.5893 14.1253 21.664 14.228C21.7387 14.3213 21.776 14.4333 21.776 14.564C21.776 14.6573 21.762 14.7553 21.734 14.858C21.706 14.9513 21.6687 15.0353 21.622 15.11C21.0247 16.0713 20.5393 17 20.166 17.896C19.802 18.792 19.5127 19.6693 19.298 20.528C19.0927 21.3773 18.92 22.222 18.78 23.062C18.752 23.2487 18.724 23.412 18.696 23.552C18.668 23.692 18.598 23.804 18.486 23.888C18.3833 23.9627 18.192 24 17.912 24C17.5947 24 17.38 23.9627 17.268 23.888C17.156 23.804 17.1 23.7013 17.1 23.58C17.1 23.5053 17.1093 23.4073 17.128 23.286C17.1467 23.1553 17.198 22.9313 17.282 22.614C17.5527 21.6153 17.8607 20.6447 18.206 19.702C18.5513 18.7593 18.9293 17.8727 19.34 17.042C19.7507 16.202 20.1847 15.46 20.642 14.816H16.904V15.614C16.904 15.95 16.848 16.188 16.736 16.328C16.624 16.4587 16.4327 16.524 16.162 16.524C15.7607 16.524 15.56 16.2907 15.56 15.824V14.592Z" fill="#627A9C"/>
</svg>
