<svg width="38" height="38" viewBox="0 0 38 38" fill="none" xmlns="http://www.w3.org/2000/svg">
<circle cx="19" cy="19" r="18.5" stroke="#627A9C"/>
<path d="M12.75 15.628C12.638 15.6747 12.526 15.698 12.414 15.698C12.2927 15.698 12.1993 15.656 12.134 15.572C12.078 15.4787 12.05 15.3853 12.05 15.292C12.05 15.236 12.0687 15.18 12.106 15.124C12.1433 15.068 12.2227 15.0213 12.344 14.984L14.318 14.214C14.4487 14.1673 14.5793 14.1347 14.71 14.116C14.85 14.088 14.9713 14.074 15.074 14.074C15.55 14.074 15.788 14.3073 15.788 14.774V23.258H16.992C17.2347 23.258 17.3887 23.3 17.454 23.384C17.5193 23.468 17.552 23.5613 17.552 23.664C17.552 23.748 17.5287 23.8273 17.482 23.902C17.4353 23.9673 17.3187 24 17.132 24H12.96C12.7827 24 12.666 23.9673 12.61 23.902C12.5633 23.8273 12.54 23.748 12.54 23.664C12.54 23.5613 12.5727 23.468 12.638 23.384C12.7127 23.3 12.8667 23.258 13.1 23.258H14.304V15.04L12.75 15.628ZM20.4538 15.628C20.3418 15.6747 20.2298 15.698 20.1178 15.698C19.9965 15.698 19.9032 15.656 19.8378 15.572C19.7818 15.4787 19.7538 15.3853 19.7538 15.292C19.7538 15.236 19.7725 15.18 19.8098 15.124C19.8472 15.068 19.9265 15.0213 20.0478 14.984L22.0218 14.214C22.1525 14.1673 22.2832 14.1347 22.4138 14.116C22.5538 14.088 22.6752 14.074 22.7778 14.074C23.2538 14.074 23.4918 14.3073 23.4918 14.774V23.258H24.6958C24.9385 23.258 25.0925 23.3 25.1578 23.384C25.2232 23.468 25.2558 23.5613 25.2558 23.664C25.2558 23.748 25.2325 23.8273 25.1858 23.902C25.1392 23.9673 25.0225 24 24.8358 24H20.6638C20.4865 24 20.3698 23.9673 20.3138 23.902C20.2672 23.8273 20.2438 23.748 20.2438 23.664C20.2438 23.5613 20.2765 23.468 20.3418 23.384C20.4165 23.3 20.5705 23.258 20.8038 23.258H22.0078V15.04L20.4538 15.628Z" fill="#627A9C"/>
</svg>
