<svg width="17" height="20" viewBox="0 0 17 20" fill="none" xmlns="http://www.w3.org/2000/svg">
<path d="M8.16597 0.00413006C8.32403 0.00501853 8.48206 0.00449105 8.64013 0.00359336C9.84545 -0.00222033 10.9064 0.150978 11.8646 0.960132C11.8962 0.986566 11.9279 1.013 11.9605 1.04024C12.5945 1.58843 13.0915 2.35513 13.2681 3.18235C13.2681 3.23381 13.2681 3.28527 13.2681 3.3383C13.3025 3.33795 13.337 3.3376 13.3725 3.33725C13.6983 3.33411 14.0241 3.33174 14.3499 3.33022C14.5173 3.3294 14.6848 3.3283 14.8523 3.32653C15.014 3.32483 15.1758 3.3239 15.3376 3.3235C15.3992 3.32321 15.4607 3.32265 15.5223 3.32181C16.123 3.31389 16.123 3.31389 16.387 3.49424C16.5963 3.69888 16.6841 3.90735 16.7159 4.19356C16.7056 4.41285 16.6261 4.61235 16.4773 4.77424C16.2767 4.95154 16.1327 5.0248 15.86 5.02232C15.7869 5.02194 15.7869 5.02194 15.7123 5.02156C15.6616 5.02091 15.6108 5.02025 15.5585 5.01958C15.5072 5.01923 15.4558 5.01888 15.4029 5.01851C15.2761 5.01759 15.1493 5.01631 15.0225 5.01471C15.0225 5.03825 15.0226 5.0618 15.0226 5.08605C15.0261 6.48435 15.0288 7.88265 15.0304 9.28095C15.0306 9.44919 15.0308 9.61743 15.031 9.78567C15.0311 9.81916 15.0311 9.85265 15.0311 9.88716C15.0318 10.428 15.033 10.9689 15.0345 11.5098C15.0359 12.0656 15.0368 12.6214 15.0371 13.1772C15.0373 13.5196 15.038 13.862 15.0393 14.2044C15.0401 14.4398 15.0404 14.6753 15.0402 14.9107C15.0401 15.0461 15.0402 15.1816 15.041 15.317C15.0476 16.5563 14.8323 17.5516 14.0478 18.5429C14.0282 18.5686 14.0086 18.5943 13.9884 18.6208C13.8169 18.8354 13.6014 18.9994 13.385 19.1667C13.3413 19.2017 13.3413 19.2017 13.2967 19.2374C12.6892 19.6962 11.8992 19.9889 11.137 19.9909C11.0609 19.9913 11.0609 19.9913 10.9833 19.9916C10.9278 19.9916 10.8723 19.9917 10.8167 19.9917C10.7577 19.9919 10.6987 19.9921 10.6397 19.9923C10.4799 19.9928 10.32 19.9931 10.1602 19.9932C10.0601 19.9934 9.95998 19.9935 9.85987 19.9937C9.5459 19.9942 9.23193 19.9946 8.91796 19.9948C8.55692 19.9949 8.1959 19.9956 7.83487 19.9967C7.55491 19.9976 7.27496 19.998 6.99501 19.998C6.82823 19.9981 6.66146 19.9983 6.49469 19.999C6.3375 19.9996 6.18032 19.9997 6.02314 19.9994C5.96592 19.9994 5.9087 19.9995 5.85149 19.9999C4.8216 20.0065 3.86533 19.652 3.09265 18.9718C3.05244 18.9412 3.01224 18.9107 2.97081 18.8792C2.25728 18.2277 1.78042 17.2408 1.68914 16.2817C1.68366 16.1282 1.68405 15.9748 1.68445 15.8212C1.68442 15.7749 1.68438 15.7287 1.68435 15.6811C1.6843 15.5532 1.68442 15.4254 1.68462 15.2975C1.68478 15.1595 1.68473 15.0214 1.6847 14.8833C1.68468 14.6443 1.6848 14.4053 1.68502 14.1663C1.68533 13.8207 1.68544 13.4751 1.68549 13.1295C1.68557 12.5688 1.68583 12.0081 1.6862 11.4474C1.68656 10.9027 1.68683 10.3581 1.687 9.81351C1.68701 9.77993 1.68702 9.74635 1.68703 9.71175C1.68708 9.54327 1.68713 9.37479 1.68718 9.20631C1.68758 7.80911 1.68827 6.41191 1.68914 5.01471C1.6577 5.01573 1.62627 5.01675 1.59388 5.0178C1.4502 5.02187 1.30654 5.02439 1.16282 5.02689C1.08865 5.02934 1.08865 5.02934 1.01297 5.03184C0.675427 5.03623 0.471718 4.99779 0.226792 4.76348C0.0559294 4.57662 -0.00750821 4.37824 0.000698458 4.12624C0.0395357 3.84799 0.149304 3.63616 0.368327 3.46135C0.551228 3.34879 0.702511 3.32869 0.916315 3.32944C0.943722 3.32943 0.971128 3.32942 0.999366 3.32941C1.08944 3.32946 1.17951 3.33007 1.26958 3.33068C1.33224 3.33083 1.39489 3.33094 1.45755 3.33102C1.62207 3.33131 1.78659 3.33208 1.95112 3.33294C2.11916 3.33374 2.2872 3.3341 2.45524 3.33449C2.78467 3.33532 3.11409 3.33665 3.44352 3.3383C3.44899 3.28996 3.45446 3.24163 3.46009 3.19184C3.47398 3.08122 3.4902 2.97947 3.52926 2.87457C3.53848 2.84963 3.54769 2.82469 3.55719 2.79899C3.56712 2.77352 3.57705 2.74806 3.58728 2.72182C3.59772 2.69473 3.60815 2.66763 3.6189 2.63971C4.02059 1.6216 4.82426 0.78536 5.82516 0.342243C5.86566 0.324853 5.86566 0.324853 5.90697 0.307111C5.93072 0.296598 5.95448 0.286086 5.97895 0.275254C6.06836 0.238866 6.15841 0.209286 6.25054 0.180406C6.29293 0.166586 6.33533 0.152765 6.37901 0.138526C6.95846 -0.0289187 7.56857 0.000738961 8.16597 0.00413006ZM5.97763 2.24668C5.94984 2.26799 5.92205 2.2893 5.89341 2.31125C5.57191 2.5739 5.36323 2.92219 5.19791 3.29931C5.19791 3.31217 5.19791 3.32504 5.19791 3.3383C7.28211 3.3383 9.36632 3.3383 11.5137 3.3383C11.2034 2.64008 10.7851 2.15882 10.0712 1.85682C9.69291 1.7207 9.33961 1.69449 8.94044 1.69295C8.89539 1.69273 8.85034 1.69251 8.80393 1.69228C8.70874 1.69191 8.61355 1.69166 8.51836 1.69151C8.37428 1.69113 8.23023 1.68992 8.08617 1.68869C7.29244 1.68513 6.62327 1.74628 5.97763 2.24668ZM3.36555 5.01471C3.36328 6.91887 3.36328 6.91887 3.36174 8.82303C3.36159 9.08014 3.36143 9.33725 3.36127 9.59436C3.36125 9.62658 3.36123 9.6588 3.3612 9.692C3.36087 10.2112 3.36025 10.7304 3.35953 11.2496C3.3588 11.783 3.35837 12.3165 3.35821 12.8499C3.35811 13.1786 3.35777 13.5074 3.35714 13.8362C3.35672 14.0621 3.3566 14.2879 3.3567 14.5138C3.35675 14.6439 3.35663 14.7739 3.35626 14.904C3.35345 15.9174 3.37573 16.8126 4.10873 17.5951C4.68475 18.1474 5.37157 18.3146 6.15011 18.3153C6.20304 18.3155 6.25597 18.3157 6.30889 18.3159C6.45213 18.3164 6.59536 18.3167 6.7386 18.3168C6.82834 18.3169 6.91808 18.3171 7.00782 18.3173C7.28934 18.3178 7.57086 18.3182 7.85238 18.3183C8.17597 18.3185 8.49955 18.3192 8.82313 18.3203C9.07415 18.3212 9.32516 18.3216 9.57618 18.3216C9.72567 18.3217 9.87516 18.3219 10.0247 18.3226C10.1656 18.3232 10.3064 18.3233 10.4473 18.323C10.5228 18.3229 10.5982 18.3235 10.6736 18.324C11.1167 18.3219 11.5568 18.2605 11.9523 18.0507C11.9783 18.0373 12.0043 18.0239 12.0312 18.01C12.2676 17.8826 12.4588 17.7234 12.6443 17.5293C12.6689 17.5054 12.6935 17.4816 12.7189 17.457C13.2709 16.8867 13.3528 16.1066 13.3507 15.3524C13.3508 15.3079 13.3508 15.2634 13.3508 15.2176C13.3509 15.0697 13.3507 14.9218 13.3505 14.7739C13.3504 14.6674 13.3505 14.561 13.3505 14.4545C13.3505 14.2259 13.3504 13.9972 13.3502 13.7686C13.3498 13.438 13.3497 13.1075 13.3497 12.7769C13.3496 12.2405 13.3493 11.7041 13.349 11.1676C13.3486 10.6468 13.3483 10.1259 13.3482 9.60507C13.3482 9.57259 13.3482 9.54012 13.3482 9.50667C13.3481 9.25269 13.348 8.99871 13.3479 8.74473C13.3476 7.50139 13.3468 6.25805 13.346 5.01471C10.0525 5.01471 6.75892 5.01471 3.36555 5.01471Z" fill="white"/>
<path d="M10.4362 8.40899C10.6514 8.52908 10.7717 8.67715 10.8505 8.91338C10.8545 8.98725 10.8562 9.06126 10.8567 9.13525C10.8571 9.18149 10.8575 9.22772 10.8579 9.27536C10.8581 9.32615 10.8584 9.37695 10.8586 9.42928C10.859 9.48327 10.8594 9.53726 10.8598 9.59125C10.861 9.76866 10.8618 9.94606 10.8625 10.1235C10.8627 10.1688 10.8627 10.1688 10.8629 10.215C10.8641 10.5001 10.8651 10.7852 10.8658 11.0702C10.8666 11.4345 10.8683 11.7987 10.871 12.1629C10.8728 12.4192 10.8738 12.6755 10.8741 12.9318C10.8742 13.0848 10.8748 13.2377 10.8764 13.3907C10.8778 13.5347 10.8781 13.6788 10.8776 13.8228C10.8776 13.9005 10.8788 13.9781 10.88 14.0557C10.8775 14.3649 10.8305 14.5702 10.6165 14.8003C10.3593 15.0221 10.0841 15.0173 9.75884 14.9952C9.52015 14.9143 9.38104 14.7637 9.24749 14.5535C9.13745 14.3259 9.15227 14.0917 9.15387 13.8435C9.15366 13.7906 9.15338 13.7377 9.15304 13.6848C9.15233 13.5418 9.1526 13.3988 9.1531 13.2558C9.1535 13.1058 9.15313 12.9557 9.15288 12.8056C9.1526 12.5537 9.15297 12.3017 9.15372 12.0498C9.15457 11.759 9.15429 11.4683 9.15343 11.1776C9.15272 10.9274 9.15263 10.6772 9.15303 10.4269C9.15327 10.2778 9.15331 10.1286 9.15279 9.9794C9.15234 9.8391 9.15266 9.69883 9.15356 9.55853C9.15386 9.48289 9.1534 9.40725 9.15291 9.33161C9.15591 9.02133 9.18944 8.80334 9.39807 8.56159C9.41983 8.5442 9.44159 8.52681 9.46401 8.50889C9.48567 8.4909 9.50733 8.47291 9.52965 8.45437C9.81069 8.27091 10.1353 8.27225 10.4362 8.40899Z" fill="white"/>
<path d="M7.08145 8.38924C7.307 8.51984 7.45326 8.70732 7.5371 8.9521C7.54724 9.05963 7.54724 9.05963 7.54779 9.17865C7.54837 9.2466 7.54837 9.2466 7.54897 9.31593C7.54899 9.36528 7.54902 9.41464 7.54904 9.4655C7.54934 9.51828 7.54967 9.57107 7.55003 9.62386C7.55088 9.767 7.55123 9.91015 7.55142 10.0533C7.55157 10.1429 7.55181 10.2324 7.55209 10.322C7.55304 10.6349 7.55355 10.9478 7.55369 11.2607C7.55383 11.5517 7.55499 11.8426 7.55663 12.1336C7.55798 12.3839 7.55858 12.6342 7.55861 12.8845C7.55864 13.0338 7.55898 13.1831 7.56009 13.3323C7.56112 13.4729 7.5612 13.6135 7.56057 13.7541C7.56047 13.8297 7.56132 13.9053 7.56222 13.9809C7.55974 14.2795 7.51828 14.5141 7.34217 14.7611C7.10807 14.9834 6.8849 15.0093 6.57402 15.0055C6.35499 14.9876 6.21291 14.9255 6.06415 14.7633C5.91443 14.5716 5.85592 14.4347 5.85521 14.189C5.85499 14.1429 5.85477 14.0968 5.85454 14.0494C5.85449 13.9988 5.85445 13.9481 5.85441 13.896C5.85423 13.8422 5.85403 13.7884 5.85382 13.7346C5.85331 13.5884 5.85306 13.4422 5.85288 13.296C5.85277 13.2046 5.85261 13.1133 5.85244 13.0219C5.8519 12.736 5.85153 12.4502 5.85137 12.1643C5.8512 11.8343 5.85052 11.5044 5.84939 11.1745C5.84854 10.9194 5.84815 10.6643 5.8481 10.4093C5.84806 10.2569 5.84783 10.1046 5.84713 9.95231C5.84649 9.80898 5.8464 9.66566 5.84675 9.52233C5.84679 9.44481 5.84626 9.36729 5.8457 9.28977C5.84592 9.24336 5.84614 9.19696 5.84636 9.14915C5.8463 9.10898 5.84625 9.06881 5.84619 9.02742C5.87592 8.79307 5.99561 8.6337 6.17258 8.48426C6.44615 8.29296 6.77227 8.25268 7.08145 8.38924Z" fill="white"/>
</svg>
