<svg width="28" height="34" viewBox="0 0 28 34" fill="none" xmlns="http://www.w3.org/2000/svg">
<mask id="path-1-inside-1_541_2950" fill="white">
<path d="M8.88397 23.9426C8.88397 25.0471 9.79048 25.965 10.8672 25.7185C12.4822 25.3486 13.9756 24.5312 15.1659 23.3411C16.832 21.6754 17.7679 19.4163 17.7679 17.0606C17.7679 14.705 16.832 12.4459 15.1659 10.7802C13.9756 9.59011 12.4822 8.77264 10.8672 8.40282C9.79048 8.15627 8.88397 9.07414 8.88397 10.1787V17.0606V23.9426Z"/>
</mask>
<path d="M8.88397 23.9426C8.88397 25.0471 9.79048 25.965 10.8672 25.7185C12.4822 25.3486 13.9756 24.5312 15.1659 23.3411C16.832 21.6754 17.7679 19.4163 17.7679 17.0606C17.7679 14.705 16.832 12.4459 15.1659 10.7802C13.9756 9.59011 12.4822 8.77264 10.8672 8.40282C9.79048 8.15627 8.88397 9.07414 8.88397 10.1787V17.0606V23.9426Z" fill="#4C6589" stroke="#4C6589" stroke-width="6" mask="url(#path-1-inside-1_541_2950)"/>
<mask id="path-2-inside-2_541_2950" fill="white">
<path fill-rule="evenodd" clip-rule="evenodd" d="M9.25141 16.7612C9.35048 16.6128 9.61718 16.5175 9.92668 16.5198C10.3753 16.5231 10.5014 16.6469 10.4981 17.0803C10.4947 17.5155 10.384 17.71 10.1083 17.7652C9.59919 17.8669 9.19592 17.5866 9.19764 17.1322C9.19828 16.9715 9.22244 16.8046 9.25141 16.7612ZM11.0352 14.543C11.1395 14.4463 11.2878 14.3672 11.3647 14.3672C11.5509 14.3672 11.9122 14.5854 11.9564 14.7245C11.9758 14.7857 11.9641 15.2595 11.9303 15.7774C11.8953 16.3127 11.8966 17.3172 11.9331 18.1055L11.9974 19.492L11.8118 19.6533C11.2619 20.131 10.6853 19.56 10.95 18.7999C11.1049 18.3552 11.1072 15.9298 10.953 15.5609C10.78 15.1468 10.812 14.7498 11.0352 14.543ZM12.7757 12.9282C12.9975 12.7063 13.2642 12.6606 13.5974 12.7872C13.7254 12.8359 13.8007 12.9415 13.8574 13.1516C13.9503 13.4966 13.8996 13.8051 13.6945 14.1425C13.5512 14.3783 13.549 14.4457 13.5965 17.1492C13.6388 19.5533 13.6603 19.9316 13.7613 20.0432C13.8893 20.1846 13.9712 20.7806 13.9011 21.06C13.8343 21.3259 13.66 21.4631 13.3888 21.4631C12.8092 21.4631 12.5911 21.1631 12.6757 20.482C12.7042 20.2529 12.7362 18.7905 12.747 17.2322C12.7625 14.967 12.7466 14.3418 12.6673 14.1143C12.6128 13.9577 12.5678 13.674 12.5672 13.4837C12.5663 13.196 12.6014 13.1024 12.7757 12.9282ZM12.7955 11.4428C12.9241 11.3143 13.2447 11.3391 13.3795 11.4879C13.5183 11.6412 13.5351 11.9363 13.4121 12.0593C13.2827 12.1886 12.8056 12.1687 12.753 12.0319C12.6813 11.845 12.7037 11.5347 12.7955 11.4428ZM12.8672 22.1225C13.0073 21.9825 13.4105 22.0162 13.4956 22.1752C13.5952 22.3612 13.5894 22.6333 13.4838 22.739C13.3781 22.8446 13.1059 22.8503 12.9198 22.7508C12.7609 22.6657 12.7271 22.2626 12.8672 22.1225ZM12.9007 10.0428C12.9799 9.9636 13.3201 9.98904 13.4121 10.081C13.4594 10.1283 13.4981 10.2509 13.4981 10.3534C13.4981 10.5787 13.3784 10.7118 13.1755 10.7118C13.0927 10.7118 12.9862 10.673 12.9389 10.6257C12.8474 10.5343 12.8205 10.1229 12.9007 10.0428ZM12.9694 23.6505C13.0401 23.5798 13.174 23.5425 13.3099 23.5558C13.514 23.5756 13.534 23.5999 13.534 23.8284C13.534 24.0601 13.5157 24.081 13.2963 24.1021C12.9064 24.1395 12.7275 23.8924 12.9694 23.6505ZM13.1383 1.23771C13.208 1.00677 13.2948 0.891514 13.7014 0.489627C14.0771 0.118418 14.3877 0.00158608 15.0036 9.23715e-06C15.6386 -0.00171096 16.0582 0.243635 16.3887 0.809874C16.7365 1.40536 16.7415 1.42622 16.9789 3.23395C17.0125 3.49055 17.0915 3.60272 17.5344 4.02317C19.006 5.42042 19.3769 6.09439 19.3769 7.37201C19.3769 8.31484 18.9475 8.9172 18.2568 8.94336C17.7862 8.96114 17.6614 8.78446 17.6396 8.06971C17.5995 6.75481 17.6241 6.68228 18.1013 6.71159C18.2474 6.72055 18.3889 6.70607 18.4156 6.67941C18.4818 6.61318 17.9233 5.70197 17.5717 5.30259C17.4144 5.1239 17.2233 4.97768 17.1471 4.97768C17.0133 4.97768 17.01 5.02929 17.0492 6.50079C17.097 8.28868 17.1898 9.13854 17.358 9.32611C17.4235 9.39915 17.6862 9.70048 17.9418 9.99571C18.1975 10.291 18.6132 10.7583 18.8658 11.0343C19.1183 11.3102 19.4576 11.708 19.6198 11.9181C20.4822 13.0358 20.524 13.1026 20.524 13.3636C20.524 13.7746 20.3194 13.8919 19.9442 13.6962C19.7067 13.5723 19.621 13.6336 19.2746 14.1749C19.0468 14.531 19.0218 14.6087 19.1015 14.7121C19.1528 14.7787 19.3729 15.0471 19.5905 15.3086C19.8082 15.5702 20.0703 15.8925 20.1729 16.0249C20.3401 16.2408 20.3724 16.2551 20.4835 16.163C20.6792 16.0005 21.038 15.2352 20.9897 15.083C20.9661 15.0087 20.8871 14.929 20.8142 14.9059C20.5608 14.8255 20.5577 14.2683 20.8102 14.1882C21.0255 14.1199 21.5553 14.2782 21.6971 14.4532C21.8086 14.5906 21.8253 14.7049 21.7974 15.14C21.7685 15.5914 21.7149 15.7574 21.4015 16.368L21.0389 17.0739L21.4 17.6318C21.7106 18.1116 21.7662 18.2523 21.7971 18.6376C21.8412 19.1876 21.7959 19.382 21.5571 19.6657C21.4113 19.839 21.3146 19.8863 21.1055 19.8863C20.9591 19.8863 20.8007 19.8476 20.7534 19.8002C20.6017 19.6486 20.6514 19.2809 20.8466 19.1112C20.9452 19.0255 21.0258 18.922 21.0258 18.8812C21.0258 18.7594 20.6159 17.9853 20.5008 17.8899C20.4124 17.8165 20.3452 17.8539 20.1059 18.1092C19.9473 18.2784 19.74 18.5298 19.6452 18.6678C19.5505 18.8057 19.3857 19.0457 19.2791 19.201C19.1724 19.3564 19.1014 19.5257 19.1214 19.5775C19.1412 19.6293 19.2889 19.8458 19.4497 20.0586C19.7399 20.443 19.7432 20.4448 19.9485 20.3424C20.3875 20.1234 20.7004 20.4146 20.5352 20.8883C20.4609 21.1015 20.1386 21.5745 19.9727 21.714C19.9258 21.7534 19.7456 21.9792 19.5722 22.2157C19.3989 22.4523 18.9473 23.0006 18.5687 23.4342C18.1901 23.8679 17.7592 24.3618 17.6112 24.5321C17.3876 24.7891 17.3328 24.9164 17.2874 25.2847C17.2303 25.7475 17.1936 28.9805 17.2448 29.0317C17.3109 29.0977 17.7907 28.6472 18.0132 28.3103C18.1442 28.112 18.311 27.8624 18.3839 27.7556C18.604 27.4334 18.5611 27.3405 18.1922 27.3405C17.9044 27.3405 17.8593 27.3183 17.7925 27.1434C17.7501 27.0326 17.7274 26.5907 17.7405 26.134C17.7609 25.4211 17.7813 25.3087 17.9072 25.2145C18.1007 25.0697 18.7165 25.1207 18.9723 25.3026C19.4762 25.661 19.642 26.5414 19.3918 27.5304C19.2033 28.2755 18.8855 28.769 18.0139 29.67C17.6325 30.0642 17.2824 30.4586 17.2358 30.5465C17.1892 30.6343 17.1184 31.0536 17.0784 31.4783C16.9925 32.391 16.932 32.6327 16.6698 33.1097C16.5264 33.3708 16.3669 33.532 16.079 33.7065C15.7029 33.9346 15.6583 33.9443 15.1112 33.917C14.4596 33.8843 14.1719 33.7645 13.8005 33.3708C13.3975 32.9436 13.321 32.7424 13.3199 32.107C13.3187 31.3999 13.4694 31.1125 13.9899 30.8292C14.4111 30.6 14.7635 30.5854 15.1475 30.7812C15.5077 30.965 15.6016 31.1469 15.5599 31.5806C15.5152 32.0458 15.355 32.2145 14.958 32.2145C14.678 32.2145 14.6437 32.1954 14.6047 32.0174C14.5174 31.6187 14.5103 31.6111 14.3569 31.75C14.0832 31.9977 14.254 32.6223 14.67 32.8948C15.2819 33.2957 15.9576 32.9281 16.1593 32.0847C16.1942 31.9393 16.2554 30.9333 16.2954 29.8492C16.4736 25.0269 16.4823 24.8931 16.6457 24.519C16.7294 24.3272 16.862 24.0804 16.9403 23.9704C17.0186 23.8605 17.0827 23.7555 17.0827 23.7371C17.0827 23.7188 16.9343 23.687 16.7527 23.6665C16.5712 23.6461 16.3696 23.5761 16.3046 23.511C16.1436 23.3497 16.158 22.6565 16.3263 22.4706C16.4346 22.351 16.4419 22.2014 16.3963 21.0483L16.3455 19.7595L16.5273 19.6404C16.8502 19.429 17.0981 19.5727 17.2603 20.0654C17.3036 20.197 17.3247 20.1881 17.5162 19.9579C17.631 19.82 17.7437 19.6514 17.7665 19.5835C17.7954 19.4976 17.5424 19.1282 16.9358 18.3707C15.8787 17.0509 15.8817 17.0695 16.5912 16.1599C16.8418 15.8387 17.1374 15.4571 17.248 15.312C17.3586 15.1668 17.528 14.9742 17.6244 14.884C17.7208 14.7937 17.7995 14.6808 17.7994 14.6331C17.7991 14.5306 17.3063 13.9372 17.2214 13.9372C17.1892 13.9372 17.1359 14.0743 17.103 14.2418C17.0474 14.5248 17.0254 14.5478 16.7941 14.5651C16.3329 14.5997 16.33 14.5905 16.33 13.0943C16.33 11.9298 16.3127 11.7186 16.2045 11.5534C15.8527 11.0165 16.2983 10.2223 16.8365 10.4268C16.9376 10.4653 17.0347 10.4967 17.0522 10.4967C17.0986 10.4967 16.9236 10.2043 16.778 10.0389C16.709 9.96044 16.6526 9.85809 16.6526 9.81143C16.6526 9.7647 16.5914 9.58536 16.5167 9.41277C16.3701 9.07417 16.2745 7.68861 16.1808 4.54763C16.1133 2.28066 15.9228 1.44249 15.3704 0.981753C15.2207 0.856894 14.7408 0.869867 14.5128 1.0049C14.064 1.27082 13.7982 1.91304 14.0179 2.20053C14.1376 2.35721 14.3133 2.38768 14.3262 2.254C14.3319 2.19487 14.3415 2.09079 14.3475 2.0227C14.3535 1.95461 14.4393 1.84595 14.5381 1.78123C14.7722 1.62791 15.0472 1.73335 15.2725 2.06277C15.5215 2.42695 15.4713 2.77121 15.1177 3.12414C14.5812 3.65971 13.3158 3.21833 13.1368 2.43319C13.0579 2.08757 13.0586 1.50133 13.1383 1.23771ZM13.1842 6.85724C13.26 6.68543 13.7713 6.48287 14.1292 6.48287C14.6751 6.48287 15.0678 6.72285 15.306 7.202L15.5009 7.59385L15.5122 9.88748C15.5183 11.149 15.5436 12.7615 15.5682 13.4709L15.613 14.7607L15.8805 14.8864C16.1654 15.0203 16.2708 15.2397 16.1951 15.5413C16.1137 15.8658 15.433 15.8546 15.1264 15.5236C14.7695 15.1385 14.7624 15.0648 14.7204 11.321C14.6907 8.66942 14.6587 7.76974 14.5898 7.64926C14.4976 7.48798 14.2884 7.34298 14.1481 7.34298C14.0494 7.34298 14.045 8.39318 14.1433 8.45396C14.1828 8.47833 14.215 8.64039 14.215 8.81406C14.215 9.1781 14.0719 9.30138 13.692 9.26462C13.3144 9.22813 13.1812 8.86287 13.1606 7.80888C13.1513 7.33582 13.1619 6.90755 13.1842 6.85724ZM13.3511 26.0012C13.4058 25.0229 13.4874 24.8848 13.9913 24.9181C14.2691 24.9365 14.3197 24.9649 14.3624 25.1257C14.3904 25.231 14.3696 25.4335 14.3145 25.5916C14.1841 25.9661 14.1811 26.7671 14.3101 26.7671C14.4392 26.7671 14.6905 26.489 14.7838 26.2428C14.8341 26.1101 14.8606 24.8467 14.8613 22.5515C14.8621 19.9041 14.884 19.0193 14.952 18.8849C15.0848 18.6225 15.4856 18.3811 15.7885 18.3811C16.1177 18.3811 16.223 18.4851 16.2201 18.8075C16.2174 19.1167 16.0965 19.2906 15.8612 19.3238L15.6847 19.3487L15.6847 22.9325L15.6847 26.5163L15.5015 26.8722C15.1515 27.5524 14.2606 27.8444 13.6626 27.4748C13.4291 27.3305 13.269 27.0752 13.2946 26.8879C13.301 26.8412 13.3265 26.4422 13.3511 26.0012ZM14.0709 4.71262C14.2234 4.34357 14.9085 4.23154 15.329 4.50699C15.4831 4.60791 15.5055 4.67557 15.5055 5.0399C15.5055 5.54256 15.378 5.69408 14.9109 5.74676C14.6179 5.77973 14.2114 5.65179 14.1203 5.49783C14.0435 5.3681 14.0113 4.85669 14.0709 4.71262ZM14.0659 16.69C14.1329 16.5343 14.5422 16.3025 14.7504 16.3025C14.9061 16.3025 15.1601 16.4395 15.2702 16.5829C15.3809 16.7271 15.3876 17.3151 15.2811 17.5486C15.1118 17.9202 14.5305 17.9642 14.2157 17.6292C14.0387 17.4408 13.9587 16.9394 14.0659 16.69ZM14.4125 28.5555C14.6034 28.3418 14.6661 28.3164 15.0039 28.3164C15.327 28.3164 15.4061 28.3449 15.5511 28.5134C15.6723 28.6543 15.7206 28.7979 15.7206 29.018C15.7206 29.533 15.3326 29.8186 14.7957 29.6988C14.4646 29.6249 14.2834 29.4246 14.2374 29.0815C14.2043 28.8351 14.2292 28.7605 14.4125 28.5555ZM17.2389 17.3307C17.3247 17.4551 17.5446 17.7181 17.7275 17.9152C17.9104 18.1123 18.1181 18.3623 18.189 18.4707C18.26 18.579 18.3708 18.6662 18.4352 18.6642C18.4997 18.6623 18.7944 18.354 19.0901 17.9793C19.9109 16.9391 19.8617 17.0624 19.5826 16.7449C19.4497 16.5937 19.1538 16.2226 18.9249 15.9203C18.696 15.618 18.4812 15.3707 18.4475 15.3707C18.3163 15.3707 17.1104 16.8565 17.0895 17.044C17.0857 17.0774 17.153 17.2064 17.2389 17.3307ZM17.2487 11.6894L17.262 12.6112L17.8045 13.1666C18.1029 13.4721 18.3813 13.7221 18.4232 13.7221C18.5289 13.7221 19.0901 12.966 19.0901 12.8236C19.0901 12.7106 18.5159 11.9722 17.9773 11.3927C17.8308 11.235 17.6573 11.0415 17.5917 10.9626C17.5262 10.8838 17.3997 10.7565 17.3104 10.6799C17.1849 10.5721 17.1581 10.5662 17.1918 10.6541C17.2158 10.7166 17.2414 11.1824 17.2487 11.6894ZM17.3579 23.0704L17.4053 23.4232L17.6204 23.1718C17.7387 23.0335 17.9162 22.8266 18.0147 22.7119C18.8211 21.7744 19.1618 21.3574 19.1618 21.3083C19.1618 21.2167 18.6867 20.4994 18.552 20.3876C18.4426 20.2969 18.4015 20.3168 18.1683 20.5739C17.7428 21.0432 17.4441 21.3993 17.3709 21.5247C17.2934 21.6573 17.286 22.5365 17.3579 23.0704ZM17.9879 2.24647C18.0521 2.19329 18.233 2.14971 18.3899 2.14971C18.8855 2.14971 19.1055 2.60629 18.7981 2.99692C18.6119 3.23359 18.2282 3.25588 18.0147 3.04243C17.8351 2.86289 17.8191 2.3866 17.9879 2.24647ZM18.0917 16.7064C18.2626 16.489 18.543 16.4579 18.7874 16.6291C18.9056 16.7118 18.9467 16.8126 18.9467 17.0192C18.9467 17.2259 18.9056 17.3266 18.7874 17.4094C18.5615 17.5676 18.2607 17.5481 18.0892 17.3641C17.9027 17.164 17.9036 16.9453 18.0917 16.7064ZM18.1069 30.9691C18.1575 30.8998 18.3312 30.8254 18.4928 30.8038C18.9816 30.7382 19.2269 31.1192 19.0069 31.6019C18.9347 31.7604 18.8786 31.7845 18.5819 31.7845C18.3667 31.7845 18.1983 31.7427 18.1274 31.6718C17.9913 31.5357 17.9798 31.1429 18.1069 30.9691ZM19.9777 9.02228C20.288 8.35612 20.9411 7.99581 21.6796 8.08325C22.3566 8.16339 22.7431 8.52241 22.801 9.12485C22.8505 9.64056 22.6159 10.116 22.2807 10.1788C21.9067 10.249 21.6064 10.1557 21.5557 9.95342C21.4953 9.71302 21.5801 9.42159 21.7105 9.42159C21.8594 9.42159 21.9212 9.22777 21.8136 9.09811C21.5986 8.83908 21.0307 9.0622 20.8114 9.4919C20.6319 9.84383 20.6323 9.89594 20.819 10.395C20.9629 10.7794 21.6281 11.6859 22.1318 12.1839C22.253 12.3037 22.4599 12.536 22.5916 12.7001C22.7233 12.8642 22.8958 13.0726 22.9748 13.1632C23.233 13.4591 23.3114 13.6912 23.3235 14.1943C23.3299 14.4668 23.3821 14.9041 23.4392 15.1662C23.531 15.5865 23.5305 15.6729 23.4352 15.9009C23.3349 16.141 23.3056 16.159 23.0189 16.158C22.4594 16.156 22.3828 15.9895 22.4583 14.9395C22.4917 14.4749 22.4853 14.1333 22.4416 14.0447C22.3528 13.865 21.8878 13.2957 21.4461 12.8262C20.265 11.5705 19.8065 10.7444 19.8078 9.87458C19.8083 9.51233 19.8523 9.29164 19.9777 9.02228ZM20.068 23.1546C20.2132 22.752 20.7228 22.013 21.2885 21.3845C21.5581 21.085 21.9318 20.6541 22.1191 20.427L22.4597 20.0141L22.4597 19.098C22.4597 18.3318 22.4802 18.1568 22.5851 18.0284C22.7518 17.8245 23.1846 17.7543 23.3368 17.9064C23.4913 18.0609 23.5624 18.5386 23.4737 18.8259C23.4335 18.9558 23.3717 19.3754 23.3363 19.7583L23.2719 20.4547L22.8682 20.9768C22.6461 21.264 22.3417 21.628 22.1917 21.7857C21.2592 22.7664 20.8705 23.409 20.8244 24.0465C20.7978 24.4151 20.8145 24.4755 21.0023 24.6856C21.2448 24.957 21.7872 25.0732 21.9418 24.887C22.0114 24.8032 21.9946 24.7657 21.8529 24.6899C21.6347 24.5732 21.5582 24.2566 21.6844 23.9923C21.7639 23.8256 21.8316 23.7889 22.093 23.7701C22.3522 23.7515 22.4409 23.7806 22.6055 23.9383C22.8708 24.1924 22.9961 24.6862 22.8841 25.0368C22.7892 25.3341 22.5142 25.6576 22.2302 25.8059C21.983 25.9351 21.2352 25.9365 20.9287 25.8085C20.5396 25.6459 20.187 25.2855 20.064 24.9245C19.9242 24.5143 19.9264 23.5472 20.068 23.1546ZM22.0018 16.5277C22.0913 16.3999 22.159 16.3731 22.302 16.409C22.4036 16.4345 22.5244 16.507 22.5706 16.57C22.6648 16.699 22.6255 17.2898 22.5132 17.4314C22.4227 17.5454 22.0848 17.5476 21.9721 17.4349C21.8468 17.3097 21.866 16.7215 22.0018 16.5277ZM23.8407 16.552C23.9778 16.3926 24.0798 16.3455 24.2877 16.3455C24.6789 16.3455 24.8516 16.5795 24.8065 17.0484C24.7668 17.4614 24.6324 17.5926 24.2494 17.5926C23.925 17.5926 23.7514 17.4172 23.7005 17.0377C23.6701 16.811 23.6965 16.7195 23.8407 16.552ZM24.0896 14.9406C24.153 14.7761 24.4018 14.5822 24.5497 14.5822C24.7873 14.5822 24.9689 14.8413 24.9689 15.1804C24.9689 15.5497 24.8115 15.7291 24.4875 15.7291C24.3087 15.7291 24.247 15.6841 24.1526 15.4853C24.0323 15.2319 24.0197 15.1223 24.0896 14.9406ZM24.1915 18.3986C24.313 18.2771 24.7883 18.2857 24.8926 18.4113C24.9399 18.4684 24.9675 18.6655 24.9551 18.8587C24.9362 19.1547 24.9048 19.2177 24.7359 19.2983C24.5731 19.3759 24.5043 19.3759 24.3416 19.2982C24.1707 19.2167 24.1416 19.1563 24.1234 18.8459C24.1106 18.6292 24.1375 18.4525 24.1915 18.3986ZM25.415 16.5574C25.635 16.4033 26.0648 16.4139 26.2124 16.5769C26.3559 16.7355 26.3677 17.1568 26.2337 17.34C26.095 17.5296 25.5087 17.5268 25.3642 17.3358C25.1986 17.117 25.2265 16.6894 25.415 16.5574ZM27.1555 16.6186C27.4399 16.5472 27.6857 16.6417 27.7359 16.8417C27.7965 17.0832 27.5981 17.3776 27.3748 17.3776C27.0448 17.3776 26.9763 17.3087 26.9763 16.9771C26.9763 16.7024 26.9985 16.658 27.1555 16.6186Z"/>
</mask>
<path fill-rule="evenodd" clip-rule="evenodd" d="M9.25141 16.7612C9.35048 16.6128 9.61718 16.5175 9.92668 16.5198C10.3753 16.5231 10.5014 16.6469 10.4981 17.0803C10.4947 17.5155 10.384 17.71 10.1083 17.7652C9.59919 17.8669 9.19592 17.5866 9.19764 17.1322C9.19828 16.9715 9.22244 16.8046 9.25141 16.7612ZM11.0352 14.543C11.1395 14.4463 11.2878 14.3672 11.3647 14.3672C11.5509 14.3672 11.9122 14.5854 11.9564 14.7245C11.9758 14.7857 11.9641 15.2595 11.9303 15.7774C11.8953 16.3127 11.8966 17.3172 11.9331 18.1055L11.9974 19.492L11.8118 19.6533C11.2619 20.131 10.6853 19.56 10.95 18.7999C11.1049 18.3552 11.1072 15.9298 10.953 15.5609C10.78 15.1468 10.812 14.7498 11.0352 14.543ZM12.7757 12.9282C12.9975 12.7063 13.2642 12.6606 13.5974 12.7872C13.7254 12.8359 13.8007 12.9415 13.8574 13.1516C13.9503 13.4966 13.8996 13.8051 13.6945 14.1425C13.5512 14.3783 13.549 14.4457 13.5965 17.1492C13.6388 19.5533 13.6603 19.9316 13.7613 20.0432C13.8893 20.1846 13.9712 20.7806 13.9011 21.06C13.8343 21.3259 13.66 21.4631 13.3888 21.4631C12.8092 21.4631 12.5911 21.1631 12.6757 20.482C12.7042 20.2529 12.7362 18.7905 12.747 17.2322C12.7625 14.967 12.7466 14.3418 12.6673 14.1143C12.6128 13.9577 12.5678 13.674 12.5672 13.4837C12.5663 13.196 12.6014 13.1024 12.7757 12.9282ZM12.7955 11.4428C12.9241 11.3143 13.2447 11.3391 13.3795 11.4879C13.5183 11.6412 13.5351 11.9363 13.4121 12.0593C13.2827 12.1886 12.8056 12.1687 12.753 12.0319C12.6813 11.845 12.7037 11.5347 12.7955 11.4428ZM12.8672 22.1225C13.0073 21.9825 13.4105 22.0162 13.4956 22.1752C13.5952 22.3612 13.5894 22.6333 13.4838 22.739C13.3781 22.8446 13.1059 22.8503 12.9198 22.7508C12.7609 22.6657 12.7271 22.2626 12.8672 22.1225ZM12.9007 10.0428C12.9799 9.9636 13.3201 9.98904 13.4121 10.081C13.4594 10.1283 13.4981 10.2509 13.4981 10.3534C13.4981 10.5787 13.3784 10.7118 13.1755 10.7118C13.0927 10.7118 12.9862 10.673 12.9389 10.6257C12.8474 10.5343 12.8205 10.1229 12.9007 10.0428ZM12.9694 23.6505C13.0401 23.5798 13.174 23.5425 13.3099 23.5558C13.514 23.5756 13.534 23.5999 13.534 23.8284C13.534 24.0601 13.5157 24.081 13.2963 24.1021C12.9064 24.1395 12.7275 23.8924 12.9694 23.6505ZM13.1383 1.23771C13.208 1.00677 13.2948 0.891514 13.7014 0.489627C14.0771 0.118418 14.3877 0.00158608 15.0036 9.23715e-06C15.6386 -0.00171096 16.0582 0.243635 16.3887 0.809874C16.7365 1.40536 16.7415 1.42622 16.9789 3.23395C17.0125 3.49055 17.0915 3.60272 17.5344 4.02317C19.006 5.42042 19.3769 6.09439 19.3769 7.37201C19.3769 8.31484 18.9475 8.9172 18.2568 8.94336C17.7862 8.96114 17.6614 8.78446 17.6396 8.06971C17.5995 6.75481 17.6241 6.68228 18.1013 6.71159C18.2474 6.72055 18.3889 6.70607 18.4156 6.67941C18.4818 6.61318 17.9233 5.70197 17.5717 5.30259C17.4144 5.1239 17.2233 4.97768 17.1471 4.97768C17.0133 4.97768 17.01 5.02929 17.0492 6.50079C17.097 8.28868 17.1898 9.13854 17.358 9.32611C17.4235 9.39915 17.6862 9.70048 17.9418 9.99571C18.1975 10.291 18.6132 10.7583 18.8658 11.0343C19.1183 11.3102 19.4576 11.708 19.6198 11.9181C20.4822 13.0358 20.524 13.1026 20.524 13.3636C20.524 13.7746 20.3194 13.8919 19.9442 13.6962C19.7067 13.5723 19.621 13.6336 19.2746 14.1749C19.0468 14.531 19.0218 14.6087 19.1015 14.7121C19.1528 14.7787 19.3729 15.0471 19.5905 15.3086C19.8082 15.5702 20.0703 15.8925 20.1729 16.0249C20.3401 16.2408 20.3724 16.2551 20.4835 16.163C20.6792 16.0005 21.038 15.2352 20.9897 15.083C20.9661 15.0087 20.8871 14.929 20.8142 14.9059C20.5608 14.8255 20.5577 14.2683 20.8102 14.1882C21.0255 14.1199 21.5553 14.2782 21.6971 14.4532C21.8086 14.5906 21.8253 14.7049 21.7974 15.14C21.7685 15.5914 21.7149 15.7574 21.4015 16.368L21.0389 17.0739L21.4 17.6318C21.7106 18.1116 21.7662 18.2523 21.7971 18.6376C21.8412 19.1876 21.7959 19.382 21.5571 19.6657C21.4113 19.839 21.3146 19.8863 21.1055 19.8863C20.9591 19.8863 20.8007 19.8476 20.7534 19.8002C20.6017 19.6486 20.6514 19.2809 20.8466 19.1112C20.9452 19.0255 21.0258 18.922 21.0258 18.8812C21.0258 18.7594 20.6159 17.9853 20.5008 17.8899C20.4124 17.8165 20.3452 17.8539 20.1059 18.1092C19.9473 18.2784 19.74 18.5298 19.6452 18.6678C19.5505 18.8057 19.3857 19.0457 19.2791 19.201C19.1724 19.3564 19.1014 19.5257 19.1214 19.5775C19.1412 19.6293 19.2889 19.8458 19.4497 20.0586C19.7399 20.443 19.7432 20.4448 19.9485 20.3424C20.3875 20.1234 20.7004 20.4146 20.5352 20.8883C20.4609 21.1015 20.1386 21.5745 19.9727 21.714C19.9258 21.7534 19.7456 21.9792 19.5722 22.2157C19.3989 22.4523 18.9473 23.0006 18.5687 23.4342C18.1901 23.8679 17.7592 24.3618 17.6112 24.5321C17.3876 24.7891 17.3328 24.9164 17.2874 25.2847C17.2303 25.7475 17.1936 28.9805 17.2448 29.0317C17.3109 29.0977 17.7907 28.6472 18.0132 28.3103C18.1442 28.112 18.311 27.8624 18.3839 27.7556C18.604 27.4334 18.5611 27.3405 18.1922 27.3405C17.9044 27.3405 17.8593 27.3183 17.7925 27.1434C17.7501 27.0326 17.7274 26.5907 17.7405 26.134C17.7609 25.4211 17.7813 25.3087 17.9072 25.2145C18.1007 25.0697 18.7165 25.1207 18.9723 25.3026C19.4762 25.661 19.642 26.5414 19.3918 27.5304C19.2033 28.2755 18.8855 28.769 18.0139 29.67C17.6325 30.0642 17.2824 30.4586 17.2358 30.5465C17.1892 30.6343 17.1184 31.0536 17.0784 31.4783C16.9925 32.391 16.932 32.6327 16.6698 33.1097C16.5264 33.3708 16.3669 33.532 16.079 33.7065C15.7029 33.9346 15.6583 33.9443 15.1112 33.917C14.4596 33.8843 14.1719 33.7645 13.8005 33.3708C13.3975 32.9436 13.321 32.7424 13.3199 32.107C13.3187 31.3999 13.4694 31.1125 13.9899 30.8292C14.4111 30.6 14.7635 30.5854 15.1475 30.7812C15.5077 30.965 15.6016 31.1469 15.5599 31.5806C15.5152 32.0458 15.355 32.2145 14.958 32.2145C14.678 32.2145 14.6437 32.1954 14.6047 32.0174C14.5174 31.6187 14.5103 31.6111 14.3569 31.75C14.0832 31.9977 14.254 32.6223 14.67 32.8948C15.2819 33.2957 15.9576 32.9281 16.1593 32.0847C16.1942 31.9393 16.2554 30.9333 16.2954 29.8492C16.4736 25.0269 16.4823 24.8931 16.6457 24.519C16.7294 24.3272 16.862 24.0804 16.9403 23.9704C17.0186 23.8605 17.0827 23.7555 17.0827 23.7371C17.0827 23.7188 16.9343 23.687 16.7527 23.6665C16.5712 23.6461 16.3696 23.5761 16.3046 23.511C16.1436 23.3497 16.158 22.6565 16.3263 22.4706C16.4346 22.351 16.4419 22.2014 16.3963 21.0483L16.3455 19.7595L16.5273 19.6404C16.8502 19.429 17.0981 19.5727 17.2603 20.0654C17.3036 20.197 17.3247 20.1881 17.5162 19.9579C17.631 19.82 17.7437 19.6514 17.7665 19.5835C17.7954 19.4976 17.5424 19.1282 16.9358 18.3707C15.8787 17.0509 15.8817 17.0695 16.5912 16.1599C16.8418 15.8387 17.1374 15.4571 17.248 15.312C17.3586 15.1668 17.528 14.9742 17.6244 14.884C17.7208 14.7937 17.7995 14.6808 17.7994 14.6331C17.7991 14.5306 17.3063 13.9372 17.2214 13.9372C17.1892 13.9372 17.1359 14.0743 17.103 14.2418C17.0474 14.5248 17.0254 14.5478 16.7941 14.5651C16.3329 14.5997 16.33 14.5905 16.33 13.0943C16.33 11.9298 16.3127 11.7186 16.2045 11.5534C15.8527 11.0165 16.2983 10.2223 16.8365 10.4268C16.9376 10.4653 17.0347 10.4967 17.0522 10.4967C17.0986 10.4967 16.9236 10.2043 16.778 10.0389C16.709 9.96044 16.6526 9.85809 16.6526 9.81143C16.6526 9.7647 16.5914 9.58536 16.5167 9.41277C16.3701 9.07417 16.2745 7.68861 16.1808 4.54763C16.1133 2.28066 15.9228 1.44249 15.3704 0.981753C15.2207 0.856894 14.7408 0.869867 14.5128 1.0049C14.064 1.27082 13.7982 1.91304 14.0179 2.20053C14.1376 2.35721 14.3133 2.38768 14.3262 2.254C14.3319 2.19487 14.3415 2.09079 14.3475 2.0227C14.3535 1.95461 14.4393 1.84595 14.5381 1.78123C14.7722 1.62791 15.0472 1.73335 15.2725 2.06277C15.5215 2.42695 15.4713 2.77121 15.1177 3.12414C14.5812 3.65971 13.3158 3.21833 13.1368 2.43319C13.0579 2.08757 13.0586 1.50133 13.1383 1.23771ZM13.1842 6.85724C13.26 6.68543 13.7713 6.48287 14.1292 6.48287C14.6751 6.48287 15.0678 6.72285 15.306 7.202L15.5009 7.59385L15.5122 9.88748C15.5183 11.149 15.5436 12.7615 15.5682 13.4709L15.613 14.7607L15.8805 14.8864C16.1654 15.0203 16.2708 15.2397 16.1951 15.5413C16.1137 15.8658 15.433 15.8546 15.1264 15.5236C14.7695 15.1385 14.7624 15.0648 14.7204 11.321C14.6907 8.66942 14.6587 7.76974 14.5898 7.64926C14.4976 7.48798 14.2884 7.34298 14.1481 7.34298C14.0494 7.34298 14.045 8.39318 14.1433 8.45396C14.1828 8.47833 14.215 8.64039 14.215 8.81406C14.215 9.1781 14.0719 9.30138 13.692 9.26462C13.3144 9.22813 13.1812 8.86287 13.1606 7.80888C13.1513 7.33582 13.1619 6.90755 13.1842 6.85724ZM13.3511 26.0012C13.4058 25.0229 13.4874 24.8848 13.9913 24.9181C14.2691 24.9365 14.3197 24.9649 14.3624 25.1257C14.3904 25.231 14.3696 25.4335 14.3145 25.5916C14.1841 25.9661 14.1811 26.7671 14.3101 26.7671C14.4392 26.7671 14.6905 26.489 14.7838 26.2428C14.8341 26.1101 14.8606 24.8467 14.8613 22.5515C14.8621 19.9041 14.884 19.0193 14.952 18.8849C15.0848 18.6225 15.4856 18.3811 15.7885 18.3811C16.1177 18.3811 16.223 18.4851 16.2201 18.8075C16.2174 19.1167 16.0965 19.2906 15.8612 19.3238L15.6847 19.3487L15.6847 22.9325L15.6847 26.5163L15.5015 26.8722C15.1515 27.5524 14.2606 27.8444 13.6626 27.4748C13.4291 27.3305 13.269 27.0752 13.2946 26.8879C13.301 26.8412 13.3265 26.4422 13.3511 26.0012ZM14.0709 4.71262C14.2234 4.34357 14.9085 4.23154 15.329 4.50699C15.4831 4.60791 15.5055 4.67557 15.5055 5.0399C15.5055 5.54256 15.378 5.69408 14.9109 5.74676C14.6179 5.77973 14.2114 5.65179 14.1203 5.49783C14.0435 5.3681 14.0113 4.85669 14.0709 4.71262ZM14.0659 16.69C14.1329 16.5343 14.5422 16.3025 14.7504 16.3025C14.9061 16.3025 15.1601 16.4395 15.2702 16.5829C15.3809 16.7271 15.3876 17.3151 15.2811 17.5486C15.1118 17.9202 14.5305 17.9642 14.2157 17.6292C14.0387 17.4408 13.9587 16.9394 14.0659 16.69ZM14.4125 28.5555C14.6034 28.3418 14.6661 28.3164 15.0039 28.3164C15.327 28.3164 15.4061 28.3449 15.5511 28.5134C15.6723 28.6543 15.7206 28.7979 15.7206 29.018C15.7206 29.533 15.3326 29.8186 14.7957 29.6988C14.4646 29.6249 14.2834 29.4246 14.2374 29.0815C14.2043 28.8351 14.2292 28.7605 14.4125 28.5555ZM17.2389 17.3307C17.3247 17.4551 17.5446 17.7181 17.7275 17.9152C17.9104 18.1123 18.1181 18.3623 18.189 18.4707C18.26 18.579 18.3708 18.6662 18.4352 18.6642C18.4997 18.6623 18.7944 18.354 19.0901 17.9793C19.9109 16.9391 19.8617 17.0624 19.5826 16.7449C19.4497 16.5937 19.1538 16.2226 18.9249 15.9203C18.696 15.618 18.4812 15.3707 18.4475 15.3707C18.3163 15.3707 17.1104 16.8565 17.0895 17.044C17.0857 17.0774 17.153 17.2064 17.2389 17.3307ZM17.2487 11.6894L17.262 12.6112L17.8045 13.1666C18.1029 13.4721 18.3813 13.7221 18.4232 13.7221C18.5289 13.7221 19.0901 12.966 19.0901 12.8236C19.0901 12.7106 18.5159 11.9722 17.9773 11.3927C17.8308 11.235 17.6573 11.0415 17.5917 10.9626C17.5262 10.8838 17.3997 10.7565 17.3104 10.6799C17.1849 10.5721 17.1581 10.5662 17.1918 10.6541C17.2158 10.7166 17.2414 11.1824 17.2487 11.6894ZM17.3579 23.0704L17.4053 23.4232L17.6204 23.1718C17.7387 23.0335 17.9162 22.8266 18.0147 22.7119C18.8211 21.7744 19.1618 21.3574 19.1618 21.3083C19.1618 21.2167 18.6867 20.4994 18.552 20.3876C18.4426 20.2969 18.4015 20.3168 18.1683 20.5739C17.7428 21.0432 17.4441 21.3993 17.3709 21.5247C17.2934 21.6573 17.286 22.5365 17.3579 23.0704ZM17.9879 2.24647C18.0521 2.19329 18.233 2.14971 18.3899 2.14971C18.8855 2.14971 19.1055 2.60629 18.7981 2.99692C18.6119 3.23359 18.2282 3.25588 18.0147 3.04243C17.8351 2.86289 17.8191 2.3866 17.9879 2.24647ZM18.0917 16.7064C18.2626 16.489 18.543 16.4579 18.7874 16.6291C18.9056 16.7118 18.9467 16.8126 18.9467 17.0192C18.9467 17.2259 18.9056 17.3266 18.7874 17.4094C18.5615 17.5676 18.2607 17.5481 18.0892 17.3641C17.9027 17.164 17.9036 16.9453 18.0917 16.7064ZM18.1069 30.9691C18.1575 30.8998 18.3312 30.8254 18.4928 30.8038C18.9816 30.7382 19.2269 31.1192 19.0069 31.6019C18.9347 31.7604 18.8786 31.7845 18.5819 31.7845C18.3667 31.7845 18.1983 31.7427 18.1274 31.6718C17.9913 31.5357 17.9798 31.1429 18.1069 30.9691ZM19.9777 9.02228C20.288 8.35612 20.9411 7.99581 21.6796 8.08325C22.3566 8.16339 22.7431 8.52241 22.801 9.12485C22.8505 9.64056 22.6159 10.116 22.2807 10.1788C21.9067 10.249 21.6064 10.1557 21.5557 9.95342C21.4953 9.71302 21.5801 9.42159 21.7105 9.42159C21.8594 9.42159 21.9212 9.22777 21.8136 9.09811C21.5986 8.83908 21.0307 9.0622 20.8114 9.4919C20.6319 9.84383 20.6323 9.89594 20.819 10.395C20.9629 10.7794 21.6281 11.6859 22.1318 12.1839C22.253 12.3037 22.4599 12.536 22.5916 12.7001C22.7233 12.8642 22.8958 13.0726 22.9748 13.1632C23.233 13.4591 23.3114 13.6912 23.3235 14.1943C23.3299 14.4668 23.3821 14.9041 23.4392 15.1662C23.531 15.5865 23.5305 15.6729 23.4352 15.9009C23.3349 16.141 23.3056 16.159 23.0189 16.158C22.4594 16.156 22.3828 15.9895 22.4583 14.9395C22.4917 14.4749 22.4853 14.1333 22.4416 14.0447C22.3528 13.865 21.8878 13.2957 21.4461 12.8262C20.265 11.5705 19.8065 10.7444 19.8078 9.87458C19.8083 9.51233 19.8523 9.29164 19.9777 9.02228ZM20.068 23.1546C20.2132 22.752 20.7228 22.013 21.2885 21.3845C21.5581 21.085 21.9318 20.6541 22.1191 20.427L22.4597 20.0141L22.4597 19.098C22.4597 18.3318 22.4802 18.1568 22.5851 18.0284C22.7518 17.8245 23.1846 17.7543 23.3368 17.9064C23.4913 18.0609 23.5624 18.5386 23.4737 18.8259C23.4335 18.9558 23.3717 19.3754 23.3363 19.7583L23.2719 20.4547L22.8682 20.9768C22.6461 21.264 22.3417 21.628 22.1917 21.7857C21.2592 22.7664 20.8705 23.409 20.8244 24.0465C20.7978 24.4151 20.8145 24.4755 21.0023 24.6856C21.2448 24.957 21.7872 25.0732 21.9418 24.887C22.0114 24.8032 21.9946 24.7657 21.8529 24.6899C21.6347 24.5732 21.5582 24.2566 21.6844 23.9923C21.7639 23.8256 21.8316 23.7889 22.093 23.7701C22.3522 23.7515 22.4409 23.7806 22.6055 23.9383C22.8708 24.1924 22.9961 24.6862 22.8841 25.0368C22.7892 25.3341 22.5142 25.6576 22.2302 25.8059C21.983 25.9351 21.2352 25.9365 20.9287 25.8085C20.5396 25.6459 20.187 25.2855 20.064 24.9245C19.9242 24.5143 19.9264 23.5472 20.068 23.1546ZM22.0018 16.5277C22.0913 16.3999 22.159 16.3731 22.302 16.409C22.4036 16.4345 22.5244 16.507 22.5706 16.57C22.6648 16.699 22.6255 17.2898 22.5132 17.4314C22.4227 17.5454 22.0848 17.5476 21.9721 17.4349C21.8468 17.3097 21.866 16.7215 22.0018 16.5277ZM23.8407 16.552C23.9778 16.3926 24.0798 16.3455 24.2877 16.3455C24.6789 16.3455 24.8516 16.5795 24.8065 17.0484C24.7668 17.4614 24.6324 17.5926 24.2494 17.5926C23.925 17.5926 23.7514 17.4172 23.7005 17.0377C23.6701 16.811 23.6965 16.7195 23.8407 16.552ZM24.0896 14.9406C24.153 14.7761 24.4018 14.5822 24.5497 14.5822C24.7873 14.5822 24.9689 14.8413 24.9689 15.1804C24.9689 15.5497 24.8115 15.7291 24.4875 15.7291C24.3087 15.7291 24.247 15.6841 24.1526 15.4853C24.0323 15.2319 24.0197 15.1223 24.0896 14.9406ZM24.1915 18.3986C24.313 18.2771 24.7883 18.2857 24.8926 18.4113C24.9399 18.4684 24.9675 18.6655 24.9551 18.8587C24.9362 19.1547 24.9048 19.2177 24.7359 19.2983C24.5731 19.3759 24.5043 19.3759 24.3416 19.2982C24.1707 19.2167 24.1416 19.1563 24.1234 18.8459C24.1106 18.6292 24.1375 18.4525 24.1915 18.3986ZM25.415 16.5574C25.635 16.4033 26.0648 16.4139 26.2124 16.5769C26.3559 16.7355 26.3677 17.1568 26.2337 17.34C26.095 17.5296 25.5087 17.5268 25.3642 17.3358C25.1986 17.117 25.2265 16.6894 25.415 16.5574ZM27.1555 16.6186C27.4399 16.5472 27.6857 16.6417 27.7359 16.8417C27.7965 17.0832 27.5981 17.3776 27.3748 17.3776C27.0448 17.3776 26.9763 17.3087 26.9763 16.9771C26.9763 16.7024 26.9985 16.658 27.1555 16.6186Z" fill="#4C6589" stroke="#4C6589" stroke-width="2" mask="url(#path-2-inside-2_541_2950)"/>
</svg>
