<svg width="15" height="15" viewBox="0 0 15 15" fill="none" xmlns="http://www.w3.org/2000/svg">
<path d="M9.26752 5.66588C9.72708 6.09728 9.99149 6.71869 10.0292 7.34384C10.0386 8.04995 9.82413 8.66708 9.35251 9.19964C9.33638 9.21822 9.32025 9.23679 9.30363 9.25592C8.88044 9.71167 8.24416 9.95967 7.63204 9.99163C6.96984 10.0097 6.31889 9.80123 5.82728 9.34911C5.30537 8.85072 5.01558 8.22964 4.99792 7.50265C5.00879 6.83918 5.23714 6.25588 5.67782 5.75827C5.69394 5.7397 5.71007 5.72113 5.72669 5.70199C6.67711 4.67846 8.27725 4.79615 9.26752 5.66588ZM6.57279 6.67147C6.33472 6.97159 6.25821 7.30613 6.29026 7.68311C6.35654 8.0105 6.53503 8.3116 6.81522 8.4997C7.134 8.68459 7.44579 8.75922 7.8133 8.68483C8.13422 8.58834 8.40749 8.40032 8.57681 8.10838C8.74732 7.78169 8.80259 7.45211 8.69449 7.09253C8.56066 6.73912 8.33212 6.50038 7.99318 6.34258C7.49082 6.12505 6.93922 6.27614 6.57279 6.67147Z" fill="#4C6589"/>
<path d="M12.7852 0.507635C13.3218 0.925158 13.662 1.5174 13.7476 2.19153C13.8051 2.86527 13.6569 3.52751 13.223 4.06066C13.1593 4.13257 13.0936 4.20197 13.0267 4.27096C13.011 4.28881 12.9953 4.30667 12.9791 4.32507C12.62 4.71939 12.0224 4.96925 11.4981 5.00485C10.7929 5.03659 10.1452 4.87871 9.60724 4.40219C9.5609 4.35863 9.5147 4.31489 9.46871 4.27096C9.45078 4.2552 9.43284 4.23945 9.41437 4.22322C8.97275 3.82018 8.77503 3.19655 8.7314 2.61612C8.71366 1.91692 8.94926 1.30259 9.40491 0.77672C10.306 -0.168803 11.7459 -0.242018 12.7852 0.507635ZM10.2871 1.71727C10.056 2.0429 9.96948 2.37732 10.0364 2.77709C10.1298 3.12686 10.3501 3.41616 10.6617 3.59836C10.9641 3.75182 11.2717 3.77612 11.5977 3.68767C11.9091 3.58234 12.1835 3.37265 12.3417 3.0816C12.4895 2.76666 12.5288 2.44006 12.4252 2.10187C12.3672 1.94791 12.2903 1.82671 12.181 1.70451C12.1476 1.66661 12.1476 1.66661 12.1135 1.62795C11.8528 1.39751 11.5343 1.23807 11.1774 1.25599C10.8339 1.30625 10.5094 1.4436 10.2871 1.71727Z" fill="#4C6589"/>
<path d="M5.32038 0.507635C5.85698 0.925158 6.1972 1.5174 6.2828 2.19153C6.34021 2.86527 6.19202 3.52751 5.75819 4.06066C5.69442 4.13257 5.6288 4.20197 5.5619 4.27096C5.54618 4.28881 5.53047 4.30667 5.51428 4.32507C5.15515 4.71939 4.55755 4.96925 4.03321 5.00485C3.32805 5.03659 2.6804 4.87871 2.1424 4.40219C2.09605 4.35863 2.04986 4.31489 2.00387 4.27096C1.98593 4.2552 1.968 4.23945 1.94952 4.22322C1.50791 3.82018 1.31018 3.19655 1.26656 2.61612C1.24882 1.91692 1.48441 1.30259 1.94007 0.77672C2.84116 -0.168803 4.28102 -0.242018 5.32038 0.507635ZM2.82229 1.71727C2.59119 2.0429 2.50463 2.37732 2.57154 2.77709C2.66493 3.12686 2.88521 3.41616 3.19686 3.59836C3.49927 3.75182 3.80681 3.77612 4.13285 3.68767C4.4443 3.58234 4.71869 3.37265 4.87688 3.0816C5.02462 2.76666 5.06395 2.44006 4.96039 2.10187C4.90237 1.94791 4.82546 1.82671 4.71614 1.70451C4.68275 1.66661 4.68275 1.66661 4.64869 1.62795C4.38794 1.39751 4.06941 1.23807 3.71259 1.25599C3.36907 1.30625 3.04452 1.4436 2.82229 1.71727Z" fill="#4C6589"/>
<path d="M10.0803 11.567C10.7386 12.1613 11.194 13.0511 11.254 13.9405C11.2581 14.0262 11.2601 14.1118 11.2617 14.1976C11.2637 14.2409 11.2637 14.2409 11.2658 14.2851C11.2691 14.5012 11.2184 14.6371 11.074 14.7991C10.8822 14.9655 10.6752 14.9614 10.4324 14.9449C10.2565 14.8853 10.1381 14.77 10.0507 14.6073C9.98511 14.4725 9.97414 14.3475 9.96576 14.1994C9.91904 13.626 9.73542 13.1336 9.35331 12.6993C9.33444 12.6749 9.31556 12.6506 9.29612 12.6255C8.95397 12.2112 8.33769 11.9356 7.80761 11.8827C7.05768 11.8414 6.39574 12.0325 5.82102 12.5307C5.35191 12.97 5.11897 13.565 5.06799 14.1958C5.04827 14.4339 5.02253 14.647 4.83935 14.8185C4.6453 14.9654 4.45488 14.9641 4.22041 14.9449C4.04334 14.9001 3.94794 14.7965 3.84503 14.6505C3.65548 14.331 3.7823 13.763 3.86292 13.4211C4.10264 12.4865 4.67557 11.6478 5.5042 11.1379C6.99659 10.2577 8.77843 10.425 10.0803 11.567Z" fill="#4C6589"/>
<path d="M12.5996 5.83375C13.1017 6.04049 13.5139 6.31743 13.9021 6.69166C13.9231 6.71076 13.944 6.72986 13.9656 6.74954C14.149 6.92157 14.2881 7.12508 14.4271 7.33328C14.4455 7.36053 14.4638 7.38779 14.4828 7.41587C14.8237 7.95877 14.9862 8.6001 14.9976 9.23624C14.9984 9.26402 14.9992 9.29179 15 9.32041C14.9988 9.53317 14.9395 9.67308 14.7933 9.82751C14.6527 9.95455 14.4638 9.99508 14.2686 9.98534C14.0734 9.95289 13.9408 9.85365 13.8339 9.69642C13.7477 9.55994 13.7149 9.42765 13.7028 9.26863C13.6759 8.84015 13.5291 8.45315 13.2671 8.11507C13.0501 7.84026 12.7518 7.61774 12.4271 7.49359C12.2238 7.43127 12.0791 7.33497 11.9634 7.15626C11.8636 6.96266 11.8615 6.77393 11.9326 6.57196C12.0388 6.32957 12.2291 6.16249 12.4827 6.07637C12.5217 6.06286 12.5607 6.0486 12.5996 5.83375Z" fill="#4C6589"/>
<path d="M2.39942 5.83375C2.63916 5.91393 2.82374 6.00879 2.98093 6.19533C3.10861 6.36233 3.15697 6.52861 3.14386 6.73811C3.12072 6.93982 3.03229 7.09052 2.87157 7.21584C2.66988 7.36448 2.44862 7.43654 2.2041 7.51316C1.87498 7.65551 1.60867 7.88851 1.40869 8.18444C1.20384 8.49259 1.08834 8.8329 1.06494 9.20496C1.04927 9.4077 1.0084 9.55775 0.873869 9.70497C0.712097 9.85695 0.527046 9.93469 0.306713 9.92046C0.119782 9.87872 -0.00585938 9.7779 -0.00585938 9.7779C-0.00585938 9.7779 -0.0376282 9.47559 0.00439453 9.23624C0.0159912 8.60107 0.178589 7.95877 0.518921 7.41587C0.537842 7.38779 0.556152 7.36053 0.574707 7.33328C0.713745 7.12508 0.852844 6.92157 1.03613 6.74954C1.05762 6.72986 1.07861 6.71076 1.09961 6.69166C1.4878 6.31743 1.9 6.04049 2.39942 5.83375Z" fill="#4C6589"/>
</svg>
