<svg width="16" height="15" viewBox="0 0 16 15" fill="none" xmlns="http://www.w3.org/2000/svg">
<path d="M9.29594 5.68363C9.75691 6.11635 10.0221 6.73967 10.06 7.36674C10.0694 8.07502 9.85427 8.69404 9.38119 9.22824C9.36501 9.24687 9.34884 9.2655 9.33217 9.28469C8.90768 9.74183 8.26944 9.9906 7.65545 10.0227C6.99121 10.0407 6.33826 9.83167 5.84515 9.37817C5.32163 8.87824 5.03096 8.25526 5.01324 7.52604C5.02414 6.86053 5.2532 6.27544 5.69522 5.7763C5.7114 5.75767 5.72758 5.73904 5.74424 5.71985C6.69758 4.69318 8.30264 4.81123 9.29594 5.68363ZM6.59295 6.69231C6.35415 6.99334 6.27739 7.32892 6.30955 7.70705C6.37603 8.03544 6.55506 8.33747 6.83612 8.52615C7.15588 8.7116 7.46863 8.78646 7.83726 8.71184C8.15916 8.61506 8.43327 8.42647 8.60311 8.13363C8.77414 7.80593 8.82959 7.47534 8.72115 7.11466C8.58692 6.76017 8.35768 6.52069 8.01769 6.3624C7.51379 6.14421 6.9605 6.29576 6.59295 6.69231Z" fill="#4C6589"/>
<path d="M12.8249 0.509193C13.3632 0.927997 13.7044 1.52206 13.7903 2.19825C13.8479 2.87407 13.6992 3.53834 13.2641 4.07312C13.2001 4.14525 13.1343 4.21487 13.0672 4.28407C13.0514 4.30198 13.0357 4.31989 13.0194 4.33834C12.6592 4.73388 12.0598 4.9845 11.5338 5.02021C10.8265 5.05205 10.1768 4.89369 9.63718 4.41571C9.5907 4.372 9.54436 4.32814 9.49823 4.28407C9.48024 4.26826 9.46225 4.25246 9.44372 4.23619C9.00075 3.83191 8.80241 3.20636 8.75866 2.62415C8.74086 1.92281 8.97718 1.30659 9.43423 0.779104C10.3381 -0.169322 11.7824 -0.242761 12.8249 0.509193ZM10.3192 1.72254C10.0874 2.04917 10.0005 2.38461 10.0676 2.78561C10.1613 3.13646 10.3823 3.42665 10.6949 3.6094C10.9982 3.76333 11.3067 3.78771 11.6337 3.69899C11.9462 3.59334 12.2214 3.383 12.3801 3.09106C12.5282 2.77515 12.5677 2.44755 12.4638 2.10832C12.4056 1.95389 12.3285 1.83232 12.2188 1.70974C12.1853 1.67173 12.1853 1.67173 12.1512 1.63295C11.8896 1.4018 11.5701 1.24187 11.2122 1.25985C10.8676 1.31026 10.5421 1.44803 10.3192 1.72254Z" fill="#4C6589"/>
<path d="M5.33597 0.509193C5.87422 0.927997 6.21548 1.52206 6.30134 2.19825C6.35893 2.87407 6.21028 3.53834 5.77512 4.07312C5.71116 4.14525 5.64534 4.21487 5.57823 4.28407C5.56247 4.30198 5.5467 4.31989 5.53046 4.33834C5.17023 4.73388 4.5708 4.9845 4.04485 5.02021C3.33753 5.05205 2.68788 4.89369 2.14823 4.41571C2.10174 4.372 2.05541 4.32814 2.00927 4.28407C1.99129 4.26826 1.9733 4.25246 1.95477 4.23619C1.51179 3.83191 1.31346 3.20636 1.2697 2.62415C1.25191 1.92281 1.48823 1.30659 1.94528 0.779104C2.84914 -0.169322 4.29342 -0.242761 5.33597 0.509193ZM2.83021 1.72254C2.5984 2.04917 2.51158 2.38461 2.57869 2.78561C2.67236 3.13646 2.89333 3.42665 3.20593 3.6094C3.50927 3.76333 3.81775 3.78771 4.1448 3.69899C4.4572 3.59334 4.73243 3.383 4.89111 3.09106C5.0393 2.77515 5.07875 2.44755 4.97487 2.10832C4.91668 1.95389 4.83953 1.83232 4.72987 1.70974C4.69638 1.67173 4.69638 1.67173 4.66222 1.63295C4.40066 1.4018 4.08116 1.24187 3.72325 1.25985C3.37867 1.31026 3.05313 1.44803 2.83021 1.72254Z" fill="#4C6589"/>
<path d="M10.1104 11.6028C10.7708 12.1989 11.2275 13.0914 11.2877 13.9835C11.2918 14.0695 11.2939 14.1554 11.2955 14.2414C11.2975 14.2849 11.2975 14.2849 11.2995 14.3292C11.3028 14.546 11.252 14.6823 11.1072 14.8448C10.9148 15.0116 10.7071 15.0076 10.4636 14.9911C10.2871 14.9312 10.1684 14.8156 10.0808 14.6524C10.0149 14.5171 10.0039 14.3918 9.99551 14.2433C9.94865 13.668 9.76447 13.1742 9.38119 12.7385C9.36226 12.7141 9.34333 12.6897 9.32382 12.6645C8.98062 12.249 8.36245 11.9725 7.83074 11.9194C7.07851 11.878 6.41454 12.0697 5.83806 12.5694C5.3675 13.0101 5.13385 13.6069 5.08272 14.2396C5.06294 14.4784 5.03711 14.6922 4.85337 14.8642C4.65872 15.0115 4.46772 15.0103 4.23253 14.9911C4.05492 14.9461 3.95923 14.8422 3.856 14.6957C3.66587 14.3753 3.79308 13.8055 3.87395 13.4626C4.1144 12.5251 4.68909 11.6838 5.52027 11.1723C7.01723 10.2894 8.80455 10.4572 10.1104 11.6028Z" fill="#4C6589"/>
<path d="M12.6383 5.85118C13.1419 6.05856 13.5554 6.33635 13.9448 6.71173C13.9658 6.73088 13.9868 6.75004 14.0085 6.76978C14.1924 6.94234 14.332 7.14647 14.4714 7.35531C14.4898 7.38265 14.5082 7.40999 14.5272 7.43816C14.8693 7.98272 15.0322 8.62602 15.0436 9.26411C15.0444 9.29198 15.0452 9.31984 15.046 9.34855C15.0448 9.56196 14.9854 9.70229 14.8387 9.8572C14.6977 9.98463 14.5499 10.0326 14.3605 10.0264C14.1517 9.99728 13.9928 9.91492 13.8616 9.75057C13.7645 9.5927 13.7576 9.44484 13.7455 9.26411C13.696 8.67142 13.4984 8.15281 13.0964 7.70635C13.0792 7.68637 13.0619 7.66638 13.0441 7.64579C12.6055 7.16982 11.9564 6.94583 11.3254 6.91237C11.1078 6.89791 10.9485 6.84385 10.7909 6.68979C10.674 6.51608 10.6038 6.33986 10.6391 6.12665C10.7016 5.9083 10.8189 5.77019 11.0141 5.65703C11.4649 5.4616 12.2021 5.67999 12.6383 5.85118Z" fill="#4C6589"/>
<path d="M3.68404 5.61373C3.72583 5.61254 3.72583 5.61254 3.76847 5.61133C3.98188 5.61254 4.12221 5.67199 4.27712 5.81866C4.40455 5.95963 4.45251 6.10751 4.44635 6.29685C4.4172 6.50564 4.33484 6.66459 4.17049 6.79576C4.01154 6.89358 3.86061 6.90089 3.67855 6.91369C3.01848 6.97019 2.41991 7.23691 1.95647 7.71862C1.56636 8.18231 1.3642 8.73033 1.33229 9.33196C1.31783 9.54959 1.26378 9.70892 1.10971 9.86649C0.936001 9.98341 0.759786 10.0536 0.546575 10.0182C0.328217 9.95575 0.190114 9.83843 0.0769514 9.64331C-0.118479 9.19247 0.099911 8.45526 0.2711 8.01907C0.478482 7.51542 0.756268 7.102 1.13165 6.71257C1.15081 6.69157 1.16996 6.67056 1.1897 6.64892C1.36226 6.46493 1.56639 6.32541 1.77523 6.186C1.80257 6.16756 1.82991 6.14912 1.85808 6.13012C2.40264 5.78812 3.04594 5.62515 3.68404 5.61373Z" fill="#4C6589"/>
</svg>
