<svg width="15" height="15" viewBox="0 0 15 15" fill="none" xmlns="http://www.w3.org/2000/svg">
<path d="M4.16016 0H4.57031V0.0292969H4.6582V0.0585938H4.7168V0.0878906H4.74609V0.117188H4.77539V0.146484H4.83398V0.175781H4.86328V0.234375H4.89258V0.263672H4.92188V0.322266H4.95117V0.380859H4.98047V0.46875H5.00977V1.23047H9.99023V0.46875H10.0195V0.380859H10.0488V0.322266H10.0781V0.263672H10.1074V0.234375H10.1367V0.175781H10.166V0.146484H10.2246V0.117188H10.2539V0.0878906H10.2832V0.0585938H10.3418V0.0292969H10.4297V0H10.8398V0.0292969H10.8984V0.0585938H10.957V0.0878906H11.0156V0.117188H11.0449V0.146484H11.0742V0.175781H11.1035V0.205078H11.1328V0.234375H11.1621V0.292969H11.1914V0.351562H11.2207V0.410156H11.25V1.23047H12.0996V1.25977H12.3633V1.28906H12.5391V1.31836H12.6562V1.34766H12.7734V1.37695H12.8613V1.40625H12.9492V1.43555H13.0371V1.46484H13.0957V1.49414H13.1543V1.52344H13.2422V1.55273H13.3008V1.58203H13.3301V1.61133H13.3887V1.64062H13.4473V1.66992H13.5059V1.69922H13.5352V1.72852H13.5938V1.75781H13.623V1.78711H13.6816V1.81641H13.7109V1.8457H13.7695V1.875H13.7988V1.9043H13.8281V1.93359H13.8867V1.96289H13.916V1.99219H13.9453V2.02148H13.9746V2.05078H14.0039V2.08008H14.0332V2.10938H14.0625V2.13867H14.0918V2.16797H14.1211V2.19727H14.1504V2.22656H14.1797V2.25586H14.209V2.28516H14.2383V2.31445H14.2676V2.34375H14.2969V2.40234H14.3262V2.43164H14.3555V2.46094H14.3848V2.49023H14.4141V2.54883H14.4434V2.57812H14.4727V2.63672H14.502V2.66602H14.5312V2.72461H14.5605V2.75391H14.5898V2.8125H14.6191V2.87109H14.6484V2.92969H14.6777V2.98828H14.707V3.04688H14.7363V3.10547H14.7656V3.16406H14.7949V3.25195H14.8242V3.33984H14.8535V3.42773H14.8828V3.51562H14.9121V3.63281H14.9414V3.75H14.9707V3.95508H15V12.3047H14.9707V12.4805H14.9414V12.627H14.9121V12.7441H14.8828V12.832H14.8535V12.9199H14.8242V13.0078H14.7949V13.0664H14.7656V13.1543H14.7363V13.2129H14.707V13.2715H14.6777V13.3301H14.6484V13.3887H14.6191V13.418H14.5898V13.4766H14.5605V13.5352H14.5312V13.5645H14.502V13.623H14.4727V13.6523H14.4434V13.7109H14.4141V13.7402H14.3848V13.7988H14.3555V13.8281H14.3262V13.8574H14.2969V13.8867H14.2676V13.916H14.2383V13.9746H14.209V14.0039H14.1797V14.0332H14.1504V14.0625H14.1211V14.0918H14.0918V14.1211H14.0625V14.1504H14.0332V14.1797H14.0039V14.209H13.9746V14.2383H13.916V14.2676H13.8867V14.2969H13.8574V14.3262H13.8281V14.3555H13.7988V14.3848H13.7402V14.4141H13.7109V14.4434H13.6523V14.4727H13.623V14.502H13.5645V14.5312H13.5352V14.5605H13.4766V14.5898H13.418V14.6191H13.3887V14.6484H13.3301V14.6777H13.2715V14.707H13.2129V14.7363H13.1543V14.7656H13.0664V14.7949H13.0078V14.8242H12.9199V14.8535H12.832V14.8828H12.7441V14.9121H12.627V14.9414H12.4805V14.9707H12.3047V15H2.69531V14.9707H2.51953V14.9414H2.37305V14.9121H2.25586V14.8828H2.16797V14.8535H2.08008V14.8242H1.99219V14.7949H1.93359V14.7656H1.8457V14.7363H1.78711V14.707H1.72852V14.6777H1.66992V14.6484H1.61133V14.6191H1.58203V14.5898H1.52344V14.5605H1.46484V14.5312H1.43555V14.502H1.37695V14.4727H1.34766V14.4434H1.28906V14.4141H1.25977V14.3848H1.20117V14.3555H1.17188V14.3262H1.14258V14.2969H1.11328V14.2676H1.08398V14.2383H1.02539V14.209H0.996094V14.1797H0.966797V14.1504H0.9375V14.1211H0.908203V14.0918H0.878906V14.0625H0.849609V14.0332H0.820312V14.0039H0.791016V13.9746H0.761719V13.916H0.732422V13.8867H0.703125V13.8574H0.673828V13.8281H0.644531V13.7988H0.615234V13.7402H0.585938V13.7109H0.556641V13.6523H0.527344V13.623H0.498047V13.5645H0.46875V13.5352H0.439453V13.4766H0.410156V13.418H0.380859V13.3887H0.351562V13.3301H0.322266V13.2715H0.292969V13.2129H0.263672V13.1543H0.234375V13.0664H0.205078V13.0078H0.175781V12.9199H0.146484V12.832H0.117188V12.7441H0.0878906V12.627H0.0585938V12.4805H0.0292969V12.3047H0V3.95508H0.0292969V3.75H0.0585938V3.63281H0.0878906V3.51562H0.117188V3.42773H0.146484V3.33984H0.175781V3.25195H0.205078V3.16406H0.234375V3.10547H0.263672V3.04688H0.292969V2.98828H0.322266V2.92969H0.351562V2.87109H0.380859V2.8125H0.410156V2.75391H0.439453V2.72461H0.46875V2.66602H0.498047V2.63672H0.527344V2.57812H0.556641V2.54883H0.585938V2.49023H0.615234V2.46094H0.644531V2.43164H0.673828V2.40234H0.703125V2.34375H0.732422V2.31445H0.761719V2.28516H0.791016V2.25586H0.820312V2.22656H0.849609V2.19727H0.878906V2.16797H0.908203V2.13867H0.9375V2.10938H0.966797V2.08008H0.996094V2.05078H1.02539V2.02148H1.05469V1.99219H1.08398V1.96289H1.11328V1.93359H1.17188V1.9043H1.20117V1.875H1.23047V1.8457H1.28906V1.81641H1.31836V1.78711H1.37695V1.75781H1.40625V1.72852H1.46484V1.69922H1.49414V1.66992H1.55273V1.64062H1.61133V1.61133H1.66992V1.58203H1.69922V1.55273H1.78711V1.52344H1.8457V1.49414H1.9043V1.46484H1.96289V1.43555H2.05078V1.40625H2.13867V1.37695H2.22656V1.34766H2.34375V1.31836H2.46094V1.28906H2.63672V1.25977H2.90039V1.23047H3.75V0.410156H3.7793V0.351562H3.80859V0.292969H3.83789V0.234375H3.86719V0.205078H3.89648V0.175781H3.92578V0.146484H3.95508V0.117188H3.98438V0.0878906H4.04297V0.0585938H4.10156V0.0292969H4.16016V0ZM2.87109 2.51953V2.54883H2.69531V2.57812H2.60742V2.60742H2.51953V2.63672H2.43164V2.66602H2.37305V2.69531H2.31445V2.72461H2.25586V2.75391H2.19727V2.7832H2.13867V2.8125H2.10938V2.8418H2.05078V2.87109H2.02148V2.90039H1.99219V2.92969H1.93359V2.95898H1.9043V2.98828H1.875V3.01758H1.8457V3.04688H1.81641V3.07617H1.78711V3.10547H1.75781V3.13477H1.72852V3.16406H1.69922V3.19336H1.66992V3.25195H1.64062V3.28125H1.61133V3.31055H1.58203V3.36914H1.55273V3.42773H1.52344V3.45703H1.49414V3.51562H1.46484V3.57422H1.43555V3.63281H1.40625V3.7207H1.37695V3.7793H1.34766V3.89648H1.31836V4.01367H1.28906V4.18945H1.25977V4.98047H13.7402V4.18945H13.7109V4.01367H13.6816V3.89648H13.6523V3.7793H13.623V3.7207H13.5938V3.63281H13.5645V3.57422H13.5352V3.51562H13.5059V3.45703H13.4766V3.42773H13.4473V3.36914H13.418V3.31055H13.3887V3.28125H13.3594V3.25195H13.3301V3.19336H13.3008V3.16406H13.2715V3.13477H13.2422V3.10547H13.2129V3.07617H13.1836V3.04688H13.1543V3.01758H13.125V2.98828H13.0957V2.95898H13.0664V2.92969H13.0078V2.90039H12.9785V2.87109H12.9492V2.8418H12.8906V2.8125H12.8613V2.7832H12.8027V2.75391H12.7441V2.72461H12.6855V2.69531H12.627V2.66602H12.5684V2.63672H12.4805V2.60742H12.3926V2.57812H12.2754V2.54883H12.1289V2.51953H2.87109ZM1.25977 6.26953V12.0703H1.28906V12.2461H1.31836V12.3633H1.34766V12.4512H1.37695V12.5391H1.40625V12.5977H1.43555V12.6855H1.46484V12.7441H1.49414V12.7734H1.52344V12.832H1.55273V12.8906H1.58203V12.9199H1.61133V12.9785H1.64062V13.0078H1.66992V13.0371H1.69922V13.0664H1.72852V13.0957H1.75781V13.1543H1.78711V13.1836H1.81641V13.2129H1.8457V13.2422H1.9043V13.2715H1.93359V13.3008H1.96289V13.3301H1.99219V13.3594H2.02148V13.3887H2.08008V13.418H2.10938V13.4473H2.16797V13.4766H2.22656V13.5059H2.25586V13.5352H2.31445V13.5645H2.40234V13.5938H2.46094V13.623H2.54883V13.6523H2.63672V13.6816H2.75391V13.7109H2.92969V13.7402H12.0703V13.7109H12.2461V13.6816H12.3633V13.6523H12.4512V13.623H12.5391V13.5938H12.5977V13.5645H12.6855V13.5352H12.7441V13.5059H12.7734V13.4766H12.832V13.4473H12.8906V13.418H12.9199V13.3887H12.9492V13.3594H13.0078V13.3301H13.0371V13.3008H13.0664V13.2715H13.0957V13.2422H13.1543V13.2129H13.1836V13.1836H13.2129V13.1543H13.2422V13.0957H13.2715V13.0664H13.3008V13.0371H13.3301V13.0078H13.3594V12.9785H13.3887V12.9199H13.418V12.8906H13.4473V12.832H13.4766V12.7734H13.5059V12.7441H13.5352V12.6855H13.5645V12.5977H13.5938V12.5391H13.623V12.4512H13.6523V12.3633H13.6816V12.2461H13.7109V12.0703H13.7402V6.26953H1.25977Z" fill="#4C6589"/>
<path d="M3.57422 8.11523H11.4258V8.14453H11.5137V8.17383H11.5723V8.20312H11.6016V8.23242H11.6602V8.26172H11.6895V8.29102H11.7188V8.32031H11.748V8.34961H11.7773V8.4082H11.8066V8.4668H11.8359V8.52539H11.8652V8.64258H11.8945V8.87695H11.8652V8.96484H11.8359V9.05273H11.8066V9.08203H11.7773V9.14062H11.748V9.16992H11.7188V9.19922H11.6895V9.22852H11.6602V9.25781H11.6309V9.28711H11.5723V9.31641H11.5137V9.3457H11.4551V9.375H3.54492V9.3457H3.48633V9.31641H3.42773V9.28711H3.36914V9.25781H3.33984V9.22852H3.31055V9.19922H3.28125V9.16992H3.25195V9.14062H3.22266V9.11133H3.19336V9.05273H3.16406V8.96484H3.13477V8.87695H3.10547V8.64258H3.13477V8.52539H3.16406V8.4668H3.19336V8.4082H3.22266V8.34961H3.25195V8.32031H3.28125V8.29102H3.31055V8.26172H3.33984V8.23242H3.39844V8.20312H3.42773V8.17383H3.48633V8.14453H3.57422V8.11523Z" fill="#4C6589"/>
<path d="M3.63281 10.6055H7.00195V10.6348H7.08984V10.6641H7.17773V10.6934H7.23633V10.7227H7.26562V10.752H7.29492V10.7812H7.32422V10.8105H7.35352V10.8398H7.38281V10.8691H7.41211V10.9277H7.44141V10.9863H7.4707V11.0449H7.5V11.4551H7.4707V11.5137H7.44141V11.5723H7.41211V11.6309H7.38281V11.6602H7.35352V11.6895H7.32422V11.7188H7.29492V11.748H7.26562V11.7773H7.20703V11.8066H7.17773V11.8359H7.08984V11.8652H7.00195V11.8945H3.63281V11.8652H3.51562V11.8359H3.45703V11.8066H3.39844V11.7773H3.36914V11.748H3.31055V11.7188H3.28125V11.6895H3.25195V11.6309H3.22266V11.6016H3.19336V11.543H3.16406V11.4844H3.13477V11.3672H3.10547V11.1328H3.13477V11.0156H3.16406V10.957H3.19336V10.8984H3.22266V10.8691H3.25195V10.8105H3.28125V10.7812H3.31055V10.752H3.36914V10.7227H3.39844V10.6934H3.45703V10.6641H3.51562V10.6348H3.63281V10.6055Z" fill="#4C6589"/>
</svg>
