<svg width="38" height="38" viewBox="0 0 38 38" fill="none" xmlns="http://www.w3.org/2000/svg">
<circle cx="19" cy="19" r="18.5" stroke="#627A9C"/>
<path d="M12.75 15.628C12.638 15.6747 12.526 15.698 12.414 15.698C12.2927 15.698 12.1993 15.656 12.134 15.572C12.078 15.4787 12.05 15.3853 12.05 15.292C12.05 15.236 12.0687 15.18 12.106 15.124C12.1433 15.068 12.2227 15.0213 12.344 14.984L14.318 14.214C14.4487 14.1673 14.5793 14.1347 14.71 14.116C14.85 14.088 14.9713 14.074 15.074 14.074C15.55 14.074 15.788 14.3073 15.788 14.774V23.258H16.992C17.2347 23.258 17.3887 23.3 17.454 23.384C17.5193 23.468 17.552 23.5613 17.552 23.664C17.552 23.748 17.5287 23.8273 17.482 23.902C17.4353 23.9673 17.3187 24 17.132 24H12.96C12.7827 24 12.666 23.9673 12.61 23.902C12.5633 23.8273 12.54 23.748 12.54 23.664C12.54 23.5613 12.5727 23.468 12.638 23.384C12.7127 23.3 12.8667 23.258 13.1 23.258H14.304V15.04L12.75 15.628ZM19.1798 19.044C19.1798 18.372 19.2358 17.7373 19.3478 17.14C19.4598 16.5333 19.6418 16.0013 19.8938 15.544C20.1458 15.0867 20.4772 14.7273 20.8878 14.466C21.3078 14.2047 21.8165 14.074 22.4138 14.074C23.0205 14.074 23.5292 14.2047 23.9398 14.466C24.3505 14.7273 24.6818 15.0867 24.9338 15.544C25.1858 16.0013 25.3678 16.5333 25.4798 17.14C25.5918 17.7373 25.6478 18.372 25.6478 19.044C25.6478 19.996 25.5452 20.8453 25.3398 21.592C25.1345 22.3387 24.7938 22.9267 24.3178 23.356C23.8512 23.7853 23.2165 24 22.4138 24C21.6112 24 20.9718 23.7853 20.4958 23.356C20.0292 22.9267 19.6932 22.3387 19.4878 21.592C19.2825 20.8453 19.1798 19.996 19.1798 19.044ZM24.1078 19.044C24.1078 18.5773 24.0892 18.0967 24.0518 17.602C24.0238 17.1073 23.9538 16.65 23.8418 16.23C23.7298 15.8007 23.5572 15.4553 23.3238 15.194C23.0998 14.9233 22.7965 14.788 22.4138 14.788C22.0312 14.788 21.7232 14.9233 21.4898 15.194C21.2658 15.4553 21.0978 15.8007 20.9858 16.23C20.8738 16.65 20.7992 17.1073 20.7618 17.602C20.7338 18.0967 20.7198 18.5773 20.7198 19.044C20.7198 19.576 20.7338 20.094 20.7618 20.598C20.7992 21.102 20.8738 21.5593 20.9858 21.97C21.0978 22.3713 21.2658 22.6933 21.4898 22.936C21.7232 23.1693 22.0312 23.286 22.4138 23.286C22.7965 23.286 23.0998 23.1693 23.3238 22.936C23.5572 22.6933 23.7298 22.3713 23.8418 21.97C23.9538 21.5593 24.0238 21.102 24.0518 20.598C24.0892 20.094 24.1078 19.576 24.1078 19.044Z" fill="#627A9C"/>
</svg>
