<svg width="23" height="21" viewBox="0 0 23 21" fill="none" xmlns="http://www.w3.org/2000/svg">
<path fill-rule="evenodd" clip-rule="evenodd" d="M7.82613 1.9999C9.36582 -0.666563 13.2143 -0.666701 14.7539 1.9999L22.038 14.6161C23.529 17.1993 21.7698 20.4081 18.8593 20.6063L18.5742 20.6161H4.00582L3.72067 20.6063C0.904059 20.4146 -0.83451 17.4033 0.407189 14.8681L0.541955 14.6161L7.82613 1.9999ZM12.8486 3.09951C12.1557 1.89982 10.4232 1.89969 9.73043 3.09951L2.44723 15.7167C1.75546 16.9164 2.62071 18.4157 4.00582 18.4159H18.5742C19.9592 18.4156 20.8246 16.9164 20.1328 15.7167L12.8486 3.09951ZM11.417 15.0751C12.0055 15.0753 12.4824 15.5529 12.4824 16.1415C12.4824 16.7301 12.0055 17.2077 11.417 17.2079C10.8282 17.2079 10.3506 16.7302 10.3505 16.1415C10.3505 15.5528 10.8282 15.0751 11.417 15.0751ZM11.3359 5.25673C12.1218 5.25673 12.7516 5.90779 12.7255 6.69326L12.5185 12.9013C12.4985 13.5018 12.0061 13.9783 11.4052 13.9784C10.814 13.9784 10.325 13.517 10.292 12.9267L9.9482 6.72451C9.90393 5.92757 10.5378 5.2568 11.3359 5.25673Z" fill="#A16124"/>
</svg>
