<svg width="512" height="512" viewBox="0 0 512 512" fill="none" xmlns="http://www.w3.org/2000/svg">
<path d="M228 170H287L307 173L327 179L344 187L359 197L370 206L381 217L391 230L405 253L418 274L421 279V281L426 283L446 296L475 315L501 332L509 339L512 345V359L507 367L501 372L494 374H487L477 370L462 360L436 343L410 326L392 314L385 306L368 278L353 254L344 243L343 242L342 392L351 395L378 408L406 421L442 438L454 444L464 454L469 465L470 470V480L466 493L460 501L452 508L441 512H228L222 509L217 504L213 496V485L217 477L224 471L229 469L401 468L365 451L337 438L309 425L302 419L298 409V216L288 215H227L214 217V409L210 419L203 425L167 442L139 455L111 468L155 469L163 473L169 480L171 485V496L166 506L159 511L156 512H71L60 508L50 499L45 491L42 480V469L46 457L53 448L61 442L89 429L127 411L161 395L170 392L169 246L162 254L148 279L135 302L125 320L117 327L100 338L74 355L48 372L31 383L28 384H15L7 380L1 372L0 369V356L3 350L8 345L18 338L38 325L64 308L90 291L103 267L116 244L125 229L136 215L148 203L163 192L179 183L194 177L213 172L228 170Z" fill="currentColor"/>
<path d="M244 0H268L284 5L295 12L302 18L311 30L316 41L319 53V75L315 90L309 101L300 112L289 120L279 125L268 128H244L228 123L216 116L207 108L199 97L194 87L191 76L190 60L193 44L197 34L204 24L211 16L224 7L236 2L244 0Z" fill="currentColor"/>
</svg>
