<svg xmlns="http://www.w3.org/2000/svg" viewBox="58 282 286 196" fill="none">
<g fill="#4C6589">
<path d="M144.821 300.459C147.902 300.763 148.847 303.138 150.946 305.184C155.242 309.372 160.729 309.751 166.366 309.012C168.117 308.799 169.799 308.449 171.568 308.405C176.735 308.275 175.769 312.965 175.634 316.523C175.588 318.167 175.568 319.811 175.573 321.455C175.574 324.525 175.851 327.569 175.807 330.637C175.781 332.501 174.838 334.188 172.826 334.372C169.874 334.642 166.856 334.545 163.885 334.619L155.979 334.859C154.501 334.894 152.984 334.984 151.51 334.838C141.507 333.848 146.846 320.047 144.347 317.21C143.791 316.579 143.021 316.417 142.219 316.383C141.574 316.356 140.91 316.417 140.329 316.722C138.294 317.791 138.901 320.729 136.645 321.74C135.841 322.1 134.664 322.037 133.793 322.065C131.082 322.153 125.594 321.94 123.602 323.86C122.474 324.948 122.416 327.259 122.374 328.731C122.213 334.456 122.536 340.282 122.713 346.009C122.951 355.221 123.302 364.43 123.766 373.634C124.109 380.252 124.639 386.924 124.881 393.548C125.203 404.34 125.341 415.138 125.294 425.935C125.301 431.289 125.237 436.677 125.369 442.024C125.454 445.424 125.523 448.848 129.755 449.034C134.151 449.228 138.532 448.977 142.926 448.857L160.472 448.372L194.36 447.497L219.579 446.856C223.12 446.753 226.668 446.794 230.216 446.56C233.78 446.284 235.236 445.723 235.45 441.907C235.667 438.038 235.323 434.269 235.301 430.429C235.236 421.666 235.1 412.904 234.891 404.143C234.788 400.223 234.64 396.313 234.472 392.388C234.355 389.619 234.903 386.95 238.258 386.838C242.004 386.712 245.779 387.258 249.536 387.228C252.778 387.202 255.902 386.594 259.119 386.458C264.15 386.311 267.703 389.592 269.813 393.856C272.366 399.015 274.81 404.198 277.297 409.375C281.367 417.941 285.608 426.427 290.016 434.825C291.063 436.82 295.983 444.884 295.897 446.442C295.878 446.794 295.762 447.095 295.489 447.325C294.875 447.842 293.698 447.845 292.932 447.886C290.59 448.012 288.201 447.725 285.85 447.735C275.925 447.718 266.001 447.494 256.085 447.062C253.96 446.884 250.917 446.667 249.026 447.753C245.567 449.739 248.207 454.672 246.074 457.228C244.427 459.2 239.548 458.882 237.174 458.969L228.712 459.294C218.23 459.647 208.146 460.079 197.642 460.115C193.882 460.126 190.122 460.106 186.363 460.056C183.462 460.012 180.974 459.812 178.053 460.06C172.194 460.542 166.517 462.294 160.74 463.297C157.482 463.861 154.233 464.996 151.392 462.673C154.12 461.882 157.502 461.171 160.308 460.476C157.83 460.432 134.204 460.33 133.809 460.57C133.538 462.491 135.897 463.454 135.941 465.053C135.808 465.349 135.78 465.439 135.501 465.602C132.982 467.078 119.23 464.185 115.979 463.602C114.108 463.267 112.139 463.114 110.3 462.65C109.188 462.371 108.074 462.009 107.484 460.943C107.155 460.35 107.04 459.66 107.21 459.002C107.773 458.322 109.237 458.185 110.259 457.844C110.563 457.527 110.866 457.07 111.127 456.706C104.031 452.48 94.0251 451.282 86.1558 448.781C81.6904 447.362 79.2042 446.241 75.219 443.829C76.8153 443.557 78.5914 443.308 80.2117 443.335C87.1546 443.447 91.4787 445.021 98.1944 442.495C96.2771 440.586 91.7498 437.232 89.5632 435.579C83.856 431.264 78.9509 427.576 74 422.337C76.1668 423.038 78.1605 423.628 80.3207 424.406C85.2155 426.171 91.5365 428.951 96.6798 429.501C96.0575 428.099 94.5815 426.063 93.6401 424.844C91.1154 421.577 89.6325 419.539 88.3528 415.599C95.4865 420.243 104.449 425.52 107.945 433.637C110.082 438.6 107.69 441.509 114.096 443.927C114.025 437.949 114.23 431.926 114.165 425.92C113.79 406.568 113.273 387.219 112.612 367.874C112.387 361.101 112.045 354.331 111.589 347.569C110.992 339.53 110.27 331.738 110.335 323.751C110.455 308.898 124.454 311.358 134.798 310.256C142.545 309.43 138.906 301.305 144.821 300.459ZM247.295 398.008C248.8 401.356 251.469 400.605 254.592 400.929C255.468 401.019 256.973 400.91 257.5 401.848C258.628 406.38 249.183 403.225 248.473 405.832C246.941 411.454 258.447 405.467 257.325 411.525C257.236 412.013 256.583 412.533 256.157 412.701C252.764 413.943 250.84 412.285 247.885 414.929C248.854 415.396 249.854 415.872 250.93 416.016C253.386 416.346 259.46 415.129 260.523 418.192C260.716 418.747 260.755 419.634 260.456 420.159C260.147 420.704 259.57 420.967 258.982 421.104C256.407 421.702 252.836 421.127 250.406 421.695C249.896 421.814 249.37 422.01 249.067 422.464C248.841 422.804 248.794 423.282 248.886 423.674C248.969 424.025 249.13 424.292 249.45 424.471C252.506 426.175 264.565 423.143 265.992 427.106C266.278 427.899 266.541 429.099 266.124 429.874C265.877 430.334 265.503 430.532 265.011 430.653C264.84 430.696 264.674 430.719 264.497 430.734C260.028 431.121 255.464 431.053 251.005 431.453C249.174 431.618 248.822 433.228 248.997 434.748C249.137 436.254 250.355 437.207 251.816 437.249C253.936 437.405 256.031 437.339 258.147 437.385L268.663 437.542C271.345 437.591 274.218 437.918 276.851 437.441C277.829 437.265 278.084 436.091 277.77 435.234C276.974 433.073 275.902 431.037 274.895 428.965L269.961 418.756L263.576 405.429C262.52 403.227 261.27 400.329 259.982 398.334C258.644 396.258 253.252 394.902 250.955 395.238C248.965 395.535 248.064 396.119 247.295 398.008ZM159.637 323.088C161.541 322.42 164.965 321.584 164.178 318.792C163.934 317.924 162.449 317.771 161.691 317.719C160.147 317.841 158.399 317.936 157.402 319.271C155.622 321.656 157.542 322.72 159.637 323.088Z"/>
<path d="M248.069 294.873C252.561 294.431 254.163 295.603 256.901 299.099C259.939 302.978 258.729 302.877 254.715 303.171C253.066 303.307 251.418 303.456 249.771 303.616C243.733 304.193 237.652 304.967 231.587 305.125C227.957 305.219 224.33 305.033 220.702 304.955C213.243 304.794 205.7 304.796 198.263 305.44C196.666 305.579 195.016 305.656 193.433 305.904C192.789 306.004 191.751 306.279 191.395 306.864C190.919 307.646 192.418 315.988 192.587 317.535C193.338 324.424 193.556 331.459 193.595 338.387C193.63 344.754 193.6 351.142 193.922 357.502C194.043 359.898 194.025 362.512 194.69 364.831C197.193 373.556 208.327 368.157 213.942 371.4C216.922 373.121 217.876 378.888 218.715 381.989C224.771 368.898 234.381 370.583 246.667 370.37C250.826 370.298 255.012 370.059 259.159 369.705C261.384 369.516 263.652 369.425 265.857 369.069C270.433 368.286 273.062 364.401 273.093 359.913C273.107 357.769 273.023 355.653 272.982 353.512L272.753 340.561C272.704 337.6 272.703 334.64 272.749 331.68C272.782 329.812 272.934 327.049 272.834 325.32C272.522 320.012 270.649 315.701 272.035 310.257C272.248 309.116 272.417 307.932 273.102 306.959C274.704 304.683 279.242 305.818 279.939 308.338C280.757 311.289 280.561 314.888 280.9 318.016C280.876 319.301 281.076 321.354 281.147 322.732C281.31 325.976 281.439 329.221 281.532 332.467C281.771 344.372 281.396 355.951 279.693 367.756C278.153 378.43 267.138 378.139 258.697 378.582C253.831 378.847 248.961 379.022 244.09 379.107C240.991 379.163 235.951 378.942 233.315 380.383C229.137 382.667 225.171 388.795 221.752 392.278C218.963 395.12 217.448 396.841 214.305 399.221C213.249 395.812 212.271 392.369 211.242 388.951C210.541 386.627 210.205 383.654 209.105 381.542C207.986 379.392 204.265 379.283 202.202 378.973C194.279 377.834 187.396 376.566 185.686 367.421C184.636 361.801 184.713 356.924 184.595 351.246C184.43 342.311 184.409 333.374 184.532 324.438C184.562 319.706 184.662 314.67 184.528 309.979C184.161 297.147 192.939 296.797 202.624 296.436C206.34 296.288 210.056 296.158 213.772 296.048L248.069 294.873Z"/>
<path d="M250.198 316.781C252.098 316.66 258.379 319.278 257.652 322.023C257.157 323.44 256.029 324.836 255.146 326.024C248.559 334.891 241.783 343.629 235.749 352.89C234.635 354.521 233.652 356.356 232.504 357.953C229.586 362.014 226.037 360.099 223.512 356.792C221.928 354.719 220.434 352.588 218.939 350.441C217.668 348.712 216.556 347.197 215.125 345.592C214.099 344.443 212.266 343.163 211.563 341.946C212.812 338.803 216.56 333.435 219.392 331.666C224.329 333.788 224.358 338.532 227.811 341.42C229.668 342.972 233.383 336.472 234.47 335.059C238.888 329.322 243.556 323.52 248.2 317.95C248.704 317.346 249.485 317.036 250.198 316.781Z"/>
<path d="M169.506 394.701C171.405 394.554 172.531 395.033 173.6 396.638C175.13 398.936 173.214 401.128 171.913 402.899C167.86 408.423 163.14 413.425 157.859 417.791C156.928 418.571 155.346 419.903 154.322 420.442C151.012 422.183 147.577 416.124 145.399 414.47C144.499 413.786 144.312 413.681 143.173 413.305C143.047 414.823 142.37 420.112 143.824 420.99C146.843 422.818 151.924 422.139 155.382 422.149C157.064 422.153 158.751 422.166 160.416 422.015C162.522 421.819 163.635 420.842 164.063 418.782C164.279 417.719 164.229 416.558 164.902 415.654C165.391 414.997 166.586 415.019 167.075 415.596C167.996 416.682 168.313 419.06 168.388 420.435C168.469 421.892 167.965 423.5 166.926 424.526C164.778 426.644 161.579 426.436 158.802 426.576C157.104 426.662 155.439 426.75 153.753 426.749C150.558 426.913 142.9 427.726 140.262 426.557C139.089 426.037 138.231 425.129 137.779 423.927C137.508 423.207 137.384 422.415 137.36 421.648C137.27 418.795 137.597 415.912 137.567 413.045C137.545 410.88 137.466 408.679 137.385 406.512C137.337 405.263 137.224 403.996 137.297 402.747C137.35 401.825 137.5 400.905 137.894 400.062C138.419 398.942 139.302 398.201 140.464 397.8C141.144 397.566 141.871 397.45 142.587 397.402C144.64 397.263 146.735 397.402 148.795 397.356C151.306 397.3 153.95 397.022 156.45 397.252C156.993 397.302 157.556 397.432 158.041 397.686C158.589 397.973 158.926 398.602 159.078 399.189C159.161 399.499 159.115 399.829 158.949 400.104C157.794 402.028 147.835 401.502 145.478 402.309C144.86 402.521 143.752 402.777 143.506 403.436C142.803 405.318 143.436 405.626 145.146 406.1C146.61 406.77 147.686 407.788 149.17 408.407C155.178 410.911 158.706 405.075 161.781 401.014C163.004 399.431 167.716 395.431 169.506 394.701Z"/>
<path d="M168.596 357.033C170.406 356.815 171.787 357.661 172.61 359.229C173.972 361.823 171.797 363.533 170.317 365.23C168.641 367.141 166.949 369.038 165.241 370.92C162.111 374.379 158.862 377.9 155.584 381.231C155.288 381.532 154.325 382.297 153.924 382.439C150.365 383.7 148.537 378.631 146.474 376.68C145.215 375.49 144.757 375.156 143.222 374.55C143.057 376.328 141.645 382.169 143.512 383.503C145.963 384.993 149.151 384.467 151.876 384.591C155.487 384.755 159.554 386.04 162.217 382.816C163.152 381.684 163.392 379.206 164.644 378.726C165.233 378.772 165.819 379.12 166.216 379.529C168.586 381.631 167.535 387.106 164.646 388.283C161.414 389.6 155.159 389.308 151.549 389.335C147.967 389.315 144.154 389.54 140.604 389.234C138.195 389.027 136.393 386.832 136.31 384.445C136.202 381.357 136.386 378.153 136.387 375.014C136.396 372.973 136.368 370.932 136.302 368.893C136.248 367.057 136.108 365.176 136.342 363.348C136.438 362.604 136.802 361.801 137.265 361.209C138.157 360.066 139.487 359.7 140.872 359.538C144.14 359.158 147.672 359.449 150.961 359.447C152.934 359.446 155.107 359.178 157.055 359.431C157.614 359.503 158.192 359.681 158.628 360.049C159.003 360.365 159.145 360.724 159.174 361.207C159.217 361.904 159.108 362.451 158.614 362.971C156.977 364.695 148.862 364.148 146.232 364.324C145.132 364.397 143.762 364.568 143.025 365.494C142.513 366.138 142.393 367.253 142.488 368.053C142.53 368.404 142.696 368.663 142.977 368.876C143.563 369.321 144.581 369.047 145.257 368.965C146.364 369.567 147.407 370.304 148.622 370.728C154.127 372.651 157.196 367.76 160.308 364.317C162.122 362.311 166.239 358.133 168.596 357.033Z"/>
<path d="M311.537 328.504C311.818 328.818 312.971 332.088 313.263 332.803C314.426 335.661 315.615 338.15 317.655 340.5C320.003 343.202 324.039 345.11 327.618 345.298C322.379 348.757 316.389 351.226 312.624 356.603C311.5 358.209 311.24 360.618 309.034 359.46C308.698 359.038 308.232 358.036 307.962 357.505C304.639 350.967 297.443 347.626 292.652 342.411C303.05 341.992 306.548 336.465 311.537 328.504Z"/>
<path d="M289.652 397.691C290.32 398.135 293.648 401.686 294.485 402.56C303.146 411.599 308.58 418.712 312.21 430.727C309.997 432.231 307.985 432.491 305.403 433.029C304.216 433.326 303.035 433.638 301.855 433.968C300.373 433.508 300.124 433.161 299.403 431.797C295.165 423.8 291.148 415.668 286.867 407.696C289.134 406.508 291.253 408.378 292.31 407.624C292.209 406.902 291.676 405.102 291.456 404.291L289.652 397.691Z"/>
<path d="M92.1002 378.918C93.2636 380.046 95.4312 384.925 97.0533 386.596C99.45 389.066 101.44 389.753 104.863 389.999C101.074 392.702 96.3777 394.863 93.6167 398.775C92.9063 399.781 92.7282 401.029 91.1902 401.057C89.8279 400.203 89.2982 397.809 87.5393 396.283C84.4363 393.59 81.2133 391.936 78.1382 389.184C79.5219 389.022 80.8864 388.725 82.2124 388.297C87.3359 386.618 89.7815 383.464 92.1002 378.918Z"/>
<path d="M299.437 368.739C303.065 373.461 303.661 377.074 310.522 378.292C306.403 382.269 302.88 382.969 300.182 388.56C299.77 388.474 297.988 386.451 297.606 386.008C294.986 382.971 293.091 380.9 289.298 379.292C294.9 376.353 296.294 373.93 299.437 368.739Z"/>
<path d="M196.793 414.173C198.999 414.011 210.751 414.367 212.32 415.573C212.834 415.968 213.205 416.557 213.247 417.213C213.285 417.81 212.926 418.648 212.504 419.071C212.084 419.491 211.52 419.639 210.95 419.721C209.554 419.92 208.064 419.8 206.655 419.768L198.403 419.53C197.638 419.516 195.369 419.509 194.542 419.362C192.919 419.074 183.667 419.465 182.797 418.603C180.431 415.898 185.419 414.558 187.09 414.454C190.401 414.249 193.502 414.351 196.793 414.173Z"/>
<path d="M197.505 403.318C199.665 403.145 209.978 402.926 211.171 404.026C211.496 404.325 211.669 404.756 211.691 405.193C211.713 405.653 211.58 406.096 211.264 406.438C210.937 406.793 210.525 406.983 210.055 407.07C208.995 407.266 207.738 407.101 206.658 407.112C203.48 407.158 200.303 407.188 197.126 407.201C191.312 407.205 187.824 406.765 182.378 404.992C187.493 403.942 192.302 403.502 197.505 403.318Z"/>
<path d="M260.128 293.037C263.912 292.975 271.599 292.748 272.402 297.985C272.529 298.825 270.424 300.131 269.758 300.611C265.665 303.218 263.065 300.133 260.063 297.796C257.967 296.165 256.906 294.031 260.128 293.037Z"/>
<path d="M200.494 393.588C201.564 393.386 204.084 393.592 204.532 394.845C205.342 397.114 204.48 398.891 201.855 398.708C199.391 398.537 197.983 397.903 195.599 398.766C194.072 398.44 192.742 398.525 191.185 398.543C189.84 398.718 186.753 398.933 186.515 397.048C185.918 392.327 193.053 394.416 195.675 394.186C197.304 394.043 198.885 393.803 200.494 393.588Z"/>
<path d="M188.608 380.441C190.316 380.412 193.142 380.103 194.278 381.807C194.508 382.152 194.812 382.737 194.732 383.155C193.644 384.145 187.726 383.826 186.069 383.806C184.806 383.682 180.884 383.665 180.32 383.165C177.168 380.372 187.661 380.483 188.608 380.441Z"/>
</g>
</svg>
