<svg xmlns="http://www.w3.org/2000/svg" viewBox="100 205 202 210" fill="none">
<circle cx="201" cy="309" r="99" fill="#FBC088" fill-opacity="0.3"/>
<path d="M161.491 262.302H238.451C238.969 262.494 239.726 262.535 240.282 262.654C241 262.808 241.699 262.98 242.399 263.204C247.05 264.745 250.899 268.07 253.099 272.449C253.806 273.838 254.321 275.317 254.63 276.846C254.741 277.408 254.891 278.581 255.039 279.041V337.357C254.878 337.846 254.801 338.536 254.71 339.054C254.584 339.787 254.408 340.51 254.182 341.217C252.717 345.788 249.534 349.611 245.304 351.88C242.783 353.229 239.912 354.006 237.052 354.058C232.582 354.139 228.074 353.962 223.608 354.1C223.154 354.361 222.619 354.846 222.206 355.188L219.952 357.056L211.133 364.345L207.783 367.115C206.457 368.213 205.126 369.455 203.547 370.138C201.74 370.901 199.733 371.054 197.83 370.576C196.846 370.336 195.909 369.931 195.06 369.379C193.925 368.649 192.028 366.931 190.943 366.019L181.254 357.865L178.506 355.547C177.982 355.104 177.271 354.47 176.719 354.101C175.654 354.033 174.335 354.063 173.25 354.063L166.485 354.066C165.114 354.066 163.364 354.115 162.022 354.009C157.12 353.622 152.744 351.44 149.486 347.741C147.509 345.494 146.117 342.793 145.434 339.879C145.334 339.446 145.095 337.778 144.962 337.541V278.76C145.122 278.464 145.316 276.942 145.431 276.473C145.751 275.122 146.223 273.811 146.838 272.565C149.007 268.12 152.886 264.744 157.588 263.209C158.299 262.982 158.99 262.807 159.721 262.653C160.252 262.542 161 262.486 161.491 262.302ZM199.928 361.539C201.188 360.599 202.67 359.282 203.922 358.266L214.9 349.278C216.133 348.275 219.011 345.739 220.259 345.172C221.638 344.715 223.382 344.856 224.868 344.858L232.446 344.859C236.28 344.859 239.738 345.315 242.796 342.492C243.701 341.657 244.348 340.859 244.902 339.747C245.449 338.645 245.768 337.442 245.838 336.212C245.901 335.255 245.868 333.981 245.868 333L245.866 327.513L245.865 310.543V290.555L245.868 284.052C245.868 281.992 246.028 279.657 245.364 277.702C244.562 275.354 242.846 273.428 240.607 272.36C238.355 271.273 235.916 271.504 233.486 271.505L226.702 271.506L205.958 271.507L177.732 271.506H168.453C166.827 271.506 165.012 271.467 163.4 271.52C160.762 271.569 158.538 272.371 156.681 274.312C155.398 275.648 154.555 277.345 154.267 279.174C154.107 280.229 154.135 281.249 154.134 282.309L154.135 285.841L154.135 298.17L154.136 322.822L154.134 331.151C154.134 335.465 153.575 339.096 157.048 342.373C158.192 343.446 159.593 344.207 161.117 344.582C162.729 344.972 165.745 344.859 167.491 344.859L175.708 344.855C176.929 344.855 179.273 344.714 180.306 345.283C181.666 346.031 183.282 347.572 184.49 348.587L194.999 357.432L198.169 360.11C198.607 360.479 199.477 361.246 199.928 361.539Z" fill="#FBC088"/>
<path d="M199.491 303.602C203.277 303.324 206.572 306.166 206.854 309.952C207.135 313.737 204.296 317.035 200.511 317.319C196.721 317.605 193.418 314.761 193.136 310.971C192.855 307.181 195.701 303.881 199.491 303.602Z" fill="#FBC088"/>
<path d="M176.546 303.602C180.336 303.318 183.639 306.162 183.919 309.953C184.2 313.744 181.351 317.044 177.56 317.32C173.775 317.595 170.482 314.752 170.202 310.968C169.922 307.183 172.761 303.887 176.546 303.602Z" fill="#FBC088"/>
<path d="M222.427 303.603C226.208 303.326 229.5 306.163 229.785 309.944C230.07 313.725 227.241 317.023 223.46 317.316C219.668 317.611 216.357 314.77 216.072 310.978C215.786 307.185 218.633 303.88 222.427 303.603Z" fill="#FBC088"/>
</svg>
