<svg xmlns="http://www.w3.org/2000/svg" viewBox="92 280 224 196" fill="none">
<g fill="#4C6589">
<path d="M199.832 293.08C205.709 292.335 217.512 298.704 221.959 302.496C223.986 304.51 225.616 306.987 227.384 309.229C233.639 317.112 234.988 329.731 231.049 338.886C229.912 341.529 229.123 343.268 228.257 346.076C227.065 349.943 223.374 354.499 220.075 356.895C216.064 359.808 210.638 363.343 205.622 364.298C204.153 364.54 198.285 364.316 196.658 364.108C189.848 363.358 185.841 362.058 179.999 358.382C178.524 357.453 176.799 356.504 175.45 355.468C173.309 353.823 174.332 352.803 174.795 350.68C174.826 350.536 174.736 349.674 174.712 349.446C171.564 349.424 171.425 351.677 169.442 347.738C164.842 338.544 163.758 327.756 164.596 317.62C165.216 314.946 166.938 312.073 168.121 309.64C171.598 302.486 179.518 296.5 187.112 294.479C190.707 293.522 196.137 293.435 199.832 293.08ZM170.725 329.718L170.553 330.648C174.179 333.033 177.872 335.531 181.595 337.749C183.146 338.674 185.23 339.514 186.875 340.343C190.756 342.297 194.102 344.049 198.606 343.958C202.481 343.46 203.988 342.931 207.674 341.71C215.869 338.997 222.417 335.517 228.116 328.956C227.143 327.787 225.36 325.47 224.223 324.648C222.056 323.082 219.08 321.46 216.696 320.222C213.882 318.76 210.666 316.948 207.724 315.868C206.001 315.224 204.201 314.805 202.371 314.621C201.83 314.571 200.886 314.505 200.35 314.544C197.782 314.743 196.099 315.163 193.609 315.668C192.297 315.934 190.93 316.005 189.552 316.312C184.538 317.428 181.404 320.603 177.682 323.836C175.472 325.756 172.884 327.75 170.725 329.718Z"/>
<path d="M198.932 317.934C199.168 317.903 199.406 317.882 199.644 317.871C205.395 317.62 210.652 321.757 210.767 327.627C210.83 330.873 209.904 334.334 207.684 336.782C205.603 339.076 202.306 339.396 199.411 339.46C198.716 339.473 198.084 339.378 197.419 339.274C192.275 338.471 187.944 335.511 187.455 330C187.091 327.029 187.903 324.515 189.794 322.184C192.326 319.065 195.103 318.31 198.932 317.934Z"/>
<path d="M136.675 382.792C139.884 382.579 141.375 384.637 143.745 386.197C149.255 389.821 154.695 393.536 160.258 397.085C162.314 398.395 164.308 399.837 166.463 400.983C167.452 401.504 168.815 401.868 169.893 402.19C169.948 402.146 170.227 401.677 170.284 401.586C167.388 399.229 164.975 397.799 161.832 395.787L151.816 389.36L148.017 386.922C146.27 385.799 145.729 385.813 144.91 383.809C146.454 382.888 147.681 382.63 149.448 383.158C151.108 383.654 152.413 384.935 153.832 385.876C157.142 388.07 160.198 390.624 163.408 392.955C165.835 394.711 168.336 396.362 170.905 397.903C173.487 399.473 174.543 400.405 177.591 400.825L178.043 400.131C176.664 398.915 175.153 397.57 173.647 396.535C168.163 392.767 161.331 389.882 156.611 385.209C157.637 384.915 158.577 384.633 159.643 384.506C161.391 384.289 163.164 384.473 164.83 385.042C167.834 386.049 170.656 387.913 173.479 389.25C180.689 392.663 187.744 396.367 195.136 399.377C198.429 400.718 200.916 401.459 204.473 401.872C207.298 402.2 209.918 402.204 212.711 402.324C217.197 402.519 221.909 403.966 225.662 406.438C228.162 408.084 230.272 410.204 232.45 412.28C235.241 414.953 238.015 417.643 240.771 420.351C247.731 427.153 254.544 434.003 262.432 439.728C264.748 441.408 266.406 443.884 266.786 446.758C267.4 451.41 264.311 454.469 261.48 457.643C259.23 460.147 257.29 463.262 254.718 465.408C254.209 465.833 252.626 465.943 251.928 466.02C250.493 465.169 249.107 463.601 247.586 462.678C246.13 461.794 245.096 462.115 243.847 461.556C242.877 461.121 241.568 458.459 240.912 457.424C240.406 456.629 239.868 455.855 239.302 455.102C236.575 451.479 233.343 448.411 230.476 444.925C230.199 444.588 229.747 443.503 229.491 443.032C226.584 442.341 226.707 441.068 225.104 438.999C224.466 438.176 222.683 437.197 221.834 436.46C219.877 434.755 218.164 432.838 215.675 431.881C212.738 430.673 209.683 430.526 206.553 430.71C203.472 430.891 202.098 431.975 199.254 430.62C199.778 430.553 200.307 430.509 200.833 430.46C200.625 430.123 200.036 429.018 199.562 429.252C196.749 430.643 195.5 431.467 192.58 429.417C192.629 429.846 192.682 430.275 192.738 430.705C188.693 429.468 184.444 428.084 180.358 427.039C178.086 426.458 176.789 426.709 174.142 425.798C171.456 424.874 169.753 423.989 167.222 422.844C164.654 421.656 162.021 420.615 159.335 419.726C157.687 419.188 156.016 418.723 154.328 418.331C152.75 417.972 150.87 417.778 149.399 417.126C148.684 416.809 148.363 415.79 148.15 415.102C148.242 414.911 148.338 414.722 148.439 414.535C149.901 411.868 153.297 412.168 155.833 412.137L161.75 412.046C162.624 412.035 164.843 411.968 165.579 412.139C167.765 412.65 170.319 413.187 172.446 413.818C175.214 414.639 176.424 415.454 179.433 415.574C184.374 415.892 187.868 412.243 192.617 411.686C194.62 411.414 196.755 411.444 198.76 411.686C200.138 411.852 201.432 412.233 202.853 411.871C203.121 411.803 203.186 411.686 203.301 411.469C203.194 410.429 200.703 409.788 199.842 409.529C196.176 408.376 191.396 408.093 187.984 410.158C184.87 412.045 183.355 413.174 179.471 413.021C176.54 412.905 174.324 412.073 171.523 411.316C169.363 410.745 167.193 410.211 165.014 409.714C163.029 409.262 161.703 409.203 159.688 409.045C158.641 408.962 156.981 408.245 155.975 407.842C149.295 405.167 143.523 400.258 137.761 396.023C136.114 394.669 134.114 393.592 132.712 391.977C132.065 391.379 131.594 389.247 132.594 388.741C134.28 387.89 137.525 388.804 139.126 389.567C140.73 390.332 141.084 391.979 142.358 392.876C143.198 393.469 144.265 393.846 145.137 394.417C146.887 395.587 148.647 396.74 150.419 397.878C151.601 398.623 152.875 399.347 154.033 400.104C155.279 400.92 156.352 401.938 157.7 402.685C158.206 403.172 160.55 403.626 160.894 403.927C162.635 405.444 163.68 405.824 166.006 406.32C160.602 402.39 155.16 398.514 149.68 394.691C147.881 393.424 137.263 386.214 136.566 385.143C136.32 384.764 136.071 383.911 136.184 383.46C136.265 383.134 136.395 382.966 136.675 382.792Z"/>
<path d="M231.951 354.572C233.183 355.454 234.542 356.59 235.741 357.541L241.668 362.206L260.474 376.926L276.559 389.458C278.807 391.2 281.022 392.985 283.201 394.81C287.98 398.764 287.637 397.743 287.625 403.851C287.618 406.626 287.598 409.4 287.564 412.173L287.485 419.882C287.482 421.312 287.717 425.825 286.939 426.914C286.257 427.267 285.983 426.528 285.663 426.01C283.621 423.016 281.729 419.834 279.643 416.812C276.376 412.076 272.941 407.562 269.536 402.934C266.504 398.816 263.635 394.792 260.458 390.774C254.866 383.753 248.869 377.065 242.497 370.744C239.929 368.251 237.256 365.869 234.482 363.606C232.844 362.263 231.19 360.96 229.569 359.576C227.884 358.138 229.016 357.391 230.254 356.188C230.811 355.647 231.399 355.125 231.951 354.572Z"/>
<path d="M219.278 365.634C220.583 365.462 223.665 370.662 224.375 371.748C231.952 383.352 241.214 393.756 249.66 404.727C254.431 410.926 259.031 417.215 263.719 423.473C265.698 426.081 267.695 428.676 269.711 431.255C270.757 432.598 272.577 434.776 273.294 436.166C273.033 436.221 272.771 436.269 272.508 436.309C271.37 436.481 270.8 436.29 269.929 435.641C268.856 434.55 269.143 434.133 267.421 433.356C265.569 434.086 265.009 433.819 263.483 432.514C262.564 431.728 261.634 430.904 260.719 430.112C258.04 427.82 255.381 425.504 252.741 423.166C250.232 420.913 247.739 418.642 245.262 416.353C241.841 413.212 237.532 409.16 234.761 405.456C233.069 403.194 231.164 398.793 229.87 396.241L222.271 381.491L217.614 372.351C217.044 371.214 215.631 368.569 215.37 367.43C216.415 366.722 218.099 366.003 219.278 365.634Z"/>
<path d="M238.783 343.325C239.337 343.419 239.862 343.642 240.382 343.852C245.227 345.808 250.01 347.902 254.787 350.013C256.669 350.845 258.921 351.1 260.942 351.492C262.478 351.801 264.002 352.162 265.512 352.574C271.464 354.202 277.228 356.46 283.174 358.1C283.593 358.215 284.974 358.186 285.509 358.239C287.291 358.416 287.423 359.345 287.598 360.879C287.651 362.617 287.536 364.458 287.528 366.239L287.524 372.547C287.523 374.474 287.635 376.352 287.228 378.233L286.535 377.767C277.341 371.658 268.313 365.28 259.046 359.275C254.609 356.401 249.873 353.98 245.429 351.122C244.268 350.374 243.132 349.335 241.986 348.529C240.605 347.558 239.129 346.632 237.867 345.518C237.67 345.339 237.2 344.411 237.052 344.128C237.702 343.781 238.092 343.561 238.783 343.325Z"/>
<path d="M158.297 339.909C158.492 339.953 158.556 340.024 158.666 340.192C160.061 342.328 159.611 343 157.602 344.131C152.366 347.078 146.874 349.434 141.502 352.101C136.484 354.593 131.568 357.283 126.765 360.167C123.898 361.893 120.985 363.698 118.31 365.711C117.529 366.299 116.738 366.847 115.926 367.39L115.009 368.035C115.036 364.374 115.04 360.714 115.018 357.053C115.022 355.447 114.852 351.725 115.483 350.38C116.56 348.085 121.129 349.25 123.184 348.705C124.442 348.371 125.974 347.933 127.247 347.529C130.447 346.829 133.532 346.124 136.697 345.311C139.715 344.551 143.008 344.491 146.011 343.817C150.084 342.902 154.401 341.387 158.297 339.909Z"/>
<path d="M275.184 332.07C278.905 331.864 283.516 332.026 287.293 332.065C287.324 332.438 287.403 332.808 287.451 333.183C287.875 336.541 287.655 339.973 287.775 343.352C287.805 344.193 287.894 345.589 287.395 346.256C287.13 346.381 286.805 346.367 286.531 346.273C285.088 345.779 283.739 344.989 282.308 344.446C277.726 342.705 272.907 341.78 268.099 340.913C265.165 340.384 262.232 339.823 259.276 339.425C253.393 338.401 247.273 337.968 241.355 337.135C241.026 337.089 240.605 336.87 240.353 336.659C239.522 335.963 239.481 333.036 240.93 333.018C242.214 333.014 243.569 333.022 244.876 333.004C248.267 332.991 251.659 332.937 255.05 332.843C261.77 332.679 268.468 332.229 275.184 332.07Z"/>
<path d="M162.026 351.137C162.373 351.097 162.8 351.049 163.118 351.21C164.273 351.795 165.355 353.628 165.768 354.786C165.196 356.26 162.067 359.044 160.784 360.276L154.094 366.635C152.025 368.599 149.913 370.728 147.78 372.607C146.231 373.973 143.728 373.636 141.808 373.382C142.601 373.118 143.389 372.838 144.171 372.541C142.306 372.155 141.932 372.224 140.96 373.874C140.54 374.055 140.116 374.153 139.675 374.272C138.78 373.801 138.21 373.494 137.256 373.165C135.456 372.664 134.228 372.711 132.444 372.463C131.584 372.344 130.004 371.493 129.069 371.161C132.255 368.834 136.477 366.436 139.892 364.491C143.981 362.179 148.057 359.843 152.12 357.485C154.095 356.319 156.039 355.101 157.95 353.831C159.088 353.066 160.877 351.752 162.026 351.137Z"/>
<path d="M115.377 324.234C118.4 324.991 121.576 326.325 124.695 326.853C125.652 327.015 127.122 326.823 128.142 326.838C129.68 326.861 131.209 326.916 132.745 326.983L155.271 328.162C155.861 328.533 156.119 328.749 156.651 329.21C155.348 330.86 154.643 330.849 152.634 331.103C151.587 331.236 150.478 331.389 149.427 331.529C147.212 331.744 144.754 332.12 142.497 332.369C135.876 333.097 129.248 333.764 122.614 334.37L123.881 332.457C119.735 332.681 119.564 332.611 116.622 335.406C115.078 331.69 114.933 328.138 115.377 324.234Z"/>
<path d="M203.602 370.93C204.868 370.726 205.69 370.791 206.004 372.168C206.569 374.632 207.04 377.116 207.562 379.591L210.751 394.571L210.195 395.386C209.226 395.082 208.182 394.799 207.201 394.517C205.435 394.027 200.323 393.029 200.152 390.891C200.001 389.012 200.764 386.769 200.868 384.74C201.024 381.705 200.78 378.911 200.291 375.907C199.671 371.587 199.351 371.545 203.602 370.93Z"/>
<path d="M171.627 361.756C172.986 361.716 174.48 362.889 175.26 363.936C175.485 364.237 175.624 364.749 175.732 365.114C175.316 366.663 174.313 368.281 173.536 369.716C172.593 371.446 171.665 373.185 170.752 374.931C169.774 376.816 168.587 380.102 166.88 381.313C165.552 382.256 163.266 381.524 161.767 381.169C160.146 380.887 158.496 380.556 156.878 380.299C157.918 378.716 159.57 377.403 160.884 376.051C164.828 371.994 167.826 367.144 170.892 362.422C171.08 362.132 171.34 361.94 171.627 361.756Z"/>
<path d="M184.228 368.754C185.136 368.7 186.223 369.095 186.997 369.434C188.543 370.111 190.302 370.073 189.985 372.18C189.262 376.991 188.677 381.844 187.768 386.62C187.691 387.028 186.887 387.317 186.56 387.453C186.137 387.297 185.657 387.075 185.237 386.894C183.862 386.311 179.647 384.53 178.829 383.515C178.529 382.663 179.964 378.936 180.305 377.933C181.111 375.579 181.9 373.219 182.672 370.854C183.048 369.729 183.156 369.29 184.228 368.754Z"/>
<path d="M273.822 437.175C273.867 437.17 274.134 437.192 274.141 437.199C275.834 439.058 280.171 444.539 281.502 446.043C280.163 446.046 279.793 446.034 278.509 445.673C276.834 445.076 275.519 443.755 274.412 442.407C273.156 440.88 271.643 439.755 270.23 438.392C271.437 438.012 272.634 437.607 273.822 437.175Z"/>
<path d="M283.927 450.589C286.633 450.7 287.715 452.422 287.158 454.981C287.042 455.513 287.1 456.289 286.697 456.678C286.351 456.638 286.471 456.663 286.161 456.435L282.294 450.909C282.994 450.692 283.193 450.662 283.927 450.589Z"/>
</g>
</svg>
