<svg xmlns="http://www.w3.org/2000/svg" viewBox="80 282 240 196" fill="none">
<g fill="#4C6589">
<path d="M200.251 324.016C200.444 323.987 201.024 323.982 201.242 323.975C201.747 324.819 202.441 326.356 202.887 327.282L205.83 333.39L215.427 353.261C220.754 348.136 226.353 343.2 231.684 338.086C232.412 338.351 233.137 338.624 233.859 338.906L233.858 370.794C240.426 367.916 247.164 365.261 253.749 362.406C253.922 363.933 254.099 365.217 254.078 366.776C254 372.959 251.671 378.934 248.229 384C243.271 391.264 236.126 396.757 227.832 399.684C225.58 400.458 223.804 400.834 221.476 401.278C223.214 401.755 225.241 402.466 226.974 403.029L236.833 406.224C227.312 417.637 210.311 413.34 200.224 405.109C199.628 405.613 198.784 406.196 198.141 406.668C196.891 407.61 195.559 408.401 194.233 409.218C183.295 415.96 172.677 414.502 163.113 406.116C168.393 404.721 174.001 403.001 179.286 401.493C179.331 400.785 179.342 400.008 179.366 399.293C174.957 399.246 170.504 398.822 166.33 397.316C162.967 396.104 159.905 394.242 157.464 391.612C151.763 385.469 147.498 371.644 143.743 363.678L145.964 362.073L165.602 370.397L165.582 338.962L167.747 337.853C173.417 342.668 179.312 348.113 184.897 353.094C186.259 350.042 188.097 346.534 189.59 343.476L199.024 324.137C199.345 324.084 199.909 324.049 200.251 324.016ZM200.557 363.4L202.165 363.389C202.52 364.827 202.807 366.357 203.079 367.818C204.124 373.443 205.362 379.062 206.355 384.694C210.133 381.681 212.579 378.819 213.112 373.731C214.043 364.839 208.873 355.199 204.476 347.816C203.309 345.857 201.414 342.811 200.049 341.062C193.054 351.461 177.512 374.823 194.084 384.005C195.568 377.303 197.075 369.92 198.728 363.297C199.326 363.328 199.964 363.352 200.557 363.4ZM239.276 375.013C238.094 375.159 236.692 375.345 235.597 375.824C227.77 379.251 225.553 387.569 218.15 391.982C219.191 392.073 220.366 392.192 221.401 392.189C232.21 392.266 240.497 386.033 242.36 375.188C241.497 375.023 240.151 374.838 239.276 375.013ZM156.596 374.697C160.446 384.826 168.168 394.471 180.29 392.556C180.72 392.487 181.201 392.391 181.619 392.27L181.772 392.144C181.227 391.593 180.572 391.193 179.974 390.675C178.92 389.75 177.916 388.771 176.963 387.744C171.068 381.418 166.478 374.03 156.596 374.697ZM226.378 351.291C223.373 355.671 219.575 359.883 218.318 365.08C216.854 371.135 215.945 377.244 215.041 383.4C214.991 383.744 214.542 386.411 214.572 386.534C214.912 386.597 214.879 386.531 215.27 386.343C228.074 380.131 228.714 363.442 226.378 351.291ZM185.825 386.864L186.002 386.789C185.935 385.645 184.915 382.765 184.552 381.559C183.123 376.814 181.552 372.09 181 367.138C180.749 364.883 180.83 362.596 180.057 360.433C179.431 358.616 178.18 356.812 176.727 355.57C175.894 354.859 173.476 352.924 172.54 352.448C170.843 365.344 172.635 380.566 185.825 386.864Z"/>
<path d="M268.188 308.652C271.582 308.372 278.205 309.825 281.183 311.587C285.451 314.115 289.869 318.005 291.761 322.667C294.558 329.564 290.029 336.861 287.695 343.207C286.943 345.252 286.081 347.255 286.662 349.462C285.827 348.447 284.47 347.104 283.534 346.123L283.274 347.481C284.511 349.462 285.754 352.023 287.275 353.752C288.162 354.763 290.081 355.941 291.23 356.839C293.483 358.613 295.543 360.617 297.378 362.82C305.551 372.684 307.135 385.29 306.261 397.64C306.071 398.884 306.294 400.608 306.053 401.804C304.219 410.946 298.919 419.546 291.768 425.501C290.086 426.902 287.314 427.946 285.354 428.846C283.752 429.582 281.951 430.325 280.266 430.728C278.992 430.799 277.4 430.27 276.196 429.934C271.057 428.498 266.055 426.464 260.836 425.353C260.62 425.308 260.481 425.291 260.324 425.422C261.159 426.636 270.139 431.078 272.238 432.86L272.36 432.965C259.443 435.988 242.133 432.581 232.159 423.563C232.78 418.784 235.788 415.882 240.001 413.931C243.428 412.32 247.132 410.964 250.571 409.369C252.352 408.521 255.624 407.12 256.787 405.56C257.088 405.157 257.8 400.04 257.921 399.31C259.054 392.578 260.313 385.867 261.698 379.181C262.256 376.543 263.256 371.446 264.419 369.19C265.306 367.47 268.885 363.726 270.433 362.729C273.199 360.947 278.64 358.969 279.894 355.598C281.058 351.373 275.795 348.31 273.29 345.735C272.24 344.656 270.055 341.886 270.55 340.154C271.053 338.811 273.171 339.892 273.757 339.42C276.486 337.225 275.279 332.929 272.242 331.914C269.061 332.318 269.142 333.7 267.122 335.513C262.689 332.381 258.135 328.908 253.745 325.671C253.591 326.388 253.45 327.109 253.322 327.832C252.502 332.562 251.541 342.654 254.518 346.718C256.664 349.644 260.253 350.604 263.766 350.383C265.798 350.255 267.152 349.723 269.21 350.073C270.871 351.245 270.289 353.395 270.409 355.16C270.501 356.515 270.55 357.822 270.85 359.157C268.909 360.315 267.524 361.536 265.872 363.033C266.1 362.003 266.191 360.948 266.144 359.895C265.961 354.964 261.006 356.514 257.962 355.514C250.404 352.908 248.582 343.776 248.387 336.722C248.388 334.669 248.269 332.573 248.439 330.525C249.089 322.701 248.44 314.2 258.667 313.912C258.989 307.474 263.632 309.052 268.034 308.666L268.188 308.652Z"/>
<path d="M131.257 308.652C132.231 308.505 133.591 308.707 134.609 308.727C136.785 308.77 139.491 308.388 141.294 309.871C142.513 310.873 142.687 312.45 142.825 313.909C148.088 313.922 151.285 316.65 152.174 321.76C152.542 323.878 152.764 325.867 152.873 328.068C153.23 335.244 153.71 343.927 149.793 350.287C147.971 352.965 145.792 355.324 142.401 355.759C140.515 356.001 137.003 355.894 135.845 357.746C135.036 359.04 135.309 361.592 135.603 363.042C133.903 361.402 132.632 360.417 130.64 359.157C131.269 356.513 130.661 353.037 131.566 350.741C132.155 349.245 136.668 350.357 138.172 350.41C144.193 350.62 148.532 347.215 148.776 341.019C149.098 335.753 148.953 330.888 147.724 325.683L134.387 335.509C132.883 334.229 131.618 331.495 129.08 332.029C125.969 332.683 125.19 337.942 127.914 339.595C128.663 339.488 129.448 339.303 130.178 339.589C130.517 339.722 130.787 339.948 130.914 340.296C131.471 341.822 129.337 344.541 128.362 345.57C126.222 347.828 123.237 349.559 121.85 352.454C119.263 357.858 127.87 360.533 131.1 362.804C133.255 364.319 135.548 366.724 136.928 368.987C139.109 372.564 142.556 393.441 143.386 398.306C143.659 399.907 144.126 404.18 144.633 405.432C145.525 407.639 157.087 412.039 159.863 413.207C164.766 415.376 168.584 417.804 169.311 423.597C168.364 424.466 167.1 425.415 166.023 426.135C155.022 433.477 141.958 435.473 129.095 432.968C130.228 431.966 131.521 431.336 132.778 430.566C135.452 428.928 139.031 427.25 141.431 425.29C139.464 425.388 136.123 426.543 134.178 427.149C130.697 428.235 127.216 429.445 123.687 430.38C123.163 430.519 121.734 430.845 121.188 430.703C117.854 429.839 113.905 427.873 110.846 426.287C109.858 425.774 107.751 423.765 106.993 423.008C101.498 417.542 97.5965 410.681 95.7081 403.165C95.2403 401.229 95.2649 398.391 95.1415 396.324C94.3992 383.885 96.4211 371.437 104.939 361.831C106.557 360.001 108.338 358.322 110.262 356.816C111.338 355.979 113.321 354.745 114.165 353.785C115.695 352.045 116.974 349.49 118.229 347.453L117.905 346.112C117.593 346.493 115.216 349.1 114.945 349.186C115.569 345.643 111.968 339.322 110.786 335.865C109.862 333.415 109.119 331.023 108.865 328.379C108.113 320.558 115.652 313.728 122.125 310.636C123.896 309.79 129.23 308.808 131.257 308.652Z"/>
<path d="M189.457 419.53C189.971 419.599 190.525 419.778 190.879 420.179C191.284 420.638 194.268 431.927 194.562 433.351C194.65 433.773 194.804 434.528 194.686 434.932C194.581 435.294 194.293 435.697 193.948 435.863C192.865 436.382 191.341 435.046 190.324 434.711C189.878 434.564 189.39 434.519 188.972 434.768C188.614 434.981 188.395 435.321 188.319 435.725C188.135 436.704 188.357 437.864 188.374 438.864C188.402 440.585 188.232 445.01 187.809 446.593C187.666 447.123 187.358 447.642 186.851 447.895C185.282 448.674 185.099 446.847 183.948 446.569C183.504 446.461 182.959 446.546 182.584 446.807C182.295 447.009 182.115 447.29 182.021 447.626C181.73 448.652 181.791 450.011 181.722 451.084L181.156 460.247C181.067 461.674 181.078 463.184 180.81 464.587C180.538 466.017 179.669 466.206 178.447 465.811C172.134 463.778 173.195 456.933 171.159 451.999C170.618 450.688 169.629 450.032 168.3 450.789C167.052 451.5 165.872 452.304 164.668 453.088L157.048 458.05C155.658 458.956 154.215 459.937 152.779 460.762C152.076 461.166 151.762 461.231 151.018 461.004C150.333 460.514 150.269 460.301 149.954 459.546C150.513 457.636 154.01 451.004 153.775 449.636C153.72 449.311 153.543 449.02 153.257 448.849C152.203 448.22 150.486 448.892 149.378 449.142C143.027 450.576 136.458 447.496 131.21 444.169C136.782 441.648 141.143 442.384 146.907 442.155C149.545 442.051 153.441 441.571 156.008 441.052C158.515 440.546 162.113 439.108 164.479 438.112C170.312 435.628 175.732 432.27 180.553 428.154C183.545 425.577 185.99 422.938 188.609 420.003C188.769 419.823 189.227 419.627 189.457 419.53Z"/>
<path d="M210.826 419.546C212.265 419.824 213.354 421.62 214.336 422.7C222.359 431.52 232.944 437.986 244.476 441.041C247.007 441.712 250.591 441.791 253.248 442.127C255.576 442.42 258.231 442.071 260.586 442.198C263.911 442.341 266.29 443.027 269.361 444.155C263.282 448.068 256.629 450.811 249.467 448.744C248.628 448.501 247.667 448.332 247.051 449.101C246.296 450.139 247.157 451.332 247.538 452.324C248.439 454.679 249.92 457.016 250.406 459.492C250.507 460.001 250.181 460.425 249.869 460.777C249.563 460.96 248.929 461.262 248.604 461.145C247.483 460.742 245.904 459.608 244.913 458.961L236.509 453.499C235.586 452.897 232.986 451.132 232.132 450.713C228.605 448.981 228.269 457.253 227.597 459.236C227.264 460.551 226.789 461.781 226.03 462.907C224.942 464.522 223.318 465.54 221.441 465.989C220.759 466.17 219.851 465.524 219.739 464.848C219.478 463.281 219.485 461.576 219.376 459.983L218.565 447.522C217.916 446.552 216.512 446.104 216.088 446.867C215.369 448.159 213.139 448.579 212.781 446.898C212.314 444.701 212.239 441.27 212.158 438.893C212.124 437.914 212.387 436.579 212.185 435.579C211.274 432.822 208.309 436.659 206.657 435.809C206.019 435.517 205.606 434.81 205.786 434.098C206.38 431.747 207.027 429.382 207.676 427.042C208.298 424.796 208.786 422.463 209.575 420.284C209.713 419.9 210.5 419.645 210.826 419.546Z"/>
<path d="M197.047 293.071C199.8 292.893 205.649 293.221 208.421 293.461C221.192 294.566 234.667 297.334 245.356 304.764C244.549 306.252 243.754 307.745 242.969 309.244C241.326 308.249 238.547 306.984 236.799 306.182C227.139 301.755 216.575 298.481 205.91 297.954C204.466 297.882 202.554 297.786 201.155 297.881C199.782 297.936 198.489 297.93 197.115 297.887C182.382 297.431 167.796 302.489 154.944 309.209L152.518 304.778C164.47 296.036 182.585 293.555 197.047 293.071Z"/>
</g>
</svg>
