<svg xmlns="http://www.w3.org/2000/svg" viewBox="100 276 202 202" fill="none">
<g id="Group 2523">
<circle id="Ellipse 37" cx="201" cy="377" r="99" fill="#76DDE6" fill-opacity="0.3"/>
<g id="Group 2272">
<g id="Vector">
<mask id="path-4-outside-1_5184_571" maskUnits="userSpaceOnUse" x="145.316" y="329.867" width="112" height="118" fill="black">
<rect fill="white" x="145.316" y="329.867" width="112" height="118"/>
<path d="M228.645 330.982C229.844 331.581 230.787 332.232 231.405 333.435C232.046 336.112 231.148 338.044 230.101 340.506C229.945 340.886 229.789 341.266 229.633 341.646C229.336 342.371 229.037 343.094 228.736 343.816C228.27 344.946 227.837 346.084 227.419 347.232C227.904 346.651 228.39 346.069 228.875 345.488C229.011 345.325 229.147 345.163 229.287 344.995C229.421 344.834 229.556 344.673 229.694 344.507C229.896 344.267 229.896 344.267 230.101 344.022C230.453 343.592 230.788 343.148 231.122 342.703C231.938 341.756 232.504 341.456 233.741 341.314C236.678 341.302 236.678 341.302 237.843 342.326C239.088 343.744 239.511 344.605 239.478 346.469C239.16 348.855 237.305 350.711 235.814 352.484C234.591 353.958 233.46 355.501 232.324 357.043C232.176 357.245 232.028 357.446 231.875 357.654C230.898 358.982 229.924 360.312 228.952 361.642C229.274 361.513 229.596 361.384 229.928 361.251C235.831 358.926 235.831 358.926 238.54 360.102C239.676 360.775 240.195 361.647 240.603 362.869C240.676 363.565 240.676 363.565 240.699 364.344C240.71 364.599 240.722 364.854 240.733 365.117C240.404 367.182 238.728 368.44 237.211 369.71C237.006 369.884 236.802 370.058 236.591 370.238C235.159 371.452 233.71 372.645 232.253 373.828C231.26 374.638 230.277 375.458 229.297 376.283C229.132 376.42 228.968 376.558 228.799 376.699C226.018 378.975 226.018 378.975 224.659 382.185C224.573 383.974 224.76 385.193 225.438 386.88C225.561 387.192 225.561 387.192 225.686 387.511C225.863 387.957 226.041 388.403 226.22 388.849C226.6 389.797 226.967 390.75 227.334 391.703C227.806 392.927 228.284 394.148 228.76 395.369C228.959 395.878 229.157 396.388 229.355 396.897C229.834 398.125 230.312 399.353 230.791 400.581C231.001 400.452 231.211 400.322 231.427 400.188C231.703 400.02 231.978 399.852 232.262 399.678C232.535 399.511 232.808 399.343 233.089 399.17C233.857 398.742 233.857 398.742 234.854 398.473C237.24 399.233 238.717 403.075 239.932 405.104C240.16 405.483 240.389 405.862 240.618 406.241C241.092 407.027 241.566 407.814 242.039 408.601C243.05 410.28 244.068 411.955 245.086 413.63C245.521 414.347 245.957 415.064 246.393 415.781C246.711 416.306 247.029 416.83 247.348 417.355C247.746 418.01 248.144 418.666 248.542 419.322C248.912 419.93 249.281 420.538 249.65 421.146C250.002 421.724 250.353 422.303 250.703 422.882C251.588 424.339 252.486 425.785 253.406 427.22C253.592 427.513 253.778 427.805 253.97 428.107C254.323 428.661 254.68 429.214 255.041 429.763C256.536 432.117 256.536 432.117 256.24 433.695C255.626 434.308 255.626 434.308 254.599 434.466C253.48 434.308 253.48 434.308 252.783 433.537C252.561 433.16 252.346 432.777 252.139 432.392C251.876 431.94 251.614 431.489 251.351 431.037C251.205 430.781 251.059 430.524 250.909 430.259C250.041 428.755 249.128 427.279 248.223 425.798C247.654 424.866 247.088 423.931 246.523 422.997C245.178 420.776 243.828 418.558 242.477 416.341C241.572 414.854 240.667 413.367 239.764 411.879C239.574 411.566 239.384 411.253 239.189 410.931C238.83 410.34 238.471 409.749 238.113 409.158C237.061 407.426 235.98 405.717 234.869 404.023C234.471 403.341 234.471 403.341 234.471 402.728C229.929 405.52 225.39 408.316 220.858 411.125C220.011 411.65 219.164 412.174 218.316 412.698C218.028 412.877 217.739 413.055 217.442 413.239C216.894 413.578 216.346 413.917 215.798 414.256C215.549 414.41 215.3 414.565 215.043 414.724C214.805 414.871 214.567 415.018 214.321 415.169C213.85 415.463 213.38 415.76 212.913 416.06C212.694 416.201 212.474 416.342 212.248 416.487C212.054 416.612 211.86 416.738 211.661 416.867C211.169 417.138 211.169 417.138 210.555 417.138C211.977 419.72 213.433 422.266 215.015 424.754C216.828 427.628 218.537 430.567 220.264 433.494C220.389 433.707 220.515 433.92 220.644 434.139C220.884 434.544 221.123 434.95 221.362 435.356C221.867 436.264 221.867 436.264 222.513 437.068C222.57 438.121 222.57 438.121 222.513 439.214C221.9 439.827 221.9 439.827 221.006 439.945C220.06 439.827 220.06 439.827 219.497 439.302C219.341 439.055 219.185 438.807 219.024 438.553C218.844 438.271 218.664 437.99 218.478 437.7C218.199 437.235 218.199 437.235 217.914 436.761C217.627 436.287 217.627 436.287 217.334 435.803C216.818 434.933 216.309 434.061 215.804 433.184C215.242 432.208 214.675 431.235 214.108 430.262C213.992 430.064 213.876 429.866 213.757 429.661C212.339 427.239 210.864 424.854 209.383 422.47C206.263 417.442 206.263 417.442 206.569 415.912C207.615 414.834 208.952 414.195 210.249 413.459C208.669 410.206 206.988 407.009 205.286 403.82C205.179 403.62 205.073 403.421 204.963 403.215C203.78 400.998 202.589 398.786 201.357 396.595C201.186 396.931 201.014 397.266 200.837 397.611C198.437 402.258 195.823 406.776 193.111 411.248C192.981 411.463 192.851 411.678 192.717 411.899C192.48 412.288 192.242 412.677 192.002 413.064C191.416 413.962 191.416 413.962 191.239 414.992C191.86 415.44 192.504 415.839 193.155 416.241C193.692 416.832 193.692 416.832 193.888 417.806C193.615 419.438 192.823 420.321 191.776 421.565C191.377 422.057 190.978 422.55 190.58 423.043C190.38 423.288 190.18 423.533 189.973 423.786C189.154 424.801 188.374 425.844 187.598 426.892C186.167 428.812 184.72 430.719 183.267 432.622C181.809 434.532 180.356 436.446 178.917 438.371C177.603 440.127 176.281 441.877 174.951 443.621C174.78 443.846 174.609 444.07 174.433 444.302C174.195 444.614 174.195 444.614 173.952 444.932C173.811 445.115 173.671 445.299 173.526 445.489C172.674 446.552 172.674 446.552 171.705 446.693C170.429 446.54 169.667 445.998 168.665 445.25C168.23 444.939 167.794 444.628 167.359 444.317C167.113 444.141 166.868 443.965 166.616 443.784C165.167 442.758 163.693 441.768 162.222 440.774C161.295 440.148 160.369 439.52 159.443 438.892C159.258 438.766 159.072 438.64 158.881 438.511C157.602 437.643 156.323 436.774 155.045 435.905C154.786 435.728 154.786 435.728 154.521 435.548C153.705 434.993 152.889 434.437 152.073 433.881C151.78 433.682 151.487 433.482 151.185 433.277C150.909 433.087 150.632 432.896 150.347 432.7C149.816 432.345 149.274 432.006 148.723 431.682C147.57 430.994 146.908 430.585 146.316 429.357C146.57 427.465 147.621 426.155 148.697 424.612C148.936 424.26 149.175 423.907 149.412 423.554C149.913 422.811 150.417 422.07 150.923 421.33C152.027 419.709 153.096 418.064 154.166 416.42C154.769 415.497 155.374 414.575 155.978 413.653C156.228 413.272 156.478 412.891 156.728 412.509C156.989 412.11 157.251 411.712 157.512 411.313C157.652 411.1 157.791 410.888 157.934 410.669C158.808 409.337 159.682 408.004 160.556 406.671C160.835 406.245 161.115 405.82 161.394 405.394C161.527 405.191 161.659 404.989 161.796 404.78C161.925 404.583 162.055 404.386 162.188 404.183C162.556 403.623 162.925 403.063 163.294 402.504C163.703 401.88 164.108 401.253 164.506 400.621C164.745 400.246 164.745 400.246 164.988 399.864C165.12 399.653 165.251 399.443 165.386 399.226C165.791 398.742 165.791 398.742 166.883 398.339C168.143 398.454 168.565 398.807 169.47 399.662C169.774 399.763 170.077 399.864 170.39 399.968C170.412 399.65 170.412 399.65 170.435 399.325C170.572 397.543 170.757 395.779 171.003 394.008C172.424 383.554 171.744 373.642 165.331 364.9C164.476 363.8 163.584 362.75 162.648 361.719C160.093 358.888 160.093 358.888 159.812 356.852C160.03 355.38 160.425 354.409 161.517 353.383C162.917 352.877 164.053 353.01 165.484 353.364C166.091 353.657 166.688 353.971 167.274 354.304C167.572 354.472 167.87 354.64 168.177 354.813C168.401 354.942 168.626 355.071 168.857 355.204C168.727 354.975 168.597 354.746 168.463 354.511C167.979 353.654 167.499 352.794 167.023 351.932C166.817 351.562 166.608 351.192 166.398 350.823C164.214 346.983 164.214 346.983 164.564 344.779C164.924 343.583 165.588 342.783 166.596 342.039C168.362 341.483 169.957 341.394 171.674 342.135C172.487 342.893 173.036 343.611 173.663 344.523C173.855 344.8 174.046 345.077 174.243 345.363C174.461 345.681 174.461 345.681 174.682 346.005C174.608 345.797 174.534 345.589 174.457 345.374C174.119 344.417 173.787 343.458 173.456 342.499C173.28 342.007 173.28 342.007 173.101 341.505C172.318 339.219 171.748 337.231 172.594 334.872C173.517 333.503 174.626 332.662 176.215 332.208C177.892 332.053 179.035 332.31 180.508 333.128C181.724 334.405 182.406 335.628 182.995 337.293C183.075 337.509 183.154 337.724 183.236 337.946C183.487 338.625 183.732 339.307 183.976 339.988C184.146 340.453 184.317 340.917 184.487 341.381C184.902 342.512 185.312 343.645 185.72 344.779C185.715 344.44 185.71 344.101 185.704 343.752C185.7 343.304 185.696 342.856 185.691 342.408C185.688 342.185 185.684 341.961 185.68 341.732C185.668 339.962 185.755 339.038 186.947 337.727C188.249 336.774 189.611 336.272 191.233 336.362C192.685 336.687 193.882 337.477 194.778 338.656C195.381 339.885 195.456 341.011 195.56 342.364C195.584 342.635 195.608 342.906 195.632 343.185C195.705 344.023 195.772 344.861 195.838 345.699C195.879 346.189 195.92 346.679 195.961 347.169C196.081 348.622 196.191 350.076 196.301 351.529C196.341 352.057 196.381 352.584 196.422 353.111C196.526 354.476 196.63 355.841 196.733 357.206C196.84 358.608 196.947 360.01 197.054 361.412C197.263 364.146 197.471 366.88 197.678 369.614C198.517 368.582 199.24 367.557 199.92 366.414C200.947 364.773 202.043 363.446 203.81 362.562C205.891 362.317 207.401 362.452 209.128 363.67C210.102 364.486 210.667 364.961 210.816 366.268C210.943 367.879 210.573 369.199 210.071 370.717C209.985 370.993 209.898 371.269 209.809 371.554C209.526 372.448 209.236 373.34 208.946 374.232C208.749 374.85 208.553 375.467 208.358 376.085C207.449 378.939 206.509 381.781 205.521 384.608C205.442 384.836 205.362 385.065 205.28 385.3C204.911 386.356 204.536 387.409 204.152 388.46C203.955 389.01 203.955 389.01 203.754 389.572C203.638 389.887 203.523 390.203 203.403 390.527C203.019 392.119 203.582 393.182 204.343 394.573C204.604 395.053 204.604 395.053 204.87 395.543C205.058 395.884 205.245 396.225 205.439 396.576C205.732 397.113 206.024 397.651 206.317 398.188C206.616 398.735 206.915 399.281 207.215 399.827C207.754 400.811 208.289 401.797 208.823 402.784C210.378 405.654 211.95 408.508 213.621 411.313C213.863 411.163 213.863 411.163 214.11 411.01C214.602 410.706 215.093 410.402 215.585 410.097C216.159 409.742 216.733 409.387 217.307 409.031C218.834 408.086 220.361 407.141 221.889 406.196C222.18 406.016 222.471 405.836 222.771 405.651C223.332 405.304 223.893 404.957 224.455 404.61C224.837 404.374 224.837 404.374 225.227 404.132C225.563 403.925 225.563 403.925 225.906 403.713C226.415 403.393 226.918 403.061 227.419 402.728C227.238 401.719 226.995 400.809 226.613 399.859C226.461 399.478 226.461 399.478 226.306 399.089C226.197 398.819 226.087 398.548 225.974 398.269C225.805 397.844 225.805 397.844 225.632 397.41C225.149 396.203 224.664 394.997 224.179 393.79C223.825 392.907 223.472 392.024 223.119 391.14C222.957 390.738 222.957 390.738 222.791 390.329C221.322 386.649 220.275 383.441 221.581 379.542C222.926 376.462 225.783 374.258 228.331 372.206C229.317 371.406 230.285 370.59 231.251 369.767C232.815 368.438 234.396 367.131 235.989 365.837C236.577 365.371 236.577 365.371 236.923 365.015C236.936 364.504 236.937 363.993 236.923 363.482C234.972 362.78 232.813 364.05 231.03 364.839C230.038 365.309 229.053 365.791 228.07 366.28C227.407 366.607 226.744 366.934 226.08 367.259C225.792 367.403 225.504 367.546 225.207 367.693C222.79 368.791 222.79 368.791 221.631 368.388C220.98 367.774 220.98 367.774 220.83 366.966C221.045 365.49 221.794 364.673 222.724 363.539C223.094 363.073 223.463 362.606 223.833 362.139C224.022 361.903 224.212 361.667 224.407 361.423C225.256 360.359 226.078 359.276 226.901 358.193C227.229 357.764 227.558 357.335 227.886 356.906C229.105 355.311 230.322 353.715 231.539 352.118C231.742 351.852 231.945 351.586 232.154 351.311C232.54 350.805 232.926 350.297 233.31 349.789C233.672 349.315 234.038 348.843 234.407 348.374C234.658 348.051 234.658 348.051 234.915 347.722C235.063 347.534 235.212 347.346 235.365 347.153C235.859 346.358 235.833 345.684 235.697 344.779C234.767 344.796 234.094 344.877 233.381 345.507C232.877 346.091 232.406 346.692 231.941 347.309C231.767 347.531 231.593 347.753 231.414 347.982C230.895 348.648 230.383 349.319 229.872 349.991C229.605 350.338 229.338 350.685 229.071 351.031C228.583 351.667 228.095 352.304 227.608 352.941C226.657 354.177 225.679 355.391 224.698 356.603C224.446 356.915 224.446 356.915 224.189 357.234C222.405 359.426 222.405 359.426 221.593 360.109C220.616 360.071 220.616 360.071 219.754 359.803C219.077 358.449 219.37 356.981 219.806 355.601C219.97 355.208 220.14 354.817 220.313 354.428C220.45 354.105 220.45 354.105 220.59 353.776C220.786 353.314 220.985 352.853 221.186 352.394C221.501 351.669 221.811 350.942 222.12 350.214C222.547 349.209 222.975 348.205 223.405 347.202C224.311 345.082 225.202 342.956 226.08 340.823C226.342 340.189 226.608 339.557 226.875 338.924C227.034 338.538 227.193 338.152 227.352 337.765C227.491 337.431 227.63 337.097 227.774 336.752C228.035 335.877 228.127 335.478 227.725 334.661C226.852 334.266 226.852 334.266 226.171 334.574C225.494 335.024 225.309 335.315 224.992 336.055C224.844 336.391 224.844 336.391 224.693 336.734C224.59 336.979 224.487 337.224 224.381 337.476C224.27 337.731 224.16 337.986 224.045 338.249C223.684 339.083 223.329 339.919 222.973 340.755C222.726 341.327 222.479 341.899 222.231 342.471C221.203 344.849 220.188 347.232 219.179 349.618C218.921 350.228 218.662 350.837 218.404 351.447C218.097 352.172 217.792 352.899 217.49 353.627C217.355 353.948 217.22 354.268 217.082 354.598C216.967 354.872 216.853 355.147 216.735 355.43C216.376 356.132 216.093 356.573 215.461 357.043C214.35 356.986 214.35 356.986 213.315 356.737C211.862 353.831 213.823 347.517 214.254 344.415C214.384 343.474 214.513 342.534 214.641 341.593C214.721 341.012 214.801 340.432 214.882 339.852C214.918 339.59 214.953 339.329 214.99 339.06C215.022 338.831 215.054 338.603 215.087 338.367C215.176 337.631 215.176 337.631 215.154 336.501C214.851 336.399 214.547 336.298 214.235 336.194C214.032 336.295 213.83 336.396 213.621 336.501C213.346 337.314 213.346 337.314 213.121 338.322C213.027 338.712 212.932 339.102 212.835 339.504C212.761 339.818 212.761 339.818 212.686 340.139C212.531 340.794 212.372 341.449 212.213 342.103C211.76 343.963 211.314 345.825 210.87 347.687C210.599 348.826 210.324 349.963 210.045 351.1C209.94 351.533 209.837 351.967 209.735 352.401C209.593 353.01 209.444 353.616 209.296 354.223C209.213 354.568 209.13 354.914 209.045 355.27C208.675 356.229 208.382 356.554 207.489 357.043C206.704 357.082 206.704 357.082 205.956 356.737C205.233 355.28 204.823 353.872 204.477 352.278C204.431 352.066 204.384 351.854 204.337 351.636C204.24 351.192 204.145 350.748 204.05 350.304C203.905 349.625 203.757 348.947 203.608 348.27C202.89 344.954 202.89 344.954 202.89 343.553C202.587 343.553 202.283 343.553 201.97 343.553C201.98 343.789 201.989 344.026 201.999 344.27C202.165 348.597 202.312 352.924 202.354 357.254C202.363 357.758 202.363 357.758 202.373 358.273C202.375 358.738 202.375 358.738 202.378 359.212C202.38 359.483 202.383 359.753 202.386 360.032C202.277 360.723 202.277 360.723 201.88 361.28C201.357 361.642 201.357 361.642 200.246 361.585C199.904 361.503 199.563 361.42 199.211 361.336C198.766 360.446 198.836 359.645 198.807 358.652C198.798 358.337 198.798 358.337 198.788 358.016C198.767 357.327 198.749 356.639 198.732 355.951C198.726 355.717 198.72 355.484 198.713 355.243C198.677 353.818 198.644 352.393 198.613 350.968C198.599 350.34 198.582 349.712 198.565 349.084C198.537 348.032 198.518 346.981 198.502 345.929C198.493 345.619 198.484 345.31 198.474 344.992C198.46 343.235 198.589 342.152 199.824 340.793C201.05 339.955 202.376 339.976 203.81 340.18C205.075 340.824 205.727 341.335 206.263 342.633C206.396 343.191 206.51 343.754 206.608 344.319C206.659 344.607 206.711 344.895 206.763 345.191C206.876 346.005 206.876 346.005 206.876 347.232C207.078 347.232 207.281 347.232 207.489 347.232C207.529 346.698 207.529 346.698 207.57 346.154C207.793 344.158 208.299 342.228 208.8 340.288C208.965 339.641 209.125 338.994 209.284 338.346C209.39 337.931 209.496 337.515 209.603 337.099C209.698 336.727 209.792 336.354 209.889 335.97C210.342 334.707 210.941 333.794 212.062 333.039C213.752 332.463 215.548 332.577 217.147 333.32C218.073 334.199 218.465 334.652 218.834 335.887C218.828 337.229 218.687 338.542 218.527 339.873C218.471 340.376 218.415 340.879 218.359 341.381C218.333 341.619 218.307 341.856 218.279 342.101C218.26 342.277 218.241 342.452 218.22 342.633C218.335 342.362 218.449 342.092 218.567 341.813C218.994 340.803 219.425 339.795 219.856 338.787C220.042 338.352 220.227 337.916 220.411 337.48C220.677 336.851 220.945 336.224 221.215 335.596C221.296 335.403 221.376 335.21 221.46 335.011C222.118 333.49 222.856 332.309 224.218 331.346C225.713 330.83 227.08 330.77 228.645 330.982ZM175.602 336.501C175.775 338.519 176.29 340.276 176.958 342.184C177.063 342.489 177.168 342.795 177.276 343.109C177.61 344.082 177.947 345.053 178.285 346.025C178.507 346.669 178.729 347.313 178.951 347.957C179.059 348.271 179.167 348.585 179.279 348.909C179.493 349.532 179.708 350.155 179.922 350.778C180.381 352.111 180.842 353.444 181.315 354.772C181.456 355.178 181.598 355.583 181.739 355.988C181.859 356.324 181.978 356.66 182.101 357.005C182.377 358.078 182.413 359.006 182.348 360.109C182.041 360.416 182.041 360.416 181.177 360.527C180.201 360.416 180.201 360.416 179.565 359.799C179.379 359.518 179.193 359.236 179.001 358.945C178.793 358.636 178.585 358.327 178.371 358.009C178.063 357.531 178.063 357.531 177.748 357.043C177.558 356.758 177.368 356.472 177.171 356.178C176.603 355.321 176.044 354.458 175.487 353.594C175.087 352.978 174.686 352.362 174.286 351.746C173.593 350.677 172.902 349.606 172.214 348.534C171.945 348.119 171.675 347.704 171.406 347.289C171.287 347.102 171.169 346.916 171.048 346.723C170.427 345.774 169.943 345.164 168.857 344.779C168.553 344.981 168.25 345.184 167.937 345.392C168.123 346.785 168.692 347.899 169.352 349.118C169.52 349.435 169.52 349.435 169.692 349.758C169.932 350.21 170.174 350.661 170.416 351.112C170.794 351.816 171.17 352.521 171.546 353.227C172.659 355.315 173.782 357.396 174.936 359.463C175.106 359.768 175.276 360.073 175.451 360.387C175.76 360.939 176.071 361.489 176.386 362.037C177.307 363.679 177.748 364.955 177.748 366.855C176.924 366.95 176.924 366.95 175.909 366.855C174.791 365.841 173.81 364.702 172.804 363.578C170.178 360.697 167.499 358.15 163.951 356.43C163.749 356.43 163.546 356.43 163.338 356.43C163.75 357.648 164.262 358.373 165.158 359.285C172.24 366.959 175.232 376.124 174.989 386.477C174.935 387.712 174.853 388.944 174.759 390.176C174.733 390.515 174.708 390.853 174.681 391.202C174.37 394.971 173.783 398.694 173.149 402.421C176.761 405.047 180.398 407.632 184.061 410.184C185.331 411.069 186.599 411.958 187.866 412.846C188.691 412.103 189.193 411.301 189.742 410.34C189.926 410.02 190.11 409.699 190.3 409.369C190.496 409.024 190.692 408.679 190.894 408.323C191.1 407.962 191.306 407.601 191.512 407.239C191.828 406.685 192.143 406.131 192.458 405.576C193.116 404.419 193.787 403.271 194.467 402.128C199.708 393.247 207.489 377.119 207.489 366.548C206.524 365.976 205.848 365.822 204.73 365.935C202.594 367.496 201.331 370.381 200.035 372.642C199.707 373.21 199.377 373.778 199.047 374.345C198.751 374.854 198.457 375.365 198.164 375.875C197.678 376.666 197.678 376.666 197.065 377.279C196.298 377.356 196.298 377.356 195.532 377.279C194.788 376.536 194.82 376.288 194.746 375.264C194.712 374.821 194.712 374.821 194.677 374.369C194.655 374.044 194.633 373.719 194.61 373.384C194.585 373.043 194.559 372.701 194.533 372.349C194.477 371.606 194.424 370.862 194.371 370.118C194.287 368.942 194.199 367.765 194.111 366.589C193.892 363.667 193.677 360.744 193.466 357.821C193.287 355.354 193.105 352.887 192.918 350.42C192.86 349.64 192.804 348.86 192.749 348.08C192.672 346.989 192.59 345.898 192.507 344.807C192.475 344.323 192.475 344.323 192.442 343.828C192.275 341.709 192.275 341.709 191.239 339.873C190.328 339.978 190.328 339.978 189.399 340.18C188.498 341.982 189.135 344.831 189.294 346.801C189.325 347.202 189.325 347.202 189.356 347.611C189.42 348.456 189.486 349.3 189.553 350.145C189.64 351.259 189.726 352.374 189.811 353.489C189.832 353.738 189.852 353.988 189.872 354.245C190.006 356 190.029 357.736 190.013 359.496C189.102 359.496 188.191 359.496 187.253 359.496C187.075 358.876 187.075 358.876 186.893 358.243C186.255 356.12 185.499 354.041 184.744 351.959C184.669 351.751 184.593 351.542 184.516 351.328C184.117 350.228 183.718 349.129 183.318 348.03C182.907 346.9 182.5 345.768 182.093 344.636C181.777 343.761 181.459 342.886 181.14 342.011C180.989 341.594 180.838 341.177 180.689 340.759C180.48 340.176 180.267 339.594 180.053 339.012C179.934 338.682 179.814 338.351 179.69 338.011C179.249 337.043 178.804 336.337 178.055 335.581C176.746 335.581 176.541 335.696 175.602 336.501Z"/>
</mask>
<path d="M228.645 330.982C229.844 331.581 230.787 332.232 231.405 333.435C232.046 336.112 231.148 338.044 230.101 340.506C229.945 340.886 229.789 341.266 229.633 341.646C229.336 342.371 229.037 343.094 228.736 343.816C228.27 344.946 227.837 346.084 227.419 347.232C227.904 346.651 228.39 346.069 228.875 345.488C229.011 345.325 229.147 345.163 229.287 344.995C229.421 344.834 229.556 344.673 229.694 344.507C229.896 344.267 229.896 344.267 230.101 344.022C230.453 343.592 230.788 343.148 231.122 342.703C231.938 341.756 232.504 341.456 233.741 341.314C236.678 341.302 236.678 341.302 237.843 342.326C239.088 343.744 239.511 344.605 239.478 346.469C239.16 348.855 237.305 350.711 235.814 352.484C234.591 353.958 233.46 355.501 232.324 357.043C232.176 357.245 232.028 357.446 231.875 357.654C230.898 358.982 229.924 360.312 228.952 361.642C229.274 361.513 229.596 361.384 229.928 361.251C235.831 358.926 235.831 358.926 238.54 360.102C239.676 360.775 240.195 361.647 240.603 362.869C240.676 363.565 240.676 363.565 240.699 364.344C240.71 364.599 240.722 364.854 240.733 365.117C240.404 367.182 238.728 368.44 237.211 369.71C237.006 369.884 236.802 370.058 236.591 370.238C235.159 371.452 233.71 372.645 232.253 373.828C231.26 374.638 230.277 375.458 229.297 376.283C229.132 376.42 228.968 376.558 228.799 376.699C226.018 378.975 226.018 378.975 224.659 382.185C224.573 383.974 224.76 385.193 225.438 386.88C225.561 387.192 225.561 387.192 225.686 387.511C225.863 387.957 226.041 388.403 226.22 388.849C226.6 389.797 226.967 390.75 227.334 391.703C227.806 392.927 228.284 394.148 228.76 395.369C228.959 395.878 229.157 396.388 229.355 396.897C229.834 398.125 230.312 399.353 230.791 400.581C231.001 400.452 231.211 400.322 231.427 400.188C231.703 400.02 231.978 399.852 232.262 399.678C232.535 399.511 232.808 399.343 233.089 399.17C233.857 398.742 233.857 398.742 234.854 398.473C237.24 399.233 238.717 403.075 239.932 405.104C240.16 405.483 240.389 405.862 240.618 406.241C241.092 407.027 241.566 407.814 242.039 408.601C243.05 410.28 244.068 411.955 245.086 413.63C245.521 414.347 245.957 415.064 246.393 415.781C246.711 416.306 247.029 416.83 247.348 417.355C247.746 418.01 248.144 418.666 248.542 419.322C248.912 419.93 249.281 420.538 249.65 421.146C250.002 421.724 250.353 422.303 250.703 422.882C251.588 424.339 252.486 425.785 253.406 427.22C253.592 427.513 253.778 427.805 253.97 428.107C254.323 428.661 254.68 429.214 255.041 429.763C256.536 432.117 256.536 432.117 256.24 433.695C255.626 434.308 255.626 434.308 254.599 434.466C253.48 434.308 253.48 434.308 252.783 433.537C252.561 433.16 252.346 432.777 252.139 432.392C251.876 431.94 251.614 431.489 251.351 431.037C251.205 430.781 251.059 430.524 250.909 430.259C250.041 428.755 249.128 427.279 248.223 425.798C247.654 424.866 247.088 423.931 246.523 422.997C245.178 420.776 243.828 418.558 242.477 416.341C241.572 414.854 240.667 413.367 239.764 411.879C239.574 411.566 239.384 411.253 239.189 410.931C238.83 410.34 238.471 409.749 238.113 409.158C237.061 407.426 235.98 405.717 234.869 404.023C234.471 403.341 234.471 403.341 234.471 402.728C229.929 405.52 225.39 408.316 220.858 411.125C220.011 411.65 219.164 412.174 218.316 412.698C218.028 412.877 217.739 413.055 217.442 413.239C216.894 413.578 216.346 413.917 215.798 414.256C215.549 414.41 215.3 414.565 215.043 414.724C214.805 414.871 214.567 415.018 214.321 415.169C213.85 415.463 213.38 415.76 212.913 416.06C212.694 416.201 212.474 416.342 212.248 416.487C212.054 416.612 211.86 416.738 211.661 416.867C211.169 417.138 211.169 417.138 210.555 417.138C211.977 419.72 213.433 422.266 215.015 424.754C216.828 427.628 218.537 430.567 220.264 433.494C220.389 433.707 220.515 433.92 220.644 434.139C220.884 434.544 221.123 434.95 221.362 435.356C221.867 436.264 221.867 436.264 222.513 437.068C222.57 438.121 222.57 438.121 222.513 439.214C221.9 439.827 221.9 439.827 221.006 439.945C220.06 439.827 220.06 439.827 219.497 439.302C219.341 439.055 219.185 438.807 219.024 438.553C218.844 438.271 218.664 437.99 218.478 437.7C218.199 437.235 218.199 437.235 217.914 436.761C217.627 436.287 217.627 436.287 217.334 435.803C216.818 434.933 216.309 434.061 215.804 433.184C215.242 432.208 214.675 431.235 214.108 430.262C213.992 430.064 213.876 429.866 213.757 429.661C212.339 427.239 210.864 424.854 209.383 422.47C206.263 417.442 206.263 417.442 206.569 415.912C207.615 414.834 208.952 414.195 210.249 413.459C208.669 410.206 206.988 407.009 205.286 403.82C205.179 403.62 205.073 403.421 204.963 403.215C203.78 400.998 202.589 398.786 201.357 396.595C201.186 396.931 201.014 397.266 200.837 397.611C198.437 402.258 195.823 406.776 193.111 411.248C192.981 411.463 192.851 411.678 192.717 411.899C192.48 412.288 192.242 412.677 192.002 413.064C191.416 413.962 191.416 413.962 191.239 414.992C191.86 415.44 192.504 415.839 193.155 416.241C193.692 416.832 193.692 416.832 193.888 417.806C193.615 419.438 192.823 420.321 191.776 421.565C191.377 422.057 190.978 422.55 190.58 423.043C190.38 423.288 190.18 423.533 189.973 423.786C189.154 424.801 188.374 425.844 187.598 426.892C186.167 428.812 184.72 430.719 183.267 432.622C181.809 434.532 180.356 436.446 178.917 438.371C177.603 440.127 176.281 441.877 174.951 443.621C174.78 443.846 174.609 444.07 174.433 444.302C174.195 444.614 174.195 444.614 173.952 444.932C173.811 445.115 173.671 445.299 173.526 445.489C172.674 446.552 172.674 446.552 171.705 446.693C170.429 446.54 169.667 445.998 168.665 445.25C168.23 444.939 167.794 444.628 167.359 444.317C167.113 444.141 166.868 443.965 166.616 443.784C165.167 442.758 163.693 441.768 162.222 440.774C161.295 440.148 160.369 439.52 159.443 438.892C159.258 438.766 159.072 438.64 158.881 438.511C157.602 437.643 156.323 436.774 155.045 435.905C154.786 435.728 154.786 435.728 154.521 435.548C153.705 434.993 152.889 434.437 152.073 433.881C151.78 433.682 151.487 433.482 151.185 433.277C150.909 433.087 150.632 432.896 150.347 432.7C149.816 432.345 149.274 432.006 148.723 431.682C147.57 430.994 146.908 430.585 146.316 429.357C146.57 427.465 147.621 426.155 148.697 424.612C148.936 424.26 149.175 423.907 149.412 423.554C149.913 422.811 150.417 422.07 150.923 421.33C152.027 419.709 153.096 418.064 154.166 416.42C154.769 415.497 155.374 414.575 155.978 413.653C156.228 413.272 156.478 412.891 156.728 412.509C156.989 412.11 157.251 411.712 157.512 411.313C157.652 411.1 157.791 410.888 157.934 410.669C158.808 409.337 159.682 408.004 160.556 406.671C160.835 406.245 161.115 405.82 161.394 405.394C161.527 405.191 161.659 404.989 161.796 404.78C161.925 404.583 162.055 404.386 162.188 404.183C162.556 403.623 162.925 403.063 163.294 402.504C163.703 401.88 164.108 401.253 164.506 400.621C164.745 400.246 164.745 400.246 164.988 399.864C165.12 399.653 165.251 399.443 165.386 399.226C165.791 398.742 165.791 398.742 166.883 398.339C168.143 398.454 168.565 398.807 169.47 399.662C169.774 399.763 170.077 399.864 170.39 399.968C170.412 399.65 170.412 399.65 170.435 399.325C170.572 397.543 170.757 395.779 171.003 394.008C172.424 383.554 171.744 373.642 165.331 364.9C164.476 363.8 163.584 362.75 162.648 361.719C160.093 358.888 160.093 358.888 159.812 356.852C160.03 355.38 160.425 354.409 161.517 353.383C162.917 352.877 164.053 353.01 165.484 353.364C166.091 353.657 166.688 353.971 167.274 354.304C167.572 354.472 167.87 354.64 168.177 354.813C168.401 354.942 168.626 355.071 168.857 355.204C168.727 354.975 168.597 354.746 168.463 354.511C167.979 353.654 167.499 352.794 167.023 351.932C166.817 351.562 166.608 351.192 166.398 350.823C164.214 346.983 164.214 346.983 164.564 344.779C164.924 343.583 165.588 342.783 166.596 342.039C168.362 341.483 169.957 341.394 171.674 342.135C172.487 342.893 173.036 343.611 173.663 344.523C173.855 344.8 174.046 345.077 174.243 345.363C174.461 345.681 174.461 345.681 174.682 346.005C174.608 345.797 174.534 345.589 174.457 345.374C174.119 344.417 173.787 343.458 173.456 342.499C173.28 342.007 173.28 342.007 173.101 341.505C172.318 339.219 171.748 337.231 172.594 334.872C173.517 333.503 174.626 332.662 176.215 332.208C177.892 332.053 179.035 332.31 180.508 333.128C181.724 334.405 182.406 335.628 182.995 337.293C183.075 337.509 183.154 337.724 183.236 337.946C183.487 338.625 183.732 339.307 183.976 339.988C184.146 340.453 184.317 340.917 184.487 341.381C184.902 342.512 185.312 343.645 185.72 344.779C185.715 344.44 185.71 344.101 185.704 343.752C185.7 343.304 185.696 342.856 185.691 342.408C185.688 342.185 185.684 341.961 185.68 341.732C185.668 339.962 185.755 339.038 186.947 337.727C188.249 336.774 189.611 336.272 191.233 336.362C192.685 336.687 193.882 337.477 194.778 338.656C195.381 339.885 195.456 341.011 195.56 342.364C195.584 342.635 195.608 342.906 195.632 343.185C195.705 344.023 195.772 344.861 195.838 345.699C195.879 346.189 195.92 346.679 195.961 347.169C196.081 348.622 196.191 350.076 196.301 351.529C196.341 352.057 196.381 352.584 196.422 353.111C196.526 354.476 196.63 355.841 196.733 357.206C196.84 358.608 196.947 360.01 197.054 361.412C197.263 364.146 197.471 366.88 197.678 369.614C198.517 368.582 199.24 367.557 199.92 366.414C200.947 364.773 202.043 363.446 203.81 362.562C205.891 362.317 207.401 362.452 209.128 363.67C210.102 364.486 210.667 364.961 210.816 366.268C210.943 367.879 210.573 369.199 210.071 370.717C209.985 370.993 209.898 371.269 209.809 371.554C209.526 372.448 209.236 373.34 208.946 374.232C208.749 374.85 208.553 375.467 208.358 376.085C207.449 378.939 206.509 381.781 205.521 384.608C205.442 384.836 205.362 385.065 205.28 385.3C204.911 386.356 204.536 387.409 204.152 388.46C203.955 389.01 203.955 389.01 203.754 389.572C203.638 389.887 203.523 390.203 203.403 390.527C203.019 392.119 203.582 393.182 204.343 394.573C204.604 395.053 204.604 395.053 204.87 395.543C205.058 395.884 205.245 396.225 205.439 396.576C205.732 397.113 206.024 397.651 206.317 398.188C206.616 398.735 206.915 399.281 207.215 399.827C207.754 400.811 208.289 401.797 208.823 402.784C210.378 405.654 211.95 408.508 213.621 411.313C213.863 411.163 213.863 411.163 214.11 411.01C214.602 410.706 215.093 410.402 215.585 410.097C216.159 409.742 216.733 409.387 217.307 409.031C218.834 408.086 220.361 407.141 221.889 406.196C222.18 406.016 222.471 405.836 222.771 405.651C223.332 405.304 223.893 404.957 224.455 404.61C224.837 404.374 224.837 404.374 225.227 404.132C225.563 403.925 225.563 403.925 225.906 403.713C226.415 403.393 226.918 403.061 227.419 402.728C227.238 401.719 226.995 400.809 226.613 399.859C226.461 399.478 226.461 399.478 226.306 399.089C226.197 398.819 226.087 398.548 225.974 398.269C225.805 397.844 225.805 397.844 225.632 397.41C225.149 396.203 224.664 394.997 224.179 393.79C223.825 392.907 223.472 392.024 223.119 391.14C222.957 390.738 222.957 390.738 222.791 390.329C221.322 386.649 220.275 383.441 221.581 379.542C222.926 376.462 225.783 374.258 228.331 372.206C229.317 371.406 230.285 370.59 231.251 369.767C232.815 368.438 234.396 367.131 235.989 365.837C236.577 365.371 236.577 365.371 236.923 365.015C236.936 364.504 236.937 363.993 236.923 363.482C234.972 362.78 232.813 364.05 231.03 364.839C230.038 365.309 229.053 365.791 228.07 366.28C227.407 366.607 226.744 366.934 226.08 367.259C225.792 367.403 225.504 367.546 225.207 367.693C222.79 368.791 222.79 368.791 221.631 368.388C220.98 367.774 220.98 367.774 220.83 366.966C221.045 365.49 221.794 364.673 222.724 363.539C223.094 363.073 223.463 362.606 223.833 362.139C224.022 361.903 224.212 361.667 224.407 361.423C225.256 360.359 226.078 359.276 226.901 358.193C227.229 357.764 227.558 357.335 227.886 356.906C229.105 355.311 230.322 353.715 231.539 352.118C231.742 351.852 231.945 351.586 232.154 351.311C232.54 350.805 232.926 350.297 233.31 349.789C233.672 349.315 234.038 348.843 234.407 348.374C234.658 348.051 234.658 348.051 234.915 347.722C235.063 347.534 235.212 347.346 235.365 347.153C235.859 346.358 235.833 345.684 235.697 344.779C234.767 344.796 234.094 344.877 233.381 345.507C232.877 346.091 232.406 346.692 231.941 347.309C231.767 347.531 231.593 347.753 231.414 347.982C230.895 348.648 230.383 349.319 229.872 349.991C229.605 350.338 229.338 350.685 229.071 351.031C228.583 351.667 228.095 352.304 227.608 352.941C226.657 354.177 225.679 355.391 224.698 356.603C224.446 356.915 224.446 356.915 224.189 357.234C222.405 359.426 222.405 359.426 221.593 360.109C220.616 360.071 220.616 360.071 219.754 359.803C219.077 358.449 219.37 356.981 219.806 355.601C219.97 355.208 220.14 354.817 220.313 354.428C220.45 354.105 220.45 354.105 220.59 353.776C220.786 353.314 220.985 352.853 221.186 352.394C221.501 351.669 221.811 350.942 222.12 350.214C222.547 349.209 222.975 348.205 223.405 347.202C224.311 345.082 225.202 342.956 226.08 340.823C226.342 340.189 226.608 339.557 226.875 338.924C227.034 338.538 227.193 338.152 227.352 337.765C227.491 337.431 227.63 337.097 227.774 336.752C228.035 335.877 228.127 335.478 227.725 334.661C226.852 334.266 226.852 334.266 226.171 334.574C225.494 335.024 225.309 335.315 224.992 336.055C224.844 336.391 224.844 336.391 224.693 336.734C224.59 336.979 224.487 337.224 224.381 337.476C224.27 337.731 224.16 337.986 224.045 338.249C223.684 339.083 223.329 339.919 222.973 340.755C222.726 341.327 222.479 341.899 222.231 342.471C221.203 344.849 220.188 347.232 219.179 349.618C218.921 350.228 218.662 350.837 218.404 351.447C218.097 352.172 217.792 352.899 217.49 353.627C217.355 353.948 217.22 354.268 217.082 354.598C216.967 354.872 216.853 355.147 216.735 355.43C216.376 356.132 216.093 356.573 215.461 357.043C214.35 356.986 214.35 356.986 213.315 356.737C211.862 353.831 213.823 347.517 214.254 344.415C214.384 343.474 214.513 342.534 214.641 341.593C214.721 341.012 214.801 340.432 214.882 339.852C214.918 339.59 214.953 339.329 214.99 339.06C215.022 338.831 215.054 338.603 215.087 338.367C215.176 337.631 215.176 337.631 215.154 336.501C214.851 336.399 214.547 336.298 214.235 336.194C214.032 336.295 213.83 336.396 213.621 336.501C213.346 337.314 213.346 337.314 213.121 338.322C213.027 338.712 212.932 339.102 212.835 339.504C212.761 339.818 212.761 339.818 212.686 340.139C212.531 340.794 212.372 341.449 212.213 342.103C211.76 343.963 211.314 345.825 210.87 347.687C210.599 348.826 210.324 349.963 210.045 351.1C209.94 351.533 209.837 351.967 209.735 352.401C209.593 353.01 209.444 353.616 209.296 354.223C209.213 354.568 209.13 354.914 209.045 355.27C208.675 356.229 208.382 356.554 207.489 357.043C206.704 357.082 206.704 357.082 205.956 356.737C205.233 355.28 204.823 353.872 204.477 352.278C204.431 352.066 204.384 351.854 204.337 351.636C204.24 351.192 204.145 350.748 204.05 350.304C203.905 349.625 203.757 348.947 203.608 348.27C202.89 344.954 202.89 344.954 202.89 343.553C202.587 343.553 202.283 343.553 201.97 343.553C201.98 343.789 201.989 344.026 201.999 344.27C202.165 348.597 202.312 352.924 202.354 357.254C202.363 357.758 202.363 357.758 202.373 358.273C202.375 358.738 202.375 358.738 202.378 359.212C202.38 359.483 202.383 359.753 202.386 360.032C202.277 360.723 202.277 360.723 201.88 361.28C201.357 361.642 201.357 361.642 200.246 361.585C199.904 361.503 199.563 361.42 199.211 361.336C198.766 360.446 198.836 359.645 198.807 358.652C198.798 358.337 198.798 358.337 198.788 358.016C198.767 357.327 198.749 356.639 198.732 355.951C198.726 355.717 198.72 355.484 198.713 355.243C198.677 353.818 198.644 352.393 198.613 350.968C198.599 350.34 198.582 349.712 198.565 349.084C198.537 348.032 198.518 346.981 198.502 345.929C198.493 345.619 198.484 345.31 198.474 344.992C198.46 343.235 198.589 342.152 199.824 340.793C201.05 339.955 202.376 339.976 203.81 340.18C205.075 340.824 205.727 341.335 206.263 342.633C206.396 343.191 206.51 343.754 206.608 344.319C206.659 344.607 206.711 344.895 206.763 345.191C206.876 346.005 206.876 346.005 206.876 347.232C207.078 347.232 207.281 347.232 207.489 347.232C207.529 346.698 207.529 346.698 207.57 346.154C207.793 344.158 208.299 342.228 208.8 340.288C208.965 339.641 209.125 338.994 209.284 338.346C209.39 337.931 209.496 337.515 209.603 337.099C209.698 336.727 209.792 336.354 209.889 335.97C210.342 334.707 210.941 333.794 212.062 333.039C213.752 332.463 215.548 332.577 217.147 333.32C218.073 334.199 218.465 334.652 218.834 335.887C218.828 337.229 218.687 338.542 218.527 339.873C218.471 340.376 218.415 340.879 218.359 341.381C218.333 341.619 218.307 341.856 218.279 342.101C218.26 342.277 218.241 342.452 218.22 342.633C218.335 342.362 218.449 342.092 218.567 341.813C218.994 340.803 219.425 339.795 219.856 338.787C220.042 338.352 220.227 337.916 220.411 337.48C220.677 336.851 220.945 336.224 221.215 335.596C221.296 335.403 221.376 335.21 221.46 335.011C222.118 333.49 222.856 332.309 224.218 331.346C225.713 330.83 227.08 330.77 228.645 330.982ZM175.602 336.501C175.775 338.519 176.29 340.276 176.958 342.184C177.063 342.489 177.168 342.795 177.276 343.109C177.61 344.082 177.947 345.053 178.285 346.025C178.507 346.669 178.729 347.313 178.951 347.957C179.059 348.271 179.167 348.585 179.279 348.909C179.493 349.532 179.708 350.155 179.922 350.778C180.381 352.111 180.842 353.444 181.315 354.772C181.456 355.178 181.598 355.583 181.739 355.988C181.859 356.324 181.978 356.66 182.101 357.005C182.377 358.078 182.413 359.006 182.348 360.109C182.041 360.416 182.041 360.416 181.177 360.527C180.201 360.416 180.201 360.416 179.565 359.799C179.379 359.518 179.193 359.236 179.001 358.945C178.793 358.636 178.585 358.327 178.371 358.009C178.063 357.531 178.063 357.531 177.748 357.043C177.558 356.758 177.368 356.472 177.171 356.178C176.603 355.321 176.044 354.458 175.487 353.594C175.087 352.978 174.686 352.362 174.286 351.746C173.593 350.677 172.902 349.606 172.214 348.534C171.945 348.119 171.675 347.704 171.406 347.289C171.287 347.102 171.169 346.916 171.048 346.723C170.427 345.774 169.943 345.164 168.857 344.779C168.553 344.981 168.25 345.184 167.937 345.392C168.123 346.785 168.692 347.899 169.352 349.118C169.52 349.435 169.52 349.435 169.692 349.758C169.932 350.21 170.174 350.661 170.416 351.112C170.794 351.816 171.17 352.521 171.546 353.227C172.659 355.315 173.782 357.396 174.936 359.463C175.106 359.768 175.276 360.073 175.451 360.387C175.76 360.939 176.071 361.489 176.386 362.037C177.307 363.679 177.748 364.955 177.748 366.855C176.924 366.95 176.924 366.95 175.909 366.855C174.791 365.841 173.81 364.702 172.804 363.578C170.178 360.697 167.499 358.15 163.951 356.43C163.749 356.43 163.546 356.43 163.338 356.43C163.75 357.648 164.262 358.373 165.158 359.285C172.24 366.959 175.232 376.124 174.989 386.477C174.935 387.712 174.853 388.944 174.759 390.176C174.733 390.515 174.708 390.853 174.681 391.202C174.37 394.971 173.783 398.694 173.149 402.421C176.761 405.047 180.398 407.632 184.061 410.184C185.331 411.069 186.599 411.958 187.866 412.846C188.691 412.103 189.193 411.301 189.742 410.34C189.926 410.02 190.11 409.699 190.3 409.369C190.496 409.024 190.692 408.679 190.894 408.323C191.1 407.962 191.306 407.601 191.512 407.239C191.828 406.685 192.143 406.131 192.458 405.576C193.116 404.419 193.787 403.271 194.467 402.128C199.708 393.247 207.489 377.119 207.489 366.548C206.524 365.976 205.848 365.822 204.73 365.935C202.594 367.496 201.331 370.381 200.035 372.642C199.707 373.21 199.377 373.778 199.047 374.345C198.751 374.854 198.457 375.365 198.164 375.875C197.678 376.666 197.678 376.666 197.065 377.279C196.298 377.356 196.298 377.356 195.532 377.279C194.788 376.536 194.82 376.288 194.746 375.264C194.712 374.821 194.712 374.821 194.677 374.369C194.655 374.044 194.633 373.719 194.61 373.384C194.585 373.043 194.559 372.701 194.533 372.349C194.477 371.606 194.424 370.862 194.371 370.118C194.287 368.942 194.199 367.765 194.111 366.589C193.892 363.667 193.677 360.744 193.466 357.821C193.287 355.354 193.105 352.887 192.918 350.42C192.86 349.64 192.804 348.86 192.749 348.08C192.672 346.989 192.59 345.898 192.507 344.807C192.475 344.323 192.475 344.323 192.442 343.828C192.275 341.709 192.275 341.709 191.239 339.873C190.328 339.978 190.328 339.978 189.399 340.18C188.498 341.982 189.135 344.831 189.294 346.801C189.325 347.202 189.325 347.202 189.356 347.611C189.42 348.456 189.486 349.3 189.553 350.145C189.64 351.259 189.726 352.374 189.811 353.489C189.832 353.738 189.852 353.988 189.872 354.245C190.006 356 190.029 357.736 190.013 359.496C189.102 359.496 188.191 359.496 187.253 359.496C187.075 358.876 187.075 358.876 186.893 358.243C186.255 356.12 185.499 354.041 184.744 351.959C184.669 351.751 184.593 351.542 184.516 351.328C184.117 350.228 183.718 349.129 183.318 348.03C182.907 346.9 182.5 345.768 182.093 344.636C181.777 343.761 181.459 342.886 181.14 342.011C180.989 341.594 180.838 341.177 180.689 340.759C180.48 340.176 180.267 339.594 180.053 339.012C179.934 338.682 179.814 338.351 179.69 338.011C179.249 337.043 178.804 336.337 178.055 335.581C176.746 335.581 176.541 335.696 175.602 336.501Z" fill="#76DDE6"/>
<path d="M228.645 330.982C229.844 331.581 230.787 332.232 231.405 333.435C232.046 336.112 231.148 338.044 230.101 340.506C229.945 340.886 229.789 341.266 229.633 341.646C229.336 342.371 229.037 343.094 228.736 343.816C228.27 344.946 227.837 346.084 227.419 347.232C227.904 346.651 228.39 346.069 228.875 345.488C229.011 345.325 229.147 345.163 229.287 344.995C229.421 344.834 229.556 344.673 229.694 344.507C229.896 344.267 229.896 344.267 230.101 344.022C230.453 343.592 230.788 343.148 231.122 342.703C231.938 341.756 232.504 341.456 233.741 341.314C236.678 341.302 236.678 341.302 237.843 342.326C239.088 343.744 239.511 344.605 239.478 346.469C239.16 348.855 237.305 350.711 235.814 352.484C234.591 353.958 233.46 355.501 232.324 357.043C232.176 357.245 232.028 357.446 231.875 357.654C230.898 358.982 229.924 360.312 228.952 361.642C229.274 361.513 229.596 361.384 229.928 361.251C235.831 358.926 235.831 358.926 238.54 360.102C239.676 360.775 240.195 361.647 240.603 362.869C240.676 363.565 240.676 363.565 240.699 364.344C240.71 364.599 240.722 364.854 240.733 365.117C240.404 367.182 238.728 368.44 237.211 369.71C237.006 369.884 236.802 370.058 236.591 370.238C235.159 371.452 233.71 372.645 232.253 373.828C231.26 374.638 230.277 375.458 229.297 376.283C229.132 376.42 228.968 376.558 228.799 376.699C226.018 378.975 226.018 378.975 224.659 382.185C224.573 383.974 224.76 385.193 225.438 386.88C225.561 387.192 225.561 387.192 225.686 387.511C225.863 387.957 226.041 388.403 226.22 388.849C226.6 389.797 226.967 390.75 227.334 391.703C227.806 392.927 228.284 394.148 228.76 395.369C228.959 395.878 229.157 396.388 229.355 396.897C229.834 398.125 230.312 399.353 230.791 400.581C231.001 400.452 231.211 400.322 231.427 400.188C231.703 400.02 231.978 399.852 232.262 399.678C232.535 399.511 232.808 399.343 233.089 399.17C233.857 398.742 233.857 398.742 234.854 398.473C237.24 399.233 238.717 403.075 239.932 405.104C240.16 405.483 240.389 405.862 240.618 406.241C241.092 407.027 241.566 407.814 242.039 408.601C243.05 410.28 244.068 411.955 245.086 413.63C245.521 414.347 245.957 415.064 246.393 415.781C246.711 416.306 247.029 416.83 247.348 417.355C247.746 418.01 248.144 418.666 248.542 419.322C248.912 419.93 249.281 420.538 249.65 421.146C250.002 421.724 250.353 422.303 250.703 422.882C251.588 424.339 252.486 425.785 253.406 427.22C253.592 427.513 253.778 427.805 253.97 428.107C254.323 428.661 254.68 429.214 255.041 429.763C256.536 432.117 256.536 432.117 256.24 433.695C255.626 434.308 255.626 434.308 254.599 434.466C253.48 434.308 253.48 434.308 252.783 433.537C252.561 433.16 252.346 432.777 252.139 432.392C251.876 431.94 251.614 431.489 251.351 431.037C251.205 430.781 251.059 430.524 250.909 430.259C250.041 428.755 249.128 427.279 248.223 425.798C247.654 424.866 247.088 423.931 246.523 422.997C245.178 420.776 243.828 418.558 242.477 416.341C241.572 414.854 240.667 413.367 239.764 411.879C239.574 411.566 239.384 411.253 239.189 410.931C238.83 410.34 238.471 409.749 238.113 409.158C237.061 407.426 235.98 405.717 234.869 404.023C234.471 403.341 234.471 403.341 234.471 402.728C229.929 405.52 225.39 408.316 220.858 411.125C220.011 411.65 219.164 412.174 218.316 412.698C218.028 412.877 217.739 413.055 217.442 413.239C216.894 413.578 216.346 413.917 215.798 414.256C215.549 414.41 215.3 414.565 215.043 414.724C214.805 414.871 214.567 415.018 214.321 415.169C213.85 415.463 213.38 415.76 212.913 416.06C212.694 416.201 212.474 416.342 212.248 416.487C212.054 416.612 211.86 416.738 211.661 416.867C211.169 417.138 211.169 417.138 210.555 417.138C211.977 419.72 213.433 422.266 215.015 424.754C216.828 427.628 218.537 430.567 220.264 433.494C220.389 433.707 220.515 433.92 220.644 434.139C220.884 434.544 221.123 434.95 221.362 435.356C221.867 436.264 221.867 436.264 222.513 437.068C222.57 438.121 222.57 438.121 222.513 439.214C221.9 439.827 221.9 439.827 221.006 439.945C220.06 439.827 220.06 439.827 219.497 439.302C219.341 439.055 219.185 438.807 219.024 438.553C218.844 438.271 218.664 437.99 218.478 437.7C218.199 437.235 218.199 437.235 217.914 436.761C217.627 436.287 217.627 436.287 217.334 435.803C216.818 434.933 216.309 434.061 215.804 433.184C215.242 432.208 214.675 431.235 214.108 430.262C213.992 430.064 213.876 429.866 213.757 429.661C212.339 427.239 210.864 424.854 209.383 422.47C206.263 417.442 206.263 417.442 206.569 415.912C207.615 414.834 208.952 414.195 210.249 413.459C208.669 410.206 206.988 407.009 205.286 403.82C205.179 403.62 205.073 403.421 204.963 403.215C203.78 400.998 202.589 398.786 201.357 396.595C201.186 396.931 201.014 397.266 200.837 397.611C198.437 402.258 195.823 406.776 193.111 411.248C192.981 411.463 192.851 411.678 192.717 411.899C192.48 412.288 192.242 412.677 192.002 413.064C191.416 413.962 191.416 413.962 191.239 414.992C191.86 415.44 192.504 415.839 193.155 416.241C193.692 416.832 193.692 416.832 193.888 417.806C193.615 419.438 192.823 420.321 191.776 421.565C191.377 422.057 190.978 422.55 190.58 423.043C190.38 423.288 190.18 423.533 189.973 423.786C189.154 424.801 188.374 425.844 187.598 426.892C186.167 428.812 184.72 430.719 183.267 432.622C181.809 434.532 180.356 436.446 178.917 438.371C177.603 440.127 176.281 441.877 174.951 443.621C174.78 443.846 174.609 444.07 174.433 444.302C174.195 444.614 174.195 444.614 173.952 444.932C173.811 445.115 173.671 445.299 173.526 445.489C172.674 446.552 172.674 446.552 171.705 446.693C170.429 446.54 169.667 445.998 168.665 445.25C168.23 444.939 167.794 444.628 167.359 444.317C167.113 444.141 166.868 443.965 166.616 443.784C165.167 442.758 163.693 441.768 162.222 440.774C161.295 440.148 160.369 439.52 159.443 438.892C159.258 438.766 159.072 438.64 158.881 438.511C157.602 437.643 156.323 436.774 155.045 435.905C154.786 435.728 154.786 435.728 154.521 435.548C153.705 434.993 152.889 434.437 152.073 433.881C151.78 433.682 151.487 433.482 151.185 433.277C150.909 433.087 150.632 432.896 150.347 432.7C149.816 432.345 149.274 432.006 148.723 431.682C147.57 430.994 146.908 430.585 146.316 429.357C146.57 427.465 147.621 426.155 148.697 424.612C148.936 424.26 149.175 423.907 149.412 423.554C149.913 422.811 150.417 422.07 150.923 421.33C152.027 419.709 153.096 418.064 154.166 416.42C154.769 415.497 155.374 414.575 155.978 413.653C156.228 413.272 156.478 412.891 156.728 412.509C156.989 412.11 157.251 411.712 157.512 411.313C157.652 411.1 157.791 410.888 157.934 410.669C158.808 409.337 159.682 408.004 160.556 406.671C160.835 406.245 161.115 405.82 161.394 405.394C161.527 405.191 161.659 404.989 161.796 404.78C161.925 404.583 162.055 404.386 162.188 404.183C162.556 403.623 162.925 403.063 163.294 402.504C163.703 401.88 164.108 401.253 164.506 400.621C164.745 400.246 164.745 400.246 164.988 399.864C165.12 399.653 165.251 399.443 165.386 399.226C165.791 398.742 165.791 398.742 166.883 398.339C168.143 398.454 168.565 398.807 169.47 399.662C169.774 399.763 170.077 399.864 170.39 399.968C170.412 399.65 170.412 399.65 170.435 399.325C170.572 397.543 170.757 395.779 171.003 394.008C172.424 383.554 171.744 373.642 165.331 364.9C164.476 363.8 163.584 362.75 162.648 361.719C160.093 358.888 160.093 358.888 159.812 356.852C160.03 355.38 160.425 354.409 161.517 353.383C162.917 352.877 164.053 353.01 165.484 353.364C166.091 353.657 166.688 353.971 167.274 354.304C167.572 354.472 167.87 354.64 168.177 354.813C168.401 354.942 168.626 355.071 168.857 355.204C168.727 354.975 168.597 354.746 168.463 354.511C167.979 353.654 167.499 352.794 167.023 351.932C166.817 351.562 166.608 351.192 166.398 350.823C164.214 346.983 164.214 346.983 164.564 344.779C164.924 343.583 165.588 342.783 166.596 342.039C168.362 341.483 169.957 341.394 171.674 342.135C172.487 342.893 173.036 343.611 173.663 344.523C173.855 344.8 174.046 345.077 174.243 345.363C174.461 345.681 174.461 345.681 174.682 346.005C174.608 345.797 174.534 345.589 174.457 345.374C174.119 344.417 173.787 343.458 173.456 342.499C173.28 342.007 173.28 342.007 173.101 341.505C172.318 339.219 171.748 337.231 172.594 334.872C173.517 333.503 174.626 332.662 176.215 332.208C177.892 332.053 179.035 332.31 180.508 333.128C181.724 334.405 182.406 335.628 182.995 337.293C183.075 337.509 183.154 337.724 183.236 337.946C183.487 338.625 183.732 339.307 183.976 339.988C184.146 340.453 184.317 340.917 184.487 341.381C184.902 342.512 185.312 343.645 185.72 344.779C185.715 344.44 185.71 344.101 185.704 343.752C185.7 343.304 185.696 342.856 185.691 342.408C185.688 342.185 185.684 341.961 185.68 341.732C185.668 339.962 185.755 339.038 186.947 337.727C188.249 336.774 189.611 336.272 191.233 336.362C192.685 336.687 193.882 337.477 194.778 338.656C195.381 339.885 195.456 341.011 195.56 342.364C195.584 342.635 195.608 342.906 195.632 343.185C195.705 344.023 195.772 344.861 195.838 345.699C195.879 346.189 195.92 346.679 195.961 347.169C196.081 348.622 196.191 350.076 196.301 351.529C196.341 352.057 196.381 352.584 196.422 353.111C196.526 354.476 196.63 355.841 196.733 357.206C196.84 358.608 196.947 360.01 197.054 361.412C197.263 364.146 197.471 366.88 197.678 369.614C198.517 368.582 199.24 367.557 199.92 366.414C200.947 364.773 202.043 363.446 203.81 362.562C205.891 362.317 207.401 362.452 209.128 363.67C210.102 364.486 210.667 364.961 210.816 366.268C210.943 367.879 210.573 369.199 210.071 370.717C209.985 370.993 209.898 371.269 209.809 371.554C209.526 372.448 209.236 373.34 208.946 374.232C208.749 374.85 208.553 375.467 208.358 376.085C207.449 378.939 206.509 381.781 205.521 384.608C205.442 384.836 205.362 385.065 205.28 385.3C204.911 386.356 204.536 387.409 204.152 388.46C203.955 389.01 203.955 389.01 203.754 389.572C203.638 389.887 203.523 390.203 203.403 390.527C203.019 392.119 203.582 393.182 204.343 394.573C204.604 395.053 204.604 395.053 204.87 395.543C205.058 395.884 205.245 396.225 205.439 396.576C205.732 397.113 206.024 397.651 206.317 398.188C206.616 398.735 206.915 399.281 207.215 399.827C207.754 400.811 208.289 401.797 208.823 402.784C210.378 405.654 211.95 408.508 213.621 411.313C213.863 411.163 213.863 411.163 214.11 411.01C214.602 410.706 215.093 410.402 215.585 410.097C216.159 409.742 216.733 409.387 217.307 409.031C218.834 408.086 220.361 407.141 221.889 406.196C222.18 406.016 222.471 405.836 222.771 405.651C223.332 405.304 223.893 404.957 224.455 404.61C224.837 404.374 224.837 404.374 225.227 404.132C225.563 403.925 225.563 403.925 225.906 403.713C226.415 403.393 226.918 403.061 227.419 402.728C227.238 401.719 226.995 400.809 226.613 399.859C226.461 399.478 226.461 399.478 226.306 399.089C226.197 398.819 226.087 398.548 225.974 398.269C225.805 397.844 225.805 397.844 225.632 397.41C225.149 396.203 224.664 394.997 224.179 393.79C223.825 392.907 223.472 392.024 223.119 391.14C222.957 390.738 222.957 390.738 222.791 390.329C221.322 386.649 220.275 383.441 221.581 379.542C222.926 376.462 225.783 374.258 228.331 372.206C229.317 371.406 230.285 370.59 231.251 369.767C232.815 368.438 234.396 367.131 235.989 365.837C236.577 365.371 236.577 365.371 236.923 365.015C236.936 364.504 236.937 363.993 236.923 363.482C234.972 362.78 232.813 364.05 231.03 364.839C230.038 365.309 229.053 365.791 228.07 366.28C227.407 366.607 226.744 366.934 226.08 367.259C225.792 367.403 225.504 367.546 225.207 367.693C222.79 368.791 222.79 368.791 221.631 368.388C220.98 367.774 220.98 367.774 220.83 366.966C221.045 365.49 221.794 364.673 222.724 363.539C223.094 363.073 223.463 362.606 223.833 362.139C224.022 361.903 224.212 361.667 224.407 361.423C225.256 360.359 226.078 359.276 226.901 358.193C227.229 357.764 227.558 357.335 227.886 356.906C229.105 355.311 230.322 353.715 231.539 352.118C231.742 351.852 231.945 351.586 232.154 351.311C232.54 350.805 232.926 350.297 233.31 349.789C233.672 349.315 234.038 348.843 234.407 348.374C234.658 348.051 234.658 348.051 234.915 347.722C235.063 347.534 235.212 347.346 235.365 347.153C235.859 346.358 235.833 345.684 235.697 344.779C234.767 344.796 234.094 344.877 233.381 345.507C232.877 346.091 232.406 346.692 231.941 347.309C231.767 347.531 231.593 347.753 231.414 347.982C230.895 348.648 230.383 349.319 229.872 349.991C229.605 350.338 229.338 350.685 229.071 351.031C228.583 351.667 228.095 352.304 227.608 352.941C226.657 354.177 225.679 355.391 224.698 356.603C224.446 356.915 224.446 356.915 224.189 357.234C222.405 359.426 222.405 359.426 221.593 360.109C220.616 360.071 220.616 360.071 219.754 359.803C219.077 358.449 219.37 356.981 219.806 355.601C219.97 355.208 220.14 354.817 220.313 354.428C220.45 354.105 220.45 354.105 220.59 353.776C220.786 353.314 220.985 352.853 221.186 352.394C221.501 351.669 221.811 350.942 222.12 350.214C222.547 349.209 222.975 348.205 223.405 347.202C224.311 345.082 225.202 342.956 226.08 340.823C226.342 340.189 226.608 339.557 226.875 338.924C227.034 338.538 227.193 338.152 227.352 337.765C227.491 337.431 227.63 337.097 227.774 336.752C228.035 335.877 228.127 335.478 227.725 334.661C226.852 334.266 226.852 334.266 226.171 334.574C225.494 335.024 225.309 335.315 224.992 336.055C224.844 336.391 224.844 336.391 224.693 336.734C224.59 336.979 224.487 337.224 224.381 337.476C224.27 337.731 224.16 337.986 224.045 338.249C223.684 339.083 223.329 339.919 222.973 340.755C222.726 341.327 222.479 341.899 222.231 342.471C221.203 344.849 220.188 347.232 219.179 349.618C218.921 350.228 218.662 350.837 218.404 351.447C218.097 352.172 217.792 352.899 217.49 353.627C217.355 353.948 217.22 354.268 217.082 354.598C216.967 354.872 216.853 355.147 216.735 355.43C216.376 356.132 216.093 356.573 215.461 357.043C214.35 356.986 214.35 356.986 213.315 356.737C211.862 353.831 213.823 347.517 214.254 344.415C214.384 343.474 214.513 342.534 214.641 341.593C214.721 341.012 214.801 340.432 214.882 339.852C214.918 339.59 214.953 339.329 214.99 339.06C215.022 338.831 215.054 338.603 215.087 338.367C215.176 337.631 215.176 337.631 215.154 336.501C214.851 336.399 214.547 336.298 214.235 336.194C214.032 336.295 213.83 336.396 213.621 336.501C213.346 337.314 213.346 337.314 213.121 338.322C213.027 338.712 212.932 339.102 212.835 339.504C212.761 339.818 212.761 339.818 212.686 340.139C212.531 340.794 212.372 341.449 212.213 342.103C211.76 343.963 211.314 345.825 210.87 347.687C210.599 348.826 210.324 349.963 210.045 351.1C209.94 351.533 209.837 351.967 209.735 352.401C209.593 353.01 209.444 353.616 209.296 354.223C209.213 354.568 209.13 354.914 209.045 355.27C208.675 356.229 208.382 356.554 207.489 357.043C206.704 357.082 206.704 357.082 205.956 356.737C205.233 355.28 204.823 353.872 204.477 352.278C204.431 352.066 204.384 351.854 204.337 351.636C204.24 351.192 204.145 350.748 204.05 350.304C203.905 349.625 203.757 348.947 203.608 348.27C202.89 344.954 202.89 344.954 202.89 343.553C202.587 343.553 202.283 343.553 201.97 343.553C201.98 343.789 201.989 344.026 201.999 344.27C202.165 348.597 202.312 352.924 202.354 357.254C202.363 357.758 202.363 357.758 202.373 358.273C202.375 358.738 202.375 358.738 202.378 359.212C202.38 359.483 202.383 359.753 202.386 360.032C202.277 360.723 202.277 360.723 201.88 361.28C201.357 361.642 201.357 361.642 200.246 361.585C199.904 361.503 199.563 361.42 199.211 361.336C198.766 360.446 198.836 359.645 198.807 358.652C198.798 358.337 198.798 358.337 198.788 358.016C198.767 357.327 198.749 356.639 198.732 355.951C198.726 355.717 198.72 355.484 198.713 355.243C198.677 353.818 198.644 352.393 198.613 350.968C198.599 350.34 198.582 349.712 198.565 349.084C198.537 348.032 198.518 346.981 198.502 345.929C198.493 345.619 198.484 345.31 198.474 344.992C198.46 343.235 198.589 342.152 199.824 340.793C201.05 339.955 202.376 339.976 203.81 340.18C205.075 340.824 205.727 341.335 206.263 342.633C206.396 343.191 206.51 343.754 206.608 344.319C206.659 344.607 206.711 344.895 206.763 345.191C206.876 346.005 206.876 346.005 206.876 347.232C207.078 347.232 207.281 347.232 207.489 347.232C207.529 346.698 207.529 346.698 207.57 346.154C207.793 344.158 208.299 342.228 208.8 340.288C208.965 339.641 209.125 338.994 209.284 338.346C209.39 337.931 209.496 337.515 209.603 337.099C209.698 336.727 209.792 336.354 209.889 335.97C210.342 334.707 210.941 333.794 212.062 333.039C213.752 332.463 215.548 332.577 217.147 333.32C218.073 334.199 218.465 334.652 218.834 335.887C218.828 337.229 218.687 338.542 218.527 339.873C218.471 340.376 218.415 340.879 218.359 341.381C218.333 341.619 218.307 341.856 218.279 342.101C218.26 342.277 218.241 342.452 218.22 342.633C218.335 342.362 218.449 342.092 218.567 341.813C218.994 340.803 219.425 339.795 219.856 338.787C220.042 338.352 220.227 337.916 220.411 337.48C220.677 336.851 220.945 336.224 221.215 335.596C221.296 335.403 221.376 335.21 221.46 335.011C222.118 333.49 222.856 332.309 224.218 331.346C225.713 330.83 227.08 330.77 228.645 330.982ZM175.602 336.501C175.775 338.519 176.29 340.276 176.958 342.184C177.063 342.489 177.168 342.795 177.276 343.109C177.61 344.082 177.947 345.053 178.285 346.025C178.507 346.669 178.729 347.313 178.951 347.957C179.059 348.271 179.167 348.585 179.279 348.909C179.493 349.532 179.708 350.155 179.922 350.778C180.381 352.111 180.842 353.444 181.315 354.772C181.456 355.178 181.598 355.583 181.739 355.988C181.859 356.324 181.978 356.66 182.101 357.005C182.377 358.078 182.413 359.006 182.348 360.109C182.041 360.416 182.041 360.416 181.177 360.527C180.201 360.416 180.201 360.416 179.565 359.799C179.379 359.518 179.193 359.236 179.001 358.945C178.793 358.636 178.585 358.327 178.371 358.009C178.063 357.531 178.063 357.531 177.748 357.043C177.558 356.758 177.368 356.472 177.171 356.178C176.603 355.321 176.044 354.458 175.487 353.594C175.087 352.978 174.686 352.362 174.286 351.746C173.593 350.677 172.902 349.606 172.214 348.534C171.945 348.119 171.675 347.704 171.406 347.289C171.287 347.102 171.169 346.916 171.048 346.723C170.427 345.774 169.943 345.164 168.857 344.779C168.553 344.981 168.25 345.184 167.937 345.392C168.123 346.785 168.692 347.899 169.352 349.118C169.52 349.435 169.52 349.435 169.692 349.758C169.932 350.21 170.174 350.661 170.416 351.112C170.794 351.816 171.17 352.521 171.546 353.227C172.659 355.315 173.782 357.396 174.936 359.463C175.106 359.768 175.276 360.073 175.451 360.387C175.76 360.939 176.071 361.489 176.386 362.037C177.307 363.679 177.748 364.955 177.748 366.855C176.924 366.95 176.924 366.95 175.909 366.855C174.791 365.841 173.81 364.702 172.804 363.578C170.178 360.697 167.499 358.15 163.951 356.43C163.749 356.43 163.546 356.43 163.338 356.43C163.75 357.648 164.262 358.373 165.158 359.285C172.24 366.959 175.232 376.124 174.989 386.477C174.935 387.712 174.853 388.944 174.759 390.176C174.733 390.515 174.708 390.853 174.681 391.202C174.37 394.971 173.783 398.694 173.149 402.421C176.761 405.047 180.398 407.632 184.061 410.184C185.331 411.069 186.599 411.958 187.866 412.846C188.691 412.103 189.193 411.301 189.742 410.34C189.926 410.02 190.11 409.699 190.3 409.369C190.496 409.024 190.692 408.679 190.894 408.323C191.1 407.962 191.306 407.601 191.512 407.239C191.828 406.685 192.143 406.131 192.458 405.576C193.116 404.419 193.787 403.271 194.467 402.128C199.708 393.247 207.489 377.119 207.489 366.548C206.524 365.976 205.848 365.822 204.73 365.935C202.594 367.496 201.331 370.381 200.035 372.642C199.707 373.21 199.377 373.778 199.047 374.345C198.751 374.854 198.457 375.365 198.164 375.875C197.678 376.666 197.678 376.666 197.065 377.279C196.298 377.356 196.298 377.356 195.532 377.279C194.788 376.536 194.82 376.288 194.746 375.264C194.712 374.821 194.712 374.821 194.677 374.369C194.655 374.044 194.633 373.719 194.61 373.384C194.585 373.043 194.559 372.701 194.533 372.349C194.477 371.606 194.424 370.862 194.371 370.118C194.287 368.942 194.199 367.765 194.111 366.589C193.892 363.667 193.677 360.744 193.466 357.821C193.287 355.354 193.105 352.887 192.918 350.42C192.86 349.64 192.804 348.86 192.749 348.08C192.672 346.989 192.59 345.898 192.507 344.807C192.475 344.323 192.475 344.323 192.442 343.828C192.275 341.709 192.275 341.709 191.239 339.873C190.328 339.978 190.328 339.978 189.399 340.18C188.498 341.982 189.135 344.831 189.294 346.801C189.325 347.202 189.325 347.202 189.356 347.611C189.42 348.456 189.486 349.3 189.553 350.145C189.64 351.259 189.726 352.374 189.811 353.489C189.832 353.738 189.852 353.988 189.872 354.245C190.006 356 190.029 357.736 190.013 359.496C189.102 359.496 188.191 359.496 187.253 359.496C187.075 358.876 187.075 358.876 186.893 358.243C186.255 356.12 185.499 354.041 184.744 351.959C184.669 351.751 184.593 351.542 184.516 351.328C184.117 350.228 183.718 349.129 183.318 348.03C182.907 346.9 182.5 345.768 182.093 344.636C181.777 343.761 181.459 342.886 181.14 342.011C180.989 341.594 180.838 341.177 180.689 340.759C180.48 340.176 180.267 339.594 180.053 339.012C179.934 338.682 179.814 338.351 179.69 338.011C179.249 337.043 178.804 336.337 178.055 335.581C176.746 335.581 176.541 335.696 175.602 336.501Z" stroke="#76DDE6" stroke-width="0.66065" mask="url(#path-4-outside-1_5184_571)"/>
</g>
<path id="Vector_2" d="M150.539 371.485C152.494 371.019 154.529 371.073 156.324 372.029L156.681 372.233L156.694 372.24L156.704 372.25C157.607 373.055 158.288 373.839 158.766 374.732C159.245 375.626 159.516 376.62 159.614 377.84L159.615 377.85L159.614 377.86C159.553 379.565 159.186 380.989 158.003 382.292L157.998 382.298L157.992 382.303C157.073 383.14 156.247 383.731 155.331 384.103C154.414 384.475 153.417 384.622 152.162 384.59H152.154L152.147 384.589C150.289 384.365 148.997 383.517 147.772 382.161L147.764 382.152C147.051 381.234 146.616 380.355 146.397 379.413C146.177 378.474 146.175 377.481 146.313 376.339L146.315 376.326L146.319 376.313C146.985 374.051 148.53 372.64 150.494 371.502L150.516 371.49L150.539 371.485ZM153.786 374.988C153.1 374.929 152.571 374.941 152.082 375.068C151.592 375.195 151.129 375.438 150.582 375.861C149.922 376.782 149.894 377.611 150.011 378.77C150.387 379.594 150.689 380.077 151.402 380.598C152.275 380.87 152.866 380.922 153.777 380.798C154.643 380.254 155.365 379.657 155.821 378.76C155.94 377.876 155.975 377.282 155.524 376.548C154.983 375.889 154.518 375.36 153.786 374.988Z" fill="#76DDE6" stroke="#76DDE6" stroke-width="0.330325"/>
<path id="Vector_3" d="M253.496 367.532C253.943 367.57 254.208 367.59 254.431 367.691C254.6 367.767 254.742 367.887 254.928 368.068L255.132 368.271L255.175 368.314L255.179 368.375C255.347 370.717 254.916 372.883 254.448 375.144L254.449 375.145C254.347 375.667 254.347 375.667 254.243 376.199V376.201C253.985 377.476 253.851 378.134 253.694 378.557C253.529 379 253.332 379.195 252.985 379.542L252.941 379.586L252.88 379.59C251.031 379.717 249.424 379.44 247.654 378.991V378.99C247.422 378.935 247.19 378.88 246.952 378.822H246.951C246.111 378.617 245.682 378.512 245.375 378.413C245.133 378.336 244.967 378.259 244.739 378.148C244.729 378.3 244.72 378.454 244.71 378.61V378.611C244.526 381.144 244.433 382.429 244.268 383.227C244.185 383.631 244.082 383.918 243.936 384.183C243.793 384.443 243.61 384.678 243.381 384.974L243.367 384.99L243.349 385.004C243.108 385.187 242.951 385.31 242.721 385.354C242.61 385.375 242.487 385.377 242.338 385.369C242.188 385.361 242 385.343 241.758 385.319L241.746 385.318L241.734 385.316C241.45 385.246 241.165 385.176 240.872 385.105L240.797 385.086L240.762 385.018C239.806 383.085 240.313 381.298 240.672 379.357C240.728 379.025 240.784 378.693 240.841 378.352V378.351C241.091 376.929 241.218 376.203 241.363 375.709C241.512 375.202 241.682 374.934 241.998 374.432L242.027 374.384L242.08 374.364C242.996 374.022 243.921 374.026 244.829 374.167C245.731 374.307 246.641 374.586 247.505 374.8H247.504C247.817 374.874 248.13 374.949 248.453 375.026C249.16 375.194 249.866 375.365 250.572 375.539C250.584 375.385 250.597 375.23 250.609 375.071V375.07C250.747 373.413 250.926 371.804 251.308 370.171C251.384 369.839 251.46 369.507 251.538 369.164L251.54 369.151H251.541C251.715 368.584 251.869 368.188 252.16 367.933C252.455 367.674 252.863 367.583 253.468 367.532L253.482 367.531L253.496 367.532Z" fill="#76DDE6" stroke="#76DDE6" stroke-width="0.330325"/>
<path id="Vector_4" d="M212.708 309.835C213.166 309.901 213.432 309.936 213.65 310.039C213.871 310.144 214.037 310.317 214.316 310.601L214.342 310.626L214.355 310.66C214.921 312.218 214.322 313.351 213.798 314.77L213.469 315.704C213.145 316.617 212.814 317.526 212.482 318.435C212.13 319.4 211.786 320.368 211.441 321.337C211.061 322.403 210.677 323.467 210.292 324.531C210.1 325.061 209.909 325.593 209.719 326.124C209.448 326.878 209.172 327.629 208.896 328.38L208.897 328.381C208.815 328.609 208.734 328.837 208.65 329.073L208.65 329.074C208.444 329.628 208.288 330.046 208.051 330.407C207.81 330.775 207.491 331.079 206.97 331.426L206.921 331.458L206.862 331.452C206.02 331.368 205.574 331.324 205.287 331.242C204.975 331.153 204.838 331.014 204.615 330.792L204.571 330.747L204.567 330.685C204.482 329.18 204.644 328.018 205.158 326.606C205.285 326.252 205.412 325.899 205.543 325.534V325.532C205.682 325.157 205.821 324.781 205.964 324.394C206.107 324 206.25 323.606 206.393 323.212C206.691 322.389 206.992 321.567 207.295 320.745C207.683 319.693 208.066 318.639 208.447 317.584C208.742 316.772 209.037 315.959 209.334 315.148C209.545 314.571 209.755 313.993 209.965 313.415V313.414C210.158 312.891 210.158 312.891 210.356 312.357L210.698 311.423L210.701 311.414L210.865 311.054C211.026 310.721 211.185 310.471 211.404 310.285C211.7 310.035 212.085 309.921 212.66 309.835L212.685 309.831L212.708 309.835Z" fill="#76DDE6" stroke="#76DDE6" stroke-width="0.330325"/>
<path id="Vector_5" d="M184.181 314.456C184.643 314.51 184.909 314.54 185.124 314.631C185.29 314.701 185.422 314.806 185.593 314.962L185.779 315.134L185.794 315.149L185.806 315.167C185.96 315.413 186.114 315.66 186.273 315.914L186.817 316.763L186.819 316.766C187.008 317.077 187.198 317.388 187.394 317.709C187.603 318.037 187.813 318.365 188.029 318.703V318.704C188.588 319.583 189.133 320.47 189.67 321.362C189.893 321.729 190.118 322.094 190.345 322.458C190.68 322.994 191.008 323.535 191.333 324.077L191.92 325.035L191.927 325.047L191.932 325.06C192.172 325.66 192.264 326.154 192.258 326.657C192.252 327.155 192.15 327.655 192.015 328.258L191.989 328.37L191.877 328.385L189.731 328.692L189.637 328.706L189.577 328.631C188.014 326.644 186.681 324.544 185.377 322.393V322.392C185.022 321.808 184.664 321.226 184.305 320.644L184.304 320.643C184.076 320.268 183.847 319.893 183.619 319.518V319.517C183.415 319.182 183.209 318.846 182.998 318.501L182.993 318.491C182.537 317.621 182.276 316.963 182.185 315.973L182.18 315.929L182.198 315.889C182.429 315.387 182.62 315.05 182.914 314.831C183.209 314.611 183.586 314.525 184.141 314.456L184.161 314.454L184.181 314.456Z" fill="#76DDE6" stroke="#76DDE6" stroke-width="0.330325"/>
<path id="Vector_6" d="M149.728 336.227C151.185 335.822 152.461 335.811 153.844 336.426L153.863 336.435L153.88 336.448C154.422 336.882 154.813 337.251 155.113 337.69C155.338 338.02 155.507 338.384 155.654 338.833L155.795 339.313L155.8 339.331L155.801 339.35C155.828 340.149 155.741 340.846 155.506 341.493C155.271 342.14 154.889 342.73 154.338 343.32L154.319 343.342L154.291 343.355C153.286 343.858 152.496 343.986 151.387 344.023L151.358 344.025L151.329 344.016C150.116 343.611 149.004 343.211 148.184 342.118L148.167 342.097L148.159 342.071C147.77 340.904 147.679 339.835 147.846 338.624L147.849 338.596L147.863 338.57C148.361 337.608 148.802 336.938 149.67 336.256L149.696 336.235L149.728 336.227Z" fill="#76DDE6" stroke="#76DDE6" stroke-width="0.330325"/>
<path id="Vector_7" d="M196.105 307.555C196.878 307.117 197.499 307.103 198.275 307.174L198.618 307.208L198.676 307.215L198.717 307.256C199.168 307.707 199.37 308.106 199.462 308.554C199.551 308.983 199.538 309.468 199.573 310.05L199.611 310.673V310.674C199.651 311.334 199.688 311.994 199.724 312.653H199.723C199.749 313.092 199.777 313.531 199.804 313.97V313.971C199.958 316.545 200.036 317.847 200.001 318.618C199.984 319.007 199.937 319.272 199.853 319.503C199.769 319.732 199.65 319.92 199.506 320.147L199.498 320.16L199.489 320.17C199.337 320.335 199.185 320.5 199.029 320.669L198.972 320.73L198.889 320.721C198.167 320.642 197.447 320.539 196.732 320.413L196.651 320.399L196.613 320.325C196.162 319.424 196.187 318.597 196.125 317.652L196.044 316.429L196.004 315.789L195.879 313.878C195.706 311.22 195.618 309.878 195.636 309.097C195.645 308.704 195.681 308.442 195.751 308.219C195.821 307.997 195.922 307.824 196.043 307.616L196.066 307.577L196.105 307.555Z" fill="#76DDE6" stroke="#76DDE6" stroke-width="0.330325"/>
<path id="Vector_8" d="M241.745 327.443C242.341 327.272 242.982 327.27 243.699 327.389L244.012 327.447L244.041 327.453L244.067 327.47C244.881 327.989 245.417 328.37 245.875 329.202L245.966 329.375L245.979 329.401L245.982 329.432C246.052 330.132 246.11 330.739 246.036 331.318C245.961 331.904 245.751 332.455 245.298 333.055L245.288 333.068L245.276 333.078C244.779 333.521 244.411 333.819 243.993 333.996C243.571 334.175 243.111 334.226 242.441 334.213L242.422 334.212L242.402 334.207C241.692 334.015 241.172 333.843 240.73 333.553C240.285 333.26 239.931 332.855 239.527 332.22L239.512 332.197L239.506 332.171C239.332 331.476 239.264 330.952 239.318 330.433C239.373 329.915 239.548 329.414 239.842 328.767L239.851 328.745L239.868 328.727C240.455 328.054 241.061 327.64 241.745 327.443Z" fill="#76DDE6" stroke="#76DDE6" stroke-width="0.330325"/>
</g>
</g>
</svg>
