<svg width="23" height="37" viewBox="0 0 23 37" fill="none" xmlns="http://www.w3.org/2000/svg">
<path d="M0 2.91602C3.77623e-05 1.95614 0.166025 1.17011 0.607422 0.68457L0.621094 0.670898C1.09516 0.196927 1.7887 0 2.61523 0C3.77101 3.44106e-05 4.70467 0.351439 5.33789 1.11328C5.95898 1.86075 6.23531 2.93732 6.23535 4.27246V32.9561H16.8301V29.8945C16.8301 28.6558 17.0837 27.6733 17.7119 27.0869C18.3114 26.4935 19.1444 26.2236 20.1484 26.2236C20.9481 26.2237 21.6164 26.4597 22.0752 26.9932C22.5239 27.5149 22.7129 28.2547 22.7129 29.1406V34.416L22.709 34.5508C22.6909 34.8613 22.609 35.1493 22.4482 35.4004C22.2639 35.6882 21.9949 35.8995 21.667 36.043L21.666 36.041C21.0846 36.3097 20.2812 36.4277 19.2939 36.4277H2.71582C1.87419 36.4277 1.17067 36.1981 0.68457 35.6699C0.204368 35.148 3.06072e-05 34.4033 0 33.5117V2.91602ZM0.404297 33.5117L0.414062 33.8154C0.49825 35.1892 1.17176 35.922 2.43555 36.0137L2.71582 36.0234H19.2939C20.2652 36.0234 21.0025 35.9063 21.5049 35.6719C21.9738 35.4667 22.2374 35.1202 22.2959 34.6328L22.3086 34.416V29.1406C22.3086 27.5709 21.6757 26.7369 20.4102 26.6387L20.1484 26.6289C19.2107 26.6289 18.4907 26.8804 17.9883 27.3828C17.4859 27.8517 17.2344 28.6888 17.2344 29.8945V33.3604H5.83008V4.27246C5.82999 1.7742 4.82429 0.486126 2.8125 0.408203L2.61523 0.404297C1.84501 0.404297 1.27565 0.58871 0.907227 0.957031C0.572343 1.3254 0.404336 1.97841 0.404297 2.91602V33.5117Z" fill="currentColor"/>
</svg>
