<svg width="30" height="37" viewBox="0 0 30 37" fill="none" xmlns="http://www.w3.org/2000/svg">
<path d="M28.7891 1.76074C28.789 1.43849 28.674 1.15455 28.4434 0.90918L28.3369 0.806641C28.069 0.538702 27.7003 0.404297 27.2314 0.404297C26.7627 0.404386 26.2603 0.555104 25.7246 0.856445C25.2222 1.12439 24.7701 1.86168 24.3682 3.06738L15.2754 30.3467H14.9736L6.03125 3.06738C5.65439 1.93681 5.13032 1.21815 4.45898 0.912109L4.32324 0.856445C3.6199 0.555015 3.03334 0.404297 2.56445 0.404297C1.79442 0.404354 1.24211 0.588771 0.907227 0.957031L0.789062 1.09863C0.532764 1.43559 0.404297 1.8242 0.404297 2.26367L0.416992 2.54004C0.442131 2.81609 0.505113 3.09211 0.605469 3.36816L11.4072 34.2148C11.6416 34.8845 12.0431 35.3531 12.6123 35.6211C13.2151 35.889 13.8181 36.0234 14.4209 36.0234C15.1242 36.0234 15.7607 35.889 16.3301 35.6211C16.8994 35.3196 17.318 34.7839 17.5859 34.0137L28.5381 3.0166C28.7055 2.58127 28.7891 2.16259 28.7891 1.76074ZM29.1895 1.93359C29.1688 2.33334 29.0759 2.73919 28.9189 3.15039L28.9199 3.15137L17.9678 34.1455L17.9688 34.1465C17.6765 34.9867 17.2015 35.6184 16.5195 35.9795L16.5107 35.9834L16.5029 35.9873C15.8736 36.2835 15.1768 36.4277 14.4209 36.4277C13.8394 36.4277 13.2627 36.3145 12.6924 36.0928L12.4482 35.9912L12.4404 35.9883V35.9873C11.8448 35.707 11.4107 35.2428 11.1338 34.623L11.0244 34.3486L0.223633 3.50195V3.50098C0.0759797 3.09306 5.18116e-05 2.68015 0 2.26367C0 1.66161 0.204095 1.12823 0.607422 0.68457C1.05252 0.195038 1.74212 5.69458e-05 2.56445 0C3.11197 0 3.7567 0.173372 4.48242 0.484375H4.48145C5.32344 0.799582 5.9225 1.58931 6.33496 2.70898L6.41504 2.93945L6.41602 2.94141L15.126 29.5127L23.9844 2.93945C24.191 2.31963 24.4162 1.80233 24.6641 1.39844C24.9098 0.99806 25.1948 0.680032 25.5342 0.499023C26.1094 0.176748 26.6774 8.83154e-05 27.2314 0C27.772 0 28.2464 0.154818 28.6055 0.503906H28.6064C28.9849 0.840428 29.1943 1.26516 29.1943 1.76074L29.1895 1.93359Z" fill="currentColor"/>
</svg>
