<svg width="24" height="37" viewBox="0 0 24 37" fill="none" xmlns="http://www.w3.org/2000/svg">
<path d="M0 2.91602C4.99778e-05 2.02468 0.204667 1.2807 0.68457 0.758789C1.17064 0.230455 1.87413 4.09882e-05 2.71582 0V0.404297C1.17543 0.404378 0.405374 1.2417 0.405273 2.91602V33.5117L0.414062 33.8154C0.504253 35.2874 1.27152 36.0234 2.71582 36.0234H20.5508L20.9043 36.0176C21.5885 35.9956 22.1409 35.9077 22.5615 35.7539L22.7607 35.6719C23.2297 35.4374 23.4942 35.0233 23.5527 34.4297L23.5654 34.165V29.7939C23.5654 28.2239 22.932 27.39 21.666 27.292L21.4043 27.2822C20.4667 27.2823 19.7464 27.5329 19.2441 28.0352C18.7418 28.504 18.4912 29.3421 18.4912 30.5479V33.3604H5.83105V18.9922H16.3809C16.7033 18.9922 16.987 18.8898 17.2324 18.6846L17.335 18.5908C17.6364 18.2894 17.7871 17.9707 17.7871 17.6357C17.787 17.2675 17.6699 16.9495 17.4355 16.6816C17.2011 16.3803 16.8497 16.2295 16.3809 16.2295V15.8252C16.9346 15.8252 17.411 16.006 17.7393 16.415H17.7402C17.7429 16.4181 17.7454 16.4217 17.748 16.4248C17.7503 16.4277 17.7536 16.4307 17.7559 16.4336H17.7549C18.046 16.7744 18.1923 17.1811 18.1924 17.6357L18.1826 17.8096C18.1366 18.2085 17.9331 18.5658 17.6221 18.877C17.2806 19.2184 16.86 19.3975 16.3809 19.3975H6.23535V32.9561H18.0859V30.5479C18.0859 29.3157 18.3371 28.3365 18.958 27.749C19.5581 27.1489 20.395 26.877 21.4043 26.877C22.204 26.877 22.8732 27.113 23.332 27.6465C23.7805 28.1683 23.9697 28.9082 23.9697 29.7939V34.165L23.9658 34.3213C23.9281 35.0945 23.6054 35.7027 22.9424 36.0342L22.9326 36.0381C22.3505 36.3097 21.5431 36.4277 20.5508 36.4277H2.71582C1.87415 36.4277 1.17064 36.1982 0.68457 35.6699C0.204368 35.148 3.06046e-05 34.4033 0 33.5117V2.91602ZM17.333 3.47168H6.23535V15.8252H16.3809V16.2295H5.83105V3.06738H17.7373V5.88086L17.749 6.31641C17.804 7.29431 18.0517 8.00285 18.4912 8.44238C18.9308 8.8526 19.5367 9.08347 20.3096 9.13477L20.6514 9.14551C22.0013 9.14543 22.7183 8.41001 22.8027 6.93848L22.8115 6.63379V2.26367C22.8115 1.54123 22.5758 1.05384 22.1045 0.802734L22.0078 0.755859C21.5054 0.521413 20.7682 0.404297 19.7969 0.404297V0C20.7839 0 21.5875 0.117181 22.1689 0.385742H22.1699C22.1709 0.386153 22.1719 0.386306 22.1729 0.386719C22.1748 0.387623 22.1768 0.388741 22.1787 0.389648H22.1777C22.5226 0.542544 22.7911 0.786944 22.9678 1.11816C23.1421 1.44499 23.2158 1.83449 23.2158 2.26367V6.63379C23.2158 7.51979 23.0269 8.26042 22.5781 8.78223C22.1194 9.31548 21.4509 9.55074 20.6514 9.55078C19.7116 9.55078 18.9205 9.32977 18.3301 8.83984L18.2148 8.73828L18.2041 8.72852V8.72754C17.5882 8.11096 17.3331 7.12291 17.333 5.88086V3.47168ZM19.7969 0V0.404297H2.71582V0H19.7969Z" fill="currentColor"/>
</svg>
