<svg width="34" height="38" viewBox="0 0 34 38" fill="none" xmlns="http://www.w3.org/2000/svg">
<path d="M0 18.792C0 15.0644 0.610067 11.7913 1.84277 8.9834C3.07969 6.16598 4.9576 3.95849 7.47363 2.37305L7.47559 2.37109C10.034 0.780838 13.2281 4.00789e-05 17.0332 0C20.6735 0 23.7662 0.782251 26.2891 2.37109C28.8058 3.92258 30.6995 6.12882 31.9697 8.97559C33.2721 11.786 33.916 15.0785 33.916 18.8418C33.916 22.6043 33.2716 25.9115 31.9707 28.7539C30.7003 31.5694 28.8071 33.7765 26.292 35.3613C23.7681 36.9517 20.6576 37.7344 16.9834 37.7344C13.4464 37.7344 10.4325 37.0475 7.96191 35.6514L7.47559 35.3623L7.47363 35.3613C5.11352 33.8741 3.3154 31.825 2.08105 29.2256L1.8418 28.6992C0.609674 25.8585 4.58013e-05 22.5526 0 18.792ZM28.334 18.8418C28.334 14.3709 27.4061 10.9331 25.5996 8.48145L25.5986 8.47949C23.8195 6.03324 20.9952 4.77832 17.0332 4.77832C13.072 4.77838 10.21 6.03267 8.36328 8.48438C6.52513 10.9356 5.58203 14.3725 5.58203 18.8418L5.59277 19.668C5.70317 23.7398 6.64043 26.9391 8.36621 29.3018C10.1791 31.7508 13.0218 33.0059 16.9834 33.0059V33.4111L16.6064 33.4072C12.8698 33.3317 10.0752 32.1227 8.22266 29.7803L8.04102 29.543C6.13196 26.9306 5.17676 23.3633 5.17676 18.8418C5.17676 14.3203 6.13196 10.7866 8.04102 8.24121C9.98353 5.66256 12.9809 4.37311 17.0332 4.37305C21.0857 4.37305 24.0502 5.66241 25.9258 8.24121C27.8013 10.7866 28.7393 14.3203 28.7393 18.8418L28.7285 19.6787C28.6186 23.8056 27.6841 27.0939 25.9258 29.543L25.7471 29.7803C23.8632 32.2008 20.9419 33.4111 16.9834 33.4111V33.0059C20.979 33.0058 23.8181 31.7505 25.5967 29.3066C27.4064 26.7859 28.334 23.3119 28.334 18.8418ZM9.39746 16.6309V20.5498H24.5693V16.6309H9.39746ZM0.412109 19.4834C0.482784 22.9136 1.08256 25.932 2.21289 28.5381C3.41861 31.3179 5.24455 33.4779 7.68945 35.0186C10.013 36.4629 12.8812 37.2301 16.2939 37.3203L16.9834 37.3291C20.6004 37.3291 23.6313 36.5591 26.0762 35.0186C28.5211 33.4779 30.3633 31.3343 31.6025 28.5879C32.7957 25.9818 33.4294 22.9636 33.5039 19.5332L33.5117 18.8418C33.5117 15.1242 32.8752 11.8919 31.6025 9.14551C30.3633 6.36579 28.521 4.22195 26.0762 2.71484C23.6313 1.17435 20.6167 0.404297 17.0332 0.404297C13.2824 0.404337 10.1677 1.17441 7.68945 2.71484C5.24456 4.25546 3.41861 6.39921 2.21289 9.14551C1.00717 11.8919 0.404297 15.1078 0.404297 18.792L0.412109 19.4834ZM24.9736 20.9551H8.99219V16.2266H24.9736V20.9551Z" fill="currentColor"/>
</svg>
