<svg width="51" height="59" viewBox="0 0 51 59" fill="none" xmlns="http://www.w3.org/2000/svg">
<path d="M10.9992 47.1423C11.2733 47.1423 11.4103 47.2912 11.4103 47.5891V53.0317C11.4103 53.1985 11.3776 53.3147 11.312 53.3802C11.2524 53.4457 11.1541 53.4785 11.0171 53.4785C10.6358 53.4785 10.4451 53.2491 10.4451 52.7904V50.4489H7.5317V52.8976C7.5317 53.1121 7.48404 53.264 7.38871 53.3534C7.29934 53.4368 7.16231 53.4785 6.97761 53.4785C6.70355 53.4785 6.56652 53.3296 6.56652 53.0317V47.5891C6.56652 47.4223 6.59631 47.3061 6.65589 47.2406C6.72142 47.175 6.82271 47.1423 6.95974 47.1423C7.34105 47.1423 7.5317 47.3716 7.5317 47.8304V49.9574H10.4451V47.7231C10.4451 47.5087 10.4898 47.3597 10.5792 47.2763C10.6745 47.1869 10.8145 47.1423 10.9992 47.1423ZM16.372 52.3525C16.4316 52.2869 16.506 52.2542 16.5954 52.2542C16.6431 52.2542 16.6877 52.272 16.7295 52.3078C16.7771 52.3376 16.8009 52.3823 16.8009 52.4418C16.8009 52.5491 16.7622 52.6504 16.6848 52.7457C16.5179 52.9483 16.3035 53.121 16.0413 53.264C15.7792 53.407 15.4455 53.4785 15.0404 53.4785C14.3254 53.4785 13.7952 53.2849 13.4496 52.8976C13.104 52.5104 12.9313 51.992 12.9313 51.3426C12.9313 50.58 13.11 49.9991 13.4675 49.5999C13.825 49.1948 14.3433 48.9922 15.0225 48.9922C15.5528 48.9922 15.9847 49.1441 16.3184 49.448C16.652 49.7459 16.8188 50.1927 16.8188 50.7885C16.8188 50.9732 16.7622 51.0924 16.649 51.146C16.5418 51.1996 16.4286 51.2264 16.3094 51.2264H13.9054C13.8994 51.2622 13.8965 51.2979 13.8965 51.3337C13.8965 51.3634 13.8965 51.3932 13.8965 51.423C13.8965 51.9116 13.9918 52.3108 14.1824 52.6206C14.379 52.9304 14.6978 53.0853 15.1387 53.0853C15.383 53.0853 15.5825 53.0436 15.7375 52.9602C15.8924 52.8708 16.0175 52.7695 16.1128 52.6563C16.2141 52.5372 16.3005 52.4359 16.372 52.3525ZM14.9689 49.3497C14.6948 49.3497 14.4625 49.4658 14.2718 49.6982C14.0871 49.9306 13.9739 50.3149 13.9322 50.8511H15.6034C15.7047 50.8511 15.7792 50.8332 15.8268 50.7974C15.8804 50.7617 15.9073 50.6932 15.9073 50.5919C15.9073 50.3059 15.8596 50.0706 15.7643 49.8859C15.6749 49.7012 15.5587 49.5671 15.4157 49.4837C15.2727 49.3944 15.1238 49.3497 14.9689 49.3497ZM22.71 53.4785C22.0784 53.4785 21.578 53.2968 21.2086 52.9334C20.8452 52.564 20.6634 51.998 20.6634 51.2354C20.6634 50.7111 20.7498 50.2851 20.9226 49.9574C21.0954 49.6297 21.3337 49.3884 21.6376 49.2335C21.9474 49.0726 22.3048 48.9922 22.71 48.9922C23.3237 48.9922 23.8182 49.1709 24.1935 49.5284C24.5689 49.8859 24.7565 50.4549 24.7565 51.2354C24.7565 51.998 24.5748 52.564 24.2114 52.9334C23.848 53.2968 23.3475 53.4785 22.71 53.4785ZM22.71 53.121C22.9245 53.121 23.1121 53.0704 23.273 52.9691C23.4339 52.8678 23.559 52.6802 23.6484 52.4061C23.7437 52.132 23.7914 51.7418 23.7914 51.2354C23.7914 50.7289 23.7437 50.3417 23.6484 50.0736C23.553 49.7995 23.422 49.6118 23.2551 49.5105C23.0943 49.4033 22.9126 49.3497 22.71 49.3497C22.5134 49.3497 22.3317 49.4033 22.1648 49.5105C22.004 49.6118 21.8729 49.7995 21.7716 50.0736C21.6763 50.3417 21.6286 50.7289 21.6286 51.2354C21.6286 51.7358 21.6733 52.1231 21.7627 52.3972C21.858 52.6712 21.9861 52.8619 22.147 52.9691C22.3138 53.0704 22.5015 53.121 22.71 53.121ZM26.7192 50.7259C26.7192 51 26.7758 51.2056 26.889 51.3426C27.0082 51.4796 27.2078 51.5481 27.4878 51.5481C27.6963 51.5481 27.884 51.5273 28.0508 51.4856C28.2177 51.4439 28.3606 51.3932 28.4798 51.3337V49.6356C28.4798 49.3675 28.5245 49.1948 28.6139 49.1173C28.7092 49.0339 28.8552 48.9922 29.0518 48.9922C29.1948 48.9922 29.2901 49.0279 29.3377 49.0994C29.3854 49.1709 29.4092 49.2752 29.4092 49.4122V53.0585C29.4092 53.1896 29.3854 53.2938 29.3377 53.3713C29.2901 53.4428 29.1948 53.4785 29.0518 53.4785C28.8552 53.4785 28.7092 53.4249 28.6139 53.3177C28.5245 53.2045 28.4798 53.0138 28.4798 52.7457V51.7179C28.3309 51.7954 28.1313 51.8609 27.881 51.9146C27.6308 51.9682 27.3925 51.995 27.1661 51.995C26.6835 51.995 26.3379 51.8967 26.1294 51.7001C25.9268 51.4975 25.8255 51.1966 25.8255 50.7974V49.4122C25.8255 49.2752 25.8494 49.1709 25.897 49.0994C25.9447 49.0279 26.04 48.9922 26.183 48.9922C26.3796 48.9922 26.5167 49.0488 26.5941 49.162C26.6775 49.2692 26.7192 49.4569 26.7192 49.725V50.7259ZM34.1927 52.3525C34.2523 52.2869 34.3268 52.2542 34.4161 52.2542C34.4638 52.2542 34.5085 52.272 34.5502 52.3078C34.5979 52.3376 34.6217 52.3823 34.6217 52.4418C34.6217 52.5491 34.583 52.6504 34.5055 52.7457C34.3387 52.9483 34.1242 53.121 33.8621 53.264C33.5999 53.407 33.2663 53.4785 32.8611 53.4785C32.1462 53.4785 31.6159 53.2849 31.2704 52.8976C30.9248 52.5104 30.752 51.992 30.752 51.3426C30.752 50.58 30.9307 49.9991 31.2882 49.5999C31.6457 49.1948 32.164 48.9922 32.8432 48.9922C33.3735 48.9922 33.8055 49.1441 34.1391 49.448C34.4727 49.7459 34.6396 50.1927 34.6396 50.7885C34.6396 50.9732 34.583 51.0924 34.4698 51.146C34.3625 51.1996 34.2493 51.2264 34.1302 51.2264H31.7261C31.7202 51.2622 31.7172 51.2979 31.7172 51.3337C31.7172 51.3634 31.7172 51.3932 31.7172 51.423C31.7172 51.9116 31.8125 52.3108 32.0032 52.6206C32.1998 52.9304 32.5185 53.0853 32.9594 53.0853C33.2037 53.0853 33.4033 53.0436 33.5582 52.9602C33.7131 52.8708 33.8382 52.7695 33.9335 52.6563C34.0348 52.5372 34.1212 52.4359 34.1927 52.3525ZM32.7896 49.3497C32.5156 49.3497 32.2832 49.4658 32.0925 49.6982C31.9079 49.9306 31.7947 50.3149 31.7529 50.8511H33.4241C33.5254 50.8511 33.5999 50.8332 33.6476 50.7974C33.7012 50.7617 33.728 50.6932 33.728 50.5919C33.728 50.3059 33.6803 50.0706 33.585 49.8859C33.4956 49.7012 33.3795 49.5671 33.2365 49.4837C33.0935 49.3944 32.9445 49.3497 32.7896 49.3497ZM39.7103 53.0585C39.7103 53.1896 39.6864 53.2938 39.6388 53.3713C39.5911 53.4428 39.4958 53.4785 39.3528 53.4785C39.1562 53.4785 39.0102 53.4249 38.9149 53.3177C38.8255 53.2045 38.7808 53.0138 38.7808 52.7457V51.3962H36.8237V52.844C36.8237 53.1121 36.776 53.2849 36.6807 53.3623C36.5913 53.4398 36.4483 53.4785 36.2517 53.4785C36.1087 53.4785 36.0134 53.4428 35.9657 53.3713C35.9181 53.2938 35.8942 53.1896 35.8942 53.0585V49.4122C35.8942 49.2752 35.9181 49.1709 35.9657 49.0994C36.0134 49.0279 36.1087 48.9922 36.2517 48.9922C36.4483 48.9922 36.5913 49.0488 36.6807 49.162C36.776 49.2692 36.8237 49.4569 36.8237 49.725V50.9583H38.7808V49.6356C38.7808 49.3675 38.8255 49.1948 38.9149 49.1173C39.0102 49.0339 39.1562 48.9922 39.3528 48.9922C39.4958 48.9922 39.5911 49.0279 39.6388 49.0994C39.6864 49.1709 39.7103 49.2752 39.7103 49.4122V53.0585ZM42.2476 50.8958H43.0787C43.6924 50.8958 44.1243 51.003 44.3746 51.2175C44.6248 51.432 44.7499 51.7328 44.7499 52.1201C44.7499 52.561 44.5831 52.8976 44.2495 53.13C43.9158 53.3623 43.4422 53.4785 42.8285 53.4785H41.6756C41.5326 53.4785 41.4373 53.4428 41.3897 53.3713C41.342 53.2938 41.3182 53.1896 41.3182 53.0585V49.4122C41.3182 49.2752 41.342 49.1709 41.3897 49.0994C41.4373 49.0279 41.5326 48.9922 41.6756 48.9922C41.8722 48.9922 42.0152 49.0488 42.1046 49.162C42.1999 49.2692 42.2476 49.4569 42.2476 49.725V50.8958ZM42.7927 53.0764C43.1145 53.0764 43.3587 53.0078 43.5256 52.8708C43.6984 52.7338 43.7847 52.4955 43.7847 52.1559C43.7847 51.8043 43.6924 51.575 43.5077 51.4677C43.323 51.3545 43.0847 51.2979 42.7927 51.2979H42.2387V53.0764H42.7927Z" fill="#4C6589"></path>
<rect opacity="0.5" x="4.85156" width="40.4352" height="40.4352" rx="20.2176" fill="url(#paint0_linear_149_4825)"></rect>
<path d="M39.4472 16.9828L35.7722 19.9376L40.1088 21.7898" stroke="#4C6589" stroke-width="1.2767" stroke-linecap="round"></path>
<path d="M11.17 16.9828L14.845 19.9376L10.5084 21.7898" stroke="#4C6589" stroke-width="1.2767" stroke-linecap="round"></path>
<path d="M30.7285 24.1104C27.2801 21.8935 22.8551 21.8935 19.4067 24.1104" stroke="#4C6589" stroke-width="1.2767" stroke-linecap="round"></path>
<defs>
<linearGradient id="paint0_linear_149_4825" x1="4.85156" y1="20.2176" x2="45.2868" y2="20.2176" gradientUnits="userSpaceOnUse">
<stop stop-color="#DCE6F3"></stop>
<stop offset="1" stop-color="#BDECF1"></stop>
</linearGradient>
</defs>
</svg>