<svg width="336" height="199" viewBox="27.8999 27.8999 336 199" fill="none" xmlns="http://www.w3.org/2000/svg">
<g>
<g clip-path="url(#clip0_4817_1539)">
<rect x="27.8999" y="27.8999" width="336" height="199" rx="15" fill="#627A9C"/>
<circle cx="196.4" cy="127.4" r="50.2174" stroke="white" stroke-width="4.56522"/>
<path d="M206.103 127.164C206.164 132.452 201.93 136.789 196.642 136.856C191.355 136.922 187.013 132.692 186.941 127.404C186.87 122.109 191.107 117.76 196.402 117.694C201.697 117.627 206.042 121.869 206.103 127.164ZM191.74 127.404C191.812 130.047 194.014 132.129 196.656 132.055C199.298 131.98 201.379 129.777 201.302 127.135C201.224 124.496 199.024 122.419 196.386 122.493C193.747 122.568 191.668 124.766 191.74 127.404Z" fill="white"/>
<path d="M206.566 138.968C206.594 139.267 206.573 139.677 206.466 139.956C206.119 140.86 205.283 141.985 204.672 142.726C201.833 146.162 197.746 148.332 193.309 148.759C192.15 148.871 191.174 148.852 190.009 148.771C185.003 148.42 180.234 146.512 176.368 143.313C171.587 139.38 168.556 133.715 167.935 127.556C167.773 126.348 168.585 125.18 169.783 124.939C170.428 124.804 171.101 124.933 171.65 125.297C172.835 126.091 172.69 127.417 172.956 128.744C173.976 133.7 176.913 138.052 181.128 140.852C183.854 142.661 186.999 143.74 190.262 143.984C191.581 144.086 192.786 144.065 194.085 143.802C196.899 143.232 199.417 141.674 201.184 139.41C201.984 138.396 202.315 137.17 203.725 136.904C204.372 136.782 205.04 136.928 205.578 137.307C206.189 137.729 206.434 138.263 206.566 138.968Z" fill="white"/>
<path d="M225.145 127.194C225.151 127.775 224.955 128.341 224.591 128.794C224.199 129.28 223.629 129.588 223.008 129.65C222.057 129.756 221.134 129.287 220.659 128.456C220.326 127.879 220.298 127.131 220.192 126.464C220.126 126.055 220.045 125.649 219.95 125.246C218.987 121.09 216.651 117.381 213.319 114.718C210.243 112.249 206.477 110.794 202.539 110.553C201.673 110.502 200.869 110.489 200.003 110.585C196.89 110.935 194.036 112.485 192.046 114.905C191.779 115.229 191.53 115.568 191.303 115.922C190.72 116.827 190.303 117.56 189.114 117.678C188.47 117.746 187.827 117.548 187.333 117.131C186.776 116.666 186.511 116.065 186.452 115.354C186.46 114.233 187.55 112.831 188.243 111.981C191.064 108.48 195.17 106.254 199.643 105.801C200.928 105.669 202.414 105.708 203.7 105.838C208.391 106.299 212.841 108.134 216.493 111.114C221.394 115.116 224.506 120.899 225.145 127.194Z" fill="white"/>
<path d="M225.269 138.626L225.269 139.873C225.182 140.071 225.16 140.304 225.103 140.516C225.04 140.746 224.955 140.973 224.857 141.19C224.338 142.365 223.369 143.282 222.168 143.736C220.973 144.18 219.652 144.135 218.491 143.609C217.315 143.067 216.404 142.078 215.959 140.861C215.538 139.666 215.605 138.353 216.146 137.208C216.692 136.052 217.677 135.161 218.882 134.735C220.095 134.317 221.424 134.394 222.58 134.949C223.689 135.482 224.547 136.426 224.972 137.58C225.095 137.921 225.147 138.281 225.26 138.602L225.269 138.626Z" fill="white"/>
<path d="M167.775 114.683C167.916 114.353 167.947 113.922 168.085 113.579C168.563 112.387 169.474 111.417 170.655 110.903C171.83 110.405 173.154 110.386 174.343 110.85C175.512 111.309 176.45 112.214 176.952 113.365C177.469 114.552 177.487 115.898 177.002 117.098C176.52 118.288 175.581 119.235 174.395 119.726C173.217 120.209 171.896 120.205 170.721 119.717C169.546 119.222 168.613 118.283 168.127 117.104C168.004 116.8 167.846 116.069 167.775 115.93L167.775 114.683Z" fill="white"/>
<path d="M212.389 156.025C212.326 155.995 212.142 155.924 212.073 155.904C211.433 155.714 210.904 155.229 210.618 154.615C210.358 154.045 210.335 153.395 210.555 152.808C210.645 152.568 210.773 152.344 210.934 152.144C211.126 151.904 211.452 151.591 211.674 151.363C212.041 150.982 212.402 150.594 212.755 150.199C213.061 149.848 213.358 149.489 213.646 149.123C213.847 148.87 214.045 148.603 214.267 148.369C214.938 147.662 215.983 147.46 216.882 147.818C217.468 148.046 217.938 148.5 218.184 149.079C218.441 149.682 218.443 150.364 218.189 150.968C217.82 151.858 215.018 154.9 214.172 155.603C213.959 155.78 213.485 155.911 213.217 156.025L212.389 156.025Z" fill="white"/>
<path d="M180.707 98.5308C180.901 98.6469 181.101 98.6747 181.299 98.771C181.899 99.0593 182.346 99.5894 182.529 100.228C182.939 101.648 182.156 102.39 181.258 103.311C180.943 103.631 180.637 103.959 180.34 104.296C180.052 104.626 179.77 104.962 179.495 105.304C179.238 105.625 178.936 106.039 178.634 106.309C178.37 106.546 178.054 106.72 177.712 106.817C177.1 106.988 176.444 106.91 175.889 106.6C175.317 106.274 174.9 105.733 174.729 105.098C174.577 104.511 174.661 103.888 174.962 103.362C175.603 102.266 177.896 99.7851 178.932 98.9046C179.09 98.7699 179.58 98.6385 179.787 98.5308L180.707 98.5308Z" fill="white"/>
<path d="M206.103 127.164C206.164 132.452 201.93 136.789 196.642 136.856C191.355 136.922 187.013 132.692 186.941 127.404C186.87 122.109 191.107 117.76 196.402 117.694C201.697 117.627 206.042 121.869 206.103 127.164ZM191.74 127.404C191.812 130.047 194.014 132.129 196.656 132.055C199.298 131.98 201.379 129.777 201.302 127.135C201.224 124.496 199.024 122.419 196.386 122.493C193.747 122.568 191.668 124.766 191.74 127.404Z" fill="white"/>
<path d="M206.566 138.968C206.594 139.267 206.573 139.677 206.466 139.956C206.119 140.86 205.283 141.985 204.672 142.726C201.833 146.162 197.746 148.332 193.309 148.759C192.15 148.871 191.174 148.852 190.009 148.771C185.003 148.42 180.234 146.512 176.368 143.313C171.587 139.38 168.556 133.715 167.935 127.556C167.773 126.348 168.585 125.18 169.783 124.939C170.428 124.804 171.101 124.933 171.65 125.297C172.835 126.091 172.69 127.417 172.956 128.744C173.976 133.7 176.913 138.052 181.128 140.852C183.854 142.661 186.999 143.74 190.262 143.984C191.581 144.086 192.786 144.065 194.085 143.802C196.899 143.232 199.417 141.674 201.184 139.41C201.984 138.396 202.315 137.17 203.725 136.904C204.372 136.782 205.04 136.928 205.578 137.307C206.189 137.729 206.434 138.263 206.566 138.968Z" fill="white"/>
<path d="M225.145 127.194C225.151 127.775 224.955 128.341 224.591 128.794C224.199 129.28 223.629 129.588 223.008 129.65C222.057 129.756 221.134 129.287 220.659 128.456C220.326 127.879 220.298 127.131 220.192 126.464C220.126 126.055 220.045 125.649 219.95 125.246C218.987 121.09 216.651 117.381 213.319 114.718C210.243 112.249 206.477 110.794 202.539 110.553C201.673 110.502 200.869 110.489 200.003 110.585C196.89 110.935 194.036 112.485 192.046 114.905C191.779 115.229 191.53 115.568 191.303 115.922C190.72 116.827 190.303 117.56 189.114 117.678C188.47 117.746 187.827 117.548 187.333 117.131C186.776 116.666 186.511 116.065 186.452 115.354C186.46 114.233 187.55 112.831 188.243 111.981C191.064 108.48 195.17 106.254 199.643 105.801C200.928 105.669 202.414 105.708 203.7 105.838C208.391 106.299 212.841 108.134 216.493 111.114C221.394 115.116 224.506 120.899 225.145 127.194Z" fill="white"/>
<path d="M225.269 138.626L225.269 139.873C225.182 140.071 225.16 140.304 225.103 140.516C225.04 140.746 224.955 140.973 224.857 141.19C224.338 142.365 223.369 143.282 222.168 143.736C220.973 144.18 219.652 144.135 218.491 143.609C217.315 143.067 216.404 142.078 215.959 140.861C215.538 139.666 215.605 138.353 216.146 137.208C216.692 136.052 217.677 135.161 218.882 134.735C220.095 134.317 221.424 134.394 222.58 134.949C223.689 135.482 224.547 136.426 224.972 137.58C225.095 137.921 225.147 138.281 225.26 138.602L225.269 138.626Z" fill="white"/>
<path d="M167.775 114.683C167.916 114.353 167.947 113.922 168.085 113.579C168.563 112.387 169.474 111.417 170.655 110.903C171.83 110.405 173.154 110.386 174.343 110.85C175.512 111.309 176.45 112.214 176.952 113.365C177.469 114.552 177.487 115.898 177.002 117.098C176.52 118.288 175.581 119.235 174.395 119.726C173.217 120.209 171.896 120.205 170.721 119.717C169.546 119.222 168.613 118.283 168.127 117.104C168.004 116.8 167.846 116.069 167.775 115.93L167.775 114.683Z" fill="white"/>
<path d="M212.389 156.025C212.326 155.995 212.142 155.924 212.073 155.904C211.433 155.714 210.904 155.229 210.618 154.615C210.358 154.045 210.335 153.395 210.555 152.808C210.645 152.568 210.773 152.344 210.934 152.144C211.126 151.904 211.452 151.591 211.674 151.363C212.041 150.982 212.402 150.594 212.755 150.199C213.061 149.848 213.358 149.489 213.646 149.123C213.847 148.87 214.045 148.603 214.267 148.369C214.938 147.662 215.983 147.46 216.882 147.818C217.468 148.046 217.938 148.5 218.184 149.079C218.441 149.682 218.443 150.364 218.189 150.968C217.82 151.858 215.018 154.9 214.172 155.603C213.959 155.78 213.485 155.911 213.217 156.025L212.389 156.025Z" fill="white"/>
<path d="M180.707 98.5308C180.901 98.6469 181.101 98.6747 181.299 98.771C181.899 99.0593 182.346 99.5894 182.529 100.228C182.939 101.648 182.156 102.39 181.258 103.311C180.943 103.631 180.637 103.959 180.34 104.296C180.052 104.626 179.77 104.962 179.495 105.304C179.238 105.625 178.936 106.039 178.634 106.309C178.37 106.546 178.054 106.72 177.712 106.817C177.1 106.988 176.444 106.91 175.889 106.6C175.317 106.274 174.9 105.733 174.729 105.098C174.577 104.511 174.661 103.888 174.962 103.362C175.603 102.266 177.896 99.7851 178.932 98.9046C179.09 98.7699 179.58 98.6385 179.787 98.5308L180.707 98.5308Z" fill="white"/>
<path d="M196.635 136.86C191.348 136.921 187.01 132.687 186.944 127.399C186.878 122.111 191.108 117.77 196.395 117.698C201.691 117.627 206.04 121.864 206.106 127.159C206.172 132.454 201.931 136.799 196.635 136.86ZM196.395 122.497C193.753 122.569 191.67 124.77 191.745 127.413C191.819 130.055 194.023 132.136 196.665 132.058C199.303 131.981 201.381 129.781 201.306 127.143C201.232 124.504 199.034 122.425 196.395 122.497Z" fill="white"/>
<path d="M184.831 137.322C184.533 137.35 184.123 137.329 183.844 137.222C182.94 136.876 181.814 136.039 181.074 135.429C177.637 132.589 175.467 128.503 175.04 124.065C174.929 122.907 174.948 121.931 175.028 120.765C175.38 115.76 177.288 110.99 180.486 107.125C184.42 102.344 190.084 99.3123 196.244 98.6919C197.452 98.5293 198.62 99.3418 198.86 100.54C198.996 101.185 198.867 101.857 198.502 102.406C197.708 103.592 196.382 103.446 195.056 103.713C190.1 104.733 185.748 107.67 182.948 111.884C181.138 114.61 180.06 117.756 179.815 121.019C179.714 122.337 179.734 123.543 179.998 124.841C180.568 127.656 182.126 130.173 184.39 131.94C185.404 132.74 186.63 133.072 186.896 134.482C187.017 135.128 186.872 135.797 186.493 136.334C186.07 136.946 185.537 137.19 184.831 137.322Z" fill="white"/>
<path d="M196.606 155.902C196.024 155.908 195.458 155.712 195.005 155.347C194.52 154.955 194.212 154.385 194.149 153.765C194.044 152.814 194.513 151.891 195.344 151.416C195.92 151.083 196.669 151.055 197.335 150.948C197.744 150.882 198.151 150.801 198.554 150.706C202.709 149.744 206.418 147.408 209.081 144.076C211.55 140.999 213.005 137.233 213.246 133.296C213.298 132.429 213.31 131.625 213.215 130.76C212.864 127.646 211.315 124.793 208.895 122.803C208.571 122.535 208.231 122.287 207.878 122.06C206.972 121.477 206.239 121.06 206.121 119.87C206.054 119.227 206.251 118.584 206.669 118.089C207.133 117.533 207.735 117.268 208.446 117.209C209.567 117.217 210.969 118.306 211.819 119C215.32 121.821 217.545 125.927 217.999 130.4C218.131 131.685 218.091 133.17 217.962 134.456C217.501 139.147 215.665 143.598 212.685 147.25C208.683 152.15 202.9 155.262 196.606 155.902Z" fill="white"/>
<path d="M185.173 156.025L183.927 156.025C183.729 155.939 183.495 155.917 183.284 155.859C183.054 155.797 182.827 155.711 182.609 155.614C181.435 155.095 180.517 154.126 180.063 152.924C179.619 151.73 179.665 150.409 180.19 149.248C180.733 148.072 181.722 147.16 182.938 146.716C184.134 146.295 185.446 146.362 186.592 146.903C187.748 147.448 188.638 148.433 189.064 149.639C189.483 150.851 189.406 152.181 188.85 153.337C188.318 154.446 187.374 155.304 186.22 155.729C185.878 155.852 185.519 155.904 185.197 156.017L185.173 156.025Z" fill="white"/>
<path d="M209.116 98.5314C209.446 98.6726 209.878 98.7043 210.22 98.8416C211.412 99.3197 212.383 100.23 212.897 101.412C213.395 102.587 213.414 103.91 212.95 105.1C212.491 106.269 211.586 107.207 210.435 107.709C209.247 108.226 207.902 108.244 206.701 107.759C205.511 107.277 204.564 106.337 204.073 105.151C203.591 103.974 203.594 102.653 204.083 101.478C204.578 100.303 205.517 99.3702 206.696 98.8837C207 98.7613 207.731 98.6024 207.87 98.5314L209.116 98.5314Z" fill="white"/>
<path d="M167.774 143.146C167.805 143.083 167.875 142.898 167.895 142.83C168.086 142.189 168.57 141.66 169.184 141.375C169.754 141.114 170.404 141.091 170.991 141.312C171.231 141.401 171.456 141.529 171.655 141.69C171.896 141.883 172.209 142.209 172.436 142.43C172.817 142.798 173.206 143.159 173.601 143.511C173.952 143.817 174.31 144.114 174.676 144.403C174.929 144.603 175.197 144.802 175.431 145.024C176.138 145.695 176.339 146.74 175.981 147.639C175.753 148.225 175.299 148.694 174.72 148.941C174.117 149.198 173.436 149.2 172.831 148.945C171.941 148.576 168.9 145.775 168.196 144.928C168.019 144.716 167.888 144.242 167.774 143.974L167.774 143.146Z" fill="white"/>
<path d="M225.269 111.463C225.153 111.658 225.125 111.858 225.029 112.056C224.74 112.655 224.21 113.103 223.571 113.286C222.151 113.696 221.409 112.912 220.489 112.015C220.169 111.7 219.84 111.394 219.504 111.097C219.173 110.808 218.837 110.527 218.496 110.252C218.174 109.995 217.76 109.693 217.491 109.391C217.254 109.127 217.08 108.811 216.982 108.469C216.811 107.856 216.889 107.201 217.199 106.645C217.526 106.074 218.066 105.657 218.702 105.486C219.289 105.334 219.912 105.418 220.438 105.719C221.534 106.36 224.014 108.652 224.895 109.689C225.03 109.847 225.161 110.337 225.269 110.544L225.269 111.463Z" fill="white"/>
<g opacity="0.05">
<circle cx="293.4" cy="127.4" r="122.913" stroke="white" stroke-width="11.1739"/>
<path d="M317.15 126.824C317.3 139.766 306.936 150.382 293.993 150.545C281.051 150.707 270.424 140.353 270.249 127.411C270.074 114.451 280.445 103.806 293.406 103.643C306.366 103.481 317.001 113.863 317.15 126.824ZM281.994 127.411C282.17 133.879 287.559 138.977 294.026 138.795C300.493 138.612 305.586 133.218 305.397 126.751C305.208 120.293 299.824 115.209 293.366 115.392C286.908 115.574 281.819 120.953 281.994 127.411Z" fill="white"/>
<path d="M318.281 155.715C318.35 156.446 318.299 157.45 318.037 158.133C317.189 160.345 315.141 163.1 313.647 164.912C306.697 173.324 296.695 178.635 285.834 179.68C282.998 179.952 280.609 179.906 277.756 179.709C265.505 178.85 253.831 174.178 244.369 166.35C232.667 156.723 225.248 142.859 223.729 127.782C223.331 124.825 225.32 121.967 228.253 121.378C229.831 121.046 231.477 121.361 232.821 122.254C235.723 124.198 235.366 127.443 236.019 130.689C238.515 142.82 245.703 153.473 256.019 160.326C262.691 164.755 270.391 167.394 278.377 167.992C281.604 168.24 284.555 168.191 287.733 167.546C294.622 166.15 300.784 162.337 305.108 156.796C307.067 154.314 307.878 151.313 311.329 150.662C312.912 150.365 314.548 150.721 315.864 151.649C317.36 152.682 317.958 153.988 318.281 155.715Z" fill="white"/>
<path d="M363.757 126.896C363.772 128.32 363.292 129.705 362.4 130.814C361.44 132.002 360.045 132.755 358.526 132.909C356.199 133.167 353.94 132.019 352.777 129.986C351.962 128.574 351.894 126.742 351.633 125.111C351.471 124.11 351.273 123.116 351.04 122.129C348.685 111.958 342.967 102.879 334.812 96.3608C327.282 90.3178 318.064 86.7566 308.427 86.1669C306.305 86.0414 304.338 86.0103 302.219 86.2444C294.599 87.1019 287.614 90.8947 282.744 96.818C282.089 97.6107 281.481 98.4417 280.924 99.3064C279.498 101.524 278.477 103.317 275.566 103.606C273.991 103.771 272.417 103.288 271.206 102.266C269.844 101.13 269.196 99.6569 269.051 97.9162C269.071 95.1734 271.737 91.742 273.435 89.6604C280.34 81.0918 290.39 75.6446 301.338 74.5352C304.483 74.212 308.119 74.3077 311.267 74.6253C322.749 75.7531 333.642 80.246 342.58 87.5403C354.575 97.3349 362.192 111.49 363.757 126.896Z" fill="white"/>
<path d="M364.06 154.878L364.06 157.929C363.849 158.414 363.794 158.986 363.654 159.502C363.501 160.066 363.291 160.621 363.053 161.154C361.782 164.029 359.41 166.274 356.47 167.386C353.547 168.473 350.312 168.361 347.471 167.075C344.592 165.747 342.362 163.325 341.274 160.348C340.243 157.423 340.407 154.21 341.731 151.406C343.067 148.576 345.478 146.397 348.428 145.354C351.396 144.33 354.649 144.518 357.48 145.879C360.194 147.182 362.294 149.492 363.335 152.316C363.635 153.153 363.762 154.032 364.039 154.82L364.06 154.878Z" fill="white"/>
<path d="M223.336 96.2755C223.682 95.4681 223.76 94.4111 224.096 93.5731C225.266 90.6559 227.495 88.2798 230.386 87.0216C233.263 85.8034 236.502 85.7571 239.413 86.8927C242.274 88.0163 244.571 90.2305 245.8 93.0483C247.066 95.9546 247.11 99.2476 245.922 102.187C244.742 105.099 242.443 107.416 239.539 108.619C236.658 109.799 233.425 109.791 230.549 108.595C227.672 107.384 225.389 105.085 224.199 102.2C223.899 101.456 223.51 99.6665 223.336 99.326L223.336 96.2755Z" fill="white"/>
<path d="M332.536 197.463C332.382 197.39 331.93 197.217 331.763 197.168C330.195 196.701 328.9 195.516 328.202 194.013C327.563 192.619 327.508 191.026 328.047 189.59C328.266 189.002 328.579 188.453 328.974 187.965C329.445 187.376 330.243 186.61 330.784 186.054C331.685 185.121 332.567 184.17 333.431 183.203C334.179 182.344 334.907 181.466 335.612 180.571C336.103 179.951 336.589 179.297 337.132 178.724C338.775 176.994 341.333 176.501 343.534 177.376C344.968 177.934 346.116 179.046 346.719 180.463C347.349 181.939 347.353 183.607 346.731 185.086C345.828 187.264 338.971 194.709 336.899 196.432C336.379 196.865 335.218 197.186 334.562 197.463L332.536 197.463Z" fill="white"/>
<path d="M254.989 56.7397C255.465 57.0239 255.954 57.0921 256.44 57.3277C257.906 58.0333 259.001 59.3308 259.45 60.8943C260.454 64.3702 258.536 66.1863 256.339 68.439C255.569 69.2227 254.82 70.0268 254.092 70.8503C253.386 71.6589 252.697 72.4817 252.024 73.3181C251.395 74.1047 250.657 75.1179 249.917 75.7767C249.269 76.3577 248.498 76.7836 247.661 77.0216C246.161 77.4409 244.556 77.25 243.196 76.4906C241.798 75.6922 240.776 74.3687 240.358 72.8139C239.986 71.3772 240.192 69.8523 240.929 68.5647C242.498 65.8819 248.109 59.81 250.645 57.6548C251.032 57.3251 252.232 57.0033 252.739 56.7397L254.989 56.7397Z" fill="white"/>
<path d="M317.15 126.824C317.3 139.766 306.936 150.382 293.993 150.545C281.051 150.707 270.424 140.353 270.249 127.411C270.074 114.451 280.445 103.806 293.406 103.643C306.366 103.481 317.001 113.863 317.15 126.824ZM281.994 127.411C282.17 133.879 287.559 138.977 294.026 138.795C300.493 138.612 305.586 133.218 305.397 126.751C305.208 120.293 299.824 115.209 293.366 115.392C286.908 115.574 281.819 120.953 281.994 127.411Z" fill="white"/>
<path d="M318.281 155.715C318.35 156.446 318.299 157.45 318.037 158.133C317.189 160.345 315.141 163.1 313.647 164.912C306.697 173.324 296.695 178.635 285.834 179.68C282.998 179.952 280.609 179.906 277.756 179.709C265.505 178.85 253.831 174.178 244.369 166.35C232.667 156.723 225.248 142.859 223.729 127.782C223.331 124.825 225.32 121.967 228.253 121.378C229.831 121.046 231.477 121.361 232.821 122.254C235.723 124.198 235.366 127.443 236.019 130.689C238.515 142.82 245.703 153.473 256.019 160.326C262.691 164.755 270.391 167.394 278.377 167.992C281.604 168.24 284.555 168.191 287.733 167.546C294.622 166.15 300.784 162.337 305.108 156.796C307.067 154.314 307.878 151.313 311.329 150.662C312.912 150.365 314.548 150.721 315.864 151.649C317.36 152.682 317.958 153.988 318.281 155.715Z" fill="white"/>
<path d="M363.757 126.896C363.772 128.32 363.292 129.705 362.4 130.814C361.44 132.002 360.045 132.755 358.526 132.909C356.199 133.167 353.94 132.019 352.777 129.986C351.962 128.574 351.894 126.742 351.633 125.111C351.471 124.11 351.273 123.116 351.04 122.129C348.685 111.958 342.967 102.879 334.812 96.3608C327.282 90.3178 318.064 86.7566 308.427 86.1669C306.305 86.0414 304.338 86.0103 302.219 86.2444C294.599 87.1019 287.614 90.8947 282.744 96.818C282.089 97.6107 281.481 98.4417 280.924 99.3064C279.498 101.524 278.477 103.317 275.566 103.606C273.991 103.771 272.417 103.288 271.206 102.266C269.844 101.13 269.196 99.6569 269.051 97.9162C269.071 95.1734 271.737 91.742 273.435 89.6604C280.34 81.0918 290.39 75.6446 301.338 74.5352C304.483 74.212 308.119 74.3077 311.267 74.6253C322.749 75.7531 333.642 80.246 342.58 87.5403C354.575 97.3349 362.192 111.49 363.757 126.896Z" fill="white"/>
<path d="M364.06 154.878L364.06 157.929C363.849 158.414 363.794 158.986 363.654 159.502C363.501 160.066 363.291 160.621 363.053 161.154C361.782 164.029 359.41 166.274 356.47 167.386C353.547 168.473 350.312 168.361 347.471 167.075C344.592 165.747 342.362 163.325 341.274 160.348C340.243 157.423 340.407 154.21 341.731 151.406C343.067 148.576 345.478 146.397 348.428 145.354C351.396 144.33 354.649 144.518 357.48 145.879C360.194 147.182 362.294 149.492 363.335 152.316C363.635 153.153 363.762 154.032 364.039 154.82L364.06 154.878Z" fill="white"/>
<path d="M223.336 96.2755C223.682 95.4681 223.76 94.4111 224.096 93.5731C225.266 90.6559 227.495 88.2798 230.386 87.0216C233.263 85.8034 236.502 85.7571 239.413 86.8927C242.274 88.0163 244.571 90.2305 245.8 93.0483C247.066 95.9546 247.11 99.2476 245.922 102.187C244.742 105.099 242.443 107.416 239.539 108.619C236.658 109.799 233.425 109.791 230.549 108.595C227.672 107.384 225.389 105.085 224.199 102.2C223.899 101.456 223.51 99.6665 223.336 99.326L223.336 96.2755Z" fill="white"/>
<path d="M332.536 197.463C332.382 197.39 331.93 197.217 331.763 197.168C330.195 196.701 328.9 195.516 328.202 194.013C327.563 192.619 327.508 191.026 328.047 189.59C328.266 189.002 328.579 188.453 328.974 187.965C329.445 187.376 330.243 186.61 330.784 186.054C331.685 185.121 332.567 184.17 333.431 183.203C334.179 182.344 334.907 181.466 335.612 180.571C336.103 179.951 336.589 179.297 337.132 178.724C338.775 176.994 341.333 176.501 343.534 177.376C344.968 177.934 346.116 179.046 346.719 180.463C347.349 181.939 347.353 183.607 346.731 185.086C345.828 187.264 338.971 194.709 336.899 196.432C336.379 196.865 335.218 197.186 334.562 197.463L332.536 197.463Z" fill="white"/>
<path d="M254.989 56.7397C255.465 57.0239 255.954 57.0921 256.44 57.3277C257.906 58.0333 259.001 59.3308 259.45 60.8943C260.454 64.3702 258.536 66.1863 256.339 68.439C255.569 69.2227 254.82 70.0268 254.092 70.8503C253.386 71.6589 252.697 72.4817 252.024 73.3181C251.395 74.1047 250.657 75.1179 249.917 75.7767C249.269 76.3577 248.498 76.7836 247.661 77.0216C246.161 77.4409 244.556 77.25 243.196 76.4906C241.798 75.6922 240.776 74.3687 240.358 72.8139C239.986 71.3772 240.192 69.8523 240.929 68.5647C242.498 65.8819 248.109 59.81 250.645 57.6548C251.032 57.3251 252.232 57.0033 252.739 56.7397L254.989 56.7397Z" fill="white"/>
<path d="M293.976 150.554C281.034 150.703 270.418 140.339 270.255 127.397C270.093 114.454 280.447 103.827 293.389 103.652C306.349 103.477 316.994 113.849 317.157 126.809C317.319 139.769 306.937 150.404 293.976 150.554ZM293.389 115.397C286.921 115.573 281.823 120.963 282.005 127.43C282.188 133.897 287.582 138.99 294.049 138.801C300.507 138.612 305.591 133.227 305.408 126.769C305.226 120.311 299.847 115.222 293.389 115.397Z" fill="white"/>
<path d="M265.084 151.685C264.353 151.754 263.35 151.703 262.667 151.441C260.455 150.593 257.7 148.545 255.888 147.051C247.476 140.101 242.164 130.099 241.119 119.238C240.847 116.402 240.894 114.013 241.09 111.16C241.95 98.909 246.621 87.2347 254.45 77.7729C264.077 66.0711 277.941 58.6515 293.018 57.1329C295.975 56.7351 298.833 58.7236 299.422 61.6563C299.754 63.2346 299.438 64.8803 298.546 66.2243C296.602 69.1268 293.357 68.7695 290.11 69.4229C277.98 71.9186 267.327 79.1073 260.474 89.4225C256.045 96.0952 253.405 103.794 252.807 111.781C252.559 115.008 252.609 117.959 253.254 121.137C254.649 128.025 258.462 134.188 264.003 138.512C266.486 140.471 269.487 141.282 270.138 144.733C270.435 146.316 270.079 147.951 269.151 149.268C268.117 150.764 266.812 151.362 265.084 151.685Z" fill="white"/>
<path d="M293.904 197.161C292.48 197.176 291.095 196.696 289.986 195.804C288.798 194.844 288.045 193.449 287.891 191.93C287.633 189.602 288.781 187.344 290.814 186.18C292.226 185.366 294.058 185.298 295.689 185.037C296.69 184.875 297.684 184.677 298.671 184.444C308.842 182.089 317.921 176.371 324.439 168.216C330.482 160.685 334.043 151.468 334.633 141.83C334.759 139.709 334.79 137.741 334.556 135.622C333.698 128.003 329.905 121.017 323.982 116.148C323.189 115.493 322.358 114.885 321.494 114.328C319.276 112.902 317.483 111.881 317.194 108.97C317.029 107.395 317.512 105.821 318.534 104.61C319.67 103.248 321.143 102.6 322.884 102.455C325.627 102.475 329.058 105.141 331.14 106.838C339.708 113.744 345.155 123.793 346.265 134.742C346.588 137.887 346.492 141.523 346.175 144.671C345.047 156.152 340.554 167.046 333.26 175.984C323.465 187.979 309.31 195.595 293.904 197.161Z" fill="white"/>
<path d="M265.922 197.463L262.871 197.463C262.386 197.252 261.814 197.197 261.297 197.057C260.733 196.904 260.179 196.694 259.646 196.457C256.771 195.185 254.526 192.814 253.414 189.873C252.327 186.95 252.439 183.716 253.725 180.874C255.053 177.995 257.474 175.765 260.452 174.677C263.377 173.646 266.59 173.81 269.394 175.135C272.224 176.47 274.402 178.881 275.445 181.831C276.47 184.8 276.282 188.053 274.921 190.883C273.618 193.597 271.308 195.697 268.483 196.738C267.647 197.038 266.768 197.165 265.98 197.442L265.922 197.463Z" fill="white"/>
<path d="M324.525 56.7394C325.332 57.085 326.389 57.1626 327.227 57.4986C330.145 58.6688 332.521 60.8979 333.779 63.7893C334.997 66.6663 335.043 69.9054 333.908 72.8161C332.784 75.6773 330.57 77.9744 327.752 79.203C324.846 80.4686 321.553 80.5126 318.614 79.3253C315.701 78.1455 313.384 75.8456 312.182 72.9425C311.001 70.0607 311.01 66.8278 312.205 63.9521C313.417 61.0751 315.715 58.7925 318.601 57.6017C319.344 57.3021 321.134 56.9132 321.475 56.7394L324.525 56.7394Z" fill="white"/>
<path d="M223.336 165.939C223.41 165.785 223.582 165.333 223.632 165.166C224.098 163.598 225.283 162.303 226.786 161.605C228.181 160.967 229.773 160.911 231.209 161.45C231.797 161.669 232.346 161.982 232.835 162.377C233.423 162.848 234.189 163.646 234.746 164.187C235.679 165.088 236.629 165.97 237.597 166.834C238.456 167.583 239.333 168.31 240.228 169.015C240.848 169.506 241.503 169.992 242.075 170.535C243.806 172.178 244.299 174.736 243.424 176.937C242.866 178.371 241.753 179.519 240.337 180.122C238.861 180.752 237.193 180.756 235.713 180.134C233.535 179.231 226.09 172.374 224.367 170.302C223.935 169.782 223.614 168.621 223.336 167.965L223.336 165.939Z" fill="white"/>
<path d="M364.06 88.3923C363.776 88.8685 363.708 89.3577 363.472 89.8435C362.766 91.3098 361.469 92.4044 359.905 92.8538C356.43 93.857 354.614 91.9392 352.361 89.7425C351.577 88.9722 350.773 88.2232 349.95 87.4956C349.141 86.7892 348.318 86.1 347.482 85.4273C346.695 84.7986 345.682 84.0599 345.023 83.3199C344.442 82.6726 344.016 81.901 343.778 81.064C343.359 79.564 343.55 77.9596 344.309 76.5998C345.108 75.2015 346.431 74.1797 347.986 73.7612C349.423 73.3895 350.948 73.595 352.235 74.3322C354.918 75.9017 360.99 81.5121 363.145 84.0482C363.475 84.4358 363.796 85.6355 364.06 86.1426L364.06 88.3923Z" fill="white"/>
</g>
</g>
</g>
<defs>

<clipPath id="clip0_4817_1539">
<rect x="27.8999" y="27.8999" width="336" height="199" rx="15" fill="white"/>
</clipPath>
</defs>
</svg>
