<svg width="336" height="199" viewBox="27.8999 27.8999 336 199" fill="none" xmlns="http://www.w3.org/2000/svg">
<g>
<g clip-path="url(#clip0_4817_1522)">
<rect x="27.8999" y="27.8999" width="336" height="199" rx="15" fill="#627A9C"/>
<circle cx="196.4" cy="127.4" r="50.2174" stroke="white" stroke-width="4.56522"/>
<path d="M218.82 101.973C219.839 101.861 220.303 102.081 221.146 102.624C222.574 103.543 223.804 104.739 224.763 106.141C225.88 107.77 226.601 109.638 226.866 111.596C226.966 112.305 226.948 113.054 226.949 113.773L226.954 116.217L226.954 125.042L226.95 136.898L226.95 139.97C226.951 141.184 227.004 141.931 226.781 143.142C226.139 146.617 224.218 149.508 221.286 151.479C220.203 152.197 219.014 152.742 217.763 153.094C216.603 153.431 215.364 153.607 214.17 153.817L209.603 154.643L203.973 155.674C201.135 156.209 198.313 156.796 195.411 156.642C192.845 156.505 190.35 155.915 187.828 155.472L179.096 153.881C178.177 153.711 177.246 153.578 176.33 153.402C172.844 152.719 170.008 150.882 167.992 147.965C165.61 144.517 165.831 141.39 165.831 137.438L165.832 129.049L165.831 118.322L165.829 115.009C165.829 113.427 165.802 112.206 166.113 110.649C166.784 107.402 168.721 104.557 171.495 102.74C172.303 102.203 172.902 101.857 173.912 102.06C174.55 102.187 175.167 102.627 175.513 103.178C175.79 103.617 175.925 104.13 175.902 104.648C175.84 105.987 175.003 106.465 174.003 107.151C172.484 108.194 171.437 109.945 171.047 111.704L171.02 111.87C170.856 112.887 170.887 113.686 170.887 114.703L170.889 117.565L170.888 127.702L170.887 136.994L170.887 139.688C170.887 140.423 170.877 141.105 170.956 141.838C171.235 144.424 172.989 146.776 175.355 147.841C176.694 148.444 178.29 148.612 179.74 148.875L184.232 149.691L189.418 150.626C190.935 150.911 192.342 151.195 193.88 151.435C193.947 145.431 193.886 139.31 193.886 133.297L193.885 128.431C193.885 127.494 193.845 126.466 193.953 125.542C193.998 125.153 194.34 124.586 194.623 124.302C195.1 123.827 195.744 123.558 196.417 123.554C197.056 123.557 197.765 123.855 198.212 124.314C198.6 124.715 198.847 125.231 198.916 125.784C198.997 126.433 198.955 128.016 198.955 128.731L198.953 134.36L198.954 145.294C198.954 147.32 198.981 149.397 198.944 151.417C200.53 151.21 201.991 150.899 203.554 150.602L208.101 149.78L212.989 148.892C213.985 148.716 215.038 148.573 216.017 148.335C218.101 147.829 219.749 146.595 220.865 144.767C222.256 142.488 221.95 139.776 221.95 137.204V129.062L221.951 118.458L221.952 115.037C221.952 114.322 221.97 113.582 221.929 112.868C221.807 110.723 220.709 108.594 219.005 107.282C218.068 106.561 217.188 106.364 216.866 105.068C216.702 104.406 216.808 103.707 217.159 103.123C217.55 102.482 218.11 102.15 218.82 101.973Z" fill="white"/>
<path d="M195.25 98.0731C195.733 98.0462 196.216 98.0379 196.699 98.0482C202.122 98.1471 207.282 100.404 211.036 104.319C214.06 107.448 215.993 111.47 216.547 115.786C216.66 116.659 216.729 117.451 216.728 118.345C216.723 121.128 213.126 121.948 211.911 119.475C211.657 118.959 211.671 118.393 211.656 117.822C211.451 110.164 205.121 103.58 197.459 103.153C196.601 103.058 195.246 103.123 194.393 103.235C189.481 103.856 185.176 106.819 182.843 111.185C182.235 112.309 181.669 113.741 181.398 114.989C181.252 115.692 181.145 116.403 181.076 117.118C180.981 118.152 181.174 119.125 180.465 120.001C179.02 121.781 176.145 120.902 175.979 118.599C175.913 117.674 176.045 116.632 176.158 115.713C176.628 111.914 178.258 108.31 180.703 105.376C183.456 102.086 187.17 99.7421 191.324 98.6727C192.67 98.3378 193.884 98.1986 195.25 98.0731Z" fill="white"/>
<path d="M195.947 108.252C196.422 108.223 196.96 108.259 197.435 108.313C200.161 108.612 202.652 109.993 204.35 112.146C205.505 113.611 206.193 115.289 206.437 117.145C206.594 118.345 206.629 119.584 205.565 120.408C205.03 120.823 204.382 121.01 203.707 120.927C202.595 120.789 201.762 120.038 201.546 118.934C201.446 118.44 201.462 117.874 201.346 117.357C201.167 116.562 200.906 115.926 200.394 115.288C199.411 114.061 198.351 113.539 196.833 113.337C196.43 113.326 196.087 113.317 195.687 113.368C193.594 113.618 191.877 115.141 191.38 117.189C191.144 118.197 191.364 119.146 190.658 120.012C189.763 121.109 188.173 121.264 187.081 120.367C186.57 119.944 186.25 119.334 186.194 118.673C185.988 116.482 187.09 113.551 188.52 111.921C190.631 109.517 192.851 108.527 195.947 108.252Z" fill="white"/>
<path d="M210.237 131.21C210.627 131.198 211 131.274 211.339 131.474C211.583 131.62 211.788 131.822 211.936 132.064C212.259 132.587 212.716 134.401 212.88 135.06C213.833 135.291 215.052 135.595 215.917 136.025C216.758 136.444 216.924 137.787 216.454 138.545C216.302 138.791 216.092 138.995 215.843 139.141C215.335 139.441 213.513 139.91 212.889 140.06C212.8 140.388 212.72 140.737 212.614 141.058C212.173 142.397 212.213 143.561 210.597 143.903C210.193 143.941 209.787 143.855 209.434 143.655C208.736 143.252 208.595 142.592 208.384 141.885C208.204 141.286 208.036 140.689 207.885 140.082C207.071 139.801 206.059 139.606 205.237 139.292C204.746 139.105 204.362 138.771 204.164 138.273C203.98 137.798 203.989 137.269 204.191 136.801C204.381 136.365 204.672 136.068 205.118 135.876C205.97 135.509 207.015 135.379 207.861 135.035C208.147 134.118 208.367 133.057 208.75 132.177C209.009 131.582 209.628 131.326 210.237 131.21Z" fill="white"/>
<path d="M181.94 126.141C184.344 125.985 184.239 128.199 184.84 129.963C185.459 130.113 187.165 130.565 187.677 130.827C188.123 131.051 188.456 131.45 188.599 131.928C188.883 132.899 188.318 133.939 187.356 134.24C186.512 134.503 185.681 134.731 184.832 134.969C184.68 135.411 184.577 135.917 184.433 136.369C184.052 137.566 184.066 138.333 182.71 138.772C181.961 138.863 181.095 138.641 180.754 137.95C180.35 137.131 180.04 135.85 179.828 134.975C178.91 134.661 177.928 134.513 177.011 134.12C175.743 133.664 175.643 131.583 176.739 130.94C177.501 130.493 178.92 130.235 179.8 129.949C180.05 129.038 180.317 128.001 180.667 127.121C180.878 126.593 181.411 126.297 181.94 126.141Z" fill="white"/>
<g opacity="0.05">
<circle cx="293.4" cy="127.4" r="122.913" stroke="white" stroke-width="11.1739"/>
<path d="M348.275 65.1634C350.771 64.8899 351.905 65.4288 353.969 66.7571C357.464 69.0067 360.475 71.9343 362.821 75.367C365.557 79.3535 367.32 83.9261 367.969 88.7175C368.213 90.454 368.17 92.2867 368.173 94.0456L368.186 100.028L368.185 121.628L368.175 150.646L368.174 158.167C368.177 161.138 368.308 162.968 367.76 165.93C366.189 174.436 361.487 181.512 354.312 186.337C351.66 188.094 348.751 189.427 345.689 190.29C342.85 191.114 339.816 191.545 336.894 192.06L325.716 194.08L311.936 196.605C304.99 197.913 298.082 199.35 290.979 198.972C284.7 198.638 278.592 197.193 272.42 196.109L251.048 192.215C248.797 191.8 246.518 191.475 244.276 191.043C235.745 189.37 228.803 184.875 223.869 177.735C218.038 169.295 218.579 161.642 218.58 151.97L218.58 131.436L218.578 105.18L218.574 97.0705C218.573 93.1999 218.509 90.2108 219.268 86.4003C220.912 78.4533 225.653 71.4879 232.443 67.0428C234.42 65.728 235.886 64.8811 238.359 65.3761C239.92 65.6888 241.43 66.7657 242.278 68.1136C242.954 69.1879 243.286 70.4432 243.228 71.7113C243.077 74.9882 241.028 76.1596 238.581 77.8386C234.862 80.3905 232.3 84.6767 231.346 88.9829L231.279 89.3894C230.877 91.8769 230.953 93.833 230.954 96.3227L230.958 103.328L230.957 128.14L230.954 150.883L230.954 157.477C230.954 159.276 230.931 160.944 231.124 162.739C231.805 169.069 236.1 174.824 241.89 177.432C245.167 178.908 249.075 179.318 252.622 179.962L263.619 181.96L276.311 184.249C280.023 184.946 283.468 185.641 287.231 186.228C287.395 171.533 287.248 156.55 287.247 141.835L287.246 129.925C287.244 127.63 287.147 125.115 287.41 122.853C287.521 121.9 288.357 120.512 289.051 119.816C290.217 118.654 291.795 117.997 293.441 117.988C295.007 117.994 296.741 118.724 297.835 119.847C298.785 120.827 299.391 122.09 299.559 123.445C299.758 125.033 299.654 128.907 299.653 130.658L299.649 144.435L299.651 171.197C299.652 176.157 299.718 181.241 299.626 186.185C303.508 185.678 307.084 184.916 310.91 184.189L322.039 182.178L334.005 180.003C336.44 179.573 339.019 179.223 341.415 178.642C346.517 177.402 350.55 174.382 353.28 169.909C356.686 164.329 355.938 157.693 355.937 151.396V131.469L355.94 105.513L355.942 97.14C355.942 95.3899 355.986 93.5795 355.886 91.8312C355.588 86.5808 352.899 81.3708 348.728 78.1599C346.435 76.3944 344.282 75.9111 343.493 72.7397C343.093 71.1204 343.351 69.4085 344.21 67.9789C345.168 66.4112 346.537 65.5966 348.275 65.1634Z" fill="white"/>
<path d="M290.586 55.6188C291.767 55.553 292.95 55.5327 294.132 55.5578C307.406 55.7998 320.036 61.3237 329.223 70.9058C336.625 78.5646 341.356 88.4086 342.712 98.9728C342.989 101.111 343.158 103.049 343.155 105.236C343.144 112.049 334.338 114.055 331.364 108.003C330.743 106.739 330.778 105.354 330.74 103.957C330.239 85.2132 314.746 69.0971 295.993 68.0531C293.893 67.8201 290.576 67.9783 288.487 68.2537C276.466 69.772 265.927 77.0259 260.217 87.7127C258.73 90.4635 257.344 93.9674 256.682 97.0227C256.324 98.7435 256.061 100.483 255.894 102.232C255.659 104.763 256.132 107.146 254.398 109.291C250.86 113.647 243.824 111.496 243.418 105.859C243.255 103.595 243.579 101.044 243.856 98.7939C245.005 89.4952 248.996 80.6758 254.981 73.493C261.718 65.4417 270.809 59.7039 280.976 57.0864C284.271 56.2666 287.241 55.926 290.586 55.6188Z" fill="white"/>
<path d="M292.291 80.5342C293.453 80.4621 294.77 80.5499 295.934 80.6827C302.605 81.4138 308.703 84.794 312.858 90.0638C315.685 93.6494 317.369 97.7564 317.966 102.299C318.352 105.237 318.438 108.269 315.833 110.288C314.523 111.303 312.936 111.761 311.284 111.556C308.563 111.219 306.525 109.382 305.995 106.68C305.75 105.47 305.79 104.085 305.506 102.819C305.069 100.873 304.429 99.3175 303.176 97.7539C300.771 94.7529 298.175 93.4744 294.46 92.9805C293.475 92.9526 292.634 92.9297 291.655 93.0544C286.533 93.6663 282.33 97.3949 281.112 102.407C280.536 104.876 281.073 107.198 279.345 109.317C277.156 112.003 273.263 112.382 270.592 110.186C269.34 109.152 268.557 107.658 268.42 106.041C267.915 100.677 270.613 93.503 274.114 89.5149C279.28 83.6286 284.712 81.2059 292.291 80.5342Z" fill="white"/>
<path d="M327.269 136.725C328.222 136.697 329.137 136.882 329.965 137.372C330.563 137.728 331.065 138.223 331.426 138.816C332.217 140.096 333.334 144.535 333.738 146.148C336.069 146.715 339.053 147.458 341.169 148.51C343.23 149.536 343.636 152.822 342.484 154.68C342.112 155.28 341.598 155.78 340.989 156.137C339.747 156.871 335.287 158.019 333.758 158.387C333.541 159.188 333.345 160.045 333.086 160.83C332.007 164.106 332.105 166.955 328.148 167.793C327.16 167.887 326.166 167.674 325.302 167.186C323.594 166.198 323.249 164.585 322.731 162.852C322.292 161.387 321.882 159.926 321.512 158.441C319.52 157.752 317.041 157.277 315.029 156.508C313.828 156.049 312.888 155.231 312.404 154.012C311.953 152.85 311.976 151.556 312.469 150.41C312.935 149.342 313.647 148.615 314.738 148.145C316.824 147.247 319.381 146.93 321.453 146.086C322.153 143.842 322.692 141.247 323.628 139.093C324.263 137.635 325.778 137.009 327.269 136.725Z" fill="white"/>
<path d="M258.008 124.318C263.892 123.935 263.635 129.356 265.105 133.673C266.622 134.039 270.796 135.145 272.049 135.786C273.141 136.335 273.957 137.311 274.306 138.482C275.001 140.86 273.619 143.405 271.263 144.14C269.198 144.784 267.165 145.343 265.085 145.925C264.714 147.008 264.462 148.245 264.11 149.352C263.178 152.282 263.211 154.16 259.892 155.234C258.06 155.456 255.939 154.913 255.104 153.221C254.115 151.217 253.356 148.081 252.837 145.941C250.59 145.172 248.189 144.809 245.944 143.847C242.84 142.732 242.594 137.637 245.277 136.064C247.142 134.97 250.617 134.338 252.77 133.637C253.383 131.408 254.035 128.869 254.892 126.717C255.408 125.423 256.712 124.7 258.008 124.318Z" fill="white"/>
</g>
</g>
</g>
<defs>

<clipPath id="clip0_4817_1522">
<rect x="27.8999" y="27.8999" width="336" height="199" rx="15" fill="white"/>
</clipPath>
</defs>
</svg>
