<svg width="336" height="199" viewBox="27.8999 27.8999 336 199" fill="none" xmlns="http://www.w3.org/2000/svg">
<g>
<g clip-path="url(#clip0_4817_1663)">
<rect x="27.8999" y="27.8999" width="336" height="199" rx="15" fill="#627A9C"/>
<circle cx="196.4" cy="127.4" r="50.2174" stroke="white" stroke-width="4.56522"/>
<path d="M194.189 91.2478C194.858 90.5297 195.784 90.0881 196.775 90.0135C200.845 89.7404 202.403 95.6638 200.04 97.4004C198.875 98.6338 195.788 98.5116 194.506 97.4617C192.66 95.9511 192.742 92.9268 194.189 91.2478Z" fill="white"/>
<path d="M219.902 130.781C220.615 127.04 220.523 123.643 219.214 120.009C217.752 115.913 214.534 112.215 210.362 110.769C207.861 109.88 204.425 109.897 203.374 106.948C203.132 106.214 203.183 105.238 203.778 104.679C206.079 102.518 209.021 102.919 211.495 104.526C213.282 105.686 214.671 106.804 216.211 108.216C221.301 112.886 224.696 118.202 226.254 124.969C226.999 127.588 226.784 134.756 226.2 137.48C224.795 145.718 222.246 151.565 215.238 156.707C214.537 157.221 212.829 158.3 212.063 158.638C211.04 159.447 209.255 160.109 208.038 160.598C203.409 162.459 198.264 162.99 193.322 162.483C191.452 162.292 186.537 161.138 185.026 160.129C181.447 158.667 174.307 154.443 172.409 150.892C171.381 148.969 171.579 147.867 172.188 145.944L172.605 145.289C173.929 143.581 176.11 143.657 178.021 144.093C181.354 144.68 184.121 145.959 187.308 146.975C188.386 147.318 189.634 147.466 190.745 147.678C192.594 147.98 195.396 147.822 197.325 147.761C197.958 147.74 198.706 147.553 199.397 147.521L199.482 147.518C206.335 146.336 212.207 143.229 216.544 137.656C217.272 136.721 218.271 135.299 218.686 134.184C219.149 133.289 219.634 131.754 219.902 130.781ZM196.4 151.275C194.085 151.275 192.159 150.927 191.771 150.892C188.416 150.593 186.046 149.813 182.644 148.551C181.202 148.418 180.343 148.255 179.394 149.549C179.378 149.809 179.325 150.429 179.361 150.657C179.973 154.553 184.969 156.098 188.117 157.365C188.771 157.547 192.015 158.638 193.964 158.827C196.034 159.015 197.858 159.298 202.192 158.638C205.24 157.933 207.538 156.909 210.286 155.416C217.34 151.559 219.3 147.831 220.518 145.793C221.736 143.755 222.75 141.218 222.954 140.555L223.685 137.48C223.807 136.414 224.13 134.959 224.172 133.856C224.187 133.476 224.208 132.911 224.216 132.226C224.235 130.595 222.748 130.683 222.359 132.267C222.188 132.965 221.983 133.619 221.736 134.184C219.321 143.33 211.191 148.281 202.192 150.485C199.754 151.084 198.714 151.275 196.4 151.275Z" fill="white"/>
<path d="M189.312 107.864C187.765 110.067 185.932 109.924 183.568 110.542C175.931 112.538 170.567 120.768 168.226 127.785C167.959 128.568 167.752 129.37 167.606 130.185C167.504 130.776 167.596 132.231 167.053 132.429C166.212 132.051 166.355 130.078 166.393 129.24C166.848 119.247 173.137 108.604 182.48 104.525C184.653 103.577 187.592 102.005 189.345 104.392C189.97 105.379 189.959 106.887 189.312 107.864Z" fill="white"/>
<path d="M196.393 118.27C205.835 117.942 207.118 132.079 197.176 133.218C189.93 134.581 187.334 126.378 190.615 120.998C191.694 119.228 194.477 118.586 196.393 118.27Z" fill="white"/>
<g opacity="0.05">
<circle cx="293.4" cy="127.4" r="122.913" stroke="white" stroke-width="11.1739"/>
<path d="M287.989 38.9136C289.626 37.1559 291.891 36.0749 294.319 35.8925C304.28 35.2239 308.094 49.7221 302.31 53.9727C299.457 56.9917 291.902 56.6925 288.763 54.1228C284.246 50.4254 284.446 43.023 287.989 38.9136Z" fill="white"/>
<path d="M350.923 135.675C352.67 126.519 352.443 118.205 349.241 109.309C345.662 99.2843 337.786 90.2333 327.574 86.6953C321.453 84.5181 313.041 84.5591 310.47 77.3424C309.877 75.5445 310.003 73.1571 311.459 71.7892C317.091 66.4979 324.293 67.4812 330.347 71.4128C334.722 74.2538 338.12 76.9899 341.889 80.4464C354.348 91.8745 362.659 104.886 366.473 121.45C368.295 127.861 367.768 145.405 366.34 152.073C362.899 172.236 356.662 186.546 339.508 199.132C337.793 200.391 333.613 203.032 331.737 203.86C329.232 205.84 324.865 207.46 321.886 208.658C310.555 213.211 297.964 214.512 285.867 213.271C281.288 212.802 269.26 209.978 265.561 207.508C256.802 203.931 239.325 193.592 234.68 184.901C232.163 180.194 232.647 177.495 234.138 172.79L235.158 171.185C238.401 167.006 243.739 167.191 248.417 168.259C256.573 169.695 263.345 172.826 271.147 175.313C273.786 176.153 276.839 176.515 279.559 177.034C284.085 177.774 290.944 177.385 295.663 177.235C297.213 177.185 299.044 176.726 300.737 176.649L300.944 176.642C317.717 173.749 332.09 166.145 342.706 152.504C344.486 150.215 346.933 146.735 347.948 144.006C349.082 141.814 350.268 138.057 350.923 135.675ZM293.4 185.837C287.735 185.837 283.021 184.985 282.07 184.901C273.857 184.168 268.058 182.259 259.731 179.169C256.201 178.844 254.099 178.446 251.775 181.612C251.737 182.25 251.606 183.767 251.694 184.324C253.193 193.861 265.422 197.642 273.126 200.744C274.727 201.188 282.667 203.86 287.437 204.322C292.505 204.783 296.97 205.475 307.578 203.86C315.037 202.134 320.661 199.627 327.388 195.974C344.654 186.532 349.451 177.408 352.432 172.42C355.414 167.432 357.895 161.22 358.395 159.6L360.184 152.073C360.482 149.463 361.273 145.901 361.377 143.202C361.412 142.271 361.464 140.888 361.484 139.213C361.53 135.222 357.89 135.435 356.938 139.312C356.519 141.02 356.017 142.622 355.414 144.006C349.503 166.39 329.603 178.51 307.578 183.903C301.61 185.37 299.064 185.837 293.4 185.837Z" fill="white"/>
<path d="M276.051 79.5828C272.264 84.9744 267.779 84.6252 261.992 86.1379C243.299 91.0238 230.169 111.167 224.44 128.343C223.787 130.26 223.28 132.223 222.923 134.216C222.673 135.663 222.899 139.223 221.57 139.709C219.511 138.783 219.861 133.954 219.954 131.903C221.067 107.443 236.46 81.3944 259.33 71.4115C264.647 69.0902 271.841 65.2424 276.133 71.0845C277.661 73.5017 277.635 77.1919 276.051 79.5828Z" fill="white"/>
<path d="M293.381 105.053C316.492 104.25 319.633 138.854 295.299 141.641C277.564 144.977 271.209 124.9 279.24 111.731C281.881 107.4 288.693 105.826 293.381 105.053Z" fill="white"/>
</g>
</g>
</g>
<defs>

<clipPath id="clip0_4817_1663">
<rect x="27.8999" y="27.8999" width="336" height="199" rx="15" fill="white"/>
</clipPath>
</defs>
</svg>
