<svg width="163" height="174" viewBox="0 0 163 174" fill="none" xmlns="http://www.w3.org/2000/svg">
<path d="M35.7383 157.209V156.13C46.3178 157.338 54.5488 151.212 63.8355 148.3C64.7836 146.574 65.7101 144.935 66.8736 142.843C67.951 143.77 68.9637 144.633 69.9548 145.496C66.3349 134.171 59.3968 124.982 50.6703 116.936C51.0151 116.505 51.3383 116.095 51.683 115.685C61.7239 119.784 71.7648 123.904 82.3443 128.218C82.3659 128.196 82.3874 128.196 82.409 128.175C82.409 128.175 82.4305 128.175 82.4305 128.153C82.4305 128.153 82.4521 128.153 82.4521 128.175C82.4736 128.196 82.4952 128.196 82.5167 128.218C93.0963 123.882 103.137 119.784 113.178 115.685C113.523 116.095 113.846 116.527 114.191 116.936C105.464 124.982 98.5261 134.171 94.9062 145.496C95.9189 144.633 96.9101 143.77 97.9874 142.843C99.1509 144.935 100.056 146.574 101.026 148.3C110.334 151.212 118.565 157.317 129.123 156.13V157.209L82.4952 173.02" fill="#4C6589"></path>
<path d="M101.59 9.19363C94.3076 0.88895 81.7888 -2.38978 71.6617 1.85963C60.6082 6.49731 53.8209 16.8943 53.9071 29.4269C53.9502 34.5607 54.0794 39.7376 54.6827 44.8067C54.9844 47.2442 56.0402 49.9405 57.6131 51.7956C59.7678 54.3409 62.7413 56.2175 65.4347 58.4393C67.6325 58.9786 70.5198 59.712 73.6441 60.5101C75.7772 64.8242 77.8242 68.9442 80.4098 74.1211C80.9916 71.6837 81.1855 70.4541 81.5733 69.2893C81.9612 68.1029 82.4999 66.9597 83.3402 64.9321C83.6634 68.1892 83.8789 70.3031 84.0728 72.2876C88.296 64.3065 92.3899 56.5195 96.5054 48.7541C96.1391 52.0328 95.7943 55.29 95.428 58.5687C101.784 53.3487 104.585 45.9715 107.3 38.5728C111.287 27.6581 109.283 17.9729 101.59 9.19363ZM95.7943 23.9911C93.3164 31.2388 88.7054 37.106 82.349 43.2967C83.6634 36.8471 84.4606 31.3682 78.2336 27.7659C78.1043 27.8738 77.975 27.9816 77.8457 28.0895C77.7811 28.1326 77.7164 28.1758 77.6518 28.2405C77.4579 28.3915 77.2639 28.564 77.07 28.715C76.3805 29.2759 75.6695 29.8583 74.9153 30.4838C74.786 30.5917 74.6352 30.6995 74.5059 30.8289C74.0965 31.1741 73.6441 31.5192 73.1916 31.9075C69.6148 26.4501 71.554 21.1869 73.0192 15.9452C72.5236 15.7295 72.0065 15.5138 71.5109 15.2981C69.2916 18.4906 67.0722 21.6614 64.8745 24.8323C64.5943 24.7676 64.2927 24.7029 64.0126 24.6382C64.7236 22.5243 65.0253 20.1084 66.2319 18.3396C70.649 11.89 77.0054 8.52494 84.7623 8.37395C93.0579 8.17981 98.5523 15.9884 95.7943 23.9911Z" fill="#4C6589"></path>
<path d="M49.1774 61.1358C50.1255 60.8338 51.0304 60.5318 52.3233 60.0788C47.4106 48.4523 39.4813 40.0829 27.3719 36.7394C21.7051 35.1648 15.8012 36.157 11.815 41.6791C10.8238 43.0596 9.63877 44.4186 8.30286 45.4324C0.308939 51.58 -1.501 60.8985 3.13159 69.7424C8.64761 80.2473 23.9675 85.8125 39.0719 82.8789C38.8564 80.8944 38.641 78.8884 38.4255 76.8607C47.5183 72.827 53.81 77.853 60.1879 82.5338C60.5973 82.0808 61.0067 81.6494 61.3945 81.218C57.3868 74.5743 53.3144 67.9305 49.1774 61.1358ZM38.447 56.5844C38.2316 58.0512 37.736 59.3023 36.8741 60.1651C36.7664 60.273 36.6586 60.3592 36.5509 60.4455C36.4432 60.5318 36.3139 60.6181 36.2062 60.6828C35.8399 60.9201 35.4305 61.0926 34.9564 61.2005C34.4824 61.3083 33.9437 61.3731 33.362 61.3299C32.9526 61.3083 32.5216 61.2652 32.1122 61.2005C30.647 61.0064 29.0957 60.5965 27.2642 60.1867C27.0918 60.1435 26.9194 60.122 26.7255 60.0788C26.4454 60.0141 26.1653 59.971 25.8852 59.9063C26.273 62.4947 26.51 64.2204 26.7686 65.9676C25.5404 66.6794 23.3642 66.5069 21.1448 65.7735C21.0156 65.7303 20.9078 65.6872 20.8001 65.644C20.4984 65.5362 20.1752 65.4068 19.8736 65.2773C19.7227 65.2126 19.5504 65.1479 19.3995 65.0616C19.2056 64.9753 19.0117 64.8675 18.8178 64.7812C18.7316 64.7381 18.6238 64.6949 18.5377 64.6302C18.2145 64.4576 17.8697 64.2635 17.568 64.0694C17.4603 64.0047 17.3526 63.94 17.2664 63.8752C17.0509 63.7242 16.8354 63.5733 16.62 63.4007L16.4691 63.2713C16.4261 63.2497 16.383 63.2066 16.3399 63.1634C16.2968 63.1203 16.2537 63.0771 16.189 63.034C15.6504 62.5594 15.1763 62.0633 14.8316 61.5456C11.5995 56.7138 12.3321 53.1547 18.1067 48.4091C19.1841 51.3212 20.5846 53.6939 22.7178 55.3549C23.1487 55.7 23.6012 56.002 24.0968 56.2824C24.3338 56.4334 24.5923 56.5628 24.8509 56.6922C24.9802 56.7569 25.1095 56.8217 25.2603 56.8864C25.4327 56.9727 25.6051 57.0374 25.7774 57.1021C25.8636 57.1452 25.9498 57.1668 26.036 57.2099C26.0575 57.2099 26.0791 57.2315 26.1006 57.2315C26.1653 57.2531 26.2084 57.2746 26.273 57.2962C26.2946 57.2962 26.2946 57.3178 26.3161 57.3178C26.3592 57.3394 26.4023 57.3393 26.4238 57.3609C26.4885 57.3825 26.5316 57.4041 26.5962 57.4256C26.6824 57.4472 26.7901 57.4903 26.8763 57.5119C26.9625 57.5335 27.0487 57.5551 27.1349 57.5982C27.1995 57.6198 27.2642 57.6413 27.3504 57.6629L27.4581 57.6845C27.8459 56.0667 28.1045 54.7077 28.4923 53.3919C28.8371 52.2487 29.3542 51.3212 30.0653 50.674C30.1515 50.5878 30.2376 50.523 30.3454 50.4368C30.5393 50.2858 30.7332 50.1779 30.9702 50.0701C31.078 50.0269 31.1857 49.9622 31.315 49.9406C32.0045 49.6818 32.8233 49.6171 33.7713 49.7465C34.0946 49.7896 34.4178 49.8759 34.7194 50.0053C34.7841 50.0269 34.8487 50.0485 34.9133 50.0916C34.9349 50.0916 34.9349 50.0916 34.9564 50.1132C34.978 50.1132 34.978 50.1348 34.9995 50.1348C35.0642 50.1563 35.1288 50.1995 35.1719 50.2211C35.3012 50.2858 35.4305 50.3505 35.5597 50.4368C35.6244 50.4799 35.689 50.523 35.7537 50.5662C35.8829 50.6525 35.9907 50.7387 36.12 50.825C36.2277 50.9113 36.357 51.0192 36.4647 51.127C36.4863 51.1486 36.5294 51.1702 36.5509 51.2133C36.5724 51.2349 36.6155 51.2564 36.6371 51.2996C36.7664 51.429 36.8741 51.5584 36.9818 51.6879C37.0896 51.8173 37.1973 51.9683 37.305 52.0977C38.1885 53.3919 38.6841 55.0313 38.447 56.5844Z" fill="#4C6589"></path>
<path d="M158.965 48.3478C153.966 39.6548 142.546 34.2406 134.445 36.9585C124.124 40.4098 116.819 47.3987 112.014 57.0407C111.454 58.1408 112.079 59.8233 112.251 61.2901C112.23 61.3333 112.187 61.3764 112.165 61.4196C108.998 67.7397 104.99 73.6932 102.404 81.7175C109.256 77.7701 114.363 73.456 121.129 74.3619C125.46 76.4758 125.977 79.5389 122.852 83.7236C133.281 83.7883 142.417 83.8745 150.799 78.8486C162.219 72.0539 165.558 59.8233 158.965 48.3478ZM114.621 57.3859C114.621 57.3643 114.621 57.3643 114.621 57.3859V57.3859ZM143.925 69.0124C143.602 69.0771 143.279 69.1203 142.956 69.185C142.632 69.2497 142.309 69.2928 141.986 69.3575C140.542 69.6164 139.034 69.8752 137.526 70.1557C136.19 70.3929 134.854 70.6302 133.497 70.889C133.389 70.4361 133.281 70.0047 133.195 69.5732C135.5 68.883 137.827 68.2143 140.133 67.524C140.111 67.2652 140.068 67.0279 140.047 66.7691C139.724 66.7475 139.379 66.7044 139.056 66.6828C138.732 66.6612 138.388 66.6181 138.065 66.5965C137.569 66.5534 137.073 66.5102 136.578 66.4671C136.082 66.4239 135.587 66.3808 135.113 66.3377C134.143 66.2514 133.173 66.1651 132.204 66.0788C128.498 61.7863 128.002 58.7448 130.48 54.5385C130.631 54.3013 130.76 54.0424 130.911 53.8267C130.932 53.7836 130.976 53.7404 130.997 53.6973C131.062 53.611 131.126 53.5247 131.169 53.4169C131.234 53.3306 131.299 53.2443 131.363 53.158C131.493 52.9855 131.622 52.8345 131.751 52.6619C131.816 52.5756 131.881 52.5109 131.967 52.4462C132.01 52.403 132.053 52.3599 132.096 52.3168C132.139 52.2736 132.182 52.2305 132.225 52.1873C132.268 52.1442 132.311 52.1011 132.355 52.0795C132.398 52.0363 132.441 52.0148 132.484 51.9716C132.57 51.9069 132.635 51.8422 132.721 51.7991C132.764 51.7775 132.785 51.7559 132.829 51.7344C132.936 51.6696 133.044 51.6049 133.152 51.5402C133.195 51.5186 133.238 51.4971 133.26 51.4755C133.346 51.4324 133.432 51.4108 133.497 51.3677C133.561 51.3461 133.604 51.3245 133.669 51.3029C133.734 51.2814 133.777 51.2814 133.841 51.2598C133.906 51.2382 133.949 51.2382 134.014 51.2167C134.315 51.1519 134.639 51.1519 134.983 51.1735C135.091 51.1951 135.22 51.1951 135.35 51.2167C135.587 51.2598 135.845 51.3245 136.125 51.4108C136.19 51.4324 136.255 51.4539 136.298 51.4755C136.427 51.5187 136.535 51.5618 136.664 51.6265C136.923 51.7344 137.181 51.8638 137.461 52.0363C137.095 52.856 136.772 53.611 136.427 54.4091C136.341 54.6032 136.255 54.7974 136.168 55.0131C135.91 55.6171 135.63 56.2426 135.328 56.9329C135.414 56.9329 135.5 56.9329 135.587 56.9329C135.716 56.9329 135.867 56.9113 135.996 56.9113C136.061 56.9113 136.125 56.9113 136.19 56.8897C136.341 56.8682 136.492 56.8682 136.621 56.8466C136.707 56.825 136.793 56.825 136.858 56.8034C136.901 56.8034 136.966 56.7819 137.009 56.7819C137.116 56.7603 137.224 56.7387 137.332 56.7172C137.871 56.6093 138.366 56.4368 138.819 56.2426C138.905 56.1995 139.013 56.1563 139.099 56.1132C139.185 56.07 139.293 56.0269 139.379 55.9622C139.422 55.9406 139.465 55.9191 139.508 55.8975C139.551 55.8759 139.594 55.8543 139.637 55.8112C139.724 55.7681 139.81 55.7033 139.896 55.6386C139.961 55.5955 140.004 55.5739 140.068 55.5308C140.111 55.5092 140.155 55.4661 140.198 55.4445C140.284 55.3798 140.37 55.3151 140.456 55.2504C140.629 55.1209 140.801 54.9699 140.952 54.819C141.081 54.7111 141.189 54.6032 141.297 54.4954C141.297 54.4954 141.297 54.4954 141.297 54.4738C141.404 54.3444 141.534 54.2365 141.641 54.1071C141.727 54.0208 141.792 53.9346 141.857 53.8483C141.921 53.762 141.986 53.6757 142.051 53.5894C142.115 53.5031 142.202 53.4169 142.266 53.309C142.331 53.2227 142.395 53.1364 142.439 53.0717C142.546 52.9207 142.632 52.7913 142.74 52.6403C142.805 52.554 142.848 52.4678 142.913 52.3599C142.956 52.2952 142.999 52.2305 143.042 52.1658C143.106 52.0363 143.193 51.9285 143.257 51.7991C143.925 50.6774 144.507 49.4694 145.132 48.2615C145.153 48.2831 145.175 48.3046 145.197 48.3046C145.218 48.3262 145.24 48.3478 145.261 48.3478C145.412 48.4556 145.563 48.5635 145.714 48.6713C145.8 48.736 145.908 48.8008 145.994 48.887C146.08 48.9518 146.166 49.0165 146.274 49.1027C146.36 49.1675 146.446 49.2322 146.532 49.3185C146.619 49.3832 146.705 49.4479 146.769 49.5342C146.856 49.5989 146.942 49.6636 147.006 49.7499C147.394 50.095 147.739 50.4401 148.062 50.7852C148.105 50.8284 148.148 50.8715 148.192 50.9362C148.235 51.001 148.299 51.0441 148.342 51.1088C148.385 51.1735 148.429 51.2167 148.472 51.2814C148.601 51.4539 148.73 51.6049 148.86 51.7775C148.903 51.8422 148.946 51.8854 148.967 51.9501C149.01 52.0148 149.053 52.0795 149.097 52.1442C149.269 52.403 149.42 52.6619 149.527 52.9207C149.549 52.9855 149.571 53.0286 149.614 53.0933C149.635 53.158 149.657 53.2012 149.678 53.2443C149.764 53.4384 149.829 53.611 149.872 53.8051C149.894 53.8698 149.915 53.913 149.915 53.9777V53.9993C149.937 54.064 149.937 54.1071 149.958 54.1718C150.001 54.3013 150.023 54.4307 150.045 54.5601C150.045 54.6032 150.066 54.6464 150.066 54.6895C150.088 54.7542 150.088 54.819 150.088 54.8837C150.088 54.9268 150.109 54.9915 150.109 55.0347C150.131 55.1425 150.131 55.2288 150.131 55.3366C150.131 55.3582 150.131 55.3582 150.131 55.3582C150.131 55.4661 150.131 55.5524 150.131 55.6602C150.195 60.1038 145.369 64.2669 143.925 69.0124Z" fill="#4C6589"></path>
<path d="M91.5706 85.833C91.6783 85.9193 91.786 86.0056 91.8938 86.0919C91.7645 86.0271 91.6137 85.984 91.4844 85.9193L91.5706 85.833Z" fill="#4C6589"></path>
<path d="M123.466 101.084C121.548 102.443 119.781 104.212 117.669 105.096C105.582 110.101 93.4292 114.911 81.5353 119.678C67.422 113.573 53.6966 107.641 39.1309 101.321C47.5988 94.9148 56.5408 91.7655 66.1292 89.2418C64.19 91.5067 62.2723 93.7716 60.096 96.2954C64.9226 102.551 71.7745 105.614 78.6911 109.367C87.159 105.312 96.4242 102.529 102.824 94.7854H102.888C99.2253 91.8734 95.5839 88.9613 91.9209 86.0493C102.393 90.385 112.865 94.7423 123.336 99.078C123.379 99.7682 123.423 100.437 123.466 101.084Z" fill="#4C6589"></path>
<path d="M109.826 137.211C119.005 123.126 133.334 113.57 141.996 98.7079C141.608 97.198 141.328 95.5155 140.746 93.9408C140.164 92.3446 139.259 90.8562 138.29 88.8933C141.048 88.0952 143.202 87.4697 145.379 86.8225C145.336 86.65 145.292 86.4774 145.271 86.3048C142.836 86.4127 140.401 86.5205 137.945 86.65C137.88 86.2186 137.794 85.7871 137.729 85.3773C141.5 84.5145 145.249 83.6517 149.236 82.7241C153.545 87.3834 157.725 91.9132 162.595 97.1549C146.025 112.146 127.042 123.493 109.826 137.211Z" fill="#4C6589"></path>
<path d="M52.7685 137.218C43.5895 123.133 29.2608 113.577 20.5989 98.7148C20.9867 97.2048 21.2668 95.5223 21.8486 93.9477C22.4304 92.3514 23.3353 90.8631 24.305 88.9002C21.5469 88.102 19.3923 87.4765 17.216 86.8294C17.2591 86.6568 17.3022 86.4842 17.3237 86.3117C19.7586 86.4195 22.1934 86.5274 24.6497 86.6568C24.7144 86.2254 24.8005 85.794 24.8652 85.3841C21.0945 84.5213 17.3453 83.6585 13.3591 82.731C9.04972 87.3902 4.86961 91.92 0 97.1617C16.5481 112.153 35.5525 123.499 52.7685 137.218Z" fill="#4C6589"></path>
<path d="M122.153 107.837C118.684 109.821 115.236 111.871 111.702 113.769C107.975 115.775 85.4367 125.956 82.4848 125.719C82.4848 125.719 76.1285 123.411 72.9395 122.009C64.4931 118.299 55.8312 115.128 47.3202 111.547C45.187 110.663 43.3125 109.153 41.3086 107.923C41.481 107.513 41.6318 107.103 41.8042 106.694C55.1417 111.763 69.0611 116.94 82.4633 122.03C95.65 116.918 108.255 111.741 121.442 106.629C121.7 107.06 121.916 107.449 122.153 107.837Z" fill="#4C6589"></path>
<path d="M57.0064 147.182C53.3004 148.649 50.7363 149.685 47.5258 150.957C36.4291 143.321 25.0954 135.513 13.7617 127.704C14.0203 127.273 14.2788 126.841 14.5159 126.431C28.6291 132.557 43.4965 137.13 57.0064 147.182Z" fill="#4C6589"></path>
<path d="M149.714 127.813C138.467 135.556 127.241 143.322 115.993 151.066C113.257 149.922 110.951 148.952 107.568 147.528C121.445 138.943 135.127 132.386 149.003 126.195C149.24 126.734 149.477 127.273 149.714 127.813Z" fill="#4C6589"></path>
</svg>