<svg width="514" height="503" viewBox="0 0 514 503" fill="none" xmlns="http://www.w3.org/2000/svg">
<path d="M501.422 209.787C506.555 213.741 510.764 218.258 512.684 224.529C514.221 237.861 511.648 247.716 505.684 259.529C504.927 261.056 504.927 261.056 504.155 262.615C497 277.002 489.41 291.034 480.684 304.529C480.066 305.493 480.066 305.493 479.436 306.477C470.429 320.496 460.404 333.777 449.684 346.529C448.82 347.58 447.957 348.63 447.094 349.681C435.612 363.514 422.96 376.573 408.684 387.529C407.598 388.401 406.515 389.277 405.434 390.154C350.763 434.281 294.014 435.171 226.812 429.365C225.635 429.265 224.458 429.166 223.245 429.063C217.401 428.569 211.561 428.054 205.722 427.499C203.573 427.312 201.423 427.127 199.273 426.943C198.291 426.841 197.308 426.739 196.296 426.634C191.721 426.265 189.365 426.168 185.221 428.362C184.384 429.077 183.546 429.792 182.684 430.529C181.632 431.271 180.58 432.014 179.496 432.779C175.822 436.501 175.438 441.462 174.796 446.44C173.454 456.237 168.577 462.236 161.664 469.045C160.887 469.823 160.11 470.601 159.31 471.403C157.673 473.038 156.032 474.668 154.385 476.294C151.877 478.773 149.388 481.271 146.9 483.771C145.302 485.363 143.702 486.955 142.102 488.545C141.363 489.286 140.624 490.028 139.863 490.792C132.19 498.328 125.879 501.68 115.059 501.904C114.397 501.941 113.736 501.979 113.055 502.017C104.131 502.171 97.4534 497.556 91.1614 491.59C89.163 489.616 87.1974 487.612 85.2344 485.603C84.1679 484.53 83.1003 483.458 82.0318 482.386C79.2399 479.581 76.4638 476.761 73.6904 473.937C71.4369 471.648 69.1722 469.371 66.9068 467.093C64.1788 464.35 61.4559 461.602 58.7344 458.853C57.9712 458.083 57.9712 458.083 57.1927 457.297C52.0875 452.134 47.092 446.924 42.3589 441.415C39.2478 437.912 35.8719 434.677 32.5195 431.408C30.9696 429.88 29.4201 428.352 27.8711 426.824C25.462 424.452 23.0499 422.083 20.6299 419.722C18.2713 417.418 15.9259 415.102 13.582 412.783C12.8642 412.089 12.1464 411.395 11.4068 410.68C5.31723 404.622 0.0829419 398.099 0 389.183C0.0193359 388.493 0.0386719 387.803 0.0585938 387.091C0.0392578 386.405 0.0199219 385.719 0 385.011C0.0863324 375.713 5.20818 368.446 11.5337 362.035C12.6385 360.955 12.6385 360.955 13.7656 359.853C14.9251 358.694 14.9251 358.694 16.1081 357.511C17.7335 355.89 19.365 354.276 21.0022 352.668C23.4929 350.22 25.9614 347.75 28.4277 345.277C30.0183 343.697 31.61 342.118 33.2031 340.541C33.9336 339.81 34.6641 339.08 35.4167 338.328C43.2144 330.706 49.2288 326.529 60.2461 326.529C67.9836 325.986 71.7129 323.268 77.1675 317.972C80.0697 315.209 83.1454 312.64 86.1836 310.029C87.4755 308.904 88.7672 307.779 90.0586 306.654C93.0562 304.056 96.1002 301.525 99.1836 299.029C103.553 295.489 107.817 291.845 112.059 288.154C118.312 282.713 124.583 277.298 130.944 271.984C132.169 270.96 133.391 269.932 134.61 268.902C147.115 258.363 158.871 250.436 174.684 245.529C175.427 245.281 176.171 245.034 176.938 244.779C195.938 239.425 213.377 246.282 230.363 254.239C258.519 267.392 282.903 270.685 313.723 270.478C314.686 270.473 315.649 270.468 316.641 270.462C321.445 270.436 326.248 270.392 331.051 270.317C348.673 270.121 366.295 271.34 380.059 283.654C381.684 285.529 381.684 285.529 381.684 287.529C397.926 273.649 408.841 257.553 419.946 239.473C424.867 231.48 430.029 224.196 436.684 217.529C437.525 216.67 437.525 216.67 438.383 215.795C454.896 200.281 482.457 197.51 501.422 209.787ZM450.684 238.529C446.005 244.897 441.882 251.61 437.695 258.306C432.034 267.357 426.395 276.207 419.684 284.529C419.241 285.079 418.798 285.628 418.342 286.194C410.609 295.711 402.053 306.165 391.398 312.474C387.965 315.072 387.752 316.589 387.121 320.779C385.401 329.618 381.936 335.254 374.98 340.994C363.351 348.766 348.584 348.898 335.121 349.154C334.313 349.171 333.505 349.189 332.672 349.206C326.01 349.348 319.347 349.441 312.684 349.529C311.505 349.546 310.327 349.562 309.113 349.58C301.385 349.688 293.658 349.767 285.93 349.814C283.353 349.832 280.776 349.857 278.199 349.888C274.555 349.93 270.913 349.946 267.27 349.955C266.172 349.972 265.075 349.99 263.944 350.008C256.444 349.986 256.444 349.986 252.522 347.627C249.213 343.85 249.402 340.879 249.473 336.009C249.752 332.723 250.419 330.944 252.684 328.529C258.472 325.828 264.542 326.196 270.797 326.15C272.583 326.125 272.583 326.125 274.405 326.1C276.952 326.065 279.498 326.035 282.044 326.008C286.008 325.966 289.971 325.912 293.934 325.853C299.145 325.775 304.357 325.701 309.569 325.629C321.87 325.458 321.87 325.458 334.169 325.2C336.117 325.155 338.065 325.126 340.013 325.097C347.861 324.893 355.869 324.435 362.309 319.529C364.428 314.904 364.308 310.528 363.684 305.529C362.074 301.666 360.109 299.832 356.684 297.529C349.034 294.769 340.525 295.247 332.503 295.255C330.131 295.256 327.761 295.242 325.39 295.226C318.654 295.18 311.919 295.155 305.184 295.148C271.438 295.1 245.731 288.57 214.913 274.973C213.966 274.556 213.966 274.556 213 274.131C211.271 273.369 209.544 272.604 207.817 271.838C195.806 266.819 185.709 267.784 173.684 272.529C164.629 276.38 157.736 282.452 150.486 288.928C147.565 291.522 144.592 294.055 141.621 296.591C140.454 297.591 139.288 298.591 138.121 299.591C133.196 303.805 128.245 307.988 123.292 312.17C120.588 314.454 117.886 316.742 115.184 319.029C111.864 321.838 108.544 324.647 105.223 327.455C99.6945 332.129 94.171 336.807 88.6836 341.529C92.7224 346.374 96.9507 350.937 101.423 355.382C102.068 356.027 102.713 356.672 103.377 357.336C105.484 359.443 107.596 361.547 109.707 363.65C111.178 365.12 112.65 366.589 114.121 368.059C117.975 371.91 121.833 375.758 125.691 379.605C129.634 383.538 133.575 387.474 137.516 391.41C145.235 399.119 152.959 406.825 160.684 414.529C161.227 414.117 161.77 413.706 162.33 413.282C163.046 412.742 163.762 412.202 164.499 411.645C165.208 411.11 165.916 410.575 166.646 410.023C169.128 408.203 171.651 406.656 174.371 405.216C175.262 404.725 176.153 404.234 177.07 403.728C188.794 399.837 201.529 401.953 213.576 403.05C219.135 403.551 224.698 404.01 230.262 404.466C231.389 404.559 232.517 404.652 233.678 404.747C290.015 409.296 336.791 409.955 383.684 374.529C384.627 373.819 385.571 373.108 386.543 372.377C392.282 367.908 397.605 363.013 402.926 358.064C405.075 356.089 407.244 354.195 409.496 352.341C412.552 349.755 415.106 346.881 417.691 343.83C419.989 341.176 422.399 338.644 424.809 336.091C431.682 328.691 437.679 320.637 443.684 312.529C444.126 311.939 444.568 311.349 445.023 310.741C461.191 289.112 482.937 259.271 488.684 232.529C483.288 228.008 479.638 227.164 472.727 227.255C463.838 228.054 456.478 231.79 450.684 238.529ZM56.9118 352.82C56.0191 353.726 56.0191 353.726 55.1084 354.65C54.428 355.331 53.7476 356.011 53.0466 356.713C52.3235 357.456 51.6004 358.2 50.8555 358.966C50.1065 359.721 49.3575 360.476 48.5858 361.253C46.1922 363.669 43.8129 366.099 41.4336 368.529C39.8147 370.168 38.1949 371.806 36.5742 373.443C32.6001 377.461 28.6375 381.491 24.6836 385.529C26.3765 389.137 28.3657 391.43 31.2266 394.232C32.5907 395.58 32.5907 395.58 33.9824 396.955C34.9449 397.896 35.9078 398.838 36.8711 399.779C38.742 401.615 40.6106 403.453 42.4766 405.295C43.7222 406.513 43.7222 406.513 44.9929 407.756C46.9753 409.799 48.8245 411.839 50.6685 413.998C56.1912 420.363 62.2002 426.273 68.1328 432.252C69.0921 433.219 69.0921 433.219 70.0707 434.206C73.4438 437.605 76.8204 441.001 80.1995 444.395C82.993 447.202 85.779 450.016 88.5588 452.836C91.9275 456.254 95.3081 459.66 98.6979 463.057C99.9856 464.351 101.269 465.65 102.548 466.953C104.329 468.765 106.124 470.561 107.925 472.353C108.451 472.896 108.977 473.439 109.519 473.998C112.21 476.775 112.21 476.775 115.833 477.539C117.911 476.405 119.38 475.214 121.059 473.541C121.696 472.914 122.334 472.286 122.99 471.639C123.666 470.957 124.342 470.275 125.039 469.572C125.741 468.872 126.444 468.173 127.167 467.453C128.649 465.973 130.127 464.489 131.602 463.001C133.862 460.725 136.138 458.465 138.416 456.207C139.854 454.767 141.291 453.326 142.727 451.884C143.409 451.208 144.091 450.532 144.794 449.835C145.422 449.198 146.049 448.561 146.696 447.905C147.527 447.07 147.527 447.07 148.375 446.218C149.915 444.231 150.407 443.028 150.684 440.529C149.559 438.578 149.559 438.578 147.757 436.8C147.104 436.102 146.452 435.404 145.78 434.684C145.088 433.973 144.396 433.262 143.684 432.529C143.046 431.864 142.408 431.198 141.751 430.513C139.691 428.385 137.607 426.283 135.517 424.185C134.732 423.394 133.948 422.603 133.139 421.788C130.57 419.198 127.996 416.613 125.422 414.029C124.54 413.143 123.657 412.256 122.748 411.343C118.569 407.145 114.388 402.949 110.203 398.756C105.383 393.927 100.572 389.089 95.7675 384.244C91.5927 380.035 87.407 375.838 83.2173 371.644C81.4393 369.861 79.6646 368.075 77.8934 366.285C75.4256 363.793 72.9456 361.314 70.4622 358.838C69.7301 358.093 68.9981 357.348 68.2439 356.58C67.567 355.91 66.89 355.24 66.1926 354.55C65.6081 353.963 65.0235 353.376 64.4212 352.772C61.7495 350.861 59.5572 350.892 56.9118 352.82Z" fill="currentColor"/>
<path d="M305.52 13.5679C311.015 18.5474 316.117 23.6791 320.684 29.5289C321.558 28.3861 321.558 28.3861 322.449 27.2203C335.312 11.0201 350.257 3.14036 370.684 0.528884C389.054 -1.03593 407.492 4.05169 421.832 15.8648C422.749 16.6885 422.749 16.6885 423.684 17.5289C424.48 18.2224 425.277 18.9159 426.098 19.6304C437.852 30.5329 445.658 45.7537 446.861 61.9063C448.029 109.083 424.143 146.564 394.684 181.529C394.251 182.046 393.819 182.563 393.374 183.096C385.748 192.208 377.742 200.912 369.567 209.532C367.778 211.428 366.005 213.338 364.238 215.255C356.858 223.245 349.295 231.045 341.63 238.759C340.546 239.85 339.465 240.942 338.385 242.036C336.861 243.578 335.33 245.113 333.797 246.646C332.908 247.539 332.019 248.432 331.103 249.353C327.063 252.987 324.336 253.747 318.879 253.99C311.89 252.522 306.607 245.726 301.813 240.888C300.972 240.047 300.131 239.206 299.265 238.34C297.492 236.564 295.721 234.785 293.953 233.004C291.264 230.297 288.567 227.598 285.869 224.9C284.141 223.167 282.414 221.434 280.688 219.701C279.889 218.902 279.091 218.102 278.269 217.279C274.097 213.072 270.069 208.793 266.212 204.294C263.665 201.353 260.977 198.546 258.309 195.716C252.829 189.854 247.687 183.804 242.684 177.529C241.776 176.435 240.868 175.343 239.957 174.252C214.145 143.059 190.181 103.557 193.957 61.482C196.292 44.8296 204.066 31.3869 215.684 19.5289C216.275 18.9011 216.867 18.2733 217.477 17.6265C239.621 -3.93088 281.752 -6.2238 305.52 13.5679ZM236.684 34.5289C235.776 35.1476 234.869 35.7664 233.934 36.4039C224.552 45.2639 218.893 57.149 218.371 70.0289C219.122 98.5721 233.92 124.306 250.684 146.529C251.537 147.679 252.389 148.828 253.242 149.978C261.855 161.472 271.363 172.221 281.121 182.748C283.407 185.229 285.642 187.746 287.871 190.279C292.645 195.614 297.73 200.631 302.837 205.645C306.743 209.501 310.427 213.447 313.941 217.665C316.011 219.879 318.286 221.682 320.684 223.529C324.404 219.833 328.121 216.135 331.835 212.433C333.096 211.177 334.357 209.922 335.62 208.668C344.664 199.717 344.664 199.717 353.186 190.274C355.865 187.152 358.73 184.202 361.559 181.216C366.355 176.11 370.979 170.936 375.348 165.455C377.132 163.22 378.937 161.016 380.77 158.822C397.516 138.689 412.347 115.89 419.684 90.5289C419.91 89.7567 420.137 88.9846 420.371 88.189C423.663 74.8158 422.924 60.2493 416.363 48.0797C409.44 36.9381 399.942 29.4626 387.121 26.1539C375.558 24.1366 363.491 25.4116 353.598 32.0523C348.62 35.8924 344.868 39.2206 341.309 44.4664C340.931 45.0198 340.553 45.5732 340.163 46.1434C336.585 51.4742 333.515 57.0603 330.508 62.7281C328.658 65.5682 327.864 66.5518 324.684 67.5289C322.5 67.8648 322.5 67.8648 320.246 67.9039C319.505 67.9322 318.764 67.9606 318 67.9898C314.595 67.3122 313.144 65.989 310.684 63.5289C308.904 60.7731 307.428 57.884 305.934 54.9664C299.344 42.6878 292.493 32.3253 278.77 27.5054C263.561 23.2219 249.656 25.5368 236.684 34.5289Z" fill="currentColor"/>
</svg>
