<svg width="512" height="512" viewBox="0 0 512 512" fill="none" xmlns="http://www.w3.org/2000/svg">
<path d="M92 0H420L438 4L453 10L465 17L474 24L484 33L493 44L501 57L507 71L511 86L512 92V420L508 438L502 453L493 468L482 481L471 491L455 501L441 507L426 511L420 512H92L74 508L59 502L44 493L31 482L21 471L11 455L5 441L1 426L0 420V92L4 74L10 59L17 47L27 34L35 26L47 17L61 9L77 3L92 0ZM100 43L84 47L72 53L61 62L52 74L47 84L43 100V412L47 428L54 441L62 451L74 460L84 465L100 469H412L428 465L440 459L451 450L460 438L465 428L468 418L469 411V100L465 84L459 72L450 61L438 52L428 47L412 43H100Z" fill="currentColor"/>
<path d="M121 192H391L399 197L404 203L406 209V217L402 227L395 233L390 235H122L114 231L109 225L106 217V209L110 200L117 194L121 192Z" fill="currentColor"/>
<path d="M186 277H390L398 281L403 287L406 295V303L402 312L395 318L391 320H185L177 315L172 309L170 303V295L174 285L181 279L186 277Z" fill="currentColor"/>
<path d="M252 362H388L396 365L401 370L405 376L406 380V388L403 396L398 401L392 405L388 406H252L244 403L239 398L235 392L234 388V380L237 372L242 367L248 363L252 362Z" fill="currentColor"/>
<path d="M316 106H388L396 109L401 114L405 120L406 124V132L403 140L398 145L392 149L388 150H316L308 147L303 142L299 136L298 132V124L301 116L306 111L312 107L316 106Z" fill="currentColor"/>
</svg>
