<svg width="174" height="174" viewBox="0 0 174 174" fill="none" xmlns="http://www.w3.org/2000/svg">
<path d="M139.779 86.4767C141.792 83.1063 141.237 80.2861 140.658 77.4888C138.345 66.1851 133.28 56.1883 125.901 47.315C124.536 45.6642 123.31 43.8757 121.344 41.1931C134.552 45.1597 147.505 67.5837 148.569 88.7237C149.263 102.618 145.053 115.367 133.465 125.409C130.55 123.116 128.168 121.259 125.6 119.241C120.003 121.695 120.026 127.954 116.602 131.737C112.67 136.094 115.376 141.322 115.631 146.114C107.049 162.439 73.3942 163.7 61.8982 147.994C62.8928 143.775 63.9568 139.396 65.1365 134.374C67.172 135.406 68.7912 136.163 70.3641 137.057C77.0026 140.794 84.0806 142.33 91.6906 141.482C100.457 140.519 108.391 132.425 109.154 123.575C109.154 123.46 108.877 123.323 107.581 122.268C107.35 122.956 107.234 123.873 106.772 124.561C98.9305 136.323 85.9079 138.157 73.7411 132.425C68.3748 129.903 63.9337 125.386 59.1688 121.649C57.7578 120.548 56.6938 118.989 55.491 117.682C49.3614 122.337 46.6551 129.192 46.47 139.808C43.81 140.771 42.214 138.799 40.5717 137.424C32.661 130.82 28.243 122.176 25.8605 112.363C24.8428 108.144 23.7094 103.879 25.3979 97.8034C27.7804 102.687 29.5615 106.356 32.0364 111.446C33.6325 108.603 34.7659 107.204 35.2516 105.599C37.0095 99.5689 38.4899 93.4699 40.1553 87.4397C42.6766 78.3601 49.3614 73.5451 58.8218 74.0266C59.5851 74.0725 60.3253 74.5998 61.69 75.173C60.7879 76.9614 59.8627 78.4977 59.2382 80.1485C57.1101 85.7889 54.7739 91.4064 53.1779 97.2072C52.4377 99.9128 51.7669 103.329 55.6066 106.7C56.3237 102.893 56.9714 99.9587 57.3877 96.978C58.3592 90.0994 61.2274 84.138 66.4087 79.4606C71.6594 74.7374 76.5631 69.8995 76.4243 62.1955C80.1484 62.1955 83.2247 62.1955 86.4862 62.1955C79.8014 57.7245 78.8993 57.4035 73.6717 57.6787C71.7519 59.169 69.7627 60.7281 67.7503 62.2873C67.4033 61.8746 67.0795 61.4848 66.7325 61.0721C68.8606 54.8355 74.1806 51.7173 80.1021 49.6996C87.0182 47.3379 94.0268 47.0628 101.22 51.5109C99.1849 54.6062 97.4964 57.1742 95.5766 60.0861C95.7616 65.3597 98.6992 68.8448 103.58 71.4816C108.368 74.0725 113.04 77.0073 117.227 80.4236C122.755 84.9176 126.155 90.9478 127.659 97.941C127.867 98.9498 128.307 99.9128 128.677 100.876C128.746 101.036 129.024 101.082 129.463 101.334C133.719 91.2917 129.116 83.2438 123.01 75.3794C127.775 73.8203 130.805 75.9067 133.326 78.3372C135.685 80.5612 137.397 83.4273 139.779 86.4767ZM93.541 102.022C97.6352 104.728 98.8611 107.387 97.6814 110.804C96.4324 114.404 93.8649 116.765 90.002 117.568C84.6357 118.668 80.4722 116.467 77.072 112.638C73.533 108.626 73.0472 103.971 75.0365 99.1332C78.0897 91.7044 84.1731 88.3798 91.8756 87.8524C98.3291 87.4168 106.541 93.1718 109.224 99.6377C110.195 101.976 110.935 104.407 112.138 107.8C112.809 106.012 113.156 105.484 113.202 104.934C113.965 94.731 107.905 86.729 96.8025 83.2668C84.6357 79.4606 72.0526 86.6143 68.2823 99.5001C64.9977 110.735 72.122 122.314 84.2425 125.409C90.9504 127.129 96.2473 124.561 100.665 119.792C104.968 115.137 105.291 109.772 103.325 103.971C100.573 95.8774 90.3259 93.4928 83.2247 100.738C81.4205 102.595 81.1892 104.774 82.739 107.777C83.9649 108.075 85.6535 108.465 86.7406 108.717C89.3775 106.103 91.3899 104.132 93.541 102.022Z" fill="#4C6589"></path>
<path d="M113.647 28.992C111.958 32.1561 107.633 28.4646 107.378 33.142C108.373 33.7152 109.506 34.4031 110.709 35.1139C112.791 39.6078 109.807 42.5885 107.332 45.7756C108.165 47.243 108.951 48.6416 109.876 50.3154C108.905 50.453 108.234 50.774 107.771 50.5905C102.683 48.7104 97.7558 46.0507 92.5051 44.9502C85.0108 43.391 77.9097 45.5234 72.1038 50.109C58.6418 43.5744 56.4443 40.8001 58.2254 32.5229C59.6364 32.1561 61.2093 31.7434 62.2964 31.4682C67.3158 22.0905 76.6143 22.1822 84.7795 21.2651C94.1012 20.1875 103.168 22.7554 111.611 26.8826C112.421 27.2723 112.953 28.2583 113.647 28.992Z" fill="#4C6589"></path>
<path d="M104.16 18.5162C100.76 17.943 98.331 17.4844 95.8791 17.1405C78.2998 14.7101 63.5424 20.7861 50.6586 32.0898C38.006 43.1872 30.8818 57.4028 27.2734 73.5444C26.8108 75.6309 26.0937 77.6715 25.3304 80.2624C22.069 78.0154 22.6704 75.7685 23.0173 73.5444C25.4692 58.0677 31.5757 44.196 42.5165 32.8235C47.559 27.5729 53.6655 23.3082 59.2169 18.5162C62.5246 15.6731 65.8786 12.83 68.8393 9.6429C74.5757 3.49808 81.6769 1.61795 89.5644 3.38344C97.105 5.05722 102.217 9.68876 104.16 18.5162Z" fill="#4C6589"></path>
<path d="M55.8792 171.609C56.92 167.16 57.9609 162.644 59.1637 157.439C61.9625 158.081 63.9286 158.516 65.8716 159.021C70.9604 160.305 76.026 161.704 81.1379 162.873C92.7264 165.51 103.228 162.758 113.058 156.545C114.631 155.559 116.297 154.733 118.563 153.472C122.172 159.388 124.369 165.349 125.179 171.861C119.026 173.512 61.7775 173.374 55.8792 171.609Z" fill="#4C6589"></path>
<path d="M156.58 147.513C154.175 156.249 149.757 162.049 142.956 167.025C136.896 161.132 138.122 152.947 135.485 146.16C132.409 146.825 129.54 147.421 126.695 148.04C126.395 147.582 126.117 147.123 125.816 146.664C136.086 137.768 146.241 128.78 150.751 113.854C151.908 116.399 152.509 117.339 152.741 118.348C152.949 119.334 152.926 120.457 152.741 121.466C151.029 130.66 150.798 139.717 156.58 147.513Z" fill="#4C6589"></path>
<path d="M52.571 155.627C50.1885 156.2 48.6388 156.59 46.7883 157.025C45.3774 162.184 43.9664 167.32 42.6248 172.227C38.2762 173.419 35.0148 172.135 32.6323 169.865C29.3478 166.724 26.4564 163.079 23.8889 159.341C22.8249 157.782 22.4548 155.283 22.7555 153.38C23.727 147.441 25.1148 141.549 26.4564 135.656C26.6183 134.991 27.451 134.464 28.2837 133.501C36.287 140.815 44.0589 147.877 52.571 155.627Z" fill="#4C6589"></path>
<path d="M170.97 64.4409C165.442 37.523 151.216 16.5205 127.114 1.02093C131.786 0.0808663 134.816 1.08972 137.569 2.87813C155.056 14.1589 166.506 29.9337 172.381 49.675C173.838 54.5588 172.612 59.4196 170.97 64.4409Z" fill="#4C6589"></path>
<path d="M2.45444 65.1974C6.98807 38.0731 20.4501 16.5892 43.9278 0.241222C39.2323 -0.515415 36.2484 0.585149 33.5421 2.46528C16.4948 14.3881 5.64648 30.5526 0.488331 50.4774C-0.783859 55.4299 0.627115 60.222 2.45444 65.1974Z" fill="#4C6589"></path>
<path d="M168.997 131.874C170.547 138.133 169.252 144.209 167.447 150.194C165.782 155.719 162.983 160.947 165.134 167.092C165.643 168.536 164.464 170.554 164.001 172.641C158.357 172.641 153.199 172.641 147.092 172.641C150.446 167.872 153.661 163.882 156.206 159.503C158.704 155.192 160.786 150.606 162.613 145.952C164.464 141.252 165.736 136.345 167.285 131.507C167.864 131.622 168.419 131.759 168.997 131.874Z" fill="#4C6589"></path>
<path d="M6.33765 137.948C9.0902 144.116 11.2645 150.352 14.5259 155.97C17.718 161.472 22.0434 166.31 26.6002 172.455C22.6448 172.662 19.5453 172.822 17.0703 172.96C13.9939 166.792 11.1951 161.495 8.69698 156.038C7.14722 152.645 5.82877 149.091 4.83415 145.514C4.14023 143.015 3.46944 140.218 6.33765 137.948Z" fill="#4C6589"></path>
</svg>