<svg width="163" height="174" viewBox="0 0 163 174" fill="none" xmlns="http://www.w3.org/2000/svg">
<path d="M35.7385 157.209V156.13C46.3181 157.338 54.549 151.212 63.8357 148.3C64.7838 146.574 65.7103 144.935 66.8739 142.843C67.9512 143.77 68.9639 144.633 69.9551 145.496C66.3352 134.171 59.3971 124.982 50.6706 116.936C51.0153 116.505 51.3385 116.095 51.6833 115.685C61.7241 119.784 71.765 123.904 82.3446 128.218C82.3661 128.196 82.3877 128.196 82.4092 128.175C82.4092 128.175 82.4308 128.175 82.4308 128.153C82.4308 128.153 82.4523 128.153 82.4523 128.175C82.4739 128.196 82.4954 128.196 82.517 128.218C93.0965 123.882 103.137 119.784 113.178 115.685C113.523 116.095 113.846 116.527 114.191 116.936C105.464 124.982 98.5263 134.171 94.9064 145.496C95.9192 144.633 96.9103 143.77 97.9877 142.843C99.1512 144.935 100.056 146.574 101.026 148.3C110.334 151.212 118.565 157.317 129.123 156.13V157.209L82.4954 173.02" fill="#4C6589"></path>
<path d="M101.591 9.19363C94.3078 0.88895 81.7891 -2.38978 71.662 1.85963C60.6084 6.49731 53.8211 16.8943 53.9073 29.4269C53.9504 34.5607 54.0797 39.7376 54.683 44.8067C54.9847 47.2442 56.0405 49.9405 57.6134 51.7956C59.7681 54.3409 62.7416 56.2175 65.4349 58.4393C67.6327 58.9786 70.52 59.712 73.6443 60.5101C75.7775 64.8242 77.8244 68.9442 80.41 74.1211C80.9918 71.6837 81.1857 70.4541 81.5736 69.2893C81.9614 68.1029 82.5001 66.9597 83.3404 64.9321C83.6636 68.1892 83.8791 70.3031 84.073 72.2876C88.2962 64.3065 92.3902 56.5195 96.5056 48.7541C96.1393 52.0328 95.7946 55.29 95.4283 58.5687C101.785 53.3487 104.586 45.9715 107.301 38.5728C111.287 27.6581 109.283 17.9729 101.591 9.19363ZM95.7946 23.9911C93.3167 31.2388 88.7056 37.106 82.3493 43.2967C83.6636 36.8471 84.4609 31.3682 78.2338 27.7659C78.1045 27.8738 77.9752 27.9816 77.846 28.0895C77.7813 28.1326 77.7167 28.1758 77.652 28.2405C77.4581 28.3915 77.2642 28.564 77.0703 28.715C76.3808 29.2759 75.6697 29.8583 74.9156 30.4838C74.7863 30.5917 74.6355 30.6995 74.5062 30.8289C74.0968 31.1741 73.6443 31.5192 73.1918 31.9075C69.615 26.4501 71.5543 21.1869 73.0194 15.9452C72.5239 15.7295 72.0067 15.5138 71.5112 15.2981C69.2918 18.4906 67.0725 21.6614 64.8747 24.8323C64.5946 24.7676 64.2929 24.7029 64.0128 24.6382C64.7239 22.5243 65.0255 20.1084 66.2322 18.3396C70.6493 11.89 77.0056 8.52494 84.7625 8.37395C93.0581 8.17981 98.5526 15.9884 95.7946 23.9911Z" fill="#4C6589"></path>
<path d="M49.1789 61.1357C50.1269 60.8337 51.0319 60.5317 52.3247 60.0788C47.412 48.4522 39.4828 40.0828 27.3734 36.7394C21.7065 35.1647 15.8027 36.157 11.8165 41.679C10.8253 43.0596 9.64023 44.4185 8.30432 45.4323C0.310404 51.5799 -1.49954 60.8984 3.13305 69.7424C8.64907 80.2473 23.969 85.8125 39.0734 82.8789C38.8579 80.8944 38.6424 78.8883 38.427 76.8607C47.5198 72.827 53.8115 77.8529 60.1894 82.5338C60.5988 82.0808 61.0081 81.6494 61.396 81.2179C57.3883 74.5742 53.3159 67.9305 49.1789 61.1357ZM38.4485 56.5843C38.233 58.0511 37.7375 59.3022 36.8756 60.165C36.7678 60.2729 36.6601 60.3592 36.5524 60.4455C36.4446 60.5317 36.3154 60.618 36.2076 60.6827C35.8413 60.92 35.4319 61.0926 34.9579 61.2004C34.4839 61.3083 33.9452 61.373 33.3634 61.3298C32.954 61.3083 32.5231 61.2651 32.1137 61.2004C30.6485 61.0063 29.0971 60.5964 27.2656 60.1866C27.0933 60.1435 26.9209 60.1219 26.727 60.0788C26.4468 60.014 26.1667 59.9709 25.8866 59.9062C26.2745 62.4947 26.5115 64.2203 26.7701 65.9675C25.5419 66.6794 23.3656 66.5068 21.1463 65.7734C21.017 65.7303 20.9093 65.6871 20.8015 65.644C20.4999 65.5361 20.1767 65.4067 19.875 65.2773C19.7242 65.2126 19.5518 65.1478 19.401 65.0616C19.2071 64.9753 19.0132 64.8674 18.8192 64.7811C18.733 64.738 18.6253 64.6949 18.5391 64.6302C18.2159 64.4576 17.8712 64.2635 17.5695 64.0693C17.4618 64.0046 17.354 63.9399 17.2678 63.8752C17.0524 63.7242 16.8369 63.5732 16.6214 63.4006L16.4706 63.2712C16.4275 63.2496 16.3844 63.2065 16.3413 63.1633C16.2982 63.1202 16.2551 63.0771 16.1905 63.0339C15.6518 62.5594 15.1778 62.0632 14.833 61.5456C11.601 56.7137 12.3336 53.1546 18.1082 48.4091C19.1855 51.3211 20.5861 53.6939 22.7192 55.3548C23.1502 55.6999 23.6027 56.0019 24.0982 56.2823C24.3352 56.4333 24.5938 56.5627 24.8524 56.6922C24.9817 56.7569 25.1109 56.8216 25.2618 56.8863C25.4341 56.9726 25.6065 57.0373 25.7789 57.102C25.8651 57.1452 25.9513 57.1667 26.0375 57.2099C26.059 57.2099 26.0806 57.2314 26.1021 57.2314C26.1667 57.253 26.2098 57.2746 26.2745 57.2961C26.296 57.2961 26.296 57.3177 26.3176 57.3177C26.3607 57.3393 26.4038 57.3393 26.4253 57.3609C26.4899 57.3824 26.533 57.404 26.5977 57.4256C26.6839 57.4471 26.7916 57.4903 26.8778 57.5119C26.964 57.5334 27.0502 57.555 27.1364 57.5981C27.201 57.6197 27.2656 57.6413 27.3518 57.6628L27.4596 57.6844C27.8474 56.0666 28.106 54.7077 28.4938 53.3919C28.8386 52.2486 29.3557 51.3211 30.0667 50.674C30.1529 50.5877 30.2391 50.523 30.3468 50.4367C30.5408 50.2857 30.7347 50.1779 30.9717 50.07C31.0794 50.0269 31.1872 49.9621 31.3165 49.9406C32.006 49.6817 32.8247 49.617 33.7728 49.7464C34.096 49.7896 34.4192 49.8759 34.7209 50.0053C34.7855 50.0269 34.8502 50.0484 34.9148 50.0916C34.9363 50.0916 34.9363 50.0916 34.9579 50.1131C34.9794 50.1131 34.9794 50.1347 35.001 50.1347C35.0656 50.1563 35.1303 50.1994 35.1734 50.221C35.3026 50.2857 35.4319 50.3504 35.5612 50.4367C35.6259 50.4798 35.6905 50.523 35.7551 50.5661C35.8844 50.6524 35.9921 50.7387 36.1214 50.825C36.2292 50.9113 36.3584 51.0191 36.4662 51.127C36.4877 51.1485 36.5308 51.1701 36.5524 51.2132C36.5739 51.2348 36.617 51.2564 36.6386 51.2995C36.7678 51.4289 36.8756 51.5584 36.9833 51.6878C37.091 51.8172 37.1988 51.9682 37.3065 52.0976C38.1899 53.3919 38.6855 55.0312 38.4485 56.5843Z" fill="#4C6589"></path>
<path d="M158.965 48.3477C153.966 39.6548 142.546 34.2405 134.444 36.9584C124.123 40.4097 116.819 47.3986 112.014 57.0407C111.454 58.1408 112.079 59.8233 112.251 61.2901C112.229 61.3332 112.186 61.3764 112.165 61.4195C108.997 67.7397 104.99 73.6932 102.404 81.7174C109.256 77.77 114.363 73.4559 121.128 74.3619C125.459 76.4758 125.976 79.5388 122.852 83.7235C133.281 83.7882 142.417 83.8745 150.798 78.8485C162.218 72.0538 165.558 59.8233 158.965 48.3477ZM114.621 57.3858C114.621 57.3642 114.621 57.3642 114.621 57.3858ZM143.925 69.0123C143.602 69.0771 143.279 69.1202 142.955 69.1849C142.632 69.2496 142.309 69.2928 141.986 69.3575C140.542 69.6163 139.034 69.8752 137.526 70.1556C136.19 70.3929 134.854 70.6301 133.496 70.889C133.389 70.436 133.281 70.0046 133.195 69.5732C135.5 68.8829 137.827 68.2142 140.133 67.524C140.111 67.2651 140.068 67.0279 140.047 66.769C139.723 66.7474 139.379 66.7043 139.055 66.6827C138.732 66.6612 138.387 66.618 138.064 66.5964C137.569 66.5533 137.073 66.5102 136.578 66.467C136.082 66.4239 135.586 66.3807 135.112 66.3376C134.143 66.2513 133.173 66.165 132.203 66.0787C128.497 61.7862 128.002 58.7447 130.48 54.5385C130.631 54.3012 130.76 54.0423 130.911 53.8266C130.932 53.7835 130.975 53.7404 130.997 53.6972C131.061 53.6109 131.126 53.5247 131.169 53.4168C131.234 53.3305 131.299 53.2442 131.363 53.158C131.492 52.9854 131.622 52.8344 131.751 52.6618C131.816 52.5756 131.88 52.5108 131.966 52.4461C132.01 52.403 132.053 52.3598 132.096 52.3167C132.139 52.2736 132.182 52.2304 132.225 52.1873C132.268 52.1441 132.311 52.101 132.354 52.0794C132.397 52.0363 132.44 52.0147 132.484 51.9716C132.57 51.9069 132.634 51.8422 132.721 51.799C132.764 51.7774 132.785 51.7559 132.828 51.7343C132.936 51.6696 133.044 51.6049 133.152 51.5402C133.195 51.5186 133.238 51.497 133.259 51.4754C133.345 51.4323 133.432 51.4107 133.496 51.3676C133.561 51.346 133.604 51.3245 133.669 51.3029C133.733 51.2813 133.776 51.2813 133.841 51.2597C133.906 51.2382 133.949 51.2382 134.013 51.2166C134.315 51.1519 134.638 51.1519 134.983 51.1735C135.091 51.195 135.22 51.195 135.349 51.2166C135.586 51.2597 135.845 51.3245 136.125 51.4107C136.19 51.4323 136.254 51.4539 136.297 51.4754C136.427 51.5186 136.534 51.5617 136.664 51.6264C136.922 51.7343 137.181 51.8637 137.461 52.0363C137.095 52.856 136.771 53.6109 136.427 54.409C136.34 54.6032 136.254 54.7973 136.168 55.013C135.91 55.617 135.629 56.2425 135.328 56.9328C135.414 56.9328 135.5 56.9328 135.586 56.9328C135.716 56.9328 135.866 56.9112 135.996 56.9112C136.06 56.9112 136.125 56.9112 136.19 56.8897C136.34 56.8681 136.491 56.8681 136.621 56.8465C136.707 56.825 136.793 56.825 136.858 56.8034C136.901 56.8034 136.965 56.7818 137.008 56.7818C137.116 56.7602 137.224 56.7387 137.332 56.7171C137.87 56.6093 138.366 56.4367 138.818 56.2426C138.905 56.1994 139.012 56.1563 139.099 56.1131C139.185 56.07 139.292 56.0268 139.379 55.9621C139.422 55.9406 139.465 55.919 139.508 55.8974C139.551 55.8759 139.594 55.8543 139.637 55.8111C139.723 55.768 139.81 55.7033 139.896 55.6386C139.96 55.5954 140.003 55.5739 140.068 55.5307C140.111 55.5091 140.154 55.466 140.197 55.4444C140.284 55.3797 140.37 55.315 140.456 55.2503C140.628 55.1209 140.801 54.9699 140.952 54.8189C141.081 54.711 141.189 54.6032 141.296 54.4953C141.296 54.4953 141.296 54.4953 141.296 54.4738C141.404 54.3443 141.533 54.2365 141.641 54.1071C141.727 54.0208 141.792 53.9345 141.857 53.8482C141.921 53.7619 141.986 53.6756 142.05 53.5894C142.115 53.5031 142.201 53.4168 142.266 53.309C142.331 53.2227 142.395 53.1364 142.438 53.0717C142.546 52.9207 142.632 52.7913 142.74 52.6403C142.805 52.554 142.848 52.4677 142.912 52.3598C142.955 52.2951 142.999 52.2304 143.042 52.1657C143.106 52.0363 143.192 51.9284 143.257 51.799C143.925 50.6773 144.507 49.4694 145.132 48.2614C145.153 48.283 145.175 48.3046 145.196 48.3046C145.218 48.3261 145.239 48.3477 145.261 48.3477C145.412 48.4556 145.563 48.5634 145.713 48.6713C145.8 48.736 145.907 48.8007 145.994 48.887C146.08 48.9517 146.166 49.0164 146.274 49.1027C146.36 49.1674 146.446 49.2321 146.532 49.3184C146.618 49.3831 146.705 49.4478 146.769 49.5341C146.855 49.5988 146.942 49.6635 147.006 49.7498C147.394 50.0949 147.739 50.4401 148.062 50.7852C148.105 50.8283 148.148 50.8715 148.191 50.9362C148.234 51.0009 148.299 51.044 148.342 51.1087C148.385 51.1735 148.428 51.2166 148.471 51.2813C148.601 51.4539 148.73 51.6049 148.859 51.7774C148.902 51.8421 148.945 51.8853 148.967 51.95C149.01 52.0147 149.053 52.0794 149.096 52.1441C149.269 52.403 149.419 52.6618 149.527 52.9207C149.549 52.9854 149.57 53.0285 149.613 53.0932C149.635 53.158 149.657 53.2011 149.678 53.2442C149.764 53.4384 149.829 53.6109 149.872 53.8051C149.894 53.8698 149.915 53.9129 149.915 53.9776V53.9992C149.937 54.0639 149.937 54.1071 149.958 54.1718C150.001 54.3012 150.023 54.4306 150.044 54.56C150.044 54.6032 150.066 54.6463 150.066 54.6895C150.087 54.7542 150.087 54.8189 150.087 54.8836C150.087 54.9267 150.109 54.9915 150.109 55.0346C150.131 55.1425 150.131 55.2287 150.131 55.3366C150.131 55.3582 150.131 55.3582 150.131 55.3582C150.131 55.466 150.131 55.5523 150.131 55.6601C150.195 60.1037 145.369 64.2668 143.925 69.0123Z" fill="#4C6589"></path>
<path d="M91.57 85.833C91.6777 85.9193 91.7854 86.0056 91.8932 86.0919C91.7639 86.0271 91.613 85.984 91.4838 85.9193L91.57 85.833Z" fill="#4C6589"></path>
<path d="M123.466 101.084C121.549 102.443 119.782 104.212 117.67 105.096C105.582 110.101 93.4299 114.911 81.536 119.678C67.4227 113.573 53.6973 107.641 39.1316 101.321C47.5995 94.9148 56.5415 91.7655 66.1299 89.2418C64.1907 91.5067 62.273 93.7716 60.0968 96.2954C64.9233 102.551 71.7752 105.614 78.6918 109.367C87.1597 105.312 96.4249 102.529 102.824 94.7854H102.889C99.226 91.8734 95.5846 88.9613 91.9216 86.0493C102.393 90.385 112.865 94.7423 123.337 99.078C123.38 99.7682 123.423 100.437 123.466 101.084Z" fill="#4C6589"></path>
<path d="M109.826 137.211C119.005 123.126 133.334 113.57 141.995 98.7079C141.608 97.198 141.327 95.5155 140.746 93.9408C140.164 92.3446 139.259 90.8562 138.289 88.8933C141.047 88.0952 143.202 87.4697 145.378 86.8225C145.335 86.65 145.292 86.4774 145.271 86.3048C142.836 86.4127 140.401 86.5205 137.945 86.65C137.88 86.2186 137.794 85.7871 137.729 85.3773C141.5 84.5145 145.249 83.6517 149.235 82.7241C153.545 87.3834 157.725 91.9132 162.594 97.1549C146.025 112.146 127.042 123.493 109.826 137.211Z" fill="#4C6589"></path>
<path d="M52.7685 137.218C43.5895 123.133 29.2608 113.577 20.5989 98.7147C20.9867 97.2048 21.2668 95.5223 21.8486 93.9476C22.4304 92.3514 23.3353 90.863 24.305 88.9001C21.547 88.102 19.3923 87.4764 17.216 86.8293C17.2591 86.6567 17.3022 86.4842 17.3237 86.3116C19.7586 86.4195 22.1934 86.5273 24.6497 86.6567C24.7144 86.2253 24.8005 85.7939 24.8652 85.3841C21.0945 84.5213 17.3453 83.6584 13.3591 82.7309C9.04972 87.3901 4.86961 91.92 0 97.1616C16.5481 112.153 35.5525 123.499 52.7685 137.218Z" fill="#4C6589"></path>
<path d="M122.153 107.837C118.684 109.821 115.236 111.871 111.703 113.769C107.975 115.775 85.4369 125.956 82.4849 125.719C82.4849 125.719 76.1286 123.411 72.9396 122.009C64.4932 118.299 55.8314 115.128 47.3203 111.547C45.1872 110.663 43.3126 109.153 41.3087 107.923C41.4811 107.513 41.6319 107.104 41.8043 106.694C55.1419 111.763 69.0612 116.94 82.4634 122.03C95.6501 116.918 108.255 111.741 121.442 106.629C121.7 107.06 121.916 107.449 122.153 107.837Z" fill="#4C6589"></path>
<path d="M57.0056 147.182C53.2995 148.649 50.7354 149.685 47.5249 150.957C36.4283 143.321 25.0946 135.513 13.7609 127.704C14.0194 127.273 14.278 126.841 14.515 126.431C28.6283 132.557 43.4957 137.13 57.0056 147.182Z" fill="#4C6589"></path>
<path d="M149.715 127.813C138.467 135.556 127.241 143.322 115.994 151.066C113.257 149.922 110.952 148.952 107.569 147.528C121.445 138.943 135.128 132.386 149.004 126.195C149.241 126.734 149.478 127.273 149.715 127.813Z" fill="#4C6589"></path>
</svg>