<svg width="184" height="174" viewBox="0 0 184 174" fill="none" xmlns="http://www.w3.org/2000/svg">
<path d="M111.693 53.4831C113.715 49.2889 113.158 41.9081 112.766 38.5157C112.725 38.1662 112.229 38.084 112.106 38.4335C111.157 40.7978 108.846 43.4295 106.473 44.9714C103.502 46.904 104.327 45.1153 104.327 45.1153C111.982 35.6991 114.107 32.6768 113.488 22.2532C112.972 13.5154 109.63 3.31786 108.577 0.233931C108.474 -0.0744617 108.062 -0.0744617 107.917 0.213371C105.421 5.8878 92.9581 18.1824 90.7503 21.4925C88.3981 24.9876 89.5123 29.3873 90.4821 32.8208C91.4519 36.2542 90.9567 35.9047 90.9567 35.9047C88.46 35.2673 87.6347 30.1891 87.3871 27.9276C87.3459 27.5986 86.9126 27.4958 86.7269 27.7837C84.808 31.176 82.105 37.3438 80.5988 42.6893C78.9482 48.5899 82.1876 53.2569 83.7969 54.7783C84.7873 55.7035 85.2413 56.7931 85.4682 57.5127C85.592 57.8828 85.2 58.2323 84.8492 58.0678C82.5796 57.1221 79.8354 53.0719 78.9688 51.7149C78.8244 51.4888 78.4942 51.5094 78.3704 51.7355C77.9371 52.5168 77.2769 54.4082 77.5245 58.3351C77.8752 63.9684 80.9702 69.4578 83.8176 73.2408C86.665 77.0237 85.4476 76.7359 85.4476 76.7359C82.7034 76.2836 78.6387 70.4447 77.3181 68.4709C77.1324 68.2037 76.7198 68.3065 76.6785 68.6149C76.2865 71.6577 79.1132 77.7433 81.3622 80.3749C83.0129 82.2869 84.354 84.0962 85.0762 85.083C85.3032 85.3914 85.0143 85.8026 84.6429 85.7204C81.8781 85.0008 79.0513 82.0197 77.5038 80.1487C77.2562 79.8404 76.7817 80.1282 76.9055 80.4777C78.618 85.3709 81.6924 90.9836 83.5494 92.7723C83.9414 93.1424 84.2921 93.4919 84.6223 93.8208C85.9428 95.1777 86.6856 96.987 86.6856 98.8579V109.467C86.6856 109.487 86.6856 109.528 86.7062 109.549L90.9567 125.873C91.0392 126.223 91.5344 126.223 91.6376 125.873C92.2772 123.427 93.639 118.163 94.0516 116.046C94.6087 113.229 93.2882 108.706 93.639 102.25C93.9897 95.7945 97.6418 91.806 102.119 87.5502C104.389 85.3914 105.874 83.685 106.803 82.5336C107.051 82.2253 106.659 81.8141 106.328 82.0402C103.667 83.87 98.7147 86.9951 97.7037 85.7615C96.3213 84.0551 99.3544 84.6718 104.595 79.9843C108 76.962 109.382 74.1042 109.96 72.4595C110.063 72.1305 109.692 71.8633 109.403 72.0689C107.546 73.4875 103.543 74.9472 102.326 75.1528C100.799 75.4201 97.3736 75.0911 101.5 73.6519C105.627 72.2128 107.277 70.568 110.661 66.3739C112.931 63.5572 112.993 60.5967 112.787 58.9519C112.745 58.6229 112.312 58.5407 112.147 58.8285C110.93 60.9256 107.216 62.5087 105.235 63.5572C102.883 64.7908 102.553 64.4413 102.408 63.8245C102.243 63.3105 109.011 59.0547 111.693 53.4831ZM101.273 26.1389C99.3956 33.8282 91.8233 67.0935 90.544 110.577C90.5234 110.865 90.1107 110.885 90.0694 110.597C88.5426 98.9401 83.9001 53.1747 100.757 25.9128C100.922 25.6455 101.356 25.81 101.273 26.1389Z" fill="#4C6589"></path>
<path d="M141.346 125.956C128.079 129.986 116.628 144.768 113.223 149.517C113.037 149.785 112.625 149.579 112.728 149.271C118.278 132.72 135.342 121.659 137.9 120.076C138.086 119.973 138.313 120.076 138.334 120.282C138.395 120.775 138.251 121.351 138.086 121.824C138.003 122.07 138.272 122.297 138.499 122.153C142.192 119.727 153.623 115.656 160.7 119.48C166.745 122.728 174.132 123.283 177.124 123.366C177.413 123.366 177.516 122.996 177.268 122.852C174.235 121.125 173.74 117.342 173.658 116.293C173.637 116.149 173.513 116.026 173.369 116.026C172.44 116.046 169.242 116.067 164.579 115.286C160.597 114.607 164.063 112.983 166.374 112.099C166.663 111.996 166.58 111.564 166.271 111.564C150.59 111.585 145.122 100.031 131.814 101.963C118.01 103.957 108.663 110.495 101.091 122.194C95.3753 131.014 94.4881 138.909 94.3849 142.26C94.3849 142.568 94.7976 142.671 94.9214 142.383C96.3245 139.032 99.8115 134.344 101.772 131.857C101.978 131.589 102.391 131.836 102.246 132.145C98.3671 141.088 95.9943 152.725 95.4785 155.438C95.4372 155.665 95.1484 155.747 94.9833 155.562L91.9296 151.923C91.8264 151.799 91.6201 151.799 91.4963 151.923L88.4426 155.562C88.2982 155.747 87.9887 155.665 87.9474 155.438C87.4316 152.725 85.0588 141.088 81.1797 132.145C81.0559 131.836 81.4479 131.61 81.6543 131.857C83.6144 134.365 87.1221 139.032 88.5251 142.383C88.6489 142.671 89.0822 142.568 89.0616 142.26C88.9791 138.909 88.0712 131.014 82.3558 122.194C74.7628 110.516 65.416 103.957 51.633 101.963C38.3246 100.031 32.8568 111.585 17.1756 111.564C16.8661 111.564 16.7836 111.996 17.0725 112.099C19.3834 112.983 22.8497 114.607 18.8675 115.286C14.2044 116.067 11.0063 116.067 10.0778 116.026C9.93338 116.026 9.80958 116.129 9.78894 116.293C9.70641 117.342 9.21121 121.125 6.17814 122.852C5.93054 122.996 6.03371 123.386 6.32257 123.366C9.33501 123.283 16.7011 122.749 22.7466 119.48C29.8238 115.656 41.2545 119.727 44.9479 122.153C45.1748 122.297 45.4637 122.07 45.3605 121.824C45.1955 121.351 45.051 120.775 45.1129 120.282C45.1336 120.076 45.3605 119.973 45.5462 120.076C48.1047 121.659 65.1684 132.72 70.7187 149.271C70.8219 149.579 70.4092 149.785 70.2235 149.517C66.819 144.768 55.3676 129.986 42.1005 125.956C26.378 121.166 11.2952 124.25 0.111987 132.967C-0.0530787 133.09 -0.0324455 133.337 0.153253 133.44L11.5015 139.813C11.584 139.854 11.6666 139.854 11.7491 139.834C13.3997 139.073 30.711 131.404 45.4018 136.894C60.8973 142.671 78.2911 164.629 72.5963 166.212C72.3694 166.273 72.3281 166.561 72.4931 166.705C74.2882 168.144 81.1178 173.017 91.682 173.017C102.246 173.017 109.076 168.144 110.871 166.705C111.057 166.561 110.995 166.273 110.768 166.212C105.073 164.629 122.467 142.671 137.962 136.894C152.653 131.404 169.964 139.073 171.615 139.834C171.697 139.875 171.801 139.875 171.862 139.813L183.211 133.44C183.376 133.337 183.396 133.09 183.252 132.967C172.151 124.25 157.069 121.166 141.346 125.956ZM86.565 166.499C87.576 165.739 90.444 163.436 91.5169 161.01C91.6201 160.784 91.9296 160.784 92.0328 161.01C92.6311 162.305 94.2199 165.225 96.5514 166.52C96.7578 166.623 96.7578 166.911 96.5514 167.013C95.1896 167.712 91.063 169.357 86.6062 166.972C86.4205 166.89 86.3999 166.623 86.565 166.499Z" fill="#4C6589"></path>
</svg>