<?xml version="1.0" encoding="UTF-8"?>
<svg width="402" height="492" viewBox="0 0 402 492" xmlns="http://www.w3.org/2000/svg">
 <path d="m160.12 238.04c0.402-1.206 0.854-1.943 1.357-2.211 0.535-0.301 1.038-0.452 1.507-0.452s0.837 0.134 1.105 0.402c0.301 0.268 0.452 0.586 0.452 0.954 0 0.402-0.084 0.821-0.251 1.256l-10.952 30.997c-0.268 0.771-0.687 1.307-1.256 1.608-0.569 0.268-1.206 0.402-1.909 0.402-0.603 0-1.206-0.134-1.809-0.402-0.569-0.268-0.971-0.737-1.205-1.407l-10.802-30.846c-0.134-0.368-0.201-0.737-0.201-1.105 0-0.503 0.168-0.938 0.503-1.306 0.335-0.369 0.887-0.553 1.658-0.553 0.469 0 1.055 0.151 1.758 0.452 0.737 0.268 1.306 1.005 1.708 2.211l8.943 27.279h0.301l9.093-27.279zm29.938 6.078c-0.938 0-1.658-0.234-2.16-0.703-0.502-0.502-0.754-1.356-0.754-2.562v-2.813h-11.906v13.162h10.55c0.469 0 0.821 0.151 1.055 0.452 0.234 0.268 0.352 0.586 0.352 0.955 0 0.335-0.151 0.653-0.452 0.954-0.268 0.268-0.587 0.402-0.955 0.402h-10.55v14.368h12.66v-2.813c0-1.206 0.251-2.043 0.754-2.512 0.502-0.502 1.222-0.753 2.16-0.753 1.44 0 2.16 0.837 2.16 2.511v4.371c0 0.737-0.268 1.239-0.804 1.507-0.502 0.235-1.239 0.352-2.21 0.352h-17.835c-1.54 0-2.311-0.837-2.311-2.512v-30.595c0-1.675 0.771-2.512 2.311-2.512h17.081c0.971 0 1.708 0.117 2.211 0.352 0.536 0.234 0.804 0.736 0.804 1.507v4.371c0 1.674-0.721 2.511-2.161 2.511zm30.675 17.483c1.44 0 2.16 0.838 2.16 2.512v5.275c0 0.603-0.268 1.022-0.803 1.256-0.503 0.235-1.24 0.352-2.211 0.352h-16.579c-1.54 0-2.311-0.837-2.311-2.512v-30.595c0-0.938 0.168-1.591 0.503-1.959 0.368-0.369 0.938-0.553 1.708-0.553 2.143 0 3.215 1.289 3.215 3.868v29.088h11.404v-3.466c0-1.206 0.251-2.043 0.754-2.512 0.502-0.502 1.222-0.754 2.16-0.754zm41.11-8.59c0 3.717-0.637 6.966-1.909 9.746-1.24 2.746-3.082 4.89-5.527 6.43-2.445 1.541-5.476 2.311-9.093 2.311-3.717 0-6.815-0.77-9.294-2.311-2.445-1.54-4.27-3.7-5.476-6.48s-1.808-6.029-1.808-9.747c0-3.684 0.602-6.899 1.808-9.645 1.206-2.747 3.031-4.89 5.476-6.431 2.479-1.541 5.593-2.311 9.344-2.311 3.584 0 6.598 0.77 9.043 2.311 2.445 1.507 4.287 3.651 5.527 6.431 1.272 2.746 1.909 5.978 1.909 9.696zm-28.335 0c0 4.521 0.955 8.088 2.864 10.7 1.909 2.579 4.89 3.869 8.942 3.869 4.086 0 7.067-1.29 8.943-3.869 1.875-2.612 2.813-6.179 2.813-10.7 0-4.522-0.938-8.055-2.813-10.601-1.876-2.579-4.84-3.868-8.893-3.868-4.052 0-7.05 1.289-8.992 3.868-1.909 2.546-2.864 6.079-2.864 10.601zm4.22 1.708v-3.919h15.172v3.919h-15.172z" fill="#fff"/>
</svg>
