<svg width="174" height="174" viewBox="0 0 174 174" fill="none" xmlns="http://www.w3.org/2000/svg">
<path d="M139.779 86.4767C141.791 83.1063 141.236 80.2861 140.658 77.4888C138.345 66.1851 133.279 56.1883 125.9 47.315C124.536 45.6642 123.31 43.8757 121.344 41.1931C134.551 45.1597 147.504 67.5837 148.568 88.7237C149.262 102.618 145.053 115.367 133.464 125.409C130.55 123.116 128.167 121.259 125.6 119.241C120.002 121.695 120.025 127.954 116.602 131.737C112.67 136.094 115.376 141.322 115.63 146.114C107.049 162.439 73.3936 163.7 61.8976 147.994C62.8922 143.775 63.9562 139.396 65.1359 134.374C67.1714 135.406 68.7906 136.163 70.3634 137.057C77.002 140.794 84.08 142.33 91.69 141.482C100.457 140.519 108.39 132.425 109.154 123.575C109.154 123.46 108.876 123.323 107.581 122.268C107.349 122.956 107.234 123.873 106.771 124.561C98.9299 136.323 85.9073 138.157 73.7405 132.425C68.3742 129.903 63.9331 125.386 59.1682 121.649C57.7572 120.548 56.6932 118.989 55.4904 117.682C49.3607 122.337 46.6544 129.192 46.4694 139.808C43.8094 140.771 42.2133 138.799 40.5711 137.424C32.6604 130.82 28.2424 122.176 25.8599 112.363C24.8422 108.144 23.7088 103.879 25.3973 97.8034C27.7798 102.687 29.5608 106.356 32.0358 111.446C33.6319 108.603 34.7653 107.204 35.251 105.599C37.0089 99.5689 38.4893 93.4699 40.1547 87.4397C42.676 78.3601 49.3607 73.5451 58.8212 74.0266C59.5845 74.0725 60.3247 74.5998 61.6894 75.173C60.7873 76.9614 59.8621 78.4977 59.2376 80.1485C57.1095 85.7889 54.7733 91.4064 53.1773 97.2072C52.4371 99.9128 51.7663 103.329 55.606 106.7C56.3231 102.893 56.9708 99.9587 57.3871 96.978C58.3586 90.0994 61.2268 84.138 66.4081 79.4606C71.6588 74.7374 76.5625 69.8995 76.4237 62.1955C80.1477 62.1955 83.2241 62.1955 86.4856 62.1955C79.8008 57.7245 78.8987 57.4035 73.6711 57.6786C71.7513 59.169 69.762 60.7281 67.7497 62.2873C67.4027 61.8746 67.0789 61.4848 66.7319 61.0721C68.8599 54.8355 74.18 51.7173 80.1015 49.6996C87.0176 47.3379 94.0262 47.0628 101.22 51.5109C99.1843 54.6062 97.4958 57.1742 95.5759 60.0861C95.761 65.3597 98.6986 68.8448 103.579 71.4816C108.367 74.0725 113.04 77.0073 117.226 80.4236C122.755 84.9176 126.155 90.9478 127.658 97.941C127.866 98.9498 128.306 99.9128 128.676 100.876C128.745 101.036 129.023 101.082 129.462 101.334C133.719 91.2917 129.115 83.2438 123.009 75.3794C127.774 73.8203 130.804 75.9067 133.325 78.3372C135.685 80.5612 137.396 83.4273 139.779 86.4767ZM93.5404 102.022C97.6346 104.728 98.8605 107.387 97.6808 110.804C96.4318 114.404 93.8643 116.765 90.0014 117.568C84.6351 118.668 80.4716 116.467 77.0714 112.638C73.5324 108.626 73.0466 103.971 75.0359 99.1332C78.0891 91.7044 84.1725 88.3798 91.875 87.8525C98.3285 87.4168 106.54 93.1718 109.223 99.6377C110.195 101.976 110.935 104.407 112.138 107.8C112.808 106.012 113.155 105.484 113.202 104.934C113.965 94.731 107.905 86.729 96.8019 83.2668C84.6351 79.4606 72.052 86.6143 68.2817 99.5001C64.9971 110.735 72.1214 122.314 84.2419 125.409C90.9498 127.129 96.2467 124.561 100.665 119.792C104.967 115.137 105.291 109.772 103.325 103.971C100.572 95.8774 90.3253 93.4928 83.2241 100.738C81.4199 102.595 81.1886 104.774 82.7384 107.777C83.9643 108.075 85.6529 108.465 86.74 108.717C89.3769 106.103 91.3893 104.132 93.5404 102.022Z" fill="#4C6589"></path>
<path d="M113.647 28.992C111.958 32.1562 107.633 28.4647 107.379 33.1421C108.373 33.7153 109.507 34.4031 110.709 35.1139C112.791 39.6079 109.807 42.5886 107.332 45.7756C108.165 47.2431 108.951 48.6417 109.877 50.3155C108.905 50.453 108.234 50.774 107.772 50.5906C102.683 48.7105 97.7562 46.0508 92.5055 44.9502C85.0112 43.3911 77.91 45.5234 72.1042 50.1091C58.6421 43.5745 56.4447 40.8002 58.2258 32.523C59.6367 32.1562 61.2096 31.7434 62.2968 31.4683C67.3161 22.0906 76.6147 22.1823 84.7798 21.2652C94.1015 20.1875 103.169 22.7555 111.611 26.8826C112.421 27.2724 112.953 28.2583 113.647 28.992Z" fill="#4C6589"></path>
<path d="M104.16 18.5162C100.76 17.943 98.3315 17.4844 95.8797 17.1405C78.3003 14.7101 63.5429 20.7861 50.6591 32.0898C38.0066 43.1872 30.8823 57.4028 27.2739 73.5444C26.8113 75.6309 26.0943 77.6715 25.331 80.2624C22.0695 78.0154 22.6709 75.7685 23.0179 73.5444C25.4697 58.0677 31.5763 44.196 42.5171 32.8235C47.5596 27.5729 53.6661 23.3082 59.2175 18.5162C62.5252 15.6731 65.8791 12.83 68.8399 9.6429C74.5763 3.49808 81.6774 1.61795 89.565 3.38344C97.1056 5.05722 102.217 9.68876 104.16 18.5162Z" fill="#4C6589"></path>
<path d="M55.8789 171.609C56.9198 167.16 57.9607 162.644 59.1635 157.439C61.9623 158.081 63.9284 158.516 65.8714 159.021C70.9601 160.305 76.0258 161.703 81.1377 162.873C92.7261 165.51 103.227 162.758 113.058 156.545C114.631 155.559 116.296 154.733 118.563 153.472C122.172 159.388 124.369 165.349 125.179 171.861C119.026 173.512 61.7772 173.374 55.8789 171.609Z" fill="#4C6589"></path>
<path d="M156.58 147.513C154.175 156.248 149.757 162.049 142.956 167.025C136.896 161.132 138.122 152.947 135.485 146.16C132.409 146.825 129.54 147.421 126.695 148.04C126.395 147.581 126.117 147.123 125.816 146.664C136.086 137.768 146.241 128.78 150.751 113.854C151.908 116.399 152.509 117.339 152.741 118.348C152.949 119.334 152.926 120.457 152.741 121.466C151.029 130.66 150.798 139.717 156.58 147.513Z" fill="#4C6589"></path>
<path d="M52.5706 155.627C50.1882 156.2 48.6384 156.59 46.788 157.025C45.377 162.184 43.966 167.32 42.6244 172.227C38.2759 173.419 35.0144 172.135 32.632 169.865C29.3474 166.724 26.4561 163.078 23.8885 159.341C22.8245 157.782 22.4544 155.283 22.7551 153.38C23.7266 147.441 25.1145 141.549 26.4561 135.656C26.618 134.991 27.4507 134.464 28.2834 133.501C36.2866 140.815 44.0585 147.877 52.5706 155.627Z" fill="#4C6589"></path>
<path d="M170.969 64.4409C165.441 37.523 151.215 16.5205 127.113 1.02093C131.786 0.0808663 134.816 1.08972 137.568 2.87813C155.055 14.1589 166.505 29.9337 172.38 49.675C173.837 54.5588 172.611 59.4196 170.969 64.4409Z" fill="#4C6589"></path>
<path d="M2.45444 65.1974C6.98806 38.0731 20.4501 16.5892 43.9278 0.241222C39.2323 -0.515415 36.2484 0.585149 33.5421 2.46528C16.4948 14.3881 5.64648 30.5526 0.488331 50.4774C-0.783859 55.4299 0.627115 60.222 2.45444 65.1974Z" fill="#4C6589"></path>
<path d="M168.997 131.874C170.546 138.133 169.251 144.209 167.447 150.194C165.781 155.719 162.983 160.947 165.134 167.092C165.643 168.536 164.463 170.554 164 172.641C158.356 172.641 153.198 172.641 147.092 172.641C150.446 167.872 153.661 163.882 156.205 159.503C158.703 155.192 160.785 150.606 162.613 145.952C164.463 141.252 165.735 136.345 167.285 131.507C167.863 131.622 168.418 131.759 168.997 131.874Z" fill="#4C6589"></path>
<path d="M6.33704 137.948C9.08959 144.116 11.2639 150.352 14.5253 155.97C17.7174 161.473 22.0428 166.31 26.5996 172.455C22.6442 172.662 19.5447 172.822 17.0697 172.96C13.9933 166.792 11.1945 161.495 8.69637 156.039C7.14661 152.645 5.82816 149.091 4.83354 145.514C4.13962 143.015 3.46883 140.218 6.33704 137.948Z" fill="#4C6589"></path>
</svg>