<svg width="406" height="513" viewBox="0 0 406 513" fill="none" xmlns="http://www.w3.org/2000/svg">
<path d="M303.004 87.1332C307.415 89.3386 310.887 91.7346 313.16 96.1608C315.521 106.014 312.215 113.124 308.364 122.185C307.787 123.584 307.213 124.984 306.64 126.384C305.547 129.049 304.446 131.711 303.337 134.37C301.622 138.528 300.03 142.715 298.49 146.941C300.278 144.802 302.064 142.662 303.85 140.523C304.351 139.924 304.851 139.325 305.367 138.709C305.861 138.116 306.356 137.523 306.865 136.912C307.606 136.028 307.606 136.028 308.362 135.126C309.657 133.543 310.892 131.91 312.12 130.274C315.124 126.787 317.207 125.683 321.76 125.161C332.567 125.116 332.567 125.116 336.857 128.886C341.439 134.104 342.994 137.271 342.874 144.133C341.702 152.915 334.875 159.744 329.39 166.27C324.887 171.696 320.724 177.373 316.545 183.051C315.999 183.793 315.453 184.534 314.891 185.299C311.297 190.186 307.712 195.08 304.132 199.977C305.318 199.502 306.503 199.026 307.725 198.536C329.452 189.979 329.452 189.979 339.423 194.309C343.602 196.786 345.514 199.994 347.013 204.491C347.282 207.052 347.282 207.052 347.366 209.922C347.408 210.86 347.45 211.798 347.494 212.765C346.281 220.365 340.114 224.997 334.53 229.669C333.776 230.311 333.023 230.952 332.247 231.613C326.979 236.082 321.645 240.471 316.281 244.824C312.628 247.806 309.009 250.824 305.402 253.86C304.797 254.366 304.193 254.872 303.57 255.393C293.335 263.768 293.335 263.768 288.334 275.583C288.015 282.166 288.705 286.652 291.199 292.862C291.652 294.011 291.652 294.011 292.114 295.183C292.763 296.827 293.418 298.468 294.079 300.108C295.479 303.597 296.828 307.106 298.18 310.615C299.917 315.116 301.673 319.61 303.427 324.106C304.157 325.981 304.888 327.855 305.618 329.73C307.378 334.25 309.14 338.77 310.903 343.289C311.675 342.812 312.447 342.335 313.242 341.843C314.257 341.223 315.271 340.604 316.316 339.966C317.321 339.349 318.326 338.732 319.361 338.096C322.187 336.519 322.187 336.519 325.855 335.531C334.636 338.325 340.072 352.466 344.545 359.934C345.385 361.329 346.226 362.723 347.067 364.118C348.813 367.012 350.557 369.908 352.299 372.804C356.019 378.985 359.766 385.149 363.512 391.313C365.116 393.952 366.719 396.592 368.322 399.232C369.494 401.162 370.666 403.092 371.838 405.022C373.304 407.435 374.769 409.848 376.234 412.262C377.593 414.5 378.952 416.738 380.312 418.975C381.605 421.104 382.897 423.234 384.187 425.365C387.442 430.727 390.747 436.051 394.134 441.331C394.819 442.408 395.504 443.484 396.209 444.593C397.511 446.634 398.824 448.668 400.152 450.691C405.655 459.352 405.655 459.352 404.564 465.161C402.307 467.418 402.307 467.418 398.525 468C394.408 467.418 394.408 467.418 391.842 464.579C391.023 463.191 390.235 461.784 389.471 460.365C388.505 458.703 387.538 457.041 386.57 455.379C386.033 454.435 385.496 453.49 384.943 452.517C381.75 446.982 378.389 441.548 375.057 436.096C372.964 432.665 370.883 429.227 368.802 425.789C363.851 417.615 358.884 409.451 353.912 401.29C350.58 395.819 347.251 390.346 343.927 384.87C343.228 383.718 342.529 382.566 341.808 381.38C340.488 379.206 339.168 377.031 337.85 374.855C333.978 368.482 330.001 362.192 325.912 355.954C324.444 353.445 324.444 353.445 324.444 351.188C307.728 361.465 291.022 371.757 274.343 382.094C271.226 384.026 268.108 385.955 264.99 387.885C263.927 388.542 262.865 389.199 261.771 389.876C259.755 391.124 257.739 392.371 255.723 393.618C254.805 394.186 253.888 394.754 252.943 395.339C252.066 395.88 251.189 396.421 250.286 396.978C248.551 398.059 246.823 399.153 245.104 400.258C244.295 400.776 243.487 401.294 242.654 401.827C241.941 402.29 241.228 402.752 240.494 403.229C238.683 404.225 238.683 404.225 236.426 404.225C241.658 413.729 247.015 423.099 252.838 432.253C259.514 442.832 265.801 453.65 272.156 464.422C272.619 465.205 273.081 465.988 273.558 466.794C274.439 468.286 275.32 469.779 276.198 471.273C278.057 474.615 278.057 474.615 280.435 477.574C280.647 481.453 280.647 481.453 280.435 485.473C278.178 487.73 278.178 487.73 274.89 488.164C271.408 487.73 271.408 487.73 269.333 485.797C268.76 484.887 268.186 483.977 267.595 483.039C266.931 482.004 266.268 480.968 265.584 479.901C264.557 478.19 264.557 478.19 263.508 476.445C262.453 474.7 262.453 474.7 261.376 472.919C259.474 469.719 257.601 466.507 255.744 463.282C253.675 459.69 251.589 456.108 249.5 452.528C249.074 451.798 248.648 451.068 248.21 450.316C242.992 441.402 237.561 432.621 232.113 423.847C220.629 405.345 220.629 405.345 221.756 399.711C225.604 395.746 230.526 393.393 235.297 390.684C229.484 378.712 223.298 366.947 217.031 355.208C216.639 354.474 216.247 353.74 215.844 352.983C211.488 344.824 207.106 336.682 202.573 328.619C201.941 329.853 201.31 331.087 200.66 332.357C191.825 349.459 182.203 366.089 172.224 382.547C171.745 383.338 171.265 384.129 170.772 384.943C169.9 386.376 169.024 387.805 168.142 389.23C165.986 392.535 165.986 392.535 165.334 396.326C167.62 397.974 169.988 399.445 172.387 400.923C174.362 403.097 174.362 403.097 175.085 406.685C174.078 412.688 171.163 415.938 167.309 420.517C165.841 422.329 164.375 424.142 162.91 425.956C162.173 426.859 161.436 427.761 160.676 428.69C157.66 432.427 154.791 436.264 151.934 440.124C146.668 447.189 141.342 454.207 135.995 461.211C130.628 468.242 125.281 475.285 119.985 482.369C115.149 488.834 110.282 495.274 105.386 501.694C104.757 502.521 104.128 503.347 103.481 504.199C102.604 505.346 102.604 505.346 101.71 506.516C101.193 507.193 100.676 507.87 100.144 508.568C97.0053 512.482 97.0053 512.482 93.4402 513C88.7427 512.437 85.9413 510.441 82.2527 507.689C80.6512 506.542 79.048 505.398 77.4436 504.255C76.5412 503.607 75.6388 502.959 74.709 502.292C69.3765 498.516 63.9527 494.873 58.5384 491.216C55.1266 488.91 51.7192 486.598 48.3114 484.287C47.6292 483.824 46.947 483.362 46.2441 482.885C41.5349 479.692 36.829 476.495 32.1253 473.293C31.1707 472.644 31.1707 472.644 30.1969 471.981C27.1925 469.937 24.1885 467.892 21.185 465.846C20.107 465.112 19.029 464.378 17.9184 463.622C16.9011 462.922 15.8837 462.221 14.8356 461.499C12.8793 460.194 10.8857 458.943 8.85727 457.754C4.6145 455.221 2.17579 453.715 0 449.195C0.932217 442.232 4.80119 437.412 8.76304 431.731C9.64222 430.435 10.519 429.138 11.3935 427.839C13.2377 425.104 15.0919 422.376 16.9531 419.653C21.0184 413.686 24.9507 407.632 28.8912 401.583C31.1075 398.184 33.3337 394.791 35.5591 391.398C36.4787 389.995 37.3983 388.592 38.3179 387.189C39.2805 385.721 40.2431 384.253 41.2057 382.785C41.7178 382.003 42.23 381.222 42.7577 380.417C45.9737 375.512 49.1903 370.607 52.4076 365.703C53.4356 364.135 54.4635 362.568 55.4912 361.001C55.9799 360.256 56.4685 359.511 56.9719 358.743C57.4473 358.018 57.9226 357.293 58.4124 356.546C59.7666 354.484 61.1251 352.424 62.4838 350.365C63.9898 348.067 65.4799 345.76 66.9452 343.436C67.8239 342.056 67.8239 342.056 68.7203 340.649C69.2034 339.874 69.6865 339.098 70.1842 338.3C71.6736 336.519 71.6736 336.519 75.6937 335.037C80.331 335.459 81.883 336.757 85.2149 339.904C86.332 340.276 87.4492 340.649 88.6002 341.032C88.6831 339.861 88.6831 339.861 88.7677 338.665C89.2688 332.107 89.9496 325.613 90.8571 319.098C96.0862 280.621 93.5841 244.142 69.9809 211.967C66.8338 207.919 63.5528 204.055 60.1071 200.259C50.7026 189.839 50.7026 189.839 49.669 182.345C50.4717 176.927 51.9255 173.357 55.946 169.58C61.0973 167.717 65.2789 168.207 70.5452 169.509C72.7779 170.588 74.9745 171.745 77.1307 172.97C78.228 173.587 79.3253 174.205 80.4559 174.841C81.2816 175.316 82.1073 175.791 82.958 176.28C82.4794 175.439 82.0009 174.597 81.5078 173.73C79.7258 170.575 77.9615 167.412 76.2083 164.241C75.4489 162.876 74.6828 161.514 73.9095 160.157C65.8715 146.026 65.8715 146.026 67.1598 137.913C68.4841 133.512 70.926 130.566 74.6357 127.828C81.1356 125.781 87.0057 125.454 93.3255 128.18C96.3177 130.973 98.3401 133.614 100.647 136.97C101.352 137.99 102.056 139.011 102.782 140.062C103.582 141.233 103.582 141.233 104.398 142.427C104.125 141.66 103.851 140.892 103.57 140.102C102.325 136.58 101.105 133.051 99.8846 129.52C99.2387 127.71 99.2387 127.71 98.5798 125.864C95.6978 117.449 93.598 110.134 96.7109 101.45C100.11 96.4108 104.189 93.3188 110.041 91.647C116.211 91.0756 120.418 92.021 125.839 95.0323C130.314 99.7333 132.825 104.233 134.994 110.363C135.287 111.155 135.579 111.947 135.881 112.763C136.802 115.265 137.703 117.772 138.604 120.281C139.23 121.99 139.856 123.699 140.484 125.408C142.011 129.571 143.521 133.74 145.022 137.913C145.003 136.665 144.983 135.418 144.963 134.132C144.947 132.483 144.931 130.834 144.916 129.185C144.902 128.364 144.888 127.543 144.873 126.698C144.829 120.185 145.149 116.784 149.536 111.959C154.328 108.45 159.343 106.604 165.312 106.934C170.656 108.133 175.063 111.04 178.358 115.377C180.579 119.901 180.855 124.045 181.238 129.025C181.325 130.022 181.413 131.019 181.503 132.046C181.77 135.129 182.017 138.213 182.261 141.298C182.411 143.102 182.561 144.906 182.712 146.71C183.152 152.057 183.559 157.407 183.962 162.756C184.111 164.698 184.259 166.639 184.408 168.58C184.792 173.603 185.174 178.626 185.554 183.65C185.946 188.81 186.341 193.971 186.735 199.131C187.503 209.193 188.268 219.255 189.031 229.317C192.118 225.518 194.782 221.746 197.283 217.539C201.064 211.5 205.096 206.615 211.6 203.363C219.258 202.46 224.816 202.956 231.172 207.44C234.759 210.444 236.836 212.19 237.384 217.003C237.851 222.929 236.492 227.789 234.645 233.376C234.326 234.393 234.007 235.409 233.678 236.455C232.638 239.748 231.57 243.031 230.502 246.314C229.779 248.586 229.057 250.859 228.337 253.133C224.992 263.635 221.534 274.094 217.899 284.5C217.606 285.341 217.313 286.182 217.01 287.049C215.651 290.934 214.272 294.811 212.858 298.676C212.133 300.703 212.133 300.703 211.393 302.771C210.968 303.931 210.542 305.091 210.104 306.286C208.689 312.144 210.761 316.055 213.562 321.174C214.522 322.943 214.522 322.943 215.501 324.747C216.192 326.001 216.883 327.256 217.595 328.549C218.673 330.526 219.75 332.503 220.828 334.48C221.926 336.492 223.028 338.503 224.131 340.513C226.115 344.135 228.086 347.763 230.052 351.395C235.775 361.959 241.56 372.462 247.71 382.785C248.601 382.233 248.601 382.233 249.51 381.671C251.318 380.551 253.127 379.432 254.936 378.312C257.048 377.004 259.161 375.696 261.273 374.388C266.894 370.908 272.515 367.43 278.139 363.954C279.21 363.291 280.281 362.629 281.384 361.947C283.45 360.67 285.515 359.393 287.581 358.117C288.988 357.247 288.988 357.247 290.424 356.359C291.66 355.595 291.66 355.595 292.921 354.815C294.798 353.638 296.647 352.417 298.49 351.188C297.827 347.477 296.933 344.126 295.526 340.63C294.967 339.228 294.967 339.228 294.396 337.798C293.993 336.801 293.589 335.804 293.174 334.777C292.55 333.214 292.55 333.214 291.913 331.619C290.138 327.175 288.353 322.736 286.568 318.296C285.263 315.046 283.964 311.794 282.665 308.541C282.068 307.063 282.068 307.063 281.458 305.555C276.052 292.013 272.2 280.204 277.006 265.854C281.956 254.522 292.47 246.41 301.849 238.856C305.475 235.913 309.04 232.908 312.596 229.881C318.352 224.987 324.168 220.177 330.034 215.414C332.197 213.702 332.197 213.702 333.472 212.39C333.518 210.51 333.52 208.628 333.472 206.748C326.288 204.163 318.342 208.838 311.781 211.743C308.13 213.472 304.505 215.245 300.888 217.045C298.448 218.251 296.006 219.453 293.562 220.651C292.502 221.177 291.442 221.704 290.349 222.247C281.455 226.286 281.455 226.286 277.191 224.803C274.793 222.546 274.793 222.546 274.242 219.571C275.031 214.137 277.789 211.132 281.211 206.959C282.572 205.242 283.932 203.525 285.293 201.807C285.991 200.937 286.688 200.066 287.407 199.17C290.529 195.254 293.556 191.269 296.586 187.282C297.793 185.702 299.001 184.123 300.209 182.544C304.695 176.674 309.175 170.8 313.654 164.925C314.401 163.945 315.148 162.965 315.918 161.955C317.34 160.09 318.758 158.223 320.174 156.353C321.505 154.606 322.85 152.87 324.21 151.144C325.135 149.956 325.135 149.956 326.08 148.743C326.626 148.053 327.173 147.362 327.736 146.65C329.554 143.725 329.458 141.245 328.958 137.913C325.537 137.975 323.057 138.272 320.435 140.591C318.578 142.743 316.846 144.953 315.135 147.223C314.495 148.041 313.855 148.859 313.195 149.702C311.284 152.153 309.398 154.622 307.518 157.097C306.537 158.373 305.556 159.648 304.573 160.923C302.774 163.263 300.978 165.607 299.187 167.953C295.687 172.502 292.087 176.969 288.475 181.429C287.548 182.578 287.548 182.578 286.602 183.752C280.039 191.822 280.039 191.822 277.05 194.335C273.453 194.194 273.453 194.194 270.279 193.207C267.788 188.224 268.867 182.82 270.472 177.741C271.077 176.295 271.7 174.856 272.338 173.424C272.842 172.236 272.842 172.236 273.357 171.024C274.081 169.326 274.812 167.63 275.549 165.938C276.711 163.27 277.853 160.595 278.989 157.916C280.559 154.218 282.135 150.523 283.716 146.83C287.052 139.027 290.333 131.202 293.562 123.354C294.527 121.02 295.507 118.692 296.488 116.365C297.074 114.943 297.659 113.522 298.243 112.1C298.756 110.869 299.269 109.639 299.797 108.371C300.758 105.15 301.098 103.682 299.619 100.675C296.405 99.2214 296.405 99.2214 293.9 100.354C291.407 102.011 290.727 103.082 289.557 105.805C289.013 107.043 289.013 107.043 288.457 108.305C288.079 109.206 287.701 110.106 287.311 111.033C286.903 111.973 286.495 112.912 286.075 113.88C284.745 116.948 283.437 120.025 282.128 123.102C281.219 125.208 280.308 127.313 279.397 129.417C275.613 138.169 271.879 146.943 268.164 155.724C267.215 157.968 266.263 160.21 265.311 162.453C264.181 165.124 263.06 167.799 261.948 170.479C261.452 171.657 260.956 172.835 260.445 174.05C260.025 175.061 259.604 176.073 259.171 177.115C257.85 179.698 256.809 181.321 254.481 183.051C250.39 182.839 250.39 182.839 246.582 181.922C241.234 171.227 248.452 147.99 250.038 136.573C250.515 133.111 250.991 129.65 251.464 126.187C251.756 124.05 252.051 121.914 252.349 119.778C252.481 118.817 252.613 117.855 252.749 116.864C252.866 116.023 252.983 115.182 253.103 114.316C253.432 111.606 253.432 111.606 253.352 107.445C252.235 107.073 251.118 106.7 249.967 106.317C249.222 106.689 248.478 107.061 247.71 107.445C246.696 110.44 246.696 110.44 245.868 114.149C245.522 115.584 245.175 117.019 244.818 118.497C244.545 119.655 244.545 119.655 244.266 120.836C243.696 123.247 243.113 125.655 242.527 128.063C240.861 134.909 239.216 141.761 237.586 148.616C236.588 152.806 235.574 156.992 234.549 161.175C234.162 162.771 233.781 164.368 233.407 165.967C232.884 168.205 232.337 170.437 231.789 172.669C231.485 173.941 231.181 175.213 230.868 176.524C229.506 180.052 228.426 181.249 225.141 183.051C222.25 183.192 222.25 183.192 219.499 181.922C216.838 176.561 215.329 171.377 214.055 165.511C213.885 164.732 213.714 163.952 213.539 163.149C213.183 161.516 212.832 159.882 212.484 158.247C211.951 155.749 211.405 153.255 210.857 150.76C208.215 138.557 208.215 138.557 208.215 133.399C207.098 133.399 205.981 133.399 204.83 133.399C204.864 134.271 204.898 135.143 204.933 136.041C205.544 151.965 206.086 167.891 206.24 183.826C206.276 185.683 206.276 185.683 206.313 187.577C206.32 189.288 206.32 189.288 206.328 191.034C206.339 192.029 206.349 193.025 206.36 194.052C205.958 196.592 205.958 196.592 204.498 198.645C202.573 199.977 202.573 199.977 198.482 199.766C197.225 199.463 195.968 199.161 194.674 198.849C193.037 195.575 193.295 192.626 193.188 188.971C193.153 187.812 193.153 187.812 193.116 186.629C193.041 184.096 192.975 181.564 192.91 179.031C192.888 178.171 192.866 177.311 192.843 176.426C192.708 171.182 192.587 165.937 192.473 160.692C192.42 158.381 192.358 156.069 192.296 153.758C192.194 149.887 192.123 146.017 192.064 142.145C192.031 141.006 191.997 139.868 191.962 138.695C191.91 132.232 192.383 128.245 196.93 123.243C201.443 120.157 206.321 120.236 211.6 120.986C216.254 123.356 218.654 125.237 220.628 130.014C221.117 132.068 221.537 134.14 221.897 136.22C222.086 137.279 222.275 138.338 222.47 139.429C222.885 142.427 222.885 142.427 222.885 146.941C223.629 146.941 224.374 146.941 225.141 146.941C225.288 144.977 225.288 144.977 225.437 142.973C226.258 135.626 228.121 128.526 229.964 121.383C230.574 119.005 231.161 116.622 231.747 114.238C232.137 112.708 232.529 111.178 232.922 109.649C233.269 108.278 233.616 106.906 233.974 105.494C235.642 100.843 237.845 97.4849 241.971 94.7061C248.193 92.5857 254.802 93.0051 260.687 95.7376C264.093 98.9733 265.538 100.642 266.894 105.188C266.874 110.127 266.354 114.959 265.765 119.858C265.558 121.708 265.352 123.558 265.148 125.408C265.051 126.282 264.954 127.157 264.854 128.058C264.782 128.703 264.711 129.349 264.637 130.014C265.058 129.018 265.478 128.022 265.912 126.996C267.484 123.28 269.069 119.569 270.657 115.86C271.34 114.258 272.021 112.655 272.699 111.05C273.676 108.735 274.665 106.426 275.657 104.117C275.954 103.406 276.252 102.694 276.559 101.961C278.983 96.3637 281.699 92.0191 286.712 88.4733C292.212 86.5732 297.245 86.3534 303.004 87.1332ZM107.784 107.445C108.42 114.875 110.315 121.34 112.774 128.361C113.159 129.485 113.545 130.61 113.943 131.768C115.173 135.347 116.415 138.922 117.658 142.497C118.475 144.868 119.292 147.239 120.108 149.61C120.507 150.766 120.905 151.922 121.315 153.114C122.105 155.407 122.894 157.699 123.683 159.992C125.372 164.9 127.068 169.803 128.807 174.693C129.329 176.184 129.849 177.676 130.37 179.167C130.81 180.403 131.249 181.638 131.702 182.912C132.718 186.859 132.849 190.275 132.609 194.335C131.481 195.464 131.481 195.464 128.301 195.872C124.71 195.464 124.71 195.464 122.367 193.195C121.683 192.157 120.998 191.119 120.294 190.051C119.528 188.914 118.763 187.777 117.974 186.606C116.84 184.846 116.84 184.846 115.683 183.051C114.982 182 114.281 180.949 113.559 179.866C111.466 176.712 109.41 173.537 107.361 170.356C105.887 168.088 104.413 165.821 102.939 163.554C100.387 159.62 97.8461 155.679 95.3135 151.732C94.3222 150.205 93.3304 148.678 92.3382 147.152C91.9034 146.464 91.4687 145.777 91.0207 145.068C88.7367 141.577 86.9539 139.329 82.958 137.913C81.8408 138.658 80.7237 139.403 79.5727 140.17C80.2571 145.295 82.3516 149.396 84.7785 153.883C85.3981 155.049 85.3981 155.049 86.0303 156.238C86.9155 157.9 87.8043 159.561 88.6961 161.22C90.089 163.811 91.4722 166.407 92.8536 169.004C96.95 176.69 101.086 184.351 105.333 191.955C105.958 193.078 106.583 194.201 107.227 195.358C108.363 197.388 109.51 199.413 110.67 201.429C114.058 207.474 115.683 212.168 115.683 219.161C112.65 219.513 112.65 219.513 108.912 219.161C104.798 215.43 101.187 211.237 97.4867 207.101C87.8201 196.498 77.9619 187.124 64.903 180.794C64.1582 180.794 63.4134 180.794 62.6461 180.794C64.1608 185.275 66.0464 187.943 69.3462 191.302C95.4079 219.543 106.422 253.276 105.527 291.381C105.329 295.926 105.027 300.457 104.68 304.993C104.586 306.239 104.492 307.486 104.395 308.77C103.25 322.642 101.087 336.344 98.7562 350.06C112.047 359.723 125.434 369.237 138.917 378.631C143.59 381.89 148.255 385.159 152.921 388.427C155.955 385.692 157.803 382.741 159.824 379.205C160.502 378.026 161.179 376.847 161.877 375.632C162.599 374.362 163.321 373.091 164.065 371.782C164.822 370.453 165.58 369.123 166.338 367.793C167.5 365.754 168.662 363.714 169.821 361.672C172.242 357.415 174.71 353.189 177.214 348.98C196.504 316.294 225.141 256.937 225.141 218.032C221.59 215.928 219.1 215.36 214.986 215.775C207.124 221.52 202.477 232.139 197.706 240.46C196.498 242.551 195.287 244.641 194.072 246.728C192.982 248.603 191.901 250.482 190.82 252.361C189.031 255.271 189.031 255.271 186.775 257.528C183.953 257.81 183.953 257.81 181.132 257.528C178.397 254.792 178.513 253.879 178.241 250.111C178.116 248.481 178.116 248.481 177.988 246.817C177.906 245.621 177.825 244.424 177.741 243.192C177.647 241.935 177.553 240.678 177.456 239.383C177.253 236.646 177.054 233.909 176.859 231.172C176.551 226.841 176.229 222.512 175.903 218.183C175.096 207.428 174.308 196.671 173.528 185.913C172.87 176.832 172.201 167.752 171.514 158.673C171.3 155.803 171.092 152.932 170.889 150.061C170.606 146.045 170.305 142.031 170 138.017C169.881 136.233 169.881 136.233 169.76 134.413C169.147 126.614 169.147 126.614 165.334 119.858C161.982 120.244 161.982 120.244 158.564 120.986C155.247 127.62 157.591 138.106 158.176 145.354C158.288 146.83 158.288 146.83 158.403 148.336C158.641 151.445 158.884 154.553 159.128 157.661C159.45 161.763 159.767 165.865 160.08 169.968C160.154 170.886 160.228 171.805 160.304 172.751C160.797 179.21 160.881 185.6 160.82 192.078C157.469 192.078 154.117 192.078 150.664 192.078C150.008 189.794 150.008 189.794 149.337 187.464C146.991 179.654 144.21 172.003 141.43 164.339C141.152 163.572 140.875 162.805 140.589 162.015C139.124 157.968 137.655 153.923 136.183 149.879C134.67 145.719 133.17 141.554 131.672 137.388C130.511 134.165 129.34 130.945 128.167 127.726C127.609 126.192 127.055 124.656 126.505 123.12C125.736 120.973 124.951 118.831 124.166 116.689C123.725 115.473 123.285 114.257 122.83 113.004C121.207 109.442 119.567 106.843 116.811 104.06C111.995 104.06 111.238 104.484 107.784 107.445Z" fill="currentColor"/>
<path d="M37.8209 239.472C44.3996 245.338 47.6161 250.796 48.3295 259.643C48.1056 265.831 46.7799 270.914 42.5551 275.569C35.8448 281.684 30.6452 284.06 21.5246 283.829C14.8686 283.026 10.2419 280.001 5.80142 275.088C0.643916 268.445 -0.421784 262.467 0.582379 254.142C2.97272 246.026 8.51421 240.938 15.6753 236.792C23.2433 234.99 31.0784 235.347 37.8209 239.472ZM15.2521 251.885C12.6248 255.513 12.5471 258.778 12.9952 263.169C14.4361 266.339 15.603 268.248 18.4258 270.292C21.8223 271.36 24.1126 271.566 27.6649 271.068C30.9655 269.008 33.7972 266.703 35.564 263.169C36.0201 259.824 36.2003 257.426 34.3827 254.49C32.3552 252.015 30.5516 249.943 27.6649 248.499C22.434 248.034 19.4226 248.641 15.2521 251.885Z" fill="currentColor"/>
<path d="M394.408 222.263C397.793 222.545 397.793 222.545 400.05 224.802C400.661 233.331 399.095 241.226 397.37 249.557C396.995 251.478 396.995 251.478 396.612 253.438C394.698 262.879 394.698 262.879 392.151 265.426C385.438 265.888 379.596 264.884 373.108 263.239C372.253 263.033 371.398 262.828 370.517 262.615C364.31 261.097 364.31 261.097 361.683 259.783C361.628 260.643 361.572 261.503 361.515 262.388C360.162 281.08 360.162 281.08 356.75 285.473C354.912 286.866 354.912 286.866 351.315 286.513C350.268 286.257 349.221 286.001 348.142 285.737C344.731 278.845 346.527 272.512 347.86 265.284C348.066 264.061 348.273 262.838 348.486 261.577C350.33 251.069 350.33 251.069 352.655 247.37C359.136 244.948 365.81 247.398 372.262 248.993C373.416 249.267 374.569 249.541 375.758 249.824C378.592 250.499 381.423 251.186 384.252 251.884C384.314 251.081 384.377 250.277 384.442 249.449C384.95 243.356 385.603 237.468 387.002 231.502C387.28 230.278 387.558 229.055 387.844 227.795C389.142 223.579 389.961 222.633 394.408 222.263Z" fill="currentColor"/>
<path d="M244.254 9.90527C247.71 10.399 247.71 10.399 249.826 12.5501C251.818 18.0272 249.742 21.9428 247.781 27.255C247.38 28.3927 246.979 29.5304 246.565 30.7026C245.374 34.0574 244.157 37.4022 242.933 40.7454C241.64 44.302 240.374 47.8682 239.104 51.4334C237.705 55.3535 236.293 59.2688 234.877 63.1828C234.17 65.1377 233.466 67.0937 232.764 69.0506C231.768 71.8234 230.755 74.5903 229.739 77.356C229.439 78.1965 229.14 79.0369 228.831 79.9029C227.302 84.0125 226.632 85.7628 222.885 88.2614C216.615 87.6344 216.615 87.6344 214.985 86.0045C214.675 80.5456 215.262 76.356 217.125 71.2364C217.592 69.9339 218.059 68.6315 218.541 67.2895C219.052 65.9057 219.563 64.522 220.09 63.0962C220.617 61.6459 221.143 60.1952 221.668 58.7442C222.766 55.7167 223.873 52.6924 224.986 49.6704C226.413 45.7958 227.823 41.9154 229.228 38.0326C230.311 35.0424 231.401 32.0546 232.493 29.0676C233.269 26.9419 234.041 24.8148 234.814 22.6877C235.525 20.7607 235.525 20.7607 236.251 18.7948C236.667 17.6609 237.083 16.527 237.512 15.3588C239.175 11.5186 240.061 10.5298 244.254 9.90527Z" fill="currentColor"/>
<path d="M139.281 26.9141C142.766 27.3254 142.766 27.3254 144.818 29.2508C145.386 30.1588 145.954 31.0668 146.539 32.0022C147.199 33.0345 147.86 34.0667 148.54 35.1302C149.241 36.2785 149.943 37.4267 150.665 38.6098C151.436 39.8177 152.207 41.0256 153.001 42.2701C155.059 45.5012 157.059 48.7637 159.037 52.0444C159.857 53.3967 160.687 54.7432 161.525 56.0844C162.757 58.0568 163.96 60.0447 165.158 62.0381C166.226 63.783 166.226 63.783 167.316 65.5631C169.031 69.8554 168.59 72.5245 167.592 76.9768C163.681 77.5353 163.681 77.5353 159.692 78.1052C153.963 70.822 149.073 63.1192 144.277 55.2072C142.969 53.0548 141.648 50.9114 140.326 48.768C139.485 47.388 138.646 46.0076 137.807 44.6267C137.052 43.39 136.297 42.1532 135.52 40.8791C133.863 37.7188 132.937 35.3737 132.61 31.8391C134.313 28.1323 135.199 27.425 139.281 26.9141Z" fill="currentColor"/>
<path d="M27.4535 107.726C31.4068 110.889 32.9856 112.997 34.2947 117.953C34.4904 123.725 33.0446 127.876 29.0756 132.129C25.4785 133.927 22.6641 134.39 18.6376 134.527C14.1627 133.035 10.2441 131.611 7.35317 127.756C5.95145 123.551 5.622 119.711 6.22473 115.343C8.04065 111.841 9.61397 109.456 12.7133 107.021C17.9762 105.559 22.5191 105.533 27.4535 107.726Z" fill="currentColor"/>
<path d="M192.417 0.242348C195.588 3.41311 195.128 5.69363 195.388 10.1338C195.435 10.891 195.482 11.6482 195.53 12.4284C195.678 14.8544 195.811 17.2811 195.944 19.7079C196.041 21.3257 196.14 22.9434 196.239 24.5611C197.374 43.5504 197.374 43.5504 195.238 46.9316C194.68 47.5367 194.121 48.1418 193.546 48.7653C190.902 48.4768 188.266 48.0964 185.647 47.6368C184.058 44.4588 184.146 41.5772 183.914 38.0319C183.767 35.8052 183.767 35.8052 183.617 33.5335C183.568 32.7569 183.519 31.9802 183.469 31.18C183.321 28.8344 183.165 26.4895 183.009 24.1446C181.731 4.54081 181.731 4.54081 183.531 1.44132C186.605 -0.300864 188.952 -0.126325 192.417 0.242348Z" fill="currentColor"/>
<path d="M359.426 74.7194C362.597 76.7434 364.515 78.1259 366.197 81.49C366.715 86.6712 367.011 90.1449 363.799 94.3965C360.138 97.6599 358.654 98.514 353.784 98.4166C348.561 97.0003 346.48 95.969 343.558 91.3638C342.293 86.3041 342.614 83.9642 344.757 79.2331C348.96 74.4121 353.317 73.4604 359.426 74.7194Z" fill="currentColor"/>
</svg>
