<svg width="392" height="255" viewBox="0 0 392 255" fill="none" xmlns="http://www.w3.org/2000/svg">
<g filter="url(#filter0_d_4817_1616)">
<g clip-path="url(#clip0_4817_1616)">
<rect x="27.8999" y="27.8999" width="336" height="199" rx="15" fill="#627A9C"/>
<circle cx="196.4" cy="127.4" r="50.2174" stroke="white" stroke-width="4.56522"/>
<path d="M205.976 97.1929C208.934 97.2226 212.62 97.8224 215.594 99.3794C218.587 100.947 220.922 103.529 220.936 107.486C220.946 110.353 219.624 112.837 217.268 114.427C216.442 114.984 215.588 115.463 214.7 115.896L214.699 115.895C214.34 116.091 213.908 116.304 213.541 116.497C213.143 116.705 212.77 116.918 212.449 117.156C211.815 117.627 211.451 118.143 211.467 118.855C211.485 119.658 211.767 120.145 212.175 120.477C212.613 120.833 213.253 121.057 214.051 121.191C214.843 121.324 215.718 121.359 216.587 121.388C217.431 121.417 218.298 121.441 218.986 121.57C221.012 121.95 222.587 122.916 223.64 124.32C224.688 125.719 225.184 127.507 225.145 129.482C225.081 134.888 222.543 139.695 219.152 143.641C218.628 144.251 217.152 145.604 215.721 146.896C214.625 147.885 213.54 148.85 212.846 149.488L213.048 149.623L212.234 150.064L211.984 150.31L211.879 150.256C211.875 150.258 211.871 150.261 211.867 150.263C211.68 150.364 211.412 150.51 211.089 150.685C210.442 151.035 209.57 151.505 208.677 151.986C206.908 152.937 204.998 153.955 204.606 154.129L204.607 154.13C201.008 155.735 196.261 157.185 192.218 157.334C185.137 157.597 176.758 156.229 171.224 151.194C167.082 147.426 165.263 142.464 165.008 137.031C164.575 127.809 168.234 118.792 174.415 112.05C175.506 110.841 176.662 109.694 177.88 108.613L177.882 108.612C185.041 102.287 194.92 97.631 204.597 97.2056H204.606C205.063 97.1929 205.52 97.1884 205.976 97.1929ZM209.553 100.879C207.302 100.474 204.956 100.448 202.96 100.684C192.612 101.909 181.721 107.972 175.253 116.094L175.252 116.095C173.716 118.015 172.399 120.1 171.327 122.313C168.423 128.361 167.237 136.258 169.395 142.659C170.726 146.61 173.789 149.698 177.57 151.463C181.227 153.17 185.283 153.87 189.353 153.998H189.354C190.439 154.034 191.441 154.042 192.488 153.966L192.94 153.928C195.227 153.697 197.48 153.21 199.657 152.477H199.659C200.95 152.049 202.218 151.554 203.458 150.998L209.718 147.833C214.147 144.483 216.211 142.026 217.297 140.672C219.64 137.751 221.397 134.353 221.752 130.66C221.827 129.88 221.848 129.274 221.77 128.521C221.661 127.476 221.306 126.646 220.755 126.041C220.206 125.437 219.425 125.013 218.391 124.84V124.841C217.545 124.704 216.748 124.75 215.771 124.709C214.223 124.645 212.459 124.394 211.016 123.657C209.539 122.902 208.39 121.629 208.178 119.593V119.592C208.023 118.107 208.331 116.946 208.962 116.007C209.581 115.087 210.478 114.431 211.412 113.882C211.881 113.607 212.372 113.351 212.854 113.103C213.341 112.853 213.817 112.611 214.277 112.352C215.2 111.834 216.006 111.28 216.596 110.562C217.419 109.561 217.704 108.101 217.57 106.731C217.439 105.391 216.619 104.181 215.502 103.304V103.303C213.925 102.065 211.808 101.286 209.553 100.879Z" fill="white" stroke="white" stroke-width="1.2181"/>
<path d="M209.928 130.324C212.182 130.291 214.144 131.726 214.308 134.179C214.448 136.273 213.449 138.36 211.987 139.943C210.524 141.527 208.516 142.696 206.502 142.881L206.484 142.883H206.465C205.361 142.916 204.185 142.758 203.213 141.911C201.857 140.728 201.585 139.099 201.853 137.581C202.118 136.077 202.917 134.61 203.822 133.575C205.332 131.847 207.284 130.523 209.696 130.333L209.708 130.332L209.928 130.324ZM210.681 133.55C210.501 133.464 210.225 133.41 209.814 133.465L209.801 133.466C208.362 133.626 207.054 134.536 206.091 135.721L206.09 135.72C205.367 136.61 204.795 137.826 204.891 138.842H204.89C204.929 139.253 205.094 139.458 205.289 139.577C205.511 139.714 205.853 139.783 206.295 139.751C208.358 139.467 210.323 137.651 211.029 135.647C211.27 134.964 211.261 134.333 211.072 133.944C210.983 133.763 210.856 133.633 210.681 133.55Z" fill="white" stroke="white" stroke-width="1.2181"/>
<path d="M189.074 140.522C191.677 140.354 193.924 142.327 194.094 144.929C194.265 147.533 192.294 149.781 189.691 149.954C187.085 150.126 184.833 148.153 184.663 145.547C184.492 142.941 186.468 140.69 189.074 140.522Z" fill="white"/>
<path d="M177.725 132.957C180.328 132.789 182.575 134.761 182.746 137.364C182.916 139.967 180.945 142.216 178.342 142.388C175.736 142.561 173.484 140.587 173.314 137.981C173.143 135.375 175.119 133.125 177.725 132.957Z" fill="white"/>
<path d="M180.562 118.771C183.165 118.603 185.412 120.576 185.583 123.179C185.753 125.782 183.782 128.03 181.179 128.203C178.573 128.376 176.321 126.402 176.151 123.796C175.98 121.19 177.956 118.94 180.562 118.771Z" fill="white"/>
<path d="M190.965 109.314C193.568 109.146 195.815 111.119 195.985 113.722C196.156 116.325 194.185 118.573 191.582 118.746C188.976 118.918 186.724 116.945 186.554 114.339C186.383 111.733 188.359 109.483 190.965 109.314Z" fill="white"/>
<path d="M204.205 104.586C206.808 104.418 209.055 106.39 209.225 108.993C209.396 111.596 207.425 113.845 204.822 114.017C202.216 114.19 199.964 112.216 199.794 109.61C199.623 107.004 201.599 104.754 204.205 104.586Z" fill="white"/>
<g opacity="0.05">
<circle cx="293.4" cy="127.4" r="122.913" stroke="white" stroke-width="11.1739"/>
<path d="M316.838 53.4644L317.522 53.4751C324.641 53.631 333.329 55.1246 340.381 58.8169C347.707 62.6537 353.42 68.9729 353.454 78.6577C353.479 85.675 350.244 91.7557 344.476 95.6479C342.467 97.0036 340.387 98.1691 338.226 99.2241C337.341 99.7101 336.264 100.235 335.354 100.711C334.38 101.222 333.468 101.743 332.682 102.326C331.129 103.479 330.238 104.74 330.277 106.484C330.321 108.45 331.012 109.641 332.011 110.454C333.083 111.325 334.649 111.872 336.602 112.201C338.542 112.527 340.683 112.612 342.81 112.684C344.876 112.755 346.997 112.814 348.682 113.13C353.641 114.062 357.495 116.424 360.072 119.861C362.639 123.284 363.854 127.661 363.757 132.496C363.602 145.726 357.389 157.492 349.09 167.151C347.807 168.644 344.194 171.955 340.689 175.118C338.007 177.538 335.354 179.902 333.654 181.462L334.148 181.792L332.156 182.874L331.544 183.474L331.287 183.344C331.277 183.35 331.268 183.355 331.258 183.361C330.8 183.609 330.145 183.965 329.352 184.393C327.768 185.25 325.636 186.4 323.448 187.577C319.118 189.905 314.447 192.397 313.487 192.825L313.488 192.826C304.679 196.753 293.061 200.301 283.165 200.667C265.832 201.31 245.323 197.963 231.777 185.639C221.639 176.416 217.187 164.269 216.563 150.971C215.504 128.405 224.459 106.34 239.582 89.8394L240.592 88.7349C242.965 86.1757 245.461 83.7334 248.071 81.4155L248.074 81.4126C265.598 65.9306 289.778 54.5366 313.464 53.4956L313.475 53.4946H313.487C314.604 53.4635 315.721 53.4534 316.838 53.4644ZM325.593 62.4868C320.084 61.4942 314.341 61.4321 309.456 62.0103C284.129 65.008 257.472 79.848 241.641 99.728L241.638 99.731C237.879 104.428 234.657 109.53 232.034 114.944C224.923 129.748 222.021 149.078 227.302 164.747C230.561 174.418 238.057 181.977 247.313 186.297C256.262 190.475 266.192 192.189 276.151 192.501H276.154C279.19 192.603 281.961 192.614 284.932 192.332C290.528 191.765 296.043 190.573 301.373 188.78L301.379 188.778C304.541 187.729 307.646 186.518 310.684 185.154L326 177.41C336.84 169.212 341.892 163.199 344.549 159.885C350.283 152.734 354.583 144.417 355.453 135.377C355.636 133.468 355.686 131.986 355.495 130.142C355.23 127.584 354.361 125.555 353.011 124.072C351.667 122.594 349.755 121.559 347.223 121.136C345.155 120.8 343.204 120.914 340.814 120.814C337.024 120.656 332.706 120.042 329.173 118.237C325.558 116.39 322.747 113.273 322.228 108.291C321.85 104.655 322.601 101.813 324.146 99.5151C325.661 97.2623 327.858 95.6549 330.143 94.313C331.291 93.6391 332.494 93.0137 333.674 92.4067C334.865 91.7938 336.03 91.2006 337.157 90.5679C339.415 89.2998 341.387 87.9422 342.831 86.186C344.845 83.736 345.546 80.1625 345.218 76.8101C344.896 73.5295 342.89 70.5704 340.156 68.4233C336.296 65.3916 331.114 63.4817 325.593 62.4868Z" fill="white" stroke="white" stroke-width="2.98144"/>
<path d="M325.975 134.576C331.714 134.25 336.818 137.794 337.231 143.992L337.256 144.473C337.42 149.437 335.017 154.346 331.55 158.1C327.969 161.976 323.057 164.838 318.128 165.291L318.082 165.295L318.036 165.297C315.418 165.376 312.635 165.014 310.302 163.106L310.077 162.917C306.757 160.022 306.09 156.035 306.745 152.319C307.394 148.638 309.352 145.047 311.566 142.513C315.262 138.284 320.039 135.044 325.942 134.578L325.958 134.577L325.975 134.576ZM328.355 142.452C327.914 142.243 327.238 142.109 326.231 142.242L326.217 142.245L326.201 142.246C322.678 142.639 319.478 144.864 317.121 147.765L317.12 147.764C315.35 149.943 313.947 152.916 314.182 155.403L314.203 155.586C314.328 156.472 314.709 156.93 315.156 157.204C315.701 157.537 316.535 157.708 317.614 157.631C322.665 156.939 327.477 152.491 329.205 147.585C329.794 145.913 329.773 144.369 329.31 143.419C329.093 142.976 328.783 142.655 328.355 142.452Z" fill="white" stroke="white" stroke-width="2.98144"/>
<path d="M275.468 159.518C281.839 159.107 287.339 163.935 287.756 170.305C288.173 176.677 283.349 182.181 276.978 182.603C270.6 183.026 265.088 178.195 264.671 171.817C264.254 165.438 269.089 159.93 275.468 159.518Z" fill="white"/>
<path d="M247.691 141.001C254.062 140.589 259.562 145.417 259.979 151.788C260.396 158.159 255.572 163.663 249.201 164.086C242.823 164.508 237.311 159.677 236.894 153.299C236.477 146.92 241.312 141.412 247.691 141.001Z" fill="white"/>
<path d="M254.635 106.28C261.007 105.868 266.507 110.697 266.923 117.068C267.34 123.439 262.516 128.943 256.146 129.365C249.768 129.788 244.256 124.957 243.838 118.578C243.421 112.2 248.256 106.692 254.635 106.28Z" fill="white"/>
<path d="M280.097 83.1324C286.469 82.7207 291.969 87.5491 292.386 93.9201C292.802 100.291 287.979 105.795 281.608 106.217C275.23 106.64 269.718 101.809 269.301 95.4307C268.883 89.0523 273.719 83.5445 280.097 83.1324Z" fill="white"/>
<path d="M312.503 71.5587C318.875 71.1471 324.375 75.9755 324.792 82.3465C325.208 88.7175 320.385 94.2215 314.014 94.6437C307.636 95.0663 302.124 90.2356 301.707 83.8571C301.289 77.4786 306.125 71.9707 312.503 71.5587Z" fill="white"/>
</g>
</g>
</g>
<defs>
<filter id="filter0_d_4817_1616" x="-9.72748e-05" y="-9.72748e-05" width="391.8" height="254.8" filterUnits="userSpaceOnUse" color-interpolation-filters="sRGB">
<feFlood flood-opacity="0" result="BackgroundImageFix"/>
<feColorMatrix in="SourceAlpha" type="matrix" values="0 0 0 0 0 0 0 0 0 0 0 0 0 0 0 0 0 0 127 0" result="hardAlpha"/>
<feMorphology radius="7" operator="dilate" in="SourceAlpha" result="effect1_dropShadow_4817_1616"/>
<feOffset/>
<feGaussianBlur stdDeviation="10.45"/>
<feComposite in2="hardAlpha" operator="out"/>
<feColorMatrix type="matrix" values="0 0 0 0 1 0 0 0 0 1 0 0 0 0 1 0 0 0 1 0"/>
<feBlend mode="normal" in2="BackgroundImageFix" result="effect1_dropShadow_4817_1616"/>
<feBlend mode="normal" in="SourceGraphic" in2="effect1_dropShadow_4817_1616" result="shape"/>
</filter>
<clipPath id="clip0_4817_1616">
<rect x="27.8999" y="27.8999" width="336" height="199" rx="15" fill="white"/>
</clipPath>
</defs>
</svg>
