<svg width="392" height="255" viewBox="0 0 392 255" fill="none" xmlns="http://www.w3.org/2000/svg">
<g filter="url(#filter0_d_4817_1648)">
<g clip-path="url(#clip0_4817_1648)">
<rect x="27.8999" y="27.8999" width="336" height="199" rx="15" fill="#627A9C"/>
<g opacity="0.05">
<circle cx="293.4" cy="127.4" r="122.913" stroke="white" stroke-width="11.1739"/>
<path d="M346.01 79.3535C347.153 80.2589 348.237 81.2206 349.313 82.2035C349.607 82.4608 349.607 82.4608 349.906 82.7233C355.016 87.4594 358.344 95.1079 358.779 102.002C358.807 102.99 358.815 103.976 358.81 104.964C358.809 105.314 358.807 105.663 358.805 106.024C358.77 108.595 358.575 110.933 357.837 113.41C357.749 113.706 357.749 113.706 357.66 114.009C356.481 117.901 354.721 121.352 352.252 124.597C352.816 124.706 352.816 124.706 353.391 124.818C359.212 126.139 364.355 130.205 367.535 135.195C371.256 141.291 372.549 148.506 370.915 155.545C369.353 161.562 365.48 166.988 360.188 170.228C353.382 174.062 345.719 175.182 338.145 173.172C333.731 171.794 330.199 169.665 326.977 166.401C326.737 166.164 326.498 165.928 326.251 165.684C323.668 162.99 321.164 159.207 320.952 155.398C321.014 153.428 321.648 151.675 323.093 150.298C325.06 148.838 326.963 148.833 329.328 149.032C331.012 149.501 332.235 150.481 333.149 151.976C333.423 152.538 333.692 153.102 333.957 153.669C335.544 156.92 337.681 158.967 341.084 160.219C345.244 161.513 348.93 161.289 352.84 159.336C355.575 157.737 357.273 155.294 358.112 152.252C358.789 148.955 358.497 145.905 356.788 142.931C356.488 142.485 356.179 142.045 355.858 141.614C355.485 141.083 355.485 141.083 355.191 140.2C354.65 139.889 354.65 139.889 354.016 139.611C353.402 139.182 352.797 138.742 352.195 138.297C349.176 136.642 346.008 136.838 342.668 136.853C342.084 136.852 341.501 136.851 340.917 136.849C339.665 136.847 338.413 136.847 337.161 136.85C335.18 136.853 333.199 136.849 331.218 136.845C326.297 136.834 321.377 136.832 316.457 136.833C312.63 136.833 308.804 136.831 304.977 136.821C303.009 136.816 301.041 136.817 299.073 136.821C297.847 136.823 296.622 136.82 295.396 136.815C294.829 136.814 294.263 136.815 293.696 136.818C287.318 136.851 287.318 136.851 285.267 134.974C283.664 133.264 283.342 131.612 283.387 129.309C283.569 127.55 284.245 126.488 285.462 125.241C287.858 123.626 289.967 123.587 292.784 123.6C293.187 123.599 293.59 123.597 293.993 123.595C294.857 123.592 295.72 123.591 296.584 123.593C297.953 123.595 299.322 123.59 300.692 123.584C303.6 123.573 306.508 123.569 309.416 123.566C312.552 123.563 315.688 123.559 318.824 123.546C320.182 123.54 321.54 123.539 322.898 123.541C323.747 123.542 324.595 123.538 325.444 123.534C326.019 123.532 326.593 123.535 327.167 123.538C332.441 123.502 336.89 121.753 340.626 118.03C344.415 114.032 345.965 109.304 345.867 103.847C345.656 98.9346 343.309 94.466 339.772 91.1324C336.125 87.9667 331.333 86.4372 326.553 86.5274C321.397 86.981 316.819 89.162 313.317 93.0134C310.488 96.5383 309.207 100.554 308.957 105.038C308.795 106.96 308.18 108.727 306.761 110.083C304.789 111.543 302.894 111.543 300.525 111.349C298.741 110.896 297.779 109.851 296.742 108.376C295.029 105.484 296.001 100.444 296.753 97.3353C298.206 91.8277 300.834 87.2682 304.64 83.0867C304.811 82.8909 304.982 82.695 305.159 82.4933C315.292 71.5223 334.287 70.5523 346.01 79.3535Z" fill="white"/>
<path d="M228.387 155.066C228.797 155.063 228.797 155.063 229.216 155.061C230.129 155.057 231.041 155.061 231.954 155.066C232.61 155.065 233.266 155.063 233.923 155.061C235.703 155.057 237.482 155.06 239.262 155.065C241.129 155.069 242.995 155.067 244.861 155.066C247.997 155.065 251.133 155.069 254.269 155.076C257.487 155.083 260.706 155.085 263.924 155.082C267.81 155.078 271.697 155.079 275.583 155.084C277.063 155.086 278.544 155.085 280.024 155.084C281.771 155.083 283.519 155.086 285.266 155.092C285.904 155.094 286.543 155.094 287.181 155.092C295.474 155.076 302.084 156.871 308.166 162.868C312.508 167.209 314.998 173.197 315.063 179.319C315.06 179.646 315.057 179.974 315.054 180.311C315.052 180.657 315.049 181.004 315.046 181.361C314.921 187.703 312.733 193.441 308.315 198.082C303.638 202.556 297.579 205.221 291.119 205.555C290.739 205.579 290.739 205.579 290.35 205.603C283.456 205.823 276.765 203.625 271.63 198.968C268.747 196.24 264.975 191.881 264.598 187.704C264.55 185.728 264.636 184.207 265.844 182.592C267.386 181.012 268.958 180.349 271.115 180.108C272.948 180.195 274.618 180.936 275.873 182.28C276.857 183.54 277.533 184.982 278.274 186.393C279.968 189.465 282.691 191.086 286.005 192.103C289.852 192.891 293.573 192.396 296.942 190.32C299.581 188.415 301.293 185.898 301.901 182.694C302.374 179.182 301.56 175.757 299.507 172.86C297.256 170.06 294.117 168.655 290.61 168.229C289.481 168.124 288.355 168.126 287.222 168.128C286.958 168.128 286.693 168.127 286.421 168.126C285.54 168.125 284.659 168.125 283.779 168.125C283.145 168.124 282.512 168.123 281.878 168.122C280.516 168.12 279.154 168.118 277.792 168.117C275.638 168.116 273.485 168.111 271.331 168.105C270.592 168.103 269.854 168.101 269.116 168.1C268.562 168.098 268.562 168.098 267.996 168.097C262.984 168.084 257.971 168.075 252.958 168.071C249.574 168.069 246.19 168.062 242.806 168.051C241.016 168.045 239.226 168.041 237.436 168.043C235.753 168.044 234.07 168.04 232.387 168.032C231.77 168.03 231.153 168.03 230.536 168.032C229.693 168.034 228.85 168.03 228.006 168.023C227.763 168.026 227.52 168.028 227.27 168.031C225.436 168.005 223.845 167.558 222.484 166.269C221.183 164.765 220.791 163.71 220.784 161.727C220.779 161.376 220.774 161.024 220.769 160.662C220.963 158.793 221.816 157.585 223.227 156.391C224.933 155.289 226.385 155.043 228.387 155.066Z" fill="white"/>
<path d="M281.049 60.4641C281.791 61.112 282.495 61.7821 283.192 62.4778C283.418 62.6979 283.645 62.918 283.878 63.1448C288.457 67.8727 290.08 74.2573 290.059 80.6909C289.956 85.2845 288.713 89.1393 286.424 93.0951C286.279 93.3486 286.134 93.6021 285.984 93.8633C282.48 99.4871 276.873 102.998 270.579 104.667C269.075 105.005 267.652 105.202 266.109 105.211C265.755 105.213 265.401 105.216 265.036 105.218C264.459 105.22 264.459 105.22 263.87 105.222C263.457 105.225 263.045 105.227 262.632 105.23C261.282 105.237 259.932 105.242 258.582 105.246C258.115 105.248 257.649 105.249 257.183 105.251C255.242 105.257 253.302 105.263 251.361 105.266C248.588 105.271 245.814 105.28 243.04 105.297C241.086 105.309 239.132 105.314 237.177 105.316C236.012 105.317 234.846 105.32 233.681 105.33C232.584 105.339 231.487 105.341 230.389 105.337C229.799 105.337 229.208 105.344 228.618 105.352C226.335 105.336 224.533 105.052 222.647 103.693C220.916 101.865 220.764 100.091 220.781 97.6663C220.964 95.8131 221.779 94.8054 223.106 93.5735C224.339 92.7501 225.134 92.4328 226.633 92.4283C226.966 92.4259 227.299 92.4234 227.642 92.4209C228.006 92.4212 228.37 92.4215 228.745 92.4218C229.335 92.4187 229.925 92.4156 230.515 92.4125C231.149 92.4098 231.783 92.4085 232.417 92.4076C233.742 92.4056 235.066 92.3992 236.391 92.3921C239.206 92.3777 242.022 92.3682 244.837 92.3591C247.869 92.3494 250.9 92.3387 253.932 92.3226C255.245 92.3158 256.559 92.3117 257.872 92.3098C258.695 92.308 259.517 92.3039 260.339 92.2991C260.895 92.2966 261.451 92.2969 262.007 92.2973C264.881 92.2767 267.808 92.1605 270.388 90.7767C270.806 90.5593 270.806 90.5593 271.232 90.3374C273.831 88.7578 275.585 86.3439 276.532 83.4536C277.24 79.9594 277.023 76.387 275.152 73.3026C273.194 70.5012 270.425 68.6823 267.027 68.0713C262.583 67.7809 258.769 68.302 255.271 71.3097C253.545 72.8698 252.633 74.7242 251.706 76.8239C250.764 78.4726 249.44 79.3996 247.649 79.9921C245.785 80.451 244.362 80.1832 242.666 79.3585C241.311 78.4981 240.294 77.2122 239.694 75.7257C239.016 71.6113 240.89 68.5276 243.129 65.2377C243.449 64.8056 243.773 64.3759 244.102 63.9498C244.32 63.6522 244.539 63.3547 244.763 63.0482C253.678 52.7895 270.728 52.2259 281.049 60.4641Z" fill="white"/>
<path d="M227.59 123.633C227.925 123.631 228.259 123.628 228.604 123.626C229.148 123.626 229.148 123.626 229.703 123.627C230.089 123.625 230.474 123.623 230.871 123.621C231.925 123.615 232.98 123.614 234.034 123.614C234.694 123.613 235.354 123.612 236.013 123.61C238.319 123.605 240.624 123.603 242.93 123.603C245.073 123.603 247.216 123.597 249.359 123.588C251.204 123.58 253.049 123.577 254.893 123.577C255.993 123.578 257.093 123.576 258.192 123.57C259.42 123.563 260.648 123.566 261.877 123.569C262.417 123.564 262.417 123.564 262.969 123.559C265.287 123.576 267.568 123.785 269.361 125.405C270.951 127.127 271.279 128.763 271.234 131.07C271.051 132.829 270.375 133.891 269.158 135.138C266.8 136.728 264.73 136.795 261.957 136.785C261.571 136.787 261.186 136.789 260.788 136.791C259.735 136.796 258.682 136.796 257.629 136.794C256.747 136.793 255.866 136.795 254.984 136.797C252.904 136.801 250.823 136.8 248.742 136.797C246.601 136.794 244.459 136.798 242.318 136.806C240.475 136.812 238.631 136.814 236.787 136.812C235.688 136.811 234.59 136.812 233.491 136.817C232.265 136.823 231.039 136.818 229.813 136.813C229.452 136.816 229.092 136.819 228.72 136.822C226.446 136.802 224.398 136.593 222.684 134.964C221.002 133.108 220.734 131.658 220.773 129.155C220.976 127.285 221.866 126.166 223.217 124.927C224.623 123.95 225.893 123.639 227.59 123.633Z" fill="white"/>
</g>
<circle cx="196.4" cy="127.4" r="50.2174" stroke="white" stroke-width="4.56522"/>
<path d="M217.894 107.77C218.361 108.14 218.804 108.533 219.244 108.935C219.364 109.04 219.364 109.04 219.486 109.147C221.574 111.082 222.934 114.207 223.111 117.024C223.123 117.427 223.126 117.83 223.124 118.234C223.123 118.377 223.123 118.519 223.122 118.667C223.107 119.717 223.028 120.672 222.726 121.684C222.69 121.805 222.69 121.805 222.654 121.929C222.172 123.519 221.453 124.929 220.445 126.255C220.675 126.299 220.675 126.299 220.91 126.345C223.288 126.885 225.389 128.546 226.689 130.585C228.209 133.075 228.737 136.023 228.07 138.899C227.431 141.358 225.849 143.574 223.687 144.898C220.906 146.464 217.776 146.922 214.681 146.101C212.878 145.538 211.435 144.668 210.118 143.334C210.02 143.238 209.922 143.141 209.822 143.041C208.766 141.941 207.743 140.395 207.656 138.839C207.682 138.034 207.941 137.318 208.531 136.755C209.335 136.159 210.112 136.157 211.079 136.238C211.767 136.43 212.267 136.83 212.64 137.441C212.752 137.67 212.862 137.901 212.97 138.132C213.618 139.461 214.492 140.297 215.882 140.809C217.581 141.337 219.088 141.246 220.685 140.448C221.802 139.795 222.496 138.797 222.839 137.554C223.115 136.207 222.996 134.961 222.298 133.746C222.175 133.563 222.049 133.384 221.918 133.208C221.766 132.99 221.766 132.99 221.646 132.63C221.424 132.502 221.424 132.502 221.165 132.389C220.914 132.214 220.667 132.034 220.421 131.852C219.188 131.176 217.894 131.256 216.529 131.262C216.29 131.262 216.052 131.261 215.814 131.261C215.302 131.26 214.791 131.26 214.279 131.261C213.47 131.262 212.66 131.261 211.851 131.259C209.841 131.254 207.83 131.254 205.82 131.254C204.257 131.254 202.693 131.253 201.13 131.249C200.326 131.247 199.522 131.247 198.718 131.249C198.217 131.25 197.716 131.249 197.215 131.247C196.984 131.246 196.752 131.247 196.521 131.248C193.915 131.261 193.915 131.261 193.077 130.495C192.422 129.796 192.291 129.121 192.309 128.18C192.384 127.462 192.66 127.028 193.157 126.518C194.136 125.858 194.997 125.842 196.148 125.848C196.313 125.847 196.478 125.847 196.642 125.846C196.995 125.844 197.348 125.844 197.701 125.845C198.26 125.845 198.82 125.844 199.379 125.841C200.567 125.837 201.755 125.835 202.943 125.834C204.225 125.833 205.506 125.831 206.787 125.825C207.342 125.823 207.897 125.823 208.452 125.824C208.798 125.824 209.145 125.822 209.492 125.821C209.727 125.82 209.961 125.821 210.196 125.822C212.35 125.807 214.168 125.093 215.695 123.572C217.243 121.938 217.876 120.007 217.836 117.777C217.75 115.77 216.791 113.945 215.346 112.583C213.856 111.289 211.898 110.664 209.945 110.701C207.838 110.887 205.968 111.778 204.537 113.351C203.382 114.791 202.858 116.432 202.756 118.264C202.69 119.049 202.439 119.771 201.859 120.325C201.053 120.922 200.279 120.922 199.311 120.842C198.582 120.657 198.189 120.23 197.766 119.628C197.065 118.446 197.463 116.387 197.77 115.117C198.363 112.867 199.437 111.004 200.992 109.295C201.062 109.215 201.132 109.135 201.204 109.053C205.344 104.571 213.105 104.174 217.894 107.77Z" fill="white"/>
<path d="M169.838 138.703C170.006 138.702 170.006 138.702 170.177 138.701C170.55 138.699 170.923 138.701 171.296 138.703C171.564 138.702 171.832 138.702 172.1 138.701C172.827 138.699 173.554 138.701 174.282 138.703C175.044 138.704 175.807 138.703 176.569 138.703C177.85 138.703 179.132 138.704 180.413 138.707C181.728 138.71 183.042 138.711 184.357 138.71C185.945 138.708 187.533 138.708 189.121 138.71C189.726 138.711 190.33 138.711 190.935 138.71C191.649 138.71 192.363 138.711 193.077 138.714C193.338 138.714 193.599 138.714 193.859 138.714C197.247 138.707 199.948 139.44 202.433 141.891C204.207 143.664 205.224 146.111 205.251 148.612C205.25 148.745 205.248 148.879 205.247 149.017C205.246 149.159 205.245 149.3 205.244 149.446C205.193 152.037 204.299 154.382 202.494 156.278C200.583 158.106 198.108 159.194 195.468 159.331C195.313 159.341 195.313 159.341 195.154 159.35C192.337 159.44 189.603 158.542 187.506 156.64C186.328 155.525 184.787 153.744 184.633 152.038C184.613 151.23 184.648 150.609 185.142 149.949C185.772 149.304 186.414 149.032 187.296 148.934C188.044 148.97 188.727 149.272 189.239 149.821C189.641 150.336 189.917 150.926 190.22 151.502C190.912 152.757 192.025 153.419 193.379 153.835C194.951 154.157 196.471 153.955 197.847 153.107C198.925 152.328 199.625 151.3 199.873 149.991C200.067 148.556 199.734 147.157 198.895 145.973C197.975 144.829 196.693 144.255 195.26 144.081C194.799 144.038 194.339 144.039 193.876 144.04C193.768 144.04 193.66 144.039 193.549 144.039C193.189 144.038 192.829 144.038 192.469 144.038C192.21 144.038 191.951 144.038 191.693 144.037C191.136 144.036 190.58 144.036 190.023 144.035C189.143 144.035 188.263 144.033 187.383 144.03C187.082 144.03 186.78 144.029 186.479 144.028C186.252 144.027 186.252 144.027 186.021 144.027C183.973 144.022 181.925 144.018 179.877 144.016C178.495 144.015 177.112 144.013 175.729 144.008C174.998 144.006 174.267 144.004 173.535 144.005C172.848 144.005 172.16 144.004 171.473 144C171.221 143.999 170.969 143.999 170.716 144C170.372 144.001 170.027 143.999 169.683 143.997C169.583 143.998 169.484 143.999 169.382 144C168.633 143.99 167.983 143.807 167.427 143.28C166.895 142.665 166.735 142.235 166.732 141.424C166.73 141.281 166.728 141.137 166.726 140.989C166.805 140.226 167.154 139.732 167.73 139.244C168.427 138.794 169.02 138.694 169.838 138.703Z" fill="white"/>
<path d="M191.354 100.053C191.657 100.317 191.945 100.591 192.229 100.875C192.322 100.965 192.415 101.055 192.51 101.148C194.381 103.079 195.044 105.688 195.035 108.317C194.993 110.193 194.485 111.768 193.55 113.384C193.491 113.488 193.431 113.592 193.37 113.698C191.939 115.996 189.648 117.43 187.076 118.112C186.462 118.25 185.88 118.331 185.25 118.334C185.106 118.335 184.961 118.336 184.812 118.337C184.576 118.338 184.576 118.338 184.335 118.339C184.167 118.34 183.998 118.341 183.83 118.342C183.278 118.345 182.727 118.347 182.175 118.349C181.984 118.349 181.794 118.35 181.603 118.351C180.811 118.353 180.018 118.356 179.225 118.357C178.092 118.359 176.959 118.363 175.825 118.37C175.027 118.374 174.228 118.377 173.43 118.377C172.954 118.378 172.478 118.379 172.001 118.383C171.553 118.387 171.105 118.387 170.657 118.386C170.415 118.386 170.174 118.389 169.933 118.392C169 118.386 168.264 118.269 167.493 117.714C166.786 116.968 166.724 116.243 166.731 115.252C166.806 114.495 167.139 114.083 167.681 113.58C168.185 113.243 168.509 113.114 169.122 113.112C169.258 113.111 169.394 113.11 169.534 113.109C169.683 113.109 169.832 113.109 169.985 113.109C170.226 113.108 170.467 113.107 170.708 113.106C170.967 113.104 171.226 113.104 171.485 113.103C172.026 113.103 172.567 113.1 173.109 113.097C174.259 113.091 175.409 113.087 176.559 113.084C177.798 113.08 179.037 113.075 180.275 113.069C180.812 113.066 181.348 113.064 181.885 113.064C182.221 113.063 182.557 113.061 182.893 113.059C183.12 113.058 183.347 113.058 183.574 113.058C184.748 113.05 185.944 113.003 186.999 112.437C187.169 112.348 187.169 112.348 187.343 112.258C188.405 111.612 189.122 110.626 189.508 109.445C189.798 108.018 189.709 106.558 188.945 105.298C188.145 104.153 187.014 103.41 185.625 103.161C183.81 103.042 182.251 103.255 180.822 104.484C180.117 105.121 179.744 105.879 179.366 106.737C178.981 107.41 178.44 107.789 177.708 108.031C176.946 108.218 176.365 108.109 175.672 107.772C175.119 107.421 174.703 106.895 174.458 106.288C174.181 104.607 174.947 103.347 175.861 102.003C175.992 101.826 176.125 101.651 176.259 101.477C176.348 101.355 176.437 101.234 176.529 101.108C180.171 96.9171 187.137 96.6868 191.354 100.053Z" fill="white"/>
<path d="M169.513 125.861C169.65 125.86 169.786 125.859 169.927 125.858C170.149 125.858 170.149 125.858 170.376 125.858C170.534 125.857 170.691 125.857 170.853 125.856C171.284 125.854 171.715 125.853 172.145 125.853C172.415 125.853 172.685 125.852 172.954 125.852C173.896 125.849 174.838 125.848 175.78 125.849C176.656 125.849 177.531 125.846 178.407 125.842C179.16 125.839 179.914 125.838 180.668 125.838C181.117 125.838 181.566 125.837 182.016 125.835C182.517 125.832 183.019 125.833 183.521 125.835C183.742 125.833 183.742 125.833 183.967 125.831C184.914 125.837 185.846 125.923 186.579 126.585C187.228 127.288 187.362 127.957 187.344 128.899C187.269 129.618 186.993 130.052 186.496 130.561C185.532 131.211 184.687 131.238 183.554 131.234C183.396 131.235 183.239 131.236 183.076 131.236C182.646 131.239 182.216 131.239 181.785 131.238C181.425 131.237 181.065 131.238 180.705 131.239C179.855 131.241 179.005 131.24 178.155 131.239C177.28 131.238 176.405 131.239 175.53 131.243C174.777 131.245 174.024 131.246 173.27 131.245C172.821 131.245 172.373 131.245 171.924 131.247C171.423 131.249 170.922 131.248 170.421 131.246C170.274 131.247 170.126 131.248 169.974 131.249C169.045 131.241 168.209 131.156 167.508 130.49C166.821 129.732 166.712 129.139 166.727 128.117C166.81 127.353 167.174 126.896 167.726 126.389C168.3 125.99 168.819 125.863 169.513 125.861Z" fill="white"/>
</g>
</g>
<defs>
<filter id="filter0_d_4817_1648" x="-9.72748e-05" y="-9.72748e-05" width="391.8" height="254.8" filterUnits="userSpaceOnUse" color-interpolation-filters="sRGB">
<feFlood flood-opacity="0" result="BackgroundImageFix"/>
<feColorMatrix in="SourceAlpha" type="matrix" values="0 0 0 0 0 0 0 0 0 0 0 0 0 0 0 0 0 0 127 0" result="hardAlpha"/>
<feMorphology radius="7" operator="dilate" in="SourceAlpha" result="effect1_dropShadow_4817_1648"/>
<feOffset/>
<feGaussianBlur stdDeviation="10.45"/>
<feComposite in2="hardAlpha" operator="out"/>
<feColorMatrix type="matrix" values="0 0 0 0 1 0 0 0 0 1 0 0 0 0 1 0 0 0 1 0"/>
<feBlend mode="normal" in2="BackgroundImageFix" result="effect1_dropShadow_4817_1648"/>
<feBlend mode="normal" in="SourceGraphic" in2="effect1_dropShadow_4817_1648" result="shape"/>
</filter>
<clipPath id="clip0_4817_1648">
<rect x="27.8999" y="27.8999" width="336" height="199" rx="15" fill="white"/>
</clipPath>
</defs>
</svg>
