<svg width="392" height="255" viewBox="0 0 392 255" fill="none" xmlns="http://www.w3.org/2000/svg">
<g filter="url(#filter0_d_4817_1498)">
<g clip-path="url(#clip0_4817_1498)">
<rect x="27.8999" y="27.8999" width="336" height="199" rx="15" fill="#627A9C"/>
<circle cx="196.4" cy="127.4" r="50.2174" stroke="white" stroke-width="4.56522"/>
<path d="M191.888 113.624H198.99L201.398 113.985L203.805 114.707L205.851 115.67L207.657 116.874L208.981 117.957L210.305 119.281L211.509 120.846L213.194 123.614L214.759 126.142L215.12 126.744V126.985L215.722 127.226L218.129 128.79L221.62 131.077L224.75 133.124L225.713 133.966L226.074 134.689V136.374L225.472 137.337L224.75 137.939L223.907 138.179H223.064L221.861 137.698L220.055 136.494L216.926 134.448L213.796 132.402L211.629 130.957L210.787 129.994L208.74 126.624L206.935 123.735L205.851 122.411L205.731 122.29L205.611 140.346L206.694 140.707L209.944 142.272L213.314 143.837L217.648 145.883L219.092 146.605L220.296 147.809L220.898 149.133L221.018 149.735V150.939L220.537 152.504L219.814 153.467L218.851 154.309L217.527 154.791H191.888L191.166 154.43L190.564 153.828L190.083 152.865V151.541L190.564 150.578L191.407 149.855L192.009 149.615L212.713 149.494L208.379 147.448L205.009 145.883L201.638 144.318L200.796 143.596L200.314 142.392V119.161L199.11 119.04H191.768L190.203 119.281V142.392L189.721 143.596L188.879 144.318L184.545 146.365L181.175 147.93L177.805 149.494L183.101 149.615L184.064 150.096L184.786 150.939L185.027 151.541V152.865L184.425 154.069L183.582 154.67L183.221 154.791H172.99L171.666 154.309L170.462 153.226L169.86 152.263L169.499 150.939V149.615L169.98 148.17L170.823 147.087L171.786 146.365L175.156 144.8L179.731 142.633L183.823 140.707L184.907 140.346L184.786 122.772L183.944 123.735L182.258 126.744L180.694 129.513L179.49 131.679L178.527 132.522L176.481 133.846L173.351 135.892L170.221 137.939L168.175 139.263L167.814 139.383H166.249L165.286 138.902L164.564 137.939L164.443 137.578V136.013L164.804 135.29L165.406 134.689L166.61 133.846L169.017 132.281L172.147 130.235L175.277 128.189L176.842 125.3L178.407 122.531L179.49 120.725L180.814 119.04L182.258 117.596L184.064 116.272L185.99 115.188L187.796 114.466L190.083 113.864L191.888 113.624Z" fill="white"/>
<path d="M193.814 93.1606H196.703L198.629 93.7625L199.953 94.6051L200.796 95.3273L201.879 96.7718L202.481 98.0959L202.842 99.5404V102.189L202.36 103.994L201.638 105.318L200.555 106.642L199.231 107.605L198.027 108.207L196.703 108.568H193.814L191.888 107.966L190.444 107.124L189.36 106.161L188.397 104.837L187.795 103.633L187.434 102.309L187.314 100.383L187.675 98.457L188.157 97.2533L188.999 96.0496L189.842 95.0866L191.407 94.0032L192.851 93.4014L193.814 93.1606Z" fill="white"/>
<g opacity="0.05">
<circle cx="293.4" cy="127.4" r="123.609" stroke="white" stroke-width="9.78261"/>
<path d="M282.357 93.6816H299.739L305.632 94.5655L311.524 96.3333L316.533 98.6903L320.952 101.637L324.193 104.288L327.434 107.529L330.38 111.359L334.505 118.135L338.335 124.323L339.219 125.796V126.385L340.692 126.974L346.585 130.804L355.129 136.402L362.789 141.411L365.146 143.473L366.03 145.241V149.366L364.557 151.723L362.789 153.196L360.727 153.785H358.664L355.718 152.607L351.299 149.66L343.638 144.652L335.978 139.643L330.675 136.108L328.613 133.751L323.604 125.501L319.185 118.43L316.533 115.189L316.238 114.895L315.944 159.088L318.595 159.972L326.55 163.802L334.8 167.632L345.406 172.641L348.942 174.409L351.888 177.355L353.361 180.596L353.656 182.069V185.015L352.477 188.845L350.709 191.202L348.352 193.265L345.112 194.443H282.357L280.589 193.559L279.116 192.086L277.937 189.729V186.488L279.116 184.131L281.178 182.364L282.651 181.774L333.327 181.48L322.72 176.471L314.471 172.641L306.221 168.811L304.159 167.043L302.98 164.097V107.234L300.034 106.94H282.062L278.232 107.529V164.097L277.053 167.043L274.991 168.811L264.384 173.82L256.135 177.65L247.885 181.48L260.849 181.774L263.206 182.953L264.974 185.015L265.563 186.488V189.729L264.09 192.676L262.027 194.149L261.144 194.443H236.1L232.86 193.265L229.913 190.613L228.44 188.256L227.556 185.015V181.774L228.735 178.239L230.797 175.587L233.154 173.82L241.404 169.989L252.599 164.686L262.617 159.972L265.268 159.088L264.974 116.073L262.911 118.43L258.787 125.796L254.956 132.572L252.01 137.875L249.653 139.938L244.645 143.179L236.984 148.187L229.324 153.196L224.315 156.437L223.432 156.731H219.601L217.245 155.553L215.477 153.196L215.182 152.312V148.482L216.066 146.714L217.539 145.241L220.485 143.179L226.378 139.348L234.038 134.34L241.698 129.331L245.528 122.26L249.359 115.484L252.01 111.064L255.251 106.94L258.787 103.404L263.206 100.163L267.92 97.5118L272.339 95.744L277.937 94.2709L282.357 93.6816Z" fill="white"/>
<path d="M287.071 43.5957H294.142L298.856 45.0688L302.096 47.1312L304.159 48.8989L306.81 52.4344L308.284 55.6753L309.167 59.2108V65.6926L307.989 70.1119L306.221 73.3528L303.57 76.5937L300.329 78.9507L297.382 80.4238L294.142 81.3077H287.071L282.357 79.8345L278.821 77.7722L276.17 75.4152L273.813 72.1743L272.339 69.228L271.456 65.9872L271.161 61.2732L272.045 56.5592L273.223 53.6129L275.286 50.6667L277.348 48.3097L281.178 45.6581L284.714 44.185L287.071 43.5957Z" fill="white"/>
</g>
</g>
</g>
<defs>
<filter id="filter0_d_4817_1498" x="-9.72748e-05" y="-9.72748e-05" width="391.8" height="254.8" filterUnits="userSpaceOnUse" color-interpolation-filters="sRGB">
<feFlood flood-opacity="0" result="BackgroundImageFix"/>
<feColorMatrix in="SourceAlpha" type="matrix" values="0 0 0 0 0 0 0 0 0 0 0 0 0 0 0 0 0 0 127 0" result="hardAlpha"/>
<feMorphology radius="7" operator="dilate" in="SourceAlpha" result="effect1_dropShadow_4817_1498"/>
<feOffset/>
<feGaussianBlur stdDeviation="10.45"/>
<feComposite in2="hardAlpha" operator="out"/>
<feColorMatrix type="matrix" values="0 0 0 0 1 0 0 0 0 1 0 0 0 0 1 0 0 0 1 0"/>
<feBlend mode="normal" in2="BackgroundImageFix" result="effect1_dropShadow_4817_1498"/>
<feBlend mode="normal" in="SourceGraphic" in2="effect1_dropShadow_4817_1498" result="shape"/>
</filter>
<clipPath id="clip0_4817_1498">
<rect x="27.8999" y="27.8999" width="336" height="199" rx="15" fill="white"/>
</clipPath>
</defs>
</svg>
