<svg width="336" height="199" viewBox="27.8999 27.8999 336 199" fill="none" xmlns="http://www.w3.org/2000/svg">
<g>
<g clip-path="url(#clip0_4817_1592)">
<rect x="27.8999" y="27.8999" width="336" height="199" rx="15" fill="#627A9C"/>
<circle cx="196.4" cy="127.4" r="50.2174" stroke="white" stroke-width="4.56522"/>
<path d="M176.007 99.189C177.316 99.0697 178.519 99.2 179.698 99.3013C184.048 99.6751 188.185 100.642 192.323 101.792C192.691 101.894 193.718 102.22 194.628 102.491C195.098 102.631 195.549 102.759 195.904 102.85C196.082 102.896 196.227 102.929 196.332 102.949C196.372 102.956 196.399 102.959 196.416 102.961C197.015 102.891 197.906 102.652 198.89 102.356C199.858 102.065 200.917 101.719 201.675 101.519C206.796 100.171 212.428 98.9561 217.867 99.271C218.796 99.3248 219.966 99.4577 221.078 99.7798C222.173 100.097 223.32 100.629 224.081 101.554C224.698 102.305 224.989 103.254 224.873 104.225C224.613 106.385 223.04 108.507 221.359 110.284C219.978 111.743 218.412 113.083 217.173 114.134C217.585 114.473 218.011 114.865 218.407 115.25C219.14 115.965 219.84 116.722 220.287 117.237C224.048 121.569 225.398 126.034 224.71 130.356C224.074 134.355 221.711 138.103 218.174 141.421C218.18 141.426 218.185 141.431 218.191 141.436L218.192 141.437C220.134 143.097 223.066 145.949 224.303 148.721C224.926 150.117 225.197 151.674 224.458 153.064C223.725 154.444 222.141 155.385 219.721 155.91C218.887 156.09 218.081 156.219 217.208 156.275C214.799 156.575 212.047 156.217 209.813 155.961C205.174 155.432 200.903 154.303 196.536 152.792C195.952 152.921 195.241 153.161 194.452 153.437C193.598 153.736 192.657 154.075 191.83 154.278C186.031 155.698 178.761 157.278 172.61 155.742C170.595 155.238 169.247 154.366 168.587 153.126C167.927 151.886 168.074 150.501 168.537 149.242C169.451 146.754 171.79 144.22 173.488 142.71C173.964 142.287 174.492 141.824 174.893 141.391C174.878 141.376 174.86 141.358 174.841 141.337C174.839 141.335 174.838 141.333 174.835 141.331C173.733 140.285 172.374 138.907 171.46 137.613V137.612C169.07 134.273 167.618 130.278 168.337 125.997C168.737 123.618 169.913 121.165 171.426 118.994C172.728 117.125 174.308 115.425 175.929 114.123C175.484 113.715 174.985 113.297 174.521 112.886V112.885C172.671 111.282 170.954 109.683 169.524 107.569C168.464 106.002 167.913 104.359 168.323 102.875C168.747 101.34 170.101 100.308 172.077 99.7681C173.561 99.3624 174.557 99.2855 176.007 99.188V99.189ZM176.89 143.067C173.269 146.083 171.495 148.327 170.916 149.914C170.625 150.71 170.66 151.271 170.833 151.678C171.009 152.095 171.388 152.489 172.045 152.832C173.394 153.533 175.617 153.86 178.328 153.833C180.67 153.809 183.283 153.522 185.824 153.051L186.908 152.838C188.805 152.42 190.608 152.008 192.429 151.471C191.583 151.166 190.741 150.849 189.905 150.518L189.899 150.516C187.219 149.431 184.623 148.144 182.134 146.667L182.133 146.666C180.688 145.805 179.278 144.887 177.907 143.912L177.901 143.907C177.683 143.749 177.3 143.405 177.048 143.196C176.993 143.15 176.94 143.106 176.89 143.067ZM216.225 143.05C215.95 143.241 215.671 143.456 215.376 143.686C214.944 144.025 214.47 144.404 213.989 144.733C209.832 147.571 205.321 149.815 200.598 151.48C201.05 151.606 201.542 151.738 202.044 151.867C203.887 152.339 205.792 152.771 206.226 152.851C210.688 153.578 214.254 154.209 218.637 153.552C220.984 153.201 221.965 152.45 222.244 151.711C222.529 150.953 222.276 149.696 220.839 147.826C220.467 147.341 219.427 146.151 218.34 145.026C217.8 144.466 217.261 143.936 216.799 143.526C216.581 143.332 216.387 143.172 216.225 143.05ZM196.522 128.755C195.193 129.747 193.675 130.693 192.389 131.574C188.897 133.966 185.41 136.343 182.057 138.882C181.214 139.521 179.862 140.541 178.857 141.393C179.002 141.507 179.128 141.61 179.228 141.686L179.708 142.046C184.685 145.728 190.402 148.215 196.315 150.192C196.413 150.225 196.481 150.242 196.532 150.252C202.18 148.337 207.189 146.314 212.102 142.961C212.52 142.676 213.083 142.292 213.619 141.891C213.834 141.73 214.035 141.571 214.217 141.421C212.828 140.322 211.572 139.257 210.138 138.208C205.682 134.946 201.127 131.812 196.522 128.755ZM215.141 115.722C212.882 117.613 209.926 119.622 207.634 121.235C205.458 122.773 203.26 124.28 201.042 125.755L201.042 125.756C200.328 126.236 199.595 126.742 198.849 127.236C198.961 127.312 199.075 127.389 199.187 127.467C199.822 127.909 200.372 128.313 200.693 128.531H200.692C203.668 130.504 206.605 132.537 209.5 134.629L210.74 135.531L210.741 135.532C212.498 136.821 214.252 138.111 215.947 139.542C216.037 139.617 216.128 139.688 216.217 139.757C219.458 136.926 221.541 133.638 222.148 130.244C222.78 126.708 221.834 122.943 218.714 119.298C218.44 118.977 217.538 117.984 216.625 117.073C216.167 116.617 215.721 116.196 215.358 115.894C215.279 115.828 215.206 115.771 215.141 115.722ZM177.967 115.73C177.009 116.59 176.017 117.479 175.207 118.356C172.813 120.946 170.929 124.214 170.704 127.644C170.46 131.352 172.354 134.95 174.891 137.757H174.89C175.54 138.476 176.183 139.077 176.893 139.747C177.029 139.641 177.178 139.524 177.334 139.394C177.69 139.099 178.104 138.74 178.415 138.496L179.416 137.717C180.419 136.946 181.435 136.192 182.462 135.454C186.118 132.662 190.384 129.907 194.208 127.239C190.196 124.561 186.228 121.819 182.305 119.011L182.303 119.009C181.962 118.764 180.769 117.848 179.664 117.006C179.105 116.581 178.563 116.17 178.15 115.863C178.086 115.815 178.024 115.772 177.967 115.73ZM196.491 105.656C195.65 106.021 194.798 106.368 193.954 106.708C193.011 107.089 192.079 107.463 191.162 107.862L191.154 107.866C187.983 109.207 184.934 110.827 182.043 112.705L182.042 112.706C181.644 112.963 181.067 113.339 180.517 113.732C180.326 113.868 180.146 114.003 179.981 114.13C180.428 114.466 180.871 114.818 181.216 115.08H181.215C182.275 115.868 183.339 116.651 184.407 117.429L184.408 117.43C184.9 117.79 187.913 119.897 190.876 121.933C192.357 122.95 193.818 123.945 194.941 124.691C195.503 125.064 195.975 125.372 196.32 125.587C196.398 125.637 196.47 125.678 196.533 125.715C196.534 125.715 196.536 125.714 196.538 125.713C196.72 125.611 196.954 125.47 197.236 125.294C197.799 124.943 198.531 124.464 199.376 123.898C201.066 122.766 203.19 121.296 205.287 119.817C207.383 118.338 209.447 116.853 211.017 115.692C211.803 115.111 212.46 114.614 212.935 114.242C212.988 114.2 213.037 114.157 213.085 114.119C212.989 114.042 212.882 113.958 212.762 113.869C212.21 113.458 211.474 112.97 210.701 112.484C209.154 111.51 207.525 110.58 207.061 110.337L207.059 110.336C204.24 108.851 201.339 107.528 198.372 106.372L198.37 106.371C198.075 106.255 197.662 106.086 197.23 105.92C196.937 105.808 196.681 105.716 196.491 105.656ZM185.709 102.748C182.289 102.025 178.926 101.556 176.544 101.706H176.538C175.468 101.764 174.094 101.883 173.138 102.105C171.298 102.532 170.843 103.199 170.751 103.693C170.635 104.322 170.959 105.247 171.788 106.418C172.998 108.131 174.93 109.89 176.394 111.157L177.659 112.239L177.661 112.241C177.764 112.331 177.87 112.419 177.975 112.506C178.78 111.952 179.627 111.334 180.538 110.7C181.605 109.956 182.73 109.219 183.824 108.681C186.035 107.394 188.295 106.383 190.563 105.358C191.17 105.084 191.933 104.791 192.654 104.512C190.592 103.904 188.156 103.265 185.709 102.748ZM221.374 102.572C219.653 101.786 217.177 101.681 215.119 101.775L215.118 101.774C210.449 102.03 206.086 102.894 201.583 104.198C201.337 104.269 200.964 104.369 200.531 104.491C203.532 105.669 207.057 107.421 209.595 108.858L210.21 109.21L210.219 109.216C211.932 110.246 213.534 111.315 215.142 112.487C215.421 112.302 215.711 112.037 216.083 111.717L216.915 110.999C218.847 109.309 220.696 107.531 221.87 105.415C222.252 104.726 222.394 104.119 222.329 103.666C222.273 103.277 222.05 102.881 221.374 102.572Z" fill="white" stroke="white" stroke-width="1.70534"/>
<g opacity="0.05">
<circle cx="293.4" cy="127.4" r="122.913" stroke="white" stroke-width="11.1739"/>
<path d="M243.451 58.3506C246.669 58.0531 249.624 58.3762 252.521 58.625C263.17 59.54 273.295 61.9083 283.422 64.7217H283.421C284.322 64.972 286.836 65.7673 289.065 66.4307C290.214 66.7728 291.316 67.0894 292.186 67.3115C292.623 67.4232 292.976 67.5038 293.233 67.5527C293.332 67.5717 293.4 67.5813 293.44 67.5869C294.906 67.4137 297.086 66.8269 299.495 66.1016C301.864 65.3883 304.457 64.5413 306.312 64.0527C318.845 60.7522 332.632 57.78 345.943 58.5508C348.216 58.6824 351.081 59.0084 353.802 59.7969C356.484 60.574 359.29 61.875 361.152 64.1387C362.663 65.9756 363.376 68.2994 363.09 70.6777C362.456 75.9644 358.603 81.1568 354.49 85.5059C351.111 89.0777 347.277 92.3581 344.246 94.9316C345.252 95.7604 346.295 96.7181 347.264 97.6621C349.058 99.4102 350.773 101.263 351.866 102.523C361.073 113.128 364.377 124.057 362.693 134.636C361.134 144.425 355.353 153.598 346.696 161.721C346.709 161.732 346.724 161.744 346.738 161.756C351.492 165.82 358.669 172.8 361.697 179.587C363.221 183.004 363.885 186.812 362.077 190.215C360.283 193.593 356.405 195.897 350.483 197.181C348.46 197.619 346.505 197.93 344.389 198.07C338.48 198.817 331.717 197.934 326.231 197.308C314.876 196.011 304.422 193.251 293.734 189.551C292.304 189.867 290.563 190.454 288.631 191.13C286.802 191.77 284.811 192.485 282.985 192.986L282.213 193.187C268.019 196.663 250.225 200.531 235.17 196.77C230.238 195.537 226.941 193.403 225.325 190.369C223.709 187.333 224.068 183.943 225.201 180.86C227.44 174.771 233.165 168.569 237.32 164.874C238.484 163.838 239.78 162.708 240.761 161.647C240.722 161.609 240.677 161.565 240.632 161.515C240.624 161.506 240.616 161.495 240.606 161.483C237.909 158.926 234.592 155.559 232.359 152.397V152.396C226.508 144.223 222.954 134.444 224.714 123.965C225.692 118.144 228.57 112.139 232.274 106.823C235.462 102.248 239.331 98.0857 243.302 94.8984C242.218 93.9059 240.997 92.8907 239.865 91.8896L238.181 90.4141C234.289 86.9606 230.685 83.3946 227.618 78.8613C225.025 75.0266 223.675 71.0043 224.679 67.3721C225.718 63.6136 229.03 61.0884 233.866 59.7666C237.487 58.777 239.921 58.5882 243.451 58.3506ZM245.645 165.746C236.783 173.129 232.443 178.622 231.025 182.506C230.313 184.455 230.398 185.827 230.821 186.824C231.253 187.845 232.18 188.81 233.79 189.647C237.09 191.363 242.532 192.165 249.167 192.098C255.72 192.031 263.137 191.122 270.167 189.664C274.812 188.64 279.227 187.634 283.685 186.32C281.613 185.573 279.552 184.795 277.503 183.984L277.495 183.981L277.489 183.979C270.928 181.323 264.574 178.173 258.483 174.557L258.481 174.555C254.944 172.449 251.492 170.201 248.136 167.813L248.12 167.802C247.587 167.415 246.649 166.574 246.033 166.062C245.897 165.948 245.767 165.843 245.645 165.746ZM341.924 165.705C341.252 166.172 340.567 166.697 339.847 167.261C338.788 168.09 337.629 169.02 336.451 169.824C326.277 176.77 315.237 182.266 303.676 186.341C304.781 186.648 305.986 186.969 307.215 187.284C311.748 188.447 316.435 189.51 317.466 189.697C328.38 191.476 337.104 193.018 347.828 191.41C353.572 190.549 355.975 188.715 356.656 186.906C357.355 185.051 356.737 181.974 353.22 177.396V177.395C352.309 176.209 349.763 173.297 347.103 170.542C345.779 169.172 344.459 167.874 343.329 166.869C342.795 166.394 342.321 166.002 341.924 165.705ZM293.702 130.719C290.449 133.146 286.731 135.458 283.582 137.615C275.036 143.47 266.501 149.288 258.294 155.504C256.232 157.066 252.923 159.563 250.462 161.647C250.817 161.926 251.125 162.18 251.37 162.367C263.435 171.568 277.354 177.792 291.794 182.714L293.193 183.187L293.48 183.277C293.574 183.305 293.652 183.323 293.719 183.337C307.546 178.648 319.805 173.696 331.832 165.488L333.58 164.284C334.216 163.839 334.888 163.359 335.544 162.869C336.071 162.475 336.567 162.088 337.014 161.722C333.611 159.029 330.536 156.423 327.025 153.853C316.118 145.869 304.972 138.199 293.702 130.719ZM339.273 98.8164C333.741 103.445 326.506 108.368 320.896 112.315C315.57 116.079 310.191 119.765 304.763 123.376L304.764 123.377C303.016 124.551 301.224 125.792 299.398 127.001C299.671 127.187 299.949 127.375 300.223 127.565C301.765 128.638 303.102 129.623 303.89 130.157L307.008 132.238C313.233 136.417 319.387 140.703 325.465 145.096L328.497 147.301L328.5 147.303C332.801 150.46 337.093 153.615 341.242 157.117C341.464 157.305 341.686 157.482 341.907 157.653C349.84 150.724 354.937 142.67 356.422 134.361C357.969 125.706 355.653 116.492 348.018 107.57C347.345 106.784 345.138 104.353 342.902 102.124C341.782 101.008 340.691 99.9782 339.802 99.2393C339.608 99.0776 339.431 98.9371 339.273 98.8164ZM248.282 98.832C245.938 100.936 243.511 103.117 241.527 105.265C235.669 111.603 231.057 119.601 230.506 127.997C229.911 137.073 234.543 145.879 240.753 152.75C242.344 154.51 243.918 155.983 245.656 157.622C245.989 157.364 246.352 157.074 246.735 156.757C247.606 156.034 248.618 155.157 249.378 154.559L249.38 154.558C252.628 152.004 255.93 149.52 259.285 147.111C268.233 140.279 278.681 133.541 288.039 127.009C278.22 120.453 268.505 113.74 258.902 106.867L258.898 106.864C258.064 106.265 255.143 104.022 252.437 101.962C251.069 100.92 249.742 99.9151 248.73 99.1621C248.572 99.0448 248.422 98.935 248.282 98.832ZM293.62 74.1797C291.563 75.0726 289.479 75.9211 287.413 76.7549C285.106 77.6861 282.825 78.6032 280.579 79.5791L280.57 79.583L280.561 79.5869C272.799 82.8709 265.337 86.834 258.262 91.4307L258.258 91.4336C257.282 92.0648 255.872 92.9861 254.526 93.9473C254.059 94.2804 253.618 94.6065 253.214 94.917C254.31 95.7395 255.389 96.6053 256.236 97.2451H256.235C258.828 99.1753 261.432 101.092 264.045 102.995L264.047 102.997C265.25 103.875 272.625 109.035 279.88 114.02C283.503 116.509 287.081 118.944 289.829 120.769C291.205 121.682 292.36 122.435 293.204 122.963C293.396 123.083 293.569 123.188 293.721 123.28C293.726 123.277 293.731 123.275 293.737 123.272C294.182 123.021 294.756 122.677 295.447 122.246C296.826 121.386 298.617 120.214 300.687 118.828C304.823 116.058 310.021 112.46 315.152 108.84C320.282 105.22 325.334 101.585 329.177 98.7432C331.1 97.321 332.71 96.1057 333.872 95.1934C334.004 95.0899 334.128 94.9889 334.246 94.8945C334.01 94.7052 333.744 94.4989 333.448 94.2793C332.096 93.2749 330.295 92.0825 328.404 90.8916C324.617 88.508 320.631 86.232 319.494 85.6377L319.489 85.6348C312.587 82.0002 305.488 78.7607 298.226 75.9307L298.222 75.9287C297.5 75.6457 296.489 75.2312 295.431 74.8262C294.714 74.5518 294.085 74.328 293.62 74.1797ZM267.233 67.0596C258.861 65.2901 250.63 64.1447 244.801 64.5098H244.793L244.785 64.5107C242.168 64.6548 238.803 64.9448 236.464 65.4873L236.465 65.4883C231.96 66.5333 230.846 68.1653 230.622 69.373C230.338 70.9124 231.13 73.1773 233.158 76.0459C236.616 80.9361 242.476 85.9799 246.117 89.085L247.529 90.291L247.534 90.2959C247.789 90.5169 248.047 90.7344 248.306 90.9502C250.276 89.5926 252.347 88.0752 254.575 86.5234C257.197 84.698 259.959 82.8865 262.645 81.5693C268.048 78.4266 273.571 75.9538 279.114 73.4482C280.6 72.7764 282.469 72.0624 284.234 71.3789C279.187 69.8899 273.223 68.3256 267.233 67.0596ZM354.526 66.6309C350.318 64.7087 344.262 64.4496 339.226 64.6777C327.794 65.3041 317.11 67.4181 306.084 70.6094C305.482 70.7836 304.567 71.0247 303.504 71.3232C310.851 74.2076 319.484 78.4971 325.698 82.0156L327.202 82.8789L327.226 82.8926C331.418 85.4123 335.337 88.0303 339.275 90.8994C339.956 90.4463 340.665 89.7973 341.577 89.0146C347.017 84.3459 352.458 79.5087 355.741 73.5879C356.676 71.9018 357.025 70.4164 356.865 69.3057C356.727 68.3548 356.182 67.3877 354.526 66.6309Z" fill="white" stroke="white" stroke-width="4.17401"/>
</g>
</g>
</g>
<defs>

<clipPath id="clip0_4817_1592">
<rect x="27.8999" y="27.8999" width="336" height="199" rx="15" fill="white"/>
</clipPath>
</defs>
</svg>
