<svg width="336" height="199" viewBox="27.8999 27.8999 336 199" fill="none" xmlns="http://www.w3.org/2000/svg">
<g>
<g clip-path="url(#clip0_4817_1599)">
<rect x="27.8999" y="27.8999" width="336" height="199" rx="15" fill="#627A9C"/>
<circle cx="196.4" cy="127.4" r="50.2174" stroke="white" stroke-width="4.56522"/>
<path d="M215.765 109.74C216.552 109.713 217.323 109.968 217.939 110.459C218.621 111 219.058 111.791 219.152 112.657C219.199 113.083 219.178 113.854 219.178 114.312L219.178 117.241V126.829V136.932L219.179 140.053C219.179 140.579 219.202 141.374 219.151 141.874C219.091 142.505 218.844 143.103 218.443 143.593C217.831 144.344 217.029 144.73 216.077 144.827C215.214 144.863 214.37 144.568 213.718 144.001C213.063 143.434 212.666 142.625 212.617 141.76C212.573 141.105 212.596 140.247 212.597 139.577L212.597 135.976V124.577L212.596 116.566V114.196C212.596 113.71 212.579 113.062 212.636 112.594C212.717 111.94 212.995 111.327 213.433 110.837C214.054 110.14 214.839 109.793 215.765 109.74Z" fill="white"/>
<path d="M204.799 116.317C205.624 116.302 206.379 116.545 207.02 117.072C207.695 117.628 208.119 118.431 208.197 119.301C208.229 119.665 208.218 120.113 208.218 120.483L208.216 122.319L208.217 128.27L208.217 132.953C208.217 133.522 208.249 134.914 208.175 135.428C208.088 136.031 207.833 136.598 207.44 137.065C206.841 137.781 206.027 138.163 205.106 138.249C204.25 138.283 203.413 137.991 202.764 137.431C202.118 136.873 201.718 136.082 201.653 135.23C201.626 134.849 201.638 134.364 201.638 133.977L201.639 132.001V125.767L201.638 121.449C201.637 120.852 201.605 119.601 201.687 119.067C201.785 118.448 202.06 117.87 202.477 117.402C203.081 116.716 203.897 116.372 204.799 116.317Z" fill="white"/>
<path d="M182.689 111.948C183.548 111.877 184.371 112.107 185.047 112.649C185.733 113.191 186.171 113.986 186.264 114.855C186.309 115.271 186.29 115.924 186.29 116.364L186.289 118.92L186.289 127.274L186.289 135.588L186.291 138.132C186.291 138.587 186.309 139.255 186.262 139.693C186.198 140.315 185.955 140.905 185.562 141.392C184.996 142.095 184.217 142.51 183.324 142.609C182.45 142.693 181.644 142.45 180.955 141.91C180.282 141.386 179.847 140.615 179.746 139.768C179.69 139.275 179.708 138.611 179.708 138.102L179.708 135.539L179.709 127.111L179.708 118.873L179.708 116.401C179.708 115.939 179.69 115.296 179.739 114.852C179.805 114.222 180.053 113.624 180.453 113.133C181.022 112.424 181.797 112.048 182.689 111.948Z" fill="white"/>
<path d="M193.447 100.967H194.436L194.463 100.977C194.675 101.055 194.93 101.095 195.119 101.172C195.915 101.497 196.556 102.054 196.928 102.836C197.12 103.239 197.227 103.678 197.241 104.125C197.274 104.947 197.247 105.95 197.247 106.782L197.246 111.686L197.246 126.764L197.247 142.508L197.247 147.712C197.247 148.579 197.272 149.581 197.241 150.437C197.229 150.768 197.167 151.094 197.057 151.406C196.747 152.249 196.114 152.934 195.298 153.31C195.097 153.402 194.576 153.522 194.465 153.589H193.476C193.362 153.526 192.864 153.41 192.683 153.332C191.885 152.988 191.26 152.361 190.922 151.561C190.792 151.252 190.682 150.767 190.678 150.439C190.667 149.567 190.672 148.688 190.672 147.816V142.759L190.672 127.389L190.673 111.896L190.673 106.834C190.672 106.139 190.673 105.443 190.671 104.748C190.67 104.121 190.677 103.598 190.923 103.007C191.263 102.189 191.88 101.55 192.7 101.209C192.939 101.11 193.21 101.073 193.447 100.967Z" fill="white"/>
<path d="M168.749 123.477C168.867 123.239 168.925 122.912 169.035 122.654C169.379 121.845 170.069 121.202 170.893 120.903C171.73 120.599 172.655 120.644 173.459 121.027C174.248 121.407 174.854 122.084 175.144 122.91C175.384 123.608 175.33 124.443 175.329 125.181L175.328 127.515L175.33 129.559C175.33 130.445 175.39 131.209 174.98 132.027C174.579 132.824 173.877 133.428 173.029 133.706C172.21 133.965 171.321 133.892 170.555 133.503C169.8 133.114 169.179 132.443 168.928 131.626C168.895 131.52 168.789 131.123 168.749 131.054V123.477Z" fill="white"/>
<g opacity="0.05">
<circle cx="293.4" cy="127.4" r="122.913" stroke="white" stroke-width="11.1739"/>
<path d="M340.799 84.1745C342.726 84.1098 344.612 84.7341 346.12 85.9352C347.79 87.2584 348.859 89.1966 349.089 91.3152C349.204 92.3581 349.154 94.2442 349.154 95.3663L349.152 102.534V126.002V150.731L349.155 158.37C349.155 159.657 349.212 161.604 349.087 162.828C348.938 164.371 348.335 165.835 347.352 167.034C345.856 168.874 343.893 169.817 341.562 170.055C339.45 170.144 337.384 169.42 335.788 168.034C334.185 166.645 333.213 164.666 333.093 162.549C332.987 160.944 333.043 158.846 333.044 157.204L333.045 148.392V120.492L333.042 100.884V95.0807C333.042 93.8928 333 92.3068 333.14 91.1601C333.337 89.5613 334.018 88.0609 335.091 86.8592C336.611 85.1546 338.532 84.3045 340.799 84.1745Z" fill="white"/>
<path d="M313.959 100.274C315.979 100.236 317.825 100.832 319.396 102.121C321.047 103.482 322.084 105.447 322.275 107.578C322.355 108.468 322.326 109.565 322.326 110.47L322.322 114.963L322.323 129.53L322.325 140.991C322.325 142.385 322.404 145.792 322.221 147.05C322.007 148.527 321.384 149.915 320.423 151.056C318.956 152.809 316.964 153.743 314.711 153.955C312.616 154.038 310.567 153.323 308.979 151.954C307.396 150.588 306.418 148.651 306.259 146.566C306.192 145.633 306.22 144.445 306.221 143.499L306.223 138.663V123.404L306.221 112.835C306.22 111.374 306.141 108.31 306.34 107.004C306.582 105.489 307.254 104.075 308.276 102.93C309.753 101.249 311.75 100.408 313.959 100.274Z" fill="white"/>
<path d="M259.842 89.5789C261.943 89.4056 263.959 89.9688 265.614 91.2955C267.291 92.6226 268.363 94.5684 268.59 96.695C268.701 97.713 268.655 99.3111 268.655 100.389L268.654 106.645L268.653 127.091L268.653 147.442L268.658 153.668C268.658 154.782 268.703 156.417 268.586 157.488C268.43 159.012 267.835 160.457 266.872 161.647C265.488 163.369 263.58 164.385 261.395 164.628C259.257 164.832 257.283 164.238 255.596 162.915C253.951 161.633 252.886 159.746 252.638 157.674C252.501 156.466 252.544 154.84 252.545 153.596L252.545 147.321L252.546 126.693L252.546 106.529L252.545 100.48C252.544 99.3486 252.5 97.7754 252.621 96.6884C252.782 95.1456 253.389 93.6831 254.368 92.4799C255.76 90.745 257.657 89.8247 259.842 89.5789Z" fill="white"/>
<path d="M286.172 62.7031H288.592L288.658 62.728C289.178 62.9176 289.802 63.0156 290.266 63.2046C292.214 63.9994 293.782 65.364 294.693 67.2769C295.163 68.2641 295.424 69.3384 295.458 70.4316C295.538 72.4429 295.474 74.8993 295.473 76.9354L295.471 88.9388L295.472 125.844L295.473 164.379L295.473 177.117C295.473 179.24 295.536 181.69 295.458 183.787C295.43 184.595 295.279 185.395 295.009 186.158C294.25 188.222 292.7 189.898 290.703 190.818C290.212 191.042 288.935 191.337 288.664 191.501H286.243C285.965 191.347 284.746 191.062 284.302 190.871C282.348 190.031 280.819 188.495 279.993 186.537C279.674 185.781 279.405 184.595 279.395 183.79C279.368 181.657 279.381 179.505 279.381 177.372V164.993L279.381 127.373L279.382 89.4526L279.382 77.0615C279.381 75.3607 279.383 73.6581 279.379 71.9575C279.375 70.4211 279.392 69.1418 279.994 67.6952C280.826 65.6946 282.337 64.1288 284.345 63.2946C284.93 63.0518 285.592 62.9609 286.172 62.7031Z" fill="white"/>
<path d="M225.721 117.797C226.011 117.217 226.151 116.417 226.421 115.785C227.264 113.805 228.951 112.23 230.969 111.499C233.018 110.755 235.281 110.864 237.249 111.802C239.18 112.732 240.663 114.389 241.374 116.41C241.962 118.119 241.829 120.163 241.827 121.968L241.824 127.683L241.828 132.685C241.83 134.852 241.976 136.723 240.973 138.726C239.991 140.676 238.273 142.154 236.198 142.834C234.192 143.468 232.017 143.29 230.141 142.338C228.294 141.387 226.773 139.743 226.159 137.743C226.08 137.486 225.818 136.514 225.721 136.345V117.797Z" fill="white"/>
</g>
</g>
</g>
<defs>

<clipPath id="clip0_4817_1599">
<rect x="27.8999" y="27.8999" width="336" height="199" rx="15" fill="white"/>
</clipPath>
</defs>
</svg>
