<svg width="392" height="255" viewBox="0 0 392 255" fill="none" xmlns="http://www.w3.org/2000/svg">
<g filter="url(#filter0_d_4817_1509)">
<g clip-path="url(#clip0_4817_1509)">
<rect x="27.8999" y="27.8999" width="336" height="199" rx="15" fill="#627A9C"/>
<circle cx="196.4" cy="127.4" r="50.2174" stroke="white" stroke-width="4.56522"/>
<path d="M193.12 102.709C193.528 102.722 194.077 103.137 194.46 103.326C194.923 103.554 195.372 103.771 195.857 103.956C197.627 104.634 199.504 105.189 201.405 105.301C203.236 105.328 205.061 104.984 206.755 104.287C207.536 103.966 208.253 103.483 209.109 103.419C209.889 103.359 210.66 103.618 211.246 104.136C211.819 104.639 212.168 105.349 212.217 106.111C212.277 106.989 211.986 107.699 211.419 108.353C210.635 109.156 209.2 109.582 208.124 109.865C207.132 110.117 206.123 110.299 205.105 110.408C202.369 110.708 199.732 110.535 197.299 109.124C195.487 108.082 194.099 106.467 193.075 104.666C192.734 104.066 191.955 102.977 193.12 102.709Z" fill="white"/>
<path d="M165.779 140.673C166.14 140.75 166.412 140.944 166.599 141.263C167.062 142.05 167.363 142.936 167.767 143.758C168.926 146.139 170.564 148.307 172.717 149.851C175.481 151.832 178.593 152.374 181.925 152.268C183.072 152.231 184.018 152.308 185.194 152.103C187.916 151.605 190.332 150.053 191.915 147.783C193.492 145.527 194.107 142.736 193.626 140.025C192.85 135.643 189.351 132.189 184.922 131.53C183.862 131.373 182.939 131.423 181.875 131.419C181.404 131.418 180.745 131.448 180.294 131.364C179.916 131.296 179.556 131.146 179.242 130.925C178.679 130.525 178.301 129.952 178.186 129.269C178.058 128.549 178.229 127.808 178.661 127.218C179.429 126.149 180.492 126.169 181.666 126.18C182.685 126.189 183.803 126.222 184.804 126.059C186.857 125.725 188.727 124.45 189.91 122.751C191.08 121.045 191.521 118.943 191.135 116.911C190.748 114.868 189.562 113.063 187.841 111.896C184.037 109.304 179.771 110.802 176.497 113.425C176.138 113.713 175.787 114.013 175.447 114.325C174.794 114.929 174.299 115.572 173.364 115.723C171.043 116.099 169.441 113.482 170.824 111.589C171.247 111.011 171.933 110.422 172.481 109.956C175.037 107.782 178.162 105.985 181.516 105.464C184.92 104.946 188.39 105.803 191.161 107.846C193.958 109.896 195.824 112.977 196.344 116.406C196.886 119.986 195.945 123.289 193.815 126.182C194.262 126.194 194.721 126.181 195.165 126.172C197.569 126.123 200.165 125.929 201.865 123.986C203.085 122.59 203.953 120.908 204.921 119.323C206.635 116.513 208.639 114.24 211.989 113.436C214.697 112.763 217.562 113.213 219.932 114.685C224.188 117.293 226.378 122.277 227.225 127.017C227.367 127.813 227.475 128.614 227.549 129.419C227.588 129.852 227.596 130.589 227.705 130.99V134.637C227.597 135.06 227.583 135.821 227.547 136.277C227.492 137.017 227.405 137.755 227.285 138.487C226.551 143.155 224.718 147.959 220.547 150.6C218.37 151.98 215.419 152.65 212.89 152.066C210.027 151.405 207.614 149.075 206.117 146.633C205.212 145.15 204.517 143.498 204.231 141.78C204.185 141.5 204.113 141.055 204.185 140.801C204.347 140.223 205.087 140.035 205.491 140.511C205.717 140.779 205.907 141.019 206.114 141.28C206.42 141.662 206.733 142.037 207.053 142.407C209.43 145.155 213.304 148.336 217.129 146.498C219.263 145.472 220.524 143.295 221.273 141.137C223.028 136.079 222.962 128.022 220.593 123.153C219.678 121.272 218.232 119.353 216.191 118.641C214.986 118.22 213.462 118.293 212.314 118.86C211.15 119.435 210.352 120.528 209.665 121.592C208.911 122.761 208.247 123.986 207.493 125.155C205.417 128.374 203.036 130.327 199.214 131.052C198.253 131.235 197.288 131.305 196.313 131.36C195.881 131.384 195.431 131.43 195 131.381C197.81 134.514 199.241 138.645 198.972 142.844C198.703 146.977 196.807 150.834 193.699 153.57C191.34 155.646 188.374 157.026 185.256 157.371C185.08 157.391 184.803 157.424 184.643 157.487H178.348C178.186 157.423 177.141 157.279 176.898 157.232C175.946 157.039 175.017 156.743 174.129 156.349C169.776 154.43 166.127 150.245 165.272 145.507C165.229 145.266 165.188 144.847 165.095 144.636V141.116C165.342 140.837 165.432 140.762 165.779 140.673Z" fill="white"/>
<path d="M202.307 94.8765H203.483C203.7 94.9703 204.085 95.0397 204.339 95.138C205.307 95.5228 206.085 96.2718 206.506 97.2241C206.916 98.1798 206.934 99.2584 206.555 100.227C206.157 101.214 205.382 102.001 204.401 102.413C203.456 102.803 202.396 102.804 201.45 102.418C200.482 102.021 199.711 101.257 199.305 100.293C198.909 99.3281 198.912 98.2456 199.312 97.2823C199.704 96.3467 200.406 95.5992 201.346 95.2049C201.649 95.0779 201.99 95.0101 202.253 94.8995L202.307 94.8765Z" fill="white"/>
<g opacity="0.05">
<circle cx="293.4" cy="127.4" r="122.913" stroke="white" stroke-width="11.1739"/>
<path d="M285.371 66.9683C286.37 66.9986 287.715 68.0147 288.653 68.4772C289.787 69.0362 290.885 69.5657 292.072 70.0199C296.403 71.6778 300.999 73.0379 305.65 73.3111C310.133 73.3768 314.598 72.5352 318.745 70.8299C320.656 70.0437 322.412 68.8615 324.508 68.7055C326.417 68.5582 328.303 69.1909 329.737 70.4589C331.14 71.6905 331.996 73.43 332.114 75.2933C332.261 77.4426 331.551 79.1806 330.161 80.781C328.242 82.7477 324.731 83.7889 322.097 84.4827C319.668 85.1001 317.199 85.544 314.707 85.8111C308.01 86.5462 301.556 86.1228 295.602 82.6677C291.166 80.1194 287.769 76.1662 285.263 71.7564C284.428 70.2874 282.521 67.6222 285.371 66.9683Z" fill="white"/>
<path d="M218.452 159.888C219.336 160.076 220.001 160.553 220.459 161.332C221.591 163.259 222.328 165.426 223.318 167.438C226.154 173.267 230.163 178.572 235.433 182.351C242.199 187.202 249.817 188.528 257.972 188.268C260.778 188.179 263.095 188.367 265.973 187.864C272.635 186.646 278.547 182.846 282.424 177.291C286.282 171.768 287.789 164.937 286.611 158.303C284.711 147.578 276.148 139.123 265.306 137.51C262.712 137.125 260.453 137.248 257.849 137.239C256.695 137.235 255.083 137.31 253.98 137.103C253.053 136.936 252.173 136.57 251.403 136.028C250.025 135.049 249.1 133.647 248.819 131.975C248.505 130.213 248.925 128.4 249.982 126.956C251.862 124.34 254.464 124.388 257.338 124.414C259.831 124.437 262.568 124.518 265.017 124.119C270.043 123.302 274.619 120.18 277.516 116.022C280.379 111.846 281.458 106.701 280.513 101.727C279.566 96.7263 276.664 92.3089 272.451 89.4525C263.141 83.108 252.7 86.7749 244.686 93.1946C243.806 93.9006 242.949 94.6353 242.117 95.3974C240.518 96.8755 239.305 98.45 237.016 98.8205C231.336 99.7402 227.415 93.3337 230.801 88.7016C231.835 87.2876 233.515 85.8445 234.857 84.7034C241.113 79.3838 248.76 74.986 256.969 73.711C265.301 72.441 273.795 74.5385 280.578 79.5403C287.425 84.5589 291.99 92.0983 293.264 100.491C294.589 109.254 292.287 117.338 287.074 124.42C288.168 124.449 289.292 124.418 290.378 124.395C296.261 124.275 302.617 123.801 306.776 119.045C309.763 115.629 311.888 111.511 314.256 107.631C318.452 100.754 323.357 95.1907 331.557 93.2227C338.184 91.5754 345.196 92.6777 350.998 96.2789C361.415 102.664 366.775 114.861 368.849 126.464C369.195 128.412 369.46 130.373 369.642 132.343C369.738 133.402 369.757 135.207 370.023 136.187V145.114C369.758 146.151 369.724 148.012 369.635 149.128C369.502 150.94 369.289 152.745 368.996 154.539C367.199 165.963 362.712 177.721 352.504 184.187C347.174 187.563 339.951 189.202 333.762 187.774C326.754 186.156 320.849 180.453 317.184 174.475C314.969 170.847 313.268 166.804 312.569 162.598C312.455 161.913 312.28 160.824 312.456 160.201C312.853 158.787 314.663 158.327 315.651 159.492C316.206 160.147 316.669 160.734 317.176 161.373C317.925 162.308 318.692 163.228 319.476 164.133C325.294 170.859 334.774 178.645 344.137 174.145C349.36 171.634 352.447 166.305 354.279 161.023C358.574 148.643 358.415 128.923 352.616 117.005C350.376 112.403 346.837 107.705 341.842 105.962C338.893 104.932 335.161 105.111 332.351 106.498C329.503 107.905 327.55 110.58 325.868 113.185C324.022 116.047 322.397 119.044 320.552 121.906C315.472 129.785 309.644 134.564 300.288 136.341C297.935 136.787 295.575 136.96 293.188 137.093C292.13 137.151 291.03 137.264 289.974 137.146C296.852 144.813 300.355 154.924 299.696 165.202C299.038 175.317 294.397 184.758 286.789 191.455C281.016 196.537 273.756 199.915 266.124 200.759C265.694 200.807 265.016 200.887 264.624 201.042H249.217C248.82 200.887 246.262 200.533 245.667 200.418C243.336 199.947 241.063 199.223 238.889 198.256C228.236 193.561 219.303 183.317 217.211 171.719C217.105 171.131 217.004 170.104 216.777 169.588V160.972C217.383 160.288 217.603 160.105 218.452 159.888Z" fill="white"/>
<path d="M307.858 47.7954H310.737C311.267 48.0251 312.211 48.195 312.832 48.4355C315.201 49.3775 317.105 51.2108 318.136 53.5415C319.14 55.8806 319.183 58.5206 318.256 60.8913C317.283 63.3069 315.385 65.2333 312.984 66.2412C310.671 67.1958 308.076 67.2001 305.76 66.2531C303.392 65.2814 301.505 63.4123 300.511 61.0539C299.542 58.6914 299.548 56.0417 300.529 53.6841C301.489 51.3941 303.205 49.5645 305.507 48.5992C306.248 48.2884 307.082 48.1225 307.727 47.8517L307.858 47.7954Z" fill="white"/>
</g>
</g>
</g>
<defs>
<filter id="filter0_d_4817_1509" x="-9.72748e-05" y="-9.72748e-05" width="391.8" height="254.8" filterUnits="userSpaceOnUse" color-interpolation-filters="sRGB">
<feFlood flood-opacity="0" result="BackgroundImageFix"/>
<feColorMatrix in="SourceAlpha" type="matrix" values="0 0 0 0 0 0 0 0 0 0 0 0 0 0 0 0 0 0 127 0" result="hardAlpha"/>
<feMorphology radius="7" operator="dilate" in="SourceAlpha" result="effect1_dropShadow_4817_1509"/>
<feOffset/>
<feGaussianBlur stdDeviation="10.45"/>
<feComposite in2="hardAlpha" operator="out"/>
<feColorMatrix type="matrix" values="0 0 0 0 1 0 0 0 0 1 0 0 0 0 1 0 0 0 1 0"/>
<feBlend mode="normal" in2="BackgroundImageFix" result="effect1_dropShadow_4817_1509"/>
<feBlend mode="normal" in="SourceGraphic" in2="effect1_dropShadow_4817_1509" result="shape"/>
</filter>
<clipPath id="clip0_4817_1509">
<rect x="27.8999" y="27.8999" width="336" height="199" rx="15" fill="white"/>
</clipPath>
</defs>
</svg>
