<svg width="392" height="255" viewBox="0 0 392 255" fill="none" xmlns="http://www.w3.org/2000/svg">
<g filter="url(#filter0_d_4817_1637)">
<g clip-path="url(#clip0_4817_1637)">
<rect x="27.8999" y="27.8999" width="336" height="199" rx="15" fill="#627A9C"/>
<path d="M184.191 119.455L184.19 119.454C181.873 119.611 180 120.474 178.448 122.237C177.712 123.074 176.992 124.516 176.402 125.597V125.598L173.978 130.029C173.721 130.499 173.406 131.101 173.101 131.653C174.655 131.273 176.139 131.164 177.572 131.391C179.148 131.64 180.643 132.295 182.085 133.417L182.373 133.647L182.379 133.652L182.386 133.658C183.324 134.512 184.197 135.587 184.763 136.776C185.13 136.09 185.52 135.395 185.883 134.732L188.395 130.146L189.376 128.353C189.652 127.848 189.934 127.337 190.153 126.832C190.56 125.891 190.524 124.712 190.233 123.685L190.171 123.481C189.719 122.085 188.76 120.913 187.49 120.191L187.233 120.053C186.265 119.563 185.284 119.395 184.191 119.455ZM226.416 131.432L226.396 131.488C226.327 131.676 226.301 131.839 226.237 132.085C226.018 132.914 225.463 133.785 225.098 134.452L223.298 137.74L219.261 145.115L216.71 149.779C216.308 150.514 215.605 151.887 215.11 152.561L215.109 152.562C214.489 153.394 213.676 154.064 212.74 154.514C212.481 154.638 212.237 154.74 211.973 154.825L211.7 154.905C211.569 154.941 211.387 154.976 211.243 155.007C211.082 155.042 210.959 155.074 210.889 155.104L210.823 155.134H174.982L174.923 155.111C174.811 155.07 174.597 155.029 174.331 154.989C174.088 154.953 173.803 154.917 173.615 154.882C169.671 154.133 166.044 150.999 164.777 147.18V147.181C164.62 146.72 164.488 146.251 164.383 145.775V145.773C164.351 145.624 164.301 145.291 164.254 145.008C164.229 144.86 164.205 144.719 164.181 144.607C164.169 144.552 164.158 144.506 164.149 144.473C164.138 144.433 164.134 144.428 164.14 144.439L164.101 144.365V142.02L164.137 141.952C164.132 141.963 164.135 141.959 164.145 141.925C164.154 141.893 164.163 141.848 164.175 141.793C164.199 141.683 164.224 141.543 164.25 141.396C164.3 141.114 164.352 140.787 164.377 140.658C164.771 138.634 165.789 137.061 166.717 135.363L169.457 130.356L172.698 124.432C173.544 122.888 174.361 121.166 175.539 119.769L175.54 119.767C176.779 118.318 178.349 117.192 180.117 116.481L180.618 116.293C183.139 115.404 185.92 115.321 188.437 116.405H188.438C190.795 117.429 192.65 119.345 193.597 121.734L193.598 121.735C194.48 123.981 194.537 126.511 193.5 128.729C193.312 129.133 193.117 129.464 192.915 129.829L192.914 129.828L192.033 131.438L189.087 136.815L185.915 142.606C185.313 143.701 184.748 144.953 183.921 145.978L183.92 145.979C183.057 147.038 181.927 147.849 180.648 148.329L180.647 148.328C177.238 149.628 172.827 148.582 171.429 144.795C170.895 143.348 170.959 141.748 171.608 140.35L171.609 140.349C172.224 139.032 173.38 138.02 174.739 137.546L174.746 137.543C175.159 137.41 175.668 137.264 176.187 137.2C176.701 137.137 177.26 137.149 177.75 137.366C178.689 137.781 179.053 138.951 178.666 139.845L178.579 140.02C178.262 140.576 177.806 140.8 177.346 140.911C177.125 140.964 176.896 140.993 176.69 141.02C176.477 141.047 176.283 141.074 176.098 141.121C175.109 141.373 174.666 142.399 174.973 143.396C175.218 144.19 175.849 144.674 176.643 144.898C177.443 145.125 178.375 145.075 179.123 144.822C181.465 144.032 182.319 141.662 181.657 139.34L181.589 139.116C181.102 137.646 180.056 136.426 178.676 135.722C177.081 134.916 175.112 134.953 173.401 135.526C169.159 136.947 166.907 141.618 168.356 145.837C169.059 147.883 170.551 149.564 172.498 150.505C174.259 151.356 175.567 151.325 177.527 151.325H180.51L189.872 151.324L203.144 151.325H207.55C208.355 151.325 209.154 151.33 209.953 151.318C210.407 151.312 210.904 151.198 211.271 150.978C211.562 150.803 211.878 150.521 212.072 150.252C212.287 149.953 212.471 149.594 212.669 149.232L213.504 147.704L216.29 142.61H216.291L220.431 135.044L221.721 132.689L222.119 131.969C222.25 131.73 222.376 131.492 222.494 131.254C222.611 131.003 222.623 130.818 222.533 130.588C222.434 130.331 222.279 130.224 222.073 130.166C221.834 130.099 221.55 130.105 221.195 130.104C220.884 130.102 220.576 130.103 220.264 130.104L217.49 130.106H204.338L200.142 130.107C199.846 130.108 199.197 130.129 198.594 130.12C198.287 130.116 197.978 130.104 197.708 130.077C197.451 130.052 197.189 130.01 197.003 129.927V129.928C196.541 129.721 196.18 129.337 196.001 128.863L196 128.86C195.824 128.377 195.865 127.819 196.078 127.367C196.291 126.911 196.68 126.561 197.156 126.399L197.158 126.398C197.312 126.348 197.533 126.322 197.751 126.307C197.98 126.29 198.244 126.282 198.506 126.279C199.024 126.273 199.572 126.286 199.82 126.286H199.819L202.764 126.288H214.033L219.222 126.287L220.662 126.274C221.176 126.272 221.691 126.276 222.106 126.304H222.105C222.732 126.341 223.343 126.511 223.901 126.8L224.084 126.898C224.992 127.415 225.738 128.244 226.102 129.24L226.192 129.52C226.218 129.612 226.241 129.704 226.263 129.792C226.309 129.973 226.348 130.137 226.4 130.296L226.416 130.347V131.432Z" fill="white" stroke="white" stroke-width="0.684783"/>
<path d="M208.466 97.1479C208.015 97.5627 207.611 97.9619 207.218 98.4399C202.569 104.1 202.924 113.459 208.293 118.521C208.338 118.563 208.398 118.618 208.46 118.67C208.868 118.319 209.277 117.875 209.622 117.463L209.823 117.218C213.968 112.024 213.973 103.887 209.876 98.6587C209.697 98.4305 209.401 98.0783 209.09 97.7476C208.865 97.5082 208.646 97.296 208.466 97.1479ZM222.598 106.985C222.252 106.977 221.898 106.974 221.575 106.997C220.042 107.176 218.866 107.443 217.485 108.108C217.33 108.182 217.182 108.246 217.031 108.327C216.927 108.383 216.841 108.436 216.776 108.487C216.72 108.823 216.709 109.194 216.679 109.587L216.678 109.589C216.658 109.83 216.633 110.071 216.604 110.311L216.503 111.03C216.101 113.557 215.077 116.413 213.548 118.611C213.635 118.588 213.717 118.565 213.792 118.542L213.803 118.538C216.436 117.809 218.494 116.408 220.133 114.225C221.804 111.999 222.571 109.712 222.598 106.985ZM195.106 106.987C194.867 106.974 194.599 106.979 194.329 106.987C194.292 110.132 195.542 112.968 197.689 115.309C199.287 117.052 201.153 118.018 203.378 118.602C203.163 118.289 202.958 117.969 202.764 117.642C202.172 116.649 201.753 115.725 201.356 114.647V114.645C200.898 113.383 200.57 112.079 200.375 110.751L200.3 110.181C200.274 109.954 200.252 109.549 200.229 109.185C200.211 108.904 200.191 108.66 200.172 108.503C198.554 107.611 196.966 107.086 195.106 106.987ZM226.417 108.254L226.4 108.306C226.347 108.465 226.311 108.703 226.278 108.983C226.246 109.245 226.217 109.549 226.173 109.781C225.222 114.807 221.75 119.422 216.998 121.455L216.997 121.454C214.54 122.543 212.022 122.883 209.406 122.997C201.759 123.328 194.955 120.528 191.739 113.055V113.054C190.769 110.835 190.369 108.409 190.577 105.997L190.578 105.993C190.673 104.998 190.811 104.289 191.28 103.843C191.517 103.617 191.816 103.481 192.167 103.39C192.514 103.3 192.936 103.249 193.438 103.206C195.982 102.987 198.202 103.474 200.484 104.407C200.649 103.424 200.987 102.235 201.274 101.408L201.448 100.926C202.356 98.5315 203.774 96.3087 205.653 94.5474C206.331 93.9115 207.074 93.2766 207.96 92.8521L208.031 92.8179H208.887L208.964 92.8599C209.179 92.9772 209.474 93.1045 209.741 93.2964C212.806 95.4973 214.941 98.8059 215.965 102.395L216.125 102.977C216.247 103.437 216.363 103.931 216.445 104.399C219.026 103.355 221.627 102.846 224.473 103.326C225.18 103.445 225.645 103.745 225.929 104.217C226.195 104.661 226.275 105.217 226.323 105.779L226.353 106.034C226.366 106.118 226.381 106.196 226.4 106.251L226.417 106.303V108.254Z" fill="white" stroke="white" stroke-width="0.684783"/>
<circle cx="196.4" cy="127.4" r="50.2174" stroke="white" stroke-width="4.56522"/>
<g opacity="0.05">
<path d="M270.961 109.417C268.595 108.221 266.2 107.806 263.527 107.953C257.85 108.335 253.262 110.445 249.461 114.764C248.11 116.3 246.781 118.67 245.591 120.875L244.452 122.988L238.519 133.837C237.89 134.988 237.12 136.461 236.371 137.813C240.176 136.883 243.808 136.612 247.314 137.167C251.172 137.779 254.831 139.381 258.363 142.127L259.068 142.692L259.083 142.705L259.098 142.718C261.395 144.807 263.531 147.439 264.916 150.35C265.815 148.669 266.772 146.971 267.659 145.349L273.805 134.121L276.209 129.731C276.883 128.496 277.575 127.246 278.11 126.011C279.174 123.555 279.001 120.434 278.154 117.809V117.808C276.972 114.164 274.383 111.143 270.962 109.417L270.961 109.417ZM366.868 137.269L366.818 137.409C366.734 137.638 366.676 137.853 366.619 138.084L366.428 138.868C365.893 140.897 364.534 143.03 363.641 144.662L359.236 152.708L349.355 170.761L343.111 182.176C342.127 183.975 340.408 187.335 339.195 188.983L339.192 188.987C337.674 191.025 335.686 192.664 333.396 193.764C332.655 194.12 331.965 194.398 331.188 194.627L330.85 194.723C330.527 194.81 330.081 194.896 329.73 194.972C329.334 195.058 329.037 195.135 328.865 195.21L328.702 195.282H240.975L240.833 195.228C240.56 195.126 240.035 195.028 239.385 194.93C238.79 194.841 238.092 194.753 237.633 194.666C227.978 192.832 219.097 185.161 215.996 175.811V175.81C215.613 174.684 215.292 173.537 215.035 172.375L215.034 172.372C214.956 172.007 214.836 171.193 214.72 170.499C214.659 170.136 214.598 169.793 214.54 169.519C214.511 169.382 214.485 169.271 214.462 169.188C214.435 169.09 214.424 169.078 214.44 169.108L214.345 168.925V163.183L214.429 163.024C214.433 163.013 214.44 162.99 214.45 162.952C214.472 162.873 214.498 162.765 214.527 162.63C214.584 162.361 214.647 162.019 214.71 161.66C214.832 160.967 214.959 160.167 215.02 159.852C215.985 154.899 218.476 151.048 220.748 146.892L227.453 134.636L235.389 120.136C237.457 116.358 239.455 112.143 242.34 108.722L242.344 108.717C245.375 105.173 249.219 102.413 253.547 100.675L254.157 100.438C260.282 98.1316 267.09 97.7686 273.291 100.233L273.909 100.49L273.912 100.491C279.501 102.918 283.937 107.396 286.316 112.989L286.539 113.534L286.54 113.536C288.699 119.033 288.841 125.225 286.303 130.655C285.842 131.641 285.362 132.453 284.869 133.346L282.711 137.282L282.712 137.283L275.501 150.447L267.738 164.62L267.737 164.621C266.262 167.299 264.881 170.363 262.857 172.872L262.854 172.875C260.741 175.466 257.979 177.451 254.848 178.625C246.503 181.809 235.702 179.249 232.281 169.977L232.162 169.644C230.984 166.192 231.18 162.414 232.719 159.097L232.72 159.095C234.226 155.871 237.054 153.394 240.38 152.233L240.4 152.227C241.41 151.902 242.656 151.545 243.925 151.388C245.185 151.233 246.551 151.264 247.752 151.794H247.751C250.203 152.876 251.055 156.065 249.781 158.29C249.004 159.649 247.89 160.199 246.764 160.47C246.224 160.6 245.663 160.67 245.157 160.736C244.635 160.804 244.16 160.87 243.707 160.985C241.288 161.602 240.203 164.113 240.955 166.552C241.555 168.497 243.098 169.679 245.041 170.229C247.001 170.784 249.282 170.662 251.114 170.043L251.388 169.947C257.092 167.855 259.037 161.839 257.148 156.077V156.076C255.956 152.476 253.393 149.492 250.016 147.77V147.769C246.111 145.798 241.295 145.889 237.108 147.292C226.726 150.769 221.213 162.2 224.759 172.528C226.48 177.535 230.13 181.648 234.898 183.952C239.208 186.034 242.409 185.959 247.205 185.96H254.508L277.422 185.959L309.906 185.96H320.692C322.662 185.96 324.616 185.972 326.573 185.944H326.574C327.685 185.928 328.899 185.649 329.798 185.109C330.51 184.681 331.284 183.992 331.759 183.333C332.286 182.602 332.736 181.724 333.221 180.838L335.264 177.098L342.085 164.629L352.218 146.11L355.375 140.348L355.376 140.347C356.027 139.165 356.689 138.002 357.269 136.833C357.554 136.218 357.584 135.767 357.365 135.205V135.204C357.121 134.574 356.741 134.311 356.239 134.17C355.653 134.006 354.959 134.022 354.089 134.018H354.088C353.327 134.014 352.573 134.018 351.809 134.019L345.02 134.026H345.019L312.828 134.024L302.558 134.028L302.559 134.029C301.835 134.03 300.247 134.08 298.771 134.059C298.02 134.048 297.262 134.019 296.603 133.955C295.973 133.893 295.331 133.79 294.876 133.586V133.585C293.745 133.08 292.862 132.143 292.425 130.983L292.422 130.975C291.99 129.793 292.09 128.429 292.612 127.322C293.131 126.205 294.084 125.348 295.25 124.952L295.257 124.95C295.634 124.825 296.172 124.762 296.706 124.724C297.266 124.684 297.914 124.665 298.555 124.658C299.822 124.643 301.163 124.674 301.769 124.674L308.976 124.678H336.559L349.26 124.676C351.279 124.675 354.288 124.585 356.318 124.718H356.317C357.85 124.81 359.346 125.224 360.709 125.931C363.133 127.168 365.147 129.303 366.098 131.905C366.264 132.359 366.386 132.825 366.494 133.255C366.606 133.698 366.703 134.099 366.828 134.488L366.868 134.614V137.269Z" fill="white" stroke="white" stroke-width="1.67609"/>
<path d="M322.935 53.3555C321.831 54.3707 320.84 55.3473 319.879 56.5176C308.499 70.3702 309.366 93.2773 322.509 105.667C322.619 105.77 322.766 105.905 322.917 106.034C323.914 105.174 324.915 104.088 325.762 103.079C336.396 90.4004 336.571 70.0529 326.385 57.0527C325.947 56.4942 325.222 55.6329 324.461 54.8232C323.911 54.2376 323.376 53.718 322.935 53.3555ZM357.526 77.4258C356.678 77.406 355.809 77.4066 355.017 77.4619C351.265 77.9006 348.387 78.5527 345.006 80.1807C344.628 80.3627 344.267 80.5201 343.897 80.7168C343.636 80.8558 343.424 80.9884 343.264 81.1152C343.128 81.9365 343.107 82.8417 343.033 83.8008V83.8066C342.934 84.9871 342.791 86.1633 342.604 87.333C341.62 93.5171 339.119 100.508 335.378 105.887C335.587 105.831 335.786 105.776 335.969 105.719L335.982 105.714L335.996 105.71C342.44 103.926 347.476 100.497 351.488 95.1533C355.58 89.7031 357.462 84.1031 357.526 77.4258ZM290.232 77.4365C289.649 77.4054 288.991 77.4205 288.332 77.4385C288.242 85.1365 291.3 92.0753 296.554 97.8057C300.465 102.072 305.034 104.44 310.48 105.869C309.953 105.103 309.451 104.319 308.977 103.52L308.452 102.614C307.272 100.517 306.382 98.4957 305.53 96.1855L305.528 96.1816C304.248 92.6521 303.382 88.9859 302.946 85.2568L302.945 85.2549C302.881 84.6975 302.827 83.7063 302.771 82.8164C302.727 82.1293 302.681 81.5332 302.635 81.1504C298.929 79.1069 295.287 77.8485 291.104 77.4961L290.232 77.4365ZM366.87 80.5391L366.827 80.667C366.699 81.055 366.61 81.6371 366.528 82.3232C366.452 82.9655 366.381 83.7072 366.273 84.2744C363.947 96.5774 355.447 107.874 343.815 112.848L343.814 112.847C337.8 115.513 331.636 116.345 325.231 116.622C306.517 117.433 289.867 110.582 281.993 92.2939L281.774 91.7832C279.557 86.4899 278.655 80.7348 279.149 75.0117V75.0049C279.382 72.5703 279.72 70.8332 280.867 69.7422C281.45 69.1883 282.18 68.8565 283.039 68.6338C283.889 68.4135 284.921 68.2871 286.15 68.1816C292.377 67.6477 297.809 68.8403 303.393 71.1221C303.796 68.7169 304.627 65.8067 305.328 63.7822L305.329 63.7812C307.522 57.4723 311.14 51.5879 316.046 46.9893C317.706 45.4328 319.526 43.879 321.694 42.8398L321.866 42.7578H323.963L324.15 42.8604C324.676 43.1477 325.402 43.4569 326.056 43.9268C333.557 49.3138 338.781 57.4136 341.288 66.1982C341.708 67.6684 342.175 69.4534 342.461 71.1016C348.78 68.5465 355.145 67.3001 362.112 68.4746C363.842 68.7663 364.981 69.5016 365.676 70.6582C366.328 71.7445 366.521 73.1055 366.638 74.4805L366.67 74.79C366.707 75.1071 366.761 75.4322 366.828 75.6367L366.87 75.7646V80.5391Z" fill="white" stroke="white" stroke-width="1.67609"/>
<circle cx="293.4" cy="127.4" r="122.913" stroke="white" stroke-width="11.1739"/>
</g>
</g>
</g>
<defs>
<filter id="filter0_d_4817_1637" x="-9.72748e-05" y="-9.72748e-05" width="391.8" height="254.8" filterUnits="userSpaceOnUse" color-interpolation-filters="sRGB">
<feFlood flood-opacity="0" result="BackgroundImageFix"/>
<feColorMatrix in="SourceAlpha" type="matrix" values="0 0 0 0 0 0 0 0 0 0 0 0 0 0 0 0 0 0 127 0" result="hardAlpha"/>
<feMorphology radius="7" operator="dilate" in="SourceAlpha" result="effect1_dropShadow_4817_1637"/>
<feOffset/>
<feGaussianBlur stdDeviation="10.45"/>
<feComposite in2="hardAlpha" operator="out"/>
<feColorMatrix type="matrix" values="0 0 0 0 1 0 0 0 0 1 0 0 0 0 1 0 0 0 1 0"/>
<feBlend mode="normal" in2="BackgroundImageFix" result="effect1_dropShadow_4817_1637"/>
<feBlend mode="normal" in="SourceGraphic" in2="effect1_dropShadow_4817_1637" result="shape"/>
</filter>
<clipPath id="clip0_4817_1637">
<rect x="27.8999" y="27.8999" width="336" height="199" rx="15" fill="white"/>
</clipPath>
</defs>
</svg>
